midiPitch 	 onsetSec 	 durationSec 	 onsetBeats 	 onsetBarIndex 	 onsetBar 	 durationBeats 	 velocity  	 numerator 	 denominator 
67	0.0406349	0.16254	0	0	0	0	1	4	4
67	0.203175	0.179955	0	0	0	0	1	4	4
68	0.406349	0.0928798	0	0	0	0	1	4	4
67	0.499229	0.0812699	0	0	0	0	1	4	4
65	0.580499	0.1161	0	0	0	0	1	4	4
62	0.696599	0.13932	0	0	0	0	1	4	4
66	0.946213	0.0928798	0	0	0	0	1	4	4
63	1.24807	0.10449	0	0	0	0	1	4	4
0	1.35256	0.10449	0	0	0	0	1	4	4
60	1.45705	0.0580499	0	0	0	0	1	4	4
65	1.53252	0.0232199	0	0	0	0	1	4	4
60	1.63701	0.481814	0	0	0	0	1	4	4
66	2.42068	0.0290248	0	0	0	0	1	4	4
62	2.44971	0.0870748	0	0	0	0	1	4	4
65	2.71093	0.15093	0	0	0	0	1	4	4
60	2.97215	0.203175	0	0	0	0	1	4	4
60	3.39011	0.110295	0	0	0	0	1	4	4
63	3.51202	0.133515	0	0	0	0	1	4	4
59	3.84871	0.145125	0	0	0	0	1	4	4
55	4.12735	0.0928798	0	0	0	0	1	4	4
59	4.28989	0.191565	0	0	0	0	1	4	4
58	4.59175	0.0232201	0	0	0	0	1	4	4
55	4.76009	0.121904	0	0	0	0	1	4	4
65	5.16063	0.0290246	0	0	0	0	1	4	4
65	5.18966	0.0290251	0	0	0	0	1	4	4
58	5.22449	0.15093	0	0	0	0	1	4	4
57	6.12426	0.156735	0	0	0	0	1	4	4
60	6.58866	0.214785	0	0	0	0	1	4	4
61	6.80345	0.150929	0	0	0	0	1	4	4
60	6.95438	0.0464401	0	0	0	0	1	4	4
65	7.14014	0.10449	0	0	0	0	1	4	4
62	7.24463	0.0406351	0	0	0	0	1	4	4
65	7.48263	0.19737	0	0	0	0	1	4	4
64	7.68	0.0754647	0	0	0	0	1	4	4
58	7.92961	0.13932	0	0	0	0	1	4	4
58	8.38821	0.0638552	0	0	0	0	1	4	4
59	8.45206	0.226395	0	0	0	0	1	4	4
58	8.67846	0.0522442	0	0	0	0	1	4	4
57	8.7307	0.0232201	0	0	0	0	1	4	4
60	8.87002	0.510839	0	0	0	0	1	4	4
57	9.5376	0.0580502	0	0	0	0	1	4	4
58	9.59565	0.0522451	0	0	0	0	1	4	4
53	9.7756	0.0812702	0	0	0	0	1	4	4
62	9.88009	0.104489	0	0	0	0	1	4	4
60	10.1936	0.0754652	0	0	0	0	1	4	4
62	10.4432	0.0696602	0	0	0	0	1	4	4
63	10.6638	0.0464401	0	0	0	0	1	4	4
61	10.7334	0.0232201	0	0	0	0	1	4	4
57	10.7566	0.0406342	0	0	0	0	1	4	4
62	10.8379	0.0406351	0	0	0	0	1	4	4
62	10.8902	0.0348301	0	0	0	0	1	4	4
63	11.1688	0.0464392	0	0	0	0	1	4	4
65	11.2327	0.10449	0	0	0	0	1	4	4
66	11.5403	0.0406351	0	0	0	0	1	4	4
20439200	11.7957	0.133515	0	0	0	0	1	4	4
62	11.9931	0.986849	0	0	0	0	1	4	4
62	13.0612	0.26703	0	0	0	0	1	4	4
62	13.3979	0.156734	0	0	0	0	1	4	4
60	13.5546	0.22059	0	0	0	0	1	4	4
60	13.8159	0.22059	0	0	0	0	1	4	4
58	14.0365	0.162539	0	0	0	0	1	4	4
58	14.199	0.0870743	0	0	0	0	1	4	4
20439200	14.2861	0.214785	0	0	0	0	1	4	4
67	14.9769	0.156734	0	0	0	0	1	4	4
67	15.1336	0.0406351	0	0	0	0	1	4	4
70	15.1975	0.249615	0	0	0	0	1	4	4
65	15.778	0.145124	0	0	0	0	1	4	4
65	15.9231	0.133515	0	0	0	0	1	4	4
65	16.0566	0.0696602	0	0	0	0	1	4	4
65	16.1611	0.162539	0	0	0	0	1	4	4
65	16.3236	0.232201	0	0	0	0	1	4	4
65	16.6487	0.0812702	0	0	0	0	1	4	4
58	17.0376	0.1161	0	0	0	0	1	4	4
58	17.1537	0.208979	0	0	0	0	1	4	4
60	17.5195	0.238005	0	0	0	0	1	4	4
62	17.7749	0.104488	0	0	0	0	1	4	4
62	17.8794	0.0522461	0	0	0	0	1	4	4
62	17.9316	0.261225	0	0	0	0	1	4	4
61	18.1928	0.150928	0	0	0	0	1	4	4
62	18.3438	0.0406361	0	0	0	0	1	4	4
62	18.3902	0.214785	0	0	0	0	1	4	4
58	18.6746	0.1161	0	0	0	0	1	4	4
58	18.9881	0.13932	0	0	0	0	1	4	4
60	19.261	0.0928802	0	0	0	0	1	4	4
62	19.5744	0.1161	0	0	0	0	1	4	4
54	20.2478	0.104488	0	0	0	0	1	4	4
55	20.5148	0.0870743	0	0	0	0	1	4	4
55	20.747	0.110296	0	0	0	0	1	4	4
64	20.8922	0.139318	0	0	0	0	1	4	4
62	21.0315	0.18576	0	0	0	0	1	4	4
62	21.2172	0.313469	0	0	0	0	1	4	4
60	21.5771	0.383129	0	0	0	0	1	4	4
58	21.9603	0.0522442	0	0	0	0	1	4	4
57	22.0125	0.0348301	0	0	0	0	1	4	4
57	22.0532	0.0464401	0	0	0	0	1	4	4
58	22.2389	0.13932	0	0	0	0	1	4	4
59	22.3782	0.0464401	0	0	0	0	1	4	4
65	22.7323	0.104488	0	0	0	0	1	4	4
65	23.0516	0.12771	0	0	0	0	1	4	4
61	23.1793	0.0638542	0	0	0	0	1	4	4
65	23.2432	0.0928802	0	0	0	0	1	4	4
65	23.3419	0.0290241	0	0	0	0	1	4	4
65	23.3999	0.208981	0	0	0	0	1	4	4
65	23.6089	0.179955	0	0	0	0	1	4	4
62	23.8701	0.383129	0	0	0	0	1	4	4
62	24.2649	0.226395	0	0	0	0	1	4	4
60	24.4912	0.0638542	0	0	0	0	1	4	4
62	24.9963	0.13932	0	0	0	0	1	4	4
62	25.4142	0.197371	0	0	0	0	1	4	4
62	25.6116	0.0290241	0	0	0	0	1	4	4
69	25.8844	0.290251	0	0	0	0	1	4	4
0	26.1747	0.296053	0	0	0	0	1	4	4
65	26.4707	0.0348301	0	0	0	0	1	4	4
65	26.523	0.191565	0	0	0	0	1	4	4
66	26.7668	0.261225	0	0	0	0	1	4	4
65	27.028	0.0870743	0	0	0	0	1	4	4
62	27.1151	0.301861	0	0	0	0	1	4	4
60	28.3458	0.214785	0	0	0	0	1	4	4
57	28.5605	0.18576	0	0	0	0	1	4	4
58	28.7463	0.0812702	0	0	0	0	1	4	4
