midiPitch 	 onsetSec 	 durationSec 	 onsetBeats 	 onsetBarIndex 	 onsetBar 	 durationBeats 	 velocity  	 numerator 	 denominator 
62	0.0812698	0.330884	0	0	0	0	1	4	4
62	0.493424	0.0348299	0	0	0	0	1	4	4
62	0.621134	0.0406349	0	0	0	0	1	4	4
60	1.76472	0.0522449	0	0	0	0	1	4	4
59	1.83438	0.03483	0	0	0	0	1	4	4
59	1.86921	0.0464399	0	0	0	0	1	4	4
59	1.91565	0.0232199	0	0	0	0	1	4	4
61	1.99692	0.0290248	0	0	0	0	1	4	4
71	2.22331	0.0580497	0	0	0	0	1	4	4
60	2.31619	0.145125	0	0	0	0	1	4	4
60	2.61805	0.0232198	0	0	0	0	1	4	4
60	2.71673	0.0290248	0	0	0	0	1	4	4
59	2.7922	0.0232198	0	0	0	0	1	4	4
55	4.8878	0.133515	0	0	0	0	1	4	4
55	5.05615	0.0870748	0	0	0	0	1	4	4
55	5.3522	0.0232201	0	0	0	0	1	4	4
55	5.37542	0.145124	0	0	0	0	1	4	4
59	5.72952	0.0522451	0	0	0	0	1	4	4
60	5.86884	0.0580497	0	0	0	0	1	4	4
55	5.99655	0.12771	0	0	0	0	1	4	4
60	6.1649	0.0406346	0	0	0	0	1	4	4
59	6.20553	0.0696602	0	0	0	0	1	4	4
59	6.27519	0.0754647	0	0	0	0	1	4	4
60	6.52481	0.26703	0	0	0	0	1	4	4
55	6.96599	0.0928798	0	0	0	0	1	4	4
55	7.11111	0.127709	0	0	0	0	1	4	4
55	7.23882	0.0986848	0	0	0	0	1	4	4
59	7.38395	0.0464401	0	0	0	0	1	4	4
59	7.58712	0.290249	0	0	0	0	1	4	4
67	8.00508	0.0232201	0	0	0	0	1	4	4
64	8.12698	0.0406351	0	0	0	0	1	4	4
59	8.47528	0.17415	0	0	0	0	1	4	4
57	8.78295	0.29025	0	0	0	0	1	4	4
67	9.08481	0.301859	0	0	0	0	1	4	4
64	9.87429	0.0696592	0	0	0	0	1	4	4
62	9.94394	0.0290251	0	0	0	0	1	4	4
58	10.2052	0.0406351	0	0	0	0	1	4	4
59	10.2458	0.238005	0	0	0	0	1	4	4
60	10.6812	0.238005	0	0	0	0	1	4	4
59	11.1514	0.203175	0	0	0	0	1	4	4
55	11.6854	0.150929	0	0	0	0	1	4	4
57	11.9757	0.307664	0	0	0	0	1	4	4
56	12.4807	0.156734	0	0	0	0	1	4	4
57	13.1947	0.0812693	0	0	0	0	1	4	4
57	13.7346	0.145124	0	0	0	0	1	4	4
55	14.3615	0.150929	0	0	0	0	1	4	4
62	14.7795	0.156734	0	0	0	0	1	4	4
59	15.151	0.307665	0	0	0	0	1	4	4
59	15.8708	0.104489	0	0	0	0	1	4	4
71	16.2366	0.325079	0	0	0	0	1	4	4
55	16.6661	0.110294	0	0	0	0	1	4	4
59	17.4092	0.371519	0	0	0	0	1	4	4
64	18.0071	0.0232201	0	0	0	0	1	4	4
60	18.6979	0.0928802	0	0	0	0	1	4	4
55	18.9939	0.238005	0	0	0	0	1	4	4
63	19.7834	0.110294	0	0	0	0	1	4	4
59	20.0678	0.145124	0	0	0	0	1	4	4
59	20.213	0.226395	0	0	0	0	1	4	4
58	20.8167	0.0348301	0	0	0	0	1	4	4
59	20.8573	0.139318	0	0	0	0	1	4	4
58	21.136	0.214785	0	0	0	0	1	4	4
59	22.059	0.168344	0	0	0	0	1	4	4
58	22.4305	0.156734	0	0	0	0	1	4	4
58	22.5872	0.0986862	0	0	0	0	1	4	4
58	23.307	0.272833	0	0	0	0	1	4	4
55	23.9746	0.145124	0	0	0	0	1	4	4
59	25.0717	0.371519	0	0	0	0	1	4	4
60	25.5129	0.0638561	0	0	0	0	1	4	4
59	25.7916	0.116098	0	0	0	0	1	4	4
58	25.9077	0.145124	0	0	0	0	1	4	4
59	26.1166	0.0348301	0	0	0	0	1	4	4
59	26.1515	0.0232201	0	0	0	0	1	4	4
59	26.1805	0.0464401	0	0	0	0	1	4	4
59	26.7668	0.1161	0	0	0	0	1	4	4
57	27.4054	0.0406342	0	0	0	0	1	4	4
57	27.446	0.0406342	0	0	0	0	1	4	4
59	27.7246	0.0580502	0	0	0	0	1	4	4
59	28.2471	0.272835	0	0	0	0	1	4	4
57	28.6883	0.0522442	0	0	0	0	1	4	4
57	28.7405	0.0406361	0	0	0	0	1	4	4
57	28.7811	0.0406342	0	0	0	0	1	4	4
57	28.8218	0.0522461	0	0	0	0	1	4	4
57	29.1875	0.220589	0	0	0	0	1	4	4
57	29.6809	0.197371	0	0	0	0	1	4	4
