midiPitch 	 onsetSec 	 durationSec 	 onsetBeats 	 onsetBarIndex 	 onsetBar 	 durationBeats 	 velocity  	 numerator 	 denominator 
59	0.296054	0.0290249	0	0	4.81458e-035	0	1	4	4
59	0.330884	0.02322	0	0	4.81458e-035	0	1	4	4
59	0.377324	0.0638549	0	0	4.81458e-035	0	1	4	4
62	0.505034	0.0232199	0	0	4.81458e-035	0	1	4	4
62	0.597914	0.0638549	0	0	4.81458e-035	0	1	4	4
62	0.702404	0.0232199	0	0	4.81458e-035	0	1	4	4
62	0.748844	0.0232199	0	0	4.81458e-035	0	1	4	4
64	0.824308	0.0232199	0	0	4.81458e-035	0	1	4	4
66	1.22485	0.0232199	0	0	4.81458e-035	0	1	4	4
65	1.35837	0.0232199	0	0	4.81458e-035	0	1	4	4
67	1.5151	0.029025	0	0	4.81458e-035	0	1	4	4
63	1.61959	0.0232199	0	0	4.81458e-035	0	1	4	4
64	1.78794	0.0232199	0	0	4.81458e-035	0	1	4	4
61	1.81696	0.0232199	0	0	4.81458e-035	0	1	4	4
65	1.96209	0.0754648	0	0	4.81458e-035	0	1	4	4
64	2.03755	0.0232201	0	0	4.81458e-035	0	1	4	4
59	3.06503	0.17415	0	0	4.81458e-035	0	1	4	4
59	3.23918	0.0638549	0	0	4.81458e-035	0	1	4	4
56	3.61651	0.0232201	0	0	4.81458e-035	0	1	4	4
62	3.73261	0.0464399	0	0	4.81458e-035	0	1	4	4
62	4.15057	0.0348296	0	0	4.81458e-035	0	1	4	4
62	4.60336	0.0290251	0	0	4.81458e-035	0	1	4	4
62	4.64399	0.0406346	0	0	4.81458e-035	0	1	4	4
61	4.80653	0.1161	0	0	4.81458e-035	0	1	4	4
62	5.86304	0.10449	0	0	4.81458e-035	0	1	4	4
62	5.98494	0.354104	0	0	4.81458e-035	0	1	4	4
56	7.11111	0.0232196	0	0	4.81458e-035	0	1	4	4
62	7.13433	0.0290251	0	0	4.81458e-035	0	1	4	4
62	7.16916	0.0232201	0	0	4.81458e-035	0	1	4	4
62	7.19819	0.0754647	0	0	4.81458e-035	0	1	4	4
62	7.27365	0.0290251	0	0	4.81458e-035	0	1	4	4
62	7.30848	0.110295	0	0	4.81458e-035	0	1	4	4
62	7.50585	0.0754647	0	0	4.81458e-035	0	1	4	4
62	7.62776	0.0232196	0	0	4.81458e-035	0	1	4	4
61	7.70902	0.0232201	0	0	4.81458e-035	0	1	4	4
59	7.80771	0.0232201	0	0	4.81458e-035	0	1	4	4
59	7.83673	0.0348296	0	0	4.81458e-035	0	1	4	4
58	7.87156	0.0870748	0	0	4.81458e-035	0	1	4	4
58	8.08635	0.0696592	0	0	4.81458e-035	0	1	4	4
58	8.15601	0.0348301	0	0	4.81458e-035	0	1	4	4
58	8.19084	0.0348301	0	0	4.81458e-035	0	1	4	4
58	8.35918	0.0406351	0	0	4.81458e-035	0	1	4	4
58	8.41723	0.0754652	0	0	4.81458e-035	0	1	4	4
58	8.4927	0.0290241	0	0	4.81458e-035	0	1	4	4
58	8.52753	0.0986853	0	0	4.81458e-035	0	1	4	4
58	8.68426	0.0232201	0	0	4.81458e-035	0	1	4	4
58	8.71329	0.13932	0	0	4.81458e-035	0	1	4	4
55	8.88744	0.0290241	0	0	4.81458e-035	0	1	4	4
59	9.02095	0.0406351	0	0	4.81458e-035	0	1	4	4
59	9.09061	0.0870743	0	0	4.81458e-035	0	1	4	4
59	9.17769	0.0232201	0	0	4.81458e-035	0	1	4	4
59	9.20671	0.10449	0	0	4.81458e-035	0	1	4	4
59	9.34023	0.0290251	0	0	4.81458e-035	0	1	4	4
59	9.43311	0.0522451	0	0	4.81458e-035	0	1	4	4
58	9.79302	0.0290251	0	0	4.81458e-035	0	1	4	4
57	9.84526	0.0348301	0	0	4.81458e-035	0	1	4	4
58	9.8917	0.0348301	0	0	4.81458e-035	0	1	4	4
57	9.93234	0.0696592	0	0	4.81458e-035	0	1	4	4
58	10.002	0.0638552	0	0	4.81458e-035	0	1	4	4
58	10.0659	0.0580502	0	0	4.81458e-035	0	1	4	4
58	10.1239	0.0348291	0	0	4.81458e-035	0	1	4	4
56	10.3329	0.0406342	0	0	4.81458e-035	0	1	4	4
59	10.4025	0.0406351	0	0	4.81458e-035	0	1	4	4
59	10.4432	0.0232201	0	0	4.81458e-035	0	1	4	4
57	10.5883	0.0638552	0	0	4.81458e-035	0	1	4	4
57	10.6522	0.116099	0	0	4.81458e-035	0	1	4	4
57	10.9482	0.191565	0	0	4.81458e-035	0	1	4	4
57	11.2385	0.0290251	0	0	4.81458e-035	0	1	4	4
57	11.2733	0.0580502	0	0	4.81458e-035	0	1	4	4
57	11.3313	0.0812693	0	0	4.81458e-035	0	1	4	4
57	11.4126	0.0348301	0	0	4.81458e-035	0	1	4	4
56	11.4474	0.0290251	0	0	4.81458e-035	0	1	4	4
59	11.581	0.17415	0	0	4.81458e-035	0	1	4	4
54	11.8364	0.0638552	0	0	4.81458e-035	0	1	4	4
58	11.9176	0.0406351	0	0	4.81458e-035	0	1	4	4
49	12.0512	0.0696602	0	0	4.81458e-035	0	1	4	4
55	12.2834	0.20898	0	0	4.81458e-035	0	1	4	4
56	12.5678	0.0406342	0	0	4.81458e-035	0	1	4	4
55	12.6317	0.16254	0	0	4.81458e-035	0	1	4	4
52	12.8522	0.121905	0	0	4.81458e-035	0	1	4	4
52	13.2005	0.20898	0	0	4.81458e-035	0	1	4	4
58	13.5082	0.0406351	0	0	4.81458e-035	0	1	4	4
58	13.5721	0.0406351	0	0	4.81458e-035	0	1	4	4
58	13.6185	0.261224	0	0	4.81458e-035	0	1	4	4
59	14.7215	0.0406351	0	0	4.81458e-035	0	1	4	4
59	14.7621	0.0290251	0	0	4.81458e-035	0	1	4	4
60	14.855	0.0406342	0	0	4.81458e-035	0	1	4	4
59	14.913	0.0290251	0	0	4.81458e-035	0	1	4	4
57	15.0407	0.0464392	0	0	4.81458e-035	0	1	4	4
58	15.3426	0.0348301	0	0	4.81458e-035	0	1	4	4
58	15.3832	0.0232201	0	0	4.81458e-035	0	1	4	4
58	15.418	0.0290251	0	0	4.81458e-035	0	1	4	4
59	15.5516	0.0348301	0	0	4.81458e-035	0	1	4	4
59	15.5922	0.133514	0	0	4.81458e-035	0	1	4	4
57	15.7431	0.0406351	0	0	4.81458e-035	0	1	4	4
58	15.7896	0.0406351	0	0	4.81458e-035	0	1	4	4
59	15.836	0.0870743	0	0	4.81458e-035	0	1	4	4
60	15.9637	0.0290251	0	0	4.81458e-035	0	1	4	4
59	15.9927	0.0290251	0	0	4.81458e-035	0	1	4	4
57	16.2772	0.18576	0	0	4.81458e-035	0	1	4	4
53	16.4804	0.371519	0	0	4.81458e-035	0	1	4	4
52	16.8519	0.0348301	0	0	4.81458e-035	0	1	4	4
43	17.235	0.029026	0	0	4.81458e-035	0	1	4	4
50	17.264	0.12771	0	0	4.81458e-035	0	1	4	4
43	17.4846	0.232201	0	0	4.81458e-035	0	1	4	4
59	17.8387	0.168344	0	0	4.81458e-035	0	1	4	4
59	18.129	0.0522461	0	0	4.81458e-035	0	1	4	4
59	18.1812	0.0232201	0	0	4.81458e-035	0	1	4	4
60	18.2102	0.13932	0	0	4.81458e-035	0	1	4	4
59	18.4831	0.0522442	0	0	4.81458e-035	0	1	4	4
59	18.5353	0.0348301	0	0	4.81458e-035	0	1	4	4
59	18.7501	0.168344	0	0	4.81458e-035	0	1	4	4
58	18.9591	0.0928802	0	0	4.81458e-035	0	1	4	4
59	19.1332	0.238005	0	0	4.81458e-035	0	1	4	4
59	19.4003	0.139318	0	0	4.81458e-035	0	1	4	4
60	19.5802	0.0348301	0	0	4.81458e-035	0	1	4	4
59	19.6151	0.0348301	0	0	4.81458e-035	0	1	4	4
59	19.6673	0.0348301	0	0	4.81458e-035	0	1	4	4
55	19.8705	0.0870743	0	0	4.81458e-035	0	1	4	4
57	20.3871	0.0406361	0	0	4.81458e-035	0	1	4	4
57	20.4916	0.0290241	0	0	4.81458e-035	0	1	4	4
57	20.66	0.226395	0	0	4.81458e-035	0	1	4	4
57	21.0199	0.0638561	0	0	4.81458e-035	0	1	4	4
58	21.0837	0.0348282	0	0	4.81458e-035	0	1	4	4
58	21.2521	0.185759	0	0	4.81458e-035	0	1	4	4
58	21.6236	0.0580502	0	0	4.81458e-035	0	1	4	4
58	21.7281	0.0928802	0	0	4.81458e-035	0	1	4	4
61	21.8906	0.12771	0	0	4.81458e-035	0	1	4	4
60	22.0183	0.0870743	0	0	4.81458e-035	0	1	4	4
55	22.1983	0.121904	0	0	4.81458e-035	0	1	4	4
56	22.4479	0.0406342	0	0	4.81458e-035	0	1	4	4
54	22.5988	0.0232201	0	0	4.81458e-035	0	1	4	4
55	22.6336	0.121904	0	0	4.81458e-035	0	1	4	4
53	22.8891	0.0464401	0	0	4.81458e-035	0	1	4	4
52	22.9355	0.0232182	0	0	4.81458e-035	0	1	4	4
53	23.1503	0.168344	0	0	4.81458e-035	0	1	4	4
53	23.3361	0.121904	0	0	4.81458e-035	0	1	4	4
51	23.4986	0.232199	0	0	4.81458e-035	0	1	4	4
49	23.7946	0.214785	0	0	4.81458e-035	0	1	4	4
60	24.0675	0.029026	0	0	4.81458e-035	0	1	4	4
55	24.1139	0.0696602	0	0	4.81458e-035	0	1	4	4
55	24.1836	0.226395	0	0	4.81458e-035	0	1	4	4
52	24.4564	0.0754642	0	0	4.81458e-035	0	1	4	4
52	24.677	0.191565	0	0	4.81458e-035	0	1	4	4
52	24.8686	0.278641	0	0	4.81458e-035	0	1	4	4
51	25.362	0.116098	0	0	4.81458e-035	0	1	4	4
53	25.6116	0.0638542	0	0	4.81458e-035	0	1	4	4
52	25.6755	0.0928802	0	0	4.81458e-035	0	1	4	4
52	25.7683	0.0870743	0	0	4.81458e-035	0	1	4	4
51	25.8554	0.0754642	0	0	4.81458e-035	0	1	4	4
53	26.2211	0.174149	0	0	4.81458e-035	0	1	4	4
52	26.3953	0.121904	0	0	4.81458e-035	0	1	4	4
52	26.5172	0.179955	0	0	4.81458e-035	0	1	4	4
59	27.9568	0.0812702	0	0	4.81458e-035	0	1	4	4
76	27.8814	0.783674	0	0	4.81458e-035	0	1	4	4
76	28.665	0.0406342	0	0	4.81458e-035	0	1	4	4
76	28.7057	0.0928802	0	0	4.81458e-035	0	1	4	4
76	28.7985	0.249615	0	0	4.81458e-035	0	1	4	4
76	29.0482	0.179955	0	0	4.81458e-035	0	1	4	4
75	29.2513	0.290249	0	0	4.81458e-035	0	1	4	4
