midiPitch 	 onsetSec 	 durationSec 	 onsetBeats 	 onsetBarIndex 	 onsetBar 	 durationBeats 	 velocity  	 numerator 	 denominator 
49	2.40327	0.1161	0	0	2.67052e-035	0	1	4	4
49	2.63546	0.110295	0	0	2.67052e-035	0	1	4	4
52	2.798	0.0290251	0	0	2.67052e-035	0	1	4	4
53	2.83283	0.0232198	0	0	2.67052e-035	0	1	4	4
51	2.87347	0.0232198	0	0	2.67052e-035	0	1	4	4
48	2.90249	0.0522449	0	0	2.67052e-035	0	1	4	4
49	2.99537	0.0290248	0	0	2.67052e-035	0	1	4	4
49	3.2624	0.075465	0	0	2.67052e-035	0	1	4	4
57	3.3727	0.075465	0	0	2.67052e-035	0	1	4	4
56	3.63973	0.0406349	0	0	2.67052e-035	0	1	4	4
59	3.70358	0.0232198	0	0	2.67052e-035	0	1	4	4
57	3.75002	0.168345	0	0	2.67052e-035	0	1	4	4
57	3.91837	0.0406349	0	0	2.67052e-035	0	1	4	4
57	3.96481	0.313469	0	0	2.67052e-035	0	1	4	4
54	4.33633	0.18576	0	0	2.67052e-035	0	1	4	4
54	4.56272	0.20898	0	0	2.67052e-035	0	1	4	4
54	4.7717	0.0464401	0	0	2.67052e-035	0	1	4	4
57	5.97333	0.133514	0	0	2.67052e-035	0	1	4	4
54	6.10685	0.0232201	0	0	2.67052e-035	0	1	4	4
54	6.14168	0.249615	0	0	2.67052e-035	0	1	4	4
56	6.91374	0.0638547	0	0	2.67052e-035	0	1	4	4
56	7.72063	0.1161	0	0	2.67052e-035	0	1	4	4
56	7.83673	0.116099	0	0	2.67052e-035	0	1	4	4
53	8.59138	0.26703	0	0	2.67052e-035	0	1	4	4
55	9.10803	0.0464392	0	0	2.67052e-035	0	1	4	4
54	9.15447	0.284445	0	0	2.67052e-035	0	1	4	4
53	9.74077	0.0754652	0	0	2.67052e-035	0	1	4	4
54	10.0078	0.238005	0	0	2.67052e-035	0	1	4	4
54	10.3561	0.0928802	0	0	2.67052e-035	0	1	4	4
52	10.5593	0.0348301	0	0	2.67052e-035	0	1	4	4
52	10.5941	0.0522451	0	0	2.67052e-035	0	1	4	4
52	10.6463	0.0406351	0	0	2.67052e-035	0	1	4	4
52	10.6928	0.0406351	0	0	2.67052e-035	0	1	4	4
52	10.7392	0.104489	0	0	2.67052e-035	0	1	4	4
50	10.8437	0.0986853	0	0	2.67052e-035	0	1	4	4
49	11.3429	1.5093	0	0	2.67052e-035	0	1	4	4
49	12.8522	0.0928802	0	0	2.67052e-035	0	1	4	4
46	12.9741	0.0812693	0	0	2.67052e-035	0	1	4	4
48	13.0844	0.121905	0	0	2.67052e-035	0	1	4	4
49	13.2122	0.290249	0	0	2.67052e-035	0	1	4	4
49	13.5024	0.0522451	0	0	2.67052e-035	0	1	4	4
48	13.6243	0.435373	0	0	2.67052e-035	0	1	4	4
48	14.5531	0.0754652	0	0	2.67052e-035	0	1	4	4
49	14.6286	0.238004	0	0	2.67052e-035	0	1	4	4
56	15.6328	0.0580492	0	0	2.67052e-035	0	1	4	4
49	15.8186	0.139319	0	0	2.67052e-035	0	1	4	4
52	16.1379	0.104488	0	0	2.67052e-035	0	1	4	4
54	16.3294	0.0870743	0	0	2.67052e-035	0	1	4	4
61	16.5384	0.0638561	0	0	2.67052e-035	0	1	4	4
54	16.6603	0.0232201	0	0	2.67052e-035	0	1	4	4
55	16.6951	0.0232201	0	0	2.67052e-035	0	1	4	4
56	16.7184	0.0406361	0	0	2.67052e-035	0	1	4	4
56	16.759	0.0290241	0	0	2.67052e-035	0	1	4	4
49	16.7996	0.197371	0	0	2.67052e-035	0	1	4	4
61	17.1479	0.029026	0	0	2.67052e-035	0	1	4	4
56	17.206	0.0754642	0	0	2.67052e-035	0	1	4	4
49	17.3047	0.13932	0	0	2.67052e-035	0	1	4	4
56	17.711	0.272835	0	0	2.67052e-035	0	1	4	4
49	18.1	0.0638542	0	0	2.67052e-035	0	1	4	4
49	18.2219	0.0580502	0	0	2.67052e-035	0	1	4	4
54	18.3728	0.0580502	0	0	2.67052e-035	0	1	4	4
53	18.4599	0.0232201	0	0	2.67052e-035	0	1	4	4
52	18.5005	0.121906	0	0	2.67052e-035	0	1	4	4
54	18.7966	0.249615	0	0	2.67052e-035	0	1	4	4
54	19.052	0.0464382	0	0	2.67052e-035	0	1	4	4
52	19.0984	0.121906	0	0	2.67052e-035	0	1	4	4
61	19.3422	0.0232201	0	0	2.67052e-035	0	1	4	4
54	19.3829	0.0348301	0	0	2.67052e-035	0	1	4	4
54	19.4293	0.0580502	0	0	2.67052e-035	0	1	4	4
54	19.5686	0.0754642	0	0	2.67052e-035	0	1	4	4
54	19.6615	0.0290241	0	0	2.67052e-035	0	1	4	4
49	19.795	0.121904	0	0	2.67052e-035	0	1	4	4
54	20.0969	0.133514	0	0	2.67052e-035	0	1	4	4
61	20.3871	0.029026	0	0	2.67052e-035	0	1	4	4
61	20.4161	0.150928	0	0	2.67052e-035	0	1	4	4
61	20.5671	0.0406361	0	0	2.67052e-035	0	1	4	4
61	22.4305	0.388935	0	0	2.67052e-035	0	1	4	4
54	22.831	0.10449	0	0	2.67052e-035	0	1	4	4
54	22.9355	0.185759	0	0	2.67052e-035	0	1	4	4
61	23.1387	0.0870743	0	0	2.67052e-035	0	1	4	4
54	23.278	0.0232201	0	0	2.67052e-035	0	1	4	4
54	23.307	0.0232201	0	0	2.67052e-035	0	1	4	4
54	23.3302	0.0290241	0	0	2.67052e-035	0	1	4	4
55	23.6031	0.029026	0	0	2.67052e-035	0	1	4	4
52	23.8585	0.156734	0	0	2.67052e-035	0	1	4	4
47	24.2881	0.150928	0	0	2.67052e-035	0	1	4	4
53	24.4448	0.0464401	0	0	2.67052e-035	0	1	4	4
54	24.4912	0.336689	0	0	2.67052e-035	0	1	4	4
55	24.8279	0.0522442	0	0	2.67052e-035	0	1	4	4
53	24.9789	0.0406342	0	0	2.67052e-035	0	1	4	4
54	25.0195	0.0290241	0	0	2.67052e-035	0	1	4	4
57	25.0659	0.168344	0	0	2.67052e-035	0	1	4	4
57	25.4491	0.220589	0	0	2.67052e-035	0	1	4	4
57	25.6697	0.255421	0	0	2.67052e-035	0	1	4	4
58	25.9251	0.0870743	0	0	2.67052e-035	0	1	4	4
57	26.0122	0.1161	0	0	2.67052e-035	0	1	4	4
55	26.9468	0.0812702	0	0	2.67052e-035	0	1	4	4
54	27.028	0.197371	0	0	2.67052e-035	0	1	4	4
56	27.5447	0.847528	0	0	2.67052e-035	0	1	4	4
58	28.3922	0.0870762	0	0	2.67052e-035	0	1	4	4
