midiPitch 	 onsetSec 	 durationSec 	 onsetBeats 	 onsetBarIndex 	 onsetBar 	 durationBeats 	 velocity  	 numerator 	 denominator 
82	1.52671	0.145125	0	0	2.10619e-035	0	1	4	4
78	1.90404	0.0522449	0	0	2.10619e-035	0	1	4	4
80	2.21751	0.19737	0	0	2.10619e-035	0	1	4	4
80	2.41488	0.203175	0	0	2.10619e-035	0	1	4	4
80	2.61805	0.12771	0	0	2.10619e-035	0	1	4	4
80	2.74576	0.17415	0	0	2.10619e-035	0	1	4	4
80	3.0244	0.0406349	0	0	2.10619e-035	0	1	4	4
80	3.06503	0.075465	0	0	2.10619e-035	0	1	4	4
80	3.1405	0.0232198	0	0	2.10619e-035	0	1	4	4
80	3.16372	0.0232201	0	0	2.10619e-035	0	1	4	4
54	3.15791	0.179955	0	0	2.10619e-035	0	1	4	4
56	3.40753	0.0232198	0	0	2.10619e-035	0	1	4	4
54	3.54685	0.145125	0	0	2.10619e-035	0	1	4	4
54	3.76744	0.0638549	0	0	2.10619e-035	0	1	4	4
57	3.86032	0.1161	0	0	2.10619e-035	0	1	4	4
56	4.04608	0.0638547	0	0	2.10619e-035	0	1	4	4
58	4.12735	0.0870748	0	0	2.10619e-035	0	1	4	4
60	4.21442	0.0580497	0	0	2.10619e-035	0	1	4	4
58	4.3015	0.0870748	0	0	2.10619e-035	0	1	4	4
58	4.38857	0.133515	0	0	2.10619e-035	0	1	4	4
58	4.58014	0.0986848	0	0	2.10619e-035	0	1	4	4
53	4.7717	0.13932	0	0	2.10619e-035	0	1	4	4
55	4.91102	0.0696597	0	0	2.10619e-035	0	1	4	4
56	5.01551	0.0522451	0	0	2.10619e-035	0	1	4	4
53	5.27093	0.191565	0	0	2.10619e-035	0	1	4	4
49	5.54957	0.145124	0	0	2.10619e-035	0	1	4	4
53	5.76435	0.139319	0	0	2.10619e-035	0	1	4	4
51	5.90367	0.0232201	0	0	2.10619e-035	0	1	4	4
55	7.33751	0.17415	0	0	2.10619e-035	0	1	4	4
55	7.52907	0.0348296	0	0	2.10619e-035	0	1	4	4
56	7.83093	0.150929	0	0	2.10619e-035	0	1	4	4
56	8.01669	0.110294	0	0	2.10619e-035	0	1	4	4
57	8.1502	0.226395	0	0	2.10619e-035	0	1	4	4
58	8.3766	0.0290251	0	0	2.10619e-035	0	1	4	4
58	8.45206	0.156734	0	0	2.10619e-035	0	1	4	4
58	8.67846	0.145124	0	0	2.10619e-035	0	1	4	4
58	8.82358	0.19737	0	0	2.10619e-035	0	1	4	4
58	9.02095	0.24381	0	0	2.10619e-035	0	1	4	4
60	9.26476	0.168344	0	0	2.10619e-035	0	1	4	4
60	9.46213	0.145124	0	0	2.10619e-035	0	1	4	4
63	9.61887	0.150929	0	0	2.10619e-035	0	1	4	4
63	9.79302	0.162539	0	0	2.10619e-035	0	1	4	4
63	9.95555	0.487619	0	0	2.10619e-035	0	1	4	4
58	10.4432	0.661769	0	0	2.10619e-035	0	1	4	4
58	11.134	0.272834	0	0	2.10619e-035	0	1	4	4
55	11.6796	0.0580502	0	0	2.10619e-035	0	1	4	4
55	11.7377	0.17415	0	0	2.10619e-035	0	1	4	4
55	11.9351	0.0348301	0	0	2.10619e-035	0	1	4	4
58	11.9815	0.638548	0	0	2.10619e-035	0	1	4	4
58	12.6433	0.15093	0	0	2.10619e-035	0	1	4	4
58	12.7942	0.0754642	0	0	2.10619e-035	0	1	4	4
59	12.8697	0.0290251	0	0	2.10619e-035	0	1	4	4
60	12.9567	0.238005	0	0	2.10619e-035	0	1	4	4
55	13.5372	0.0522451	0	0	2.10619e-035	0	1	4	4
55	13.5895	0.0754642	0	0	2.10619e-035	0	1	4	4
51	13.9204	0.446984	0	0	2.10619e-035	0	1	4	4
51	14.3673	0.307664	0	0	2.10619e-035	0	1	4	4
51	14.675	0.0580502	0	0	2.10619e-035	0	1	4	4
55	14.7331	0.539864	0	0	2.10619e-035	0	1	4	4
56	15.2729	0.0406351	0	0	2.10619e-035	0	1	4	4
56	15.3136	0.0348301	0	0	2.10619e-035	0	1	4	4
56	15.4006	0.0522451	0	0	2.10619e-035	0	1	4	4
56	15.5806	0.0464401	0	0	2.10619e-035	0	1	4	4
56	15.6967	0.0348301	0	0	2.10619e-035	0	1	4	4
58	15.7547	0.12771	0	0	2.10619e-035	0	1	4	4
58	15.8824	0.0406342	0	0	2.10619e-035	0	1	4	4
58	15.9289	0.0406351	0	0	2.10619e-035	0	1	4	4
58	15.9695	0.452788	0	0	2.10619e-035	0	1	4	4
58	16.4223	0.0928802	0	0	2.10619e-035	0	1	4	4
57	16.5152	0.0406361	0	0	2.10619e-035	0	1	4	4
57	16.5558	0.0232201	0	0	2.10619e-035	0	1	4	4
60	16.8287	0.18576	0	0	2.10619e-035	0	1	4	4
60	17.0841	0.168344	0	0	2.10619e-035	0	1	4	4
63	17.2524	0.319275	0	0	2.10619e-035	0	1	4	4
59	17.6646	0.470205	0	0	2.10619e-035	0	1	4	4
55	18.2044	0.116098	0	0	2.10619e-035	0	1	4	4
56	18.3205	0.110296	0	0	2.10619e-035	0	1	4	4
55	18.5121	0.5805	0	0	2.10619e-035	0	1	4	4
53	19.3887	0.0696602	0	0	2.10619e-035	0	1	4	4
53	19.4699	0.0928783	0	0	2.10619e-035	0	1	4	4
46	21.2346	0.16254	0	0	2.10619e-035	0	1	4	4
46	21.3972	0.313469	0	0	2.10619e-035	0	1	4	4
53	22.1112	0.267029	0	0	2.10619e-035	0	1	4	4
53	22.3782	0.0406342	0	0	2.10619e-035	0	1	4	4
54	22.535	0.0812702	0	0	2.10619e-035	0	1	4	4
55	22.6511	0.0232201	0	0	2.10619e-035	0	1	4	4
55	22.6743	0.156734	0	0	2.10619e-035	0	1	4	4
56	22.9761	0.516644	0	0	2.10619e-035	0	1	4	4
56	23.4928	0.029026	0	0	2.10619e-035	0	1	4	4
58	23.5218	0.220589	0	0	2.10619e-035	0	1	4	4
58	23.7424	0.203175	0	0	2.10619e-035	0	1	4	4
60	23.9456	0.203175	0	0	2.10619e-035	0	1	4	4
60	24.1488	0.272835	0	0	2.10619e-035	0	1	4	4
63	24.4738	0.191565	0	0	2.10619e-035	0	1	4	4
60	24.7699	0.110294	0	0	2.10619e-035	0	1	4	4
60	24.8802	0.0464401	0	0	2.10619e-035	0	1	4	4
62	24.944	0.197369	0	0	2.10619e-035	0	1	4	4
62	25.1414	0.528254	0	0	2.10619e-035	0	1	4	4
60	25.6697	0.12771	0	0	2.10619e-035	0	1	4	4
53	26.6623	0.17415	0	0	2.10619e-035	0	1	4	4
53	26.8365	0.0348301	0	0	2.10619e-035	0	1	4	4
55	27.0338	0.139318	0	0	2.10619e-035	0	1	4	4
58	27.1732	0.232201	0	0	2.10619e-035	0	1	4	4
58	27.5098	0.145126	0	0	2.10619e-035	0	1	4	4
58	27.6956	0.13932	0	0	2.10619e-035	0	1	4	4
60	27.8349	0.238005	0	0	2.10619e-035	0	1	4	4
60	28.0729	0.0406342	0	0	2.10619e-035	0	1	4	4
60	28.1194	0.400545	0	0	2.10619e-035	0	1	4	4
56	28.6708	0.290249	0	0	2.10619e-035	0	1	4	4
58	28.9611	0.272835	0	0	2.10619e-035	0	1	4	4
57	29.2339	0.0522442	0	0	2.10619e-035	0	1	4	4
57	29.2862	0.487619	0	0	2.10619e-035	0	1	4	4
