midiPitch 	 onsetSec 	 durationSec 	 onsetBeats 	 onsetBarIndex 	 onsetBar 	 durationBeats 	 velocity  	 numerator 	 denominator 
61	0.156735	0.0290249	0	0	3.91156e-035	0	1	4	4
60	0.18576	0.20898	0	0	3.91156e-035	0	1	4	4
55	0.481814	0.0348299	0	0	3.91156e-035	0	1	4	4
55	0.626939	0.359909	0	0	3.91156e-035	0	1	4	4
63	1.30612	0.24381	0	0	3.91156e-035	0	1	4	4
51	1.54993	0.121905	0	0	3.91156e-035	0	1	4	4
58	1.67184	0.597914	0	0	3.91156e-035	0	1	4	4
51	2.26975	0.354104	0	0	3.91156e-035	0	1	4	4
58	2.71093	0.243809	0	0	3.91156e-035	0	1	4	4
58	2.95474	0.0348301	0	0	3.91156e-035	0	1	4	4
55	3.2624	0.0638549	0	0	3.91156e-035	0	1	4	4
55	3.32626	0.0290251	0	0	3.91156e-035	0	1	4	4
60	3.35528	0.0290248	0	0	3.91156e-035	0	1	4	4
60	3.39592	0.284444	0	0	3.91156e-035	0	1	4	4
60	3.81388	0.1161	0	0	3.91156e-035	0	1	4	4
62	3.92998	1.45125	0	0	3.91156e-035	0	1	4	4
62	6.37388	0.290249	0	0	3.91156e-035	0	1	4	4
62	6.66413	0.249615	0	0	3.91156e-035	0	1	4	4
60	6.91374	0.238004	0	0	3.91156e-035	0	1	4	4
60	7.15175	0.0870748	0	0	3.91156e-035	0	1	4	4
55	7.41878	0.383129	0	0	3.91156e-035	0	1	4	4
56	7.8019	0.20898	0	0	3.91156e-035	0	1	4	4
56	8.01088	0.0464401	0	0	3.91156e-035	0	1	4	4
54	8.33016	0.342495	0	0	3.91156e-035	0	1	4	4
54	8.7307	0.16254	0	0	3.91156e-035	0	1	4	4
54	8.89324	0.313469	0	0	3.91156e-035	0	1	4	4
54	9.25896	0.307664	0	0	3.91156e-035	0	1	4	4
62	9.58404	0.296055	0	0	3.91156e-035	0	1	4	4
62	9.58404	0.30186	0	0	3.91156e-035	0	1	4	4
57	9.87429	0.325079	0	0	3.91156e-035	0	1	4	4
56	10.8321	0.249615	0	0	3.91156e-035	0	1	4	4
55	11.1862	0.145125	0	0	3.91156e-035	0	1	4	4
54	11.3604	0.557279	0	0	3.91156e-035	0	1	4	4
55	12.0395	0.644354	0	0	3.91156e-035	0	1	4	4
62	12.6839	0.365714	0	0	3.91156e-035	0	1	4	4
62	13.0496	0.0464401	0	0	3.91156e-035	0	1	4	4
55	13.0961	0.272835	0	0	3.91156e-035	0	1	4	4
57	13.3689	0.104489	0	0	3.91156e-035	0	1	4	4
57	13.4734	0.0348301	0	0	3.91156e-035	0	1	4	4
57	13.5256	0.0464401	0	0	3.91156e-035	0	1	4	4
57	13.5721	0.0638542	0	0	3.91156e-035	0	1	4	4
55	13.7056	0.319275	0	0	3.91156e-035	0	1	4	4
57	14.1584	0.0522451	0	0	3.91156e-035	0	1	4	4
56	14.2106	0.0232201	0	0	3.91156e-035	0	1	4	4
56	14.2338	0.0406342	0	0	3.91156e-035	0	1	4	4
57	14.379	0.0986843	0	0	3.91156e-035	0	1	4	4
57	14.4776	0.0232201	0	0	3.91156e-035	0	1	4	4
57	14.5009	0.0232201	0	0	3.91156e-035	0	1	4	4
58	14.8376	0.121904	0	0	3.91156e-035	0	1	4	4
51	15.0639	0.470203	0	0	3.91156e-035	0	1	4	4
58	15.6212	0.748843	0	0	3.91156e-035	0	1	4	4
58	16.3701	0.0290241	0	0	3.91156e-035	0	1	4	4
62	16.3991	0.725624	0	0	3.91156e-035	0	1	4	4
58	17.1247	0.121904	0	0	3.91156e-035	0	1	4	4
58	17.2466	0.12771	0	0	3.91156e-035	0	1	4	4
58	17.3859	0.110294	0	0	3.91156e-035	0	1	4	4
62	17.9955	0.133514	0	0	3.91156e-035	0	1	4	4
55	18.129	0.15093	0	0	3.91156e-035	0	1	4	4
57	18.2799	0.203175	0	0	3.91156e-035	0	1	4	4
55	18.4831	0.278639	0	0	3.91156e-035	0	1	4	4
56	18.7675	0.0290241	0	0	3.91156e-035	0	1	4	4
55	18.7966	0.0928802	0	0	3.91156e-035	0	1	4	4
55	18.8894	0.16254	0	0	3.91156e-035	0	1	4	4
62	19.0113	0.208981	0	0	3.91156e-035	0	1	4	4
56	19.2203	0.0928783	0	0	3.91156e-035	0	1	4	4
56	19.3132	0.0522461	0	0	3.91156e-035	0	1	4	4
56	19.6615	0.0986843	0	0	3.91156e-035	0	1	4	4
57	19.7602	0.0812702	0	0	3.91156e-035	0	1	4	4
56	19.8415	0.626938	0	0	3.91156e-035	0	1	4	4
55	20.4684	0.029026	0	0	3.91156e-035	0	1	4	4
55	20.4974	0.0638542	0	0	3.91156e-035	0	1	4	4
55	20.5613	0.0638542	0	0	3.91156e-035	0	1	4	4
55	20.6367	0.0696602	0	0	3.91156e-035	0	1	4	4
62	20.7064	0.417959	0	0	3.91156e-035	0	1	4	4
62	21.3275	0.156734	0	0	3.91156e-035	0	1	4	4
54	21.879	0.325079	0	0	3.91156e-035	0	1	4	4
54	22.2041	0.156734	0	0	3.91156e-035	0	1	4	4
54	22.6104	0.249615	0	0	3.91156e-035	0	1	4	4
55	23.3477	0.348299	0	0	3.91156e-035	0	1	4	4
60	23.7598	0.313469	0	0	3.91156e-035	0	1	4	4
62	24.3751	0.859138	0	0	3.91156e-035	0	1	4	4
62	25.2343	0.441179	0	0	3.91156e-035	0	1	4	4
62	25.6755	0.15093	0	0	3.91156e-035	0	1	4	4
57	25.9193	0.0870762	0	0	3.91156e-035	0	1	4	4
57	26.0063	0.121904	0	0	3.91156e-035	0	1	4	4
57	26.1283	0.10449	0	0	3.91156e-035	0	1	4	4
57	26.2327	0.0870743	0	0	3.91156e-035	0	1	4	4
57	26.3198	0.0348301	0	0	3.91156e-035	0	1	4	4
55	26.3546	0.162539	0	0	3.91156e-035	0	1	4	4
55	26.5578	0.336689	0	0	3.91156e-035	0	1	4	4
62	27.2834	0.435375	0	0	3.91156e-035	0	1	4	4
62	27.7188	0.0754642	0	0	3.91156e-035	0	1	4	4
62	27.7943	0.203175	0	0	3.91156e-035	0	1	4	4
63	28.3574	0.0754662	0	0	3.91156e-035	0	1	4	4
63	28.4328	0.0406342	0	0	3.91156e-035	0	1	4	4
63	28.4735	0.110294	0	0	3.91156e-035	0	1	4	4
63	28.6418	0.267029	0	0	3.91156e-035	0	1	4	4
63	29.0307	0.150928	0	0	3.91156e-035	0	1	4	4
56	29.1817	0.121906	0	0	3.91156e-035	0	1	4	4
56	29.3036	0.510838	0	0	3.91156e-035	0	1	4	4
