midiPitch 	 onsetSec 	 durationSec 	 onsetBeats 	 onsetBarIndex 	 onsetBar 	 durationBeats 	 velocity  	 numerator 	 denominator 
55	0.0580499	0.0522449	0	0	3.02758e-035	0	1	4	4
55	0.110295	0.0580499	0	0	3.02758e-035	0	1	4	4
60	0.19737	0.0290249	0	0	3.02758e-035	0	1	4	4
55	0.226395	0.13932	0	0	3.02758e-035	0	1	4	4
55	0.365714	0.0812698	0	0	3.02758e-035	0	1	4	4
55	0.458594	0.0638549	0	0	3.02758e-035	0	1	4	4
55	0.522449	0.0870748	0	0	3.02758e-035	0	1	4	4
55	0.952018	0.18576	0	0	3.02758e-035	0	1	4	4
59	1.56735	0.0812699	0	0	3.02758e-035	0	1	4	4
61	1.66023	0.0232199	0	0	3.02758e-035	0	1	4	4
62	1.68925	0.568889	0	0	3.02758e-035	0	1	4	4
62	2.25814	0.458594	0	0	3.02758e-035	0	1	4	4
62	2.7922	0.0522447	0	0	3.02758e-035	0	1	4	4
62	2.87927	0.0928798	0	0	3.02758e-035	0	1	4	4
62	2.97215	0.110295	0	0	3.02758e-035	0	1	4	4
62	3.08245	0.26703	0	0	3.02758e-035	0	1	4	4
62	3.34948	0.0232198	0	0	3.02758e-035	0	1	4	4
65	3.41333	0.0580499	0	0	3.02758e-035	0	1	4	4
65	3.57587	0.400544	0	0	3.02758e-035	0	1	4	4
62	4.15057	0.267029	0	0	3.02758e-035	0	1	4	4
59	4.71946	0.156734	0	0	3.02758e-035	0	1	4	4
59	4.87619	0.0232201	0	0	3.02758e-035	0	1	4	4
59	4.89941	0.0348301	0	0	3.02758e-035	0	1	4	4
59	4.98068	0.0406351	0	0	3.02758e-035	0	1	4	4
59	5.06776	0.0406346	0	0	3.02758e-035	0	1	4	4
59	5.10839	0.0290251	0	0	3.02758e-035	0	1	4	4
60	5.13741	0.0406346	0	0	3.02758e-035	0	1	4	4
60	5.52054	0.17415	0	0	3.02758e-035	0	1	4	4
60	5.69469	0.667574	0	0	3.02758e-035	0	1	4	4
60	6.38549	0.179955	0	0	3.02758e-035	0	1	4	4
60	6.56544	0.121905	0	0	3.02758e-035	0	1	4	4
62	6.77442	0.0348301	0	0	3.02758e-035	0	1	4	4
62	6.83247	0.15093	0	0	3.02758e-035	0	1	4	4
62	6.9834	0.0290251	0	0	3.02758e-035	0	1	4	4
62	7.01823	0.261224	0	0	3.02758e-035	0	1	4	4
64	7.41297	0.0232196	0	0	3.02758e-035	0	1	4	4
64	7.49424	0.0290251	0	0	3.02758e-035	0	1	4	4
64	7.52907	0.110294	0	0	3.02758e-035	0	1	4	4
64	7.63936	0.110295	0	0	3.02758e-035	0	1	4	4
64	7.74966	0.0580502	0	0	3.02758e-035	0	1	4	4
65	7.82512	0.0464396	0	0	3.02758e-035	0	1	4	4
64	7.87156	0.145125	0	0	3.02758e-035	0	1	4	4
64	8.01669	0.737233	0	0	3.02758e-035	0	1	4	4
67	9.20671	0.0812702	0	0	3.02758e-035	0	1	4	4
67	9.28798	0.156734	0	0	3.02758e-035	0	1	4	4
64	9.44472	0.0522451	0	0	3.02758e-035	0	1	4	4
64	9.49696	0.20898	0	0	3.02758e-035	0	1	4	4
63	9.70594	0.0638542	0	0	3.02758e-035	0	1	4	4
64	9.83946	0.0812702	0	0	3.02758e-035	0	1	4	4
64	9.92073	0.19737	0	0	3.02758e-035	0	1	4	4
64	10.1355	0.116099	0	0	3.02758e-035	0	1	4	4
55	10.3503	0.0812693	0	0	3.02758e-035	0	1	4	4
60	10.6173	0.0406351	0	0	3.02758e-035	0	1	4	4
71	11.1107	0.0754642	0	0	3.02758e-035	0	1	4	4
61	11.1862	0.12771	0	0	3.02758e-035	0	1	4	4
55	11.4474	0.261225	0	0	3.02758e-035	0	1	4	4
57	11.8886	0.0812702	0	0	3.02758e-035	0	1	4	4
57	12.0105	0.13932	0	0	3.02758e-035	0	1	4	4
57	12.1498	0.133514	0	0	3.02758e-035	0	1	4	4
53	12.7361	0.0638552	0	0	3.02758e-035	0	1	4	4
53	12.8929	0.0406351	0	0	3.02758e-035	0	1	4	4
54	13.2005	0.0986843	0	0	3.02758e-035	0	1	4	4
55	13.2992	0.516644	0	0	3.02758e-035	0	1	4	4
55	13.8855	0.26703	0	0	3.02758e-035	0	1	4	4
55	14.2048	0.0696592	0	0	3.02758e-035	0	1	4	4
55	14.2745	0.0232201	0	0	3.02758e-035	0	1	4	4
55	14.6924	0.121905	0	0	3.02758e-035	0	1	4	4
52	15.122	0.22059	0	0	3.02758e-035	0	1	4	4
52	15.5516	0.20898	0	0	3.02758e-035	0	1	4	4
52	15.7605	0.0986853	0	0	3.02758e-035	0	1	4	4
52	15.8592	0.0580492	0	0	3.02758e-035	0	1	4	4
52	15.9173	0.0290251	0	0	3.02758e-035	0	1	4	4
67	16.2307	0.499229	0	0	3.02758e-035	0	1	4	4
64	16.73	0.0696602	0	0	3.02758e-035	0	1	4	4
67	16.7996	0.383129	0	0	3.02758e-035	0	1	4	4
64	17.4962	0.191565	0	0	3.02758e-035	0	1	4	4
64	17.6878	0.145124	0	0	3.02758e-035	0	1	4	4
64	17.8329	0.145126	0	0	3.02758e-035	0	1	4	4
64	18.2044	0.313469	0	0	3.02758e-035	0	1	4	4
64	18.5179	0.162539	0	0	3.02758e-035	0	1	4	4
62	18.814	0.0696583	0	0	3.02758e-035	0	1	4	4
62	18.8836	0.220591	0	0	3.02758e-035	0	1	4	4
67	19.1274	0.10449	0	0	3.02758e-035	0	1	4	4
67	19.2319	0.179955	0	0	3.02758e-035	0	1	4	4
65	19.7137	0.214785	0	0	3.02758e-035	0	1	4	4
65	19.9285	0.0812702	0	0	3.02758e-035	0	1	4	4
62	20.1143	0.16254	0	0	3.02758e-035	0	1	4	4
62	20.2768	0.197371	0	0	3.02758e-035	0	1	4	4
62	20.4742	0.0232201	0	0	3.02758e-035	0	1	4	4
64	20.6483	0.197371	0	0	3.02758e-035	0	1	4	4
67	20.9908	0.1161	0	0	3.02758e-035	0	1	4	4
67	21.2463	0.272835	0	0	3.02758e-035	0	1	4	4
52	23.2141	0.586304	0	0	3.02758e-035	0	1	4	4
55	23.8121	0.290249	0	0	3.02758e-035	0	1	4	4
55	24.1023	0.342495	0	0	3.02758e-035	0	1	4	4
59	24.5551	0.0406361	0	0	3.02758e-035	0	1	4	4
53	24.5957	0.0232182	0	0	3.02758e-035	0	1	4	4
55	24.6596	0.284445	0	0	3.02758e-035	0	1	4	4
55	24.9673	0.214785	0	0	3.02758e-035	0	1	4	4
55	25.182	0.406349	0	0	3.02758e-035	0	1	4	4
55	25.8612	0.267031	0	0	3.02758e-035	0	1	4	4
55	26.5462	0.0696602	0	0	3.02758e-035	0	1	4	4
55	26.8771	0.0754662	0	0	3.02758e-035	0	1	4	4
55	26.9526	0.0406342	0	0	3.02758e-035	0	1	4	4
55	26.999	0.0464401	0	0	3.02758e-035	0	1	4	4
59	28.5431	0.145124	0	0	3.02758e-035	0	1	4	4
59	28.6883	0.110294	0	0	3.02758e-035	0	1	4	4
60	28.7985	0.238005	0	0	3.02758e-035	0	1	4	4
60	29.0714	0.13932	0	0	3.02758e-035	0	1	4	4
60	29.2107	0.0464401	0	0	3.02758e-035	0	1	4	4
