midiPitch 	 onsetSec 	 durationSec 	 onsetBeats 	 onsetBarIndex 	 onsetBar 	 durationBeats 	 velocity  	 numerator 	 denominator 
52	0.0928798	0.156735	0	0	1.84312e-035	0	1	4	4
54	0.249615	0.0638549	0	0	1.84312e-035	0	1	4	4
52	0.313469	0.0232199	0	0	1.84312e-035	0	1	4	4
52	0.336689	0.110295	0	0	1.84312e-035	0	1	4	4
54	0.557279	0.290249	0	0	1.84312e-035	0	1	4	4
51	1.19002	0.0406349	0	0	1.84312e-035	0	1	4	4
52	1.25388	0.26703	0	0	1.84312e-035	0	1	4	4
50	1.52091	0.029025	0	0	1.84312e-035	0	1	4	4
52	1.55574	0.0696599	0	0	1.84312e-035	0	1	4	4
54	1.81116	0.2322	0	0	1.84312e-035	0	1	4	4
55	2.11882	0.214784	0	0	1.84312e-035	0	1	4	4
55	2.33361	0.394739	0	0	1.84312e-035	0	1	4	4
55	2.72834	0.220589	0	0	1.84312e-035	0	1	4	4
55	2.94893	0.0638549	0	0	1.84312e-035	0	1	4	4
54	3.27982	0.15093	0	0	1.84312e-035	0	1	4	4
55	3.43075	0.10449	0	0	1.84312e-035	0	1	4	4
56	3.53524	0.18576	0	0	1.84312e-035	0	1	4	4
53	3.92417	0.168345	0	0	1.84312e-035	0	1	4	4
52	4.56272	0.238005	0	0	1.84312e-035	0	1	4	4
49	5.41605	0.330884	0	0	1.84312e-035	0	1	4	4
59	7.65097	0.10449	0	0	1.84312e-035	0	1	4	4
47	8.38821	0.110295	0	0	1.84312e-035	0	1	4	4
47	8.46948	0.330884	0	0	1.84312e-035	0	1	4	4
54	8.87583	0.551474	0	0	1.84312e-035	0	1	4	4
55	9.4273	0.0986853	0	0	1.84312e-035	0	1	4	4
54	9.66531	0.296054	0	0	1.84312e-035	0	1	4	4
55	9.96136	0.15093	0	0	1.84312e-035	0	1	4	4
55	10.3155	0.139319	0	0	1.84312e-035	0	1	4	4
55	10.478	0.783673	0	0	1.84312e-035	0	1	4	4
56	11.8712	0.516644	0	0	1.84312e-035	0	1	4	4
55	12.4053	0.632744	0	0	1.84312e-035	0	1	4	4
52	13.3805	0.354104	0	0	1.84312e-035	0	1	4	4
52	13.8159	0.145124	0	0	1.84312e-035	0	1	4	4
52	13.961	0.0406351	0	0	1.84312e-035	0	1	4	4
52	14.3615	0.156734	0	0	1.84312e-035	0	1	4	4
54	14.5183	0.214785	0	0	1.84312e-035	0	1	4	4
52	14.7331	0.203175	0	0	1.84312e-035	0	1	4	4
54	14.9362	0.110295	0	0	1.84312e-035	0	1	4	4
60	15.6619	0.0812693	0	0	1.84312e-035	0	1	4	4
60	15.7431	0.0638552	0	0	1.84312e-035	0	1	4	4
66	16.6487	0.197371	0	0	1.84312e-035	0	1	4	4
65	17.1828	0.238005	0	0	1.84312e-035	0	1	4	4
73	20.1259	0.168344	0	0	1.84312e-035	0	1	4	4
56	20.1491	0.388935	0	0	1.84312e-035	0	1	4	4
51	21.0489	0.121904	0	0	1.84312e-035	0	1	4	4
0	21.1708	0.0986843	0	0	1.84312e-035	0	1	4	4
61	21.374	0.0986843	0	0	1.84312e-035	0	1	4	4
50	21.4727	0.243811	0	0	1.84312e-035	0	1	4	4
60	21.9371	0.371519	0	0	1.84312e-035	0	1	4	4
55	22.3434	0.145124	0	0	1.84312e-035	0	1	4	4
56	22.4885	0.208981	0	0	1.84312e-035	0	1	4	4
54	23.1619	0.0348282	0	0	1.84312e-035	0	1	4	4
55	23.2025	0.110294	0	0	1.84312e-035	0	1	4	4
56	23.3128	0.359909	0	0	1.84312e-035	0	1	4	4
50	23.8179	0.296055	0	0	1.84312e-035	0	1	4	4
50	28.369	0.290251	0	0	1.84312e-035	0	1	4	4
50	28.6941	0.197369	0	0	1.84312e-035	0	1	4	4
50	28.8914	0.0232201	0	0	1.84312e-035	0	1	4	4
45	29.2804	0.243809	0	0	1.84312e-035	0	1	4	4
