midiPitch 	 onsetSec 	 durationSec 	 onsetBeats 	 onsetBarIndex 	 onsetBar 	 durationBeats 	 velocity  	 numerator 	 denominator 
57	0.145125	0.15093	0	0	2.32244e-035	0	1	4	4
57	0.296054	0.121905	0	0	2.32244e-035	0	1	4	4
57	0.296054	0.12771	0	0	2.32244e-035	0	1	4	4
64	0.412154	0.01161	0	0	2.32244e-035	0	1	4	4
57	0.296054	0.133515	0	0	2.32244e-035	0	1	4	4
64	0.412154	0.017415	0	0	2.32244e-035	0	1	4	4
57	0.296054	0.13932	0	0	2.32244e-035	0	1	4	4
64	0.412154	0.0580499	0	0	2.32244e-035	0	1	4	4
57	0.545669	0.0638549	0	0	2.32244e-035	0	1	4	4
61	0.626939	0.0812699	0	0	2.32244e-035	0	1	4	4
61	0.731429	0.0348299	0	0	2.32244e-035	0	1	4	4
60	0.783673	0.029025	0	0	2.32244e-035	0	1	4	4
57	0.812698	0.0348299	0	0	2.32244e-035	0	1	4	4
57	0.934603	0.0464399	0	0	2.32244e-035	0	1	4	4
57	0.981043	0.12771	0	0	2.32244e-035	0	1	4	4
60	1.12617	0.029025	0	0	2.32244e-035	0	1	4	4
57	1.15519	0.03483	0	0	2.32244e-035	0	1	4	4
59	1.32934	0.0754648	0	0	2.32244e-035	0	1	4	4
57	1.42803	0.0232199	0	0	2.32244e-035	0	1	4	4
57	1.45125	0.029025	0	0	2.32244e-035	0	1	4	4
57	1.5093	0.03483	0	0	2.32244e-035	0	1	4	4
57	1.69506	0.0232199	0	0	2.32244e-035	0	1	4	4
52	1.88082	0.0580498	0	0	2.32244e-035	0	1	4	4
76	1.72989	0.25542	0	0	2.32244e-035	0	1	4	4
75	1.98531	0.284444	0	0	2.32244e-035	0	1	4	4
74	2.3278	0.534059	0	0	2.32244e-035	0	1	4	4
73	2.91991	0.0290248	0	0	2.32244e-035	0	1	4	4
80	2.94893	0.087075	0	0	2.32244e-035	0	1	4	4
61	2.93732	0.255419	0	0	2.32244e-035	0	1	4	4
59	3.34367	0.0696597	0	0	2.32244e-035	0	1	4	4
61	3.57587	0.121905	0	0	2.32244e-035	0	1	4	4
62	3.69778	0.0232198	0	0	2.32244e-035	0	1	4	4
61	3.721	0.16254	0	0	2.32244e-035	0	1	4	4
61	4.01125	0.19737	0	0	2.32244e-035	0	1	4	4
60	4.20862	0.226395	0	0	2.32244e-035	0	1	4	4
59	4.43501	0.0986848	0	0	2.32244e-035	0	1	4	4
59	4.5337	0.0986848	0	0	2.32244e-035	0	1	4	4
57	4.92263	0.121905	0	0	2.32244e-035	0	1	4	4
57	5.05034	0.255419	0	0	2.32244e-035	0	1	4	4
57	5.40444	0.12771	0	0	2.32244e-035	0	1	4	4
61	5.53215	0.0580497	0	0	2.32244e-035	0	1	4	4
61	5.5902	0.0870752	0	0	2.32244e-035	0	1	4	4
57	5.68889	0.0754652	0	0	2.32244e-035	0	1	4	4
57	5.79918	0.0870752	0	0	2.32244e-035	0	1	4	4
59	6.0488	0.0348301	0	0	2.32244e-035	0	1	4	4
57	6.14748	0.0290251	0	0	2.32244e-035	0	1	4	4
57	6.17651	0.0406346	0	0	2.32244e-035	0	1	4	4
64	6.35646	0.0638547	0	0	2.32244e-035	0	1	4	4
64	6.42032	0.0232201	0	0	2.32244e-035	0	1	4	4
62	6.61769	0.0580502	0	0	2.32244e-035	0	1	4	4
64	6.67574	0.20898	0	0	2.32244e-035	0	1	4	4
64	6.90213	0.0348296	0	0	2.32244e-035	0	1	4	4
62	7.24463	0.0696602	0	0	2.32244e-035	0	1	4	4
63	7.31429	0.0754647	0	0	2.32244e-035	0	1	4	4
62	7.38975	0.296054	0	0	2.32244e-035	0	1	4	4
60	7.86576	0.0696602	0	0	2.32244e-035	0	1	4	4
61	7.93542	0.0928798	0	0	2.32244e-035	0	1	4	4
61	8.41723	0.0870752	0	0	2.32244e-035	0	1	4	4
59	8.50431	0.476008	0	0	2.32244e-035	0	1	4	4
59	8.98032	0.0464401	0	0	2.32244e-035	0	1	4	4
57	9.74077	0.0754652	0	0	2.32244e-035	0	1	4	4
57	9.82785	0.110295	0	0	2.32244e-035	0	1	4	4
57	9.95555	0.26703	0	0	2.32244e-035	0	1	4	4
59	10.2226	0.348299	0	0	2.32244e-035	0	1	4	4
59	10.5709	0.10449	0	0	2.32244e-035	0	1	4	4
59	10.6754	0.0986843	0	0	2.32244e-035	0	1	4	4
58	10.7915	0.0580502	0	0	2.32244e-035	0	1	4	4
57	10.9888	0.18576	0	0	2.32244e-035	0	1	4	4
57	11.2268	0.29025	0	0	2.32244e-035	0	1	4	4
57	11.5171	0.0290251	0	0	2.32244e-035	0	1	4	4
57	11.639	0.0406351	0	0	2.32244e-035	0	1	4	4
60	11.6738	0.0638552	0	0	2.32244e-035	0	1	4	4
59	11.7377	0.0580492	0	0	2.32244e-035	0	1	4	4
60	12.1615	0.127709	0	0	2.32244e-035	0	1	4	4
61	12.2892	0.673379	0	0	2.32244e-035	0	1	4	4
59	12.9625	0.0464401	0	0	2.32244e-035	0	1	4	4
59	13.1251	0.0638552	0	0	2.32244e-035	0	1	4	4
59	13.2818	0.0406351	0	0	2.32244e-035	0	1	4	4
61	13.3863	0.0928793	0	0	2.32244e-035	0	1	4	4
60	13.5488	0.0696602	0	0	2.32244e-035	0	1	4	4
59	13.6185	0.0580492	0	0	2.32244e-035	0	1	4	4
59	13.7636	0.116099	0	0	2.32244e-035	0	1	4	4
60	14.2164	0.0638542	0	0	2.32244e-035	0	1	4	4
59	14.2919	0.0812702	0	0	2.32244e-035	0	1	4	4
59	14.466	0.0290251	0	0	2.32244e-035	0	1	4	4
61	14.5357	0.0696602	0	0	2.32244e-035	0	1	4	4
60	14.6982	0.0928802	0	0	2.32244e-035	0	1	4	4
54	15.389	0.0870743	0	0	2.32244e-035	0	1	4	4
61	15.6793	0.0870743	0	0	2.32244e-035	0	1	4	4
63	15.8708	0.19737	0	0	2.32244e-035	0	1	4	4
62	16.1437	0.0348301	0	0	2.32244e-035	0	1	4	4
63	16.1843	0.0406342	0	0	2.32244e-035	0	1	4	4
64	16.312	0.0232201	0	0	2.32244e-035	0	1	4	4
63	16.3527	0.0870743	0	0	2.32244e-035	0	1	4	4
62	16.4804	0.0754662	0	0	2.32244e-035	0	1	4	4
63	16.6371	0.0464401	0	0	2.32244e-035	0	1	4	4
63	16.6835	0.0406361	0	0	2.32244e-035	0	1	4	4
59	16.7822	0.0348282	0	0	2.32244e-035	0	1	4	4
62	16.8577	0.0522442	0	0	2.32244e-035	0	1	4	4
62	16.9099	0.0348301	0	0	2.32244e-035	0	1	4	4
63	17.2292	0.110294	0	0	2.32244e-035	0	1	4	4
63	17.4962	0.255421	0	0	2.32244e-035	0	1	4	4
61	18.0767	0.110294	0	0	2.32244e-035	0	1	4	4
64	18.187	0.13932	0	0	2.32244e-035	0	1	4	4
64	18.3263	0.0580502	0	0	2.32244e-035	0	1	4	4
59	20.5903	0.17415	0	0	2.32244e-035	0	1	4	4
59	20.898	0.0522442	0	0	2.32244e-035	0	1	4	4
59	20.9502	0.10449	0	0	2.32244e-035	0	1	4	4
58	21.1127	0.13932	0	0	2.32244e-035	0	1	4	4
54	21.5481	0.0812702	0	0	2.32244e-035	0	1	4	4
54	21.6294	0.0232201	0	0	2.32244e-035	0	1	4	4
57	21.8558	0.029026	0	0	2.32244e-035	0	1	4	4
57	22.0009	0.18576	0	0	2.32244e-035	0	1	4	4
60	22.9994	0.156734	0	0	2.32244e-035	0	1	4	4
59	23.1561	0.0290241	0	0	2.32244e-035	0	1	4	4
60	23.2316	0.0638561	0	0	2.32244e-035	0	1	4	4
59	23.3825	0.319275	0	0	2.32244e-035	0	1	4	4
59	24.4506	0.261225	0	0	2.32244e-035	0	1	4	4
60	25.9831	0.267029	0	0	2.32244e-035	0	1	4	4
59	26.4185	0.0696602	0	0	2.32244e-035	0	1	4	4
57	26.8829	0.10449	0	0	2.32244e-035	0	1	4	4
60	26.9874	0.267029	0	0	2.32244e-035	0	1	4	4
0	27.2544	0.243809	0	0	2.32244e-035	0	1	4	4
56	27.4982	0.0464401	0	0	2.32244e-035	0	1	4	4
59	27.6666	0.116098	0	0	2.32244e-035	0	1	4	4
59	27.8117	0.249615	0	0	2.32244e-035	0	1	4	4
59	28.7173	0.110296	0	0	2.32244e-035	0	1	4	4
60	28.8276	0.0232201	0	0	2.32244e-035	0	1	4	4
