midiPitch 	 onsetSec 	 durationSec 	 onsetBeats 	 onsetBarIndex 	 onsetBar 	 durationBeats 	 velocity  	 numerator 	 denominator 
68	0.406349	0.0580499	0	0	0	0	1	4	4
68	0.464399	0.0406349	0	0	0	0	1	4	4
64	0.690794	0.0406349	0	0	0	0	1	4	4
65	0.737234	0.203175	0	0	0	0	1	4	4
68	0.986848	0.10449	0	0	0	0	1	4	4
68	1.09134	0.145125	0	0	0	0	1	4	4
69	1.23646	0.0580498	0	0	0	0	1	4	4
61	1.49769	0.0812697	0	0	0	0	1	4	4
61	1.6254	0.0232199	0	0	0	0	1	4	4
69	1.71828	0.03483	0	0	0	0	1	4	4
68	1.91565	0.03483	0	0	0	0	1	4	4
68	2.00272	0.0406349	0	0	0	0	1	4	4
68	2.16526	0.0348299	0	0	0	0	1	4	4
67	2.36844	0.0812697	0	0	0	0	1	4	4
63	2.44971	0.10449	0	0	0	0	1	4	4
68	2.55419	0.0464399	0	0	0	0	1	4	4
68	2.64707	0.09288	0	0	0	0	1	4	4
68	2.73995	0.0580497	0	0	0	0	1	4	4
69	2.798	0.0406351	0	0	0	0	1	4	4
66	2.86766	0.0232201	0	0	0	0	1	4	4
66	2.92571	0.0522449	0	0	0	0	1	4	4
63	3.05923	0.0986848	0	0	0	0	1	4	4
64	3.15791	0.0290251	0	0	0	0	1	4	4
61	3.19855	0.13932	0	0	0	0	1	4	4
69	3.36109	0.0232201	0	0	0	0	1	4	4
69	3.40172	0.0580497	0	0	0	0	1	4	4
69	3.53524	0.0406349	0	0	0	0	1	4	4
68	3.57587	0.0348301	0	0	0	0	1	4	4
61	3.62231	0.179955	0	0	0	0	1	4	4
68	3.80227	0.0290248	0	0	0	0	1	4	4
68	3.92998	0.0464399	0	0	0	0	1	4	4
61	3.97642	0.0580502	0	0	0	0	1	4	4
61	4.03447	0.0348296	0	0	0	0	1	4	4
61	4.0693	0.0290251	0	0	0	0	1	4	4
68	4.17959	0.0290251	0	0	0	0	1	4	4
69	4.26086	0.0290251	0	0	0	0	1	4	4
66	4.28989	0.0232201	0	0	0	0	1	4	4
61	4.35955	0.0348301	0	0	0	0	1	4	4
61	4.40018	0.0464401	0	0	0	0	1	4	4
61	4.44662	0.0986848	0	0	0	0	1	4	4
65	4.62658	0.0348301	0	0	0	0	1	4	4
68	4.73687	0.0348296	0	0	0	0	1	4	4
63	4.78912	0.0290251	0	0	0	0	1	4	4
68	4.84717	0.0812697	0	0	0	0	1	4	4
68	4.92844	0.0290251	0	0	0	0	1	4	4
58	4.9981	0.0348301	0	0	0	0	1	4	4
68	5.10258	0.0522451	0	0	0	0	1	4	4
65	5.21288	0.0406351	0	0	0	0	1	4	4
64	5.25932	0.0754647	0	0	0	0	1	4	4
65	5.358	0.0812697	0	0	0	0	1	4	4
63	5.45669	0.0522447	0	0	0	0	1	4	4
68	5.50893	0.0696602	0	0	0	0	1	4	4
68	5.57859	0.179955	0	0	0	0	1	4	4
68	5.75855	0.0522447	0	0	0	0	1	4	4
68	5.81079	0.0290251	0	0	0	0	1	4	4
68	6.15909	0.0290251	0	0	0	0	1	4	4
69	6.19392	0.0464396	0	0	0	0	1	4	4
68	6.3971	0.139319	0	0	0	0	1	4	4
62	6.53642	0.0638552	0	0	0	0	1	4	4
68	6.99501	0.238004	0	0	0	0	1	4	4
69	7.23302	0.0580502	0	0	0	0	1	4	4
69	7.72063	0.0638547	0	0	0	0	1	4	4
68	7.81351	0.0406346	0	0	0	0	1	4	4
68	7.92961	0.0870748	0	0	0	0	1	4	4
68	8.37079	0.417959	0	0	0	0	1	4	4
66	8.85841	0.0348301	0	0	0	0	1	4	4
66	8.89324	0.0290241	0	0	0	0	1	4	4
63	9.04998	0.127709	0	0	0	0	1	4	4
69	9.36345	0.0406351	0	0	0	0	1	4	4
68	9.50857	0.0348291	0	0	0	0	1	4	4
61	9.61306	0.110295	0	0	0	0	1	4	4
68	9.72336	0.0232191	0	0	0	0	1	4	4
68	9.75238	0.0580502	0	0	0	0	1	4	4
68	9.99039	0.24381	0	0	0	0	1	4	4
66	10.5186	0.121904	0	0	0	0	1	4	4
63	10.8205	0.0638552	0	0	0	0	1	4	4
68	10.8844	0.0928793	0	0	0	0	1	4	4
62	10.9772	0.0290251	0	0	0	0	1	4	4
65	11.2152	0.0348301	0	0	0	0	1	4	4
65	11.2501	0.0696602	0	0	0	0	1	4	4
64	11.3546	0.0406342	0	0	0	0	1	4	4
68	11.4416	0.13932	0	0	0	0	1	4	4
68	11.581	0.179955	0	0	0	0	1	4	4
68	11.7609	0.0580492	0	0	0	0	1	4	4
68	12.3472	0.0232201	0	0	0	0	1	4	4
68	12.3704	0.0522442	0	0	0	0	1	4	4
68	12.4227	0.0406351	0	0	0	0	1	4	4
65	12.742	0.203175	0	0	0	0	1	4	4
69	13.0148	0.0812693	0	0	0	0	1	4	4
69	13.0961	0.150929	0	0	0	0	1	4	4
68	13.247	0.0406351	0	0	0	0	1	4	4
68	13.3166	0.0232201	0	0	0	0	1	4	4
65	13.3515	0.0290251	0	0	0	0	1	4	4
61	13.5895	0.0522442	0	0	0	0	1	4	4
68	13.9088	0.0232201	0	0	0	0	1	4	4
68	13.9378	0.0348301	0	0	0	0	1	4	4
68	14.0016	0.0522442	0	0	0	0	1	4	4
64	14.2048	0.0464392	0	0	0	0	1	4	4
67	14.3673	0.168344	0	0	0	0	1	4	4
68	14.5357	0.0638552	0	0	0	0	1	4	4
68	14.6344	0.116099	0	0	0	0	1	4	4
68	14.7505	0.0696602	0	0	0	0	1	4	4
69	14.8201	0.0232201	0	0	0	0	1	4	4
66	14.8608	0.0464392	0	0	0	0	1	4	4
66	14.9072	0.0464401	0	0	0	0	1	4	4
63	15.0233	0.0290251	0	0	0	0	1	4	4
63	15.0756	0.0986853	0	0	0	0	1	4	4
61	15.2787	0.0290251	0	0	0	0	1	4	4
61	15.6154	0.150929	0	0	0	0	1	4	4
61	15.7663	0.0232201	0	0	0	0	1	4	4
61	15.9289	0.12771	0	0	0	0	1	4	4
61	16.3759	0.0232182	0	0	0	0	1	4	4
61	16.4107	0.0696602	0	0	0	0	1	4	4
66	16.4804	0.0406361	0	0	0	0	1	4	4
64	16.6487	0.0232201	0	0	0	0	1	4	4
63	16.7648	0.0232201	0	0	0	0	1	4	4
65	16.8345	0.0232201	0	0	0	0	1	4	4
63	16.8519	0.0406361	0	0	0	0	1	4	4
63	16.9041	0.0348301	0	0	0	0	1	4	4
69	17.0086	0.0232182	0	0	0	0	1	4	4
71	17.0667	0.0928802	0	0	0	0	1	4	4
72	17.1595	0.0522461	0	0	0	0	1	4	4
71	17.2118	0.0290241	0	0	0	0	1	4	4
71	17.2582	0.168344	0	0	0	0	1	4	4
68	17.6297	0.0406361	0	0	0	0	1	4	4
61	17.7575	0.0348301	0	0	0	0	1	4	4
64	17.8387	0.0348301	0	0	0	0	1	4	4
63	18.0071	0.0348301	0	0	0	0	1	4	4
63	18.1754	0.0348301	0	0	0	0	1	4	4
64	18.2161	0.0522442	0	0	0	0	1	4	4
63	18.3031	0.0812702	0	0	0	0	1	4	4
63	18.5411	0.0232201	0	0	0	0	1	4	4
64	18.605	0.0406361	0	0	0	0	1	4	4
63	18.6456	0.0406342	0	0	0	0	1	4	4
62	18.7559	0.0928802	0	0	0	0	1	4	4
63	18.9881	0.12771	0	0	0	0	1	4	4
63	19.3306	0.0406342	0	0	0	0	1	4	4
58	19.8995	0.029026	0	0	0	0	1	4	4
58	19.9459	0.0696602	0	0	0	0	1	4	4
59	20.0156	0.029026	0	0	0	0	1	4	4
60	20.0853	0.0522442	0	0	0	0	1	4	4
59	20.1898	0.0232201	0	0	0	0	1	4	4
58	20.4394	0.0232201	0	0	0	0	1	4	4
63	20.4974	0.0870743	0	0	0	0	1	4	4
63	20.5845	0.0232201	0	0	0	0	1	4	4
61	20.6135	0.121904	0	0	0	0	1	4	4
59	20.898	0.0348301	0	0	0	0	1	4	4
64	21.0024	0.0464401	0	0	0	0	1	4	4
63	21.0489	0.0870743	0	0	0	0	1	4	4
63	21.136	0.0638542	0	0	0	0	1	4	4
63	21.3333	0.0464401	0	0	0	0	1	4	4
63	21.7165	0.0406342	0	0	0	0	1	4	4
63	21.8035	0.0696602	0	0	0	0	1	4	4
63	21.8732	0.0290241	0	0	0	0	1	4	4
59	21.9254	0.0232201	0	0	0	0	1	4	4
61	21.9487	0.0348301	0	0	0	0	1	4	4
63	21.9951	0.0232201	0	0	0	0	1	4	4
63	22.0415	0.0232201	0	0	0	0	1	4	4
63	22.0648	0.0406342	0	0	0	0	1	4	4
63	22.1112	0.0232201	0	0	0	0	1	4	4
63	22.1344	0.127708	0	0	0	0	1	4	4
63	22.297	0.0232201	0	0	0	0	1	4	4
64	22.3434	0.0232201	0	0	0	0	1	4	4
61	22.4189	0.0348301	0	0	0	0	1	4	4
63	22.6975	0.0290241	0	0	0	0	1	4	4
60	23.0516	0.0232201	0	0	0	0	1	4	4
59	23.1909	0.0406342	0	0	0	0	1	4	4
59	23.2374	0.0406342	0	0	0	0	1	4	4
70	23.2838	0.0406342	0	0	0	0	1	4	4
63	23.4638	0.10449	0	0	0	0	1	4	4
61	23.7134	0.0754642	0	0	0	0	1	4	4
61	23.8701	0.0232201	0	0	0	0	1	4	4
64	23.9978	0.0580502	0	0	0	0	1	4	4
65	24.0559	0.0406361	0	0	0	0	1	4	4
61	24.1081	0.0638542	0	0	0	0	1	4	4
63	24.2068	0.0348301	0	0	0	0	1	4	4
63	24.2416	0.0812702	0	0	0	0	1	4	4
63	24.3229	0.0522442	0	0	0	0	1	4	4
64	24.6073	0.1161	0	0	0	0	1	4	4
49	26.2444	0.121906	0	0	0	0	1	4	4
59	27.6085	0.0580502	0	0	0	0	1	4	4
68	28.0265	0.272833	0	0	0	0	1	4	4
69	28.2993	0.0986862	0	0	0	0	1	4	4
68	28.398	0.0638542	0	0	0	0	1	4	4
68	28.6592	0.208979	0	0	0	0	1	4	4
68	28.8682	0.0522442	0	0	0	0	1	4	4
68	29.2571	0.139318	0	0	0	0	1	4	4
68	29.3965	0.0232201	0	0	0	0	1	4	4
68	29.4313	0.313469	0	0	0	0	1	4	4
