midiPitch 	 onsetSec 	 durationSec 	 onsetBeats 	 onsetBarIndex 	 onsetBar 	 durationBeats 	 velocity  	 numerator 	 denominator 
74	0.510839	0.179955	0	0	2.61392e-035	0	1	4	4
78	0.725624	0.203175	0	0	2.61392e-035	0	1	4	4
83	1.2829	0.13932	0	0	2.61392e-035	0	1	4	4
82	1.42222	0.16254	0	0	2.61392e-035	0	1	4	4
83	1.59637	0.214785	0	0	2.61392e-035	0	1	4	4
80	1.81116	0.191565	0	0	2.61392e-035	0	1	4	4
81	2.00272	0.0522449	0	0	2.61392e-035	0	1	4	4
81	2.05497	0.0928798	0	0	2.61392e-035	0	1	4	4
83	2.19429	0.18576	0	0	2.61392e-035	0	1	4	4
80	2.40907	0.1161	0	0	2.61392e-035	0	1	4	4
76	2.60063	0.133515	0	0	2.61392e-035	0	1	4	4
74	2.96635	0.203175	0	0	2.61392e-035	0	1	4	4
71	3.20435	0.12771	0	0	2.61392e-035	0	1	4	4
74	3.33206	0.19737	0	0	2.61392e-035	0	1	4	4
71	3.59909	0.110295	0	0	2.61392e-035	0	1	4	4
74	3.73841	0.203175	0	0	2.61392e-035	0	1	4	4
71	4.12735	0.203175	0	0	2.61392e-035	0	1	4	4
76	4.33052	0.156734	0	0	2.61392e-035	0	1	4	4
74	4.49306	0.18576	0	0	2.61392e-035	0	1	4	4
73	4.91102	0.18576	0	0	2.61392e-035	0	1	4	4
83	5.52054	0.12771	0	0	2.61392e-035	0	1	4	4
82	5.64825	0.18576	0	0	2.61392e-035	0	1	4	4
83	5.89787	0.145125	0	0	2.61392e-035	0	1	4	4
79	6.06621	0.179955	0	0	2.61392e-035	0	1	4	4
76	6.281	0.156734	0	0	2.61392e-035	0	1	4	4
76	6.68154	0.156734	0	0	2.61392e-035	0	1	4	4
81	7.42458	0.150929	0	0	2.61392e-035	0	1	4	4
78	7.58712	0.0986848	0	0	2.61392e-035	0	1	4	4
81	7.81351	0.150929	0	0	2.61392e-035	0	1	4	4
78	7.96444	0.22059	0	0	2.61392e-035	0	1	4	4
76	8.19084	0.127709	0	0	2.61392e-035	0	1	4	4
74	8.38821	0.133514	0	0	2.61392e-035	0	1	4	4
74	8.7307	0.20898	0	0	2.61392e-035	0	1	4	4
74	9.38086	0.150929	0	0	2.61392e-035	0	1	4	4
66	10.5941	0.0928802	0	0	2.61392e-035	0	1	4	4
78	11.3488	0.313469	0	0	2.61392e-035	0	1	4	4
78	11.8712	0.226395	0	0	2.61392e-035	0	1	4	4
78	12.2079	0.29025	0	0	2.61392e-035	0	1	4	4
78	12.6084	0.296055	0	0	2.61392e-035	0	1	4	4
80	12.9393	0.156734	0	0	2.61392e-035	0	1	4	4
73	13.2992	0.330885	0	0	2.61392e-035	0	1	4	4
73	13.6301	0.0986843	0	0	2.61392e-035	0	1	4	4
78	14.4602	0.203175	0	0	2.61392e-035	0	1	4	4
78	14.9711	0.238005	0	0	2.61392e-035	0	1	4	4
78	15.3716	0.226395	0	0	2.61392e-035	0	1	4	4
78	15.7373	0.290249	0	0	2.61392e-035	0	1	4	4
80	16.0508	0.168344	0	0	2.61392e-035	0	1	4	4
71	16.4455	0.377325	0	0	2.61392e-035	0	1	4	4
76	17.5717	0.342493	0	0	2.61392e-035	0	1	4	4
71	18.0883	0.191565	0	0	2.61392e-035	0	1	4	4
76	18.2857	0.133516	0	0	2.61392e-035	0	1	4	4
71	18.4773	0.336691	0	0	2.61392e-035	0	1	4	4
76	18.814	0.261223	0	0	2.61392e-035	0	1	4	4
76	19.1913	0.255421	0	0	2.61392e-035	0	1	4	4
76	19.4467	0.284443	0	0	2.61392e-035	0	1	4	4
69	20.3755	0.168344	0	0	2.61392e-035	0	1	4	4
71	20.5671	0.191565	0	0	2.61392e-035	0	1	4	4
72	21.1476	0.191565	0	0	2.61392e-035	0	1	4	4
73	21.8964	0.174149	0	0	2.61392e-035	0	1	4	4
76	22.117	0.290249	0	0	2.61392e-035	0	1	4	4
69	22.6569	0.238005	0	0	2.61392e-035	0	1	4	4
69	22.8949	0.15093	0	0	2.61392e-035	0	1	4	4
69	24.1836	0.238005	0	0	2.61392e-035	0	1	4	4
69	24.944	0.261225	0	0	2.61392e-035	0	1	4	4
71	25.6	0.249613	0	0	2.61392e-035	0	1	4	4
69	26.0992	0.226395	0	0	2.61392e-035	0	1	4	4
73	26.343	0.296055	0	0	2.61392e-035	0	1	4	4
68	27.2312	0.243809	0	0	2.61392e-035	0	1	4	4
64	27.9626	0.307665	0	0	2.61392e-035	0	1	4	4
62	28.2703	0.191565	0	0	2.61392e-035	0	1	4	4
