midiPitch 	 onsetSec 	 durationSec 	 onsetBeats 	 onsetBarIndex 	 onsetBar 	 durationBeats 	 velocity  	 numerator 	 denominator 
60	0.0522449	0.313469	0	0	2.44477e-035	0	1	4	4
58	0.423764	0.110295	0	0	2.44477e-035	0	1	4	4
59	0.534059	0.0406349	0	0	2.44477e-035	0	1	4	4
60	0.580499	0.0522449	0	0	2.44477e-035	0	1	4	4
56	0.632744	0.319274	0	0	2.44477e-035	0	1	4	4
56	1.0449	0.441179	0	0	2.44477e-035	0	1	4	4
49	1.48608	0.510839	0	0	2.44477e-035	0	1	4	4
68	2.00272	0.238004	0	0	2.44477e-035	0	1	4	4
68	2.24073	0.0464399	0	0	2.44477e-035	0	1	4	4
68	2.31619	0.0290248	0	0	2.44477e-035	0	1	4	4
68	2.35683	0.0464399	0	0	2.44477e-035	0	1	4	4
68	2.42068	0.0464399	0	0	2.44477e-035	0	1	4	4
74	2.47293	0.0348299	0	0	2.44477e-035	0	1	4	4
74	2.51356	0.0696599	0	0	2.44477e-035	0	1	4	4
53	2.65288	0.168345	0	0	2.44477e-035	0	1	4	4
56	2.90249	0.354104	0	0	2.44477e-035	0	1	4	4
56	3.34367	0.156735	0	0	2.44477e-035	0	1	4	4
58	3.79066	0.0696599	0	0	2.44477e-035	0	1	4	4
58	3.87193	0.0522449	0	0	2.44477e-035	0	1	4	4
60	4.01125	0.371519	0	0	2.44477e-035	0	1	4	4
58	4.39438	0.464399	0	0	2.44477e-035	0	1	4	4
58	4.8878	0.37152	0	0	2.44477e-035	0	1	4	4
63	5.33478	0.261224	0	0	2.44477e-035	0	1	4	4
58	5.59601	0.417959	0	0	2.44477e-035	0	1	4	4
58	6.01397	0.0232201	0	0	2.44477e-035	0	1	4	4
58	6.03719	0.261225	0	0	2.44477e-035	0	1	4	4
63	6.43193	0.24381	0	0	2.44477e-035	0	1	4	4
63	7.13433	0.0406351	0	0	2.44477e-035	0	1	4	4
63	7.18077	0.0696597	0	0	2.44477e-035	0	1	4	4
56	7.43619	0.145125	0	0	2.44477e-035	0	1	4	4
56	7.73224	0.127709	0	0	2.44477e-035	0	1	4	4
56	8.0341	0.0290251	0	0	2.44477e-035	0	1	4	4
56	8.10376	0.0638552	0	0	2.44477e-035	0	1	4	4
56	8.16762	0.0232201	0	0	2.44477e-035	0	1	4	4
56	8.23147	0.104489	0	0	2.44477e-035	0	1	4	4
60	8.45206	0.18576	0	0	2.44477e-035	0	1	4	4
60	8.63782	0.278639	0	0	2.44477e-035	0	1	4	4
58	8.97451	0.0638552	0	0	2.44477e-035	0	1	4	4
58	9.4215	0.0522451	0	0	2.44477e-035	0	1	4	4
58	9.52018	0.0464392	0	0	2.44477e-035	0	1	4	4
58	9.56662	0.0638552	0	0	2.44477e-035	0	1	4	4
58	9.63048	0.0348301	0	0	2.44477e-035	0	1	4	4
58	9.67111	0.18576	0	0	2.44477e-035	0	1	4	4
58	9.85687	0.0290251	0	0	2.44477e-035	0	1	4	4
59	9.8917	0.284444	0	0	2.44477e-035	0	1	4	4
58	10.1878	0.10449	0	0	2.44477e-035	0	1	4	4
58	10.7276	0.133514	0	0	2.44477e-035	0	1	4	4
53	11.1746	0.0870752	0	0	2.44477e-035	0	1	4	4
54	11.2617	0.0290251	0	0	2.44477e-035	0	1	4	4
56	11.2965	0.156734	0	0	2.44477e-035	0	1	4	4
56	11.4707	0.26703	0	0	2.44477e-035	0	1	4	4
56	12.0279	0.0638552	0	0	2.44477e-035	0	1	4	4
56	12.0918	0.0754652	0	0	2.44477e-035	0	1	4	4
56	12.3588	0.0638542	0	0	2.44477e-035	0	1	4	4
56	12.5388	0.0348301	0	0	2.44477e-035	0	1	4	4
56	12.9393	0.0290251	0	0	2.44477e-035	0	1	4	4
58	12.9916	0.0290241	0	0	2.44477e-035	0	1	4	4
58	13.0264	0.0232201	0	0	2.44477e-035	0	1	4	4
60	13.0612	0.0580502	0	0	2.44477e-035	0	1	4	4
60	13.1193	0.110294	0	0	2.44477e-035	0	1	4	4
61	13.3515	0.121904	0	0	2.44477e-035	0	1	4	4
61	13.4734	0.0928802	0	0	2.44477e-035	0	1	4	4
63	13.6707	0.3483	0	0	2.44477e-035	0	1	4	4
63	14.019	0.388934	0	0	2.44477e-035	0	1	4	4
61	14.408	0.179955	0	0	2.44477e-035	0	1	4	4
61	14.5879	0.0232201	0	0	2.44477e-035	0	1	4	4
61	14.6808	0.20898	0	0	2.44477e-035	0	1	4	4
60	14.8898	0.0348301	0	0	2.44477e-035	0	1	4	4
60	14.9362	0.12771	0	0	2.44477e-035	0	1	4	4
61	15.0814	0.13932	0	0	2.44477e-035	0	1	4	4
61	15.2207	0.145124	0	0	2.44477e-035	0	1	4	4
61	15.3658	0.203175	0	0	2.44477e-035	0	1	4	4
60	16.016	0.394739	0	0	2.44477e-035	0	1	4	4
60	16.4571	0.13932	0	0	2.44477e-035	0	1	4	4
58	16.7242	0.0928783	0	0	2.44477e-035	0	1	4	4
58	17.0609	0.185759	0	0	2.44477e-035	0	1	4	4
58	17.2931	0.290251	0	0	2.44477e-035	0	1	4	4
58	17.6297	0.0812702	0	0	2.44477e-035	0	1	4	4
58	17.711	0.110296	0	0	2.44477e-035	0	1	4	4
51	18.1232	0.267029	0	0	2.44477e-035	0	1	4	4
51	18.4076	0.0290241	0	0	2.44477e-035	0	1	4	4
58	19.1971	0.110294	0	0	2.44477e-035	0	1	4	4
51	19.6847	0.232201	0	0	2.44477e-035	0	1	4	4
70	19.8531	0.255419	0	0	2.44477e-035	0	1	4	4
68	20.1085	0.15093	0	0	2.44477e-035	0	1	4	4
68	20.2594	0.110294	0	0	2.44477e-035	0	1	4	4
70	20.48	0.0870743	0	0	2.44477e-035	0	1	4	4
70	20.5671	0.17415	0	0	2.44477e-035	0	1	4	4
61	22.7788	0.0580502	0	0	2.44477e-035	0	1	4	4
63	22.9703	0.400545	0	0	2.44477e-035	0	1	4	4
62	23.3709	0.0290241	0	0	2.44477e-035	0	1	4	4
63	23.3999	0.464399	0	0	2.44477e-035	0	1	4	4
61	23.8991	0.0580502	0	0	2.44477e-035	0	1	4	4
61	23.9978	0.191565	0	0	2.44477e-035	0	1	4	4
60	24.1894	0.0348301	0	0	2.44477e-035	0	1	4	4
60	24.2358	0.0870762	0	0	2.44477e-035	0	1	4	4
61	24.3229	0.412153	0	0	2.44477e-035	0	1	4	4
60	24.7351	0.388935	0	0	2.44477e-035	0	1	4	4
60	25.124	0.0290241	0	0	2.44477e-035	0	1	4	4
60	25.1646	0.203175	0	0	2.44477e-035	0	1	4	4
56	25.42	0.0754662	0	0	2.44477e-035	0	1	4	4
0	25.4955	0.220589	0	0	2.44477e-035	0	1	4	4
58	25.7161	0.446985	0	0	2.44477e-035	0	1	4	4
58	26.1805	0.145124	0	0	2.44477e-035	0	1	4	4
54	26.4069	0.15093	0	0	2.44477e-035	0	1	4	4
53	26.5578	0.0928783	0	0	2.44477e-035	0	1	4	4
