midiPitch 	 onsetSec 	 durationSec 	 onsetBeats 	 onsetBarIndex 	 onsetBar 	 durationBeats 	 velocity  	 numerator 	 denominator 
63	0.481814	0.168345	0	0	0	0	1	4	4
61	0.806893	0.19737	0	0	0	0	1	4	4
63	1.10295	0.0406349	0	0	0	0	1	4	4
65	1.31773	0.0580498	0	0	0	0	1	4	4
53	1.31773	0.208979	0	0	0	0	1	4	4
54	1.84599	0.12771	0	0	0	0	1	4	4
58	2.21751	0.15093	0	0	0	0	1	4	4
58	2.36844	0.0406349	0	0	0	0	1	4	4
58	2.47293	0.0464399	0	0	0	0	1	4	4
58	2.65288	0.0290251	0	0	0	0	1	4	4
60	2.70512	0.133515	0	0	0	0	1	4	4
60	2.84444	0.0406351	0	0	0	0	1	4	4
63	3.08825	0.0522449	0	0	0	0	1	4	4
51	3.26821	0.325079	0	0	0	0	1	4	4
52	3.63392	0.0406349	0	0	0	0	1	4	4
53	3.67456	0.301859	0	0	0	0	1	4	4
54	4.16798	0.0986848	0	0	0	0	1	4	4
54	4.3015	0.0812697	0	0	0	0	1	4	4
51	6.11846	0.0406351	0	0	0	0	1	4	4
53	6.35646	0.0290251	0	0	0	0	1	4	4
53	6.38549	0.18576	0	0	0	0	1	4	4
58	7.29107	0.0754647	0	0	0	0	1	4	4
46	7.36653	0.0406351	0	0	0	0	1	4	4
70	7.50585	0.133514	0	0	0	0	1	4	4
72	7.8019	0.0754647	0	0	0	0	1	4	4
78	7.87737	0.0290251	0	0	0	0	1	4	4
79	7.92961	0.0406346	0	0	0	0	1	4	4
79	7.97605	0.238005	0	0	0	0	1	4	4
75	8.28952	0.0870743	0	0	0	0	1	4	4
79	8.46948	0.0638542	0	0	0	0	1	4	4
77	8.73651	0.0348301	0	0	0	0	1	4	4
77	8.80036	0.0232201	0	0	0	0	1	4	4
77	8.88744	0.0348291	0	0	0	0	1	4	4
53	8.77134	0.383129	0	0	0	0	1	4	4
53	9.17188	0.0232201	0	0	0	0	1	4	4
54	9.20091	0.458594	0	0	0	0	1	4	4
63	10.6754	0.110294	0	0	0	0	1	4	4
61	10.9134	0.249615	0	0	0	0	1	4	4
53	11.43	0.25542	0	0	0	0	1	4	4
54	12.0105	0.133515	0	0	0	0	1	4	4
54	12.1731	0.162539	0	0	0	0	1	4	4
53	12.3356	0.0580502	0	0	0	0	1	4	4
58	12.4053	0.0928802	0	0	0	0	1	4	4
58	12.4981	0.0348301	0	0	0	0	1	4	4
58	12.7361	0.0986843	0	0	0	0	1	4	4
55	12.8813	0.0696602	0	0	0	0	1	4	4
48	13.0206	0.13932	0	0	0	0	1	4	4
48	13.2122	0.145124	0	0	0	0	1	4	4
51	13.3979	0.0348291	0	0	0	0	1	4	4
51	13.4618	0.145125	0	0	0	0	1	4	4
51	13.6069	0.0928793	0	0	0	0	1	4	4
51	13.6998	0.0348301	0	0	0	0	1	4	4
53	13.8507	0.0348301	0	0	0	0	1	4	4
53	13.9029	0.121905	0	0	0	0	1	4	4
54	14.3964	0.0406351	0	0	0	0	1	4	4
53	14.4486	0.0406342	0	0	0	0	1	4	4
54	14.4893	0.261225	0	0	0	0	1	4	4
55	14.9362	0.0406351	0	0	0	0	1	4	4
56	15.0233	0.0232201	0	0	0	0	1	4	4
56	15.0523	0.249614	0	0	0	0	1	4	4
58	15.4297	0.278639	0	0	0	0	1	4	4
58	15.7315	0.0870752	0	0	0	0	1	4	4
60	15.8534	0.0232201	0	0	0	0	1	4	4
60	15.8824	0.400544	0	0	0	0	1	4	4
61	16.283	0.516644	0	0	0	0	1	4	4
61	16.7996	0.0232201	0	0	0	0	1	4	4
72	21.9719	0.185759	0	0	0	0	1	4	4
70	22.4885	0.168344	0	0	0	0	1	4	4
61	22.7439	0.0754642	0	0	0	0	1	4	4
59	22.9936	0.16254	0	0	0	0	1	4	4
57	23.1735	0.12771	0	0	0	0	1	4	4
61	23.6437	0.243809	0	0	0	0	1	4	4
59	23.9456	0.0986843	0	0	0	0	1	4	4
60	24.0443	0.121906	0	0	0	0	1	4	4
56	24.1836	0.0464401	0	0	0	0	1	4	4
52	24.8976	0.226395	0	0	0	0	1	4	4
51	25.9773	0.0812702	0	0	0	0	1	4	4
73	26.6101	0.156734	0	0	0	0	1	4	4
70	27.1615	0.249615	0	0	0	0	1	4	4
72	27.4228	0.0638542	0	0	0	0	1	4	4
72	27.5215	0.0522461	0	0	0	0	1	4	4
75	27.7014	0.029026	0	0	0	0	1	4	4
68	28.0961	0.284445	0	0	0	0	1	4	4
68	28.8102	0.0870762	0	0	0	0	1	4	4
68	28.9205	0.0928802	0	0	0	0	1	4	4
61	29.3442	0.12771	0	0	0	0	1	4	4
69	29.4835	0.0232201	0	0	0	0	1	4	4
69	29.5068	0.0232182	0	0	0	0	1	4	4
69	29.5358	0.0406342	0	0	0	0	1	4	4
69	29.739	0.156734	0	0	0	0	1	4	4
