midiPitch 	 onsetSec 	 durationSec 	 onsetBeats 	 onsetBarIndex 	 onsetBar 	 durationBeats 	 velocity  	 numerator 	 denominator 
67	0.272834	0.0986848	0	0	0	0	1	4	4
65	0.505034	0.16254	0	0	0	0	1	4	4
65	0.667574	0.0232199	0	0	0	0	1	4	4
69	0.830113	0.121905	0	0	0	0	1	4	4
69	0.952018	0.203175	0	0	0	0	1	4	4
62	1.15519	1.18422	0	0	0	0	1	4	4
62	2.33941	0.563084	0	0	0	0	1	4	4
62	2.90249	0.296055	0	0	0	0	1	4	4
62	3.19855	0.0754647	0	0	0	0	1	4	4
58	3.27401	0.348299	0	0	0	0	1	4	4
62	3.62231	0.08127	0	0	0	0	1	4	4
62	3.70358	0.0638547	0	0	0	0	1	4	4
58	3.76744	0.168345	0	0	0	0	1	4	4
58	3.93578	0.0232201	0	0	0	0	1	4	4
65	4.38857	0.168345	0	0	0	0	1	4	4
57	4.58594	0.145125	0	0	0	0	1	4	4
57	4.75429	0.0928798	0	0	0	0	1	4	4
67	4.95166	0.139319	0	0	0	0	1	4	4
66	5.09097	0.0232201	0	0	0	0	1	4	4
65	5.14902	0.18576	0	0	0	0	1	4	4
67	5.358	0.893968	0	0	0	0	1	4	4
67	6.281	0.150929	0	0	0	0	1	4	4
67	6.43193	0.377325	0	0	0	0	1	4	4
67	6.87891	0.19737	0	0	0	0	1	4	4
67	7.22141	0.0986848	0	0	0	0	1	4	4
67	7.32009	0.0406346	0	0	0	0	1	4	4
67	7.37234	0.0348301	0	0	0	0	1	4	4
67	7.43039	0.0464396	0	0	0	0	1	4	4
61	7.90639	0.0638547	0	0	0	0	1	4	4
61	8.21406	0.0522451	0	0	0	0	1	4	4
64	8.28372	0.145124	0	0	0	0	1	4	4
64	8.55075	0.0290251	0	0	0	0	1	4	4
64	8.64363	0.0406351	0	0	0	0	1	4	4
67	8.74812	0.133515	0	0	0	0	1	4	4
65	9.03837	0.191565	0	0	0	0	1	4	4
67	9.3054	0.203175	0	0	0	0	1	4	4
69	9.56082	0.551475	0	0	0	0	1	4	4
69	10.7857	0.238005	0	0	0	0	1	4	4
69	11.0237	0.0580502	0	0	0	0	1	4	4
69	11.0817	0.133514	0	0	0	0	1	4	4
72	11.2791	0.26703	0	0	0	0	1	4	4
71	11.5693	0.789478	0	0	0	0	1	4	4
71	12.3588	0.261224	0	0	0	0	1	4	4
67	13.8217	0.18576	0	0	0	0	1	4	4
69	14.019	0.853333	0	0	0	0	1	4	4
69	14.9014	0.22059	0	0	0	0	1	4	4
69	15.1975	0.249615	0	0	0	0	1	4	4
72	15.5051	0.394739	0	0	0	0	1	4	4
71	15.9985	0.673378	0	0	0	0	1	4	4
71	16.6719	0.121906	0	0	0	0	1	4	4
65	17.9722	0.0986843	0	0	0	0	1	4	4
67	18.2335	0.214785	0	0	0	0	1	4	4
69	18.5121	0.61533	0	0	0	0	1	4	4
72	19.3074	0.0464401	0	0	0	0	1	4	4
71	19.6383	1.14358	0	0	0	0	1	4	4
72	20.7993	0.696598	0	0	0	0	1	4	4
72	21.6004	0.191565	0	0	0	0	1	4	4
72	21.8268	0.0928802	0	0	0	0	1	4	4
71	21.9487	0.371519	0	0	0	0	1	4	4
73	22.5698	0.0406342	0	0	0	0	1	4	4
69	22.6162	0.400543	0	0	0	0	1	4	4
71	27.7885	1.7473	0	0	0	0	1	4	4
