midiPitch 	 onsetSec 	 durationSec 	 onsetBeats 	 onsetBarIndex 	 onsetBar 	 durationBeats 	 velocity  	 numerator 	 denominator 
65	0.15093	0.0290249	0	0	4.73928e-035	0	1	4	4
64	0.371519	0.0290249	0	0	4.73928e-035	0	1	4	4
64	0.406349	0.0348299	0	0	4.73928e-035	0	1	4	4
64	0.458594	0.0348299	0	0	4.73928e-035	0	1	4	4
66	0.650159	0.0406349	0	0	4.73928e-035	0	1	4	4
67	0.714014	0.03483	0	0	4.73928e-035	0	1	4	4
64	0.795283	0.0232199	0	0	4.73928e-035	0	1	4	4
64	0.824308	0.0638549	0	0	4.73928e-035	0	1	4	4
69	1.10875	0.13932	0	0	4.73928e-035	0	1	4	4
66	1.28871	0.0870748	0	0	4.73928e-035	0	1	4	4
64	1.37578	0.0638549	0	0	4.73928e-035	0	1	4	4
67	2.2117	0.0290248	0	0	4.73928e-035	0	1	4	4
66	2.33941	0.0290251	0	0	4.73928e-035	0	1	4	4
66	2.37424	0.0754647	0	0	4.73928e-035	0	1	4	4
66	2.46132	0.0290248	0	0	4.73928e-035	0	1	4	4
66	2.49615	0.087075	0	0	4.73928e-035	0	1	4	4
66	2.66449	0.110295	0	0	4.73928e-035	0	1	4	4
61	2.90249	0.0232201	0	0	4.73928e-035	0	1	4	4
61	3.4888	0.0290248	0	0	4.73928e-035	0	1	4	4
66	3.65134	0.12771	0	0	4.73928e-035	0	1	4	4
61	3.88354	0.0406349	0	0	4.73928e-035	0	1	4	4
62	4.23764	0.0464396	0	0	4.73928e-035	0	1	4	4
66	4.41179	0.0348301	0	0	4.73928e-035	0	1	4	4
66	4.44662	0.0232196	0	0	4.73928e-035	0	1	4	4
62	4.56853	0.1161	0	0	4.73928e-035	0	1	4	4
62	4.68463	0.0232201	0	0	4.73928e-035	0	1	4	4
62	4.7717	0.0638552	0	0	4.73928e-035	0	1	4	4
62	4.83556	0.0348296	0	0	4.73928e-035	0	1	4	4
62	5.03293	0.0290251	0	0	4.73928e-035	0	1	4	4
67	5.10258	0.0696602	0	0	4.73928e-035	0	1	4	4
64	5.17805	0.0464401	0	0	4.73928e-035	0	1	4	4
64	5.23029	0.0348301	0	0	4.73928e-035	0	1	4	4
63	5.46249	0.0290246	0	0	4.73928e-035	0	1	4	4
65	5.52635	0.0290251	0	0	4.73928e-035	0	1	4	4
64	5.8224	0.0232201	0	0	4.73928e-035	0	1	4	4
64	5.92689	0.0870748	0	0	4.73928e-035	0	1	4	4
64	6.11846	0.0290251	0	0	4.73928e-035	0	1	4	4
64	6.17651	0.0232201	0	0	4.73928e-035	0	1	4	4
64	6.20553	0.0290251	0	0	4.73928e-035	0	1	4	4
65	6.24036	0.0232201	0	0	4.73928e-035	0	1	4	4
64	6.26939	0.0232201	0	0	4.73928e-035	0	1	4	4
64	6.29261	0.0928798	0	0	4.73928e-035	0	1	4	4
64	6.47256	0.110295	0	0	4.73928e-035	0	1	4	4
63	6.73379	0.0522451	0	0	4.73928e-035	0	1	4	4
64	7.04726	0.0696602	0	0	4.73928e-035	0	1	4	4
64	7.11692	0.0348296	0	0	4.73928e-035	0	1	4	4
62	7.2098	0.0290246	0	0	4.73928e-035	0	1	4	4
62	7.26785	0.0928798	0	0	4.73928e-035	0	1	4	4
65	7.40717	0.0232201	0	0	4.73928e-035	0	1	4	4
66	7.51746	0.0348296	0	0	4.73928e-035	0	1	4	4
62	7.69741	0.0580497	0	0	4.73928e-035	0	1	4	4
64	7.75546	0.0232201	0	0	4.73928e-035	0	1	4	4
67	7.77868	0.0348301	0	0	4.73928e-035	0	1	4	4
62	7.84254	0.0464401	0	0	4.73928e-035	0	1	4	4
62	7.88898	0.0580497	0	0	4.73928e-035	0	1	4	4
62	8.16762	0.0406351	0	0	4.73928e-035	0	1	4	4
63	8.33016	0.0232201	0	0	4.73928e-035	0	1	4	4
66	8.38821	0.0348301	0	0	4.73928e-035	0	1	4	4
69	8.62041	0.104489	0	0	4.73928e-035	0	1	4	4
66	8.76553	0.0406351	0	0	4.73928e-035	0	1	4	4
62	8.85261	0.0522451	0	0	4.73928e-035	0	1	4	4
62	8.98612	0.0754652	0	0	4.73928e-035	0	1	4	4
62	9.06159	0.0348301	0	0	4.73928e-035	0	1	4	4
62	9.1893	0.0232201	0	0	4.73928e-035	0	1	4	4
62	9.22993	0.0406351	0	0	4.73928e-035	0	1	4	4
62	9.29959	0.0522442	0	0	4.73928e-035	0	1	4	4
62	9.35184	0.0986853	0	0	4.73928e-035	0	1	4	4
64	9.52018	0.127709	0	0	4.73928e-035	0	1	4	4
66	9.78721	0.0290251	0	0	4.73928e-035	0	1	4	4
64	9.95555	0.0464401	0	0	4.73928e-035	0	1	4	4
64	10.002	0.0348301	0	0	4.73928e-035	0	1	4	4
64	10.1007	0.104489	0	0	4.73928e-035	0	1	4	4
64	10.2052	0.0290251	0	0	4.73928e-035	0	1	4	4
68	10.3387	0.0812693	0	0	4.73928e-035	0	1	4	4
66	10.478	0.0406351	0	0	4.73928e-035	0	1	4	4
65	10.5186	0.0406342	0	0	4.73928e-035	0	1	4	4
62	10.7334	0.0232201	0	0	4.73928e-035	0	1	4	4
62	10.8553	0.0348301	0	0	4.73928e-035	0	1	4	4
62	10.896	0.0754642	0	0	4.73928e-035	0	1	4	4
62	10.9714	0.0406351	0	0	4.73928e-035	0	1	4	4
65	11.163	0.0348291	0	0	4.73928e-035	0	1	4	4
64	11.3371	0.0348301	0	0	4.73928e-035	0	1	4	4
64	11.3778	0.0290251	0	0	4.73928e-035	0	1	4	4
61	11.5113	0.0348301	0	0	4.73928e-035	0	1	4	4
61	11.5461	0.0232201	0	0	4.73928e-035	0	1	4	4
69	11.7087	0.0348301	0	0	4.73928e-035	0	1	4	4
69	11.7435	0.0348301	0	0	4.73928e-035	0	1	4	4
71	11.8422	0.0232201	0	0	4.73928e-035	0	1	4	4
66	11.8712	0.0290251	0	0	4.73928e-035	0	1	4	4
66	11.9409	0.0812693	0	0	4.73928e-035	0	1	4	4
66	12.1034	0.0696602	0	0	4.73928e-035	0	1	4	4
64	12.5852	0.0348291	0	0	4.73928e-035	0	1	4	4
64	12.6897	0.0290251	0	0	4.73928e-035	0	1	4	4
64	12.9567	0.0348301	0	0	4.73928e-035	0	1	4	4
64	12.9974	0.0348291	0	0	4.73928e-035	0	1	4	4
64	13.1773	0.0290251	0	0	4.73928e-035	0	1	4	4
65	13.2412	0.0348301	0	0	4.73928e-035	0	1	4	4
68	13.4211	0.0580492	0	0	4.73928e-035	0	1	4	4
64	13.514	0.0348301	0	0	4.73928e-035	0	1	4	4
64	13.6127	0.0290241	0	0	4.73928e-035	0	1	4	4
62	13.7346	0.0290251	0	0	4.73928e-035	0	1	4	4
62	13.7927	0.0348301	0	0	4.73928e-035	0	1	4	4
64	13.8275	0.0232191	0	0	4.73928e-035	0	1	4	4
62	13.9088	0.0290251	0	0	4.73928e-035	0	1	4	4
62	13.9668	0.0348301	0	0	4.73928e-035	0	1	4	4
62	14.0132	0.0406342	0	0	4.73928e-035	0	1	4	4
66	14.1526	0.0232201	0	0	4.73928e-035	0	1	4	4
65	14.3906	0.0290251	0	0	4.73928e-035	0	1	4	4
66	14.4254	0.0406342	0	0	4.73928e-035	0	1	4	4
66	14.6982	0.0232201	0	0	4.73928e-035	0	1	4	4
66	14.7621	0.0464401	0	0	4.73928e-035	0	1	4	4
66	14.8259	0.0232201	0	0	4.73928e-035	0	1	4	4
66	14.855	0.0232191	0	0	4.73928e-035	0	1	4	4
66	14.9827	0.0696602	0	0	4.73928e-035	0	1	4	4
65	15.2033	0.0870743	0	0	4.73928e-035	0	1	4	4
65	15.3136	0.0406351	0	0	4.73928e-035	0	1	4	4
66	15.8534	0.0696592	0	0	4.73928e-035	0	1	4	4
66	15.9869	0.0232201	0	0	4.73928e-035	0	1	4	4
62	16.4165	0.0232201	0	0	4.73928e-035	0	1	4	4
62	16.4688	0.0464401	0	0	4.73928e-035	0	1	4	4
62	16.5152	0.0348301	0	0	4.73928e-035	0	1	4	4
62	16.55	0.029026	0	0	4.73928e-035	0	1	4	4
62	16.6429	0.0232201	0	0	4.73928e-035	0	1	4	4
66	17.8097	0.116098	0	0	4.73928e-035	0	1	4	4
62	19.6383	0.0928783	0	0	4.73928e-035	0	1	4	4
62	19.7428	0.0638561	0	0	4.73928e-035	0	1	4	4
66	20.0214	0.0232201	0	0	4.73928e-035	0	1	4	4
60	20.0678	0.0232182	0	0	4.73928e-035	0	1	4	4
63	20.1898	0.0232201	0	0	4.73928e-035	0	1	4	4
59	20.6309	0.110294	0	0	4.73928e-035	0	1	4	4
71	20.8167	0.029026	0	0	4.73928e-035	0	1	4	4
71	20.8515	0.0986843	0	0	4.73928e-035	0	1	4	4
71	20.9502	0.029026	0	0	4.73928e-035	0	1	4	4
78	21.0024	0.156734	0	0	4.73928e-035	0	1	4	4
76	21.2114	0.0464401	0	0	4.73928e-035	0	1	4	4
76	21.2695	0.0696602	0	0	4.73928e-035	0	1	4	4
78	21.612	0.0870743	0	0	4.73928e-035	0	1	4	4
73	22.1576	0.0580502	0	0	4.73928e-035	0	1	4	4
59	22.6046	0.0348301	0	0	4.73928e-035	0	1	4	4
59	22.7265	0.0406342	0	0	4.73928e-035	0	1	4	4
63	23.0632	0.0232201	0	0	4.73928e-035	0	1	4	4
59	23.1503	0.0870743	0	0	4.73928e-035	0	1	4	4
64	23.3709	0.0348301	0	0	4.73928e-035	0	1	4	4
65	23.4115	0.0638561	0	0	4.73928e-035	0	1	4	4
64	23.6437	0.0290241	0	0	4.73928e-035	0	1	4	4
65	23.7076	0.0522461	0	0	4.73928e-035	0	1	4	4
63	23.8643	0.0986862	0	0	4.73928e-035	0	1	4	4
64	23.963	0.0812683	0	0	4.73928e-035	0	1	4	4
65	24.0965	0.133514	0	0	4.73928e-035	0	1	4	4
65	24.3287	0.0986843	0	0	4.73928e-035	0	1	4	4
64	24.4274	0.0754662	0	0	4.73928e-035	0	1	4	4
64	24.8454	0.18576	0	0	4.73928e-035	0	1	4	4
63	25.2053	0.0870743	0	0	4.73928e-035	0	1	4	4
62	25.2923	0.0754642	0	0	4.73928e-035	0	1	4	4
65	26.3663	0.116098	0	0	4.73928e-035	0	1	4	4
65	26.4824	0.0754662	0	0	4.73928e-035	0	1	4	4
65	26.5578	0.121904	0	0	4.73928e-035	0	1	4	4
66	26.7146	0.121904	0	0	4.73928e-035	0	1	4	4
66	27.0861	0.0406342	0	0	4.73928e-035	0	1	4	4
65	27.1267	0.0232201	0	0	4.73928e-035	0	1	4	4
65	27.1557	0.0812702	0	0	4.73928e-035	0	1	4	4
64	27.237	0.0348282	0	0	4.73928e-035	0	1	4	4
65	27.4576	0.0290241	0	0	4.73928e-035	0	1	4	4
65	27.4866	0.0754662	0	0	4.73928e-035	0	1	4	4
65	27.951	0.0580502	0	0	4.73928e-035	0	1	4	4
64	28.0091	0.12771	0	0	4.73928e-035	0	1	4	4
66	28.3225	0.0986862	0	0	4.73928e-035	0	1	4	4
65	28.4212	0.220589	0	0	4.73928e-035	0	1	4	4
62906528	29.4023	0.127708	0	0	4.73928e-035	0	1	4	4
