midiPitch 	 onsetSec 	 durationSec 	 onsetBeats 	 onsetBarIndex 	 onsetBar 	 durationBeats 	 velocity  	 numerator 	 denominator 
46	0.0696599	0.12771	0	0	0	0	1	4	4
48	0.342494	0.249615	0	0	0	0	1	4	4
50	0.684989	0.0812698	0	0	0	0	1	4	4
50	0.853333	0.0812699	0	0	0	0	1	4	4
50	0.952018	0.0232199	0	0	0	0	1	4	4
51	0.986848	0.145125	0	0	0	0	1	4	4
51	1.30612	0.12771	0	0	0	0	1	4	4
50	1.43383	0.580499	0	0	0	0	1	4	4
50	2.01433	0.18576	0	0	0	0	1	4	4
50	2.20009	0.20898	0	0	0	0	1	4	4
50	2.40907	0.12771	0	0	0	0	1	4	4
53	2.53678	0.342494	0	0	0	0	1	4	4
50	2.87927	0.249614	0	0	0	0	1	4	4
49	3.12889	0.406349	0	0	0	0	1	4	4
48	3.54104	0.249614	0	0	0	0	1	4	4
60	5.49152	0.10449	0	0	0	0	1	4	4
60	5.59601	0.0928798	0	0	0	0	1	4	4
46	7.05306	0.0870748	0	0	0	0	1	4	4
50	7.36653	0.0406351	0	0	0	0	1	4	4
50	7.41297	0.0696597	0	0	0	0	1	4	4
51	7.69161	0.22059	0	0	0	0	1	4	4
53	7.99347	0.0928802	0	0	0	0	1	4	4
55	8.08635	0.18576	0	0	0	0	1	4	4
53	8.27211	0.458593	0	0	0	0	1	4	4
51	8.9571	0.26703	0	0	0	0	1	4	4
50	9.26476	0.359909	0	0	0	0	1	4	4
48	9.64209	0.0348301	0	0	0	0	1	4	4
47	9.69433	0.470203	0	0	0	0	1	4	4
47	10.1645	0.0638552	0	0	0	0	1	4	4
49	10.2458	0.150929	0	0	0	0	1	4	4
48	10.3967	0.0870752	0	0	0	0	1	4	4
50	10.896	0.301859	0	0	0	0	1	4	4
51	13.7114	0.0290251	0	0	0	0	1	4	4
72	14.7156	0.13932	0	0	0	0	1	4	4
72	14.8724	0.13932	0	0	0	0	1	4	4
72	15.0117	0.150929	0	0	0	0	1	4	4
65	15.3136	0.31347	0	0	0	0	1	4	4
60	15.6735	0.284444	0	0	0	0	1	4	4
60	15.9579	0.133515	0	0	0	0	1	4	4
60	16.0914	0.0580502	0	0	0	0	1	4	4
60	16.1495	0.0638542	0	0	0	0	1	4	4
60	16.6139	0.133516	0	0	0	0	1	4	4
65	16.8983	0.0464401	0	0	0	0	1	4	4
60	17.3395	0.0580502	0	0	0	0	1	4	4
62	17.6065	0.0754642	0	0	0	0	1	4	4
63	17.8852	0.0580502	0	0	0	0	1	4	4
51	17.8736	0.185759	0	0	0	0	1	4	4
54	18.1928	0.238005	0	0	0	0	1	4	4
52	18.4308	0.0464382	0	0	0	0	1	4	4
53	18.5702	0.406349	0	0	0	0	1	4	4
51	19.1971	0.238005	0	0	0	0	1	4	4
48	19.4932	0.0638561	0	0	0	0	1	4	4
50	19.557	0.174149	0	0	0	0	1	4	4
48	19.8531	0.232199	0	0	0	0	1	4	4
48	20.48	0.15093	0	0	0	0	1	4	4
49	21.4088	0.156734	0	0	0	0	1	4	4
48	21.6758	0.168344	0	0	0	0	1	4	4
46	21.8442	0.354105	0	0	0	0	1	4	4
68	23.2954	0.121904	0	0	0	0	1	4	4
68	23.458	0.203175	0	0	0	0	1	4	4
49	23.3477	0.429569	0	0	0	0	1	4	4
48	23.8469	0.0812702	0	0	0	0	1	4	4
49	24.0675	0.15093	0	0	0	0	1	4	4
51	24.6015	0.203175	0	0	0	0	1	4	4
49	24.915	0.121904	0	0	0	0	1	4	4
51	25.0369	0.522449	0	0	0	0	1	4	4
51	25.5594	0.249615	0	0	0	0	1	4	4
53	25.809	0.243809	0	0	0	0	1	4	4
49	26.2095	0.272833	0	0	0	0	1	4	4
51	26.5056	0.110296	0	0	0	0	1	4	4
53	27.6492	0.0986843	0	0	0	0	1	4	4
55	27.8175	0.255421	0	0	0	0	1	4	4
57	28.0729	0.284443	0	0	0	0	1	4	4
58	28.7405	0.197371	0	0	0	0	1	4	4
