midiPitch 	 onsetSec 	 durationSec 	 onsetBeats 	 onsetBarIndex 	 onsetBar 	 durationBeats 	 velocity  	 numerator 	 denominator 
69	0.0406349	0.17415	0	0	0	0	1	4	4
67	0.255419	0.110295	0	0	0	0	1	4	4
64	0.650159	0.0232199	0	0	0	0	1	4	4
64	0.690794	0.17415	0	0	0	0	1	4	4
67	0.893968	0.0522449	0	0	0	0	1	4	4
67	0.946213	0.0406349	0	0	0	0	1	4	4
68	1.0449	0.0232199	0	0	0	0	1	4	4
68	1.07392	0.0232199	0	0	0	0	1	4	4
68	1.10875	0.0232199	0	0	0	0	1	4	4
65	1.26549	0.10449	0	0	0	0	1	4	4
65	1.37578	0.0754648	0	0	0	0	1	4	4
65	1.46286	0.0812699	0	0	0	0	1	4	4
70	1.69506	0.0464399	0	0	0	0	1	4	4
69	1.77633	0.0232199	0	0	0	0	1	4	4
67	1.92726	0.0348299	0	0	0	0	1	4	4
65	1.96209	0.03483	0	0	0	0	1	4	4
65	2.0898	0.0638549	0	0	0	0	1	4	4
68	2.2059	0.0986848	0	0	0	0	1	4	4
68	2.35102	0.1161	0	0	0	0	1	4	4
64	2.66449	0.0348299	0	0	0	0	1	4	4
65	2.71673	0.0638549	0	0	0	0	1	4	4
64	3.24499	0.0406349	0	0	0	0	1	4	4
64	3.39592	0.1161	0	0	0	0	1	4	4
65	3.54685	0.0580499	0	0	0	0	1	4	4
65	3.6049	0.0754647	0	0	0	0	1	4	4
67	3.721	0.0580499	0	0	0	0	1	4	4
67	3.77905	0.087075	0	0	0	0	1	4	4
67	3.97061	0.0348299	0	0	0	0	1	4	4
64	4.00544	0.0290251	0	0	0	0	1	4	4
66	4.27247	0.0348301	0	0	0	0	1	4	4
67	4.31311	0.0406351	0	0	0	0	1	4	4
68	4.40018	0.0464401	0	0	0	0	1	4	4
68	4.70785	0.110295	0	0	0	0	1	4	4
66	4.93424	0.0406346	0	0	0	0	1	4	4
71	5.06776	0.0290246	0	0	0	0	1	4	4
68	5.09678	0.0754652	0	0	0	0	1	4	4
68	5.17225	0.0348296	0	0	0	0	1	4	4
68	5.20707	0.0232201	0	0	0	0	1	4	4
68	5.77596	0.0928798	0	0	0	0	1	4	4
64	5.97333	0.0290246	0	0	0	0	1	4	4
68	6.02558	0.0290251	0	0	0	0	1	4	4
63	6.21134	0.0696602	0	0	0	0	1	4	4
69	6.33905	0.0348301	0	0	0	0	1	4	4
68	6.57125	0.0348301	0	0	0	0	1	4	4
68	6.61188	0.0232201	0	0	0	0	1	4	4
68	6.64091	0.0348301	0	0	0	0	1	4	4
68	6.87311	0.0638547	0	0	0	0	1	4	4
69	7.18077	0.0464396	0	0	0	0	1	4	4
69	7.22721	0.0870752	0	0	0	0	1	4	4
68	7.33751	0.17415	0	0	0	0	1	4	4
70	7.65097	0.0232201	0	0	0	0	1	4	4
69	7.70322	0.0696597	0	0	0	0	1	4	4
69	7.77288	0.0870748	0	0	0	0	1	4	4
66	8.30694	0.0812702	0	0	0	0	1	4	4
66	9.35184	0.0928802	0	0	0	0	1	4	4
79	9.6595	0.0290251	0	0	0	0	1	4	4
80	9.72916	0.0290241	0	0	0	0	1	4	4
79	9.7756	0.0406351	0	0	0	0	1	4	4
78	9.84526	0.0348301	0	0	0	0	1	4	4
77	9.94394	0.0290251	0	0	0	0	1	4	4
78	9.97878	0.0406351	0	0	0	0	1	4	4
78	10.0542	0.0232201	0	0	0	0	1	4	4
78	10.0891	0.0406351	0	0	0	0	1	4	4
78	10.1587	0.0348301	0	0	0	0	1	4	4
77	10.1994	0.0812702	0	0	0	0	1	4	4
74	10.3445	0.17415	0	0	0	0	1	4	4
75	10.5186	0.0348301	0	0	0	0	1	4	4
76	10.6173	0.0232201	0	0	0	0	1	4	4
75	10.8379	0.0290251	0	0	0	0	1	4	4
76	11.134	0.0290251	0	0	0	0	1	4	4
77	11.2907	0.0464401	0	0	0	0	1	4	4
77	11.3894	0.0232201	0	0	0	0	1	4	4
75	11.6738	0.133514	0	0	0	0	1	4	4
75	11.848	0.0406351	0	0	0	0	1	4	4
75	11.8944	0.0696602	0	0	0	0	1	4	4
76	12.0395	0.0406351	0	0	0	0	1	4	4
75	12.1556	0.0348301	0	0	0	0	1	4	4
79	12.2834	0.0348301	0	0	0	0	1	4	4
79	12.3646	0.0290251	0	0	0	0	1	4	4
77	12.6026	0.267029	0	0	0	0	1	4	4
78	13.6649	0.0232201	0	0	0	0	1	4	4
78	13.694	0.0348301	0	0	0	0	1	4	4
78	13.7346	0.0406351	0	0	0	0	1	4	4
82	13.9842	0.0464401	0	0	0	0	1	4	4
82	14.0307	0.0522442	0	0	0	0	1	4	4
81	14.2106	0.0638542	0	0	0	0	1	4	4
76	14.3267	0.0464401	0	0	0	0	1	4	4
77	14.3732	0.0348301	0	0	0	0	1	4	4
79	14.9827	0.0406351	0	0	0	0	1	4	4
79	15.0291	0.0290251	0	0	0	0	1	4	4
79	15.0581	0.0638542	0	0	0	0	1	4	4
78	15.1336	0.0348301	0	0	0	0	1	4	4
78	15.1684	0.0290251	0	0	0	0	1	4	4
78	15.2033	0.0232201	0	0	0	0	1	4	4
78	15.2381	0.0290251	0	0	0	0	1	4	4
78	15.3019	0.0754652	0	0	0	0	1	4	4
77	15.4006	0.0232201	0	0	0	0	1	4	4
77	15.4297	0.0348301	0	0	0	0	1	4	4
77	15.5109	0.0232201	0	0	0	0	1	4	4
77	15.5458	0.0812702	0	0	0	0	1	4	4
74	15.6851	0.0928802	0	0	0	0	1	4	4
75	15.778	0.0464401	0	0	0	0	1	4	4
75	15.8244	0.0290251	0	0	0	0	1	4	4
77	15.8824	0.0232191	0	0	0	0	1	4	4
76	16.0044	0.10449	0	0	0	0	1	4	4
76	16.1959	0.0754662	0	0	0	0	1	4	4
77	16.2946	0.0406342	0	0	0	0	1	4	4
77	16.341	0.0986843	0	0	0	0	1	4	4
77	16.6139	0.1161	0	0	0	0	1	4	4
77	16.7358	0.0348301	0	0	0	0	1	4	4
65	16.7706	0.0928783	0	0	0	0	1	4	4
62	16.9738	0.0348301	0	0	0	0	1	4	4
62	17.0493	0.0290241	0	0	0	0	1	4	4
62	17.0841	0.0290241	0	0	0	0	1	4	4
63	17.1247	0.0580502	0	0	0	0	1	4	4
66	17.6065	0.139318	0	0	0	0	1	4	4
66	17.9316	0.0290241	0	0	0	0	1	4	4
66	17.9606	0.0232201	0	0	0	0	1	4	4
66	18.0535	0.0290241	0	0	0	0	1	4	4
77	18.0071	0.156734	0	0	0	0	1	4	4
77	18.1696	0.0464401	0	0	0	0	1	4	4
76	18.3438	0.029026	0	0	0	0	1	4	4
80	18.9765	0.0348301	0	0	0	0	1	4	4
67	19.1971	0.0522442	0	0	0	0	1	4	4
67	19.4293	0.0580502	0	0	0	0	1	4	4
67	19.5106	0.0290241	0	0	0	0	1	4	4
53	20.3813	0.0870743	0	0	0	0	1	4	4
53	20.4684	0.0522442	0	0	0	0	1	4	4
55	20.6948	0.0928802	0	0	0	0	1	4	4
69	21.3624	0.110294	0	0	0	0	1	4	4
68	21.4959	0.0348301	0	0	0	0	1	4	4
68	21.5365	0.0464401	0	0	0	0	1	4	4
68	21.5829	0.0348301	0	0	0	0	1	4	4
68	21.8906	0.0464401	0	0	0	0	1	4	4
67	22.0183	0.208979	0	0	0	0	1	4	4
69	22.3782	0.0580502	0	0	0	0	1	4	4
67	22.4943	0.0348301	0	0	0	0	1	4	4
68	22.8194	0.0928802	0	0	0	0	1	4	4
67	22.9994	0.0522442	0	0	0	0	1	4	4
65	23.1909	0.0696602	0	0	0	0	1	4	4
69	23.5392	0.0464401	0	0	0	0	1	4	4
66	23.6611	0.0696602	0	0	0	0	1	4	4
66	23.8585	0.0290241	0	0	0	0	1	4	4
63	25.0369	0.0348301	0	0	0	0	1	4	4
64	25.0776	0.0638542	0	0	0	0	1	4	4
65	25.2053	0.0232182	0	0	0	0	1	4	4
66	26.0005	0.0638542	0	0	0	0	1	4	4
65	26.0644	0.0348301	0	0	0	0	1	4	4
65	26.1805	0.0638542	0	0	0	0	1	4	4
66	26.5752	0.0348301	0	0	0	0	1	4	4
66	26.9874	0.0348301	0	0	0	0	1	4	4
64	27.0861	0.0406342	0	0	0	0	1	4	4
63	27.1848	0.0232201	0	0	0	0	1	4	4
66	27.2951	0.0870762	0	0	0	0	1	4	4
66	27.4982	0.0638561	0	0	0	0	1	4	4
68	27.9917	0.0290241	0	0	0	0	1	4	4
67	28.0207	0.0348301	0	0	0	0	1	4	4
64	28.4328	0.0348301	0	0	0	0	1	4	4
64	28.4851	0.0638542	0	0	0	0	1	4	4
68	29.2165	0.179955	0	0	0	0	1	4	4
