midiPitch 	 onsetSec 	 durationSec 	 onsetBeats 	 onsetBarIndex 	 onsetBar 	 durationBeats 	 velocity  	 numerator 	 denominator 
57	0.510839	0.145125	0	0	4.34411e-035	0	1	4	4
57	0.946213	0.029025	0	0	4.34411e-035	0	1	4	4
57	1.02168	0.029025	0	0	4.34411e-035	0	1	4	4
57	1.05651	0.0348299	0	0	4.34411e-035	0	1	4	4
57	1.10295	0.0464399	0	0	4.34411e-035	0	1	4	4
57	1.14939	0.03483	0	0	4.34411e-035	0	1	4	4
57	1.399	0.0870749	0	0	4.34411e-035	0	1	4	4
57	1.48608	0.03483	0	0	4.34411e-035	0	1	4	4
57	1.52091	0.0406349	0	0	4.34411e-035	0	1	4	4
57	1.59637	0.0464399	0	0	4.34411e-035	0	1	4	4
57	1.89243	0.0232199	0	0	4.34411e-035	0	1	4	4
55	1.96209	0.040635	0	0	4.34411e-035	0	1	4	4
56	2.00853	0.0580499	0	0	4.34411e-035	0	1	4	4
57	2.06658	0.0232198	0	0	4.34411e-035	0	1	4	4
57	2.24073	0.13932	0	0	4.34411e-035	0	1	4	4
55	2.51937	0.0232198	0	0	4.34411e-035	0	1	4	4
52	2.78639	0.359909	0	0	4.34411e-035	0	1	4	4
65	3.53524	0.0812697	0	0	4.34411e-035	0	1	4	4
60	3.67456	0.0348301	0	0	4.34411e-035	0	1	4	4
57	3.70939	0.0232198	0	0	4.34411e-035	0	1	4	4
64	3.87773	0.0406351	0	0	4.34411e-035	0	1	4	4
64	3.93578	0.0232201	0	0	4.34411e-035	0	1	4	4
61	3.96481	0.0348299	0	0	4.34411e-035	0	1	4	4
64	4.00544	0.19737	0	0	4.34411e-035	0	1	4	4
65	4.41179	0.0406351	0	0	4.34411e-035	0	1	4	4
65	4.58014	0.0986848	0	0	4.34411e-035	0	1	4	4
64	4.82975	0.249614	0	0	4.34411e-035	0	1	4	4
62	5.20707	0.0290251	0	0	4.34411e-035	0	1	4	4
62	5.25932	0.0290246	0	0	4.34411e-035	0	1	4	4
63	5.32898	0.203175	0	0	4.34411e-035	0	1	4	4
63	5.55537	0.0522447	0	0	4.34411e-035	0	1	4	4
51	5.59601	0.145125	0	0	4.34411e-035	0	1	4	4
58	5.74113	0.0696597	0	0	4.34411e-035	0	1	4	4
55	5.95011	0.1161	0	0	4.34411e-035	0	1	4	4
64	6.2868	0.0290246	0	0	4.34411e-035	0	1	4	4
66	6.33905	0.15093	0	0	4.34411e-035	0	1	4	4
64	6.72218	0.16254	0	0	4.34411e-035	0	1	4	4
64	6.88472	0.0580497	0	0	4.34411e-035	0	1	4	4
64	6.94277	0.156735	0	0	4.34411e-035	0	1	4	4
64	7.0995	0.284444	0	0	4.34411e-035	0	1	4	4
66	7.38395	0.156734	0	0	4.34411e-035	0	1	4	4
64	7.67419	0.0928798	0	0	4.34411e-035	0	1	4	4
63	7.76707	0.0348301	0	0	4.34411e-035	0	1	4	4
64	7.87156	0.0232201	0	0	4.34411e-035	0	1	4	4
64	7.92381	0.0522447	0	0	4.34411e-035	0	1	4	4
63	7.97605	0.0232201	0	0	4.34411e-035	0	1	4	4
66	8.00508	0.214785	0	0	4.34411e-035	0	1	4	4
65	8.45787	0.0290251	0	0	4.34411e-035	0	1	4	4
65	8.64363	0.0986843	0	0	4.34411e-035	0	1	4	4
62	8.74231	0.0348301	0	0	4.34411e-035	0	1	4	4
62	8.841	0.0290251	0	0	4.34411e-035	0	1	4	4
64	8.9629	0.0580502	0	0	4.34411e-035	0	1	4	4
67	9.03837	0.0290251	0	0	4.34411e-035	0	1	4	4
66	9.079	0.0580492	0	0	4.34411e-035	0	1	4	4
62	9.40408	0.0696602	0	0	4.34411e-035	0	1	4	4
65	9.60145	0.0406351	0	0	4.34411e-035	0	1	4	4
64	9.67692	0.0638542	0	0	4.34411e-035	0	1	4	4
62	9.74077	0.0812702	0	0	4.34411e-035	0	1	4	4
66	10.1065	0.139319	0	0	4.34411e-035	0	1	4	4
64	10.3445	0.0986843	0	0	4.34411e-035	0	1	4	4
64	10.449	0.0696602	0	0	4.34411e-035	0	1	4	4
64	10.5883	0.0754652	0	0	4.34411e-035	0	1	4	4
63	10.8031	0.0986853	0	0	4.34411e-035	0	1	4	4
65	11.4939	0.272835	0	0	4.34411e-035	0	1	4	4
65	12.3124	0.0580502	0	0	4.34411e-035	0	1	4	4
67	12.3878	0.104489	0	0	4.34411e-035	0	1	4	4
65	12.5678	0.0348301	0	0	4.34411e-035	0	1	4	4
65	12.6084	0.0580502	0	0	4.34411e-035	0	1	4	4
63	12.6665	0.0348301	0	0	4.34411e-035	0	1	4	4
63	12.7071	0.0812702	0	0	4.34411e-035	0	1	4	4
65	13.1947	0.0348291	0	0	4.34411e-035	0	1	4	4
66	13.2354	0.0580502	0	0	4.34411e-035	0	1	4	4
66	13.2934	0.1161	0	0	4.34411e-035	0	1	4	4
66	13.5488	0.0290251	0	0	4.34411e-035	0	1	4	4
66	13.5837	0.0638542	0	0	4.34411e-035	0	1	4	4
65	13.8797	0.0232201	0	0	4.34411e-035	0	1	4	4
64	13.9262	0.0870752	0	0	4.34411e-035	0	1	4	4
64	14.141	0.0522451	0	0	4.34411e-035	0	1	4	4
63	14.2164	0.203175	0	0	4.34411e-035	0	1	4	4
63	14.4196	0.0928793	0	0	4.34411e-035	0	1	4	4
64	15.9637	0.145124	0	0	4.34411e-035	0	1	4	4
62	16.3527	0.179955	0	0	4.34411e-035	0	1	4	4
66	16.759	0.0464401	0	0	4.34411e-035	0	1	4	4
66	16.8054	0.116098	0	0	4.34411e-035	0	1	4	4
64	17.0493	0.12771	0	0	4.34411e-035	0	1	4	4
65	17.4092	0.226395	0	0	4.34411e-035	0	1	4	4
60	17.6356	0.1161	0	0	4.34411e-035	0	1	4	4
62	18.0593	0.0406361	0	0	4.34411e-035	0	1	4	4
61	18.1348	0.110294	0	0	4.34411e-035	0	1	4	4
65	18.4657	0.0232201	0	0	4.34411e-035	0	1	4	4
65	18.8198	0.029026	0	0	4.34411e-035	0	1	4	4
64	18.8778	0.0290241	0	0	4.34411e-035	0	1	4	4
63	18.9243	0.0290241	0	0	4.34411e-035	0	1	4	4
63	18.9591	0.0406342	0	0	4.34411e-035	0	1	4	4
63	19.0113	0.15093	0	0	4.34411e-035	0	1	4	4
62	19.1623	0.174149	0	0	4.34411e-035	0	1	4	4
61	19.3364	0.191565	0	0	4.34411e-035	0	1	4	4
63	19.8356	0.0986843	0	0	4.34411e-035	0	1	4	4
63	19.9343	0.0232201	0	0	4.34411e-035	0	1	4	4
60	20.7877	0.0464401	0	0	4.34411e-035	0	1	4	4
57	21.0547	0.029026	0	0	4.34411e-035	0	1	4	4
64	21.5713	0.0406361	0	0	4.34411e-035	0	1	4	4
64	21.6178	0.0928802	0	0	4.34411e-035	0	1	4	4
60	21.7107	0.1161	0	0	4.34411e-035	0	1	4	4
60	21.85	0.0464401	0	0	4.34411e-035	0	1	4	4
61	23.0052	0.0232201	0	0	4.34411e-035	0	1	4	4
62	23.0342	0.110294	0	0	4.34411e-035	0	1	4	4
64	23.3012	0.0928802	0	0	4.34411e-035	0	1	4	4
62	23.4463	0.029026	0	0	4.34411e-035	0	1	4	4
62	23.4754	0.0290241	0	0	4.34411e-035	0	1	4	4
64	23.545	0.255419	0	0	4.34411e-035	0	1	4	4
64	24.0907	0.0348301	0	0	4.34411e-035	0	1	4	4
65	24.2184	0.0290241	0	0	4.34411e-035	0	1	4	4
64	24.3984	0.0580502	0	0	4.34411e-035	0	1	4	4
64	24.6015	0.214785	0	0	4.34411e-035	0	1	4	4
62	24.944	0.0348301	0	0	4.34411e-035	0	1	4	4
63	25.0427	0.110294	0	0	4.34411e-035	0	1	4	4
66	25.4897	0.0580502	0	0	4.34411e-035	0	1	4	4
64	25.6	0.104488	0	0	4.34411e-035	0	1	4	4
64	25.7277	0.17415	0	0	4.34411e-035	0	1	4	4
64	26.0702	0.0464401	0	0	4.34411e-035	0	1	4	4
62	26.1166	0.284445	0	0	4.34411e-035	0	1	4	4
65	26.6681	0.0232201	0	0	4.34411e-035	0	1	4	4
65	26.6971	0.0986862	0	0	4.34411e-035	0	1	4	4
62	26.8713	0.0638542	0	0	4.34411e-035	0	1	4	4
64	27.0512	0.0348301	0	0	4.34411e-035	0	1	4	4
64	27.1673	0.0580502	0	0	4.34411e-035	0	1	4	4
63	27.5273	0.0406342	0	0	4.34411e-035	0	1	4	4
64	27.5737	0.0928802	0	0	4.34411e-035	0	1	4	4
64	28.0323	0.16254	0	0	4.34411e-035	0	1	4	4
63	28.1948	0.0232201	0	0	4.34411e-035	0	1	4	4
68	28.5722	0.145124	0	0	4.34411e-035	0	1	4	4
65	28.9959	0.0696602	0	0	4.34411e-035	0	1	4	4
63	29.0656	0.0290241	0	0	4.34411e-035	0	1	4	4
64	29.0946	0.255419	0	0	4.34411e-035	0	1	4	4
63	29.35	0.029026	0	0	4.34411e-035	0	1	4	4
