midiPitch 	 onsetSec 	 durationSec 	 onsetBeats 	 onsetBarIndex 	 onsetBar 	 durationBeats 	 velocity  	 numerator 	 denominator 
65	0.313469	0.0406349	0	0	0	0	1	4	4
65	0.446984	0.0406349	0	0	0	0	1	4	4
64	0.725624	0.02322	0	0	0	0	1	4	4
65	0.754649	0.0464399	0	0	0	0	1	4	4
72	0.847528	0.0232199	0	0	0	0	1	4	4
65	0.882358	0.0986848	0	0	0	0	1	4	4
65	1.36417	0.0406349	0	0	0	0	1	4	4
65	1.59637	0.0232199	0	0	0	0	1	4	4
65	1.83438	0.0812699	0	0	0	0	1	4	4
65	1.95628	0.0522449	0	0	0	0	1	4	4
65	2.15946	0.0406349	0	0	0	0	1	4	4
65	2.24653	0.075465	0	0	0	0	1	4	4
65	2.41488	0.0290248	0	0	0	0	1	4	4
64	2.49615	0.0290251	0	0	0	0	1	4	4
65	2.57161	0.0290248	0	0	0	0	1	4	4
65	2.6761	0.0290248	0	0	0	0	1	4	4
65	2.72834	0.0232198	0	0	0	0	1	4	4
65	3.18113	0.0754647	0	0	0	0	1	4	4
65	3.64553	0.0870748	0	0	0	0	1	4	4
65	3.77905	0.0290251	0	0	0	0	1	4	4
65	4.12735	0.0580497	0	0	0	0	1	4	4
65	4.34794	0.0696597	0	0	0	0	1	4	4
65	4.4176	0.0290251	0	0	0	0	1	4	4
65	4.60336	0.0638547	0	0	0	0	1	4	4
65	4.72526	0.0232201	0	0	0	0	1	4	4
62	4.85297	0.0232196	0	0	0	0	1	4	4
65	4.92844	0.0464396	0	0	0	0	1	4	4
66	5.02132	0.0290251	0	0	0	0	1	4	4
65	5.05615	0.0290246	0	0	0	0	1	4	4
65	5.09097	0.0232201	0	0	0	0	1	4	4
65	5.11419	0.0290251	0	0	0	0	1	4	4
65	5.62503	0.0580502	0	0	0	0	1	4	4
65	5.94431	0.0290251	0	0	0	0	1	4	4
65	6.15909	0.0638547	0	0	0	0	1	4	4
65	6.36807	0.0348301	0	0	0	0	1	4	4
66	6.4029	0.0232196	0	0	0	0	1	4	4
65	6.48417	0.0348296	0	0	0	0	1	4	4
65	6.52481	0.0348301	0	0	0	0	1	4	4
65	6.7454	0.0232201	0	0	0	0	1	4	4
65	6.77442	0.0290251	0	0	0	0	1	4	4
62	7.12853	0.0348301	0	0	0	0	1	4	4
71	7.30848	0.0522447	0	0	0	0	1	4	4
62	7.36073	0.0232201	0	0	0	0	1	4	4
69	7.39556	0.0290251	0	0	0	0	1	4	4
68	7.4478	0.0290251	0	0	0	0	1	4	4
68	7.73224	0.17415	0	0	0	0	1	4	4
70	8.18503	0.0232201	0	0	0	0	1	4	4
72	8.23147	0.0406351	0	0	0	0	1	4	4
69	8.30113	0.0290241	0	0	0	0	1	4	4
78	8.39982	0.0986853	0	0	0	0	1	4	4
66	8.82939	0.330884	0	0	0	0	1	4	4
70	9.16027	0.284445	0	0	0	0	1	4	4
67	9.70594	0.121904	0	0	0	0	1	4	4
69	9.82785	0.0812702	0	0	0	0	1	4	4
70	10.1355	0.121904	0	0	0	0	1	4	4
67	10.3561	0.0522451	0	0	0	0	1	4	4
65	10.4083	0.0696602	0	0	0	0	1	4	4
64	10.478	0.0232201	0	0	0	0	1	4	4
72	10.5767	0.0406351	0	0	0	0	1	4	4
65	10.9656	0.0464392	0	0	0	0	1	4	4
73	11.1282	0.0290251	0	0	0	0	1	4	4
65	11.1572	0.0290241	0	0	0	0	1	4	4
69	11.2443	0.0638552	0	0	0	0	1	4	4
69	11.6738	0.0348301	0	0	0	0	1	4	4
69	11.7145	0.0290251	0	0	0	0	1	4	4
67	11.7435	0.0232201	0	0	0	0	1	4	4
70	12.0395	0.0696602	0	0	0	0	1	4	4
65	12.2834	0.0986853	0	0	0	0	1	4	4
64	12.382	0.0406342	0	0	0	0	1	4	4
66	12.5156	0.0348301	0	0	0	0	1	4	4
66	12.5678	0.0754642	0	0	0	0	1	4	4
67	12.6839	0.0580502	0	0	0	0	1	4	4
65	13.038	0.0232201	0	0	0	0	1	4	4
69	13.0786	0.0348301	0	0	0	0	1	4	4
69	13.543	0.0290251	0	0	0	0	1	4	4
64	13.8275	0.150929	0	0	0	0	1	4	4
66	13.9958	0.0580492	0	0	0	0	1	4	4
66	14.0655	0.365715	0	0	0	0	1	4	4
69	15.0059	0.0464401	0	0	0	0	1	4	4
67	15.0523	0.0348291	0	0	0	0	1	4	4
65	15.1278	0.0580502	0	0	0	0	1	4	4
67	15.418	0.0406351	0	0	0	0	1	4	4
67	15.4587	0.0290241	0	0	0	0	1	4	4
66	15.6038	0.110294	0	0	0	0	1	4	4
68	15.8941	0.0290251	0	0	0	0	1	4	4
66	16.0218	0.133514	0	0	0	0	1	4	4
65	16.3817	0.0232201	0	0	0	0	1	4	4
66	16.579	0.0290241	0	0	0	0	1	4	4
65	16.6081	0.0290241	0	0	0	0	1	4	4
67	16.9157	0.139318	0	0	0	0	1	4	4
67	17.0551	0.0406361	0	0	0	0	1	4	4
66	17.1479	0.156734	0	0	0	0	1	4	4
68	17.3105	0.0406342	0	0	0	0	1	4	4
68	17.3743	0.0232201	0	0	0	0	1	4	4
66	17.4614	0.0986862	0	0	0	0	1	4	4
68	17.8039	0.0464401	0	0	0	0	1	4	4
67	18.0477	0.029026	0	0	0	0	1	4	4
66	18.129	0.0232201	0	0	0	0	1	4	4
65	18.1522	0.0232201	0	0	0	0	1	4	4
62	18.2335	0.0696602	0	0	0	0	1	4	4
70	18.7849	0.0638561	0	0	0	0	1	4	4
68	18.8836	0.029026	0	0	0	0	1	4	4
66	19.052	0.0406342	0	0	0	0	1	4	4
67	19.0984	0.13932	0	0	0	0	1	4	4
67	19.2784	0.121906	0	0	0	0	1	4	4
66	19.4235	0.208979	0	0	0	0	1	4	4
65	19.6325	0.0348301	0	0	0	0	1	4	4
66	19.7312	0.261225	0	0	0	0	1	4	4
67	20.1375	0.0580502	0	0	0	0	1	4	4
67	20.1956	0.0464401	0	0	0	0	1	4	4
66	20.2826	0.0812683	0	0	0	0	1	4	4
65	20.3813	0.0696602	0	0	0	0	1	4	4
65	20.451	0.0232201	0	0	0	0	1	4	4
64	20.4858	0.0348282	0	0	0	0	1	4	4
66	20.5497	0.168344	0	0	0	0	1	4	4
68	20.747	0.029026	0	0	0	0	1	4	4
67	20.7877	0.0232201	0	0	0	0	1	4	4
66	21.136	0.0580502	0	0	0	0	1	4	4
65	21.2056	0.0406342	0	0	0	0	1	4	4
65	21.2753	0.0406342	0	0	0	0	1	4	4
65	21.7049	0.0464382	0	0	0	0	1	4	4
65	21.7745	0.0406361	0	0	0	0	1	4	4
67	22.1402	0.0754642	0	0	0	0	1	4	4
66	22.2215	0.0348301	0	0	0	0	1	4	4
66	22.2679	0.0348301	0	0	0	0	1	4	4
65	22.5814	0.0348301	0	0	0	0	1	4	4
69	22.6569	0.0464401	0	0	0	0	1	4	4
68	22.7033	0.0406361	0	0	0	0	1	4	4
67	22.773	0.0348301	0	0	0	0	1	4	4
66	22.8775	0.145124	0	0	0	0	1	4	4
65	23.0342	0.0290241	0	0	0	0	1	4	4
68	23.5973	0.0464401	0	0	0	0	1	4	4
68	23.6437	0.10449	0	0	0	0	1	4	4
65	23.7482	0.0348282	0	0	0	0	1	4	4
72	24.4158	0.133516	0	0	0	0	1	4	4
68	24.6015	0.0464401	0	0	0	0	1	4	4
68	24.648	0.0290241	0	0	0	0	1	4	4
67	24.6886	0.0406361	0	0	0	0	1	4	4
65	24.7293	0.0232201	0	0	0	0	1	4	4
