midiPitch 	 onsetSec 	 durationSec 	 onsetBeats 	 onsetBarIndex 	 onsetBar 	 durationBeats 	 velocity  	 numerator 	 denominator 
77	0.191565	0.278639	0	0	0	0	1	4	4
77	0.499229	0.0812699	0	0	0	0	1	4	4
77	0.609524	0.0522449	0	0	0	0	1	4	4
77	0.853333	0.0986848	0	0	0	0	1	4	4
77	0.952018	0.0348299	0	0	0	0	1	4	4
77	1.24807	0.12771	0	0	0	0	1	4	4
77	1.37578	0.0232199	0	0	0	0	1	4	4
75	1.43964	0.16254	0	0	0	0	1	4	4
77	1.82857	0.110295	0	0	0	0	1	4	4
77	1.93887	0.19737	0	0	0	0	1	4	4
85	2.85605	0.0464399	0	0	0	0	1	4	4
59	2.87347	0.0580499	0	0	0	0	1	4	4
60	2.93152	0.0870748	0	0	0	0	1	4	4
61	3.07084	0.133515	0	0	0	0	1	4	4
63	3.22177	0.179955	0	0	0	0	1	4	4
65	3.48299	0.16254	0	0	0	0	1	4	4
65	3.8371	0.0290251	0	0	0	0	1	4	4
65	3.87193	0.249615	0	0	0	0	1	4	4
63	4.38857	0.0928798	0	0	0	0	1	4	4
63	4.75429	0.168344	0	0	0	0	1	4	4
58	6.09524	0.10449	0	0	0	0	1	4	4
59	6.19973	0.0406346	0	0	0	0	1	4	4
60	6.24617	0.789478	0	0	0	0	1	4	4
60	7.03565	0.1161	0	0	0	0	1	4	4
60	7.15175	0.0986848	0	0	0	0	1	4	4
60	7.43619	0.203175	0	0	0	0	1	4	4
61	9.28218	0.203175	0	0	0	0	1	4	4
58	9.71755	0.203175	0	0	0	0	1	4	4
58	9.92073	0.0232191	0	0	0	0	1	4	4
59	10.2052	0.307665	0	0	0	0	1	4	4
65	10.896	0.0754642	0	0	0	0	1	4	4
56	11.639	0.0406351	0	0	0	0	1	4	4
58	11.7435	0.104489	0	0	0	0	1	4	4
58	11.848	0.0406351	0	0	0	0	1	4	4
58	12.4459	0.145125	0	0	0	0	1	4	4
61	13.5082	0.0290251	0	0	0	0	1	4	4
58	14.1642	0.127709	0	0	0	0	1	4	4
53	14.437	0.0870743	0	0	0	0	1	4	4
68	14.855	0.110294	0	0	0	0	1	4	4
56	15.0407	0.104489	0	0	0	0	1	4	4
65	15.6154	0.0986843	0	0	0	0	1	4	4
53	15.7141	0.0754652	0	0	0	0	1	4	4
63	15.807	0.121904	0	0	0	0	1	4	4
63	15.9289	0.13932	0	0	0	0	1	4	4
59	16.1785	0.296055	0	0	0	0	1	4	4
65	16.7474	0.0812683	0	0	0	0	1	4	4
60	16.9796	0.0406342	0	0	0	0	1	4	4
59	17.1595	0.359909	0	0	0	0	1	4	4
59	17.5195	0.0870762	0	0	0	0	1	4	4
57	17.7865	0.0522442	0	0	0	0	1	4	4
63	17.8213	0.0986843	0	0	0	0	1	4	4
53	18.0071	0.267029	0	0	0	0	1	4	4
71	18.6921	0.0638561	0	0	0	0	1	4	4
60	18.843	0.16254	0	0	0	0	1	4	4
58	19.0288	0.121904	0	0	0	0	1	4	4
60	19.1507	0.0522442	0	0	0	0	1	4	4
60	19.2319	0.690792	0	0	0	0	1	4	4
60	19.9227	0.0754662	0	0	0	0	1	4	4
60	20.0562	0.377323	0	0	0	0	1	4	4
60	20.4336	0.13932	0	0	0	0	1	4	4
65	20.8283	0.029026	0	0	0	0	1	4	4
58	21.5365	0.0928802	0	0	0	0	1	4	4
65	21.6526	0.0406361	0	0	0	0	1	4	4
70	21.9371	0.0870743	0	0	0	0	1	4	4
58	22.0996	0.150928	0	0	0	0	1	4	4
58	22.2912	0.156734	0	0	0	0	1	4	4
59	22.6685	0.17415	0	0	0	0	1	4	4
57	22.9123	0.0348301	0	0	0	0	1	4	4
57	22.9471	0.0348282	0	0	0	0	1	4	4
59	23.1213	0.110294	0	0	0	0	1	4	4
58	23.2316	0.0522461	0	0	0	0	1	4	4
57	23.4231	0.0348301	0	0	0	0	1	4	4
58	23.5683	0.0696583	0	0	0	0	1	4	4
58	23.696	0.0522461	0	0	0	0	1	4	4
58	23.8991	0.17415	0	0	0	0	1	4	4
56	24.7699	0.0754642	0	0	0	0	1	4	4
58	24.857	0.232201	0	0	0	0	1	4	4
56	25.1356	0.133514	0	0	0	0	1	4	4
58	25.2923	0.336689	0	0	0	0	1	4	4
53	26.6971	0.0522461	0	0	0	0	1	4	4
54	27.179	0.0928783	0	0	0	0	1	4	4
53	27.2718	0.0580502	0	0	0	0	1	4	4
53	27.4808	0.255419	0	0	0	0	1	4	4
53	27.7362	0.0232201	0	0	0	0	1	4	4
53	27.8639	0.145124	0	0	0	0	1	4	4
52	28.0091	0.029026	0	0	0	0	1	4	4
