midiPitch 	 onsetSec 	 durationSec 	 onsetBeats 	 onsetBarIndex 	 onsetBar 	 durationBeats 	 velocity  	 numerator 	 denominator 
57	0.429569	0.0290249	0	0	3.1593e-035	0	1	4	4
58	0.510839	0.0580499	0	0	3.1593e-035	0	1	4	4
58	0.568889	0.0232199	0	0	3.1593e-035	0	1	4	4
58	0.592109	0.029025	0	0	3.1593e-035	0	1	4	4
61	0.806893	0.110295	0	0	3.1593e-035	0	1	4	4
58	0.922993	0.16254	0	0	3.1593e-035	0	1	4	4
58	1.08553	0.0348299	0	0	3.1593e-035	0	1	4	4
58	1.14939	0.0464399	0	0	3.1593e-035	0	1	4	4
58	1.20163	0.0232199	0	0	3.1593e-035	0	1	4	4
58	1.23066	0.0580499	0	0	3.1593e-035	0	1	4	4
58	1.28871	0.0638548	0	0	3.1593e-035	0	1	4	4
59	1.44544	0.0348299	0	0	3.1593e-035	0	1	4	4
61	1.48608	0.0696598	0	0	3.1593e-035	0	1	4	4
57	1.72989	0.0696599	0	0	3.1593e-035	0	1	4	4
57	1.79955	0.0348299	0	0	3.1593e-035	0	1	4	4
58	1.83438	0.0580499	0	0	3.1593e-035	0	1	4	4
60	2.03755	0.0406349	0	0	3.1593e-035	0	1	4	4
61	2.08399	0.075465	0	0	3.1593e-035	0	1	4	4
58	2.41488	0.0348299	0	0	3.1593e-035	0	1	4	4
57	2.64127	0.0580499	0	0	3.1593e-035	0	1	4	4
61	2.76898	0.0406349	0	0	3.1593e-035	0	1	4	4
57	2.84444	0.0348301	0	0	3.1593e-035	0	1	4	4
57	2.91991	0.0638549	0	0	3.1593e-035	0	1	4	4
58	3.0244	0.0928798	0	0	3.1593e-035	0	1	4	4
60	3.25079	0.0290248	0	0	3.1593e-035	0	1	4	4
60	3.28562	0.0232198	0	0	3.1593e-035	0	1	4	4
60	3.31465	0.0638549	0	0	3.1593e-035	0	1	4	4
58	3.61651	0.0696599	0	0	3.1593e-035	0	1	4	4
58	3.68617	0.0464399	0	0	3.1593e-035	0	1	4	4
58	3.79646	0.1161	0	0	3.1593e-035	0	1	4	4
58	3.91256	0.0348299	0	0	3.1593e-035	0	1	4	4
59	4.08671	0.145125	0	0	3.1593e-035	0	1	4	4
59	4.54531	0.0928798	0	0	3.1593e-035	0	1	4	4
60	5.09097	0.0290251	0	0	3.1593e-035	0	1	4	4
58	5.16063	0.110295	0	0	3.1593e-035	0	1	4	4
58	5.27093	0.0290246	0	0	3.1593e-035	0	1	4	4
58	5.32317	0.0754647	0	0	3.1593e-035	0	1	4	4
58	5.41025	0.121905	0	0	3.1593e-035	0	1	4	4
60	5.61923	0.0812697	0	0	3.1593e-035	0	1	4	4
58	5.89206	0.0754647	0	0	3.1593e-035	0	1	4	4
57	5.96753	0.0348296	0	0	3.1593e-035	0	1	4	4
57	6.00816	0.0290251	0	0	3.1593e-035	0	1	4	4
58	6.06041	0.0812697	0	0	3.1593e-035	0	1	4	4
60	6.36807	0.0232201	0	0	3.1593e-035	0	1	4	4
58	6.47256	0.0290251	0	0	3.1593e-035	0	1	4	4
58	6.50159	0.0348296	0	0	3.1593e-035	0	1	4	4
58	6.53642	0.17415	0	0	3.1593e-035	0	1	4	4
59	6.71057	0.0580497	0	0	3.1593e-035	0	1	4	4
60	6.78603	0.0406346	0	0	3.1593e-035	0	1	4	4
58	6.88472	0.0406346	0	0	3.1593e-035	0	1	4	4
58	6.96018	0.0522451	0	0	3.1593e-035	0	1	4	4
58	7.01243	0.0522447	0	0	3.1593e-035	0	1	4	4
57	7.07048	0.0290251	0	0	3.1593e-035	0	1	4	4
57	7.0995	0.0290246	0	0	3.1593e-035	0	1	4	4
58	7.13433	0.0522451	0	0	3.1593e-035	0	1	4	4
60	7.43039	0.0232196	0	0	3.1593e-035	0	1	4	4
56	7.45361	0.0638552	0	0	3.1593e-035	0	1	4	4
60	7.55229	0.0348301	0	0	3.1593e-035	0	1	4	4
61	7.59873	0.10449	0	0	3.1593e-035	0	1	4	4
61	7.76127	0.0232201	0	0	3.1593e-035	0	1	4	4
61	7.83093	0.0290246	0	0	3.1593e-035	0	1	4	4
58	7.86576	0.0348301	0	0	3.1593e-035	0	1	4	4
58	7.99347	0.0348301	0	0	3.1593e-035	0	1	4	4
58	8.46367	0.0754642	0	0	3.1593e-035	0	1	4	4
58	8.76553	0.0580502	0	0	3.1593e-035	0	1	4	4
58	8.89905	0.0232191	0	0	3.1593e-035	0	1	4	4
59	8.92807	0.0348301	0	0	3.1593e-035	0	1	4	4
58	9.03837	0.0290251	0	0	3.1593e-035	0	1	4	4
58	9.08481	0.0406342	0	0	3.1593e-035	0	1	4	4
58	9.22413	0.19737	0	0	3.1593e-035	0	1	4	4
57	9.49696	0.0348291	0	0	3.1593e-035	0	1	4	4
57	9.6537	0.0290251	0	0	3.1593e-035	0	1	4	4
59	9.79882	0.0348301	0	0	3.1593e-035	0	1	4	4
58	9.96716	0.0812702	0	0	3.1593e-035	0	1	4	4
57	10.0659	0.0464401	0	0	3.1593e-035	0	1	4	4
58	10.2168	0.139319	0	0	3.1593e-035	0	1	4	4
58	10.4606	0.0406351	0	0	3.1593e-035	0	1	4	4
58	10.5012	0.0290251	0	0	3.1593e-035	0	1	4	4
60	10.5651	0.0348301	0	0	3.1593e-035	0	1	4	4
59	10.5999	0.0464401	0	0	3.1593e-035	0	1	4	4
56	10.6812	0.0232201	0	0	3.1593e-035	0	1	4	4
58	10.7102	0.226395	0	0	3.1593e-035	0	1	4	4
60	11.0295	0.0232201	0	0	3.1593e-035	0	1	4	4
61	11.0933	0.0870743	0	0	3.1593e-035	0	1	4	4
60	11.6332	0.0290251	0	0	3.1593e-035	0	1	4	4
60	11.668	0.0232201	0	0	3.1593e-035	0	1	4	4
61	11.7493	0.0406342	0	0	3.1593e-035	0	1	4	4
60	12.2195	0.0348301	0	0	3.1593e-035	0	1	4	4
57	12.4807	0.0290251	0	0	3.1593e-035	0	1	4	4
61	12.5446	0.162539	0	0	3.1593e-035	0	1	4	4
61	12.7071	0.0406351	0	0	3.1593e-035	0	1	4	4
60	12.8929	0.0870752	0	0	3.1593e-035	0	1	4	4
59	13.7114	0.0464401	0	0	3.1593e-035	0	1	4	4
58	13.7578	0.0232201	0	0	3.1593e-035	0	1	4	4
58	14.2977	0.0638552	0	0	3.1593e-035	0	1	4	4
58	14.4312	0.0638542	0	0	3.1593e-035	0	1	4	4
60	14.6402	0.0812693	0	0	3.1593e-035	0	1	4	4
58	15.1452	0.0580502	0	0	3.1593e-035	0	1	4	4
61	15.3368	0.0348301	0	0	3.1593e-035	0	1	4	4
56	15.6735	0.0232191	0	0	3.1593e-035	0	1	4	4
57	15.7663	0.0522451	0	0	3.1593e-035	0	1	4	4
57	15.8186	0.0232201	0	0	3.1593e-035	0	1	4	4
58	15.8999	0.0232201	0	0	3.1593e-035	0	1	4	4
60	16.0798	0.0406342	0	0	3.1593e-035	0	1	4	4
60	16.1785	0.0348301	0	0	3.1593e-035	0	1	4	4
60	16.2133	0.0290241	0	0	3.1593e-035	0	1	4	4
61	16.2598	0.0754642	0	0	3.1593e-035	0	1	4	4
58	16.8229	0.0522442	0	0	3.1593e-035	0	1	4	4
57	16.9041	0.0232201	0	0	3.1593e-035	0	1	4	4
56	17.026	0.0290241	0	0	3.1593e-035	0	1	4	4
60	17.1073	0.0232201	0	0	3.1593e-035	0	1	4	4
59	17.2931	0.0232201	0	0	3.1593e-035	0	1	4	4
57	17.3279	0.0232201	0	0	3.1593e-035	0	1	4	4
59	17.5775	0.0986843	0	0	3.1593e-035	0	1	4	4
57	18.0245	0.0522442	0	0	3.1593e-035	0	1	4	4
57	18.158	0.0812702	0	0	3.1593e-035	0	1	4	4
61	18.5876	0.110294	0	0	3.1593e-035	0	1	4	4
59	19.3306	0.0696602	0	0	3.1593e-035	0	1	4	4
58	19.8124	0.0232201	0	0	3.1593e-035	0	1	4	4
57	19.8356	0.0232201	0	0	3.1593e-035	0	1	4	4
57	20.242	0.133514	0	0	3.1593e-035	0	1	4	4
57	20.4394	0.0870743	0	0	3.1593e-035	0	1	4	4
57	20.6367	0.0464401	0	0	3.1593e-035	0	1	4	4
58	20.6832	0.0464401	0	0	3.1593e-035	0	1	4	4
59	20.9154	0.029026	0	0	3.1593e-035	0	1	4	4
61	21.165	0.0348301	0	0	3.1593e-035	0	1	4	4
58	21.3566	0.029026	0	0	3.1593e-035	0	1	4	4
58	21.4785	0.0290241	0	0	3.1593e-035	0	1	4	4
57	21.6004	0.121904	0	0	3.1593e-035	0	1	4	4
58	21.7223	0.0232201	0	0	3.1593e-035	0	1	4	4
59	21.7745	0.0522461	0	0	3.1593e-035	0	1	4	4
56	21.8442	0.0638561	0	0	3.1593e-035	0	1	4	4
58	22.0299	0.0290241	0	0	3.1593e-035	0	1	4	4
57	22.088	0.0290241	0	0	3.1593e-035	0	1	4	4
58	22.1344	0.0290241	0	0	3.1593e-035	0	1	4	4
60	22.4073	0.0812702	0	0	3.1593e-035	0	1	4	4
61	22.4885	0.121904	0	0	3.1593e-035	0	1	4	4
58	22.8717	0.0928802	0	0	3.1593e-035	0	1	4	4
60	23.307	0.0290241	0	0	3.1593e-035	0	1	4	4
61	23.4463	0.0406361	0	0	3.1593e-035	0	1	4	4
61	23.5102	0.0986843	0	0	3.1593e-035	0	1	4	4
59	23.8991	0.0232201	0	0	3.1593e-035	0	1	4	4
58	23.9862	0.0580502	0	0	3.1593e-035	0	1	4	4
58	24.0443	0.0870762	0	0	3.1593e-035	0	1	4	4
60	24.1429	0.127708	0	0	3.1593e-035	0	1	4	4
57	24.7118	0.0232201	0	0	3.1593e-035	0	1	4	4
59	24.7641	0.0638542	0	0	3.1593e-035	0	1	4	4
60	24.857	0.0870762	0	0	3.1593e-035	0	1	4	4
58	25.1762	0.0638542	0	0	3.1593e-035	0	1	4	4
59	25.3446	0.0348301	0	0	3.1593e-035	0	1	4	4
60	25.3794	0.10449	0	0	3.1593e-035	0	1	4	4
58	25.6755	0.0638542	0	0	3.1593e-035	0	1	4	4
58	25.8438	0.0232201	0	0	3.1593e-035	0	1	4	4
58	25.8728	0.1161	0	0	3.1593e-035	0	1	4	4
62	26.1166	0.0290241	0	0	3.1593e-035	0	1	4	4
58	26.2734	0.0522442	0	0	3.1593e-035	0	1	4	4
58	26.3779	0.0348301	0	0	3.1593e-035	0	1	4	4
59	26.552	0.0348301	0	0	3.1593e-035	0	1	4	4
61	27.266	0.0232201	0	0	3.1593e-035	0	1	4	4
59	27.2893	0.0232201	0	0	3.1593e-035	0	1	4	4
62	27.3125	0.0232201	0	0	3.1593e-035	0	1	4	4
60	27.504	0.0348301	0	0	3.1593e-035	0	1	4	4
58	27.6782	0.0464401	0	0	3.1593e-035	0	1	4	4
58	27.7246	0.0812702	0	0	3.1593e-035	0	1	4	4
57	27.8059	0.0928802	0	0	3.1593e-035	0	1	4	4
58	27.8988	0.0580502	0	0	3.1593e-035	0	1	4	4
57	27.9568	0.0406342	0	0	3.1593e-035	0	1	4	4
60	28.1019	0.0406342	0	0	3.1593e-035	0	1	4	4
58	28.5547	0.0290241	0	0	3.1593e-035	0	1	4	4
60	28.9959	0.0870743	0	0	3.1593e-035	0	1	4	4
57	29.292	0.0754642	0	0	3.1593e-035	0	1	4	4
57	29.3674	0.0232201	0	0	3.1593e-035	0	1	4	4
58	29.3907	0.0290241	0	0	3.1593e-035	0	1	4	4
