midiPitch 	 onsetSec 	 durationSec 	 onsetBeats 	 onsetBarIndex 	 onsetBar 	 durationBeats 	 velocity  	 numerator 	 denominator 
67	0.156735	0.156735	0	0	0	0	1	4	4
67	0.313469	0.0406349	0	0	0	0	1	4	4
71	0.365714	0.0870748	0	0	0	0	1	4	4
67	0.493424	0.238005	0	0	0	0	1	4	4
67	0.731429	0.0522449	0	0	0	0	1	4	4
67	0.830113	0.17415	0	0	0	0	1	4	4
67	1.00426	0.029025	0	0	0	0	1	4	4
71	1.03909	0.110295	0	0	0	0	1	4	4
74	1.14939	0.145125	0	0	0	0	1	4	4
67	1.29451	0.16254	0	0	0	0	1	4	4
67	1.59637	0.226395	0	0	0	0	1	4	4
67	1.99692	0.110295	0	0	0	0	1	4	4
68	2.10721	0.0232198	0	0	0	0	1	4	4
71	2.13043	0.0986848	0	0	0	0	1	4	4
67	2.39746	0.133515	0	0	0	0	1	4	4
67	2.60063	0.075465	0	0	0	0	1	4	4
67	2.6761	0.0522449	0	0	0	0	1	4	4
66	2.72834	0.0638549	0	0	0	0	1	4	4
66	2.7922	0.17415	0	0	0	0	1	4	4
67	3.04181	0.0812697	0	0	0	0	1	4	4
67	3.12308	0.075465	0	0	0	0	1	4	4
66	3.19855	0.0232198	0	0	0	0	1	4	4
71	3.22177	0.0928798	0	0	0	0	1	4	4
67	3.50041	0.1161	0	0	0	0	1	4	4
67	3.76163	0.232199	0	0	0	0	1	4	4
67	4.15637	0.13932	0	0	0	0	1	4	4
71	4.33052	0.121905	0	0	0	0	1	4	4
74	4.55692	0.0232196	0	0	0	0	1	4	4
67	4.58014	0.12771	0	0	0	0	1	4	4
71	4.70785	0.121905	0	0	0	0	1	4	4
67	4.89361	0.0290251	0	0	0	0	1	4	4
62	5.12	0.0580497	0	0	0	0	1	4	4
67	5.17805	0.19737	0	0	0	0	1	4	4
71	5.40444	0.0232201	0	0	0	0	1	4	4
71	5.43347	0.0580497	0	0	0	0	1	4	4
67	5.65986	0.121905	0	0	0	0	1	4	4
67	5.9385	0.10449	0	0	0	0	1	4	4
67	6.1649	0.0348301	0	0	0	0	1	4	4
62	6.19973	0.127709	0	0	0	0	1	4	4
67	6.32744	0.12771	0	0	0	0	1	4	4
67	6.45515	0.0232201	0	0	0	0	1	4	4
71	6.49578	0.116099	0	0	0	0	1	4	4
67	6.73959	0.121905	0	0	0	0	1	4	4
67	7.01823	0.0464396	0	0	0	0	1	4	4
67	7.06467	0.226395	0	0	0	0	1	4	4
62	7.28526	0.0870748	0	0	0	0	1	4	4
67	7.38395	0.17415	0	0	0	0	1	4	4
67	7.79029	0.17415	0	0	0	0	1	4	4
67	7.96444	0.0232201	0	0	0	0	1	4	4
67	8.08054	0.0348291	0	0	0	0	1	4	4
67	8.12118	0.191565	0	0	0	0	1	4	4
67	8.31274	0.0580502	0	0	0	0	1	4	4
67	8.4927	0.127709	0	0	0	0	1	4	4
67	8.91646	0.10449	0	0	0	0	1	4	4
67	9.20091	0.31347	0	0	0	0	1	4	4
67	9.59565	0.12771	0	0	0	0	1	4	4
67	10.0136	0.0464401	0	0	0	0	1	4	4
67	10.2922	0.22059	0	0	0	0	1	4	4
64	10.8205	0.0232201	0	0	0	0	1	4	4
67	11.1049	0.191565	0	0	0	0	1	4	4
71	11.3662	0.255419	0	0	0	0	1	4	4
66	11.639	0.0754652	0	0	0	0	1	4	4
71	11.7609	0.133514	0	0	0	0	1	4	4
75	11.9293	0.116099	0	0	0	0	1	4	4
71	12.1847	0.0580492	0	0	0	0	1	4	4
71	12.4459	0.2322	0	0	0	0	1	4	4
71	12.6781	0.0406351	0	0	0	0	1	4	4
59	12.742	0.121904	0	0	0	0	1	4	4
71	12.8522	0.01161	0	0	0	0	1	4	4
59	12.742	0.127709	0	0	0	0	1	4	4
71	12.8522	0.017415	0	0	0	0	1	4	4
59	12.742	0.133514	0	0	0	0	1	4	4
71	12.8522	0.0232201	0	0	0	0	1	4	4
59	12.742	0.139319	0	0	0	0	1	4	4
71	12.8522	0.110295	0	0	0	0	1	4	4
71	12.9625	0.0290251	0	0	0	0	1	4	4
75	12.9974	0.116099	0	0	0	0	1	4	4
71	13.2644	0.133515	0	0	0	0	1	4	4
71	13.5372	0.20898	0	0	0	0	1	4	4
71	13.9436	0.121904	0	0	0	0	1	4	4
75	14.0829	0.145125	0	0	0	0	1	4	4
73	14.228	0.110294	0	0	0	0	1	4	4
71	14.3557	0.127709	0	0	0	0	1	4	4
71	14.3557	0.133514	0	0	0	0	1	4	4
61	14.4776	0.156735	0	0	0	0	1	4	4
71	14.6344	0.20898	0	0	0	0	1	4	4
71	15.0291	0.110294	0	0	0	0	1	4	4
75	15.1742	0.121904	0	0	0	0	1	4	4
71	15.4297	0.139319	0	0	0	0	1	4	4
71	15.7083	0.214785	0	0	0	0	1	4	4
71	16.1321	0.029026	0	0	0	0	1	4	4
75	16.2598	0.1161	0	0	0	0	1	4	4
71	16.521	0.0870743	0	0	0	0	1	4	4
71	16.8112	0.232199	0	0	0	0	1	4	4
70	17.0434	0.0232201	0	0	0	0	1	4	4
71	17.2118	0.0870743	0	0	0	0	1	4	4
71	17.2989	0.0522442	0	0	0	0	1	4	4
71	17.3511	0.0522461	0	0	0	0	1	4	4
71	17.6007	0.0986843	0	0	0	0	1	4	4
71	17.8794	0.203175	0	0	0	0	1	4	4
71	18.2857	0.0812702	0	0	0	0	1	4	4
71	18.367	0.0232201	0	0	0	0	1	4	4
75	18.4308	0.0290241	0	0	0	0	1	4	4
75	18.4657	0.0638561	0	0	0	0	1	4	4
71	18.6921	0.13932	0	0	0	0	1	4	4
71	18.9707	0.232199	0	0	0	0	1	4	4
71	19.3132	0.203175	0	0	0	0	1	4	4
75	19.5396	0.0986862	0	0	0	0	1	4	4
71	19.7776	0.133514	0	0	0	0	1	4	4
75	20.033	0.0290241	0	0	0	0	1	4	4
71	20.062	0.0638542	0	0	0	0	1	4	4
71	20.1259	0.16254	0	0	0	0	1	4	4
71	20.4626	0.0638542	0	0	0	0	1	4	4
75	20.6251	0.0754662	0	0	0	0	1	4	4
71	20.8631	0.0870743	0	0	0	0	1	4	4
75	21.0199	0.1161	0	0	0	0	1	4	4
71	21.136	0.133514	0	0	0	0	1	4	4
75	21.2637	0.0464401	0	0	0	0	1	4	4
71	21.5423	0.0580502	0	0	0	0	1	4	4
72	21.6874	0.0232201	0	0	0	0	1	4	4
75	21.7107	0.18576	0	0	0	0	1	4	4
71	21.9545	0.13932	0	0	0	0	1	4	4
75	22.1867	0.0348301	0	0	0	0	1	4	4
71	22.2215	0.203175	0	0	0	0	1	4	4
71	22.6278	0.0696602	0	0	0	0	1	4	4
75	22.6975	0.0754642	0	0	0	0	1	4	4
75	22.773	0.0232201	0	0	0	0	1	4	4
75	22.802	0.0928802	0	0	0	0	1	4	4
71	23.04	0.133514	0	0	0	0	1	4	4
71	23.3186	0.214785	0	0	0	0	1	4	4
73	23.6902	0.0522442	0	0	0	0	1	4	4
75	23.8701	0.127708	0	0	0	0	1	4	4
71	24.1197	0.116098	0	0	0	0	1	4	4
71	24.4042	0.121906	0	0	0	0	1	4	4
71	24.5261	0.0696602	0	0	0	0	1	4	4
71	24.8163	0.0696602	0	0	0	0	1	4	4
75	24.886	0.0696602	0	0	0	0	1	4	4
75	24.9731	0.110294	0	0	0	0	1	4	4
75	25.0834	0.12771	0	0	0	0	1	4	4
71	25.2111	0.133514	0	0	0	0	1	4	4
71	25.4839	0.243809	0	0	0	0	1	4	4
71	25.8612	0.121906	0	0	0	0	1	4	4
75	26.0644	0.16254	0	0	0	0	1	4	4
71	26.2908	0.10449	0	0	0	0	1	4	4
71	26.5752	0.1161	0	0	0	0	1	4	4
71	26.6913	0.0290241	0	0	0	0	1	4	4
71	26.7204	0.0348301	0	0	0	0	1	4	4
71	26.9874	0.0580502	0	0	0	0	1	4	4
75	27.1325	0.1161	0	0	0	0	1	4	4
71	27.3821	0.121904	0	0	0	0	1	4	4
71	27.684	0.179955	0	0	0	0	1	4	4
71	28.0555	0.0290241	0	0	0	0	1	4	4
71	28.0845	0.0638561	0	0	0	0	1	4	4
75	28.2297	0.116098	0	0	0	0	1	4	4
71	28.4619	0.110294	0	0	0	0	1	4	4
71	28.7637	0.0928802	0	0	0	0	1	4	4
71	28.8624	0.0928783	0	0	0	0	1	4	4
75	29.3094	0.145124	0	0	0	0	1	4	4
71	29.5474	0.156734	0	0	0	0	1	4	4
