midiPitch 	 onsetSec 	 durationSec 	 onsetBeats 	 onsetBarIndex 	 onsetBar 	 durationBeats 	 velocity  	 numerator 	 denominator 
60	0.551474	0.029025	0	0	2.5763e-035	0	1	4	4
58	0.638549	0.0232199	0	0	2.5763e-035	0	1	4	4
61	0.708209	0.0290249	0	0	2.5763e-035	0	1	4	4
59	0.981043	0.02322	0	0	2.5763e-035	0	1	4	4
58	1.11456	0.0232201	0	0	2.5763e-035	0	1	4	4
58	1.14358	0.0522449	0	0	2.5763e-035	0	1	4	4
64	1.31773	0.0348299	0	0	2.5763e-035	0	1	4	4
60	1.43383	0.029025	0	0	2.5763e-035	0	1	4	4
59	1.57896	0.0232199	0	0	2.5763e-035	0	1	4	4
60	1.83438	0.029025	0	0	2.5763e-035	0	1	4	4
59	2.18268	0.0522449	0	0	2.5763e-035	0	1	4	4
57	2.38585	0.0348301	0	0	2.5763e-035	0	1	4	4
62	2.48454	0.0290248	0	0	2.5763e-035	0	1	4	4
57	2.51937	0.0232198	0	0	2.5763e-035	0	1	4	4
60	2.58902	0.0232201	0	0	2.5763e-035	0	1	4	4
61	2.65868	0.0232201	0	0	2.5763e-035	0	1	4	4
64	2.71093	0.0232201	0	0	2.5763e-035	0	1	4	4
62	3.25079	0.0232198	0	0	2.5763e-035	0	1	4	4
62	3.4888	0.0348299	0	0	2.5763e-035	0	1	4	4
60	3.54685	0.0406349	0	0	2.5763e-035	0	1	4	4
60	3.81388	0.0290248	0	0	2.5763e-035	0	1	4	4
58	3.97642	0.0696602	0	0	2.5763e-035	0	1	4	4
60	4.43501	0.0232196	0	0	2.5763e-035	0	1	4	4
60	4.82975	0.0290251	0	0	2.5763e-035	0	1	4	4
65	5.10258	0.0290251	0	0	2.5763e-035	0	1	4	4
59	5.13161	0.0232201	0	0	2.5763e-035	0	1	4	4
58	5.20707	0.0348301	0	0	2.5763e-035	0	1	4	4
60	5.31737	0.0232201	0	0	2.5763e-035	0	1	4	4
60	5.40444	0.0406351	0	0	2.5763e-035	0	1	4	4
60	6.07782	0.0290246	0	0	2.5763e-035	0	1	4	4
58	6.10685	0.0232201	0	0	2.5763e-035	0	1	4	4
62	6.26939	0.0232201	0	0	2.5763e-035	0	1	4	4
60	6.83828	0.0232201	0	0	2.5763e-035	0	1	4	4
59	7.11111	0.0232196	0	0	2.5763e-035	0	1	4	4
63	7.19238	0.0232201	0	0	2.5763e-035	0	1	4	4
60	7.34331	0.0290251	0	0	2.5763e-035	0	1	4	4
78	7.65097	0.2322	0	0	2.5763e-035	0	1	4	4
78	7.88317	0.0812697	0	0	2.5763e-035	0	1	4	4
73	8.41723	0.0348301	0	0	2.5763e-035	0	1	4	4
62	9.16027	0.0290251	0	0	2.5763e-035	0	1	4	4
56	9.94394	0.0290251	0	0	2.5763e-035	0	1	4	4
64	10.1471	0.0290251	0	0	2.5763e-035	0	1	4	4
49	10.1878	0.1161	0	0	2.5763e-035	0	1	4	4
61	10.5535	0.0464392	0	0	2.5763e-035	0	1	4	4
58	10.7276	0.0348291	0	0	2.5763e-035	0	1	4	4
49	12.1324	0.139319	0	0	2.5763e-035	0	1	4	4
50	12.2717	0.168344	0	0	2.5763e-035	0	1	4	4
59	12.7303	0.0522451	0	0	2.5763e-035	0	1	4	4
60	12.7884	0.0348291	0	0	2.5763e-035	0	1	4	4
59	14.7505	0.0406351	0	0	2.5763e-035	0	1	4	4
62	16.0102	0.0522442	0	0	2.5763e-035	0	1	4	4
62	16.074	0.0464401	0	0	2.5763e-035	0	1	4	4
60	16.7706	0.0522442	0	0	2.5763e-035	0	1	4	4
73	18.6108	0.0290241	0	0	2.5763e-035	0	1	4	4
72	18.663	0.0290241	0	0	2.5763e-035	0	1	4	4
72	18.7269	0.0232201	0	0	2.5763e-035	0	1	4	4
68	18.9127	0.0290241	0	0	2.5763e-035	0	1	4	4
68	19.0346	0.0290241	0	0	2.5763e-035	0	1	4	4
67	19.3596	0.0232201	0	0	2.5763e-035	0	1	4	4
69	19.7312	0.0754662	0	0	2.5763e-035	0	1	4	4
68	19.8066	0.0348301	0	0	2.5763e-035	0	1	4	4
74	20.1317	0.0232201	0	0	2.5763e-035	0	1	4	4
74	20.1665	0.0522442	0	0	2.5763e-035	0	1	4	4
72	20.2188	0.0348301	0	0	2.5763e-035	0	1	4	4
61	20.5613	0.0232201	0	0	2.5763e-035	0	1	4	4
71	20.6542	0.0464401	0	0	2.5763e-035	0	1	4	4
72	20.7528	0.0232201	0	0	2.5763e-035	0	1	4	4
69	20.8805	0.0290241	0	0	2.5763e-035	0	1	4	4
73	20.9096	0.0406342	0	0	2.5763e-035	0	1	4	4
67	21.0199	0.0232201	0	0	2.5763e-035	0	1	4	4
68	21.2056	0.0406342	0	0	2.5763e-035	0	1	4	4
68	21.2869	0.0290241	0	0	2.5763e-035	0	1	4	4
71	21.4901	0.0232201	0	0	2.5763e-035	0	1	4	4
68	21.8326	0.0232201	0	0	2.5763e-035	0	1	4	4
70	21.9022	0.0232201	0	0	2.5763e-035	0	1	4	4
71	22.0532	0.0348301	0	0	2.5763e-035	0	1	4	4
71	22.1925	0.0348301	0	0	2.5763e-035	0	1	4	4
69	22.2563	0.0232201	0	0	2.5763e-035	0	1	4	4
59	22.326	0.0290241	0	0	2.5763e-035	0	1	4	4
59	22.355	0.0406342	0	0	2.5763e-035	0	1	4	4
59	22.3956	0.0232201	0	0	2.5763e-035	0	1	4	4
62	22.8368	0.029026	0	0	2.5763e-035	0	1	4	4
69	22.8891	0.0348301	0	0	2.5763e-035	0	1	4	4
68	22.9587	0.029026	0	0	2.5763e-035	0	1	4	4
65	23.2838	0.0232201	0	0	2.5763e-035	0	1	4	4
70	23.3593	0.0290241	0	0	2.5763e-035	0	1	4	4
65	23.4405	0.0232201	0	0	2.5763e-035	0	1	4	4
67	23.9514	0.0232201	0	0	2.5763e-035	0	1	4	4
70	24.0733	0.0232201	0	0	2.5763e-035	0	1	4	4
64	24.1023	0.029026	0	0	2.5763e-035	0	1	4	4
66	24.4158	0.029026	0	0	2.5763e-035	0	1	4	4
67	24.6654	0.029026	0	0	2.5763e-035	0	1	4	4
61	25.0021	0.0232182	0	0	2.5763e-035	0	1	4	4
67	25.0717	0.0522461	0	0	2.5763e-035	0	1	4	4
67	25.1356	0.0290241	0	0	2.5763e-035	0	1	4	4
68	25.1937	0.0232182	0	0	2.5763e-035	0	1	4	4
63	25.6929	0.0464401	0	0	2.5763e-035	0	1	4	4
67	26.4185	0.0232201	0	0	2.5763e-035	0	1	4	4
68	26.7029	0.0348301	0	0	2.5763e-035	0	1	4	4
71	28.4386	0.0232201	0	0	2.5763e-035	0	1	4	4
