midiPitch 	 onsetSec 	 durationSec 	 onsetBeats 	 onsetBarIndex 	 onsetBar 	 durationBeats 	 velocity  	 numerator 	 denominator 
66	0.0406349	0.0638549	0	0	2.25671e-035	0	1	4	4
63	0.18576	0.0580499	0	0	2.25671e-035	0	1	4	4
66	0.429569	0.313469	0	0	2.25671e-035	0	1	4	4
66	0.743039	0.0754648	0	0	2.25671e-035	0	1	4	4
66	0.818503	0.255419	0	0	2.25671e-035	0	1	4	4
65	1.40481	0.13932	0	0	2.25671e-035	0	1	4	4
63	1.79955	0.19737	0	0	2.25671e-035	0	1	4	4
60	2.02594	0.1161	0	0	2.25671e-035	0	1	4	4
62	2.2117	0.13932	0	0	2.25671e-035	0	1	4	4
66	2.35102	0.464399	0	0	2.25671e-035	0	1	4	4
67	2.81542	0.214785	0	0	2.25671e-035	0	1	4	4
59	3.23338	0.417959	0	0	2.25671e-035	0	1	4	4
59	4.1912	0.15093	0	0	2.25671e-035	0	1	4	4
60	4.34213	0.267029	0	0	2.25671e-035	0	1	4	4
62	4.60916	0.162539	0	0	2.25671e-035	0	1	4	4
63	4.7717	0.313469	0	0	2.25671e-035	0	1	4	4
63	5.08517	0.145125	0	0	2.25671e-035	0	1	4	4
65	5.23029	0.325079	0	0	2.25671e-035	0	1	4	4
65	5.63664	0.22059	0	0	2.25671e-035	0	1	4	4
65	5.98494	0.754648	0	0	2.25671e-035	0	1	4	4
65	7.43039	0.238004	0	0	2.25671e-035	0	1	4	4
62	7.66839	0.26703	0	0	2.25671e-035	0	1	4	4
64	7.94703	0.0812702	0	0	2.25671e-035	0	1	4	4
65	8.0283	0.626939	0	0	2.25671e-035	0	1	4	4
62	8.95129	0.307665	0	0	2.25671e-035	0	1	4	4
65	9.25896	0.249615	0	0	2.25671e-035	0	1	4	4
60	9.58984	0.25542	0	0	2.25671e-035	0	1	4	4
61	9.84526	0.319274	0	0	2.25671e-035	0	1	4	4
63	10.1645	0.19737	0	0	2.25671e-035	0	1	4	4
66	10.3619	0.27864	0	0	2.25671e-035	0	1	4	4
66	10.6405	0.145124	0	0	2.25671e-035	0	1	4	4
64	10.7857	0.330885	0	0	2.25671e-035	0	1	4	4
66	11.1166	0.0986843	0	0	2.25671e-035	0	1	4	4
56	12.1382	0.325079	0	0	2.25671e-035	0	1	4	4
56	12.6084	0.30186	0	0	2.25671e-035	0	1	4	4
54	13.0264	0.1161	0	0	2.25671e-035	0	1	4	4
55	13.1425	0.110294	0	0	2.25671e-035	0	1	4	4
56	13.2528	0.145125	0	0	2.25671e-035	0	1	4	4
55	13.6649	0.226395	0	0	2.25671e-035	0	1	4	4
49	14.6634	0.29025	0	0	2.25671e-035	0	1	4	4
58	15.0175	0.20898	0	0	2.25671e-035	0	1	4	4
50	15.418	0.162539	0	0	2.25671e-035	0	1	4	4
0	15.7547	0.0928802	0	0	2.25671e-035	0	1	4	4
72	15.8476	0.17415	0	0	2.25671e-035	0	1	4	4
70	16.5094	0.214785	0	0	2.25671e-035	0	1	4	4
51	16.6313	0.12771	0	0	2.25671e-035	0	1	4	4
50	16.9506	0.220589	0	0	2.25671e-035	0	1	4	4
55	17.2466	0.0928802	0	0	2.25671e-035	0	1	4	4
58	17.3627	0.226395	0	0	2.25671e-035	0	1	4	4
57	17.5891	0.510839	0	0	2.25671e-035	0	1	4	4
57	18.1	0.0696602	0	0	2.25671e-035	0	1	4	4
57	18.1696	0.121904	0	0	2.25671e-035	0	1	4	4
55	18.3205	0.446985	0	0	2.25671e-035	0	1	4	4
54	18.8198	0.325079	0	0	2.25671e-035	0	1	4	4
51	19.1507	0.127708	0	0	2.25671e-035	0	1	4	4
51	19.3016	0.232201	0	0	2.25671e-035	0	1	4	4
47	19.9808	0.220591	0	0	2.25671e-035	0	1	4	4
50	20.4568	0.10449	0	0	2.25671e-035	0	1	4	4
50	20.6251	0.17415	0	0	2.25671e-035	0	1	4	4
50	20.9966	0.0754662	0	0	2.25671e-035	0	1	4	4
50	21.0721	0.145124	0	0	2.25671e-035	0	1	4	4
50	21.3566	0.029026	0	0	2.25671e-035	0	1	4	4
50	21.3914	0.1161	0	0	2.25671e-035	0	1	4	4
54	21.7687	1.0507	0	0	2.25671e-035	0	1	4	4
54	23.4986	0.162539	0	0	2.25671e-035	0	1	4	4
54	23.6611	0.110296	0	0	2.25671e-035	0	1	4	4
53	23.7714	0.0754642	0	0	2.25671e-035	0	1	4	4
52	23.8469	0.0290241	0	0	2.25671e-035	0	1	4	4
51	23.9049	0.214785	0	0	2.25671e-035	0	1	4	4
50	24.1197	0.110294	0	0	2.25671e-035	0	1	4	4
51	24.2707	0.0696602	0	0	2.25671e-035	0	1	4	4
51	24.3403	0.0754642	0	0	2.25671e-035	0	1	4	4
63	24.3229	0.156734	0	0	2.25671e-035	0	1	4	4
63	24.5029	0.139318	0	0	2.25671e-035	0	1	4	4
63	24.6422	0.0522461	0	0	2.25671e-035	0	1	4	4
63	25.0079	0.0812702	0	0	2.25671e-035	0	1	4	4
63	25.8496	0.0464401	0	0	2.25671e-035	0	1	4	4
68	25.9019	0.0696602	0	0	2.25671e-035	0	1	4	4
62	25.9715	0.0870743	0	0	2.25671e-035	0	1	4	4
63	26.0586	0.0290241	0	0	2.25671e-035	0	1	4	4
65	26.0934	0.10449	0	0	2.25671e-035	0	1	4	4
72	26.1979	0.0232201	0	0	2.25671e-035	0	1	4	4
73	26.2734	0.0464401	0	0	2.25671e-035	0	1	4	4
73	26.3895	0.150928	0	0	2.25671e-035	0	1	4	4
74	26.5694	0.0522442	0	0	2.25671e-035	0	1	4	4
75	26.7958	0.0290241	0	0	2.25671e-035	0	1	4	4
75	26.8249	0.0638542	0	0	2.25671e-035	0	1	4	4
75	26.9235	0.110296	0	0	2.25671e-035	0	1	4	4
77	27.0454	0.0580482	0	0	2.25671e-035	0	1	4	4
74	27.1035	0.0406361	0	0	2.25671e-035	0	1	4	4
74	27.2486	0.0870743	0	0	2.25671e-035	0	1	4	4
75	27.3357	0.156734	0	0	2.25671e-035	0	1	4	4
78	27.4924	0.0290241	0	0	2.25671e-035	0	1	4	4
78	27.5215	0.0464401	0	0	2.25671e-035	0	1	4	4
78	27.5679	0.0232201	0	0	2.25671e-035	0	1	4	4
78	27.5911	0.0406361	0	0	2.25671e-035	0	1	4	4
78	27.6317	0.0290241	0	0	2.25671e-035	0	1	4	4
78	27.6608	0.0348301	0	0	2.25671e-035	0	1	4	4
78	27.6956	0.0638542	0	0	2.25671e-035	0	1	4	4
78	27.7595	0.0638561	0	0	2.25671e-035	0	1	4	4
78	27.8233	0.0464401	0	0	2.25671e-035	0	1	4	4
77	27.8698	0.0290241	0	0	2.25671e-035	0	1	4	4
78	27.9104	0.0754642	0	0	2.25671e-035	0	1	4	4
78	28.1136	0.0754642	0	0	2.25671e-035	0	1	4	4
77	28.2006	0.0986843	0	0	2.25671e-035	0	1	4	4
78	28.2993	0.0580502	0	0	2.25671e-035	0	1	4	4
78	28.3574	0.18576	0	0	2.25671e-035	0	1	4	4
78	28.5431	0.0232201	0	0	2.25671e-035	0	1	4	4
79	28.6186	0.0928802	0	0	2.25671e-035	0	1	4	4
79	28.7115	0.13932	0	0	2.25671e-035	0	1	4	4
79	28.8508	0.0580482	0	0	2.25671e-035	0	1	4	4
79	28.9088	0.0580502	0	0	2.25671e-035	0	1	4	4
79	28.9669	0.029026	0	0	2.25671e-035	0	1	4	4
79	29.0017	0.0464401	0	0	2.25671e-035	0	1	4	4
79	29.0482	0.121904	0	0	2.25671e-035	0	1	4	4
79	29.1701	0.133516	0	0	2.25671e-035	0	1	4	4
