midiPitch 	 onsetSec 	 durationSec 	 onsetBeats 	 onsetBarIndex 	 onsetBar 	 durationBeats 	 velocity  	 numerator 	 denominator 
56	0.534059	0.145125	0	0	0	0	1	4	4
59	0.725624	0.499229	0	0	0	0	1	4	4
59	1.22485	0.435374	0	0	0	0	1	4	4
59	1.95628	0.191565	0	0	0	0	1	4	4
58	2.38585	1.10295	0	0	0	0	1	4	4
58	3.4888	0.0348299	0	0	0	0	1	4	4
54	3.52363	0.510839	0	0	0	0	1	4	4
61	4.19701	0.15093	0	0	0	0	1	4	4
54	4.46404	0.330884	0	0	0	0	1	4	4
54	4.91683	0.133515	0	0	0	0	1	4	4
54	5.19546	0.1161	0	0	0	0	1	4	4
53	5.41025	0.110295	0	0	0	0	1	4	4
53	5.54376	0.0986848	0	0	0	0	1	4	4
53	5.68308	0.0696597	0	0	0	0	1	4	4
66	5.97333	0.162539	0	0	0	0	1	4	4
51	6.13587	0.0580502	0	0	0	0	1	4	4
51	6.19392	0.0638547	0	0	0	0	1	4	4
65	6.27519	0.0870748	0	0	0	0	1	4	4
51	6.37388	0.133515	0	0	0	0	1	4	4
51	6.50739	0.127709	0	0	0	0	1	4	4
66	6.6351	0.0928798	0	0	0	0	1	4	4
66	7.18658	0.0290251	0	0	0	0	1	4	4
66	7.26204	0.156735	0	0	0	0	1	4	4
70	7.47102	0.278639	0	0	0	0	1	4	4
65	7.81932	0.0406346	0	0	0	0	1	4	4
65	7.95283	0.0406351	0	0	0	0	1	4	4
65	7.99347	0.0522451	0	0	0	0	1	4	4
65	8.13279	0.13932	0	0	0	0	1	4	4
58	8.38821	0.272835	0	0	0	0	1	4	4
58	8.70748	0.162539	0	0	0	0	1	4	4
65	8.9571	0.284445	0	0	0	0	1	4	4
58	9.24735	0.336689	0	0	0	0	1	4	4
61	9.72336	0.133514	0	0	0	0	1	4	4
56	11.4068	0.0696602	0	0	0	0	1	4	4
56	11.5693	0.121904	0	0	0	0	1	4	4
56	11.6912	0.121904	0	0	0	0	1	4	4
63	12.1847	0.116099	0	0	0	0	1	4	4
60	12.3008	0.0986853	0	0	0	0	1	4	4
56	12.4285	0.0696602	0	0	0	0	1	4	4
63	12.4981	0.156734	0	0	0	0	1	4	4
58	12.6897	0.0348301	0	0	0	0	1	4	4
58	12.7245	0.0406351	0	0	0	0	1	4	4
58	12.771	0.133514	0	0	0	0	1	4	4
58	12.9045	0.0232201	0	0	0	0	1	4	4
58	12.9509	0.574694	0	0	0	0	1	4	4
58	13.6243	0.121904	0	0	0	0	1	4	4
58	13.7462	0.0638552	0	0	0	0	1	4	4
59	13.9204	0.150929	0	0	0	0	1	4	4
58	14.0945	0.133515	0	0	0	0	1	4	4
58	14.4138	0.0290251	0	0	0	0	1	4	4
58	14.4428	0.0348291	0	0	0	0	1	4	4
58	15.0639	0.133514	0	0	0	0	1	4	4
58	15.1975	0.0232201	0	0	0	0	1	4	4
65	15.2613	0.179955	0	0	0	0	1	4	4
58	15.5922	0.441179	0	0	0	0	1	4	4
58	16.2656	0.249615	0	0	0	0	1	4	4
58	16.521	0.0754642	0	0	0	0	1	4	4
56	16.8345	0.0464401	0	0	0	0	1	4	4
61	16.8809	0.0986843	0	0	0	0	1	4	4
56	18.0071	0.261225	0	0	0	0	1	4	4
61	18.3263	0.0522442	0	0	0	0	1	4	4
63	18.3786	0.0580502	0	0	0	0	1	4	4
56	18.6398	0.0696602	0	0	0	0	1	4	4
56	18.7849	0.10449	0	0	0	0	1	4	4
56	18.8894	0.0290241	0	0	0	0	1	4	4
56	19.1507	0.458593	0	0	0	0	1	4	4
60	19.8415	0.0522442	0	0	0	0	1	4	4
58	20.3	0.0870743	0	0	0	0	1	4	4
58	20.3871	0.226395	0	0	0	0	1	4	4
58	20.7528	0.0348301	0	0	0	0	1	4	4
58	20.8399	0.17415	0	0	0	0	1	4	4
58	21.0141	0.0348301	0	0	0	0	1	4	4
58	22.297	0.0348301	0	0	0	0	1	4	4
58	22.3318	0.179955	0	0	0	0	1	4	4
65	22.4653	0.214785	0	0	0	0	1	4	4
58	22.7846	0.354105	0	0	0	0	1	4	4
58	23.2606	0.0986843	0	0	0	0	1	4	4
58	23.4347	0.290251	0	0	0	0	1	4	4
58	23.725	0.330883	0	0	0	0	1	4	4
61	24.1255	0.0986843	0	0	0	0	1	4	4
61	24.7234	0.10449	0	0	0	0	1	4	4
56	25.2807	0.0870743	0	0	0	0	1	4	4
56	25.3678	0.0638542	0	0	0	0	1	4	4
61	25.5768	0.104488	0	0	0	0	1	4	4
56	25.8961	0.0464401	0	0	0	0	1	4	4
61	25.9425	0.133514	0	0	0	0	1	4	4
65	26.5288	0.10449	0	0	0	0	1	4	4
65	26.9177	0.174149	0	0	0	0	1	4	4
61	27.7478	0.243811	0	0	0	0	1	4	4
59	28.2935	0.10449	0	0	0	0	1	4	4
61	28.398	0.423763	0	0	0	0	1	4	4
61	28.8218	0.13932	0	0	0	0	1	4	4
61	29.2513	0.522449	0	0	0	0	1	4	4
