midiPitch 	 onsetSec 	 durationSec 	 onsetBeats 	 onsetBarIndex 	 onsetBar 	 durationBeats 	 velocity  	 numerator 	 denominator 
56	0.1161	0.191565	0	0	0	0	1	4	4
58	0.307664	0.0232199	0	0	0	0	1	4	4
58	0.354104	0.255419	0	0	0	0	1	4	4
58	0.830113	0.110295	0	0	0	0	1	4	4
62	1.09714	0.0928799	0	0	0	0	1	4	4
70	1.06231	0.13932	0	0	0	0	1	4	4
70	1.49769	0.10449	0	0	0	0	1	4	4
72	1.90404	0.0464399	0	0	0	0	1	4	4
70	1.95048	0.0928798	0	0	0	0	1	4	4
70	2.10141	0.0406349	0	0	0	0	1	4	4
70	2.39166	0.09288	0	0	0	0	1	4	4
61	2.49034	0.0464399	0	0	0	0	1	4	4
61	2.59483	0.08127	0	0	0	0	1	4	4
61	2.6761	0.15093	0	0	0	0	1	4	4
58	3.03601	0.0232198	0	0	0	0	1	4	4
60	3.17533	0.0580499	0	0	0	0	1	4	4
61	3.23338	0.0464399	0	0	0	0	1	4	4
60	3.27982	0.0348299	0	0	0	0	1	4	4
58	3.81968	0.0232201	0	0	0	0	1	4	4
51	4.28408	0.0580502	0	0	0	0	1	4	4
52	4.34213	0.0232196	0	0	0	0	1	4	4
62	4.75429	0.0232196	0	0	0	0	1	4	4
61	4.77751	0.0348301	0	0	0	0	1	4	4
61	4.81234	0.0290251	0	0	0	0	1	4	4
61	4.87039	0.0812702	0	0	0	0	1	4	4
62	5.05615	0.0348296	0	0	0	0	1	4	4
62	5.15483	0.0232196	0	0	0	0	1	4	4
61	5.19546	0.0986848	0	0	0	0	1	4	4
57	5.45669	0.0406346	0	0	0	0	1	4	4
56	5.55537	0.0580497	0	0	0	0	1	4	4
54	6.73959	0.0348301	0	0	0	0	1	4	4
54	6.77442	0.0464396	0	0	0	0	1	4	4
53	7.11692	0.0232196	0	0	0	0	1	4	4
61	7.14014	0.0348301	0	0	0	0	1	4	4
61	7.18077	0.0232201	0	0	0	0	1	4	4
61	7.22721	0.0754652	0	0	0	0	1	4	4
61	7.42458	0.0928798	0	0	0	0	1	4	4
61	7.70322	0.0406346	0	0	0	0	1	4	4
60	7.77868	0.0464401	0	0	0	0	1	4	4
60	7.82512	0.0580497	0	0	0	0	1	4	4
60	7.92961	0.0232196	0	0	0	0	1	4	4
60	7.97025	0.0696602	0	0	0	0	1	4	4
60	8.03991	0.0696592	0	0	0	0	1	4	4
61	8.10957	0.0232201	0	0	0	0	1	4	4
63	8.6146	0.0232201	0	0	0	0	1	4	4
66	8.87583	0.0232201	0	0	0	0	1	4	4
66	8.90485	0.0406342	0	0	0	0	1	4	4
65	8.97451	0.0290251	0	0	0	0	1	4	4
65	9.05578	0.0406351	0	0	0	0	1	4	4
64	9.09642	0.0290241	0	0	0	0	1	4	4
63	9.22413	0.0290251	0	0	0	0	1	4	4
63	9.28218	0.0290251	0	0	0	0	1	4	4
61	9.50857	0.116099	0	0	0	0	1	4	4
60	9.6537	0.0464401	0	0	0	0	1	4	4
60	9.75238	0.0290251	0	0	0	0	1	4	4
59	9.85107	0.0464401	0	0	0	0	1	4	4
61	9.89751	0.0290251	0	0	0	0	1	4	4
58	9.92653	0.0870743	0	0	0	0	1	4	4
59	10.1065	0.0638542	0	0	0	0	1	4	4
58	10.1819	0.272835	0	0	0	0	1	4	4
62	11.3546	0.116099	0	0	0	0	1	4	4
70	11.8073	0.0870752	0	0	0	0	1	4	4
67	11.9002	0.0870752	0	0	0	0	1	4	4
61	12.2485	0.10449	0	0	0	0	1	4	4
62	12.353	0.0348301	0	0	0	0	1	4	4
62	12.4401	0.16254	0	0	0	0	1	4	4
62	12.6026	0.0696592	0	0	0	0	1	4	4
65	12.8058	0.243809	0	0	0	0	1	4	4
65	13.0496	0.0464401	0	0	0	0	1	4	4
65	13.0961	0.133514	0	0	0	0	1	4	4
62	13.2296	0.0232201	0	0	0	0	1	4	4
63	13.2934	0.0812702	0	0	0	0	1	4	4
63	13.4153	0.0812693	0	0	0	0	1	4	4
61	13.543	0.116099	0	0	0	0	1	4	4
59	13.9088	0.0522451	0	0	0	0	1	4	4
59	14.2048	0.133514	0	0	0	0	1	4	4
71	14.7215	0.12771	0	0	0	0	1	4	4
71	15.0117	0.267029	0	0	0	0	1	4	4
70	15.2787	0.0406351	0	0	0	0	1	4	4
58	15.4993	0.0522451	0	0	0	0	1	4	4
62	16.0624	0.0812702	0	0	0	0	1	4	4
70	16.4862	0.10449	0	0	0	0	1	4	4
61	16.759	0.127708	0	0	0	0	1	4	4
60	16.9041	0.0754642	0	0	0	0	1	4	4
61	17.1479	0.12771	0	0	0	0	1	4	4
62	17.2756	0.145124	0	0	0	0	1	4	4
60	17.5078	0.18576	0	0	0	0	1	4	4
60	17.6936	0.0696602	0	0	0	0	1	4	4
58	17.7633	0.145124	0	0	0	0	1	4	4
58	17.9258	0.1161	0	0	0	0	1	4	4
59	18.2973	0.0348301	0	0	0	0	1	4	4
59	18.3322	0.029026	0	0	0	0	1	4	4
59	18.5527	0.0754642	0	0	0	0	1	4	4
59	18.8546	0.18576	0	0	0	0	1	4	4
70	19.8589	0.10449	0	0	0	0	1	4	4
70	20.2246	0.127708	0	0	0	0	1	4	4
62	20.6774	0.116098	0	0	0	0	1	4	4
70	21.1185	0.17415	0	0	0	0	1	4	4
66	21.432	0.226395	0	0	0	0	1	4	4
63	21.6932	0.133514	0	0	0	0	1	4	4
63	21.8268	0.110294	0	0	0	0	1	4	4
63	21.9661	0.145126	0	0	0	0	1	4	4
63	22.2737	0.261225	0	0	0	0	1	4	4
65	22.7439	0.145124	0	0	0	0	1	4	4
65	23.0226	0.174149	0	0	0	0	1	4	4
63	23.2896	0.255421	0	0	0	0	1	4	4
63	23.545	0.0986843	0	0	0	0	1	4	4
61	23.6437	0.342493	0	0	0	0	1	4	4
63	24.7409	0.150928	0	0	0	0	1	4	4
62	25.2459	0.12771	0	0	0	0	1	4	4
58	26.0934	0.0812702	0	0	0	0	1	4	4
65	26.6333	0.17415	0	0	0	0	1	4	4
62	26.9468	0.203175	0	0	0	0	1	4	4
58	27.2486	0.272833	0	0	0	0	1	4	4
58	27.5215	0.110296	0	0	0	0	1	4	4
58	27.6317	0.0580482	0	0	0	0	1	4	4
57	27.9975	0.16254	0	0	0	0	1	4	4
59	28.2355	0.179955	0	0	0	0	1	4	4
58	28.4154	0.156734	0	0	0	0	1	4	4
58	28.5722	0.0406361	0	0	0	0	1	4	4
