midiPitch 	 onsetSec 	 durationSec 	 onsetBeats 	 onsetBarIndex 	 onsetBar 	 durationBeats 	 velocity  	 numerator 	 denominator 
72	0.667574	0.179955	0	0	2.61419e-035	0	1	4	4
72	0.905578	0.0522449	0	0	2.61419e-035	0	1	4	4
71	1.06812	0.0232199	0	0	2.61419e-035	0	1	4	4
70	1.17261	0.0696599	0	0	2.61419e-035	0	1	4	4
70	1.2829	0.0232199	0	0	2.61419e-035	0	1	4	4
70	1.3932	0.0522449	0	0	2.61419e-035	0	1	4	4
72	1.83438	0.0522449	0	0	2.61419e-035	0	1	4	4
72	2.02014	0.0290248	0	0	2.61419e-035	0	1	4	4
68	2.13043	0.110295	0	0	2.61419e-035	0	1	4	4
69	2.24073	0.0232201	0	0	2.61419e-035	0	1	4	4
69	2.26975	0.0522449	0	0	2.61419e-035	0	1	4	4
69	2.34522	0.0290251	0	0	2.61419e-035	0	1	4	4
69	2.38005	0.0986848	0	0	2.61419e-035	0	1	4	4
73	2.47293	0.0580499	0	0	2.61419e-035	0	1	4	4
69	2.54839	0.1161	0	0	2.61419e-035	0	1	4	4
69	2.72254	0.0522449	0	0	2.61419e-035	0	1	4	4
70	2.89088	0.0406349	0	0	2.61419e-035	0	1	4	4
69	2.95474	0.0348301	0	0	2.61419e-035	0	1	4	4
69	3.0302	0.0290248	0	0	2.61419e-035	0	1	4	4
70	3.05923	0.0638549	0	0	2.61419e-035	0	1	4	4
69	3.12889	0.0290248	0	0	2.61419e-035	0	1	4	4
70	3.15791	0.0290251	0	0	2.61419e-035	0	1	4	4
70	3.18694	0.0232198	0	0	2.61419e-035	0	1	4	4
71	3.4946	0.0290248	0	0	2.61419e-035	0	1	4	4
71	3.63973	0.0232201	0	0	2.61419e-035	0	1	4	4
71	3.69197	0.0464399	0	0	2.61419e-035	0	1	4	4
67	3.97061	0.0348299	0	0	2.61419e-035	0	1	4	4
73	4.04027	0.0638547	0	0	2.61419e-035	0	1	4	4
70	4.10413	0.0232201	0	0	2.61419e-035	0	1	4	4
73	4.14476	0.0290246	0	0	2.61419e-035	0	1	4	4
73	4.20281	0.0290251	0	0	2.61419e-035	0	1	4	4
73	4.3073	0.0696597	0	0	2.61419e-035	0	1	4	4
71	4.4176	0.0928798	0	0	2.61419e-035	0	1	4	4
66	4.50467	0.0232201	0	0	2.61419e-035	0	1	4	4
71	4.57433	0.0232201	0	0	2.61419e-035	0	1	4	4
71	4.6556	0.0580497	0	0	2.61419e-035	0	1	4	4
70	4.72526	0.0406346	0	0	2.61419e-035	0	1	4	4
70	5.01551	0.0464401	0	0	2.61419e-035	0	1	4	4
70	5.11419	0.0870748	0	0	2.61419e-035	0	1	4	4
69	5.20707	0.0696602	0	0	2.61419e-035	0	1	4	4
69	5.31737	0.0232201	0	0	2.61419e-035	0	1	4	4
72	5.37542	0.0406346	0	0	2.61419e-035	0	1	4	4
73	5.71211	0.0232201	0	0	2.61419e-035	0	1	4	4
69	5.81079	0.0232201	0	0	2.61419e-035	0	1	4	4
61	5.89206	0.0348296	0	0	2.61419e-035	0	1	4	4
61	5.97914	0.0406346	0	0	2.61419e-035	0	1	4	4
73	6.01977	0.0348301	0	0	2.61419e-035	0	1	4	4
73	6.07202	0.0406346	0	0	2.61419e-035	0	1	4	4
73	6.11265	0.0986848	0	0	2.61419e-035	0	1	4	4
72	6.2868	0.0290246	0	0	2.61419e-035	0	1	4	4
74	6.40871	0.0290251	0	0	2.61419e-035	0	1	4	4
72	6.50739	0.0406346	0	0	2.61419e-035	0	1	4	4
72	6.58286	0.0754647	0	0	2.61419e-035	0	1	4	4
73	6.7454	0.0522451	0	0	2.61419e-035	0	1	4	4
72	6.80345	0.17415	0	0	2.61419e-035	0	1	4	4
72	7.07048	0.0232201	0	0	2.61419e-035	0	1	4	4
72	7.0937	0.0986848	0	0	2.61419e-035	0	1	4	4
71	7.23302	0.0406351	0	0	2.61419e-035	0	1	4	4
59	7.26204	0.0406351	0	0	2.61419e-035	0	1	4	4
59	7.32009	0.0232196	0	0	2.61419e-035	0	1	4	4
59	7.43039	0.0232196	0	0	2.61419e-035	0	1	4	4
59	7.55229	0.0232201	0	0	2.61419e-035	0	1	4	4
58	7.63356	0.0348296	0	0	2.61419e-035	0	1	4	4
58	7.74966	0.0406351	0	0	2.61419e-035	0	1	4	4
58	7.83093	0.0464396	0	0	2.61419e-035	0	1	4	4
57	7.94122	0.0290246	0	0	2.61419e-035	0	1	4	4
57	7.99927	0.0406351	0	0	2.61419e-035	0	1	4	4
57	8.04571	0.0696592	0	0	2.61419e-035	0	1	4	4
57	8.12698	0.0348301	0	0	2.61419e-035	0	1	4	4
58	8.22567	0.0290251	0	0	2.61419e-035	0	1	4	4
57	8.28372	0.0232191	0	0	2.61419e-035	0	1	4	4
57	8.35338	0.272835	0	0	2.61419e-035	0	1	4	4
57	8.70168	0.110294	0	0	2.61419e-035	0	1	4	4
57	9.27637	0.0406351	0	0	2.61419e-035	0	1	4	4
58	9.32281	0.0290241	0	0	2.61419e-035	0	1	4	4
57	9.36925	0.0406351	0	0	2.61419e-035	0	1	4	4
57	9.4215	0.0232201	0	0	2.61419e-035	0	1	4	4
57	9.45052	0.0754652	0	0	2.61419e-035	0	1	4	4
55	9.56082	0.0232201	0	0	2.61419e-035	0	1	4	4
53	9.94394	0.0522451	0	0	2.61419e-035	0	1	4	4
73	10.4954	0.0754642	0	0	2.61419e-035	0	1	4	4
69	10.7276	0.0464392	0	0	2.61419e-035	0	1	4	4
69	10.896	0.0232201	0	0	2.61419e-035	0	1	4	4
72	10.9192	0.400544	0	0	2.61419e-035	0	1	4	4
74	11.7609	0.0638542	0	0	2.61419e-035	0	1	4	4
72	12.3588	0.0638542	0	0	2.61419e-035	0	1	4	4
72	12.4401	0.0522451	0	0	2.61419e-035	0	1	4	4
72	12.4923	0.0696602	0	0	2.61419e-035	0	1	4	4
69	12.6781	0.0638552	0	0	2.61419e-035	0	1	4	4
69	12.9393	0.0812693	0	0	2.61419e-035	0	1	4	4
69	13.0612	0.0522451	0	0	2.61419e-035	0	1	4	4
60	13.6882	0.168344	0	0	2.61419e-035	0	1	4	4
60	14.0539	0.0406351	0	0	2.61419e-035	0	1	4	4
50	14.3848	0.0696592	0	0	2.61419e-035	0	1	4	4
50	15.0001	0.25542	0	0	2.61419e-035	0	1	4	4
57	15.2613	0.272834	0	0	2.61419e-035	0	1	4	4
57	15.6154	0.133514	0	0	2.61419e-035	0	1	4	4
57	15.7489	0.0696602	0	0	2.61419e-035	0	1	4	4
57	15.8244	0.19737	0	0	2.61419e-035	0	1	4	4
57	16.0276	0.0464401	0	0	2.61419e-035	0	1	4	4
57	16.0972	0.0580502	0	0	2.61419e-035	0	1	4	4
57	16.254	0.0522461	0	0	2.61419e-035	0	1	4	4
57	16.3062	0.0232201	0	0	2.61419e-035	0	1	4	4
57	16.3701	0.0754642	0	0	2.61419e-035	0	1	4	4
57	16.4862	0.0870743	0	0	2.61419e-035	0	1	4	4
57	16.5732	0.0928802	0	0	2.61419e-035	0	1	4	4
62	17.9142	0.0464401	0	0	2.61419e-035	0	1	4	4
57	18.3438	0.156734	0	0	2.61419e-035	0	1	4	4
57	18.5179	0.0754642	0	0	2.61419e-035	0	1	4	4
60	18.8314	0.0406342	0	0	2.61419e-035	0	1	4	4
61	19.1739	0.0232201	0	0	2.61419e-035	0	1	4	4
55	19.5222	0.0348301	0	0	2.61419e-035	0	1	4	4
57	19.8182	0.220589	0	0	2.61419e-035	0	1	4	4
56	20.0388	0.0232201	0	0	2.61419e-035	0	1	4	4
57	20.0737	0.0232201	0	0	2.61419e-035	0	1	4	4
57	20.2304	0.0928802	0	0	2.61419e-035	0	1	4	4
57	20.3465	0.0522442	0	0	2.61419e-035	0	1	4	4
56	20.5497	0.0232201	0	0	2.61419e-035	0	1	4	4
57	20.5903	0.029026	0	0	2.61419e-035	0	1	4	4
57	20.6251	0.0406361	0	0	2.61419e-035	0	1	4	4
57	20.7064	0.0464401	0	0	2.61419e-035	0	1	4	4
57	20.7819	0.10449	0	0	2.61419e-035	0	1	4	4
61	21.0199	0.0638561	0	0	2.61419e-035	0	1	4	4
59	21.2288	0.0232201	0	0	2.61419e-035	0	1	4	4
59	21.3333	0.0232201	0	0	2.61419e-035	0	1	4	4
60	21.3624	0.0232201	0	0	2.61419e-035	0	1	4	4
59	21.3914	0.0348301	0	0	2.61419e-035	0	1	4	4
60	21.4262	0.0696602	0	0	2.61419e-035	0	1	4	4
60	21.4959	0.0406342	0	0	2.61419e-035	0	1	4	4
60	21.6468	0.0522442	0	0	2.61419e-035	0	1	4	4
60	21.7397	0.0464401	0	0	2.61419e-035	0	1	4	4
60	21.7977	0.0638561	0	0	2.61419e-035	0	1	4	4
60	22.1228	0.0580482	0	0	2.61419e-035	0	1	4	4
60	22.3086	0.0406342	0	0	2.61419e-035	0	1	4	4
63	22.4189	0.029026	0	0	2.61419e-035	0	1	4	4
60	22.564	0.0232201	0	0	2.61419e-035	0	1	4	4
58	22.8542	0.0232201	0	0	2.61419e-035	0	1	4	4
58	22.9007	0.0290241	0	0	2.61419e-035	0	1	4	4
58	22.9355	0.133514	0	0	2.61419e-035	0	1	4	4
58	23.069	0.0348301	0	0	2.61419e-035	0	1	4	4
58	23.1039	0.0290241	0	0	2.61419e-035	0	1	4	4
57	23.2664	0.0232201	0	0	2.61419e-035	0	1	4	4
58	23.545	0.0232201	0	0	2.61419e-035	0	1	4	4
57	23.6263	0.0232201	0	0	2.61419e-035	0	1	4	4
57	23.7366	0.0696583	0	0	2.61419e-035	0	1	4	4
57	23.8063	0.0638561	0	0	2.61419e-035	0	1	4	4
57	23.8991	0.0696602	0	0	2.61419e-035	0	1	4	4
57	23.9746	0.0406342	0	0	2.61419e-035	0	1	4	4
57	24.0675	0.0580502	0	0	2.61419e-035	0	1	4	4
59	24.439	0.0232201	0	0	2.61419e-035	0	1	4	4
57	24.4971	0.0406361	0	0	2.61419e-035	0	1	4	4
57	24.5841	0.0870743	0	0	2.61419e-035	0	1	4	4
57	24.7002	0.0464401	0	0	2.61419e-035	0	1	4	4
56	24.8279	0.0232201	0	0	2.61419e-035	0	1	4	4
56	25.153	0.0406361	0	0	2.61419e-035	0	1	4	4
57	25.4026	0.0232201	0	0	2.61419e-035	0	1	4	4
57	25.4317	0.0348301	0	0	2.61419e-035	0	1	4	4
57	25.6929	0.0638561	0	0	2.61419e-035	0	1	4	4
57	25.7625	0.0232201	0	0	2.61419e-035	0	1	4	4
57	25.9773	0.029026	0	0	2.61419e-035	0	1	4	4
57	26.0063	0.0580482	0	0	2.61419e-035	0	1	4	4
57	26.0818	0.0754642	0	0	2.61419e-035	0	1	4	4
57	26.1921	0.029026	0	0	2.61419e-035	0	1	4	4
57	26.2269	0.0348301	0	0	2.61419e-035	0	1	4	4
60	26.3082	0.0290241	0	0	2.61419e-035	0	1	4	4
57	26.3605	0.0406361	0	0	2.61419e-035	0	1	4	4
54	26.4417	0.0348301	0	0	2.61419e-035	0	1	4	4
57	26.4824	0.0348301	0	0	2.61419e-035	0	1	4	4
54	26.5172	0.0522461	0	0	2.61419e-035	0	1	4	4
57	26.5694	0.0580502	0	0	2.61419e-035	0	1	4	4
56	26.7552	0.029026	0	0	2.61419e-035	0	1	4	4
57	27.5795	0.0348301	0	0	2.61419e-035	0	1	4	4
57	27.9684	0.0406342	0	0	2.61419e-035	0	1	4	4
57	28.0671	0.0406342	0	0	2.61419e-035	0	1	4	4
57	28.1136	0.0290241	0	0	2.61419e-035	0	1	4	4
61	28.5663	0.0348301	0	0	2.61419e-035	0	1	4	4
