midiPitch 	 onsetSec 	 durationSec 	 onsetBeats 	 onsetBarIndex 	 onsetBar 	 durationBeats 	 velocity  	 numerator 	 denominator 
79	1.32934	0.133515	0	0	2.20035e-035	0	1	4	4
79	1.46866	0.214785	0	0	2.20035e-035	0	1	4	4
79	1.70667	0.214785	0	0	2.20035e-035	0	1	4	4
76	2.28717	0.0638549	0	0	2.20035e-035	0	1	4	4
73	2.35102	0.0464399	0	0	2.20035e-035	0	1	4	4
73	2.39746	0.226395	0	0	2.20035e-035	0	1	4	4
76	2.66449	0.0522449	0	0	2.20035e-035	0	1	4	4
73	2.71673	0.12771	0	0	2.20035e-035	0	1	4	4
73	2.93152	0.296054	0	0	2.20035e-035	0	1	4	4
77	3.23918	0.0870748	0	0	2.20035e-035	0	1	4	4
73	3.32626	0.110295	0	0	2.20035e-035	0	1	4	4
73	3.46558	0.27864	0	0	2.20035e-035	0	1	4	4
73	3.82549	0.243809	0	0	2.20035e-035	0	1	4	4
73	4.26086	0.0812702	0	0	2.20035e-035	0	1	4	4
72	4.71946	0.238005	0	0	2.20035e-035	0	1	4	4
72	5.11419	0.0928798	0	0	2.20035e-035	0	1	4	4
71	5.33478	0.214785	0	0	2.20035e-035	0	1	4	4
71	5.67147	0.1161	0	0	2.20035e-035	0	1	4	4
74	5.90367	0.10449	0	0	2.20035e-035	0	1	4	4
69	6.0488	0.191565	0	0	2.20035e-035	0	1	4	4
72	7.04145	0.330884	0	0	2.20035e-035	0	1	4	4
72	7.39556	0.139319	0	0	2.20035e-035	0	1	4	4
71	7.58712	0.0348301	0	0	2.20035e-035	0	1	4	4
54	7.61034	0.0232201	0	0	2.20035e-035	0	1	4	4
54	7.63936	0.0232201	0	0	2.20035e-035	0	1	4	4
54	7.71483	0.191565	0	0	2.20035e-035	0	1	4	4
54	7.90639	0.0290251	0	0	2.20035e-035	0	1	4	4
50	8.18503	0.121904	0	0	2.20035e-035	0	1	4	4
50	8.53914	0.17415	0	0	2.20035e-035	0	1	4	4
54	8.7249	0.168345	0	0	2.20035e-035	0	1	4	4
57	8.92227	0.110295	0	0	2.20035e-035	0	1	4	4
54	9.09061	0.168344	0	0	2.20035e-035	0	1	4	4
45	9.36345	0.1161	0	0	2.20035e-035	0	1	4	4
73	9.34603	0.17415	0	0	2.20035e-035	0	1	4	4
78	9.6537	0.0290251	0	0	2.20035e-035	0	1	4	4
79	9.87429	0.17415	0	0	2.20035e-035	0	1	4	4
79	10.06	0.191565	0	0	2.20035e-035	0	1	4	4
79	10.2632	0.0232201	0	0	2.20035e-035	0	1	4	4
54	11.4416	0.13932	0	0	2.20035e-035	0	1	4	4
57	11.5926	0.226395	0	0	2.20035e-035	0	1	4	4
57	12.0047	0.191565	0	0	2.20035e-035	0	1	4	4
54	12.2311	0.0232201	0	0	2.20035e-035	0	1	4	4
54	12.2601	0.0232201	0	0	2.20035e-035	0	1	4	4
54	12.3124	0.0232201	0	0	2.20035e-035	0	1	4	4
54	12.3937	0.121904	0	0	2.20035e-035	0	1	4	4
54	12.5156	0.0348301	0	0	2.20035e-035	0	1	4	4
54	12.5504	0.20898	0	0	2.20035e-035	0	1	4	4
54	12.7594	0.0290251	0	0	2.20035e-035	0	1	4	4
53	12.7884	0.0522442	0	0	2.20035e-035	0	1	4	4
52	12.858	0.121905	0	0	2.20035e-035	0	1	4	4
57	12.98	0.0406342	0	0	2.20035e-035	0	1	4	4
52	13.1657	0.0348301	0	0	2.20035e-035	0	1	4	4
69	12.8232	0.55728	0	0	2.20035e-035	0	1	4	4
73	13.3921	0.226395	0	0	2.20035e-035	0	1	4	4
66	14.0423	0.12771	0	0	2.20035e-035	0	1	4	4
76	14.17	0.156734	0	0	2.20035e-035	0	1	4	4
68	14.3267	0.139319	0	0	2.20035e-035	0	1	4	4
66	14.5647	0.19737	0	0	2.20035e-035	0	1	4	4
64	14.9478	0.203175	0	0	2.20035e-035	0	1	4	4
62	15.7431	0.20898	0	0	2.20035e-035	0	1	4	4
54	16.3875	0.267029	0	0	2.20035e-035	0	1	4	4
54	16.6545	0.0290241	0	0	2.20035e-035	0	1	4	4
69	17.0086	0.162539	0	0	2.20035e-035	0	1	4	4
50	17.1712	0.13932	0	0	2.20035e-035	0	1	4	4
52	17.3917	0.150928	0	0	2.20035e-035	0	1	4	4
62	17.9781	0.0580502	0	0	2.20035e-035	0	1	4	4
60	18.1812	0.272833	0	0	2.20035e-035	0	1	4	4
57	18.7791	0.301859	0	0	2.20035e-035	0	1	4	4
57	19.1797	0.191565	0	0	2.20035e-035	0	1	4	4
57	19.4293	0.12771	0	0	2.20035e-035	0	1	4	4
60	19.5628	0.121904	0	0	2.20035e-035	0	1	4	4
62	19.7312	0.15093	0	0	2.20035e-035	0	1	4	4
63	19.9285	0.226395	0	0	2.20035e-035	0	1	4	4
60	20.1607	0.145124	0	0	2.20035e-035	0	1	4	4
55	21.0953	0.0290241	0	0	2.20035e-035	0	1	4	4
62	21.403	0.18576	0	0	2.20035e-035	0	1	4	4
50	21.699	0.17415	0	0	2.20035e-035	0	1	4	4
56	21.9196	0.121904	0	0	2.20035e-035	0	1	4	4
55	22.1286	0.0464401	0	0	2.20035e-035	0	1	4	4
53	22.3028	0.0232201	0	0	2.20035e-035	0	1	4	4
55	22.3782	0.0928802	0	0	2.20035e-035	0	1	4	4
57	22.7381	0.0986843	0	0	2.20035e-035	0	1	4	4
56	22.8368	0.0870762	0	0	2.20035e-035	0	1	4	4
65	23.3419	0.0290241	0	0	2.20035e-035	0	1	4	4
66	23.3709	0.0696602	0	0	2.20035e-035	0	1	4	4
69	23.4522	0.133514	0	0	2.20035e-035	0	1	4	4
69	23.5857	0.632744	0	0	2.20035e-035	0	1	4	4
69	24.2184	0.0348301	0	0	2.20035e-035	0	1	4	4
66	24.2532	0.0928802	0	0	2.20035e-035	0	1	4	4
73	24.5783	0.179955	0	0	2.20035e-035	0	1	4	4
66	25.6464	0.0754662	0	0	2.20035e-035	0	1	4	4
69	25.7219	0.116098	0	0	2.20035e-035	0	1	4	4
69	25.838	0.15093	0	0	2.20035e-035	0	1	4	4
69	26.0063	0.406349	0	0	2.20035e-035	0	1	4	4
66	26.4185	0.1161	0	0	2.20035e-035	0	1	4	4
72	26.761	0.104488	0	0	2.20035e-035	0	1	4	4
72	26.9061	0.0348301	0	0	2.20035e-035	0	1	4	4
71	26.9468	0.0986862	0	0	2.20035e-035	0	1	4	4
69	27.0803	0.66177	0	0	2.20035e-035	0	1	4	4
65	28.0497	0.0290241	0	0	2.20035e-035	0	1	4	4
66	28.0787	0.0986843	0	0	2.20035e-035	0	1	4	4
69	28.1832	0.127708	0	0	2.20035e-035	0	1	4	4
69	28.3109	0.191565	0	0	2.20035e-035	0	1	4	4
69	28.5025	0.388935	0	0	2.20035e-035	0	1	4	4
66	28.8914	0.0812702	0	0	2.20035e-035	0	1	4	4
66	28.9727	0.0290241	0	0	2.20035e-035	0	1	4	4
67	29.0017	0.15093	0	0	2.20035e-035	0	1	4	4
71	29.2513	0.12771	0	0	2.20035e-035	0	1	4	4
71	29.379	0.226395	0	0	2.20035e-035	0	1	4	4
