midiPitch 	 onsetSec 	 durationSec 	 onsetBeats 	 onsetBarIndex 	 onsetBar 	 durationBeats 	 velocity  	 numerator 	 denominator 
60	0.0696599	0.12771	0	0	0	0	1	4	4
64	0.19737	0.12771	0	0	0	0	1	4	4
64	0.325079	0.110295	0	0	0	0	1	4	4
60	0.435374	0.0812699	0	0	0	0	1	4	4
67	0.516644	0.342494	0	0	0	0	1	4	4
67	0.859138	0.388934	0	0	0	0	1	4	4
55	0.911383	0.563084	0	0	0	0	1	4	4
55	1.49188	0.1161	0	0	0	0	1	4	4
48	1.60798	0.348299	0	0	0	0	1	4	4
64	1.88662	0.27864	0	0	0	0	1	4	4
67	2.24653	0.0464399	0	0	0	0	1	4	4
67	2.31619	0.348299	0	0	0	0	1	4	4
69	2.68771	0.0232198	0	0	0	0	1	4	4
53	2.67029	0.592109	0	0	0	0	1	4	4
53	3.32626	0.0696599	0	0	0	0	1	4	4
69	3.24499	0.272834	0	0	0	0	1	4	4
69	3.51782	0.319274	0	0	0	0	1	4	4
69	3.84871	0.255419	0	0	0	0	1	4	4
69	4.10413	0.214785	0	0	0	0	1	4	4
69	4.37696	0.0232201	0	0	0	0	1	4	4
72	4.49306	0.179955	0	0	0	0	1	4	4
69	4.67302	0.0580502	0	0	0	0	1	4	4
72	4.71365	0.145125	0	0	0	0	1	4	4
74	4.882	0.296054	0	0	0	0	1	4	4
55	4.86458	0.911383	0	0	0	0	1	4	4
55	5.80499	0.12771	0	0	0	0	1	4	4
55	5.9385	0.191565	0	0	0	0	1	4	4
74	6.69896	0.0638547	0	0	0	0	1	4	4
74	6.76281	0.25542	0	0	0	0	1	4	4
72	7.3259	0.0870748	0	0	0	0	1	4	4
72	7.42458	0.0464396	0	0	0	0	1	4	4
72	7.50585	0.10449	0	0	0	0	1	4	4
72	7.61034	0.110295	0	0	0	0	1	4	4
72	7.73805	0.0464401	0	0	0	0	1	4	4
72	7.90059	0.0232201	0	0	0	0	1	4	4
72	7.94122	0.0464396	0	0	0	0	1	4	4
72	7.98766	0.330884	0	0	0	0	1	4	4
72	8.31855	0.3483	0	0	0	0	1	4	4
72	8.80617	0.0232201	0	0	0	0	1	4	4
72	8.93388	0.12771	0	0	0	0	1	4	4
72	9.10222	0.0870743	0	0	0	0	1	4	4
76	9.1951	0.110295	0	0	0	0	1	4	4
76	9.3054	0.0522442	0	0	0	0	1	4	4
72	9.35764	0.0870752	0	0	0	0	1	4	4
72	9.57823	0.0232201	0	0	0	0	1	4	4
60	9.48535	0.19737	0	0	0	0	1	4	4
60	9.85107	0.0870752	0	0	0	0	1	4	4
60	9.95555	0.0754652	0	0	0	0	1	4	4
60	10.031	0.203175	0	0	0	0	1	4	4
60	10.2458	0.0870752	0	0	0	0	1	4	4
60	10.3677	0.0348301	0	0	0	0	1	4	4
64	10.4374	0.31347	0	0	0	0	1	4	4
64	10.7508	0.150929	0	0	0	0	1	4	4
67	10.9598	0.417958	0	0	0	0	1	4	4
69	11.5868	0.0290251	0	0	0	0	1	4	4
69	11.6622	0.0232201	0	0	0	0	1	4	4
69	11.8712	0.0522451	0	0	0	0	1	4	4
69	11.9351	0.156734	0	0	0	0	1	4	4
69	12.0918	0.203175	0	0	0	0	1	4	4
69	12.295	0.493424	0	0	0	0	1	4	4
69	12.7884	0.296054	0	0	0	0	1	4	4
72	13.1889	0.330884	0	0	0	0	1	4	4
67	13.6301	0.0464392	0	0	0	0	1	4	4
71	13.6824	0.0232201	0	0	0	0	1	4	4
55	13.6359	0.824308	0	0	0	0	1	4	4
55	14.4602	0.0232201	0	0	0	0	1	4	4
71	14.4022	0.19737	0	0	0	0	1	4	4
71	14.5995	0.272834	0	0	0	0	1	4	4
69	15.0059	0.0812693	0	0	0	0	1	4	4
67	15.1975	0.0638552	0	0	0	0	1	4	4
55	15.1684	0.539864	0	0	0	0	1	4	4
48	15.7083	0.0928802	0	0	0	0	1	4	4
67	16.1088	0.156734	0	0	0	0	1	4	4
67	16.2656	0.0580502	0	0	0	0	1	4	4
64	16.4804	0.249615	0	0	0	0	1	4	4
64	16.8635	0.0580502	0	0	0	0	1	4	4
64	16.9273	0.0406342	0	0	0	0	1	4	4
64	17.8794	0.12771	0	0	0	0	1	4	4
64	18.0709	0.0986862	0	0	0	0	1	4	4
64	18.1928	0.0406342	0	0	0	0	1	4	4
64	18.2857	0.0406361	0	0	0	0	1	4	4
67	18.3263	0.0870743	0	0	0	0	1	4	4
64	18.4308	0.0406342	0	0	0	0	1	4	4
60	18.5179	0.0348301	0	0	0	0	1	4	4
64	18.5527	0.0522442	0	0	0	0	1	4	4
64	18.634	0.191565	0	0	0	0	1	4	4
64	18.8256	0.127708	0	0	0	0	1	4	4
64	18.9533	0.12771	0	0	0	0	1	4	4
64	19.1449	0.0696602	0	0	0	0	1	4	4
64	19.2493	0.249615	0	0	0	0	1	4	4
67	19.5164	0.53406	0	0	0	0	1	4	4
65	20.0853	0.0406342	0	0	0	0	1	4	4
69	20.2304	0.0696602	0	0	0	0	1	4	4
65	20.3	0.0580502	0	0	0	0	1	4	4
69	20.3581	0.174149	0	0	0	0	1	4	4
69	20.5729	0.139318	0	0	0	0	1	4	4
69	20.7122	0.0464401	0	0	0	0	1	4	4
69	20.7586	0.307665	0	0	0	0	1	4	4
69	21.1244	0.493423	0	0	0	0	1	4	4
65	21.6178	0.17415	0	0	0	0	1	4	4
72	21.7919	0.0986843	0	0	0	0	1	4	4
72	21.908	0.0696583	0	0	0	0	1	4	4
72	21.9777	0.214785	0	0	0	0	1	4	4
74	22.2854	0.249615	0	0	0	0	1	4	4
67	22.535	0.0986843	0	0	0	0	1	4	4
74	22.6569	0.336689	0	0	0	0	1	4	4
71	22.9936	0.0348301	0	0	0	0	1	4	4
74	23.0284	0.029026	0	0	0	0	1	4	4
74	23.0864	0.0928802	0	0	0	0	1	4	4
71	23.1793	0.18576	0	0	0	0	1	4	4
71	23.4522	0.110294	0	0	0	0	1	4	4
72	23.5683	0.150928	0	0	0	0	1	4	4
72	23.7482	0.0464382	0	0	0	0	1	4	4
72	23.8121	0.0522442	0	0	0	0	1	4	4
72	23.8643	0.0464401	0	0	0	0	1	4	4
67	23.9572	0.0754642	0	0	0	0	1	4	4
74	24.0617	0.0464401	0	0	0	0	1	4	4
74	24.1139	0.232201	0	0	0	0	1	4	4
72	24.3519	0.029026	0	0	0	0	1	4	4
72	24.4971	0.029026	0	0	0	0	1	4	4
72	24.6364	0.0348301	0	0	0	0	1	4	4
72	24.7118	0.133514	0	0	0	0	1	4	4
72	24.8512	0.121904	0	0	0	0	1	4	4
72	24.9731	0.214785	0	0	0	0	1	4	4
72	25.2111	0.522449	0	0	0	0	1	4	4
72	25.7393	0.0754662	0	0	0	0	1	4	4
72	25.8264	0.0870743	0	0	0	0	1	4	4
60	25.7974	0.18576	0	0	0	0	1	4	4
55	25.9831	0.319273	0	0	0	0	1	4	4
60	26.3024	0.13932	0	0	0	0	1	4	4
55	26.4417	0.0754642	0	0	0	0	1	4	4
60	26.5462	0.156734	0	0	0	0	1	4	4
60	26.7494	0.0812702	0	0	0	0	1	4	4
60	26.8423	0.0638542	0	0	0	0	1	4	4
60	26.9235	0.0464401	0	0	0	0	1	4	4
60	27.028	0.0464401	0	0	0	0	1	4	4
60	27.1906	0.0754642	0	0	0	0	1	4	4
60	27.3531	0.0638561	0	0	0	0	1	4	4
60	27.6317	0.0754642	0	0	0	0	1	4	4
60	27.7246	0.0986862	0	0	0	0	1	4	4
72	27.8349	0.325079	0	0	0	0	1	4	4
71	28.16	0.10449	0	0	0	0	1	4	4
71	28.2935	0.168344	0	0	0	0	1	4	4
71	28.4619	0.18576	0	0	0	0	1	4	4
71	28.6476	0.0812683	0	0	0	0	1	4	4
72	28.7289	0.029026	0	0	0	0	1	4	4
69	29.141	0.156734	0	0	0	0	1	4	4
