midiPitch 	 onsetSec 	 durationSec 	 onsetBeats 	 onsetBarIndex 	 onsetBar 	 durationBeats 	 velocity  	 numerator 	 denominator 
59	1.92145	0.191565	0	0	2.53859e-035	0	1	4	4
60	2.14785	0.0232201	0	0	2.53859e-035	0	1	4	4
63	2.17687	0.267029	0	0	2.53859e-035	0	1	4	4
66	2.46712	0.22059	0	0	2.53859e-035	0	1	4	4
66	2.83283	0.145125	0	0	2.53859e-035	0	1	4	4
68	2.97796	0.476009	0	0	2.53859e-035	0	1	4	4
66	3.45397	0.319274	0	0	2.53859e-035	0	1	4	4
66	3.77324	0.975238	0	0	2.53859e-035	0	1	4	4
59	4.90522	0.638549	0	0	2.53859e-035	0	1	4	4
61	6.64671	0.284444	0	0	2.53859e-035	0	1	4	4
63	6.93116	0.3483	0	0	2.53859e-035	0	1	4	4
63	7.27946	0.377324	0	0	2.53859e-035	0	1	4	4
64	8.31274	0.638549	0	0	2.53859e-035	0	1	4	4
64	8.95129	0.307665	0	0	2.53859e-035	0	1	4	4
64	9.28798	0.191565	0	0	2.53859e-035	0	1	4	4
63	9.64209	0.325079	0	0	2.53859e-035	0	1	4	4
62	10.6638	0.145124	0	0	2.53859e-035	0	1	4	4
61	10.8147	0.145125	0	0	2.53859e-035	0	1	4	4
61	10.9598	0.359909	0	0	2.53859e-035	0	1	4	4
81191072	11.372	0.272834	0	0	2.53859e-035	0	1	4	4
60	12.6549	0.319275	0	0	2.53859e-035	0	1	4	4
60	12.9741	0.0290251	0	0	2.53859e-035	0	1	4	4
63	13.0206	0.15093	0	0	2.53859e-035	0	1	4	4
67	13.3631	0.110294	0	0	2.53859e-035	0	1	4	4
67	13.6766	0.145125	0	0	2.53859e-035	0	1	4	4
68	13.8217	0.487618	0	0	2.53859e-035	0	1	4	4
66	14.3093	0.458594	0	0	2.53859e-035	0	1	4	4
66	14.7679	0.737233	0	0	2.53859e-035	0	1	4	4
66	15.5051	0.168345	0	0	2.53859e-035	0	1	4	4
61	17.2756	0.226395	0	0	2.53859e-035	0	1	4	4
63	17.502	0.168344	0	0	2.53859e-035	0	1	4	4
63	17.6704	0.162539	0	0	2.53859e-035	0	1	4	4
63	17.8329	0.539865	0	0	2.53859e-035	0	1	4	4
61	18.7443	0.301859	0	0	2.53859e-035	0	1	4	4
61	19.0462	0.0232201	0	0	2.53859e-035	0	1	4	4
63	19.4293	0.284445	0	0	2.53859e-035	0	1	4	4
63	19.7137	0.278639	0	0	2.53859e-035	0	1	4	4
63	19.9924	0.17415	0	0	2.53859e-035	0	1	4	4
66	20.3929	0.116098	0	0	2.53859e-035	0	1	4	4
68	20.509	0.17415	0	0	2.53859e-035	0	1	4	4
66	20.6832	0.336689	0	0	2.53859e-035	0	1	4	4
83	23.8237	0.481813	0	0	2.53859e-035	0	1	4	4
83	24.8105	0.319275	0	0	2.53859e-035	0	1	4	4
83	25.1704	0.481813	0	0	2.53859e-035	0	1	4	4
78	26.5172	0.261225	0	0	2.53859e-035	0	1	4	4
80	26.7784	0.232201	0	0	2.53859e-035	0	1	4	4
79	27.0106	0.0812683	0	0	2.53859e-035	0	1	4	4
77	27.0919	0.0464401	0	0	2.53859e-035	0	1	4	4
75	28.2703	0.53406	0	0	2.53859e-035	0	1	4	4
73	28.8044	0.145124	0	0	2.53859e-035	0	1	4	4
