midiPitch 	 onsetSec 	 durationSec 	 onsetBeats 	 onsetBarIndex 	 onsetBar 	 durationBeats 	 velocity  	 numerator 	 denominator 
62	0.214785	0.168345	0	0	1.92773e-035	0	1	4	4
59	0.493424	0.0928798	0	0	1.92773e-035	0	1	4	4
59	0.586304	0.0754648	0	0	1.92773e-035	0	1	4	4
63	0.824308	0.0348299	0	0	1.92773e-035	0	1	4	4
61	0.864943	0.121905	0	0	1.92773e-035	0	1	4	4
61	1.12617	0.0232199	0	0	1.92773e-035	0	1	4	4
61	1.14939	0.03483	0	0	1.92773e-035	0	1	4	4
60	1.18422	0.0406349	0	0	1.92773e-035	0	1	4	4
67	1.43383	0.0696598	0	0	1.92773e-035	0	1	4	4
60	1.50349	0.0522449	0	0	1.92773e-035	0	1	4	4
64	1.55574	0.0754648	0	0	1.92773e-035	0	1	4	4
65	1.67184	0.10449	0	0	1.92773e-035	0	1	4	4
63	1.8634	0.040635	0	0	1.92773e-035	0	1	4	4
67	2.10721	0.145125	0	0	1.92773e-035	0	1	4	4
66	2.36844	0.0348299	0	0	1.92773e-035	0	1	4	4
68	2.42649	0.0696597	0	0	1.92773e-035	0	1	4	4
66	2.50195	0.0522449	0	0	1.92773e-035	0	1	4	4
63	3.08825	0.0232198	0	0	1.92773e-035	0	1	4	4
64	3.11147	0.0290251	0	0	1.92773e-035	0	1	4	4
65	3.1463	0.0464399	0	0	1.92773e-035	0	1	4	4
66	3.34367	0.0290248	0	0	1.92773e-035	0	1	4	4
66	3.3785	0.0986848	0	0	1.92773e-035	0	1	4	4
67	3.59909	0.0754647	0	0	1.92773e-035	0	1	4	4
65	3.76163	0.0406349	0	0	1.92773e-035	0	1	4	4
68	3.85451	0.0232198	0	0	1.92773e-035	0	1	4	4
69	3.90676	0.0406349	0	0	1.92773e-035	0	1	4	4
68	3.9532	0.0290248	0	0	1.92773e-035	0	1	4	4
67	3.99383	0.0232201	0	0	1.92773e-035	0	1	4	4
63	4.03447	0.0232196	0	0	1.92773e-035	0	1	4	4
58	4.3073	0.0754647	0	0	1.92773e-035	0	1	4	4
58	4.58014	0.0290251	0	0	1.92773e-035	0	1	4	4
59	4.61497	0.19737	0	0	1.92773e-035	0	1	4	4
59	4.96327	0.267029	0	0	1.92773e-035	0	1	4	4
62	5.50893	0.0754652	0	0	1.92773e-035	0	1	4	4
59	5.60181	0.0696602	0	0	1.92773e-035	0	1	4	4
57	5.67147	0.0348296	0	0	1.92773e-035	0	1	4	4
58	5.74694	0.0812697	0	0	1.92773e-035	0	1	4	4
58	5.99655	0.1161	0	0	1.92773e-035	0	1	4	4
58	6.281	0.1161	0	0	1.92773e-035	0	1	4	4
58	6.42032	0.0406351	0	0	1.92773e-035	0	1	4	4
58	6.46676	0.0348301	0	0	1.92773e-035	0	1	4	4
59	6.52481	0.0232201	0	0	1.92773e-035	0	1	4	4
56	6.88472	0.0406346	0	0	1.92773e-035	0	1	4	4
54	6.93116	0.0232201	0	0	1.92773e-035	0	1	4	4
54	6.9776	0.0870748	0	0	1.92773e-035	0	1	4	4
54	7.34331	0.0406351	0	0	1.92773e-035	0	1	4	4
55	7.63936	0.0812702	0	0	1.92773e-035	0	1	4	4
51	7.79029	0.0290251	0	0	1.92773e-035	0	1	4	4
57	8.16181	0.0406351	0	0	1.92773e-035	0	1	4	4
56	8.20825	0.0696602	0	0	1.92773e-035	0	1	4	4
56	8.39401	0.0986853	0	0	1.92773e-035	0	1	4	4
55	8.4927	0.0638542	0	0	1.92773e-035	0	1	4	4
54	8.93968	0.0290251	0	0	1.92773e-035	0	1	4	4
56	9.079	0.0348301	0	0	1.92773e-035	0	1	4	4
55	9.15447	0.10449	0	0	1.92773e-035	0	1	4	4
55	9.45633	0.0928793	0	0	1.92773e-035	0	1	4	4
56	9.7756	0.0348301	0	0	1.92773e-035	0	1	4	4
55	9.85107	0.0406351	0	0	1.92773e-035	0	1	4	4
55	9.89751	0.104489	0	0	1.92773e-035	0	1	4	4
56	10.0194	0.0348301	0	0	1.92773e-035	0	1	4	4
57	10.1413	0.0638542	0	0	1.92773e-035	0	1	4	4
57	10.211	0.0232201	0	0	1.92773e-035	0	1	4	4
56	10.2458	0.0290251	0	0	1.92773e-035	0	1	4	4
56	10.2922	0.0638542	0	0	1.92773e-035	0	1	4	4
55	10.3561	0.0464401	0	0	1.92773e-035	0	1	4	4
54	10.4025	0.0348301	0	0	1.92773e-035	0	1	4	4
57	10.4722	0.0348301	0	0	1.92773e-035	0	1	4	4
56	10.5419	0.0232191	0	0	1.92773e-035	0	1	4	4
55	10.5651	0.0348301	0	0	1.92773e-035	0	1	4	4
56	10.8205	0.133515	0	0	1.92773e-035	0	1	4	4
56	10.9888	0.0348301	0	0	1.92773e-035	0	1	4	4
56	11.0295	0.0290251	0	0	1.92773e-035	0	1	4	4
57	11.1224	0.0348301	0	0	1.92773e-035	0	1	4	4
56	11.1688	0.0870743	0	0	1.92773e-035	0	1	4	4
56	11.2559	0.0986853	0	0	1.92773e-035	0	1	4	4
57	11.4474	0.0232201	0	0	1.92773e-035	0	1	4	4
57	11.6622	0.0696602	0	0	1.92773e-035	0	1	4	4
55	11.7725	0.0986843	0	0	1.92773e-035	0	1	4	4
55	12.0628	0.0290251	0	0	1.92773e-035	0	1	4	4
55	12.1731	0.0290241	0	0	1.92773e-035	0	1	4	4
57	12.2311	0.0406351	0	0	1.92773e-035	0	1	4	4
57	12.4053	0.0232201	0	0	1.92773e-035	0	1	4	4
54	12.4923	0.0232201	0	0	1.92773e-035	0	1	4	4
54	12.5156	0.0290251	0	0	1.92773e-035	0	1	4	4
55	12.6665	0.0580502	0	0	1.92773e-035	0	1	4	4
56	12.7652	0.0464392	0	0	1.92773e-035	0	1	4	4
59	13.0961	0.0232201	0	0	1.92773e-035	0	1	4	4
56	13.3283	0.0232201	0	0	1.92773e-035	0	1	4	4
57	13.5779	0.0754642	0	0	1.92773e-035	0	1	4	4
56	13.6533	0.0348301	0	0	1.92773e-035	0	1	4	4
60	13.9784	0.0232201	0	0	1.92773e-035	0	1	4	4
57	14.0713	0.0870752	0	0	1.92773e-035	0	1	4	4
57	14.2512	0.0290251	0	0	1.92773e-035	0	1	4	4
56	14.2919	0.0464401	0	0	1.92773e-035	0	1	4	4
56	14.6344	0.0232191	0	0	1.92773e-035	0	1	4	4
54	14.9653	0.0406351	0	0	1.92773e-035	0	1	4	4
57	15.1394	0.0754652	0	0	1.92773e-035	0	1	4	4
54	15.6328	0.0348301	0	0	1.92773e-035	0	1	4	4
55	15.8999	0.0232201	0	0	1.92773e-035	0	1	4	4
57	16.1727	0.0348282	0	0	1.92773e-035	0	1	4	4
58	16.2307	0.16254	0	0	1.92773e-035	0	1	4	4
57	16.4339	0.0348301	0	0	1.92773e-035	0	1	4	4
57	16.4746	0.0232201	0	0	1.92773e-035	0	1	4	4
56	16.5384	0.029026	0	0	1.92773e-035	0	1	4	4
54	16.6081	0.0522442	0	0	1.92773e-035	0	1	4	4
54	16.6603	0.029026	0	0	1.92773e-035	0	1	4	4
59	17.0434	0.0638561	0	0	1.92773e-035	0	1	4	4
59	17.1712	0.0232201	0	0	1.92773e-035	0	1	4	4
60	17.2002	0.174149	0	0	1.92773e-035	0	1	4	4
61	17.6588	0.0406342	0	0	1.92773e-035	0	1	4	4
60	18.7907	0.0406342	0	0	1.92773e-035	0	1	4	4
62	18.8778	0.0812702	0	0	1.92773e-035	0	1	4	4
61	19.081	0.0522442	0	0	1.92773e-035	0	1	4	4
57	19.4293	0.203175	0	0	1.92773e-035	0	1	4	4
60	19.9227	0.0638561	0	0	1.92773e-035	0	1	4	4
59	20.0853	0.10449	0	0	1.92773e-035	0	1	4	4
60	20.2362	0.0870743	0	0	1.92773e-035	0	1	4	4
57	20.3233	0.0522442	0	0	1.92773e-035	0	1	4	4
59	20.5148	0.0348301	0	0	1.92773e-035	0	1	4	4
59	20.5555	0.0638561	0	0	1.92773e-035	0	1	4	4
60	20.7238	0.10449	0	0	1.92773e-035	0	1	4	4
58	20.8283	0.145124	0	0	1.92773e-035	0	1	4	4
51568800	21.2405	0.121904	0	0	1.92773e-035	0	1	4	4
60	21.3624	0.133514	0	0	1.92773e-035	0	1	4	4
59	22.0125	0.168344	0	0	1.92773e-035	0	1	4	4
59	22.355	0.214785	0	0	1.92773e-035	0	1	4	4
57	22.9065	0.0348301	0	0	1.92773e-035	0	1	4	4
59	22.9645	0.0232201	0	0	1.92773e-035	0	1	4	4
58	22.9936	0.18576	0	0	1.92773e-035	0	1	4	4
54	23.307	0.145124	0	0	1.92773e-035	0	1	4	4
55	23.9514	0.0464382	0	0	1.92773e-035	0	1	4	4
56	24.0965	0.133514	0	0	1.92773e-035	0	1	4	4
54	24.3751	0.1161	0	0	1.92773e-035	0	1	4	4
55	24.5667	0.1161	0	0	1.92773e-035	0	1	4	4
54	24.6828	0.0870743	0	0	1.92773e-035	0	1	4	4
55	24.9208	0.0870743	0	0	1.92773e-035	0	1	4	4
55	25.1008	0.0638542	0	0	1.92773e-035	0	1	4	4
55	25.2633	0.1161	0	0	1.92773e-035	0	1	4	4
56	25.391	0.0986843	0	0	1.92773e-035	0	1	4	4
58	25.9367	0.0696602	0	0	1.92773e-035	0	1	4	4
56	26.2153	0.18576	0	0	1.92773e-035	0	1	4	4
57	26.5694	0.179955	0	0	1.92773e-035	0	1	4	4
61	27.1557	0.0580502	0	0	1.92773e-035	0	1	4	4
61	27.3241	0.0348301	0	0	1.92773e-035	0	1	4	4
60	27.3589	0.0290241	0	0	1.92773e-035	0	1	4	4
59	27.4286	0.0986843	0	0	1.92773e-035	0	1	4	4
59	27.5273	0.174149	0	0	1.92773e-035	0	1	4	4
61	27.8814	0.0812702	0	0	1.92773e-035	0	1	4	4
59	27.9626	0.110296	0	0	1.92773e-035	0	1	4	4
59	28.1368	0.0232201	0	0	1.92773e-035	0	1	4	4
59	28.1658	0.1161	0	0	1.92773e-035	0	1	4	4
59	28.4212	0.133514	0	0	1.92773e-035	0	1	4	4
58	28.5547	0.145124	0	0	1.92773e-035	0	1	4	4
60	28.7985	0.133514	0	0	1.92773e-035	0	1	4	4
60	29.112	0.13932	0	0	1.92773e-035	0	1	4	4
59	29.2513	0.0928802	0	0	1.92773e-035	0	1	4	4
59	29.3442	0.0232201	0	0	1.92773e-035	0	1	4	4
59	29.4487	0.104488	0	0	1.92773e-035	0	1	4	4
