midiPitch 	 onsetSec 	 durationSec 	 onsetBeats 	 onsetBarIndex 	 onsetBar 	 durationBeats 	 velocity  	 numerator 	 denominator 
87	0.336689	0.02322	0	0	0	0	1	4	4
87	0.377324	0.133515	0	0	0	0	1	4	4
87	0.621134	0.0464399	0	0	0	0	1	4	4
87	0.708209	0.0928798	0	0	0	0	1	4	4
87	0.934603	0.0406349	0	0	0	0	1	4	4
87	1.07392	0.029025	0	0	0	0	1	4	4
87	1.11456	0.0812699	0	0	0	0	1	4	4
87	1.20163	0.0696598	0	0	0	0	1	4	4
87	1.35837	0.0232199	0	0	0	0	1	4	4
87	1.38739	0.0406349	0	0	0	0	1	4	4
86	1.42803	0.03483	0	0	0	0	1	4	4
86	1.46866	0.0232199	0	0	0	0	1	4	4
86	1.71828	0.0406349	0	0	0	0	1	4	4
87	1.77052	0.0464399	0	0	0	0	1	4	4
80	2.52517	0.0580499	0	0	0	0	1	4	4
80	2.58322	0.0232198	0	0	0	0	1	4	4
80	3.21596	0.15093	0	0	0	0	1	4	4
80	3.36689	0.0638549	0	0	0	0	1	4	4
80	3.43075	0.0638549	0	0	0	0	1	4	4
80	3.51202	0.09288	0	0	0	0	1	4	4
80	3.6049	0.0754647	0	0	0	0	1	4	4
80	3.86032	0.0986848	0	0	0	0	1	4	4
80	3.959	0.0464399	0	0	0	0	1	4	4
80	4.03447	0.145124	0	0	0	0	1	4	4
80	4.17959	0.0290251	0	0	0	0	1	4	4
80	4.23184	0.0696597	0	0	0	0	1	4	4
80	4.3015	0.0406351	0	0	0	0	1	4	4
80	4.80073	0.0986848	0	0	0	0	1	4	4
82	7.10531	0.0580497	0	0	0	0	1	4	4
82	7.19819	0.0348296	0	0	0	0	1	4	4
82	7.38975	0.0986848	0	0	0	0	1	4	4
82	7.48844	0.0464396	0	0	0	0	1	4	4
82	7.55229	0.1161	0	0	0	0	1	4	4
82	7.7961	0.0406351	0	0	0	0	1	4	4
82	7.83673	0.0348296	0	0	0	0	1	4	4
82	7.88898	0.10449	0	0	0	0	1	4	4
82	7.99347	0.0406351	0	0	0	0	1	4	4
82	8.07474	0.0986843	0	0	0	0	1	4	4
82	8.17342	0.0232201	0	0	0	0	1	4	4
82	8.19664	0.0638552	0	0	0	0	1	4	4
82	8.2605	0.0638542	0	0	0	0	1	4	4
82	8.32435	0.133515	0	0	0	0	1	4	4
82	8.45787	0.0812693	0	0	0	0	1	4	4
82	8.56236	0.1161	0	0	0	0	1	4	4
82	8.67846	0.0348291	0	0	0	0	1	4	4
82	8.7249	0.1161	0	0	0	0	1	4	4
82	8.87583	0.133514	0	0	0	0	1	4	4
82	9.14286	0.0290251	0	0	0	0	1	4	4
82	9.18349	0.162539	0	0	0	0	1	4	4
82	9.38086	0.0348301	0	0	0	0	1	4	4
82	9.41569	0.150929	0	0	0	0	1	4	4
82	9.61887	0.0928802	0	0	0	0	1	4	4
82	9.71175	0.0232201	0	0	0	0	1	4	4
82	9.85107	0.0638552	0	0	0	0	1	4	4
82	9.99619	0.0522451	0	0	0	0	1	4	4
82	10.0659	0.0754652	0	0	0	0	1	4	4
82	10.1529	0.0290251	0	0	0	0	1	4	4
82	10.211	0.0290251	0	0	0	0	1	4	4
82	10.2516	0.0754652	0	0	0	0	1	4	4
80	10.3735	0.0232201	0	0	0	0	1	4	4
82	10.4432	0.0696602	0	0	0	0	1	4	4
82	10.5709	0.0290251	0	0	0	0	1	4	4
75	10.658	0.0232201	0	0	0	0	1	4	4
82	10.8147	0.0232201	0	0	0	0	1	4	4
82	10.9598	0.0464392	0	0	0	0	1	4	4
82	11.1514	0.0348291	0	0	0	0	1	4	4
82	11.3023	0.0290251	0	0	0	0	1	4	4
82	11.4068	0.0232201	0	0	0	0	1	4	4
82	11.4358	0.133515	0	0	0	0	1	4	4
82	11.6158	0.0232201	0	0	0	0	1	4	4
80	11.8306	0.156735	0	0	0	0	1	4	4
80	11.9873	0.0290241	0	0	0	0	1	4	4
80	12.0454	0.0406351	0	0	0	0	1	4	4
80	12.086	0.121904	0	0	0	0	1	4	4
80	12.2079	0.0348301	0	0	0	0	1	4	4
80	12.2601	0.0812702	0	0	0	0	1	4	4
80	12.4749	0.0290251	0	0	0	0	1	4	4
80	12.5446	0.0696592	0	0	0	0	1	4	4
80	12.6839	0.145124	0	0	0	0	1	4	4
80	12.829	0.0348301	0	0	0	0	1	4	4
80	12.8639	0.214785	0	0	0	0	1	4	4
80	13.0902	0.10449	0	0	0	0	1	4	4
80	13.218	0.0290241	0	0	0	0	1	4	4
80	13.2818	0.0290251	0	0	0	0	1	4	4
80	13.3108	0.0464401	0	0	0	0	1	4	4
80	13.3805	0.0812693	0	0	0	0	1	4	4
80	13.5895	0.0638542	0	0	0	0	1	4	4
80	13.6766	0.0754652	0	0	0	0	1	4	4
80	13.7927	0.0232201	0	0	0	0	1	4	4
80	13.8275	0.0406342	0	0	0	0	1	4	4
80	13.9378	0.0348301	0	0	0	0	1	4	4
80	14.0771	0.0812702	0	0	0	0	1	4	4
80	14.1584	0.0232201	0	0	0	0	1	4	4
80	14.1816	0.19737	0	0	0	0	1	4	4
80	14.379	0.0290251	0	0	0	0	1	4	4
73	14.408	0.0406351	0	0	0	0	1	4	4
80	14.437	0.01161	0	0	0	0	1	4	4
73	14.408	0.0464392	0	0	0	0	1	4	4
80	14.437	0.0580492	0	0	0	0	1	4	4
80	14.5183	0.0290251	0	0	0	0	1	4	4
80	14.5473	0.0348301	0	0	0	0	1	4	4
80	14.5879	0.0406351	0	0	0	0	1	4	4
80	14.6402	0.0522442	0	0	0	0	1	4	4
80	14.6924	0.0522451	0	0	0	0	1	4	4
80	14.7447	0.121904	0	0	0	0	1	4	4
80	14.7447	0.127709	0	0	0	0	1	4	4
73	14.8608	0.0116091	0	0	0	0	1	4	4
80	14.7447	0.133514	0	0	0	0	1	4	4
73	14.8608	0.0696592	0	0	0	0	1	4	4
80	14.9304	0.0522451	0	0	0	0	1	4	4
80	15.0639	0.0928793	0	0	0	0	1	4	4
80	15.1568	0.0290251	0	0	0	0	1	4	4
80	15.2439	0.0986843	0	0	0	0	1	4	4
80	15.3426	0.0638552	0	0	0	0	1	4	4
80	15.418	0.116099	0	0	0	0	1	4	4
80	15.5341	0.0580502	0	0	0	0	1	4	4
80	15.7199	0.1161	0	0	0	0	1	4	4
80	15.836	0.0870743	0	0	0	0	1	4	4
80	15.9289	0.121904	0	0	0	0	1	4	4
80	16.1959	0.0580502	0	0	0	0	1	4	4
80	16.3062	0.243809	0	0	0	0	1	4	4
80	16.5965	0.0580502	0	0	0	0	1	4	4
80	16.7068	0.0406361	0	0	0	0	1	4	4
80	16.7474	0.232199	0	0	0	0	1	4	4
80	16.9796	0.0522442	0	0	0	0	1	4	4
80	17.0841	0.156734	0	0	0	0	1	4	4
80	17.2408	0.0522442	0	0	0	0	1	4	4
80	17.2931	0.0580502	0	0	0	0	1	4	4
80	17.3511	0.0232201	0	0	0	0	1	4	4
80	17.3801	0.133514	0	0	0	0	1	4	4
80	17.5137	0.0928802	0	0	0	0	1	4	4
80	17.6065	0.0696583	0	0	0	0	1	4	4
82	17.8561	0.0580502	0	0	0	0	1	4	4
82	18.0477	0.290251	0	0	0	0	1	4	4
73	18.367	0.0464401	0	0	0	0	1	4	4
82	18.4773	0.0638561	0	0	0	0	1	4	4
82	18.5469	0.0406361	0	0	0	0	1	4	4
82	18.5876	0.110294	0	0	0	0	1	4	4
82	18.7675	0.0812702	0	0	0	0	1	4	4
82	18.8488	0.0812683	0	0	0	0	1	4	4
82	18.9301	0.0754662	0	0	0	0	1	4	4
82	19.0055	0.0696583	0	0	0	0	1	4	4
82	19.0752	0.0348301	0	0	0	0	1	4	4
82	19.1158	0.0928802	0	0	0	0	1	4	4
82	19.2087	0.0580502	0	0	0	0	1	4	4
82	19.2668	0.0290241	0	0	0	0	1	4	4
82	19.3829	0.121904	0	0	0	0	1	4	4
82	19.5396	0.12771	0	0	0	0	1	4	4
82	19.7428	0.029026	0	0	0	0	1	4	4
82	19.7776	0.029026	0	0	0	0	1	4	4
82	19.8124	0.0928802	0	0	0	0	1	4	4
82	19.9053	0.0580502	0	0	0	0	1	4	4
82	19.9634	0.0464401	0	0	0	0	1	4	4
82	20.0504	0.0522442	0	0	0	0	1	4	4
82	20.1027	0.121906	0	0	0	0	1	4	4
82	20.2884	0.121904	0	0	0	0	1	4	4
82	20.4568	0.0522442	0	0	0	0	1	4	4
82	20.5206	0.0522461	0	0	0	0	1	4	4
82	20.6483	0.0580502	0	0	0	0	1	4	4
82	20.7064	0.0812702	0	0	0	0	1	4	4
82	20.7877	0.0696602	0	0	0	0	1	4	4
82	20.8863	0.121904	0	0	0	0	1	4	4
82	21.1244	0.0232201	0	0	0	0	1	4	4
82	21.194	0.0232201	0	0	0	0	1	4	4
82	21.2405	0.0522442	0	0	0	0	1	4	4
77	21.403	0.0522461	0	0	0	0	1	4	4
82	21.4843	0.0522442	0	0	0	0	1	4	4
82	21.5946	0.0812702	0	0	0	0	1	4	4
82	21.6758	0.029026	0	0	0	0	1	4	4
82	21.8151	0.0348301	0	0	0	0	1	4	4
82	21.9603	0.0406342	0	0	0	0	1	4	4
82	22.1344	0.150928	0	0	0	0	1	4	4
80	22.5524	0.0464401	0	0	0	0	1	4	4
80	22.5988	0.0638561	0	0	0	0	1	4	4
80	22.6627	0.0928783	0	0	0	0	1	4	4
80	22.7556	0.10449	0	0	0	0	1	4	4
80	22.86	0.0464401	0	0	0	0	1	4	4
80	22.9239	0.0870743	0	0	0	0	1	4	4
80	23.1155	0.0522442	0	0	0	0	1	4	4
80	23.2258	0.0232201	0	0	0	0	1	4	4
78	23.3244	0.0232201	0	0	0	0	1	4	4
80	23.3477	0.0290241	0	0	0	0	1	4	4
80	23.3825	0.10449	0	0	0	0	1	4	4
80	23.487	0.0464401	0	0	0	0	1	4	4
80	23.5334	0.0522442	0	0	0	0	1	4	4
80	23.5857	0.0812702	0	0	0	0	1	4	4
80	23.6669	0.0870743	0	0	0	0	1	4	4
80	23.7714	0.0928783	0	0	0	0	1	4	4
80	23.8701	0.0290241	0	0	0	0	1	4	4
80	23.9572	0.0696602	0	0	0	0	1	4	4
80	24.0443	0.1161	0	0	0	0	1	4	4
80	24.2068	0.0232201	0	0	0	0	1	4	4
80	24.3113	0.0232201	0	0	0	0	1	4	4
80	24.3519	0.0696602	0	0	0	0	1	4	4
80	24.4622	0.0348301	0	0	0	0	1	4	4
80	24.4971	0.0754662	0	0	0	0	1	4	4
80	24.5725	0.0522442	0	0	0	0	1	4	4
80	24.677	0.12771	0	0	0	0	1	4	4
80	24.8047	0.10449	0	0	0	0	1	4	4
80	24.9092	0.0290241	0	0	0	0	1	4	4
80	24.944	0.110294	0	0	0	0	1	4	4
80	25.1124	0.0928802	0	0	0	0	1	4	4
80	25.2053	0.0580482	0	0	0	0	1	4	4
80	25.2633	0.0348301	0	0	0	0	1	4	4
80	25.2981	0.0464401	0	0	0	0	1	4	4
80	25.4491	0.197369	0	0	0	0	1	4	4
80	25.7393	0.0986843	0	0	0	0	1	4	4
80	25.838	0.029026	0	0	0	0	1	4	4
80	25.9425	0.0696602	0	0	0	0	1	4	4
80	26.0122	0.0696602	0	0	0	0	1	4	4
80	26.0876	0.0870762	0	0	0	0	1	4	4
80	26.1747	0.0928783	0	0	0	0	1	4	4
80	26.3779	0.133514	0	0	0	0	1	4	4
80	26.5114	0.0696602	0	0	0	0	1	4	4
80	26.5985	0.16254	0	0	0	0	1	4	4
80	26.8655	0.0812702	0	0	0	0	1	4	4
80	26.97	0.133514	0	0	0	0	1	4	4
80	27.1151	0.10449	0	0	0	0	1	4	4
80	27.2196	0.0348301	0	0	0	0	1	4	4
80	27.266	0.0696602	0	0	0	0	1	4	4
80	27.3705	0.0580502	0	0	0	0	1	4	4
80	27.4286	0.0986843	0	0	0	0	1	4	4
80	27.5273	0.121904	0	0	0	0	1	4	4
80	27.6492	0.0580502	0	0	0	0	1	4	4
80	27.7478	0.10449	0	0	0	0	1	4	4
80	27.8698	0.0406342	0	0	0	0	1	4	4
80	27.9336	0.110294	0	0	0	0	1	4	4
80	28.0497	0.121904	0	0	0	0	1	4	4
80	28.2181	0.110294	0	0	0	0	1	4	4
80	28.3283	0.0464401	0	0	0	0	1	4	4
82	28.7463	0.0696602	0	0	0	0	1	4	4
82	28.816	0.0348301	0	0	0	0	1	4	4
82	28.903	0.0870743	0	0	0	0	1	4	4
82	28.9901	0.0232201	0	0	0	0	1	4	4
77	29.0133	0.0232201	0	0	0	0	1	4	4
82	29.2165	0.110294	0	0	0	0	1	4	4
82	29.3268	0.0522461	0	0	0	0	1	4	4
82	29.4429	0.156734	0	0	0	0	1	4	4
