midiPitch 	 onsetSec 	 durationSec 	 onsetBeats 	 onsetBarIndex 	 onsetBar 	 durationBeats 	 velocity  	 numerator 	 denominator 
60	0.446984	0.0348299	0	0	4.66388e-035	0	1	4	4
60	0.481814	0.0754648	0	0	4.66388e-035	0	1	4	4
60	0.557279	0.296054	0	0	4.66388e-035	0	1	4	4
62	0.946213	0.13932	0	0	4.66388e-035	0	1	4	4
60	1.10875	0.156735	0	0	4.66388e-035	0	1	4	4
62	1.27129	0.301859	0	0	4.66388e-035	0	1	4	4
58	1.57315	0.121905	0	0	4.66388e-035	0	1	4	4
65	1.72989	0.110295	0	0	4.66388e-035	0	1	4	4
65	1.84018	0.029025	0	0	4.66388e-035	0	1	4	4
62	1.99692	0.580499	0	0	4.66388e-035	0	1	4	4
62	2.58902	0.487619	0	0	4.66388e-035	0	1	4	4
62	3.10567	0.476009	0	0	4.66388e-035	0	1	4	4
64	3.6107	0.0928798	0	0	4.66388e-035	0	1	4	4
64	4.10413	0.0522447	0	0	4.66388e-035	0	1	4	4
64	4.15637	0.0870752	0	0	4.66388e-035	0	1	4	4
67	4.44082	0.139319	0	0	4.66388e-035	0	1	4	4
64	4.6498	0.0870748	0	0	4.66388e-035	0	1	4	4
67	4.99229	0.0928798	0	0	4.66388e-035	0	1	4	4
64	5.1258	0.0754647	0	0	4.66388e-035	0	1	4	4
67	5.97333	0.162539	0	0	4.66388e-035	0	1	4	4
69	6.21134	0.0522451	0	0	4.66388e-035	0	1	4	4
70	6.30422	0.13932	0	0	4.66388e-035	0	1	4	4
72	6.44934	0.156735	0	0	4.66388e-035	0	1	4	4
74	6.6351	0.13932	0	0	4.66388e-035	0	1	4	4
76	6.83828	0.0870748	0	0	4.66388e-035	0	1	4	4
76	6.92535	0.0406351	0	0	4.66388e-035	0	1	4	4
77	7.04145	0.0696602	0	0	4.66388e-035	0	1	4	4
70	7.6858	0.179955	0	0	4.66388e-035	0	1	4	4
70	7.86576	0.179955	0	0	4.66388e-035	0	1	4	4
72	8.10957	0.0638552	0	0	4.66388e-035	0	1	4	4
81	9.35764	0.0580502	0	0	4.66388e-035	0	1	4	4
60	9.43311	0.0406351	0	0	4.66388e-035	0	1	4	4
59	9.53179	0.15093	0	0	4.66388e-035	0	1	4	4
61	10.6289	0.0812702	0	0	4.66388e-035	0	1	4	4
59	10.9424	0.0638542	0	0	4.66388e-035	0	1	4	4
55	11.3894	0.0928802	0	0	4.66388e-035	0	1	4	4
62	11.6738	0.145124	0	0	4.66388e-035	0	1	4	4
83	11.848	0.121905	0	0	4.66388e-035	0	1	4	4
74	12.6549	0.179955	0	0	4.66388e-035	0	1	4	4
72	12.858	0.121905	0	0	4.66388e-035	0	1	4	4
74	12.9858	0.139319	0	0	4.66388e-035	0	1	4	4
67	13.1541	0.150929	0	0	4.66388e-035	0	1	4	4
69	13.3108	0.0406351	0	0	4.66388e-035	0	1	4	4
69	13.3573	0.0232201	0	0	4.66388e-035	0	1	4	4
69	13.3863	0.0812693	0	0	4.66388e-035	0	1	4	4
67	13.5198	0.0754652	0	0	4.66388e-035	0	1	4	4
62	14.3267	0.127709	0	0	4.66388e-035	0	1	4	4
62	14.4544	0.0348301	0	0	4.66388e-035	0	1	4	4
64	14.646	0.0638542	0	0	4.66388e-035	0	1	4	4
61	14.7273	0.0522451	0	0	4.66388e-035	0	1	4	4
60	14.7795	0.145124	0	0	4.66388e-035	0	1	4	4
59	14.9246	0.0638552	0	0	4.66388e-035	0	1	4	4
58	15.598	0.0696602	0	0	4.66388e-035	0	1	4	4
59	15.6851	0.0290251	0	0	4.66388e-035	0	1	4	4
62	15.9231	0.0580502	0	0	4.66388e-035	0	1	4	4
65	16.1088	0.0464401	0	0	4.66388e-035	0	1	4	4
60	16.2307	0.1161	0	0	4.66388e-035	0	1	4	4
55	16.4455	0.0812702	0	0	4.66388e-035	0	1	4	4
55	16.6081	0.0580502	0	0	4.66388e-035	0	1	4	4
62	16.6545	0.12771	0	0	4.66388e-035	0	1	4	4
62	16.9796	0.13932	0	0	4.66388e-035	0	1	4	4
62	17.1189	0.0232201	0	0	4.66388e-035	0	1	4	4
58	17.264	0.0754642	0	0	4.66388e-035	0	1	4	4
61	17.3743	0.0522442	0	0	4.66388e-035	0	1	4	4
60	17.4266	0.0232201	0	0	4.66388e-035	0	1	4	4
55	17.74	0.0580502	0	0	4.66388e-035	0	1	4	4
55	17.7981	0.0696583	0	0	4.66388e-035	0	1	4	4
60	18.6921	0.0928802	0	0	4.66388e-035	0	1	4	4
61	19.2784	0.179956	0	0	4.66388e-035	0	1	4	4
61	19.4583	0.0290241	0	0	4.66388e-035	0	1	4	4
60	19.5048	0.0522461	0	0	4.66388e-035	0	1	4	4
61	20.1607	0.342495	0	0	4.66388e-035	0	1	4	4
63	20.7761	0.185759	0	0	4.66388e-035	0	1	4	4
0	20.9618	0.203175	0	0	4.66388e-035	0	1	4	4
62	21.2405	0.168344	0	0	4.66388e-035	0	1	4	4
60	21.5539	0.10449	0	0	4.66388e-035	0	1	4	4
58	21.6584	0.150928	0	0	4.66388e-035	0	1	4	4
60	21.9254	0.197371	0	0	4.66388e-035	0	1	4	4
62	22.4479	0.150928	0	0	4.66388e-035	0	1	4	4
60	22.622	0.1161	0	0	4.66388e-035	0	1	4	4
55	23.1561	0.133514	0	0	4.66388e-035	0	1	4	4
60	23.5624	0.296055	0	0	4.66388e-035	0	1	4	4
62	23.963	0.267029	0	0	4.66388e-035	0	1	4	4
60	24.2474	0.0928802	0	0	4.66388e-035	0	1	4	4
58	24.3403	0.179955	0	0	4.66388e-035	0	1	4	4
60	24.6015	0.238005	0	0	4.66388e-035	0	1	4	4
62	25.095	0.156734	0	0	4.66388e-035	0	1	4	4
60	25.2691	0.0580502	0	0	4.66388e-035	0	1	4	4
60	25.3272	0.0406342	0	0	4.66388e-035	0	1	4	4
60	26.1747	0.238005	0	0	4.66388e-035	0	1	4	4
62	26.5578	0.284445	0	0	4.66388e-035	0	1	4	4
60	26.9293	0.1161	0	0	4.66388e-035	0	1	4	4
58	27.0454	0.0232182	0	0	4.66388e-035	0	1	4	4
58	27.0687	0.10449	0	0	4.66388e-035	0	1	4	4
60	27.2834	0.168346	0	0	4.66388e-035	0	1	4	4
62	27.7595	0.197371	0	0	4.66388e-035	0	1	4	4
60	28.1194	0.133516	0	0	4.66388e-035	0	1	4	4
60	28.9146	0.319275	0	0	4.66388e-035	0	1	4	4
62	29.2688	0.307663	0	0	4.66388e-035	0	1	4	4
58	29.5764	0.307665	0	0	4.66388e-035	0	1	4	4
