midiPitch 	 onsetSec 	 durationSec 	 onsetBeats 	 onsetBarIndex 	 onsetBar 	 durationBeats 	 velocity  	 numerator 	 denominator 
81	0.1161	0.0406349	0	0	2.48216e-035	0	1	4	4
81	0.19737	0.0348299	0	0	2.48216e-035	0	1	4	4
81	0.267029	0.12771	0	0	2.48216e-035	0	1	4	4
81	0.458594	0.0812699	0	0	2.48216e-035	0	1	4	4
81	0.597914	0.0522449	0	0	2.48216e-035	0	1	4	4
84	0.737234	0.03483	0	0	2.48216e-035	0	1	4	4
81	0.772063	0.0812698	0	0	2.48216e-035	0	1	4	4
81	0.876553	0.0406349	0	0	2.48216e-035	0	1	4	4
81	0.934603	0.1161	0	0	2.48216e-035	0	1	4	4
81	1.0507	0.12771	0	0	2.48216e-035	0	1	4	4
84	1.24227	0.0406349	0	0	2.48216e-035	0	1	4	4
81	1.2829	0.0638548	0	0	2.48216e-035	0	1	4	4
81	1.34676	0.040635	0	0	2.48216e-035	0	1	4	4
84	1.38739	0.0696598	0	0	2.48216e-035	0	1	4	4
62	3.89515	0.162539	0	0	2.48216e-035	0	1	4	4
62	4.10413	0.0638547	0	0	2.48216e-035	0	1	4	4
59	4.16798	0.0232201	0	0	2.48216e-035	0	1	4	4
64	4.1912	0.597914	0	0	2.48216e-035	0	1	4	4
64	4.8878	0.0464401	0	0	2.48216e-035	0	1	4	4
64	4.94585	0.0290246	0	0	2.48216e-035	0	1	4	4
64	4.97487	0.0232201	0	0	2.48216e-035	0	1	4	4
64	4.9981	0.0232201	0	0	2.48216e-035	0	1	4	4
64	5.02132	0.0290251	0	0	2.48216e-035	0	1	4	4
64	5.06776	0.0406346	0	0	2.48216e-035	0	1	4	4
64	5.10839	0.0580502	0	0	2.48216e-035	0	1	4	4
64	5.18385	0.0406351	0	0	2.48216e-035	0	1	4	4
64	5.34639	0.0406346	0	0	2.48216e-035	0	1	4	4
67	5.38703	0.818503	0	0	2.48216e-035	0	1	4	4
69	6.23456	0.0580502	0	0	2.48216e-035	0	1	4	4
67	6.57125	0.0580497	0	0	2.48216e-035	0	1	4	4
71	6.6351	0.27864	0	0	2.48216e-035	0	1	4	4
67	6.91374	0.156734	0	0	2.48216e-035	0	1	4	4
67	7.12272	0.238004	0	0	2.48216e-035	0	1	4	4
71	7.36073	0.121905	0	0	2.48216e-035	0	1	4	4
74	7.50585	0.243809	0	0	2.48216e-035	0	1	4	4
71	7.80771	0.0580497	0	0	2.48216e-035	0	1	4	4
74	7.86576	0.876553	0	0	2.48216e-035	0	1	4	4
74	8.89905	0.0928793	0	0	2.48216e-035	0	1	4	4
81	9.02095	0.24381	0	0	2.48216e-035	0	1	4	4
76	9.26476	0.116099	0	0	2.48216e-035	0	1	4	4
76	9.38086	0.0232201	0	0	2.48216e-035	0	1	4	4
81	9.45052	0.272835	0	0	2.48216e-035	0	1	4	4
81	9.72336	0.133514	0	0	2.48216e-035	0	1	4	4
81	9.72336	0.226394	0	0	2.48216e-035	0	1	4	4
81	9.96716	0.121905	0	0	2.48216e-035	0	1	4	4
81	10.1413	0.0406342	0	0	2.48216e-035	0	1	4	4
83	10.4025	0.0232201	0	0	2.48216e-035	0	1	4	4
79	10.4258	0.261225	0	0	2.48216e-035	0	1	4	4
79	10.7044	1.23646	0	0	2.48216e-035	0	1	4	4
79	11.9409	0.0870743	0	0	2.48216e-035	0	1	4	4
79	12.2427	0.162539	0	0	2.48216e-035	0	1	4	4
69	12.7303	0.168344	0	0	2.48216e-035	0	1	4	4
53	12.1324	1.48027	0	0	2.48216e-035	0	1	4	4
62	13.6127	0.510839	0	0	2.48216e-035	0	1	4	4
53	14.1235	0.0464401	0	0	2.48216e-035	0	1	4	4
62	14.1758	0.121904	0	0	2.48216e-035	0	1	4	4
67	14.3151	0.406349	0	0	2.48216e-035	0	1	4	4
67	14.7505	0.0986853	0	0	2.48216e-035	0	1	4	4
67	14.8492	0.121904	0	0	2.48216e-035	0	1	4	4
67	14.9711	0.110294	0	0	2.48216e-035	0	1	4	4
69	15.0814	0.0870752	0	0	2.48216e-035	0	1	4	4
67	15.1684	0.0638552	0	0	2.48216e-035	0	1	4	4
69	15.2323	0.0580492	0	0	2.48216e-035	0	1	4	4
67	15.3019	0.0406351	0	0	2.48216e-035	0	1	4	4
67	15.3484	0.191565	0	0	2.48216e-035	0	1	4	4
68	15.54	0.0870752	0	0	2.48216e-035	0	1	4	4
66	15.7257	0.1161	0	0	2.48216e-035	0	1	4	4
68	15.9115	0.33669	0	0	2.48216e-035	0	1	4	4
73	16.312	0.284445	0	0	2.48216e-035	0	1	4	4
68	16.6545	0.220589	0	0	2.48216e-035	0	1	4	4
69	17.0376	0.0754642	0	0	2.48216e-035	0	1	4	4
74	17.1131	0.249615	0	0	2.48216e-035	0	1	4	4
67	17.3627	0.278639	0	0	2.48216e-035	0	1	4	4
60	17.7168	0.325079	0	0	2.48216e-035	0	1	4	4
64	18.0825	0.10449	0	0	2.48216e-035	0	1	4	4
69	18.187	0.029026	0	0	2.48216e-035	0	1	4	4
64	18.2625	0.278641	0	0	2.48216e-035	0	1	4	4
67	18.6688	0.267031	0	0	2.48216e-035	0	1	4	4
69	18.9417	0.0986862	0	0	2.48216e-035	0	1	4	4
69	19.052	0.0522442	0	0	2.48216e-035	0	1	4	4
67	19.1042	0.0406342	0	0	2.48216e-035	0	1	4	4
67	19.1507	0.162539	0	0	2.48216e-035	0	1	4	4
67	19.319	0.0870743	0	0	2.48216e-035	0	1	4	4
60	19.557	0.0406342	0	0	2.48216e-035	0	1	4	4
72	19.5976	0.284445	0	0	2.48216e-035	0	1	4	4
69	19.9517	0.145124	0	0	2.48216e-035	0	1	4	4
72	20.1317	0.516644	0	0	2.48216e-035	0	1	4	4
72	20.6542	0.0986843	0	0	2.48216e-035	0	1	4	4
72	20.7528	0.0522442	0	0	2.48216e-035	0	1	4	4
72	20.8747	0.0406342	0	0	2.48216e-035	0	1	4	4
69	20.9154	0.1161	0	0	2.48216e-035	0	1	4	4
72	21.0547	0.0870743	0	0	2.48216e-035	0	1	4	4
69	21.1534	0.0406361	0	0	2.48216e-035	0	1	4	4
72	21.3682	0.0522461	0	0	2.48216e-035	0	1	4	4
72	21.461	0.0348301	0	0	2.48216e-035	0	1	4	4
72	21.7745	0.0406361	0	0	2.48216e-035	0	1	4	4
67	21.8151	0.0754642	0	0	2.48216e-035	0	1	4	4
72	22.0532	0.0638542	0	0	2.48216e-035	0	1	4	4
72	22.1518	0.0580502	0	0	2.48216e-035	0	1	4	4
72	22.2099	0.0986843	0	0	2.48216e-035	0	1	4	4
72	22.3434	0.10449	0	0	2.48216e-035	0	1	4	4
72	23.0458	0.0696602	0	0	2.48216e-035	0	1	4	4
72	23.22	0.0986862	0	0	2.48216e-035	0	1	4	4
69	23.3186	1.15519	0	0	2.48216e-035	0	1	4	4
65	24.6015	0.481813	0	0	2.48216e-035	0	1	4	4
65	25.1762	0.0812702	0	0	2.48216e-035	0	1	4	4
69	25.2865	0.0812702	0	0	2.48216e-035	0	1	4	4
65	25.3678	0.156734	0	0	2.48216e-035	0	1	4	4
65	25.5303	1.66023	0	0	2.48216e-035	0	1	4	4
68	27.2951	0.191565	0	0	2.48216e-035	0	1	4	4
64	27.4866	0.0986862	0	0	2.48216e-035	0	1	4	4
69	27.8291	0.110294	0	0	2.48216e-035	0	1	4	4
65	27.9626	0.0522461	0	0	2.48216e-035	0	1	4	4
69	28.1948	0.0522442	0	0	2.48216e-035	0	1	4	4
62	29.1643	0.429569	0	0	2.48216e-035	0	1	4	4
