midiPitch 	 onsetSec 	 durationSec 	 onsetBeats 	 onsetBarIndex 	 onsetBar 	 durationBeats 	 velocity  	 numerator 	 denominator 
58	0.0638549	0.10449	0	0	4.77697e-035	0	1	4	4
58	0.168345	0.179955	0	0	4.77697e-035	0	1	4	4
58	0.348299	0.2322	0	0	4.77697e-035	0	1	4	4
63	0.603719	0.13932	0	0	4.77697e-035	0	1	4	4
65	0.743039	0.20898	0	0	4.77697e-035	0	1	4	4
63	1.06812	0.238005	0	0	4.77697e-035	0	1	4	4
61	1.30612	0.0754648	0	0	4.77697e-035	0	1	4	4
73	1.42803	0.423764	0	0	4.77697e-035	0	1	4	4
70	1.85179	0.0348299	0	0	4.77697e-035	0	1	4	4
61	2.10721	0.325079	0	0	4.77697e-035	0	1	4	4
63	2.5658	1.27129	0	0	4.77697e-035	0	1	4	4
63	3.8371	0.243809	0	0	4.77697e-035	0	1	4	4
56	4.11574	0.464399	0	0	4.77697e-035	0	1	4	4
56	4.58014	0.25542	0	0	4.77697e-035	0	1	4	4
56	4.83556	0.557279	0	0	4.77697e-035	0	1	4	4
61	5.39864	0.1161	0	0	4.77697e-035	0	1	4	4
63	5.51474	0.493424	0	0	4.77697e-035	0	1	4	4
63	6.00816	0.12771	0	0	4.77697e-035	0	1	4	4
63	6.13587	0.0812697	0	0	4.77697e-035	0	1	4	4
59	6.22295	0.20898	0	0	4.77697e-035	0	1	4	4
63	6.58866	0.110295	0	0	4.77697e-035	0	1	4	4
58	6.72798	0.12771	0	0	4.77697e-035	0	1	4	4
64	6.85569	0.10449	0	0	4.77697e-035	0	1	4	4
64	6.9776	0.13932	0	0	4.77697e-035	0	1	4	4
64	7.11692	0.232199	0	0	4.77697e-035	0	1	4	4
62	7.34912	0.238005	0	0	4.77697e-035	0	1	4	4
70	7.80771	0.789478	0	0	4.77697e-035	0	1	4	4
58	8.59719	0.30186	0	0	4.77697e-035	0	1	4	4
58	8.93968	0.0232201	0	0	4.77697e-035	0	1	4	4
59	8.96871	0.203175	0	0	4.77697e-035	0	1	4	4
63	9.18349	0.168344	0	0	4.77697e-035	0	1	4	4
65	9.36345	0.20898	0	0	4.77697e-035	0	1	4	4
64	9.58404	0.3483	0	0	4.77697e-035	0	1	4	4
73	9.94394	0.226395	0	0	4.77697e-035	0	1	4	4
61	10.1703	0.0348301	0	0	4.77697e-035	0	1	4	4
73	10.1703	0.27864	0	0	4.77697e-035	0	1	4	4
70	10.449	0.179955	0	0	4.77697e-035	0	1	4	4
56	10.9598	0.20898	0	0	4.77697e-035	0	1	4	4
63	11.1804	0.133515	0	0	4.77697e-035	0	1	4	4
64	11.3139	0.0232201	0	0	4.77697e-035	0	1	4	4
64	11.3546	0.110294	0	0	4.77697e-035	0	1	4	4
63	11.4649	0.400544	0	0	4.77697e-035	0	1	4	4
63	11.8712	0.539864	0	0	4.77697e-035	0	1	4	4
63	12.4111	0.493424	0	0	4.77697e-035	0	1	4	4
63	12.9045	0.0232201	0	0	4.77697e-035	0	1	4	4
56	13.1541	0.249615	0	0	4.77697e-035	0	1	4	4
56	13.4037	0.0754642	0	0	4.77697e-035	0	1	4	4
56	13.4792	0.249615	0	0	4.77697e-035	0	1	4	4
56	13.7288	0.226395	0	0	4.77697e-035	0	1	4	4
56	13.9552	0.348299	0	0	4.77697e-035	0	1	4	4
61	14.5009	0.0232201	0	0	4.77697e-035	0	1	4	4
56	14.6054	0.162539	0	0	4.77697e-035	0	1	4	4
65	14.7679	0.191565	0	0	4.77697e-035	0	1	4	4
65	15.0407	0.0290241	0	0	4.77697e-035	0	1	4	4
65	15.093	0.0928802	0	0	4.77697e-035	0	1	4	4
70	15.2207	0.150929	0	0	4.77697e-035	0	1	4	4
70	15.4587	0.139319	0	0	4.77697e-035	0	1	4	4
69	15.598	0.0348301	0	0	4.77697e-035	0	1	4	4
70	15.7257	0.20898	0	0	4.77697e-035	0	1	4	4
70	15.9347	0.226396	0	0	4.77697e-035	0	1	4	4
70	16.254	0.133516	0	0	4.77697e-035	0	1	4	4
70	16.3875	0.255419	0	0	4.77697e-035	0	1	4	4
70	16.6429	0.214785	0	0	4.77697e-035	0	1	4	4
70	16.8577	0.284445	0	0	4.77697e-035	0	1	4	4
70	17.1944	0.15093	0	0	4.77697e-035	0	1	4	4
70	17.3453	0.255419	0	0	4.77697e-035	0	1	4	4
70	17.6007	0.226395	0	0	4.77697e-035	0	1	4	4
70	17.8271	0.238005	0	0	4.77697e-035	0	1	4	4
70	18.1	0.220589	0	0	4.77697e-035	0	1	4	4
70	18.3728	0.162539	0	0	4.77697e-035	0	1	4	4
70	18.5353	0.156734	0	0	4.77697e-035	0	1	4	4
70	18.8082	0.110294	0	0	4.77697e-035	0	1	4	4
70	19.0752	0.156736	0	0	4.77697e-035	0	1	4	4
70	19.348	0.156734	0	0	4.77697e-035	0	1	4	4
68	19.5048	0.168346	0	0	4.77697e-035	0	1	4	4
68	19.766	0.179955	0	0	4.77697e-035	0	1	4	4
68	20.0272	0.191565	0	0	4.77697e-035	0	1	4	4
68	20.2826	0.232199	0	0	4.77697e-035	0	1	4	4
68	20.5497	0.110294	0	0	4.77697e-035	0	1	4	4
68	20.66	0.249615	0	0	4.77697e-035	0	1	4	4
68	20.9096	0.261225	0	0	4.77697e-035	0	1	4	4
68	21.1708	0.249615	0	0	4.77697e-035	0	1	4	4
68	21.4843	0.121904	0	0	4.77697e-035	0	1	4	4
68	21.6062	0.232201	0	0	4.77697e-035	0	1	4	4
68	21.8384	0.290249	0	0	4.77697e-035	0	1	4	4
68	22.1286	0.284445	0	0	4.77697e-035	0	1	4	4
68	22.4131	0.232199	0	0	4.77697e-035	0	1	4	4
68	22.6917	0.1161	0	0	4.77697e-035	0	1	4	4
68	22.831	0.168344	0	0	4.77697e-035	0	1	4	4
68	22.9994	0.255419	0	0	4.77697e-035	0	1	4	4
65	23.3651	0.145124	0	0	4.77697e-035	0	1	4	4
65	23.6379	0.145124	0	0	4.77697e-035	0	1	4	4
70	23.783	0.208981	0	0	4.77697e-035	0	1	4	4
70	23.992	0.214785	0	0	4.77697e-035	0	1	4	4
70	24.23	0.319275	0	0	4.77697e-035	0	1	4	4
70	24.5493	0.150928	0	0	4.77697e-035	0	1	4	4
70	24.7467	0.168344	0	0	4.77697e-035	0	1	4	4
70	24.915	0.284445	0	0	4.77697e-035	0	1	4	4
70	25.1995	0.249615	0	0	4.77697e-035	0	1	4	4
70	25.4491	0.243809	0	0	4.77697e-035	0	1	4	4
70	25.7683	0.127708	0	0	4.77697e-035	0	1	4	4
70	25.8961	0.249615	0	0	4.77697e-035	0	1	4	4
70	26.1457	0.179955	0	0	4.77697e-035	0	1	4	4
70	26.3256	0.0696602	0	0	4.77697e-035	0	1	4	4
70	26.3953	0.208981	0	0	4.77697e-035	0	1	4	4
70	26.7088	0.18576	0	0	4.77697e-035	0	1	4	4
70	26.9351	0.145124	0	0	4.77697e-035	0	1	4	4
70	27.0803	0.226395	0	0	4.77697e-035	0	1	4	4
70	27.3705	0.0290241	0	0	4.77697e-035	0	1	4	4
70	27.4054	0.139318	0	0	4.77697e-035	0	1	4	4
72	27.6259	0.203175	0	0	4.77697e-035	0	1	4	4
72	27.9104	0.133514	0	0	4.77697e-035	0	1	4	4
68	28.0555	0.208981	0	0	4.77697e-035	0	1	4	4
68	28.2645	0.208979	0	0	4.77697e-035	0	1	4	4
68	28.5954	0.16254	0	0	4.77697e-035	0	1	4	4
68	28.8566	0.214785	0	0	4.77697e-035	0	1	4	4
68	29.1062	0.121904	0	0	4.77697e-035	0	1	4	4
68	29.2339	0.249615	0	0	4.77697e-035	0	1	4	4
68	29.4835	0.203175	0	0	4.77697e-035	0	1	4	4
68	29.739	0.232199	0	0	4.77697e-035	0	1	4	4
