midiPitch 	 onsetSec 	 durationSec 	 onsetBeats 	 onsetBarIndex 	 onsetBar 	 durationBeats 	 velocity  	 numerator 	 denominator 
64	0.0464399	0.284444	0	0	0	0	1	4	4
66	0.377324	0.179955	0	0	0	0	1	4	4
66	0.557279	0.26703	0	0	0	0	1	4	4
66	0.824308	0.0290249	0	0	0	0	1	4	4
67	0.893968	0.0232199	0	0	0	0	1	4	4
66	0.946213	0.029025	0	0	0	0	1	4	4
66	1.12617	0.0232199	0	0	0	0	1	4	4
66	1.17841	0.03483	0	0	0	0	1	4	4
68	1.21905	0.191565	0	0	0	0	1	4	4
68	1.52091	0.0406349	0	0	0	0	1	4	4
68	1.57315	0.0348299	0	0	0	0	1	4	4
68	1.61379	0.0406349	0	0	0	0	1	4	4
68	1.70667	0.029025	0	0	0	0	1	4	4
68	1.82277	0.19737	0	0	0	0	1	4	4
68	2.03755	0.0348301	0	0	0	0	1	4	4
68	2.0956	0.0638549	0	0	0	0	1	4	4
67	2.24653	0.0696599	0	0	0	0	1	4	4
67	2.31619	0.0522449	0	0	0	0	1	4	4
67	2.39166	0.08127	0	0	0	0	1	4	4
66	2.47293	0.0232198	0	0	0	0	1	4	4
68	2.58322	0.0290248	0	0	0	0	1	4	4
67	2.65288	0.19737	0	0	0	0	1	4	4
66	2.93152	0.0290248	0	0	0	0	1	4	4
66	2.96635	0.0406349	0	0	0	0	1	4	4
69	3.34948	0.0348299	0	0	0	0	1	4	4
64	3.57007	0.0232201	0	0	0	0	1	4	4
67	3.81388	0.0232198	0	0	0	0	1	4	4
70	3.8429	0.0290248	0	0	0	0	1	4	4
67	3.9532	0.0290248	0	0	0	0	1	4	4
67	3.98803	0.0406351	0	0	0	0	1	4	4
69	4.09832	0.0638547	0	0	0	0	1	4	4
62	4.23184	0.0348296	0	0	0	0	1	4	4
62	4.33052	0.0754647	0	0	0	0	1	4	4
61	4.40599	0.0754647	0	0	0	0	1	4	4
63	4.57433	0.238005	0	0	0	0	1	4	4
63	4.81234	0.0348301	0	0	0	0	1	4	4
62	4.95166	0.760453	0	0	0	0	1	4	4
62	5.71211	0.168345	0	0	0	0	1	4	4
62	6.1707	0.0464396	0	0	0	0	1	4	4
62	6.31002	0.110295	0	0	0	0	1	4	4
59	7.51746	0.0406346	0	0	0	0	1	4	4
59	7.6858	0.789479	0	0	0	0	1	4	4
59	8.47528	0.133514	0	0	0	0	1	4	4
59	8.66685	0.0290251	0	0	0	0	1	4	4
59	8.71329	0.15093	0	0	0	0	1	4	4
59	8.86422	0.17415	0	0	0	0	1	4	4
59	9.27637	0.0812693	0	0	0	0	1	4	4
59	9.37506	0.0696602	0	0	0	0	1	4	4
56	9.66531	0.0870743	0	0	0	0	1	4	4
58	10.5883	0.0580502	0	0	0	0	1	4	4
66	11.2617	0.0580502	0	0	0	0	1	4	4
68	11.5868	0.179955	0	0	0	0	1	4	4
67	11.7667	0.0232191	0	0	0	0	1	4	4
67	11.8015	0.0406351	0	0	0	0	1	4	4
65	12.1731	0.0232191	0	0	0	0	1	4	4
65	12.2195	0.0348301	0	0	0	0	1	4	4
65	12.2834	0.0232201	0	0	0	0	1	4	4
66	12.353	0.0522442	0	0	0	0	1	4	4
67	12.4227	0.0232201	0	0	0	0	1	4	4
67	12.4459	0.0290251	0	0	0	0	1	4	4
67	12.6258	0.12771	0	0	0	0	1	4	4
67	12.8	0.0464392	0	0	0	0	1	4	4
68	12.9741	0.0406351	0	0	0	0	1	4	4
66	13.4444	0.0522451	0	0	0	0	1	4	4
67	14.0423	0.0986853	0	0	0	0	1	4	4
66	14.4776	0.0290251	0	0	0	0	1	4	4
66	14.5125	0.0464401	0	0	0	0	1	4	4
69	14.617	0.0232201	0	0	0	0	1	4	4
66	14.9014	0.0348301	0	0	0	0	1	4	4
66	15.151	0.0348301	0	0	0	0	1	4	4
67	15.3774	0.0232201	0	0	0	0	1	4	4
54	15.9579	0.0870752	0	0	0	0	1	4	4
54	16.045	0.0232201	0	0	0	0	1	4	4
66	16.0856	0.029026	0	0	0	0	1	4	4
66	16.6429	0.0290241	0	0	0	0	1	4	4
65	17.0434	0.0232201	0	0	0	0	1	4	4
67	17.2989	0.0348301	0	0	0	0	1	4	4
68	17.7691	0.029026	0	0	0	0	1	4	4
65	18.0825	0.0406361	0	0	0	0	1	4	4
67	18.1696	0.0406342	0	0	0	0	1	4	4
67	18.2567	0.0232201	0	0	0	0	1	4	4
66	18.2799	0.0290241	0	0	0	0	1	4	4
65	18.3147	0.0348301	0	0	0	0	1	4	4
65	18.6863	0.0406342	0	0	0	0	1	4	4
67	19.1274	0.0348301	0	0	0	0	1	4	4
66	19.1623	0.174149	0	0	0	0	1	4	4
66	19.3364	0.029026	0	0	0	0	1	4	4
68	19.586	0.0406361	0	0	0	0	1	4	4
65	19.6441	0.0406342	0	0	0	0	1	4	4
69	19.8937	0.0232201	0	0	0	0	1	4	4
63	21.0024	0.0348301	0	0	0	0	1	4	4
70	21.2637	0.0290241	0	0	0	0	1	4	4
67	21.3101	0.0290241	0	0	0	0	1	4	4
66	21.8848	0.0232201	0	0	0	0	1	4	4
66	22.0648	0.0232201	0	0	0	0	1	4	4
68	22.2099	0.0290241	0	0	0	0	1	4	4
66	22.3086	0.0232201	0	0	0	0	1	4	4
67	24.0152	0.0348301	0	0	0	0	1	4	4
68	24.0675	0.029026	0	0	0	0	1	4	4
67	24.6654	0.243811	0	0	0	0	1	4	4
63	24.9092	0.0348301	0	0	0	0	1	4	4
64	25.391	0.0232201	0	0	0	0	1	4	4
66	25.6058	0.0406342	0	0	0	0	1	4	4
67	25.7393	0.0348301	0	0	0	0	1	4	4
67	25.78	0.0290241	0	0	0	0	1	4	4
67	26.076	0.0406361	0	0	0	0	1	4	4
67	26.3663	0.0290241	0	0	0	0	1	4	4
66	26.7262	0.0290241	0	0	0	0	1	4	4
67	27.4402	0.0348282	0	0	0	0	1	4	4
58	27.9104	0.0348301	0	0	0	0	1	4	4
58	28.3109	0.029026	0	0	0	0	1	4	4
67	28.4793	0.0464382	0	0	0	0	1	4	4
66	28.5489	0.0406361	0	0	0	0	1	4	4
