midiPitch 	 onsetSec 	 durationSec 	 onsetBeats 	 onsetBarIndex 	 onsetBar 	 durationBeats 	 velocity  	 numerator 	 denominator 
81	0.0696599	0.0464399	0	0	2.36969e-035	0	1	4	4
81	0.1161	0.0406349	0	0	2.36969e-035	0	1	4	4
81	0.156735	0.214785	0	0	2.36969e-035	0	1	4	4
81	0.371519	0.0696599	0	0	2.36969e-035	0	1	4	4
81	0.441179	0.0870748	0	0	2.36969e-035	0	1	4	4
80	0.528254	0.110295	0	0	2.36969e-035	0	1	4	4
81	0.638549	0.0522449	0	0	2.36969e-035	0	1	4	4
81	0.725624	0.121905	0	0	2.36969e-035	0	1	4	4
81	0.847528	0.0406349	0	0	2.36969e-035	0	1	4	4
80	0.928798	0.133515	0	0	2.36969e-035	0	1	4	4
81	1.06231	0.203175	0	0	2.36969e-035	0	1	4	4
80	1.2829	0.0986848	0	0	2.36969e-035	0	1	4	4
81	1.49769	0.0232199	0	0	2.36969e-035	0	1	4	4
81	1.52671	0.214785	0	0	2.36969e-035	0	1	4	4
81	1.7415	0.110295	0	0	2.36969e-035	0	1	4	4
79	2.03175	0.0290251	0	0	2.36969e-035	0	1	4	4
79	2.06658	0.0464399	0	0	2.36969e-035	0	1	4	4
76	2.14204	0.075465	0	0	2.36969e-035	0	1	4	4
74	2.40327	0.0406349	0	0	2.36969e-035	0	1	4	4
74	2.44971	0.0464399	0	0	2.36969e-035	0	1	4	4
72	2.51356	0.342494	0	0	2.36969e-035	0	1	4	4
74	2.85605	0.18576	0	0	2.36969e-035	0	1	4	4
81	3.17533	0.528254	0	0	2.36969e-035	0	1	4	4
81	3.70358	0.0870748	0	0	2.36969e-035	0	1	4	4
81	3.80807	0.10449	0	0	2.36969e-035	0	1	4	4
82	3.94739	0.0522449	0	0	2.36969e-035	0	1	4	4
84	4.13896	0.365714	0	0	2.36969e-035	0	1	4	4
80	4.50467	0.0812697	0	0	2.36969e-035	0	1	4	4
80	4.60336	0.406349	0	0	2.36969e-035	0	1	4	4
80	5.00971	0.0522451	0	0	2.36969e-035	0	1	4	4
80	5.00971	0.0580502	0	0	2.36969e-035	0	1	4	4
84	5.05615	0.121904	0	0	2.36969e-035	0	1	4	4
80	5.17805	0.0522451	0	0	2.36969e-035	0	1	4	4
80	5.25351	0.0754647	0	0	2.36969e-035	0	1	4	4
84	5.37542	0.0870748	0	0	2.36969e-035	0	1	4	4
80	5.46249	0.133514	0	0	2.36969e-035	0	1	4	4
79	5.59601	0.284445	0	0	2.36969e-035	0	1	4	4
78	5.88626	0.0754647	0	0	2.36969e-035	0	1	4	4
79	6.00816	0.0348301	0	0	2.36969e-035	0	1	4	4
79	6.0488	0.0290251	0	0	2.36969e-035	0	1	4	4
79	6.08363	0.145124	0	0	2.36969e-035	0	1	4	4
81	6.23456	0.15093	0	0	2.36969e-035	0	1	4	4
83	7.02404	0.121905	0	0	2.36969e-035	0	1	4	4
83	7.14594	0.394739	0	0	2.36969e-035	0	1	4	4
81	7.54068	0.168345	0	0	2.36969e-035	0	1	4	4
76	7.83093	0.10449	0	0	2.36969e-035	0	1	4	4
74	7.93542	0.0406346	0	0	2.36969e-035	0	1	4	4
74	7.98186	0.348299	0	0	2.36969e-035	0	1	4	4
72	8.35918	0.22059	0	0	2.36969e-035	0	1	4	4
79	8.59138	0.214785	0	0	2.36969e-035	0	1	4	4
63	10.6928	0.17415	0	0	2.36969e-035	0	1	4	4
63	10.8669	0.0580502	0	0	2.36969e-035	0	1	4	4
63	10.925	0.0696592	0	0	2.36969e-035	0	1	4	4
81	11.9002	0.27864	0	0	2.36969e-035	0	1	4	4
81	12.1789	0.0696592	0	0	2.36969e-035	0	1	4	4
81	12.2485	0.22059	0	0	2.36969e-035	0	1	4	4
80	12.4691	0.10449	0	0	2.36969e-035	0	1	4	4
80	12.5736	0.0232201	0	0	2.36969e-035	0	1	4	4
81	12.6026	0.0754642	0	0	2.36969e-035	0	1	4	4
81	12.6781	0.0986853	0	0	2.36969e-035	0	1	4	4
81	12.7768	0.0464392	0	0	2.36969e-035	0	1	4	4
81	12.8232	0.191566	0	0	2.36969e-035	0	1	4	4
81	13.0612	0.0638552	0	0	2.36969e-035	0	1	4	4
81	13.1251	0.0232201	0	0	2.36969e-035	0	1	4	4
81	13.1889	0.139319	0	0	2.36969e-035	0	1	4	4
81	13.3979	0.179955	0	0	2.36969e-035	0	1	4	4
80	13.6301	0.0580492	0	0	2.36969e-035	0	1	4	4
81	13.7985	0.127709	0	0	2.36969e-035	0	1	4	4
81	13.9262	0.0406351	0	0	2.36969e-035	0	1	4	4
80	14.0132	0.255419	0	0	2.36969e-035	0	1	4	4
81	14.2687	0.0232201	0	0	2.36969e-035	0	1	4	4
79	14.379	0.0928793	0	0	2.36969e-035	0	1	4	4
76	14.4893	0.0464401	0	0	2.36969e-035	0	1	4	4
76	14.5357	0.0348301	0	0	2.36969e-035	0	1	4	4
74	14.7621	0.0754652	0	0	2.36969e-035	0	1	4	4
72	14.884	0.31347	0	0	2.36969e-035	0	1	4	4
74	15.2207	0.0870743	0	0	2.36969e-035	0	1	4	4
81	15.5225	0.702404	0	0	2.36969e-035	0	1	4	4
82	16.2424	0.0638561	0	0	2.36969e-035	0	1	4	4
84	16.4629	0.330885	0	0	2.36969e-035	0	1	4	4
84	16.7938	0.0464382	0	0	2.36969e-035	0	1	4	4
80	16.8403	0.0928802	0	0	2.36969e-035	0	1	4	4
80	16.9332	0.029026	0	0	2.36969e-035	0	1	4	4
80	16.9622	0.0870743	0	0	2.36969e-035	0	1	4	4
80	17.0493	0.121904	0	0	2.36969e-035	0	1	4	4
80	17.1712	0.203175	0	0	2.36969e-035	0	1	4	4
84	17.3743	0.0986843	0	0	2.36969e-035	0	1	4	4
80	17.473	0.10449	0	0	2.36969e-035	0	1	4	4
80	17.5775	0.0406361	0	0	2.36969e-035	0	1	4	4
80	17.6181	0.0290241	0	0	2.36969e-035	0	1	4	4
84	17.6588	0.168344	0	0	2.36969e-035	0	1	4	4
80	17.8271	0.0638542	0	0	2.36969e-035	0	1	4	4
80	17.891	0.0754662	0	0	2.36969e-035	0	1	4	4
79	17.9664	0.232199	0	0	2.36969e-035	0	1	4	4
78	18.2335	0.0812702	0	0	2.36969e-035	0	1	4	4
79	18.3438	0.208981	0	0	2.36969e-035	0	1	4	4
81	18.576	0.121904	0	0	2.36969e-035	0	1	4	4
81	19.3712	0.400545	0	0	2.36969e-035	0	1	4	4
80	19.8008	0.0812702	0	0	2.36969e-035	0	1	4	4
81	19.9111	0.203175	0	0	2.36969e-035	0	1	4	4
82	20.1143	0.551476	0	0	2.36969e-035	0	1	4	4
83	20.6774	0.243809	0	0	2.36969e-035	0	1	4	4
84	20.9502	0.133516	0	0	2.36969e-035	0	1	4	4
81	24.5493	0.0464401	0	0	2.36969e-035	0	1	4	4
81	24.6073	0.0406361	0	0	2.36969e-035	0	1	4	4
74	25.0079	0.0580502	0	0	2.36969e-035	0	1	4	4
86	25.4142	0.0580502	0	0	2.36969e-035	0	1	4	4
74	25.7741	0.0522461	0	0	2.36969e-035	0	1	4	4
86	25.8322	0.0754642	0	0	2.36969e-035	0	1	4	4
81	25.9077	0.0348301	0	0	2.36969e-035	0	1	4	4
79	26.047	0.0464401	0	0	2.36969e-035	0	1	4	4
79	26.1108	0.0406361	0	0	2.36969e-035	0	1	4	4
79	26.256	0.0696602	0	0	2.36969e-035	0	1	4	4
80	26.4591	0.0232201	0	0	2.36969e-035	0	1	4	4
79	26.4824	0.0522461	0	0	2.36969e-035	0	1	4	4
86	26.5868	0.0638542	0	0	2.36969e-035	0	1	4	4
74	26.7088	0.0464401	0	0	2.36969e-035	0	1	4	4
79	26.8016	0.0406361	0	0	2.36969e-035	0	1	4	4
79	26.9293	0.0870743	0	0	2.36969e-035	0	1	4	4
79	27.0687	0.0406361	0	0	2.36969e-035	0	1	4	4
79	27.1093	0.0580502	0	0	2.36969e-035	0	1	4	4
