midiPitch 	 onsetSec 	 durationSec 	 onsetBeats 	 onsetBarIndex 	 onsetBar 	 durationBeats 	 velocity  	 numerator 	 denominator 
48	0.580499	0.16254	0	0	0	0	1	4	4
48	0.743039	0.0348299	0	0	0	0	1	4	4
48	0.783673	0.0638549	0	0	0	0	1	4	4
47	0.859138	0.10449	0	0	0	0	1	4	4
49	0.963628	0.24381	0	0	0	0	1	4	4
49	1.3932	0.121905	0	0	0	0	1	4	4
48	1.88662	0.133515	0	0	0	0	1	4	4
49	2.2117	0.0406349	0	0	0	0	1	4	4
49	2.25814	0.16254	0	0	0	0	1	4	4
48	2.42068	0.0406349	0	0	0	0	1	4	4
49	2.80381	0.121905	0	0	0	0	1	4	4
50	3.19855	0.203175	0	0	0	0	1	4	4
50	3.63392	0.0986848	0	0	0	0	1	4	4
49	3.76744	0.075465	0	0	0	0	1	4	4
49	3.8429	0.133515	0	0	0	0	1	4	4
49	3.97642	0.586304	0	0	0	0	1	4	4
48	4.96907	0.203175	0	0	0	0	1	4	4
49	5.17225	0.290249	0	0	0	0	1	4	4
50	5.65986	0.371519	0	0	0	0	1	4	4
48	6.31583	0.0754652	0	0	0	0	1	4	4
48	6.69896	0.0348296	0	0	0	0	1	4	4
50	6.73959	0.394739	0	0	0	0	1	4	4
45	7.6858	0.168344	0	0	0	0	1	4	4
47	8.05152	0.168344	0	0	0	0	1	4	4
49	8.46367	0.104489	0	0	0	0	1	4	4
49	8.56816	0.18576	0	0	0	0	1	4	4
61	9.91492	0.168344	0	0	0	0	1	4	4
49	10.0833	0.423764	0	0	0	0	1	4	4
49	10.5651	0.0406351	0	0	0	0	1	4	4
48	10.7683	0.0870752	0	0	0	0	1	4	4
48	11.1107	0.0754642	0	0	0	0	1	4	4
49	11.2327	0.1161	0	0	0	0	1	4	4
48	11.4242	0.0464401	0	0	0	0	1	4	4
49	11.7783	0.110294	0	0	0	0	1	4	4
45	12.0454	0.25542	0	0	0	0	1	4	4
48	12.5098	0.325079	0	0	0	0	1	4	4
49	12.8348	0.307665	0	0	0	0	1	4	4
49	13.1425	0.539864	0	0	0	0	1	4	4
49	13.7172	0.110295	0	0	0	0	1	4	4
47	14.0655	0.0696602	0	0	0	0	1	4	4
50	14.1874	0.20898	0	0	0	0	1	4	4
50	14.5763	0.27864	0	0	0	0	1	4	4
47	14.9827	0.18576	0	0	0	0	1	4	4
47	15.1684	0.0290251	0	0	0	0	1	4	4
47	15.2033	0.24381	0	0	0	0	1	4	4
55	15.8418	0.104489	0	0	0	0	1	4	4
55	16.5674	0.179955	0	0	0	0	1	4	4
62	17.4614	0.0986862	0	0	0	0	1	4	4
62	17.5601	0.0348301	0	0	0	0	1	4	4
62	17.5659	0.284445	0	0	0	0	1	4	4
62	18.0071	0.110294	0	0	0	0	1	4	4
62	18.1696	0.185759	0	0	0	0	1	4	4
60	18.4076	0.0290241	0	0	0	0	1	4	4
61	18.4715	0.0464401	0	0	0	0	1	4	4
62	18.5411	0.0348301	0	0	0	0	1	4	4
62	18.7849	0.0870743	0	0	0	0	1	4	4
62	18.8952	0.0696602	0	0	0	0	1	4	4
62	18.9649	0.0232201	0	0	0	0	1	4	4
62	19.0462	0.17415	0	0	0	0	1	4	4
62	19.3016	0.0232201	0	0	0	0	1	4	4
59	19.7079	0.029026	0	0	0	0	1	4	4
63	19.8356	0.0232201	0	0	0	0	1	4	4
64	19.8821	0.133514	0	0	0	0	1	4	4
61	20.0562	0.0870743	0	0	0	0	1	4	4
57	21.2637	0.0406342	0	0	0	0	1	4	4
63	21.3275	0.0290241	0	0	0	0	1	4	4
64	21.3798	0.0986862	0	0	0	0	1	4	4
61	21.4785	0.0580482	0	0	0	0	1	4	4
61	21.5365	0.0754662	0	0	0	0	1	4	4
64	21.612	0.0870743	0	0	0	0	1	4	4
64	21.7223	0.168344	0	0	0	0	1	4	4
64	22.146	0.0754662	0	0	0	0	1	4	4
64	22.5059	0.0406342	0	0	0	0	1	4	4
63	22.5524	0.179956	0	0	0	0	1	4	4
62	22.8368	0.0522461	0	0	0	0	1	4	4
66	22.8891	1.02748	0	0	0	0	1	4	4
62	23.9166	0.174149	0	0	0	0	1	4	4
66	24.2532	0.220589	0	0	0	0	1	4	4
66	24.4738	0.0348301	0	0	0	0	1	4	4
62	24.6538	0.197371	0	0	0	0	1	4	4
62	24.915	0.0986843	0	0	0	0	1	4	4
62	25.0485	0.0812702	0	0	0	0	1	4	4
64	25.5536	0.0232201	0	0	0	0	1	4	4
61	25.6697	0.0348301	0	0	0	0	1	4	4
64	25.8032	0.0232201	0	0	0	0	1	4	4
64	25.838	0.10449	0	0	0	0	1	4	4
64	25.9773	0.0522461	0	0	0	0	1	4	4
59	26.0818	0.168344	0	0	0	0	1	4	4
64	26.2502	0.197369	0	0	0	0	1	4	4
64	26.5056	0.0464401	0	0	0	0	1	4	4
57	26.6391	0.0464382	0	0	0	0	1	4	4
64	26.8307	0.0580482	0	0	0	0	1	4	4
64	26.9584	0.54567	0	0	0	0	1	4	4
59	27.5098	0.110296	0	0	0	0	1	4	4
61	27.8698	0.272833	0	0	0	0	1	4	4
61	28.189	0.0986843	0	0	0	0	1	4	4
69	28.4096	0.348299	0	0	0	0	1	4	4
57	28.7579	0.12771	0	0	0	0	1	4	4
59	28.9611	0.145124	0	0	0	0	1	4	4
