midiPitch 	 onsetSec 	 durationSec 	 onsetBeats 	 onsetBarIndex 	 onsetBar 	 durationBeats 	 velocity  	 numerator 	 denominator 
62	0.0406349	0.290249	0	0	1.84312e-035	0	1	4	4
62	0.348299	0.0928798	0	0	1.84312e-035	0	1	4	4
61	0.441179	0.02322	0	0	1.84312e-035	0	1	4	4
62	0.487619	0.226395	0	0	1.84312e-035	0	1	4	4
60	0.714014	0.22059	0	0	1.84312e-035	0	1	4	4
58	1.161	0.278639	0	0	1.84312e-035	0	1	4	4
58	1.48608	0.191565	0	0	1.84312e-035	0	1	4	4
58	1.7415	0.15093	0	0	1.84312e-035	0	1	4	4
56	2.04336	0.284445	0	0	1.84312e-035	0	1	4	4
58	2.3278	0.580499	0	0	1.84312e-035	0	1	4	4
56	3.0302	0.301859	0	0	1.84312e-035	0	1	4	4
58	3.6049	0.255419	0	0	1.84312e-035	0	1	4	4
58	3.96481	0.249614	0	0	1.84312e-035	0	1	4	4
57	4.56272	0.12771	0	0	1.84312e-035	0	1	4	4
59	4.69043	0.377325	0	0	1.84312e-035	0	1	4	4
58	5.8224	0.156735	0	0	1.84312e-035	0	1	4	4
55	6.10104	0.313469	0	0	1.84312e-035	0	1	4	4
55	6.46095	0.400544	0	0	1.84312e-035	0	1	4	4
57	7.00662	0.20898	0	0	1.84312e-035	0	1	4	4
55	7.38395	0.423764	0	0	1.84312e-035	0	1	4	4
51	7.95283	0.2322	0	0	1.84312e-035	0	1	4	4
55	8.30694	0.510839	0	0	1.84312e-035	0	1	4	4
55	10.6928	0.464399	0	0	1.84312e-035	0	1	4	4
55	11.3546	0.226395	0	0	1.84312e-035	0	1	4	4
55	11.581	0.0522442	0	0	1.84312e-035	0	1	4	4
55	11.9583	0.145124	0	0	1.84312e-035	0	1	4	4
55	12.2543	0.412154	0	0	1.84312e-035	0	1	4	4
57	12.8116	0.296055	0	0	1.84312e-035	0	1	4	4
56	13.1077	0.19737	0	0	1.84312e-035	0	1	4	4
58	13.305	0.284445	0	0	1.84312e-035	0	1	4	4
58	13.7578	0.296054	0	0	1.84312e-035	0	1	4	4
58	14.4138	0.214785	0	0	1.84312e-035	0	1	4	4
59	15.0117	0.19737	0	0	1.84312e-035	0	1	4	4
59	15.2091	0.0232201	0	0	1.84312e-035	0	1	4	4
58	15.2497	0.377324	0	0	1.84312e-035	0	1	4	4
55	15.9173	0.0812702	0	0	1.84312e-035	0	1	4	4
57	15.9985	0.452789	0	0	1.84312e-035	0	1	4	4
57	15.9985	0.458593	0	0	1.84312e-035	0	1	4	4
69	16.4455	0.01161	0	0	1.84312e-035	0	1	4	4
57	15.9985	0.505033	0	0	1.84312e-035	0	1	4	4
69	16.4455	0.505035	0	0	1.84312e-035	0	1	4	4
57	16.9506	0.284443	0	0	1.84312e-035	0	1	4	4
55	17.235	0.429569	0	0	1.84312e-035	0	1	4	4
57	17.7691	0.278639	0	0	1.84312e-035	0	1	4	4
55	18.0477	0.16254	0	0	1.84312e-035	0	1	4	4
56	18.367	0.243811	0	0	1.84312e-035	0	1	4	4
54	18.6282	0.510839	0	0	1.84312e-035	0	1	4	4
62	22.2795	0.284443	0	0	1.84312e-035	0	1	4	4
63	22.6046	0.150928	0	0	1.84312e-035	0	1	4	4
62	22.9239	0.185759	0	0	1.84312e-035	0	1	4	4
59	23.2316	0.563084	0	0	1.84312e-035	0	1	4	4
60	24.468	0.255419	0	0	1.84312e-035	0	1	4	4
59	25.0834	0.226395	0	0	1.84312e-035	0	1	4	4
55	25.4258	0.191565	0	0	1.84312e-035	0	1	4	4
57	25.6174	0.423763	0	0	1.84312e-035	0	1	4	4
62	26.5985	0.522449	0	0	1.84312e-035	0	1	4	4
62	27.1209	0.325079	0	0	1.84312e-035	0	1	4	4
62	27.446	0.0522442	0	0	1.84312e-035	0	1	4	4
62	27.4982	0.15093	0	0	1.84312e-035	0	1	4	4
62	27.7188	0.255419	0	0	1.84312e-035	0	1	4	4
58	28.1484	0.319275	0	0	1.84312e-035	0	1	4	4
58	28.7173	0.296055	0	0	1.84312e-035	0	1	4	4
58	29.0133	0.0348301	0	0	1.84312e-035	0	1	4	4
59	29.35	0.307665	0	0	1.84312e-035	0	1	4	4
