midiPitch 	 onsetSec 	 durationSec 	 onsetBeats 	 onsetBarIndex 	 onsetBar 	 durationBeats 	 velocity  	 numerator 	 denominator 
67	0.383129	0.18576	0	0	3.38488e-035	0	1	4	4
67	0.568889	0.203175	0	0	3.38488e-035	0	1	4	4
67	0.772063	0.18576	0	0	3.38488e-035	0	1	4	4
67	0.957823	0.0406349	0	0	3.38488e-035	0	1	4	4
65	1.10875	0.0870748	0	0	3.38488e-035	0	1	4	4
69	1.25968	0.17415	0	0	3.38488e-035	0	1	4	4
67	1.45705	0.10449	0	0	3.38488e-035	0	1	4	4
67	1.68925	0.0232199	0	0	3.38488e-035	0	1	4	4
67	1.72408	0.133515	0	0	3.38488e-035	0	1	4	4
65	1.90984	0.029025	0	0	3.38488e-035	0	1	4	4
66	1.9737	0.0754648	0	0	3.38488e-035	0	1	4	4
71	2.4439	0.08127	0	0	3.38488e-035	0	1	4	4
62	3.01859	0.0348299	0	0	3.38488e-035	0	1	4	4
62	3.05923	0.145125	0	0	3.38488e-035	0	1	4	4
62	3.23918	0.232199	0	0	3.38488e-035	0	1	4	4
62	3.47138	0.249614	0	0	3.38488e-035	0	1	4	4
60	3.721	0.156735	0	0	3.38488e-035	0	1	4	4
60	4.15637	0.121905	0	0	3.38488e-035	0	1	4	4
62	4.80653	0.0580502	0	0	3.38488e-035	0	1	4	4
67	5.13161	0.0812697	0	0	3.38488e-035	0	1	4	4
62	5.21288	0.10449	0	0	3.38488e-035	0	1	4	4
62	5.31737	0.168344	0	0	3.38488e-035	0	1	4	4
60	5.50313	0.307664	0	0	3.38488e-035	0	1	4	4
62	5.81079	0.214785	0	0	3.38488e-035	0	1	4	4
62	6.11265	0.15093	0	0	3.38488e-035	0	1	4	4
61	6.48417	0.406349	0	0	3.38488e-035	0	1	4	4
62	6.89052	0.22059	0	0	3.38488e-035	0	1	4	4
61	8.4927	0.545669	0	0	3.38488e-035	0	1	4	4
61	9.12544	0.168345	0	0	3.38488e-035	0	1	4	4
62	9.32862	0.0986853	0	0	3.38488e-035	0	1	4	4
59	9.52018	0.127709	0	0	3.38488e-035	0	1	4	4
60	9.71755	0.296054	0	0	3.38488e-035	0	1	4	4
73	13.3573	0.278639	0	0	3.38488e-035	0	1	4	4
61	16.1611	0.510838	0	0	3.38488e-035	0	1	4	4
62	16.7532	0.17415	0	0	3.38488e-035	0	1	4	4
61	17.1537	0.406349	0	0	3.38488e-035	0	1	4	4
62	17.5601	0.243809	0	0	3.38488e-035	0	1	4	4
60	17.8039	0.0348301	0	0	3.38488e-035	0	1	4	4
60	18.2799	0.197369	0	0	3.38488e-035	0	1	4	4
60	18.4773	0.0232201	0	0	3.38488e-035	0	1	4	4
62	19.1913	0.417959	0	0	3.38488e-035	0	1	4	4
61	19.6905	0.156734	0	0	3.38488e-035	0	1	4	4
62	19.8995	0.10449	0	0	3.38488e-035	0	1	4	4
59	20.0969	0.12771	0	0	3.38488e-035	0	1	4	4
60	20.2942	0.301861	0	0	3.38488e-035	0	1	4	4
60	23.2316	0.214785	0	0	3.38488e-035	0	1	4	4
59	26.0412	0.145126	0	0	3.38488e-035	0	1	4	4
58	26.2211	0.307663	0	0	3.38488e-035	0	1	4	4
58	26.5288	1.07973	0	0	3.38488e-035	0	1	4	4
55	27.684	0.16254	0	0	3.38488e-035	0	1	4	4
55	27.9568	0.10449	0	0	3.38488e-035	0	1	4	4
55	28.0613	0.0928783	0	0	3.38488e-035	0	1	4	4
54	28.1542	0.267031	0	0	3.38488e-035	0	1	4	4
