midiPitch 	 onsetSec 	 durationSec 	 onsetBeats 	 onsetBarIndex 	 onsetBar 	 durationBeats 	 velocity  	 numerator 	 denominator 
62	0.121905	0.0870748	0	0	3.91138e-035	0	1	4	4
61	0.249615	0.0290249	0	0	3.91138e-035	0	1	4	4
62	0.290249	0.0406349	0	0	3.91138e-035	0	1	4	4
58	0.557279	0.0986848	0	0	3.91138e-035	0	1	4	4
60	0.731429	0.203175	0	0	3.91138e-035	0	1	4	4
58	1.18422	0.0406349	0	0	3.91138e-035	0	1	4	4
60	1.25388	0.0522449	0	0	3.91138e-035	0	1	4	4
60	1.30612	0.446984	0	0	3.91138e-035	0	1	4	4
50	2.35102	0.0232201	0	0	3.91138e-035	0	1	4	4
62	2.37424	0.0232198	0	0	3.91138e-035	0	1	4	4
50	2.39746	0.452789	0	0	3.91138e-035	0	1	4	4
50	2.98376	0.17415	0	0	3.91138e-035	0	1	4	4
50	3.17533	0.0696599	0	0	3.91138e-035	0	1	4	4
62	3.42494	0.0406349	0	0	3.91138e-035	0	1	4	4
62	3.47719	0.0348299	0	0	3.91138e-035	0	1	4	4
62	3.57007	0.0232201	0	0	3.91138e-035	0	1	4	4
62	3.6049	0.0232198	0	0	3.91138e-035	0	1	4	4
62	3.73841	0.0406349	0	0	3.91138e-035	0	1	4	4
62	3.78485	0.168345	0	0	3.91138e-035	0	1	4	4
61	4.01705	0.0754647	0	0	3.91138e-035	0	1	4	4
61	4.09252	0.0232201	0	0	3.91138e-035	0	1	4	4
62	4.11574	0.0232201	0	0	3.91138e-035	0	1	4	4
62	4.25506	0.0754652	0	0	3.91138e-035	0	1	4	4
62	4.37116	0.0464401	0	0	3.91138e-035	0	1	4	4
62	4.4176	0.0348301	0	0	3.91138e-035	0	1	4	4
62	4.51628	0.0348301	0	0	3.91138e-035	0	1	4	4
57	4.60336	0.0522451	0	0	3.91138e-035	0	1	4	4
58	4.6556	0.0290246	0	0	3.91138e-035	0	1	4	4
60	4.71946	0.0290251	0	0	3.91138e-035	0	1	4	4
60	4.76009	0.0522447	0	0	3.91138e-035	0	1	4	4
60	4.83556	0.0406346	0	0	3.91138e-035	0	1	4	4
60	4.90522	0.0348301	0	0	3.91138e-035	0	1	4	4
60	4.94585	0.145124	0	0	3.91138e-035	0	1	4	4
58	5.40444	0.0348301	0	0	3.91138e-035	0	1	4	4
60	5.54957	0.0406346	0	0	3.91138e-035	0	1	4	4
60	5.72952	0.0348301	0	0	3.91138e-035	0	1	4	4
60	5.76435	0.0232201	0	0	3.91138e-035	0	1	4	4
58	5.82821	0.0232201	0	0	3.91138e-035	0	1	4	4
60	5.88045	0.0580497	0	0	3.91138e-035	0	1	4	4
58	6.00236	0.0232201	0	0	3.91138e-035	0	1	4	4
60	6.0546	0.0232201	0	0	3.91138e-035	0	1	4	4
60	6.08363	0.0290246	0	0	3.91138e-035	0	1	4	4
59	6.11265	0.0348301	0	0	3.91138e-035	0	1	4	4
59	6.15329	0.0522447	0	0	3.91138e-035	0	1	4	4
50	6.82667	0.26703	0	0	3.91138e-035	0	1	4	4
50	7.0937	0.243809	0	0	3.91138e-035	0	1	4	4
59	7.4478	0.0464401	0	0	3.91138e-035	0	1	4	4
50	7.49424	0.383129	0	0	3.91138e-035	0	1	4	4
62	8.00508	0.139319	0	0	3.91138e-035	0	1	4	4
61	8.1444	0.0232201	0	0	3.91138e-035	0	1	4	4
62	8.19664	0.0696602	0	0	3.91138e-035	0	1	4	4
62	8.2663	0.104489	0	0	3.91138e-035	0	1	4	4
62	8.57977	0.20898	0	0	3.91138e-035	0	1	4	4
62	8.9571	0.0638552	0	0	3.91138e-035	0	1	4	4
58	9.10803	0.0290241	0	0	3.91138e-035	0	1	4	4
60	9.21832	0.19737	0	0	3.91138e-035	0	1	4	4
60	9.41569	0.0290251	0	0	3.91138e-035	0	1	4	4
60	9.46213	0.0348301	0	0	3.91138e-035	0	1	4	4
60	9.49696	0.0986843	0	0	3.91138e-035	0	1	4	4
62	9.78141	0.0232201	0	0	3.91138e-035	0	1	4	4
63	9.86848	0.0348301	0	0	3.91138e-035	0	1	4	4
62	9.90331	0.104489	0	0	3.91138e-035	0	1	4	4
62	10.0484	0.0406351	0	0	3.91138e-035	0	1	4	4
62	10.0891	0.0580492	0	0	3.91138e-035	0	1	4	4
62	10.1819	0.110295	0	0	3.91138e-035	0	1	4	4
63	10.3793	0.0406351	0	0	3.91138e-035	0	1	4	4
62	10.4374	0.10449	0	0	3.91138e-035	0	1	4	4
62	10.5419	0.0754642	0	0	3.91138e-035	0	1	4	4
61	10.6405	0.0290251	0	0	3.91138e-035	0	1	4	4
62	10.7741	0.0348301	0	0	3.91138e-035	0	1	4	4
50	11.4416	0.110295	0	0	3.91138e-035	0	1	4	4
50	11.5519	0.226395	0	0	3.91138e-035	0	1	4	4
69	11.7783	0.0638542	0	0	3.91138e-035	0	1	4	4
50	11.877	0.139319	0	0	3.91138e-035	0	1	4	4
62	12.1324	0.0406351	0	0	3.91138e-035	0	1	4	4
62	12.295	0.0464401	0	0	3.91138e-035	0	1	4	4
62	12.3704	0.0348291	0	0	3.91138e-035	0	1	4	4
61	12.4575	0.0638552	0	0	3.91138e-035	0	1	4	4
62	12.7536	0.0464401	0	0	3.91138e-035	0	1	4	4
62	12.9858	0.139319	0	0	3.91138e-035	0	1	4	4
62	13.1251	0.121904	0	0	3.91138e-035	0	1	4	4
62	13.4502	0.0522451	0	0	3.91138e-035	0	1	4	4
58	13.5605	0.0464401	0	0	3.91138e-035	0	1	4	4
60	13.7288	0.0812702	0	0	3.91138e-035	0	1	4	4
60	13.8101	0.0290241	0	0	3.91138e-035	0	1	4	4
60	13.8565	0.17415	0	0	3.91138e-035	0	1	4	4
60	14.0307	0.0754642	0	0	3.91138e-035	0	1	4	4
57	14.3964	0.0348301	0	0	3.91138e-035	0	1	4	4
59	14.4893	0.0232201	0	0	3.91138e-035	0	1	4	4
59	14.5299	0.0290251	0	0	3.91138e-035	0	1	4	4
59	14.5589	0.0522451	0	0	3.91138e-035	0	1	4	4
59	14.617	0.0290251	0	0	3.91138e-035	0	1	4	4
59	14.7389	0.0290251	0	0	3.91138e-035	0	1	4	4
62	14.942	0.0232201	0	0	3.91138e-035	0	1	4	4
62	15.093	0.0986853	0	0	3.91138e-035	0	1	4	4
62	15.1917	0.0232201	0	0	3.91138e-035	0	1	4	4
63	15.3194	0.0696602	0	0	3.91138e-035	0	1	4	4
62	15.4587	0.0290241	0	0	3.91138e-035	0	1	4	4
62	15.5109	0.0696602	0	0	3.91138e-035	0	1	4	4
62	15.6096	0.0522451	0	0	3.91138e-035	0	1	4	4
64	15.7431	0.0348301	0	0	3.91138e-035	0	1	4	4
64	15.865	0.133514	0	0	3.91138e-035	0	1	4	4
65	16.0392	0.0406361	0	0	3.91138e-035	0	1	4	4
64	16.341	0.0348301	0	0	3.91138e-035	0	1	4	4
64	16.4107	0.0522461	0	0	3.91138e-035	0	1	4	4
64	16.4629	0.0232201	0	0	3.91138e-035	0	1	4	4
62	16.5268	0.0812702	0	0	3.91138e-035	0	1	4	4
63	16.9157	0.0232201	0	0	3.91138e-035	0	1	4	4
62	16.9448	0.0406361	0	0	3.91138e-035	0	1	4	4
62	17.0086	0.0406342	0	0	3.91138e-035	0	1	4	4
63	17.0725	0.0638542	0	0	3.91138e-035	0	1	4	4
62	17.177	0.0290241	0	0	3.91138e-035	0	1	4	4
62	17.2408	0.197369	0	0	3.91138e-035	0	1	4	4
62	17.4904	0.0522442	0	0	3.91138e-035	0	1	4	4
62	17.5427	0.0406361	0	0	3.91138e-035	0	1	4	4
62	17.5891	0.10449	0	0	3.91138e-035	0	1	4	4
62	17.7633	0.0232201	0	0	3.91138e-035	0	1	4	4
62	17.7923	0.0348301	0	0	3.91138e-035	0	1	4	4
62	17.8561	0.1161	0	0	3.91138e-035	0	1	4	4
64	17.9781	0.0290241	0	0	3.91138e-035	0	1	4	4
64	18.0303	0.110294	0	0	3.91138e-035	0	1	4	4
65	18.1406	0.0522461	0	0	3.91138e-035	0	1	4	4
65	18.1928	0.174149	0	0	3.91138e-035	0	1	4	4
65	18.3902	0.13932	0	0	3.91138e-035	0	1	4	4
64	18.5295	0.232199	0	0	3.91138e-035	0	1	4	4
62	18.7617	0.0986843	0	0	3.91138e-035	0	1	4	4
63	19.2551	0.116098	0	0	3.91138e-035	0	1	4	4
62	19.557	0.10449	0	0	3.91138e-035	0	1	4	4
64	19.6963	0.029026	0	0	3.91138e-035	0	1	4	4
60	19.8705	0.10449	0	0	3.91138e-035	0	1	4	4
57	20.2652	0.0406342	0	0	3.91138e-035	0	1	4	4
50	20.3929	0.394739	0	0	3.91138e-035	0	1	4	4
66	20.8573	0.174149	0	0	3.91138e-035	0	1	4	4
66	21.0315	0.0348301	0	0	3.91138e-035	0	1	4	4
66	21.1766	0.0232201	0	0	3.91138e-035	0	1	4	4
66	21.2637	0.0580482	0	0	3.91138e-035	0	1	4	4
66	21.3217	0.029026	0	0	3.91138e-035	0	1	4	4
62	21.5481	0.0406361	0	0	3.91138e-035	0	1	4	4
62	21.612	0.110294	0	0	3.91138e-035	0	1	4	4
66	21.7803	0.0290241	0	0	3.91138e-035	0	1	4	4
66	21.8093	0.0232201	0	0	3.91138e-035	0	1	4	4
65	21.9603	0.168344	0	0	3.91138e-035	0	1	4	4
66	22.2273	0.17415	0	0	3.91138e-035	0	1	4	4
69	22.5176	0.0464382	0	0	3.91138e-035	0	1	4	4
69	22.564	0.10449	0	0	3.91138e-035	0	1	4	4
69	22.6685	0.0638561	0	0	3.91138e-035	0	1	4	4
71	22.7672	0.0464401	0	0	3.91138e-035	0	1	4	4
71	22.8136	0.238005	0	0	3.91138e-035	0	1	4	4
65	23.0806	0.191565	0	0	3.91138e-035	0	1	4	4
69	23.3477	0.203175	0	0	3.91138e-035	0	1	4	4
71	23.6263	0.0580502	0	0	3.91138e-035	0	1	4	4
71	23.7076	0.133514	0	0	3.91138e-035	0	1	4	4
65	24.2068	0.179955	0	0	3.91138e-035	0	1	4	4
65	24.4971	0.0986862	0	0	3.91138e-035	0	1	4	4
62	24.9963	0.197371	0	0	3.91138e-035	0	1	4	4
62	25.2053	0.0870743	0	0	3.91138e-035	0	1	4	4
66	25.3272	0.162539	0	0	3.91138e-035	0	1	4	4
66	25.4897	0.0986862	0	0	3.91138e-035	0	1	4	4
66	25.629	0.145124	0	0	3.91138e-035	0	1	4	4
62	25.9889	0.0696602	0	0	3.91138e-035	0	1	4	4
62	26.1747	0.0290241	0	0	3.91138e-035	0	1	4	4
62	26.3663	0.0464401	0	0	3.91138e-035	0	1	4	4
62	26.4649	0.232199	0	0	3.91138e-035	0	1	4	4
62	26.7842	0.0986843	0	0	3.91138e-035	0	1	4	4
62	26.8829	0.0638542	0	0	3.91138e-035	0	1	4	4
69	27.0106	0.0580482	0	0	3.91138e-035	0	1	4	4
69	27.0687	0.0522461	0	0	3.91138e-035	0	1	4	4
69	27.1209	0.0870743	0	0	3.91138e-035	0	1	4	4
71	27.237	0.0348282	0	0	3.91138e-035	0	1	4	4
71	27.2776	0.203175	0	0	3.91138e-035	0	1	4	4
65	27.5389	0.0406342	0	0	3.91138e-035	0	1	4	4
65	27.5853	0.179955	0	0	3.91138e-035	0	1	4	4
69	27.9394	0.12771	0	0	3.91138e-035	0	1	4	4
74	28.1426	0.0464401	0	0	3.91138e-035	0	1	4	4
72	28.3574	0.0928802	0	0	3.91138e-035	0	1	4	4
72	28.4502	0.179955	0	0	3.91138e-035	0	1	4	4
66	28.7173	0.121906	0	0	3.91138e-035	0	1	4	4
