midiPitch 	 onsetSec 	 durationSec 	 onsetBeats 	 onsetBarIndex 	 onsetBar 	 durationBeats 	 velocity  	 numerator 	 denominator 
61	0.0580499	0.0290249	0	0	0	0	1	4	4
60	0.0870748	0.0870748	0	0	0	0	1	4	4
61	0.17415	0.0812698	0	0	0	0	1	4	4
59	0.342494	0.0406349	0	0	0	0	1	4	4
59	0.394739	0.029025	0	0	0	0	1	4	4
59	0.435374	0.0406349	0	0	0	0	1	4	4
59	0.551474	0.029025	0	0	0	0	1	4	4
69	0.650159	0.0232199	0	0	0	0	1	4	4
67	0.690794	0.0348299	0	0	0	0	1	4	4
68	0.743039	0.0580499	0	0	0	0	1	4	4
65	0.899773	0.0464399	0	0	0	0	1	4	4
66	1.06231	0.0290248	0	0	0	0	1	4	4
72	1.2829	0.0638548	0	0	0	0	1	4	4
65	1.56154	0.029025	0	0	0	0	1	4	4
64	1.96789	0.03483	0	0	0	0	1	4	4
64	2.07238	0.0348299	0	0	0	0	1	4	4
59	2.13043	0.08127	0	0	0	0	1	4	4
64	2.3278	0.0290248	0	0	0	0	1	4	4
61	2.41488	0.0348299	0	0	0	0	1	4	4
69	2.7922	0.0464399	0	0	0	0	1	4	4
71	3.0244	0.0348299	0	0	0	0	1	4	4
68	3.11147	0.087075	0	0	0	0	1	4	4
69	3.41333	0.0232201	0	0	0	0	1	4	4
71	3.47138	0.0348301	0	0	0	0	1	4	4
72	3.55265	0.0522449	0	0	0	0	1	4	4
71	3.69197	0.0232201	0	0	0	0	1	4	4
65	3.75583	0.0232198	0	0	0	0	1	4	4
64	4.26086	0.0290251	0	0	0	0	1	4	4
60	4.37696	0.0290251	0	0	0	0	1	4	4
65	4.41179	0.0232201	0	0	0	0	1	4	4
71	4.44082	0.0348296	0	0	0	0	1	4	4
64	4.54531	0.0232196	0	0	0	0	1	4	4
64	4.58594	0.0232201	0	0	0	0	1	4	4
67	4.63238	0.0290251	0	0	0	0	1	4	4
64	4.67302	0.0290251	0	0	0	0	1	4	4
65	4.91683	0.0290251	0	0	0	0	1	4	4
66	5.23029	0.0232201	0	0	0	0	1	4	4
72	5.26512	0.0290246	0	0	0	0	1	4	4
72	5.36381	0.0348296	0	0	0	0	1	4	4
73	5.4683	0.0812697	0	0	0	0	1	4	4
69	5.5844	0.0464396	0	0	0	0	1	4	4
71	5.65986	0.0696597	0	0	0	0	1	4	4
69	5.73533	0.0406351	0	0	0	0	1	4	4
67	5.88626	0.0290246	0	0	0	0	1	4	4
4294967295	5.90948	0.017415	0	0	0	0	1	4	4
67	6.00236	0.0406351	0	0	0	0	1	4	4
71	6.15909	0.0232201	0	0	0	0	1	4	4
70	6.18812	0.0406346	0	0	0	0	1	4	4
71	6.71057	0.0290246	0	0	0	0	1	4	4
73	6.7512	0.0348301	0	0	0	0	1	4	4
73	6.82667	0.0348301	0	0	0	0	1	4	4
71	6.97179	0.0232201	0	0	0	0	1	4	4
75	7.14014	0.0290251	0	0	0	0	1	4	4
56	7.5639	0.0348301	0	0	0	0	1	4	4
54	7.79029	0.0406351	0	0	0	0	1	4	4
58	8.71329	0.0348301	0	0	0	0	1	4	4
64	9.13125	0.0696602	0	0	0	0	1	4	4
61	9.46213	0.0290251	0	0	0	0	1	4	4
59	9.5434	0.0406351	0	0	0	0	1	4	4
58	9.70594	0.0348291	0	0	0	0	1	4	4
59	9.75819	0.0754652	0	0	0	0	1	4	4
57	9.95555	0.0406351	0	0	0	0	1	4	4
54	10.1819	0.0232201	0	0	0	0	1	4	4
57	10.3445	0.0638542	0	0	0	0	1	4	4
60	10.5302	0.0290241	0	0	0	0	1	4	4
59	10.5709	0.0232201	0	0	0	0	1	4	4
60	11.0353	0.0580502	0	0	0	0	1	4	4
60	11.0991	0.0464401	0	0	0	0	1	4	4
60	11.192	0.0812702	0	0	0	0	1	4	4
60	11.3894	0.0696602	0	0	0	0	1	4	4
60	11.639	0.0464401	0	0	0	0	1	4	4
60	11.7609	0.0290241	0	0	0	0	1	4	4
59	11.877	0.0232201	0	0	0	0	1	4	4
60	12.0105	0.0290251	0	0	0	0	1	4	4
60	12.1731	0.0522442	0	0	0	0	1	4	4
60	12.5214	0.0348301	0	0	0	0	1	4	4
61	12.6491	0.0290251	0	0	0	0	1	4	4
59	12.7071	0.0232201	0	0	0	0	1	4	4
61	12.9509	0.0232201	0	0	0	0	1	4	4
66	13.0322	0.0928802	0	0	0	0	1	4	4
61	13.1773	0.0232201	0	0	0	0	1	4	4
61	13.2644	0.0464401	0	0	0	0	1	4	4
63	14.0829	0.0232201	0	0	0	0	1	4	4
62	14.4254	0.0232201	0	0	0	0	1	4	4
61	14.4718	0.0348301	0	0	0	0	1	4	4
58	14.8376	0.0232201	0	0	0	0	1	4	4
58	14.8666	0.0290251	0	0	0	0	1	4	4
58	14.9304	0.0232201	0	0	0	0	1	4	4
58	15.0059	0.0232201	0	0	0	0	1	4	4
59	15.0523	0.0290241	0	0	0	0	1	4	4
60	15.1278	0.0696602	0	0	0	0	1	4	4
60	15.2323	0.0348301	0	0	0	0	1	4	4
61	15.4297	0.0348301	0	0	0	0	1	4	4
64	15.8592	0.0232201	0	0	0	0	1	4	4
59	15.8824	0.121903	0	0	0	0	1	4	4
59	16.0914	0.0464401	0	0	0	0	1	4	4
64	16.1379	0.0348301	0	0	0	0	1	4	4
59	16.4165	0.0290241	0	0	0	0	1	4	4
59	16.5152	0.0812702	0	0	0	0	1	4	4
61	16.6081	0.0290241	0	0	0	0	1	4	4
59	16.6545	0.0870743	0	0	0	0	1	4	4
60	16.7416	0.0232201	0	0	0	0	1	4	4
59	16.8229	0.0754642	0	0	0	0	1	4	4
64	17.0667	0.0406361	0	0	0	0	1	4	4
59	17.3685	0.0406342	0	0	0	0	1	4	4
60	17.682	0.0406342	0	0	0	0	1	4	4
60	17.7517	0.0812683	0	0	0	0	1	4	4
61	17.8561	0.0348301	0	0	0	0	1	4	4
63	18.1986	0.0464401	0	0	0	0	1	4	4
60	18.2451	0.0290241	0	0	0	0	1	4	4
59	18.338	0.0348301	0	0	0	0	1	4	4
59	18.5005	0.0464401	0	0	0	0	1	4	4
59	18.634	0.0870743	0	0	0	0	1	4	4
59	18.8952	0.0638561	0	0	0	0	1	4	4
64	19.0636	0.029026	0	0	0	0	1	4	4
59	19.2145	0.0928802	0	0	0	0	1	4	4
60	19.3422	0.110294	0	0	0	0	1	4	4
58	19.9924	0.029026	0	0	0	0	1	4	4
62	20.0446	0.0290241	0	0	0	0	1	4	4
58	20.1549	0.0232201	0	0	0	0	1	4	4
63	20.242	0.029026	0	0	0	0	1	4	4
63	20.2942	0.029026	0	0	0	0	1	4	4
64	20.3407	0.0232201	0	0	0	0	1	4	4
64	20.4684	0.0232201	0	0	0	0	1	4	4
63	20.689	0.0232182	0	0	0	0	1	4	4
64	20.718	0.0580502	0	0	0	0	1	4	4
71	20.8515	0.029026	0	0	0	0	1	4	4
69	20.8922	0.0290241	0	0	0	0	1	4	4
69	20.956	0.0406342	0	0	0	0	1	4	4
66	21.0083	0.0928802	0	0	0	0	1	4	4
67	21.1011	0.0348301	0	0	0	0	1	4	4
68	21.2056	0.0986843	0	0	0	0	1	4	4
68	21.3217	0.0522461	0	0	0	0	1	4	4
67	21.67	0.0754642	0	0	0	0	1	4	4
62	22.2215	0.0290241	0	0	0	0	1	4	4
64	22.3144	0.0348282	0	0	0	0	1	4	4
63	22.4421	0.0406361	0	0	0	0	1	4	4
68	22.5582	0.0232201	0	0	0	0	1	4	4
68	22.7265	0.0232201	0	0	0	0	1	4	4
63	23.0864	0.0348301	0	0	0	0	1	4	4
68	23.1967	0.0406361	0	0	0	0	1	4	4
59	23.5218	0.0232201	0	0	0	0	1	4	4
60	23.5683	0.0232182	0	0	0	0	1	4	4
68	23.7772	0.0348301	0	0	0	0	1	4	4
80	24.0443	0.0232201	0	0	0	0	1	4	4
80	24.1371	0.0232201	0	0	0	0	1	4	4
79	24.172	0.0232201	0	0	0	0	1	4	4
79	24.201	0.0348301	0	0	0	0	1	4	4
79	24.3635	0.0348301	0	0	0	0	1	4	4
82	24.5377	0.0232201	0	0	0	0	1	4	4
72	25.5361	0.0232201	0	0	0	0	1	4	4
71	25.5768	0.0580482	0	0	0	0	1	4	4
70	25.6348	0.029026	0	0	0	0	1	4	4
69	25.6929	0.0348301	0	0	0	0	1	4	4
70	25.7393	0.029026	0	0	0	0	1	4	4
72	25.8148	0.0348282	0	0	0	0	1	4	4
70	25.9077	0.0232201	0	0	0	0	1	4	4
68	26.0296	0.0232182	0	0	0	0	1	4	4
69	26.0644	0.0348301	0	0	0	0	1	4	4
70	26.1166	0.0232201	0	0	0	0	1	4	4
70	26.2153	0.0522442	0	0	0	0	1	4	4
70	26.4011	0.0464382	0	0	0	0	1	4	4
67	26.4475	0.0464401	0	0	0	0	1	4	4
71	26.494	0.0986862	0	0	0	0	1	4	4
64	27.475	0.0348301	0	0	0	0	1	4	4
64	27.713	0.0580502	0	0	0	0	1	4	4
72	27.9336	0.0406342	0	0	0	0	1	4	4
67	28.1252	0.0580502	0	0	0	0	1	4	4
67	28.2239	0.029026	0	0	0	0	1	4	4
68	28.2587	0.0638542	0	0	0	0	1	4	4
70	28.4096	0.0290241	0	0	0	0	1	4	4
69	28.4851	0.0232201	0	0	0	0	1	4	4
70	28.5141	0.0348301	0	0	0	0	1	4	4
72	28.903	0.0290241	0	0	0	0	1	4	4
72	28.9553	0.029026	0	0	0	0	1	4	4
73	29.0075	0.0696602	0	0	0	0	1	4	4
67	29.0946	0.0232201	0	0	0	0	1	4	4
