midiPitch 	 onsetSec 	 durationSec 	 onsetBeats 	 onsetBarIndex 	 onsetBar 	 durationBeats 	 velocity  	 numerator 	 denominator 
65	0.0406349	0.0928798	0	0	0	0	1	4	4
65	0.133515	0.510839	0	0	0	0	1	4	4
70	0.754649	0.0348299	0	0	0	0	1	4	4
70	0.754649	0.0406349	0	0	0	0	1	4	4
61	0.783673	0.01161	0	0	0	0	1	4	4
70	0.754649	0.0464399	0	0	0	0	1	4	4
61	0.783673	0.255419	0	0	0	0	1	4	4
64	1.07973	0.179955	0	0	0	0	1	4	4
62	1.32934	0.203175	0	0	0	0	1	4	4
64	1.64281	0.487619	0	0	0	0	1	4	4
64	2.13043	0.156735	0	0	0	0	1	4	4
63	2.49615	0.319274	0	0	0	0	1	4	4
61	2.81542	0.702404	0	0	0	0	1	4	4
65	3.8429	0.133515	0	0	0	0	1	4	4
67	3.97642	0.0870748	0	0	0	0	1	4	4
64	4.09252	0.249615	0	0	0	0	1	4	4
65	4.48145	0.13932	0	0	0	0	1	4	4
62	4.77751	0.168345	0	0	0	0	1	4	4
64	5.11419	0.377324	0	0	0	0	1	4	4
61	5.51474	0.0986848	0	0	0	0	1	4	4
62	5.61342	0.191565	0	0	0	0	1	4	4
65	5.85723	0.179955	0	0	0	0	1	4	4
62	6.13007	0.179955	0	0	0	0	1	4	4
62	6.31002	0.0928802	0	0	0	0	1	4	4
65	6.4029	0.127709	0	0	0	0	1	4	4
62	6.61769	0.15093	0	0	0	0	1	4	4
64	7.03565	0.284445	0	0	0	0	1	4	4
65	7.32009	0.20898	0	0	0	0	1	4	4
63	7.52907	0.0406346	0	0	0	0	1	4	4
62	7.70902	0.719819	0	0	0	0	1	4	4
65	9.10222	0.121904	0	0	0	0	1	4	4
67	9.22413	0.162539	0	0	0	0	1	4	4
69	9.40989	0.0986853	0	0	0	0	1	4	4
68	9.50857	0.0290241	0	0	0	0	1	4	4
66	9.6595	0.116099	0	0	0	0	1	4	4
66	9.7756	0.12771	0	0	0	0	1	4	4
67	9.90331	0.17415	0	0	0	0	1	4	4
64	10.0775	0.24381	0	0	0	0	1	4	4
66	10.3213	0.342494	0	0	0	0	1	4	4
67	10.8263	0.10449	0	0	0	0	1	4	4
66	10.9308	0.249614	0	0	0	0	1	4	4
64	11.1804	0.441179	0	0	0	0	1	4	4
64	11.6216	0.0290251	0	0	0	0	1	4	4
64	11.6738	0.0754652	0	0	0	0	1	4	4
66	11.9815	0.162539	0	0	0	0	1	4	4
64	12.2021	0.37152	0	0	0	0	1	4	4
66	12.5736	0.214785	0	0	0	0	1	4	4
66	12.9741	0.22059	0	0	0	0	1	4	4
64	13.1947	0.255419	0	0	0	0	1	4	4
66	13.4502	0.522449	0	0	0	0	1	4	4
69	14.2919	0.342495	0	0	0	0	1	4	4
66	14.6402	0.226394	0	0	0	0	1	4	4
67	14.8666	0.0638552	0	0	0	0	1	4	4
64	14.9537	0.150929	0	0	0	0	1	4	4
65	15.3019	0.13932	0	0	0	0	1	4	4
65	15.836	0.116099	0	0	0	0	1	4	4
64	16.3875	0.574694	0	0	0	0	1	4	4
64	16.9622	0.313469	0	0	0	0	1	4	4
64	17.8445	0.17415	0	0	0	0	1	4	4
64	18.0187	0.290249	0	0	0	0	1	4	4
64	18.4134	0.394739	0	0	0	0	1	4	4
82763936	18.8314	0.284445	0	0	0	0	1	4	4
64	19.1158	0.0870743	0	0	0	0	1	4	4
62	20.1375	0.307665	0	0	0	0	1	4	4
67	20.5787	0.551474	0	0	0	0	1	4	4
67	21.1534	0.179955	0	0	0	0	1	4	4
66	21.3333	0.197371	0	0	0	0	1	4	4
64	21.5888	0.261225	0	0	0	0	1	4	4
66	21.9777	0.191565	0	0	0	0	1	4	4
65	22.1693	0.10449	0	0	0	0	1	4	4
64	22.2737	0.65016	0	0	0	0	1	4	4
58	23.3709	0.714014	0	0	0	0	1	4	4
60	24.1371	0.220591	0	0	0	0	1	4	4
61	24.3577	0.168344	0	0	0	0	1	4	4
61	24.5377	0.255419	0	0	0	0	1	4	4
62	24.8802	0.795284	0	0	0	0	1	4	4
58	25.7974	0.243809	0	0	0	0	1	4	4
64	27.1209	0.417959	0	0	0	0	1	4	4
64	28.2413	0.278639	0	0	0	0	1	4	4
64	29.0366	0.15093	0	0	0	0	1	4	4
64	29.1875	0.0290241	0	0	0	0	1	4	4
67	29.2165	0.499229	0	0	0	0	1	4	4
