midiPitch 	 onsetSec 	 durationSec 	 onsetBeats 	 onsetBarIndex 	 onsetBar 	 durationBeats 	 velocity  	 numerator 	 denominator 
70	0.0464399	0.1161	0	0	5.529e-035	0	1	4	4
68	0.16254	0.10449	0	0	5.529e-035	0	1	4	4
70	0.301859	0.296054	0	0	5.529e-035	0	1	4	4
70	0.597914	0.18576	0	0	5.529e-035	0	1	4	4
70	0.783673	0.261224	0	0	5.529e-035	0	1	4	4
70	1.0449	0.261225	0	0	5.529e-035	0	1	4	4
68	1.32354	0.12771	0	0	5.529e-035	0	1	4	4
70	1.45125	0.191565	0	0	5.529e-035	0	1	4	4
70	1.64281	0.10449	0	0	5.529e-035	0	1	4	4
70	1.7473	0.516644	0	0	5.529e-035	0	1	4	4
70	2.26395	0.20898	0	0	5.529e-035	0	1	4	4
70	2.47293	0.481814	0	0	5.529e-035	0	1	4	4
74	3.80807	0.0928798	0	0	5.529e-035	0	1	4	4
60	4.06349	0.0928798	0	0	5.529e-035	0	1	4	4
58	4.52209	0.0870748	0	0	5.529e-035	0	1	4	4
60	4.82395	0.0754647	0	0	5.529e-035	0	1	4	4
60	5.07936	0.145125	0	0	5.529e-035	0	1	4	4
55	5.37542	0.168344	0	0	5.529e-035	0	1	4	4
58	5.63084	0.110295	0	0	5.529e-035	0	1	4	4
62	5.78757	0.0928798	0	0	5.529e-035	0	1	4	4
55	6.06041	0.13932	0	0	5.529e-035	0	1	4	4
60	6.35646	0.13932	0	0	5.529e-035	0	1	4	4
58	6.82086	0.13932	0	0	5.529e-035	0	1	4	4
60	7.11111	0.0232196	0	0	5.529e-035	0	1	4	4
60	7.14014	0.13932	0	0	5.529e-035	0	1	4	4
55	7.69161	0.0928798	0	0	5.529e-035	0	1	4	4
58	7.92961	0.0870748	0	0	5.529e-035	0	1	4	4
62	8.05732	0.110294	0	0	5.529e-035	0	1	4	4
60	8.35338	0.179955	0	0	5.529e-035	0	1	4	4
65	8.64363	0.127709	0	0	5.529e-035	0	1	4	4
58	8.81778	0.0348301	0	0	5.529e-035	0	1	4	4
63	8.85261	0.0232201	0	0	5.529e-035	0	1	4	4
63	9.11964	0.0870743	0	0	5.529e-035	0	1	4	4
65	9.40408	0.127709	0	0	5.529e-035	0	1	4	4
60	9.99619	0.0812702	0	0	5.529e-035	0	1	4	4
63	10.2342	0.0986853	0	0	5.529e-035	0	1	4	4
60	10.687	0.110294	0	0	5.529e-035	0	1	4	4
65	10.954	0.110294	0	0	5.529e-035	0	1	4	4
63	11.372	0.162539	0	0	5.529e-035	0	1	4	4
65	11.7087	0.104489	0	0	5.529e-035	0	1	4	4
63	11.9757	0.0812693	0	0	5.529e-035	0	1	4	4
60	12.2485	0.121905	0	0	5.529e-035	0	1	4	4
63	12.5214	0.0232201	0	0	5.529e-035	0	1	4	4
63	12.5504	0.0754642	0	0	5.529e-035	0	1	4	4
65	12.6317	0.13932	0	0	5.529e-035	0	1	4	4
67	13.1135	0.0580502	0	0	5.529e-035	0	1	4	4
67	13.1715	0.0348301	0	0	5.529e-035	0	1	4	4
70	13.2702	0.0638552	0	0	5.529e-035	0	1	4	4
74	13.3979	0.127709	0	0	5.529e-035	0	1	4	4
72	13.5256	0.156734	0	0	5.529e-035	0	1	4	4
72	13.6824	0.0406351	0	0	5.529e-035	0	1	4	4
72	13.7288	0.127709	0	0	5.529e-035	0	1	4	4
72	13.8855	0.121905	0	0	5.529e-035	0	1	4	4
70	14.0074	0.104489	0	0	5.529e-035	0	1	4	4
67	14.5821	0.249615	0	0	5.529e-035	0	1	4	4
67	14.8782	0.0754652	0	0	5.529e-035	0	1	4	4
70	14.9827	0.0986843	0	0	5.529e-035	0	1	4	4
74	15.1046	0.13932	0	0	5.529e-035	0	1	4	4
72	15.2439	0.127709	0	0	5.529e-035	0	1	4	4
72	15.3716	0.162539	0	0	5.529e-035	0	1	4	4
70	15.6677	0.162539	0	0	5.529e-035	0	1	4	4
74	15.9579	0.226396	0	0	5.529e-035	0	1	4	4
72	17.6414	0.0870762	0	0	5.529e-035	0	1	4	4
75	17.7749	0.110294	0	0	5.529e-035	0	1	4	4
79	17.9258	0.0812702	0	0	5.529e-035	0	1	4	4
77	18.0477	0.13932	0	0	5.529e-035	0	1	4	4
77	18.2451	0.156734	0	0	5.529e-035	0	1	4	4
75	18.4889	0.238005	0	0	5.529e-035	0	1	4	4
72	19.0171	0.238005	0	0	5.529e-035	0	1	4	4
72	19.2551	0.168344	0	0	5.529e-035	0	1	4	4
75	19.4757	0.110294	0	0	5.529e-035	0	1	4	4
79	19.5976	0.133514	0	0	5.529e-035	0	1	4	4
77	19.7544	0.13932	0	0	5.529e-035	0	1	4	4
77	19.8937	0.197369	0	0	5.529e-035	0	1	4	4
75	20.1723	0.15093	0	0	5.529e-035	0	1	4	4
79	20.4568	0.272835	0	0	5.529e-035	0	1	4	4
67	22.0996	0.110294	0	0	5.529e-035	0	1	4	4
70	22.2273	0.12771	0	0	5.529e-035	0	1	4	4
74	22.355	0.133514	0	0	5.529e-035	0	1	4	4
72	22.4885	0.0348301	0	0	5.529e-035	0	1	4	4
72	22.5292	0.110294	0	0	5.529e-035	0	1	4	4
72	22.6395	0.0290241	0	0	5.529e-035	0	1	4	4
72	22.6743	0.121904	0	0	5.529e-035	0	1	4	4
70	22.9181	0.145124	0	0	5.529e-035	0	1	4	4
74	23.1909	0.13932	0	0	5.529e-035	0	1	4	4
72	23.4696	0.290251	0	0	5.529e-035	0	1	4	4
67	23.7598	0.249613	0	0	5.529e-035	0	1	4	4
70	24.0501	0.284445	0	0	5.529e-035	0	1	4	4
74	24.3635	0.255419	0	0	5.529e-035	0	1	4	4
72	24.619	0.255421	0	0	5.529e-035	0	1	4	4
70	25.0311	0.133514	0	0	5.529e-035	0	1	4	4
74	25.1646	0.1161	0	0	5.529e-035	0	1	4	4
72	25.2807	0.168344	0	0	5.529e-035	0	1	4	4
72	25.4491	0.249615	0	0	5.529e-035	0	1	4	4
67	25.7161	0.249615	0	0	5.529e-035	0	1	4	4
70	26.0005	0.272835	0	0	5.529e-035	0	1	4	4
72	26.314	0.243811	0	0	5.529e-035	0	1	4	4
75	26.5868	0.214785	0	0	5.529e-035	0	1	4	4
75	26.8016	0.0580502	0	0	5.529e-035	0	1	4	4
79	26.8597	0.13932	0	0	5.529e-035	0	1	4	4
77	26.999	0.156734	0	0	5.529e-035	0	1	4	4
77	27.1557	0.150928	0	0	5.529e-035	0	1	4	4
77	27.3067	0.10449	0	0	5.529e-035	0	1	4	4
72	27.4112	0.13932	0	0	5.529e-035	0	1	4	4
72	27.5853	0.121904	0	0	5.529e-035	0	1	4	4
75	27.7072	0.0870743	0	0	5.529e-035	0	1	4	4
79	27.7943	0.179955	0	0	5.529e-035	0	1	4	4
79	27.9742	0.0580502	0	0	5.529e-035	0	1	4	4
79	28.0323	0.0348301	0	0	5.529e-035	0	1	4	4
77	28.0671	0.261225	0	0	5.529e-035	0	1	4	4
77	28.3283	0.168344	0	0	5.529e-035	0	1	4	4
72	28.5489	0.15093	0	0	5.529e-035	0	1	4	4
72	28.6999	0.10449	0	0	5.529e-035	0	1	4	4
75	28.8102	0.0812702	0	0	5.529e-035	0	1	4	4
77	29.1875	0.139318	0	0	5.529e-035	0	1	4	4
