midiPitch 	 onsetSec 	 durationSec 	 onsetBeats 	 onsetBarIndex 	 onsetBar 	 durationBeats 	 velocity  	 numerator 	 denominator 
70	0.563084	0.156735	0	0	0	0	1	4	4
70	0.719819	0.330884	0	0	0	0	1	4	4
70	1.0507	0.03483	0	0	0	0	1	4	4
70	1.19002	0.145125	0	0	0	0	1	4	4
68	1.45125	0.12771	0	0	0	0	1	4	4
71	1.72989	0.0232201	0	0	0	0	1	4	4
68	1.77633	0.0232199	0	0	0	0	1	4	4
68	2.40907	0.0696599	0	0	0	0	1	4	4
70	2.798	0.0406351	0	0	0	0	1	4	4
71	2.84444	0.15093	0	0	0	0	1	4	4
83	2.72834	0.313469	0	0	0	0	1	4	4
83	3.06503	0.226395	0	0	0	0	1	4	4
83	3.29143	0.145125	0	0	0	0	1	4	4
83	3.43655	0.0754647	0	0	0	0	1	4	4
83	3.51202	0.121905	0	0	0	0	1	4	4
83	3.63392	0.156735	0	0	0	0	1	4	4
83	3.79066	0.0638549	0	0	0	0	1	4	4
82	3.85451	0.0348299	0	0	0	0	1	4	4
83	3.89515	0.0638549	0	0	0	0	1	4	4
83	4.05769	0.110295	0	0	0	0	1	4	4
83	4.16798	0.2322	0	0	0	0	1	4	4
83	4.40018	0.19737	0	0	0	0	1	4	4
83	4.59755	0.0986848	0	0	0	0	1	4	4
83	4.74848	0.0406346	0	0	0	0	1	4	4
83	4.78912	0.133515	0	0	0	0	1	4	4
83	4.92263	0.0696597	0	0	0	0	1	4	4
83	5.08517	0.0812702	0	0	0	0	1	4	4
83	5.19546	0.0522451	0	0	0	0	1	4	4
83	5.24771	0.10449	0	0	0	0	1	4	4
83	5.3522	0.0696597	0	0	0	0	1	4	4
83	5.42186	0.0870748	0	0	0	0	1	4	4
83	5.56118	0.0870748	0	0	0	0	1	4	4
83	5.67147	0.0928798	0	0	0	0	1	4	4
83	5.76435	0.110295	0	0	0	0	1	4	4
83	5.9327	0.0232201	0	0	0	0	1	4	4
83	5.96753	0.17415	0	0	0	0	1	4	4
83	6.21714	0.0812702	0	0	0	0	1	4	4
82	6.29841	0.0232196	0	0	0	0	1	4	4
83	6.32744	0.145125	0	0	0	0	1	4	4
83	6.47256	0.110295	0	0	0	0	1	4	4
83	6.58866	0.10449	0	0	0	0	1	4	4
82	6.70476	0.150929	0	0	0	0	1	4	4
80	6.85569	0.284444	0	0	0	0	1	4	4
81	7.14014	0.0638552	0	0	0	0	1	4	4
79	7.28526	0.0870748	0	0	0	0	1	4	4
79	7.442	0.0580502	0	0	0	0	1	4	4
79	7.97025	0.0348301	0	0	0	0	1	4	4
80	8.74812	0.0290251	0	0	0	0	1	4	4
67	8.87583	0.0522442	0	0	0	0	1	4	4
69	9.80463	0.0232201	0	0	0	0	1	4	4
66	9.86848	0.0232201	0	0	0	0	1	4	4
65	10.2516	0.0406351	0	0	0	0	1	4	4
67	10.7624	0.0232201	0	0	0	0	1	4	4
73	11.3952	0.0232201	0	0	0	0	1	4	4
66	11.581	0.0290241	0	0	0	0	1	4	4
63	11.9699	0.0232191	0	0	0	0	1	4	4
64	12.4111	0.0232201	0	0	0	0	1	4	4
67	12.5039	0.0232201	0	0	0	0	1	4	4
68	12.5562	0.0290251	0	0	0	0	1	4	4
67	12.9161	0.0232201	0	0	0	0	1	4	4
67	13.1425	0.0290251	0	0	0	0	1	4	4
67	13.2992	0.0348301	0	0	0	0	1	4	4
67	13.4792	0.0232201	0	0	0	0	1	4	4
67	13.5546	0.0406351	0	0	0	0	1	4	4
67	13.7636	0.0232201	0	0	0	0	1	4	4
72	13.8797	0.0232201	0	0	0	0	1	4	4
71	13.9784	0.0232201	0	0	0	0	1	4	4
72	14.2977	0.0348301	0	0	0	0	1	4	4
66	14.3732	0.0232201	0	0	0	0	1	4	4
72	14.408	0.0406351	0	0	0	0	1	4	4
73	14.5763	0.0348301	0	0	0	0	1	4	4
71	14.704	0.0232201	0	0	0	0	1	4	4
72	14.7795	0.0580502	0	0	0	0	1	4	4
70	14.9769	0.0232201	0	0	0	0	1	4	4
71	15.0349	0.0290251	0	0	0	0	1	4	4
72	15.1104	0.0232201	0	0	0	0	1	4	4
65	15.2033	0.0406351	0	0	0	0	1	4	4
73	15.418	0.0406351	0	0	0	0	1	4	4
71	15.6038	0.0232201	0	0	0	0	1	4	4
70	15.778	0.0290251	0	0	0	0	1	4	4
72	16.3527	0.0232201	0	0	0	0	1	4	4
66	16.4629	0.0232201	0	0	0	0	1	4	4
59	17.6646	0.0348301	0	0	0	0	1	4	4
58	17.6994	0.029026	0	0	0	0	1	4	4
57	17.7284	0.0406342	0	0	0	0	1	4	4
63	18.3786	0.0232201	0	0	0	0	1	4	4
58	18.7907	0.0522442	0	0	0	0	1	4	4
62	18.843	0.0290241	0	0	0	0	1	4	4
64	19.6034	0.0348301	0	0	0	0	1	4	4
59	19.9285	0.0348301	0	0	0	0	1	4	4
59	20.1723	0.0232201	0	0	0	0	1	4	4
67	20.2768	0.0348301	0	0	0	0	1	4	4
64	20.5439	0.029026	0	0	0	0	1	4	4
59	21.0489	0.0522442	0	0	0	0	1	4	4
57	21.6294	0.0232201	0	0	0	0	1	4	4
55	22.2389	0.0232201	0	0	0	0	1	4	4
55	25.182	0.0580482	0	0	0	0	1	4	4
66	25.2517	0.0232201	0	0	0	0	1	4	4
59	25.4723	0.0290241	0	0	0	0	1	4	4
55	26.018	0.0348282	0	0	0	0	1	4	4
63	26.3198	0.0290241	0	0	0	0	1	4	4
63	27.0338	0.0348282	0	0	0	0	1	4	4
