midiPitch 	 onsetSec 	 durationSec 	 onsetBeats 	 onsetBarIndex 	 onsetBar 	 durationBeats 	 velocity  	 numerator 	 denominator 
67	0.267029	0.0348299	0	0	4.30637e-035	0	1	4	4
67	0.307664	0.0290249	0	0	4.30637e-035	0	1	4	4
60	0.330884	0.0464399	0	0	4.30637e-035	0	1	4	4
67	0.394739	0.18576	0	0	4.30637e-035	0	1	4	4
67	0.655964	0.133515	0	0	4.30637e-035	0	1	4	4
67	0.899773	0.400544	0	0	4.30637e-035	0	1	4	4
68	1.32934	0.15093	0	0	4.30637e-035	0	1	4	4
67	1.52671	0.145125	0	0	4.30637e-035	0	1	4	4
64	1.9737	0.17415	0	0	4.30637e-035	0	1	4	4
64	2.17687	0.0464399	0	0	4.30637e-035	0	1	4	4
64	2.22331	0.13932	0	0	4.30637e-035	0	1	4	4
64	2.4381	0.121905	0	0	4.30637e-035	0	1	4	4
59	2.82703	0.0754647	0	0	4.30637e-035	0	1	4	4
64	2.96054	0.22059	0	0	4.30637e-035	0	1	4	4
66	3.66875	0.0406351	0	0	4.30637e-035	0	1	4	4
67	3.71519	0.261224	0	0	4.30637e-035	0	1	4	4
62	3.97642	0.0696602	0	0	4.30637e-035	0	1	4	4
62	4.22603	0.232199	0	0	4.30637e-035	0	1	4	4
69	4.46404	0.748844	0	0	4.30637e-035	0	1	4	4
68	5.21288	0.0348301	0	0	4.30637e-035	0	1	4	4
70	5.31156	0.0638552	0	0	4.30637e-035	0	1	4	4
67	5.75274	0.121905	0	0	4.30637e-035	0	1	4	4
69	5.87465	0.255419	0	0	4.30637e-035	0	1	4	4
69	6.26358	0.429569	0	0	4.30637e-035	0	1	4	4
68	6.69315	0.191565	0	0	4.30637e-035	0	1	4	4
67	6.97179	0.0754647	0	0	4.30637e-035	0	1	4	4
65	7.04726	0.145125	0	0	4.30637e-035	0	1	4	4
64	7.19238	0.0290251	0	0	4.30637e-035	0	1	4	4
64	7.47102	0.35991	0	0	4.30637e-035	0	1	4	4
64	8.00508	0.20898	0	0	4.30637e-035	0	1	4	4
60	8.32435	0.1161	0	0	4.30637e-035	0	1	4	4
59	8.51592	0.0464401	0	0	4.30637e-035	0	1	4	4
59	8.56236	0.19737	0	0	4.30637e-035	0	1	4	4
59	8.75973	0.296055	0	0	4.30637e-035	0	1	4	4
59	9.80463	0.0870752	0	0	4.30637e-035	0	1	4	4
59	9.8917	0.139319	0	0	4.30637e-035	0	1	4	4
57	10.0833	0.20898	0	0	4.30637e-035	0	1	4	4
60	10.298	0.0580492	0	0	4.30637e-035	0	1	4	4
60	10.3561	0.0232201	0	0	4.30637e-035	0	1	4	4
60	10.4025	0.0870752	0	0	4.30637e-035	0	1	4	4
60	10.4896	0.0290251	0	0	4.30637e-035	0	1	4	4
59	10.5477	0.0754642	0	0	4.30637e-035	0	1	4	4
59	10.6231	0.0290251	0	0	4.30637e-035	0	1	4	4
59	10.6522	0.127709	0	0	4.30637e-035	0	1	4	4
59	10.9772	0.18576	0	0	4.30637e-035	0	1	4	4
59	11.163	0.121904	0	0	4.30637e-035	0	1	4	4
57	11.3429	0.0928793	0	0	4.30637e-035	0	1	4	4
59	11.4358	0.0870752	0	0	4.30637e-035	0	1	4	4
66	11.8422	0.29025	0	0	4.30637e-035	0	1	4	4
68	12.1324	0.121904	0	0	4.30637e-035	0	1	4	4
68	12.2543	0.522449	0	0	4.30637e-035	0	1	4	4
68	12.8464	0.0522451	0	0	4.30637e-035	0	1	4	4
67	12.8987	0.0754652	0	0	4.30637e-035	0	1	4	4
67	12.9741	0.342494	0	0	4.30637e-035	0	1	4	4
67	13.3166	0.0290251	0	0	4.30637e-035	0	1	4	4
67	13.3979	0.0290241	0	0	4.30637e-035	0	1	4	4
67	13.5546	0.301859	0	0	4.30637e-035	0	1	4	4
64	14.0655	0.110295	0	0	4.30637e-035	0	1	4	4
64	14.1758	0.121904	0	0	4.30637e-035	0	1	4	4
64	14.3673	0.0232201	0	0	4.30637e-035	0	1	4	4
64	14.4776	0.0464401	0	0	4.30637e-035	0	1	4	4
64	14.5241	0.0580502	0	0	4.30637e-035	0	1	4	4
64	14.5821	0.121904	0	0	4.30637e-035	0	1	4	4
64	14.7563	0.0928802	0	0	4.30637e-035	0	1	4	4
59	14.8956	0.145125	0	0	4.30637e-035	0	1	4	4
59	15.0407	0.0522442	0	0	4.30637e-035	0	1	4	4
64	15.1742	0.150929	0	0	4.30637e-035	0	1	4	4
64	15.36	0.0986853	0	0	4.30637e-035	0	1	4	4
64	15.4587	0.0696592	0	0	4.30637e-035	0	1	4	4
67	16.0914	0.104488	0	0	4.30637e-035	0	1	4	4
67	16.1959	0.0754662	0	0	4.30637e-035	0	1	4	4
68	16.3527	0.150928	0	0	4.30637e-035	0	1	4	4
68	16.5965	0.0870743	0	0	4.30637e-035	0	1	4	4
67	16.8809	0.150928	0	0	4.30637e-035	0	1	4	4
67	17.0725	0.249615	0	0	4.30637e-035	0	1	4	4
67	17.3221	0.0406342	0	0	4.30637e-035	0	1	4	4
67	17.4324	0.10449	0	0	4.30637e-035	0	1	4	4
67	17.6181	0.238003	0	0	4.30637e-035	0	1	4	4
64	18.0883	0.243809	0	0	4.30637e-035	0	1	4	4
64	18.576	0.0522442	0	0	4.30637e-035	0	1	4	4
64	18.6282	0.220591	0	0	4.30637e-035	0	1	4	4
59	19.1042	0.0232201	0	0	4.30637e-035	0	1	4	4
64	19.1681	0.15093	0	0	4.30637e-035	0	1	4	4
67	19.3771	0.145124	0	0	4.30637e-035	0	1	4	4
67	19.6151	0.232199	0	0	4.30637e-035	0	1	4	4
69	19.8473	0.516644	0	0	4.30637e-035	0	1	4	4
69	20.3639	0.61533	0	0	4.30637e-035	0	1	4	4
67	21.4494	0.15093	0	0	4.30637e-035	0	1	4	4
69	21.6004	0.243809	0	0	4.30637e-035	0	1	4	4
70	21.9138	0.12771	0	0	4.30637e-035	0	1	4	4
69	22.0415	0.574694	0	0	4.30637e-035	0	1	4	4
67	22.6569	0.272835	0	0	4.30637e-035	0	1	4	4
62	23.0574	0.0986843	0	0	4.30637e-035	0	1	4	4
65	23.4522	0.156734	0	0	4.30637e-035	0	1	4	4
64	23.6089	0.0406342	0	0	4.30637e-035	0	1	4	4
63	23.9978	0.261225	0	0	4.30637e-035	0	1	4	4
64	24.259	0.12771	0	0	4.30637e-035	0	1	4	4
64	24.3868	0.17415	0	0	4.30637e-035	0	1	4	4
64	24.5609	0.592108	0	0	4.30637e-035	0	1	4	4
64	25.2981	0.145124	0	0	4.30637e-035	0	1	4	4
64	25.4433	0.179955	0	0	4.30637e-035	0	1	4	4
68	25.9599	0.139318	0	0	4.30637e-035	0	1	4	4
69	26.0992	0.133516	0	0	4.30637e-035	0	1	4	4
64	26.6101	0.0522442	0	0	4.30637e-035	0	1	4	4
64	26.6913	0.0348301	0	0	4.30637e-035	0	1	4	4
64	26.732	0.10449	0	0	4.30637e-035	0	1	4	4
64	26.9758	0.261225	0	0	4.30637e-035	0	1	4	4
64	27.237	0.0812683	0	0	4.30637e-035	0	1	4	4
69	28.1658	0.156734	0	0	4.30637e-035	0	1	4	4
64	28.7347	0.0986843	0	0	4.30637e-035	0	1	4	4
60	28.9146	0.0812702	0	0	4.30637e-035	0	1	4	4
69	29.2281	0.17415	0	0	4.30637e-035	0	1	4	4
64	29.4429	0.029026	0	0	4.30637e-035	0	1	4	4
64	29.4835	0.121904	0	0	4.30637e-035	0	1	4	4
