midiPitch 	 onsetSec 	 durationSec 	 onsetBeats 	 onsetBarIndex 	 onsetBar 	 durationBeats 	 velocity  	 numerator 	 denominator 
59	0.0754649	0.133515	0	0	1.87119e-035	0	1	4	4
59	0.20898	0.539864	0	0	1.87119e-035	0	1	4	4
59	0.801088	0.0406349	0	0	1.87119e-035	0	1	4	4
59	0.859138	0.336689	0	0	1.87119e-035	0	1	4	4
59	1.19583	2.47293	0	0	1.87119e-035	0	1	4	4
59	3.7268	1.72989	0	0	1.87119e-035	0	1	4	4
59	5.49732	0.0638552	0	0	1.87119e-035	0	1	4	4
59	5.56118	0.313469	0	0	1.87119e-035	0	1	4	4
78	5.57859	0.534059	0	0	1.87119e-035	0	1	4	4
80	6.11265	0.0928798	0	0	1.87119e-035	0	1	4	4
78	6.35646	0.1161	0	0	1.87119e-035	0	1	4	4
76	6.47256	0.121905	0	0	1.87119e-035	0	1	4	4
78	6.61769	0.25542	0	0	1.87119e-035	0	1	4	4
78	6.87311	0.284444	0	0	1.87119e-035	0	1	4	4
78	7.15755	0.1161	0	0	1.87119e-035	0	1	4	4
78	7.27365	0.17415	0	0	1.87119e-035	0	1	4	4
78	7.4478	0.133515	0	0	1.87119e-035	0	1	4	4
78	7.58132	0.261224	0	0	1.87119e-035	0	1	4	4
78	7.84254	0.0986853	0	0	1.87119e-035	0	1	4	4
78	7.94122	0.278639	0	0	1.87119e-035	0	1	4	4
78	8.21986	0.104489	0	0	1.87119e-035	0	1	4	4
78	8.32435	0.12771	0	0	1.87119e-035	0	1	4	4
78	8.45206	0.168344	0	0	1.87119e-035	0	1	4	4
78	8.62041	0.104489	0	0	1.87119e-035	0	1	4	4
78	8.7249	0.15093	0	0	1.87119e-035	0	1	4	4
78	8.87583	0.0696592	0	0	1.87119e-035	0	1	4	4
78	8.94549	0.365715	0	0	1.87119e-035	0	1	4	4
78	9.32281	0.0986843	0	0	1.87119e-035	0	1	4	4
71	9.4215	0.139319	0	0	1.87119e-035	0	1	4	4
83	9.56082	0.238005	0	0	1.87119e-035	0	1	4	4
85	9.87429	0.0928793	0	0	1.87119e-035	0	1	4	4
85	9.96716	0.0522451	0	0	1.87119e-035	0	1	4	4
71	10.031	0.10449	0	0	1.87119e-035	0	1	4	4
82	10.1355	0.191565	0	0	1.87119e-035	0	1	4	4
78	10.3271	0.0812693	0	0	1.87119e-035	0	1	4	4
82	10.4258	0.29025	0	0	1.87119e-035	0	1	4	4
82	10.8669	0.226395	0	0	1.87119e-035	0	1	4	4
80	11.0933	0.325079	0	0	1.87119e-035	0	1	4	4
80	11.4532	0.139319	0	0	1.87119e-035	0	1	4	4
78	11.5984	0.284445	0	0	1.87119e-035	0	1	4	4
78	11.9234	0.365714	0	0	1.87119e-035	0	1	4	4
78	12.2892	0.336689	0	0	1.87119e-035	0	1	4	4
78	12.6258	0.15093	0	0	1.87119e-035	0	1	4	4
78	12.7768	0.876553	0	0	1.87119e-035	0	1	4	4
78	13.6533	0.145125	0	0	1.87119e-035	0	1	4	4
78	13.7985	0.267029	0	0	1.87119e-035	0	1	4	4
78	14.0655	0.133515	0	0	1.87119e-035	0	1	4	4
78	14.199	0.278639	0	0	1.87119e-035	0	1	4	4
78	14.4776	0.133515	0	0	1.87119e-035	0	1	4	4
78	14.646	0.0522442	0	0	1.87119e-035	0	1	4	4
78	14.6982	0.54567	0	0	1.87119e-035	0	1	4	4
83	15.3194	0.423764	0	0	1.87119e-035	0	1	4	4
78	15.7954	0.0870752	0	0	1.87119e-035	0	1	4	4
83	16.0276	0.145126	0	0	1.87119e-035	0	1	4	4
82	16.3236	0.359909	0	0	1.87119e-035	0	1	4	4
83	16.701	0.10449	0	0	1.87119e-035	0	1	4	4
82	16.8983	0.197371	0	0	1.87119e-035	0	1	4	4
80	17.0957	0.301859	0	0	1.87119e-035	0	1	4	4
80	17.3976	0.145124	0	0	1.87119e-035	0	1	4	4
80	17.5427	0.284445	0	0	1.87119e-035	0	1	4	4
80	17.8271	1.34095	0	0	1.87119e-035	0	1	4	4
80	19.1681	0.156734	0	0	1.87119e-035	0	1	4	4
80	19.3248	0.301861	0	0	1.87119e-035	0	1	4	4
83	19.7428	0.342495	0	0	1.87119e-035	0	1	4	4
78	20.0853	0.1161	0	0	1.87119e-035	0	1	4	4
82	20.2014	0.325079	0	0	1.87119e-035	0	1	4	4
80	20.5264	0.452789	0	0	1.87119e-035	0	1	4	4
78	20.9792	0.272835	0	0	1.87119e-035	0	1	4	4
78	21.2811	0.13932	0	0	1.87119e-035	0	1	4	4
76	21.4204	0.162539	0	0	1.87119e-035	0	1	4	4
78	21.5829	0.191565	0	0	1.87119e-035	0	1	4	4
78	21.7745	0.168344	0	0	1.87119e-035	0	1	4	4
78	21.9429	0.278641	0	0	1.87119e-035	0	1	4	4
78	22.2215	0.110294	0	0	1.87119e-035	0	1	4	4
78	22.3318	0.15093	0	0	1.87119e-035	0	1	4	4
78	22.4827	1.2829	0	0	1.87119e-035	0	1	4	4
78	23.7656	0.145124	0	0	1.87119e-035	0	1	4	4
78	23.9107	0.476009	0	0	1.87119e-035	0	1	4	4
78	24.3984	0.423763	0	0	1.87119e-035	0	1	4	4
78	24.8221	0.0348301	0	0	1.87119e-035	0	1	4	4
75	24.9034	0.516644	0	0	1.87119e-035	0	1	4	4
73	25.42	0.342495	0	0	1.87119e-035	0	1	4	4
73	25.7625	0.0464401	0	0	1.87119e-035	0	1	4	4
73	25.8322	0.476009	0	0	1.87119e-035	0	1	4	4
71	26.3082	0.441179	0	0	1.87119e-035	0	1	4	4
71	26.7552	1.48608	0	0	1.87119e-035	0	1	4	4
78	28.2413	0.354103	0	0	1.87119e-035	0	1	4	4
75	28.5954	0.029026	0	0	1.87119e-035	0	1	4	4
75	28.6244	0.365713	0	0	1.87119e-035	0	1	4	4
73	29.0017	0.0986862	0	0	1.87119e-035	0	1	4	4
