midiPitch 	 onsetSec 	 durationSec 	 onsetBeats 	 onsetBarIndex 	 onsetBar 	 durationBeats 	 velocity  	 numerator 	 denominator 
71	0.0406349	0.179955	0	0	2.89628e-035	0	1	4	4
67	0.22059	0.20898	0	0	2.89628e-035	0	1	4	4
67	0.470204	0.301859	0	0	2.89628e-035	0	1	4	4
67	0.801088	0.272834	0	0	2.89628e-035	0	1	4	4
67	1.07392	0.110295	0	0	2.89628e-035	0	1	4	4
66	1.24227	0.10449	0	0	2.89628e-035	0	1	4	4
67	1.45125	0.15093	0	0	2.89628e-035	0	1	4	4
70	1.70086	0.313469	0	0	2.89628e-035	0	1	4	4
71	2.11882	0.377324	0	0	2.89628e-035	0	1	4	4
52	12.7361	0.127709	0	0	2.89628e-035	0	1	4	4
52	12.8929	0.0290251	0	0	2.89628e-035	0	1	4	4
52	12.9625	0.0696592	0	0	2.89628e-035	0	1	4	4
59	13.2122	0.133514	0	0	2.89628e-035	0	1	4	4
63	13.4211	0.603719	0	0	2.89628e-035	0	1	4	4
64	14.4893	0.133515	0	0	2.89628e-035	0	1	4	4
64	14.7505	0.0522451	0	0	2.89628e-035	0	1	4	4
64	14.8608	0.284444	0	0	2.89628e-035	0	1	4	4
66	15.1452	0.29025	0	0	2.89628e-035	0	1	4	4
64	15.4355	0.278639	0	0	2.89628e-035	0	1	4	4
62	15.8766	0.777868	0	0	2.89628e-035	0	1	4	4
62	16.6603	0.882359	0	0	2.89628e-035	0	1	4	4
66	20.6135	0.18576	0	0	2.89628e-035	0	1	4	4
64	20.7993	0.197369	0	0	2.89628e-035	0	1	4	4
62	21.4204	0.226395	0	0	2.89628e-035	0	1	4	4
62	21.6468	0.185759	0	0	2.89628e-035	0	1	4	4
60	22.2737	0.168344	0	0	2.89628e-035	0	1	4	4
60	22.4421	0.0870762	0	0	2.89628e-035	0	1	4	4
60	22.5292	0.365713	0	0	2.89628e-035	0	1	4	4
57	27.6898	0.208981	0	0	2.89628e-035	0	1	4	4
60	27.9046	0.359911	0	0	2.89628e-035	0	1	4	4
60	29.2397	0.1161	0	0	2.89628e-035	0	1	4	4
59	29.5184	0.232201	0	0	2.89628e-035	0	1	4	4
