midiPitch 	 onsetSec 	 durationSec 	 onsetBeats 	 onsetBarIndex 	 onsetBar 	 durationBeats 	 velocity  	 numerator 	 denominator 
68	0.377324	0.25542	0	0	0	0	1	4	4
71	0.638549	0.0812699	0	0	0	0	1	4	4
61	1.18422	0.0696598	0	0	0	0	1	4	4
60	1.43383	0.145125	0	0	0	0	1	4	4
58	1.57896	0.0928799	0	0	0	0	1	4	4
58	1.7415	0.0406349	0	0	0	0	1	4	4
57	2.02014	0.0638547	0	0	0	0	1	4	4
57	2.22912	0.16254	0	0	0	0	1	4	4
61	3.10567	0.0696599	0	0	0	0	1	4	4
61	3.2566	0.0290251	0	0	0	0	1	4	4
61	3.29143	0.0290248	0	0	0	0	1	4	4
61	3.32626	0.0522449	0	0	0	0	1	4	4
58	3.3785	0.0232201	0	0	0	0	1	4	4
65	3.57587	0.10449	0	0	0	0	1	4	4
62	3.69778	0.10449	0	0	0	0	1	4	4
60	3.94159	0.16254	0	0	0	0	1	4	4
59	4.25506	0.0348301	0	0	0	0	1	4	4
59	4.25506	0.0406351	0	0	0	0	1	4	4
68	4.28408	0.01161	0	0	0	0	1	4	4
59	4.25506	0.0464401	0	0	0	0	1	4	4
68	4.28408	0.017415	0	0	0	0	1	4	4
59	4.25506	0.0522451	0	0	0	0	1	4	4
68	4.28408	0.0232201	0	0	0	0	1	4	4
59	4.25506	0.0580502	0	0	0	0	1	4	4
68	4.28408	0.12771	0	0	0	0	1	4	4
64	4.50467	0.0348301	0	0	0	0	1	4	4
56	5.61342	0.0348301	0	0	0	0	1	4	4
57	5.65406	0.214785	0	0	0	0	1	4	4
56	5.86884	0.0290246	0	0	0	0	1	4	4
59	5.9327	0.0522451	0	0	0	0	1	4	4
58	6.04299	0.0348301	0	0	0	0	1	4	4
57	6.07782	0.0290246	0	0	0	0	1	4	4
65	8.23147	0.0986843	0	0	0	0	1	4	4
56	8.55075	0.0580502	0	0	0	0	1	4	4
56	8.6088	0.0638552	0	0	0	0	1	4	4
56	8.67265	0.0290251	0	0	0	0	1	4	4
56	8.7307	0.0870752	0	0	0	0	1	4	4
56	9.44472	0.0870743	0	0	0	0	1	4	4
55	9.79882	0.0522451	0	0	0	0	1	4	4
61	10.211	0.0638552	0	0	0	0	1	4	4
59	11.8248	0.0812702	0	0	0	0	1	4	4
68	11.9815	0.0290241	0	0	0	0	1	4	4
66	12.0395	0.0348301	0	0	0	0	1	4	4
64	12.1324	0.0522451	0	0	0	0	1	4	4
66	12.1847	0.156734	0	0	0	0	1	4	4
66	12.3646	0.127709	0	0	0	0	1	4	4
66	12.5388	0.127709	0	0	0	0	1	4	4
66	12.7013	0.0696602	0	0	0	0	1	4	4
66	12.8058	0.0870743	0	0	0	0	1	4	4
65	13.0148	0.104489	0	0	0	0	1	4	4
64	13.1367	0.0870743	0	0	0	0	1	4	4
64	13.2238	0.0348301	0	0	0	0	1	4	4
64	13.4792	0.162539	0	0	0	0	1	4	4
63	13.7636	0.20898	0	0	0	0	1	4	4
61	14.0481	0.0986853	0	0	0	0	1	4	4
61	14.5009	0.0232201	0	0	0	0	1	4	4
61	14.5299	0.121905	0	0	0	0	1	4	4
56	14.9653	0.162539	0	0	0	0	1	4	4
61	15.18	0.0290251	0	0	0	0	1	4	4
61	15.2091	0.168344	0	0	0	0	1	4	4
56	16.1901	0.12771	0	0	0	0	1	4	4
54	17.9839	0.0638542	0	0	0	0	1	4	4
59	19.5222	0.0580502	0	0	0	0	1	4	4
68	19.6325	0.1161	0	0	0	0	1	4	4
64	20.898	0.18576	0	0	0	0	1	4	4
61	21.7397	0.0870762	0	0	0	0	1	4	4
61	21.8268	0.0290241	0	0	0	0	1	4	4
61	22.2041	0.15093	0	0	0	0	1	4	4
56	22.6801	0.133514	0	0	0	0	1	4	4
61	22.86	0.13932	0	0	0	0	1	4	4
61	22.9994	0.0696602	0	0	0	0	1	4	4
56	23.5857	0.0870743	0	0	0	0	1	4	4
59	23.8585	0.0522442	0	0	0	0	1	4	4
54	24.468	0.0928802	0	0	0	0	1	4	4
59	25.124	0.121904	0	0	0	0	1	4	4
59	25.5361	0.0232201	0	0	0	0	1	4	4
54	25.6813	0.0638561	0	0	0	0	1	4	4
56	25.7625	0.16254	0	0	0	0	1	4	4
59	27.208	0.0870743	0	0	0	0	1	4	4
68	27.3589	0.116098	0	0	0	0	1	4	4
71	27.504	0.0580502	0	0	0	0	1	4	4
75	28.2181	0.214785	0	0	0	0	1	4	4
70	28.4502	0.156734	0	0	0	0	1	4	4
