midiPitch 	 onsetSec 	 durationSec 	 onsetBeats 	 onsetBarIndex 	 onsetBar 	 durationBeats 	 velocity  	 numerator 	 denominator 
53	0.0406349	0.145125	0	0	0	0	1	4	4
53	0.18576	0.383129	0	0	0	0	1	4	4
53	0.568889	0.388934	0	0	0	0	1	4	4
53	0.957823	1.30032	0	0	0	0	1	4	4
53	2.34522	0.0464399	0	0	0	0	1	4	4
54	2.42068	0.0464399	0	0	0	0	1	4	4
54	2.64127	0.0348301	0	0	0	0	1	4	4
54	2.6819	0.0406349	0	0	0	0	1	4	4
54	2.74576	0.0406351	0	0	0	0	1	4	4
52	2.90249	0.0348301	0	0	0	0	1	4	4
54	2.93732	0.0348299	0	0	0	0	1	4	4
56	3.09406	0.0348299	0	0	0	0	1	4	4
56	3.19855	0.0870748	0	0	0	0	1	4	4
56	3.32045	0.1161	0	0	0	0	1	4	4
56	3.43655	0.0522449	0	0	0	0	1	4	4
54	3.4888	0.0290248	0	0	0	0	1	4	4
55	3.54685	0.0232198	0	0	0	0	1	4	4
54	3.67456	0.0232201	0	0	0	0	1	4	4
54	3.69778	0.0290248	0	0	0	0	1	4	4
54	3.74422	0.0290248	0	0	0	0	1	4	4
54	3.80807	0.0638547	0	0	0	0	1	4	4
54	3.94159	0.0232201	0	0	0	0	1	4	4
54	3.96481	0.0290248	0	0	0	0	1	4	4
54	4.10993	0.0638547	0	0	0	0	1	4	4
54	4.20862	0.0522447	0	0	0	0	1	4	4
54	4.33052	0.0406346	0	0	0	0	1	4	4
54	5.25932	0.0754647	0	0	0	0	1	4	4
53	5.34639	1.24807	0	0	0	0	1	4	4
53	6.59447	1.41642	0	0	0	0	1	4	4
53	8.0341	0.0522451	0	0	0	0	1	4	4
54	8.10957	0.0406351	0	0	0	0	1	4	4
54	8.33596	0.0232201	0	0	0	0	1	4	4
54	8.37079	0.0580502	0	0	0	0	1	4	4
53	8.53333	0.0406351	0	0	0	0	1	4	4
56	8.77714	0.0754652	0	0	0	0	1	4	4
56	8.85261	0.0406351	0	0	0	0	1	4	4
56	8.89905	0.348299	0	0	0	0	1	4	4
53	9.29959	0.0348291	0	0	0	0	1	4	4
54	9.33442	0.0522451	0	0	0	0	1	4	4
54	9.38667	0.0348301	0	0	0	0	1	4	4
54	9.4215	0.0232201	0	0	0	0	1	4	4
54	9.52599	0.0348291	0	0	0	0	1	4	4
54	9.58984	0.0290251	0	0	0	0	1	4	4
54	9.63048	0.0290251	0	0	0	0	1	4	4
54	9.83365	0.0290251	0	0	0	0	1	4	4
54	9.89751	0.0580492	0	0	0	0	1	4	4
54	9.95555	0.0232201	0	0	0	0	1	4	4
56	10.7508	0.0580492	0	0	0	0	1	4	4
56	10.8089	0.110295	0	0	0	0	1	4	4
56	10.9192	0.0348301	0	0	0	0	1	4	4
56	10.9598	0.0522442	0	0	0	0	1	4	4
56	11.0121	0.145125	0	0	0	0	1	4	4
56	11.1572	0.0290241	0	0	0	0	1	4	4
53	11.3139	0.673379	0	0	0	0	1	4	4
53	11.9873	0.301859	0	0	0	0	1	4	4
53	12.2892	2.33941	0	0	0	0	1	4	4
53	14.6518	0.0464392	0	0	0	0	1	4	4
54	14.7273	0.0406351	0	0	0	0	1	4	4
54	14.9885	0.0290251	0	0	0	0	1	4	4
47	15.36	0.0348301	0	0	0	0	1	4	4
56	15.4006	0.296054	0	0	0	0	1	4	4
56	15.6967	0.0232201	0	0	0	0	1	4	4
56	15.7605	0.0928802	0	0	0	0	1	4	4
53	15.9173	0.0290251	0	0	0	0	1	4	4
54	15.9521	0.0812702	0	0	0	0	1	4	4
54	16.1263	0.0290241	0	0	0	0	1	4	4
54	16.2017	0.0290241	0	0	0	0	1	4	4
54	16.283	0.0290241	0	0	0	0	1	4	4
54	16.312	0.0348301	0	0	0	0	1	4	4
54	16.5152	0.0870762	0	0	0	0	1	4	4
54	16.9854	0.0290241	0	0	0	0	1	4	4
56	17.3511	0.191565	0	0	0	0	1	4	4
56	17.5775	0.0870743	0	0	0	0	1	4	4
56	17.682	0.10449	0	0	0	0	1	4	4
56	17.8387	0.0464401	0	0	0	0	1	4	4
54	17.8852	0.0232201	0	0	0	0	1	4	4
53	17.9084	3.33787	0	0	0	0	1	4	4
53	21.2695	0.0464401	0	0	0	0	1	4	4
53	21.7687	0.0406342	0	0	0	0	1	4	4
52	21.8268	0.0464401	0	0	0	0	1	4	4
56	21.9777	0.0348301	0	0	0	0	1	4	4
56	22.0125	0.464399	0	0	0	0	1	4	4
54	22.5117	0.0232201	0	0	0	0	1	4	4
53	22.535	0.0290241	0	0	0	0	1	4	4
54	22.564	0.0986862	0	0	0	0	1	4	4
54	22.8194	0.0290241	0	0	0	0	1	4	4
54	22.8717	0.0232201	0	0	0	0	1	4	4
54	22.8949	0.0348301	0	0	0	0	1	4	4
54	22.9355	0.0290241	0	0	0	0	1	4	4
54	23.098	0.029026	0	0	0	0	1	4	4
54	23.1329	0.0232201	0	0	0	0	1	4	4
54	23.1561	0.0406342	0	0	0	0	1	4	4
54	23.4405	0.0406342	0	0	0	0	1	4	4
54	23.4986	0.0464401	0	0	0	0	1	4	4
54	23.5973	0.0406342	0	0	0	0	1	4	4
54	23.6727	0.0696602	0	0	0	0	1	4	4
56	23.9688	0.18576	0	0	0	0	1	4	4
56	24.1952	0.18576	0	0	0	0	1	4	4
56	24.381	0.0348282	0	0	0	0	1	4	4
56	24.4216	0.0348301	0	0	0	0	1	4	4
53	24.5203	1.09134	0	0	0	0	1	4	4
53	25.6116	0.121904	0	0	0	0	1	4	4
53	25.7683	1.78794	0	0	0	0	1	4	4
53	27.5795	0.284445	0	0	0	0	1	4	4
53	27.8872	0.0522442	0	0	0	0	1	4	4
54	27.9626	0.0406361	0	0	0	0	1	4	4
54	28.0439	0.0232201	0	0	0	0	1	4	4
54	28.189	0.0232201	0	0	0	0	1	4	4
54	28.2819	0.0406342	0	0	0	0	1	4	4
51	28.3225	0.0638561	0	0	0	0	1	4	4
53	28.398	0.0290241	0	0	0	0	1	4	4
54	28.4735	0.0406342	0	0	0	0	1	4	4
49	28.5315	0.0290241	0	0	0	0	1	4	4
56	28.6302	0.145124	0	0	0	0	1	4	4
56	28.8044	0.0406342	0	0	0	0	1	4	4
54	29.1817	0.0638561	0	0	0	0	1	4	4
54	29.35	0.0638561	0	0	0	0	1	4	4
54	29.4313	0.0754662	0	0	0	0	1	4	4
54	29.5068	0.0406342	0	0	0	0	1	4	4
