midiPitch 	 onsetSec 	 durationSec 	 onsetBeats 	 onsetBarIndex 	 onsetBar 	 durationBeats 	 velocity  	 numerator 	 denominator 
59	0.156735	0.0696599	0	0	2.61399e-035	0	1	4	4
64	0.725624	0.02322	0	0	2.61399e-035	0	1	4	4
63	0.783673	0.0406349	0	0	2.61399e-035	0	1	4	4
64	1.00426	0.029025	0	0	2.61399e-035	0	1	4	4
61	1.0449	0.029025	0	0	2.61399e-035	0	1	4	4
63	1.07392	0.029025	0	0	2.61399e-035	0	1	4	4
65	1.14358	0.0580499	0	0	2.61399e-035	0	1	4	4
64	1.24807	0.0232199	0	0	2.61399e-035	0	1	4	4
62	1.29451	0.0232201	0	0	2.61399e-035	0	1	4	4
62	1.31773	0.0290248	0	0	2.61399e-035	0	1	4	4
65	1.44544	0.0464399	0	0	2.61399e-035	0	1	4	4
58	1.52091	0.110295	0	0	2.61399e-035	0	1	4	4
58	2.0956	0.0290251	0	0	2.61399e-035	0	1	4	4
56	2.15946	0.0232198	0	0	2.61399e-035	0	1	4	4
56	2.18268	0.0290251	0	0	2.61399e-035	0	1	4	4
65	2.36263	0.0928798	0	0	2.61399e-035	0	1	4	4
67	4.13896	0.0522447	0	0	2.61399e-035	0	1	4	4
64	4.1912	0.0290251	0	0	2.61399e-035	0	1	4	4
71	4.23184	0.0812697	0	0	2.61399e-035	0	1	4	4
70	4.31311	0.0464396	0	0	2.61399e-035	0	1	4	4
75	4.45243	0.0928798	0	0	2.61399e-035	0	1	4	4
70	4.54531	0.121904	0	0	2.61399e-035	0	1	4	4
78	4.67882	0.0290251	0	0	2.61399e-035	0	1	4	4
76	4.71946	0.0406351	0	0	2.61399e-035	0	1	4	4
75	4.83556	0.0870748	0	0	2.61399e-035	0	1	4	4
75	4.92263	0.133515	0	0	2.61399e-035	0	1	4	4
79	5.09678	0.10449	0	0	2.61399e-035	0	1	4	4
72	5.42186	0.0232201	0	0	2.61399e-035	0	1	4	4
75	5.4683	0.0870748	0	0	2.61399e-035	0	1	4	4
78	5.64245	0.0348301	0	0	2.61399e-035	0	1	4	4
75	5.67728	0.0232196	0	0	2.61399e-035	0	1	4	4
75	5.77596	0.10449	0	0	2.61399e-035	0	1	4	4
70	5.97333	0.0348296	0	0	2.61399e-035	0	1	4	4
79	6.07202	0.0870748	0	0	2.61399e-035	0	1	4	4
68	6.24617	0.0406351	0	0	2.61399e-035	0	1	4	4
75	6.35646	0.1161	0	0	2.61399e-035	0	1	4	4
76	6.47256	0.0232201	0	0	2.61399e-035	0	1	4	4
75	6.7454	0.0464401	0	0	2.61399e-035	0	1	4	4
75	6.84989	0.121905	0	0	2.61399e-035	0	1	4	4
70	7.14014	0.0464401	0	0	2.61399e-035	0	1	4	4
75	7.37234	0.0406351	0	0	2.61399e-035	0	1	4	4
79	7.52907	0.0812697	0	0	2.61399e-035	0	1	4	4
75	7.6858	0.0754647	0	0	2.61399e-035	0	1	4	4
70	7.79029	0.0928798	0	0	2.61399e-035	0	1	4	4
68	7.88317	0.0928798	0	0	2.61399e-035	0	1	4	4
80	7.97605	0.0232201	0	0	2.61399e-035	0	1	4	4
70	7.99927	0.0638552	0	0	2.61399e-035	0	1	4	4
75	8.24889	0.0754642	0	0	2.61399e-035	0	1	4	4
75	8.6088	0.0638552	0	0	2.61399e-035	0	1	4	4
75	8.71329	0.0580502	0	0	2.61399e-035	0	1	4	4
79	8.91646	0.0986853	0	0	2.61399e-035	0	1	4	4
64	9.13125	0.0232201	0	0	2.61399e-035	0	1	4	4
75	9.24735	0.0870743	0	0	2.61399e-035	0	1	4	4
66	9.34603	0.0986853	0	0	2.61399e-035	0	1	4	4
77	9.43311	0.01161	0	0	2.61399e-035	0	1	4	4
66	9.34603	0.10449	0	0	2.61399e-035	0	1	4	4
77	9.43311	0.0754652	0	0	2.61399e-035	0	1	4	4
75	9.59565	0.0986853	0	0	2.61399e-035	0	1	4	4
75	9.90331	0.133514	0	0	2.61399e-035	0	1	4	4
70	10.0717	0.0754642	0	0	2.61399e-035	0	1	4	4
71	10.1471	0.0812702	0	0	2.61399e-035	0	1	4	4
81	10.24	0.121904	0	0	2.61399e-035	0	1	4	4
78	10.3735	0.110295	0	0	2.61399e-035	0	1	4	4
78	10.4838	0.110294	0	0	2.61399e-035	0	1	4	4
77	10.6115	0.19737	0	0	2.61399e-035	0	1	4	4
69	11.2036	0.0232201	0	0	2.61399e-035	0	1	4	4
79	11.2849	0.0754652	0	0	2.61399e-035	0	1	4	4
75	11.4532	0.0406351	0	0	2.61399e-035	0	1	4	4
74	11.6854	0.121904	0	0	2.61399e-035	0	1	4	4
71	11.8015	0.0232201	0	0	2.61399e-035	0	1	4	4
75	11.8364	0.0464401	0	0	2.61399e-035	0	1	4	4
75	12.0395	0.0696602	0	0	2.61399e-035	0	1	4	4
79	12.2601	0.0232201	0	0	2.61399e-035	0	1	4	4
80	12.2834	0.0464401	0	0	2.61399e-035	0	1	4	4
75	12.3995	0.0870743	0	0	2.61399e-035	0	1	4	4
75	12.4865	0.133514	0	0	2.61399e-035	0	1	4	4
75	12.6665	0.0812702	0	0	2.61399e-035	0	1	4	4
81	13.1541	0.0580502	0	0	2.61399e-035	0	1	4	4
79	13.2122	0.0580492	0	0	2.61399e-035	0	1	4	4
75	13.3224	0.104489	0	0	2.61399e-035	0	1	4	4
77	13.6475	0.0928802	0	0	2.61399e-035	0	1	4	4
75	13.9262	0.121904	0	0	2.61399e-035	0	1	4	4
77	14.0481	0.10449	0	0	2.61399e-035	0	1	4	4
69	14.3615	0.0406351	0	0	2.61399e-035	0	1	4	4
75	14.4138	0.110294	0	0	2.61399e-035	0	1	4	4
70	14.675	0.0580502	0	0	2.61399e-035	0	1	4	4
72	14.884	0.0348301	0	0	2.61399e-035	0	1	4	4
75	14.9188	0.0638552	0	0	2.61399e-035	0	1	4	4
78	15.122	0.0464401	0	0	2.61399e-035	0	1	4	4
80	15.1684	0.0290251	0	0	2.61399e-035	0	1	4	4
75	15.2439	0.0870743	0	0	2.61399e-035	0	1	4	4
73	15.4122	0.127709	0	0	2.61399e-035	0	1	4	4
72	15.54	0.0406351	0	0	2.61399e-035	0	1	4	4
79	15.6096	0.0986843	0	0	2.61399e-035	0	1	4	4
75	15.8128	0.104489	0	0	2.61399e-035	0	1	4	4
80	16.074	0.0348301	0	0	2.61399e-035	0	1	4	4
80	16.1321	0.0406361	0	0	2.61399e-035	0	1	4	4
75	16.1727	0.0638542	0	0	2.61399e-035	0	1	4	4
75	16.2772	0.10449	0	0	2.61399e-035	0	1	4	4
74	16.3817	0.10449	0	0	2.61399e-035	0	1	4	4
79	16.5674	0.0522442	0	0	2.61399e-035	0	1	4	4
80	16.6371	0.243811	0	0	2.61399e-035	0	1	4	4
73	16.8809	0.0580502	0	0	2.61399e-035	0	1	4	4
82	16.939	0.0638542	0	0	2.61399e-035	0	1	4	4
73	17.0028	0.0580502	0	0	2.61399e-035	0	1	4	4
83	17.0609	0.185759	0	0	2.61399e-035	0	1	4	4
82	17.4092	0.0290241	0	0	2.61399e-035	0	1	4	4
81	17.5195	0.0754662	0	0	2.61399e-035	0	1	4	4
71	17.7575	0.0928802	0	0	2.61399e-035	0	1	4	4
70	17.9606	0.0754662	0	0	2.61399e-035	0	1	4	4
70	18.0361	0.0348282	0	0	2.61399e-035	0	1	4	4
83	18.0883	0.0928802	0	0	2.61399e-035	0	1	4	4
76	18.2741	0.0406361	0	0	2.61399e-035	0	1	4	4
79	18.3147	0.0290241	0	0	2.61399e-035	0	1	4	4
82	18.3554	0.0580502	0	0	2.61399e-035	0	1	4	4
84	19.0404	0.0232182	0	0	2.61399e-035	0	1	4	4
68	19.3712	0.029026	0	0	2.61399e-035	0	1	4	4
63	19.5686	0.0348301	0	0	2.61399e-035	0	1	4	4
63	19.7602	0.0290241	0	0	2.61399e-035	0	1	4	4
59	20.1898	0.0580502	0	0	2.61399e-035	0	1	4	4
61	20.2478	0.0406342	0	0	2.61399e-035	0	1	4	4
64	20.3407	0.0406361	0	0	2.61399e-035	0	1	4	4
63	20.3813	0.0232201	0	0	2.61399e-035	0	1	4	4
64	20.9386	0.0348301	0	0	2.61399e-035	0	1	4	4
61	21.1127	0.0290241	0	0	2.61399e-035	0	1	4	4
62	21.2288	0.0232201	0	0	2.61399e-035	0	1	4	4
63	21.3682	0.0348301	0	0	2.61399e-035	0	1	4	4
63	21.4088	0.0290241	0	0	2.61399e-035	0	1	4	4
63	21.4378	0.029026	0	0	2.61399e-035	0	1	4	4
63	21.6004	0.0290241	0	0	2.61399e-035	0	1	4	4
64	21.7629	0.0232201	0	0	2.61399e-035	0	1	4	4
64	21.8093	0.0638561	0	0	2.61399e-035	0	1	4	4
63	21.9951	0.133514	0	0	2.61399e-035	0	1	4	4
62	22.2795	0.0522442	0	0	2.61399e-035	0	1	4	4
64	23.5857	0.0406342	0	0	2.61399e-035	0	1	4	4
64	23.8179	0.1161	0	0	2.61399e-035	0	1	4	4
60	23.9862	0.0580502	0	0	2.61399e-035	0	1	4	4
63	24.0791	0.0406361	0	0	2.61399e-035	0	1	4	4
63	24.1313	0.0522442	0	0	2.61399e-035	0	1	4	4
67	24.5667	0.0696602	0	0	2.61399e-035	0	1	4	4
66	24.706	0.0522442	0	0	2.61399e-035	0	1	4	4
63	25.0369	0.029026	0	0	2.61399e-035	0	1	4	4
64	25.1937	0.0754642	0	0	2.61399e-035	0	1	4	4
63	25.3446	0.029026	0	0	2.61399e-035	0	1	4	4
63	25.4317	0.0812702	0	0	2.61399e-035	0	1	4	4
63	25.6929	0.0580502	0	0	2.61399e-035	0	1	4	4
62	25.8322	0.0928802	0	0	2.61399e-035	0	1	4	4
63	26.018	0.133514	0	0	2.61399e-035	0	1	4	4
66	26.5927	0.0870743	0	0	2.61399e-035	0	1	4	4
64	26.8945	0.0406342	0	0	2.61399e-035	0	1	4	4
64	26.9351	0.0232201	0	0	2.61399e-035	0	1	4	4
63	27.0164	0.029026	0	0	2.61399e-035	0	1	4	4
63	27.0454	0.0232182	0	0	2.61399e-035	0	1	4	4
64	27.2544	0.0638542	0	0	2.61399e-035	0	1	4	4
64	27.4402	0.110294	0	0	2.61399e-035	0	1	4	4
63	27.5505	0.0290241	0	0	2.61399e-035	0	1	4	4
64	27.5795	0.0522461	0	0	2.61399e-035	0	1	4	4
63	27.6666	0.0348282	0	0	2.61399e-035	0	1	4	4
64	27.8872	0.145124	0	0	2.61399e-035	0	1	4	4
69	28.131	0.15093	0	0	2.61399e-035	0	1	4	4
63	29.1875	0.0928802	0	0	2.61399e-035	0	1	4	4
