midiPitch 	 onsetSec 	 durationSec 	 onsetBeats 	 onsetBarIndex 	 onsetBar 	 durationBeats 	 velocity  	 numerator 	 denominator 
50	3.19855	0.0464399	0	0	0	0	1	4	4
45	3.40753	0.0348299	0	0	0	0	1	4	4
46	3.44236	0.0290248	0	0	0	0	1	4	4
48	3.61651	0.0348301	0	0	0	0	1	4	4
49	3.65134	0.10449	0	0	0	0	1	4	4
54	3.97061	0.16254	0	0	0	0	1	4	4
56	4.37116	0.145125	0	0	0	0	1	4	4
55	4.61497	0.359909	0	0	0	0	1	4	4
55	5.13161	0.365714	0	0	0	0	1	4	4
61	5.56118	0.394739	0	0	0	0	1	4	4
64	6.10104	0.307664	0	0	0	0	1	4	4
68	6.58866	0.255419	0	0	0	0	1	4	4
71	7.08209	0.226395	0	0	0	0	1	4	4
73	7.64517	0.0348301	0	0	0	0	1	4	4
64	7.70322	0.0348296	0	0	0	0	1	4	4
63	7.90059	0.0348301	0	0	0	0	1	4	4
73	7.93542	0.272834	0	0	0	0	1	4	4
67	9.43311	0.0986843	0	0	0	0	1	4	4
55	9.4273	0.110294	0	0	0	0	1	4	4
55	9.5376	0.0290251	0	0	0	0	1	4	4
56	9.6595	0.330884	0	0	0	0	1	4	4
56	10.1529	0.272835	0	0	0	0	1	4	4
63	10.6812	0.20898	0	0	0	0	1	4	4
67	10.9134	0.19737	0	0	0	0	1	4	4
69	11.1107	0.301859	0	0	0	0	1	4	4
69	11.5926	0.272835	0	0	0	0	1	4	4
65	11.8712	0.214785	0	0	0	0	1	4	4
62	12.086	0.29025	0	0	0	0	1	4	4
57	12.858	0.17415	0	0	0	0	1	4	4
67	13.3515	0.156734	0	0	0	0	1	4	4
65	13.7288	0.110294	0	0	0	0	1	4	4
69	13.8391	0.17415	0	0	0	0	1	4	4
72	14.019	0.342494	0	0	0	0	1	4	4
76	14.3615	0.168344	0	0	0	0	1	4	4
72	14.5589	0.156734	0	0	0	0	1	4	4
72	14.7156	0.0522451	0	0	0	0	1	4	4
67	15.0814	0.18576	0	0	0	0	1	4	4
64	15.3832	0.150929	0	0	0	0	1	4	4
68	15.6096	0.191565	0	0	0	0	1	4	4
69	15.8012	0.0580502	0	0	0	0	1	4	4
72	15.8592	0.441178	0	0	0	0	1	4	4
72	16.3004	0.0696602	0	0	0	0	1	4	4
72	16.3701	0.156734	0	0	0	0	1	4	4
74	16.5442	0.296053	0	0	0	0	1	4	4
77	16.8519	0.16254	0	0	0	0	1	4	4
77	17.0144	0.0464401	0	0	0	0	1	4	4
69	17.0609	0.0754642	0	0	0	0	1	4	4
81	17.1363	0.226395	0	0	0	0	1	4	4
84	17.3685	0.174149	0	0	0	0	1	4	4
81	17.5601	0.0986843	0	0	0	0	1	4	4
80	17.6588	0.145124	0	0	0	0	1	4	4
77	17.8387	0.18576	0	0	0	0	1	4	4
75	18.0477	0.214785	0	0	0	0	1	4	4
72	18.3322	0.191565	0	0	0	0	1	4	4
70	18.5527	0.301859	0	0	0	0	1	4	4
68	18.8604	0.13932	0	0	0	0	1	4	4
69	18.9997	0.17415	0	0	0	0	1	4	4
74	19.3422	0.197369	0	0	0	0	1	4	4
69	19.5744	0.238005	0	0	0	0	1	4	4
72	19.8298	0.255419	0	0	0	0	1	4	4
72	20.48	0.0464401	0	0	0	0	1	4	4
72	21.1534	0.121906	0	0	0	0	1	4	4
74	21.5307	0.0232201	0	0	0	0	1	4	4
74	21.5597	0.0696602	0	0	0	0	1	4	4
70	21.6816	0.133514	0	0	0	0	1	4	4
69	22.0357	0.12771	0	0	0	0	1	4	4
72	22.2099	0.168344	0	0	0	0	1	4	4
77	22.593	0.0812702	0	0	0	0	1	4	4
69	22.6743	0.121904	0	0	0	0	1	4	4
72	23.0168	0.10449	0	0	0	0	1	4	4
72	23.0168	0.110296	0	0	0	0	1	4	4
69	23.1155	0.01161	0	0	0	0	1	4	4
72	23.0168	0.1161	0	0	0	0	1	4	4
69	23.1155	0.243809	0	0	0	0	1	4	4
70	23.3593	0.168344	0	0	0	0	1	4	4
67	23.5334	0.272833	0	0	0	0	1	4	4
72	23.8179	0.0348301	0	0	0	0	1	4	4
72	23.8527	0.0232201	0	0	0	0	1	4	4
69	23.9224	0.400545	0	0	0	0	1	4	4
72	24.3984	0.110294	0	0	0	0	1	4	4
67	24.5087	0.0696602	0	0	0	0	1	4	4
72	24.5783	0.0290241	0	0	0	0	1	4	4
75	24.6073	0.16254	0	0	0	0	1	4	4
75	24.7989	0.139318	0	0	0	0	1	4	4
72	24.9382	0.0696602	0	0	0	0	1	4	4
79	25.1182	0.10449	0	0	0	0	1	4	4
72	25.2227	0.0870743	0	0	0	0	1	4	4
72	25.2227	0.0928802	0	0	0	0	1	4	4
79	25.3039	0.01161	0	0	0	0	1	4	4
72	25.2227	0.0986843	0	0	0	0	1	4	4
79	25.3039	0.0928802	0	0	0	0	1	4	4
72	25.3968	0.0638542	0	0	0	0	1	4	4
72	25.4607	0.0290241	0	0	0	0	1	4	4
72	25.4897	0.0232201	0	0	0	0	1	4	4
72	25.5594	0.0812702	0	0	0	0	1	4	4
72	25.6406	0.0928802	0	0	0	0	1	4	4
72	25.7335	0.0464401	0	0	0	0	1	4	4
75	25.78	0.0406342	0	0	0	0	1	4	4
75	25.8264	0.162539	0	0	0	0	1	4	4
70	26.0063	0.0928783	0	0	0	0	1	4	4
75	26.0992	0.0406361	0	0	0	0	1	4	4
70	26.1399	0.156734	0	0	0	0	1	4	4
77	26.3256	0.0406361	0	0	0	0	1	4	4
77	26.3663	0.104488	0	0	0	0	1	4	4
72	26.4998	0.249615	0	0	0	0	1	4	4
67	26.7494	0.243809	0	0	0	0	1	4	4
65	27.0164	0.278639	0	0	0	0	1	4	4
56	28.2819	0.15093	0	0	0	0	1	4	4
62	28.5954	0.214785	0	0	0	0	1	4	4
62	28.8102	0.0696602	0	0	0	0	1	4	4
60	28.9495	0.330885	0	0	0	0	1	4	4
60	29.2804	0.0232201	0	0	0	0	1	4	4
