midiPitch 	 onsetSec 	 durationSec 	 onsetBeats 	 onsetBarIndex 	 onsetBar 	 durationBeats 	 velocity  	 numerator 	 denominator 
60	0.888163	0.0406349	0	0	2.91479e-035	0	1	4	4
64	0.934603	0.029025	0	0	2.91479e-035	0	1	4	4
60	0.992653	0.301859	0	0	2.91479e-035	0	1	4	4
60	1.29451	0.22059	0	0	2.91479e-035	0	1	4	4
55	1.89823	0.145125	0	0	2.91479e-035	0	1	4	4
60	2.17687	0.156734	0	0	2.91479e-035	0	1	4	4
60	2.47293	0.0870748	0	0	2.91479e-035	0	1	4	4
62	2.56	0.2322	0	0	2.91479e-035	0	1	4	4
62	3.3727	0.342494	0	0	2.91479e-035	0	1	4	4
64	3.71519	0.214784	0	0	2.91479e-035	0	1	4	4
0	3.92998	0.09288	0	0	2.91479e-035	0	1	4	4
64	4.02286	0.859138	0	0	2.91479e-035	0	1	4	4
57	5.53796	0.168344	0	0	2.91479e-035	0	1	4	4
60	5.79918	0.0928802	0	0	2.91479e-035	0	1	4	4
60	5.89206	0.0638547	0	0	2.91479e-035	0	1	4	4
60	5.95592	0.0406346	0	0	2.91479e-035	0	1	4	4
64	6.21134	0.145125	0	0	2.91479e-035	0	1	4	4
64	6.36807	0.377324	0	0	2.91479e-035	0	1	4	4
64	6.78023	0.290249	0	0	2.91479e-035	0	1	4	4
64	7.12272	0.133514	0	0	2.91479e-035	0	1	4	4
64	7.27946	0.2322	0	0	2.91479e-035	0	1	4	4
63	7.51166	0.22059	0	0	2.91479e-035	0	1	4	4
67	8.33016	0.16254	0	0	2.91479e-035	0	1	4	4
67	8.50431	0.0696592	0	0	2.91479e-035	0	1	4	4
66	8.57397	0.0232201	0	0	2.91479e-035	0	1	4	4
67	8.6088	0.145124	0	0	2.91479e-035	0	1	4	4
67	8.90485	0.162539	0	0	2.91479e-035	0	1	4	4
67	9.23574	0.0290251	0	0	2.91479e-035	0	1	4	4
67	9.29379	0.121904	0	0	2.91479e-035	0	1	4	4
67	9.43311	0.17415	0	0	2.91479e-035	0	1	4	4
65	9.74658	0.272835	0	0	2.91479e-035	0	1	4	4
65	10.0194	0.0290251	0	0	2.91479e-035	0	1	4	4
64	10.1761	0.0406351	0	0	2.91479e-035	0	1	4	4
62	10.4664	0.20898	0	0	2.91479e-035	0	1	4	4
64	10.7683	0.0464401	0	0	2.91479e-035	0	1	4	4
65	10.8147	0.0580502	0	0	2.91479e-035	0	1	4	4
64	11.0759	0.0754652	0	0	2.91479e-035	0	1	4	4
64	11.1514	0.139319	0	0	2.91479e-035	0	1	4	4
64	11.2907	0.121904	0	0	2.91479e-035	0	1	4	4
64	12.8929	0.0406351	0	0	2.91479e-035	0	1	4	4
64	12.9335	0.0290251	0	0	2.91479e-035	0	1	4	4
65	13.1425	0.203175	0	0	2.91479e-035	0	1	4	4
64	13.4037	0.0754642	0	0	2.91479e-035	0	1	4	4
67	13.9436	0.104489	0	0	2.91479e-035	0	1	4	4
62	14.0481	0.0696602	0	0	2.91479e-035	0	1	4	4
62	14.1177	0.191565	0	0	2.91479e-035	0	1	4	4
64	14.3267	0.0522451	0	0	2.91479e-035	0	1	4	4
62	14.4718	0.0580502	0	0	2.91479e-035	0	1	4	4
62	14.5473	0.110294	0	0	2.91479e-035	0	1	4	4
57	15.2033	0.0696592	0	0	2.91479e-035	0	1	4	4
60	15.4297	0.179955	0	0	2.91479e-035	0	1	4	4
62	15.6444	0.0232201	0	0	2.91479e-035	0	1	4	4
64	15.8824	0.377324	0	0	2.91479e-035	0	1	4	4
64	16.3062	0.476009	0	0	2.91479e-035	0	1	4	4
63	16.7822	0.0870743	0	0	2.91479e-035	0	1	4	4
62	16.8693	0.0232201	0	0	2.91479e-035	0	1	4	4
63	17.4614	0.0232201	0	0	2.91479e-035	0	1	4	4
65	17.8619	0.0812702	0	0	2.91479e-035	0	1	4	4
65	17.9606	0.0812702	0	0	2.91479e-035	0	1	4	4
65	18.0419	0.0232201	0	0	2.91479e-035	0	1	4	4
67	18.2509	0.0754662	0	0	2.91479e-035	0	1	4	4
67	18.396	0.0870743	0	0	2.91479e-035	0	1	4	4
67	18.5411	0.0580502	0	0	2.91479e-035	0	1	4	4
67	18.843	0.0406342	0	0	2.91479e-035	0	1	4	4
67	18.8894	0.290249	0	0	2.91479e-035	0	1	4	4
67	19.2087	0.0870743	0	0	2.91479e-035	0	1	4	4
65	19.4583	0.116098	0	0	2.91479e-035	0	1	4	4
65	19.5744	0.0522461	0	0	2.91479e-035	0	1	4	4
64	19.7544	0.0580502	0	0	2.91479e-035	0	1	4	4
64	19.8124	0.0696602	0	0	2.91479e-035	0	1	4	4
62	20.0214	0.139318	0	0	2.91479e-035	0	1	4	4
62	20.1607	0.0232201	0	0	2.91479e-035	0	1	4	4
64	20.4974	0.232199	0	0	2.91479e-035	0	1	4	4
64	20.7412	0.10449	0	0	2.91479e-035	0	1	4	4
64	20.8457	0.0580502	0	0	2.91479e-035	0	1	4	4
64	20.9038	0.0406342	0	0	2.91479e-035	0	1	4	4
64	21.0199	0.0464401	0	0	2.91479e-035	0	1	4	4
64	21.0663	0.029026	0	0	2.91479e-035	0	1	4	4
64	21.1069	0.0928783	0	0	2.91479e-035	0	1	4	4
57	21.5946	0.0928802	0	0	2.91479e-035	0	1	4	4
65	22.2621	0.0232201	0	0	2.91479e-035	0	1	4	4
64	22.4653	0.0812702	0	0	2.91479e-035	0	1	4	4
65	22.6859	0.220589	0	0	2.91479e-035	0	1	4	4
62	23.0168	0.0232201	0	0	2.91479e-035	0	1	4	4
62	23.5741	0.255419	0	0	2.91479e-035	0	1	4	4
62	23.8295	0.0406361	0	0	2.91479e-035	0	1	4	4
64	23.8817	0.0986843	0	0	2.91479e-035	0	1	4	4
62	24.2416	0.0870743	0	0	2.91479e-035	0	1	4	4
65	25.1124	0.116098	0	0	2.91479e-035	0	1	4	4
65	25.2285	0.0406361	0	0	2.91479e-035	0	1	4	4
64	25.4665	0.261225	0	0	2.91479e-035	0	1	4	4
64	25.9657	0.499229	0	0	2.91479e-035	0	1	4	4
64	26.4649	0.284445	0	0	2.91479e-035	0	1	4	4
64	26.7784	0.0464401	0	0	2.91479e-035	0	1	4	4
64	26.8249	0.0696602	0	0	2.91479e-035	0	1	4	4
64	26.8945	0.174149	0	0	2.91479e-035	0	1	4	4
64	27.0687	0.197371	0	0	2.91479e-035	0	1	4	4
64	27.266	0.0580502	0	0	2.91479e-035	0	1	4	4
64	27.3241	0.0232201	0	0	2.91479e-035	0	1	4	4
68	27.5273	0.110294	0	0	2.91479e-035	0	1	4	4
68	27.6376	0.0348301	0	0	2.91479e-035	0	1	4	4
69	27.8349	0.145124	0	0	2.91479e-035	0	1	4	4
68	27.98	0.116098	0	0	2.91479e-035	0	1	4	4
69	28.0961	0.029026	0	0	2.91479e-035	0	1	4	4
