midiPitch 	 onsetSec 	 durationSec 	 onsetBeats 	 onsetBarIndex 	 onsetBar 	 durationBeats 	 velocity  	 numerator 	 denominator 
69	0.0464399	0.17415	0	0	0	0	1	4	4
71	0.290249	0.0232199	0	0	0	0	1	4	4
71	0.336689	0.02322	0	0	0	0	1	4	4
71	0.365714	0.121905	0	0	0	0	1	4	4
71	0.505034	0.0406349	0	0	0	0	1	4	4
70	0.603719	0.0406349	0	0	0	0	1	4	4
72	0.708209	0.0638549	0	0	0	0	1	4	4
72	0.795283	0.0696598	0	0	0	0	1	4	4
69	0.888163	0.0232199	0	0	0	0	1	4	4
71	0.992653	0.0232199	0	0	0	0	1	4	4
71	1.05651	0.12771	0	0	0	0	1	4	4
71	1.21905	0.03483	0	0	0	0	1	4	4
70	1.44544	0.0290248	0	0	0	0	1	4	4
70	1.57896	0.040635	0	0	0	0	1	4	4
70	1.6254	0.0232199	0	0	0	0	1	4	4
70	1.64862	0.1161	0	0	0	0	1	4	4
67	1.76472	0.10449	0	0	0	0	1	4	4
67	1.92726	0.0232199	0	0	0	0	1	4	4
69	1.96209	0.0754648	0	0	0	0	1	4	4
69	2.05497	0.0580499	0	0	0	0	1	4	4
71	2.26395	0.0406349	0	0	0	0	1	4	4
71	2.30458	0.0522449	0	0	0	0	1	4	4
71	2.35683	0.1161	0	0	0	0	1	4	4
72	2.47293	0.0464399	0	0	0	0	1	4	4
72	2.51937	0.0812697	0	0	0	0	1	4	4
71	2.60063	0.0348301	0	0	0	0	1	4	4
71	2.6819	0.0638547	0	0	0	0	1	4	4
70	2.74576	0.0290251	0	0	0	0	1	4	4
72	2.90249	0.110295	0	0	0	0	1	4	4
72	3.01279	0.0348301	0	0	0	0	1	4	4
70	3.39592	0.0580499	0	0	0	0	1	4	4
70	3.45397	0.0290248	0	0	0	0	1	4	4
74	3.67456	0.0580499	0	0	0	0	1	4	4
75	3.73261	0.0464399	0	0	0	0	1	4	4
75	3.80807	0.121905	0	0	0	0	1	4	4
64	4.12735	0.0406346	0	0	0	0	1	4	4
64	4.22603	0.0232201	0	0	0	0	1	4	4
64	4.25506	0.0406351	0	0	0	0	1	4	4
64	4.29569	0.0406351	0	0	0	0	1	4	4
68	4.56853	0.0638552	0	0	0	0	1	4	4
68	4.63238	0.0406346	0	0	0	0	1	4	4
68	4.67882	0.737234	0	0	0	0	1	4	4
68	5.56698	0.383129	0	0	0	0	1	4	4
68	5.95011	0.255419	0	0	0	0	1	4	4
68	6.24036	0.226395	0	0	0	0	1	4	4
68	6.46676	0.0232201	0	0	0	0	1	4	4
61	7.01243	0.359909	0	0	0	0	1	4	4
61	7.77288	0.15093	0	0	0	0	1	4	4
62	8.21406	0.435374	0	0	0	0	1	4	4
62	8.64943	0.0348301	0	0	0	0	1	4	4
62	8.69587	0.150929	0	0	0	0	1	4	4
62	8.8468	0.0348301	0	0	0	0	1	4	4
62	8.89324	0.423764	0	0	0	0	1	4	4
62	9.43311	0.24381	0	0	0	0	1	4	4
62	9.67692	0.145124	0	0	0	0	1	4	4
62	9.86268	0.325079	0	0	0	0	1	4	4
62	10.3445	0.203175	0	0	0	0	1	4	4
62	10.5477	0.365714	0	0	0	0	1	4	4
62	10.9308	0.127709	0	0	0	0	1	4	4
62	11.1514	0.133514	0	0	0	0	1	4	4
61	11.3429	0.0928793	0	0	0	0	1	4	4
61	11.8364	0.13932	0	0	0	0	1	4	4
61	11.9757	0.133514	0	0	0	0	1	4	4
61	12.1092	0.0348301	0	0	0	0	1	4	4
61	12.144	0.0348301	0	0	0	0	1	4	4
61	12.5098	0.156734	0	0	0	0	1	4	4
60	12.6665	0.0754652	0	0	0	0	1	4	4
60	12.8406	0.15093	0	0	0	0	1	4	4
60	12.9916	0.203175	0	0	0	0	1	4	4
60	13.1947	0.301859	0	0	0	0	1	4	4
60	13.5314	0.145124	0	0	0	0	1	4	4
60	13.6766	0.0232201	0	0	0	0	1	4	4
60	13.7578	0.121904	0	0	0	0	1	4	4
60	13.8797	0.0232201	0	0	0	0	1	4	4
60	13.9088	0.0812702	0	0	0	0	1	4	4
60	14.0887	0.0638552	0	0	0	0	1	4	4
60	14.4312	0.191565	0	0	0	0	1	4	4
61	14.7215	0.145124	0	0	0	0	1	4	4
61	14.8898	0.20898	0	0	0	0	1	4	4
61	15.1394	0.145124	0	0	0	0	1	4	4
61	15.2845	0.0406351	0	0	0	0	1	4	4
70	18.0651	0.0580502	0	0	0	0	1	4	4
59	18.8082	0.0580502	0	0	0	0	1	4	4
59	18.9881	0.0232201	0	0	0	0	1	4	4
64	19.1158	0.0348301	0	0	0	0	1	4	4
64	19.1913	0.0580502	0	0	0	0	1	4	4
64	19.3364	0.0522461	0	0	0	0	1	4	4
64	19.3887	0.0986843	0	0	0	0	1	4	4
64	19.4873	0.0638542	0	0	0	0	1	4	4
62	20.1201	0.0638542	0	0	0	0	1	4	4
59	20.2652	0.0232201	0	0	0	0	1	4	4
61	20.3058	0.0406361	0	0	0	0	1	4	4
59	20.5613	0.0348301	0	0	0	0	1	4	4
59	20.6251	0.412155	0	0	0	0	1	4	4
59	21.0373	0.0696602	0	0	0	0	1	4	4
59	21.1592	0.0348301	0	0	0	0	1	4	4
59	21.1998	0.0232201	0	0	0	0	1	4	4
59	21.2288	0.0290241	0	0	0	0	1	4	4
59	21.3914	0.029026	0	0	0	0	1	4	4
59	21.67	0.104488	0	0	0	0	1	4	4
62	22.0648	0.0290241	0	0	0	0	1	4	4
62	22.0938	0.029026	0	0	0	0	1	4	4
62	22.146	0.0464401	0	0	0	0	1	4	4
61	22.2041	0.0348301	0	0	0	0	1	4	4
61	22.4015	0.0696602	0	0	0	0	1	4	4
59	22.6569	0.0464401	0	0	0	0	1	4	4
59	22.7033	0.0406361	0	0	0	0	1	4	4
59	22.7439	0.0406342	0	0	0	0	1	4	4
59	22.8833	0.0406361	0	0	0	0	1	4	4
59	22.9297	0.0870743	0	0	0	0	1	4	4
64	23.2083	0.029026	0	0	0	0	1	4	4
59	23.3941	0.0290241	0	0	0	0	1	4	4
59	23.4231	0.0406361	0	0	0	0	1	4	4
59	23.4696	0.0348301	0	0	0	0	1	4	4
59	23.5508	0.0348301	0	0	0	0	1	4	4
59	23.5857	0.0638542	0	0	0	0	1	4	4
59	23.6495	0.0696602	0	0	0	0	1	4	4
62	24.1313	0.0464401	0	0	0	0	1	4	4
57	24.3287	0.0406361	0	0	0	0	1	4	4
61	24.3984	0.0406342	0	0	0	0	1	4	4
59	24.7176	0.0290241	0	0	0	0	1	4	4
4294967295	24.7525	0.0174141	0	0	0	0	1	4	4
59	24.7583	0.272835	0	0	0	0	1	4	4
59	25.1995	0.0290241	0	0	0	0	1	4	4
59	25.3968	0.0348282	0	0	0	0	1	4	4
59	25.5303	0.0290241	0	0	0	0	1	4	4
59	25.5594	0.0348301	0	0	0	0	1	4	4
59	25.6058	0.0928802	0	0	0	0	1	4	4
60	25.7567	0.0232201	0	0	0	0	1	4	4
59	25.8496	0.0232201	0	0	0	0	1	4	4
61	26.1747	0.0348301	0	0	0	0	1	4	4
61	26.2908	0.0232201	0	0	0	0	1	4	4
61	26.3198	0.110294	0	0	0	0	1	4	4
59	26.5927	0.0406342	0	0	0	0	1	4	4
59	26.7262	0.0232201	0	0	0	0	1	4	4
59	26.8249	0.0754642	0	0	0	0	1	4	4
59	26.9003	0.10449	0	0	0	0	1	4	4
59	27.2138	0.0290241	0	0	0	0	1	4	4
59	27.2428	0.0290241	0	0	0	0	1	4	4
59	27.3647	0.0348301	0	0	0	0	1	4	4
59	27.3995	0.1161	0	0	0	0	1	4	4
59	27.5156	0.0290241	0	0	0	0	1	4	4
59	27.5505	0.0638542	0	0	0	0	1	4	4
59	27.6143	0.1161	0	0	0	0	1	4	4
63	27.8407	0.0464401	0	0	0	0	1	4	4
61	28.3806	0.0406361	0	0	0	0	1	4	4
59	28.6012	0.377323	0	0	0	0	1	4	4
