midiPitch 	 onsetSec 	 durationSec 	 onsetBeats 	 onsetBarIndex 	 onsetBar 	 durationBeats 	 velocity  	 numerator 	 denominator 
49	0.719819	0.13932	0	0	2.48249e-035	0	1	4	4
50	0.981043	0.238005	0	0	2.48249e-035	0	1	4	4
53	1.26549	0.22059	0	0	2.48249e-035	0	1	4	4
53	1.60798	0.203175	0	0	2.48249e-035	0	1	4	4
61	1.81116	0.417959	0	0	2.48249e-035	0	1	4	4
61	3.19274	0.191565	0	0	2.48249e-035	0	1	4	4
0	3.38431	0.10449	0	0	2.48249e-035	0	1	4	4
62	3.4888	0.145125	0	0	2.48249e-035	0	1	4	4
53	3.92417	0.296055	0	0	2.48249e-035	0	1	4	4
55	5.61923	0.812698	0	0	2.48249e-035	0	1	4	4
66	7.85415	0.168345	0	0	2.48249e-035	0	1	4	4
67	8.02249	0.17415	0	0	2.48249e-035	0	1	4	4
69	8.52753	0.121905	0	0	2.48249e-035	0	1	4	4
69	8.64943	0.0812693	0	0	2.48249e-035	0	1	4	4
57	9.01515	0.19737	0	0	2.48249e-035	0	1	4	4
56	10.211	0.133515	0	0	2.48249e-035	0	1	4	4
48	11.2617	0.19737	0	0	2.48249e-035	0	1	4	4
61	11.6971	0.0348301	0	0	2.48249e-035	0	1	4	4
62	11.7377	0.301859	0	0	2.48249e-035	0	1	4	4
62	12.0395	0.0348301	0	0	2.48249e-035	0	1	4	4
62	12.4691	0.179955	0	0	2.48249e-035	0	1	4	4
64	12.6491	0.499229	0	0	2.48249e-035	0	1	4	4
64	13.3515	0.214785	0	0	2.48249e-035	0	1	4	4
65	14.17	0.110294	0	0	2.48249e-035	0	1	4	4
61	14.2803	0.0290251	0	0	2.48249e-035	0	1	4	4
62	14.3151	0.0696602	0	0	2.48249e-035	0	1	4	4
64	14.5067	0.0406351	0	0	2.48249e-035	0	1	4	4
65	14.5531	0.249615	0	0	2.48249e-035	0	1	4	4
64	18.7153	0.0580502	0	0	2.48249e-035	0	1	4	4
65	18.843	0.121904	0	0	2.48249e-035	0	1	4	4
65	19.1216	0.12771	0	0	2.48249e-035	0	1	4	4
65	19.2493	0.0696602	0	0	2.48249e-035	0	1	4	4
65	19.319	0.470203	0	0	2.48249e-035	0	1	4	4
62	19.7892	0.13932	0	0	2.48249e-035	0	1	4	4
65	23.6785	0.487619	0	0	2.48249e-035	0	1	4	4
62	24.2765	0.296055	0	0	2.48249e-035	0	1	4	4
62	24.5725	0.220589	0	0	2.48249e-035	0	1	4	4
65	24.7931	0.232199	0	0	2.48249e-035	0	1	4	4
62	25.0659	0.13932	0	0	2.48249e-035	0	1	4	4
60	25.2401	0.133516	0	0	2.48249e-035	0	1	4	4
62	25.4839	0.185759	0	0	2.48249e-035	0	1	4	4
62	25.6697	0.133516	0	0	2.48249e-035	0	1	4	4
62	25.8032	0.104488	0	0	2.48249e-035	0	1	4	4
64	27.0164	0.0870743	0	0	2.48249e-035	0	1	4	4
65	27.1035	0.214785	0	0	2.48249e-035	0	1	4	4
64	28.0787	0.145124	0	0	2.48249e-035	0	1	4	4
65	28.2239	0.510839	0	0	2.48249e-035	0	1	4	4
62	28.816	0.168344	0	0	2.48249e-035	0	1	4	4
