midiPitch 	 onsetSec 	 durationSec 	 onsetBeats 	 onsetBarIndex 	 onsetBar 	 durationBeats 	 velocity  	 numerator 	 denominator 
51	0.290249	0.226395	0	0	0	0	1	4	4
50	0.580499	0.18576	0	0	0	0	1	4	4
49	0.847528	0.261225	0	0	0	0	1	4	4
47	1.10875	0.0348299	0	0	0	0	1	4	4
47	1.20163	0.03483	0	0	0	0	1	4	4
51	1.41642	0.0232199	0	0	0	0	1	4	4
50	1.46286	0.0580499	0	0	0	0	1	4	4
49	1.53832	0.342494	0	0	0	0	1	4	4
48	1.88082	0.110295	0	0	0	0	1	4	4
52	2.53678	0.0464401	0	0	0	0	1	4	4
51	2.58322	0.0812697	0	0	0	0	1	4	4
50	2.66449	0.0638549	0	0	0	0	1	4	4
50	2.78639	0.400544	0	0	0	0	1	4	4
0	3.18694	0.12771	0	0	0	0	1	4	4
50	3.31465	0.296055	0	0	0	0	1	4	4
52	4.73107	0.243809	0	0	0	0	1	4	4
51	5.0039	0.121905	0	0	0	0	1	4	4
50	5.1258	0.0580497	0	0	0	0	1	4	4
50	5.30576	0.168345	0	0	0	0	1	4	4
49	5.4741	0.0986848	0	0	0	0	1	4	4
49	5.8166	0.406349	0	0	0	0	1	4	4
51	6.99501	0.0232201	0	0	0	0	1	4	4
52	7.02404	0.19737	0	0	0	0	1	4	4
49	7.22721	0.0348301	0	0	0	0	1	4	4
49	7.26785	0.0348301	0	0	0	0	1	4	4
49	7.30848	0.162539	0	0	0	0	1	4	4
51	7.50585	0.0232201	0	0	0	0	1	4	4
51	7.53487	0.25542	0	0	0	0	1	4	4
50	7.79029	0.19737	0	0	0	0	1	4	4
49	7.98766	0.0290251	0	0	0	0	1	4	4
51	9.16608	0.238005	0	0	0	0	1	4	4
74	9.33442	0.0870752	0	0	0	0	1	4	4
74	9.4215	0.0232201	0	0	0	0	1	4	4
74	9.45052	0.121904	0	0	0	0	1	4	4
74	9.58984	0.330885	0	0	0	0	1	4	4
74	9.92073	0.0522442	0	0	0	0	1	4	4
74	9.97297	0.1161	0	0	0	0	1	4	4
67	10.1239	0.0290241	0	0	0	0	1	4	4
68	10.1529	0.0232201	0	0	0	0	1	4	4
73	10.1761	0.0812702	0	0	0	0	1	4	4
67	10.4258	0.0580502	0	0	0	0	1	4	4
67	10.4838	0.0696602	0	0	0	0	1	4	4
72	10.7276	0.0812693	0	0	0	0	1	4	4
72	10.983	0.0638552	0	0	0	0	1	4	4
74	11.1804	0.121905	0	0	0	0	1	4	4
74	11.3023	0.0754642	0	0	0	0	1	4	4
74	11.3778	0.0464401	0	0	0	0	1	4	4
74	11.4242	0.0290251	0	0	0	0	1	4	4
74	11.5403	0.0348301	0	0	0	0	1	4	4
74	11.5984	0.0406351	0	0	0	0	1	4	4
74	11.639	0.0348301	0	0	0	0	1	4	4
74	11.7145	0.0406351	0	0	0	0	1	4	4
74	11.7841	0.127709	0	0	0	0	1	4	4
69	11.9234	0.156734	0	0	0	0	1	4	4
69	12.1556	0.0232201	0	0	0	0	1	4	4
75	12.3066	0.0348301	0	0	0	0	1	4	4
67	12.3588	0.0638542	0	0	0	0	1	4	4
67	12.4227	0.0348301	0	0	0	0	1	4	4
74	12.4633	0.0232201	0	0	0	0	1	4	4
67	12.4923	0.26703	0	0	0	0	1	4	4
67	12.7768	0.0580492	0	0	0	0	1	4	4
67	12.8348	0.191565	0	0	0	0	1	4	4
67	13.0264	0.0464401	0	0	0	0	1	4	4
67	13.0728	0.0986853	0	0	0	0	1	4	4
67	13.2122	0.0580492	0	0	0	0	1	4	4
64	13.6011	0.0986843	0	0	0	0	1	4	4
74	13.6998	0.0464401	0	0	0	0	1	4	4
74	13.7985	0.0290251	0	0	0	0	1	4	4
69	13.8623	0.179955	0	0	0	0	1	4	4
68	14.0945	0.0464401	0	0	0	0	1	4	4
68	14.2803	0.0290251	0	0	0	0	1	4	4
66	14.3499	0.0580502	0	0	0	0	1	4	4
68	14.4486	0.0406342	0	0	0	0	1	4	4
66	14.9478	0.0464401	0	0	0	0	1	4	4
68	15.2497	0.0348291	0	0	0	0	1	4	4
67	15.2845	0.0232201	0	0	0	0	1	4	4
67	15.3136	0.0812702	0	0	0	0	1	4	4
67	15.4239	0.0580492	0	0	0	0	1	4	4
74	15.6561	0.0754642	0	0	0	0	1	4	4
74	15.7315	0.0464401	0	0	0	0	1	4	4
69	15.8012	0.0348301	0	0	0	0	1	4	4
67	15.9463	0.0464401	0	0	0	0	1	4	4
67	16.045	0.0464401	0	0	0	0	1	4	4
74	16.341	0.0522442	0	0	0	0	1	4	4
75	16.4688	0.029026	0	0	0	0	1	4	4
74	16.521	0.0348301	0	0	0	0	1	4	4
67	16.6313	0.0406342	0	0	0	0	1	4	4
73	16.73	0.029026	0	0	0	0	1	4	4
73	17.0318	0.0464401	0	0	0	0	1	4	4
68	17.5253	0.0928802	0	0	0	0	1	4	4
68	17.6646	0.0522461	0	0	0	0	1	4	4
68	17.74	0.0812702	0	0	0	0	1	4	4
67	17.8213	0.0464382	0	0	0	0	1	4	4
62	18.0361	0.214783	0	0	0	0	1	4	4
74	18.2335	0.0580502	0	0	0	0	1	4	4
49	19.2551	0.0638542	0	0	0	0	1	4	4
49	19.6847	0.191566	0	0	0	0	1	4	4
51	19.9924	0.208981	0	0	0	0	1	4	4
49	20.2072	0.0406361	0	0	0	0	1	4	4
53	20.2652	0.197371	0	0	0	0	1	4	4
52	20.5148	0.0870743	0	0	0	0	1	4	4
53	20.8399	0.191565	0	0	0	0	1	4	4
50	21.0315	0.191565	0	0	0	0	1	4	4
49	21.223	0.10449	0	0	0	0	1	4	4
50	21.3682	0.197371	0	0	0	0	1	4	4
51	22.5466	0.145124	0	0	0	0	1	4	4
51	23.0864	0.17415	0	0	0	0	1	4	4
50	23.2954	0.220589	0	0	0	0	1	4	4
4294967295	23.5102	0.0174141	0	0	0	0	1	4	4
67	23.9688	0.0928802	0	0	0	0	1	4	4
74	24.0849	0.0348301	0	0	0	0	1	4	4
74	24.1197	0.0290241	0	0	0	0	1	4	4
74	24.3345	0.0638542	0	0	0	0	1	4	4
75	24.3984	0.0290241	0	0	0	0	1	4	4
74	24.4796	0.0232201	0	0	0	0	1	4	4
75	24.5261	0.0348301	0	0	0	0	1	4	4
75	24.7931	0.0290241	0	0	0	0	1	4	4
50	24.6654	0.272835	0	0	0	0	1	4	4
50	24.9615	0.0986843	0	0	0	0	1	4	4
50	25.0776	0.0754642	0	0	0	0	1	4	4
50	25.1995	0.156734	0	0	0	0	1	4	4
74	25.6522	0.0348301	0	0	0	0	1	4	4
67	25.8438	0.15093	0	0	0	0	1	4	4
67	26.4185	0.12771	0	0	0	0	1	4	4
74	26.6449	0.0696602	0	0	0	0	1	4	4
74	26.7552	0.0522461	0	0	0	0	1	4	4
74	26.8074	0.0812683	0	0	0	0	1	4	4
74	26.9584	0.0464401	0	0	0	0	1	4	4
74	27.0048	0.0406361	0	0	0	0	1	4	4
74	27.0571	0.0406361	0	0	0	0	1	4	4
74	27.4808	0.121904	0	0	0	0	1	4	4
74	27.6143	0.029026	0	0	0	0	1	4	4
74	27.8059	0.0348301	0	0	0	0	1	4	4
68	27.8872	0.0232201	0	0	0	0	1	4	4
74	27.951	0.0406361	0	0	0	0	1	4	4
74	28.1426	0.0522461	0	0	0	0	1	4	4
74	28.3748	0.0870743	0	0	0	0	1	4	4
74	28.4793	0.0464382	0	0	0	0	1	4	4
74	28.7521	0.0464401	0	0	0	0	1	4	4
74	28.8218	0.0232201	0	0	0	0	1	4	4
74	28.903	0.0348301	0	0	0	0	1	4	4
74	28.9727	0.0348301	0	0	0	0	1	4	4
74	29.0366	0.029026	0	0	0	0	1	4	4
69	29.1759	0.0522442	0	0	0	0	1	4	4
75	29.2571	0.0348301	0	0	0	0	1	4	4
50	29.0888	0.499228	0	0	0	0	1	4	4
50	29.588	0.0580502	0	0	0	0	1	4	4
51	29.7157	0.208981	0	0	0	0	1	4	4
