midiPitch 	 onsetSec 	 durationSec 	 onsetBeats 	 onsetBarIndex 	 onsetBar 	 durationBeats 	 velocity  	 numerator 	 denominator 
55	0.0580499	0.121905	0	0	2.97117e-035	0	1	4	4
50	0.203175	0.0754648	0	0	2.97117e-035	0	1	4	4
55	0.278639	0.02322	0	0	2.97117e-035	0	1	4	4
55	0.348299	0.12771	0	0	2.97117e-035	0	1	4	4
55	0.516644	0.0696598	0	0	2.97117e-035	0	1	4	4
55	0.586304	0.0754648	0	0	2.97117e-035	0	1	4	4
55	0.661769	0.0522449	0	0	2.97117e-035	0	1	4	4
55	0.714014	0.0754648	0	0	2.97117e-035	0	1	4	4
55	0.922993	0.0406349	0	0	2.97117e-035	0	1	4	4
55	1.03329	0.18576	0	0	2.97117e-035	0	1	4	4
55	1.21905	0.0232201	0	0	2.97117e-035	0	1	4	4
55	1.33515	0.0986848	0	0	2.97117e-035	0	1	4	4
74	1.46286	0.0986848	0	0	2.97117e-035	0	1	4	4
74	1.64862	0.029025	0	0	2.97117e-035	0	1	4	4
78	1.76472	0.0232199	0	0	2.97117e-035	0	1	4	4
71	1.79374	0.0580499	0	0	2.97117e-035	0	1	4	4
69	1.99111	0.0406349	0	0	2.97117e-035	0	1	4	4
69	2.04336	0.0870748	0	0	2.97117e-035	0	1	4	4
76	2.13043	0.0348301	0	0	2.97117e-035	0	1	4	4
69	2.17687	0.0638547	0	0	2.97117e-035	0	1	4	4
69	2.26395	0.0464399	0	0	2.97117e-035	0	1	4	4
69	2.37424	0.0232198	0	0	2.97117e-035	0	1	4	4
74	2.39746	0.0232201	0	0	2.97117e-035	0	1	4	4
69	2.46132	0.0928798	0	0	2.97117e-035	0	1	4	4
69	2.55419	0.0464399	0	0	2.97117e-035	0	1	4	4
78	2.64127	0.0232201	0	0	2.97117e-035	0	1	4	4
56	2.98376	0.0232198	0	0	2.97117e-035	0	1	4	4
59	3.01279	0.075465	0	0	2.97117e-035	0	1	4	4
59	3.26821	0.0348301	0	0	2.97117e-035	0	1	4	4
56	3.33787	0.0290248	0	0	2.97117e-035	0	1	4	4
59	3.45977	0.0290251	0	0	2.97117e-035	0	1	4	4
59	3.57007	0.0232201	0	0	2.97117e-035	0	1	4	4
59	3.59909	0.0348299	0	0	2.97117e-035	0	1	4	4
59	3.7268	0.0290251	0	0	2.97117e-035	0	1	4	4
56	3.75583	0.0406349	0	0	2.97117e-035	0	1	4	4
59	3.79646	0.110295	0	0	2.97117e-035	0	1	4	4
56	3.90676	0.0232198	0	0	2.97117e-035	0	1	4	4
59	4.00544	0.0928798	0	0	2.97117e-035	0	1	4	4
56	4.09832	0.0232201	0	0	2.97117e-035	0	1	4	4
59	4.28408	0.15093	0	0	2.97117e-035	0	1	4	4
59	4.43501	0.0290246	0	0	2.97117e-035	0	1	4	4
59	4.48726	0.0290251	0	0	2.97117e-035	0	1	4	4
59	4.6556	0.0406346	0	0	2.97117e-035	0	1	4	4
59	4.75429	0.116099	0	0	2.97117e-035	0	1	4	4
59	5.30576	0.0986848	0	0	2.97117e-035	0	1	4	4
60	5.40444	0.0464401	0	0	2.97117e-035	0	1	4	4
59	5.4683	0.150929	0	0	2.97117e-035	0	1	4	4
59	5.61923	0.179955	0	0	2.97117e-035	0	1	4	4
59	5.79918	0.1161	0	0	2.97117e-035	0	1	4	4
57	5.9385	0.0290251	0	0	2.97117e-035	0	1	4	4
57	5.99655	0.0232201	0	0	2.97117e-035	0	1	4	4
57	6.02558	0.290249	0	0	2.97117e-035	0	1	4	4
59	6.42032	0.0290251	0	0	2.97117e-035	0	1	4	4
57	6.44934	0.0580502	0	0	2.97117e-035	0	1	4	4
59	6.53642	0.0290251	0	0	2.97117e-035	0	1	4	4
59	6.58866	0.0290246	0	0	2.97117e-035	0	1	4	4
59	6.65832	0.0522451	0	0	2.97117e-035	0	1	4	4
57	6.71057	0.0580497	0	0	2.97117e-035	0	1	4	4
59	6.78023	0.0522447	0	0	2.97117e-035	0	1	4	4
60	6.94277	0.0232201	0	0	2.97117e-035	0	1	4	4
57	7.00082	0.0232196	0	0	2.97117e-035	0	1	4	4
60	7.02404	0.0232201	0	0	2.97117e-035	0	1	4	4
60	7.05887	0.0406351	0	0	2.97117e-035	0	1	4	4
60	7.10531	0.0232196	0	0	2.97117e-035	0	1	4	4
60	7.13433	0.179955	0	0	2.97117e-035	0	1	4	4
60	7.31429	0.0580497	0	0	2.97117e-035	0	1	4	4
60	7.37234	0.0638547	0	0	2.97117e-035	0	1	4	4
60	7.43619	0.0290251	0	0	2.97117e-035	0	1	4	4
60	7.47683	0.0522451	0	0	2.97117e-035	0	1	4	4
57	7.51746	0.0522447	0	0	2.97117e-035	0	1	4	4
60	7.66258	0.0406351	0	0	2.97117e-035	0	1	4	4
57	7.73805	0.0348301	0	0	2.97117e-035	0	1	4	4
60	7.77288	0.0348301	0	0	2.97117e-035	0	1	4	4
57	7.80771	0.0290251	0	0	2.97117e-035	0	1	4	4
60	7.85415	0.0986848	0	0	2.97117e-035	0	1	4	4
54	8.6146	0.0348301	0	0	2.97117e-035	0	1	4	4
54	8.90485	0.0696592	0	0	2.97117e-035	0	1	4	4
57	9.35764	0.214785	0	0	2.97117e-035	0	1	4	4
57	9.57243	0.0290251	0	0	2.97117e-035	0	1	4	4
57	9.60726	0.0696602	0	0	2.97117e-035	0	1	4	4
57	9.67692	0.0348301	0	0	2.97117e-035	0	1	4	4
57	9.78141	0.0522451	0	0	2.97117e-035	0	1	4	4
57	9.83365	0.0232201	0	0	2.97117e-035	0	1	4	4
57	10.0368	0.0928802	0	0	2.97117e-035	0	1	4	4
55	10.4548	0.0870752	0	0	2.97117e-035	0	1	4	4
55	10.6696	0.0928793	0	0	2.97117e-035	0	1	4	4
55	10.8669	0.0928802	0	0	2.97117e-035	0	1	4	4
56	10.9598	0.0232191	0	0	2.97117e-035	0	1	4	4
55	11.0933	0.133514	0	0	2.97117e-035	0	1	4	4
55	11.459	0.406349	0	0	2.97117e-035	0	1	4	4
55	11.9873	0.156734	0	0	2.97117e-035	0	1	4	4
55	12.4343	0.0406351	0	0	2.97117e-035	0	1	4	4
55	12.4807	0.0696602	0	0	2.97117e-035	0	1	4	4
55	12.7071	0.139319	0	0	2.97117e-035	0	1	4	4
67	14.5125	0.737234	0	0	2.97117e-035	0	1	4	4
67	15.2671	0.18576	0	0	2.97117e-035	0	1	4	4
62	15.5806	0.0696602	0	0	2.97117e-035	0	1	4	4
62	15.7083	0.0406351	0	0	2.97117e-035	0	1	4	4
55	15.7431	0.13932	0	0	2.97117e-035	0	1	4	4
55	15.8824	0.179954	0	0	2.97117e-035	0	1	4	4
67	16.0624	0.0580502	0	0	2.97117e-035	0	1	4	4
62	16.1205	0.0696602	0	0	2.97117e-035	0	1	4	4
62	16.1959	0.0580502	0	0	2.97117e-035	0	1	4	4
67	16.3527	0.272833	0	0	2.97117e-035	0	1	4	4
62	16.6835	0.145124	0	0	2.97117e-035	0	1	4	4
67	16.8287	0.13932	0	0	2.97117e-035	0	1	4	4
62	16.968	0.0348301	0	0	2.97117e-035	0	1	4	4
62	17.0667	0.0812702	0	0	2.97117e-035	0	1	4	4
69	17.1479	0.0928802	0	0	2.97117e-035	0	1	4	4
62	17.2524	0.197369	0	0	2.97117e-035	0	1	4	4
62	17.5253	0.342493	0	0	2.97117e-035	0	1	4	4
69	17.8678	0.307665	0	0	2.97117e-035	0	1	4	4
62	18.1754	0.243811	0	0	2.97117e-035	0	1	4	4
69	18.4192	0.162539	0	0	2.97117e-035	0	1	4	4
62	18.5818	0.10449	0	0	2.97117e-035	0	1	4	4
62	18.7037	0.17415	0	0	2.97117e-035	0	1	4	4
62	18.9765	0.197371	0	0	2.97117e-035	0	1	4	4
62	19.3074	0.0638542	0	0	2.97117e-035	0	1	4	4
62	19.5222	0.406349	0	0	2.97117e-035	0	1	4	4
62	20.1085	0.1161	0	0	2.97117e-035	0	1	4	4
62	20.4742	0.0870743	0	0	2.97117e-035	0	1	4	4
69	20.5613	0.156734	0	0	2.97117e-035	0	1	4	4
62	20.718	0.145124	0	0	2.97117e-035	0	1	4	4
67	21.0895	0.121904	0	0	2.97117e-035	0	1	4	4
71	21.2521	0.0406342	0	0	2.97117e-035	0	1	4	4
74	21.2927	0.0348301	0	0	2.97117e-035	0	1	4	4
71	21.3275	0.145124	0	0	2.97117e-035	0	1	4	4
71	21.4785	0.412153	0	0	2.97117e-035	0	1	4	4
71	22.0067	0.249615	0	0	2.97117e-035	0	1	4	4
71	22.2621	0.0812702	0	0	2.97117e-035	0	1	4	4
62	22.3434	0.359909	0	0	2.97117e-035	0	1	4	4
72	22.7033	0.133514	0	0	2.97117e-035	0	1	4	4
72	22.8833	0.179955	0	0	2.97117e-035	0	1	4	4
72	23.1271	0.168344	0	0	2.97117e-035	0	1	4	4
72	23.3709	0.0638542	0	0	2.97117e-035	0	1	4	4
71	23.4522	0.0754642	0	0	2.97117e-035	0	1	4	4
71	23.7134	0.0986843	0	0	2.97117e-035	0	1	4	4
71	23.9572	0.0696602	0	0	2.97117e-035	0	1	4	4
71	24.0733	0.116098	0	0	2.97117e-035	0	1	4	4
67	24.259	0.0754662	0	0	2.97117e-035	0	1	4	4
71	24.3461	0.0696583	0	0	2.97117e-035	0	1	4	4
74	24.4332	0.0348301	0	0	2.97117e-035	0	1	4	4
67	24.468	0.0406342	0	0	2.97117e-035	0	1	4	4
71	24.5899	0.0290241	0	0	2.97117e-035	0	1	4	4
67	24.619	0.0638561	0	0	2.97117e-035	0	1	4	4
71	24.7176	0.110294	0	0	2.97117e-035	0	1	4	4
71	24.886	0.0638542	0	0	2.97117e-035	0	1	4	4
67	24.9498	0.13932	0	0	2.97117e-035	0	1	4	4
67	25.1298	0.0464401	0	0	2.97117e-035	0	1	4	4
67	25.1762	0.029026	0	0	2.97117e-035	0	1	4	4
69	25.2053	0.0754642	0	0	2.97117e-035	0	1	4	4
71	25.42	0.0696602	0	0	2.97117e-035	0	1	4	4
67	25.4897	0.0522461	0	0	2.97117e-035	0	1	4	4
67	25.6174	0.0754642	0	0	2.97117e-035	0	1	4	4
74	25.7045	0.0464401	0	0	2.97117e-035	0	1	4	4
67	25.8032	0.0696583	0	0	2.97117e-035	0	1	4	4
68	25.8728	0.0870762	0	0	2.97117e-035	0	1	4	4
69	25.9599	0.168344	0	0	2.97117e-035	0	1	4	4
69	26.1283	0.290249	0	0	2.97117e-035	0	1	4	4
69	26.4185	0.0464401	0	0	2.97117e-035	0	1	4	4
67	26.5404	0.029026	0	0	2.97117e-035	0	1	4	4
67	26.5985	0.406349	0	0	2.97117e-035	0	1	4	4
67	27.0861	0.0696602	0	0	2.97117e-035	0	1	4	4
55	26.9061	0.55728	0	0	2.97117e-035	0	1	4	4
54	27.4634	0.0232182	0	0	2.97117e-035	0	1	4	4
55	27.4924	0.10449	0	0	2.97117e-035	0	1	4	4
55	27.6085	0.150928	0	0	2.97117e-035	0	1	4	4
67	27.7595	0.0870762	0	0	2.97117e-035	0	1	4	4
69	28.0613	0.191565	0	0	2.97117e-035	0	1	4	4
69	28.3109	0.371521	0	0	2.97117e-035	0	1	4	4
69	28.6824	0.0232182	0	0	2.97117e-035	0	1	4	4
69	28.7231	0.412153	0	0	2.97117e-035	0	1	4	4
57	28.8798	0.313469	0	0	2.97117e-035	0	1	4	4
57	29.1933	0.0870762	0	0	2.97117e-035	0	1	4	4
59	29.5126	0.272835	0	0	2.97117e-035	0	1	4	4
