midiPitch 	 onsetSec 	 durationSec 	 onsetBeats 	 onsetBarIndex 	 onsetBar 	 durationBeats 	 velocity  	 numerator 	 denominator 
76	0.0464399	0.18576	0	0	2.87725e-035	0	1	4	4
77	0.272834	0.0348299	0	0	2.87725e-035	0	1	4	4
76	0.377324	0.0348299	0	0	2.87725e-035	0	1	4	4
76	0.429569	0.0290249	0	0	2.87725e-035	0	1	4	4
76	0.476009	0.0638549	0	0	2.87725e-035	0	1	4	4
79	0.539864	0.0406349	0	0	2.87725e-035	0	1	4	4
79	0.586304	0.03483	0	0	2.87725e-035	0	1	4	4
79	0.626939	0.029025	0	0	2.87725e-035	0	1	4	4
76	0.702404	0.0406349	0	0	2.87725e-035	0	1	4	4
79	0.830113	0.0232199	0	0	2.87725e-035	0	1	4	4
84	0.899773	0.0232199	0	0	2.87725e-035	0	1	4	4
79	0.952018	0.0290249	0	0	2.87725e-035	0	1	4	4
79	0.992653	0.0290249	0	0	2.87725e-035	0	1	4	4
84	1.35256	0.0232199	0	0	2.87725e-035	0	1	4	4
84	1.60218	0.040635	0	0	2.87725e-035	0	1	4	4
84	1.66603	0.029025	0	0	2.87725e-035	0	1	4	4
84	1.76472	0.0638549	0	0	2.87725e-035	0	1	4	4
84	1.91565	0.040635	0	0	2.87725e-035	0	1	4	4
84	2.00272	0.145125	0	0	2.87725e-035	0	1	4	4
84	2.29297	0.145125	0	0	2.87725e-035	0	1	4	4
84	2.51356	0.0580499	0	0	2.87725e-035	0	1	4	4
84	2.57161	0.1161	0	0	2.87725e-035	0	1	4	4
84	2.88508	0.0406349	0	0	2.87725e-035	0	1	4	4
84	3.11147	0.075465	0	0	2.87725e-035	0	1	4	4
84	3.36109	0.0638549	0	0	2.87725e-035	0	1	4	4
84	3.42494	0.0986848	0	0	2.87725e-035	0	1	4	4
84	3.52363	0.0638549	0	0	2.87725e-035	0	1	4	4
84	3.69197	0.0464399	0	0	2.87725e-035	0	1	4	4
84	3.73841	0.0232201	0	0	2.87725e-035	0	1	4	4
78	4.12735	0.0638547	0	0	2.87725e-035	0	1	4	4
78	4.19701	0.0986848	0	0	2.87725e-035	0	1	4	4
78	4.46404	0.10449	0	0	2.87725e-035	0	1	4	4
78	4.60336	0.0232201	0	0	2.87725e-035	0	1	4	4
72	4.70785	0.17415	0	0	2.87725e-035	0	1	4	4
72	4.92263	0.0406351	0	0	2.87725e-035	0	1	4	4
84	4.98649	0.0406351	0	0	2.87725e-035	0	1	4	4
84	5.13741	0.0928798	0	0	2.87725e-035	0	1	4	4
84	5.43927	0.0290251	0	0	2.87725e-035	0	1	4	4
79	5.4683	0.0348296	0	0	2.87725e-035	0	1	4	4
84	5.56698	0.0348296	0	0	2.87725e-035	0	1	4	4
78	5.86884	0.0406346	0	0	2.87725e-035	0	1	4	4
84	5.94431	0.0522447	0	0	2.87725e-035	0	1	4	4
84	6.24036	0.0696597	0	0	2.87725e-035	0	1	4	4
79	7.13433	0.0406351	0	0	2.87725e-035	0	1	4	4
79	7.23302	0.0406351	0	0	2.87725e-035	0	1	4	4
79	7.39556	0.0406346	0	0	2.87725e-035	0	1	4	4
76	7.63936	0.0348301	0	0	2.87725e-035	0	1	4	4
79	7.67419	0.0232201	0	0	2.87725e-035	0	1	4	4
84	7.72063	0.0290246	0	0	2.87725e-035	0	1	4	4
84	7.74966	0.0580502	0	0	2.87725e-035	0	1	4	4
84	7.97605	0.0290251	0	0	2.87725e-035	0	1	4	4
79	8.00508	0.0638552	0	0	2.87725e-035	0	1	4	4
84	8.08054	0.0522442	0	0	2.87725e-035	0	1	4	4
84	8.1502	0.0638552	0	0	2.87725e-035	0	1	4	4
84	8.28372	0.0348291	0	0	2.87725e-035	0	1	4	4
84	8.41143	0.0696602	0	0	2.87725e-035	0	1	4	4
84	8.50431	0.0406342	0	0	2.87725e-035	0	1	4	4
84	8.54494	0.0464401	0	0	2.87725e-035	0	1	4	4
84	8.78295	0.0812702	0	0	2.87725e-035	0	1	4	4
72	8.85841	0.0348301	0	0	2.87725e-035	0	1	4	4
84	8.89324	0.0812693	0	0	2.87725e-035	0	1	4	4
84	8.97451	0.0580502	0	0	2.87725e-035	0	1	4	4
84	9.13125	0.0580502	0	0	2.87725e-035	0	1	4	4
72	9.15447	0.12771	0	0	2.87725e-035	0	1	4	4
84	9.3054	0.0812693	0	0	2.87725e-035	0	1	4	4
84	9.38667	0.13932	0	0	2.87725e-035	0	1	4	4
84	9.64789	0.0464401	0	0	2.87725e-035	0	1	4	4
84	9.69433	0.0464392	0	0	2.87725e-035	0	1	4	4
84	9.84526	0.0348301	0	0	2.87725e-035	0	1	4	4
84	9.91492	0.0638542	0	0	2.87725e-035	0	1	4	4
84	10.0717	0.110294	0	0	2.87725e-035	0	1	4	4
84	10.1819	0.0522451	0	0	2.87725e-035	0	1	4	4
84	10.2342	0.0638552	0	0	2.87725e-035	0	1	4	4
84	10.478	0.0754652	0	0	2.87725e-035	0	1	4	4
84	10.6522	0.0754652	0	0	2.87725e-035	0	1	4	4
84	10.7624	0.0638552	0	0	2.87725e-035	0	1	4	4
79	10.9424	0.0638542	0	0	2.87725e-035	0	1	4	4
84	11.0063	0.0406351	0	0	2.87725e-035	0	1	4	4
84	11.0991	0.0870743	0	0	2.87725e-035	0	1	4	4
84	11.3371	0.0870743	0	0	2.87725e-035	0	1	4	4
80	11.5635	0.0232191	0	0	2.87725e-035	0	1	4	4
81	11.5926	0.0928802	0	0	2.87725e-035	0	1	4	4
81	11.7493	0.0232201	0	0	2.87725e-035	0	1	4	4
81	11.7783	0.0464392	0	0	2.87725e-035	0	1	4	4
81	11.8248	0.0348301	0	0	2.87725e-035	0	1	4	4
84	11.8654	0.0406351	0	0	2.87725e-035	0	1	4	4
81	11.9234	0.0464401	0	0	2.87725e-035	0	1	4	4
81	12.057	0.0232201	0	0	2.87725e-035	0	1	4	4
81	12.086	0.0754652	0	0	2.87725e-035	0	1	4	4
81	12.1963	0.0406351	0	0	2.87725e-035	0	1	4	4
81	12.2659	0.0580502	0	0	2.87725e-035	0	1	4	4
81	12.324	0.0348301	0	0	2.87725e-035	0	1	4	4
81	12.3646	0.0348301	0	0	2.87725e-035	0	1	4	4
81	12.4111	0.0232201	0	0	2.87725e-035	0	1	4	4
81	12.4401	0.0348301	0	0	2.87725e-035	0	1	4	4
81	12.4807	0.0696602	0	0	2.87725e-035	0	1	4	4
81	12.5504	0.0580492	0	0	2.87725e-035	0	1	4	4
81	12.6084	0.0406351	0	0	2.87725e-035	0	1	4	4
81	12.6781	0.0580502	0	0	2.87725e-035	0	1	4	4
81	12.7361	0.0290251	0	0	2.87725e-035	0	1	4	4
81	12.8232	0.203175	0	0	2.87725e-035	0	1	4	4
81	13.0264	0.145125	0	0	2.87725e-035	0	1	4	4
81	13.1715	0.0290251	0	0	2.87725e-035	0	1	4	4
81	13.2063	0.0870743	0	0	2.87725e-035	0	1	4	4
81	13.2934	0.162539	0	0	2.87725e-035	0	1	4	4
81	13.456	0.0406351	0	0	2.87725e-035	0	1	4	4
81	13.4966	0.0696602	0	0	2.87725e-035	0	1	4	4
81	13.5663	0.0986843	0	0	2.87725e-035	0	1	4	4
81	13.694	0.0522451	0	0	2.87725e-035	0	1	4	4
81	13.7462	0.0232201	0	0	2.87725e-035	0	1	4	4
82	13.7985	0.0812693	0	0	2.87725e-035	0	1	4	4
81	13.8797	0.0348301	0	0	2.87725e-035	0	1	4	4
81	13.9494	0.0290251	0	0	2.87725e-035	0	1	4	4
82	13.9842	0.0696592	0	0	2.87725e-035	0	1	4	4
81	14.0539	0.0638552	0	0	2.87725e-035	0	1	4	4
81	14.1177	0.156734	0	0	2.87725e-035	0	1	4	4
81	14.3093	0.0580502	0	0	2.87725e-035	0	1	4	4
81	14.3732	0.145124	0	0	2.87725e-035	0	1	4	4
81	14.5183	0.0522451	0	0	2.87725e-035	0	1	4	4
81	14.5705	0.0290251	0	0	2.87725e-035	0	1	4	4
81	14.6054	0.0580492	0	0	2.87725e-035	0	1	4	4
81	14.8492	0.0522442	0	0	2.87725e-035	0	1	4	4
81	15.0117	0.127709	0	0	2.87725e-035	0	1	4	4
81	15.4122	0.0290251	0	0	2.87725e-035	0	1	4	4
79	15.4471	0.0464392	0	0	2.87725e-035	0	1	4	4
79	15.4935	0.0290251	0	0	2.87725e-035	0	1	4	4
79	15.54	0.0406351	0	0	2.87725e-035	0	1	4	4
81	15.6038	0.0464401	0	0	2.87725e-035	0	1	4	4
80	15.7025	0.0812702	0	0	2.87725e-035	0	1	4	4
79	15.8186	0.0464401	0	0	2.87725e-035	0	1	4	4
79	15.9463	0.0696592	0	0	2.87725e-035	0	1	4	4
79	16.0392	0.0928802	0	0	2.87725e-035	0	1	4	4
79	16.1611	0.0406342	0	0	2.87725e-035	0	1	4	4
79	16.2017	0.12771	0	0	2.87725e-035	0	1	4	4
80	16.3294	0.0464401	0	0	2.87725e-035	0	1	4	4
79	16.3759	0.0812683	0	0	2.87725e-035	0	1	4	4
79	16.4571	0.0232201	0	0	2.87725e-035	0	1	4	4
79	16.5152	0.0348301	0	0	2.87725e-035	0	1	4	4
79	16.55	0.17415	0	0	2.87725e-035	0	1	4	4
79	16.7416	0.0638561	0	0	2.87725e-035	0	1	4	4
79	16.8054	0.104488	0	0	2.87725e-035	0	1	4	4
79	16.9448	0.0754642	0	0	2.87725e-035	0	1	4	4
79	17.0376	0.0406342	0	0	2.87725e-035	0	1	4	4
80	17.0783	0.0986862	0	0	2.87725e-035	0	1	4	4
80	17.177	0.0232201	0	0	2.87725e-035	0	1	4	4
79	17.2118	0.0348282	0	0	2.87725e-035	0	1	4	4
79	17.2989	0.0522442	0	0	2.87725e-035	0	1	4	4
79	17.3627	0.0232201	0	0	2.87725e-035	0	1	4	4
79	17.3917	0.0290241	0	0	2.87725e-035	0	1	4	4
79	17.5369	0.0638542	0	0	2.87725e-035	0	1	4	4
79	17.6007	0.0290241	0	0	2.87725e-035	0	1	4	4
79	17.6356	0.0928802	0	0	2.87725e-035	0	1	4	4
79	17.7517	0.0406342	0	0	2.87725e-035	0	1	4	4
79	17.8271	0.0696602	0	0	2.87725e-035	0	1	4	4
79	17.8968	0.110294	0	0	2.87725e-035	0	1	4	4
79	18.0071	0.0406342	0	0	2.87725e-035	0	1	4	4
79	18.0941	0.0638561	0	0	2.87725e-035	0	1	4	4
79	18.1812	0.0232201	0	0	2.87725e-035	0	1	4	4
76	18.2044	0.104488	0	0	2.87725e-035	0	1	4	4
79	18.4308	0.0696583	0	0	2.87725e-035	0	1	4	4
76	18.5469	0.0754662	0	0	2.87725e-035	0	1	4	4
76	18.6921	0.121906	0	0	2.87725e-035	0	1	4	4
76	18.8662	0.203175	0	0	2.87725e-035	0	1	4	4
77	19.0926	0.0406342	0	0	2.87725e-035	0	1	4	4
76	19.1332	0.0348301	0	0	2.87725e-035	0	1	4	4
76	19.1855	0.0406342	0	0	2.87725e-035	0	1	4	4
76	19.2319	0.0290241	0	0	2.87725e-035	0	1	4	4
76	19.3016	0.0406361	0	0	2.87725e-035	0	1	4	4
76	19.348	0.0406361	0	0	2.87725e-035	0	1	4	4
76	19.4003	0.0754642	0	0	2.87725e-035	0	1	4	4
76	19.499	0.0812702	0	0	2.87725e-035	0	1	4	4
76	19.6151	0.0754642	0	0	2.87725e-035	0	1	4	4
76	19.7021	0.0870743	0	0	2.87725e-035	0	1	4	4
76	19.8415	0.0290241	0	0	2.87725e-035	0	1	4	4
76	19.8705	0.0348301	0	0	2.87725e-035	0	1	4	4
76	19.9169	0.121904	0	0	2.87725e-035	0	1	4	4
76	20.0388	0.1161	0	0	2.87725e-035	0	1	4	4
76	20.1549	0.0348301	0	0	2.87725e-035	0	1	4	4
76	20.1956	0.0522461	0	0	2.87725e-035	0	1	4	4
76	20.2478	0.0812683	0	0	2.87725e-035	0	1	4	4
76	20.3465	0.296055	0	0	2.87725e-035	0	1	4	4
76	20.6425	0.0754642	0	0	2.87725e-035	0	1	4	4
76	20.718	0.0696602	0	0	2.87725e-035	0	1	4	4
76	20.7877	0.0870743	0	0	2.87725e-035	0	1	4	4
76	20.9386	0.1161	0	0	2.87725e-035	0	1	4	4
76	21.0547	0.0232201	0	0	2.87725e-035	0	1	4	4
76	21.0837	0.127708	0	0	2.87725e-035	0	1	4	4
76	21.2114	0.12771	0	0	2.87725e-035	0	1	4	4
76	21.3449	0.208981	0	0	2.87725e-035	0	1	4	4
76	21.5539	0.0870743	0	0	2.87725e-035	0	1	4	4
76	21.699	0.15093	0	0	2.87725e-035	0	1	4	4
76	21.8732	0.0696583	0	0	2.87725e-035	0	1	4	4
76	21.9661	0.0754662	0	0	2.87725e-035	0	1	4	4
76	22.1693	0.15093	0	0	2.87725e-035	0	1	4	4
76	22.3202	0.0696602	0	0	2.87725e-035	0	1	4	4
72	22.3898	0.162539	0	0	2.87725e-035	0	1	4	4
72	23.069	0.0870743	0	0	2.87725e-035	0	1	4	4
84	23.1619	0.0522442	0	0	2.87725e-035	0	1	4	4
72	23.2141	0.0870743	0	0	2.87725e-035	0	1	4	4
72	23.3419	0.0464382	0	0	2.87725e-035	0	1	4	4
84	23.3883	0.0638561	0	0	2.87725e-035	0	1	4	4
84	23.5741	0.0812702	0	0	2.87725e-035	0	1	4	4
84	23.6553	0.139318	0	0	2.87725e-035	0	1	4	4
84	23.8991	0.0754662	0	0	2.87725e-035	0	1	4	4
84	23.9746	0.0580482	0	0	2.87725e-035	0	1	4	4
72	24.0152	0.220589	0	0	2.87725e-035	0	1	4	4
60	24.1894	0.121906	0	0	2.87725e-035	0	1	4	4
60	25.0601	0.0754662	0	0	2.87725e-035	0	1	4	4
60	25.5013	0.13932	0	0	2.87725e-035	0	1	4	4
60	25.6406	0.168344	0	0	2.87725e-035	0	1	4	4
60	25.9135	0.162539	0	0	2.87725e-035	0	1	4	4
60	26.1979	0.121904	0	0	2.87725e-035	0	1	4	4
60	26.3198	0.10449	0	0	2.87725e-035	0	1	4	4
60	26.4359	0.116098	0	0	2.87725e-035	0	1	4	4
60	26.6507	0.1161	0	0	2.87725e-035	0	1	4	4
60	26.7668	0.0406361	0	0	2.87725e-035	0	1	4	4
60	27.1209	0.12771	0	0	2.87725e-035	0	1	4	4
60	27.3473	0.139318	0	0	2.87725e-035	0	1	4	4
60	27.504	0.185759	0	0	2.87725e-035	0	1	4	4
60	27.7188	0.0290241	0	0	2.87725e-035	0	1	4	4
60	27.9336	0.0754642	0	0	2.87725e-035	0	1	4	4
60	28.1078	0.0696602	0	0	2.87725e-035	0	1	4	4
60	28.1774	0.10449	0	0	2.87725e-035	0	1	4	4
60	28.3632	0.10449	0	0	2.87725e-035	0	1	4	4
60	28.5315	0.0638542	0	0	2.87725e-035	0	1	4	4
60	28.9321	0.0348301	0	0	2.87725e-035	0	1	4	4
60	29.0482	0.0232201	0	0	2.87725e-035	0	1	4	4
60	29.2165	0.267031	0	0	2.87725e-035	0	1	4	4
60	29.4835	0.0348282	0	0	2.87725e-035	0	1	4	4
60	29.5242	0.0812702	0	0	2.87725e-035	0	1	4	4
60	29.6054	0.0406342	0	0	2.87725e-035	0	1	4	4
