midiPitch 	 onsetSec 	 durationSec 	 onsetBeats 	 onsetBarIndex 	 onsetBar 	 durationBeats 	 velocity  	 numerator 	 denominator 
55	0.0406349	0.417959	0	0	0	0	1	4	4
55	0.458594	0.2322	0	0	0	0	1	4	4
55	0.841723	0.0812699	0	0	0	0	1	4	4
55	0.922993	0.029025	0	0	0	0	1	4	4
55	0.957823	0.435374	0	0	0	0	1	4	4
55	0.957823	0.441179	0	0	0	0	1	4	4
60	1.38739	0.0116099	0	0	0	0	1	4	4
55	0.957823	0.446984	0	0	0	0	1	4	4
60	1.38739	0.0812699	0	0	0	0	1	4	4
55	1.54413	0.255419	0	0	0	0	1	4	4
48	1.90984	0.348299	0	0	0	0	1	4	4
55	2.25814	0.0522449	0	0	0	0	1	4	4
55	2.49034	0.13932	0	0	0	0	1	4	4
55	2.62966	0.423764	0	0	0	0	1	4	4
60	3.1463	1.03909	0	0	0	0	1	4	4
60	4.4234	0.272834	0	0	0	0	1	4	4
55	5.71791	0.16254	0	0	0	0	1	4	4
55	5.89787	0.156735	0	0	0	0	1	4	4
55	6.13587	0.679184	0	0	0	0	1	4	4
55	6.81506	0.0638547	0	0	0	0	1	4	4
60	6.92535	0.0986848	0	0	0	0	1	4	4
52	7.08789	0.238005	0	0	0	0	1	4	4
53	7.3259	0.301859	0	0	0	0	1	4	4
48	8.3766	0.406349	0	0	0	0	1	4	4
51	8.86422	0.104489	0	0	0	0	1	4	4
51	9.00354	0.214785	0	0	0	0	1	4	4
52	9.21832	0.116099	0	0	0	0	1	4	4
52	9.33442	0.12771	0	0	0	0	1	4	4
52	9.46213	0.0290251	0	0	0	0	1	4	4
52	9.50857	0.365714	0	0	0	0	1	4	4
52	9.92073	0.307664	0	0	0	0	1	4	4
50	10.3619	0.0696602	0	0	0	0	1	4	4
52	10.4316	0.545669	0	0	0	0	1	4	4
50	10.9772	0.25542	0	0	0	0	1	4	4
50	11.2327	0.0348301	0	0	0	0	1	4	4
48	11.4068	0.319275	0	0	0	0	1	4	4
60	12.2369	0.191565	0	0	0	0	1	4	4
55	13.723	0.359909	0	0	0	0	1	4	4
43	14.4544	0.168345	0	0	0	0	1	4	4
59	14.6228	0.121904	0	0	0	0	1	4	4
60	14.7737	0.191565	0	0	0	0	1	4	4
60	14.9653	0.162539	0	0	0	0	1	4	4
60	15.1859	0.121904	0	0	0	0	1	4	4
60	15.4355	0.0986843	0	0	0	0	1	4	4
60	15.6096	0.0812693	0	0	0	0	1	4	4
53	15.6851	0.22059	0	0	0	0	1	4	4
52	16.0044	0.261225	0	0	0	0	1	4	4
53	16.3468	0.0754642	0	0	0	0	1	4	4
53	16.4804	0.133514	0	0	0	0	1	4	4
52	16.6777	0.0812702	0	0	0	0	1	4	4
50	16.759	0.673378	0	0	0	0	1	4	4
50	17.4324	0.435373	0	0	0	0	1	4	4
50	17.8678	0.133516	0	0	0	0	1	4	4
55	18.2161	0.284443	0	0	0	0	1	4	4
50	19.2087	0.423763	0	0	0	0	1	4	4
55	20.6251	0.470205	0	0	0	0	1	4	4
55	21.1127	0.412153	0	0	0	0	1	4	4
55	21.6004	0.365713	0	0	0	0	1	4	4
50	22.2041	0.371519	0	0	0	0	1	4	4
50	22.6627	0.0928783	0	0	0	0	1	4	4
50	22.8833	0.12771	0	0	0	0	1	4	4
48	23.011	0.203175	0	0	0	0	1	4	4
47	23.2141	0.261225	0	0	0	0	1	4	4
45	24.021	0.0754662	0	0	0	0	1	4	4
60	25.5013	0.296055	0	0	0	0	1	4	4
60	25.7974	0.0522442	0	0	0	0	1	4	4
60	25.8496	0.12771	0	0	0	0	1	4	4
64	26.5404	0.179955	0	0	0	0	1	4	4
61	26.8132	0.214785	0	0	0	0	1	4	4
61	27.1325	0.0522442	0	0	0	0	1	4	4
52	27.1848	0.452789	0	0	0	0	1	4	4
57	27.6666	0.452787	0	0	0	0	1	4	4
55	28.2413	0.232199	0	0	0	0	1	4	4
55	28.4735	0.383129	0	0	0	0	1	4	4
53	28.8566	0.435375	0	0	0	0	1	4	4
53	29.292	0.458593	0	0	0	0	1	4	4
