midiPitch 	 onsetSec 	 durationSec 	 onsetBeats 	 onsetBarIndex 	 onsetBar 	 durationBeats 	 velocity  	 numerator 	 denominator 
67	0.0464399	0.0754649	0	0	2.39775e-035	0	1	4	4
68	0.121905	0.238005	0	0	2.39775e-035	0	1	4	4
68	0.359909	0.359909	0	0	2.39775e-035	0	1	4	4
68	0.754649	0.0754648	0	0	2.39775e-035	0	1	4	4
64	1.19002	0.0696598	0	0	2.39775e-035	0	1	4	4
66	1.32354	0.307664	0	0	2.39775e-035	0	1	4	4
66	1.6312	0.0232199	0	0	2.39775e-035	0	1	4	4
66	1.65442	0.0232201	0	0	2.39775e-035	0	1	4	4
66	1.91565	0.110295	0	0	2.39775e-035	0	1	4	4
68	2.02594	0.18576	0	0	2.39775e-035	0	1	4	4
68	2.2117	0.0232198	0	0	2.39775e-035	0	1	4	4
68	2.24073	0.12771	0	0	2.39775e-035	0	1	4	4
68	3.90095	0.0870748	0	0	2.39775e-035	0	1	4	4
68	4.00544	0.203175	0	0	2.39775e-035	0	1	4	4
66	4.20862	0.0580497	0	0	2.39775e-035	0	1	4	4
68	4.3015	0.0348301	0	0	2.39775e-035	0	1	4	4
69	4.35955	0.0638552	0	0	2.39775e-035	0	1	4	4
68	4.45243	0.0290246	0	0	2.39775e-035	0	1	4	4
68	4.48726	0.0580502	0	0	2.39775e-035	0	1	4	4
69	4.54531	0.0406346	0	0	2.39775e-035	0	1	4	4
71	4.60336	0.319274	0	0	2.39775e-035	0	1	4	4
71	4.92263	0.278639	0	0	2.39775e-035	0	1	4	4
69	6.10104	0.272835	0	0	2.39775e-035	0	1	4	4
69	6.40871	0.26703	0	0	2.39775e-035	0	1	4	4
66	6.8673	0.15093	0	0	2.39775e-035	0	1	4	4
66	7.02404	0.464399	0	0	2.39775e-035	0	1	4	4
76	8.8468	0.116099	0	0	2.39775e-035	0	1	4	4
75	8.98032	0.1161	0	0	2.39775e-035	0	1	4	4
73	9.09642	0.243809	0	0	2.39775e-035	0	1	4	4
68	9.58404	0.121905	0	0	2.39775e-035	0	1	4	4
76	9.71755	0.127709	0	0	2.39775e-035	0	1	4	4
75	9.85687	0.133514	0	0	2.39775e-035	0	1	4	4
73	10.0194	0.139319	0	0	2.39775e-035	0	1	4	4
68	10.4606	0.162539	0	0	2.39775e-035	0	1	4	4
75	10.6231	0.12771	0	0	2.39775e-035	0	1	4	4
73	10.7624	0.179955	0	0	2.39775e-035	0	1	4	4
76	11.221	0.12771	0	0	2.39775e-035	0	1	4	4
75	11.5055	0.150929	0	0	2.39775e-035	0	1	4	4
63	12.5272	0.22059	0	0	2.39775e-035	0	1	4	4
73	13.4502	0.18576	0	0	2.39775e-035	0	1	4	4
68	13.8507	0.0870752	0	0	2.39775e-035	0	1	4	4
69	13.9494	0.0522451	0	0	2.39775e-035	0	1	4	4
71	14.0249	0.0928793	0	0	2.39775e-035	0	1	4	4
73	14.1293	0.0928802	0	0	2.39775e-035	0	1	4	4
73	14.1293	0.0986853	0	0	2.39775e-035	0	1	4	4
71	14.2164	0.0580492	0	0	2.39775e-035	0	1	4	4
73	14.2919	0.0406351	0	0	2.39775e-035	0	1	4	4
75	14.3499	0.0348301	0	0	2.39775e-035	0	1	4	4
76	14.4138	0.133514	0	0	2.39775e-035	0	1	4	4
75	14.5473	0.127709	0	0	2.39775e-035	0	1	4	4
73	14.9653	0.162539	0	0	2.39775e-035	0	1	4	4
70	15.2207	0.145124	0	0	2.39775e-035	0	1	4	4
71	15.3948	0.27864	0	0	2.39775e-035	0	1	4	4
71	15.7083	0.25542	0	0	2.39775e-035	0	1	4	4
69	15.9869	0.278639	0	0	2.39775e-035	0	1	4	4
68	16.3004	0.145124	0	0	2.39775e-035	0	1	4	4
66	16.4455	0.13932	0	0	2.39775e-035	0	1	4	4
66	16.5849	0.487619	0	0	2.39775e-035	0	1	4	4
66	17.0725	0.0290241	0	0	2.39775e-035	0	1	4	4
66	17.1828	0.133514	0	0	2.39775e-035	0	1	4	4
66	17.3163	0.0232201	0	0	2.39775e-035	0	1	4	4
68	17.7865	0.505033	0	0	2.39775e-035	0	1	4	4
68	18.3089	0.232201	0	0	2.39775e-035	0	1	4	4
57	19.3364	0.278641	0	0	2.39775e-035	0	1	4	4
57	19.6151	0.0348301	0	0	2.39775e-035	0	1	4	4
56	19.766	0.214785	0	0	2.39775e-035	0	1	4	4
56	19.9808	0.029026	0	0	2.39775e-035	0	1	4	4
56	20.0098	0.0232201	0	0	2.39775e-035	0	1	4	4
64	20.2594	0.388933	0	0	2.39775e-035	0	1	4	4
52	22.1925	0.133516	0	0	2.39775e-035	0	1	4	4
57	22.355	0.0812702	0	0	2.39775e-035	0	1	4	4
52	22.4653	0.179955	0	0	2.39775e-035	0	1	4	4
57	22.9761	0.12771	0	0	2.39775e-035	0	1	4	4
63	23.4231	0.12771	0	0	2.39775e-035	0	1	4	4
64	23.6263	0.029026	0	0	2.39775e-035	0	1	4	4
64	23.6611	0.0812702	0	0	2.39775e-035	0	1	4	4
63	23.963	0.232199	0	0	2.39775e-035	0	1	4	4
63	24.1952	0.15093	0	0	2.39775e-035	0	1	4	4
63	24.41	0.121904	0	0	2.39775e-035	0	1	4	4
63	24.5319	0.0812702	0	0	2.39775e-035	0	1	4	4
61	24.7234	0.0812702	0	0	2.39775e-035	0	1	4	4
61	24.8047	0.0406342	0	0	2.39775e-035	0	1	4	4
61	24.915	0.0870762	0	0	2.39775e-035	0	1	4	4
63	25.0021	0.179955	0	0	2.39775e-035	0	1	4	4
63	25.182	0.0232201	0	0	2.39775e-035	0	1	4	4
61	25.2053	0.104488	0	0	2.39775e-035	0	1	4	4
63	25.3214	0.110294	0	0	2.39775e-035	0	1	4	4
63	25.5884	0.0406342	0	0	2.39775e-035	0	1	4	4
61	25.9657	0.0928802	0	0	2.39775e-035	0	1	4	4
61	26.1747	0.0812683	0	0	2.39775e-035	0	1	4	4
59	26.4011	0.0406342	0	0	2.39775e-035	0	1	4	4
59	26.8016	0.296055	0	0	2.39775e-035	0	1	4	4
61	27.1035	0.12771	0	0	2.39775e-035	0	1	4	4
61	27.2312	0.029026	0	0	2.39775e-035	0	1	4	4
61	27.3009	0.110294	0	0	2.39775e-035	0	1	4	4
63	27.7188	0.243809	0	0	2.39775e-035	0	1	4	4
64	28.1716	0.156734	0	0	2.39775e-035	0	1	4	4
66	28.4212	0.0696602	0	0	2.39775e-035	0	1	4	4
