midiPitch 	 onsetSec 	 durationSec 	 onsetBeats 	 onsetBarIndex 	 onsetBar 	 durationBeats 	 velocity  	 numerator 	 denominator 
67	0.632744	0.0232199	0	0	2.42591e-035	0	1	4	4
73	0.969433	0.02322	0	0	2.42591e-035	0	1	4	4
71	1.03909	0.0232201	0	0	2.42591e-035	0	1	4	4
73	1.12036	0.0232199	0	0	2.42591e-035	0	1	4	4
70	1.27129	0.03483	0	0	2.42591e-035	0	1	4	4
68	1.31193	0.133515	0	0	2.42591e-035	0	1	4	4
70	1.6312	0.0870749	0	0	2.42591e-035	0	1	4	4
69	1.71828	0.029025	0	0	2.42591e-035	0	1	4	4
68	1.7473	0.0406349	0	0	2.42591e-035	0	1	4	4
69	1.94467	0.307664	0	0	2.42591e-035	0	1	4	4
69	3.91837	0.0348299	0	0	2.42591e-035	0	1	4	4
69	3.959	0.12771	0	0	2.42591e-035	0	1	4	4
66	4.08671	0.0464401	0	0	2.42591e-035	0	1	4	4
69	4.40599	0.0464401	0	0	2.42591e-035	0	1	4	4
69	4.59755	0.156735	0	0	2.42591e-035	0	1	4	4
70	4.77751	0.0580502	0	0	2.42591e-035	0	1	4	4
69	4.87619	0.0406351	0	0	2.42591e-035	0	1	4	4
69	4.91683	0.0696597	0	0	2.42591e-035	0	1	4	4
70	6.54222	0.0290251	0	0	2.42591e-035	0	1	4	4
69	6.57705	0.1161	0	0	2.42591e-035	0	1	4	4
69	7.22141	0.0812697	0	0	2.42591e-035	0	1	4	4
69	7.30268	0.0406346	0	0	2.42591e-035	0	1	4	4
70	7.36073	0.0348301	0	0	2.42591e-035	0	1	4	4
70	7.40136	0.0696597	0	0	2.42591e-035	0	1	4	4
70	7.47102	0.0812697	0	0	2.42591e-035	0	1	4	4
70	9.12544	0.179955	0	0	2.42591e-035	0	1	4	4
69	9.78721	0.0290251	0	0	2.42591e-035	0	1	4	4
70	9.86268	0.127709	0	0	2.42591e-035	0	1	4	4
69	10.0194	0.0638552	0	0	2.42591e-035	0	1	4	4
70	10.4954	0.301859	0	0	2.42591e-035	0	1	4	4
70	10.8205	0.13932	0	0	2.42591e-035	0	1	4	4
69	10.9888	0.110295	0	0	2.42591e-035	0	1	4	4
68	11.1456	0.0580492	0	0	2.42591e-035	0	1	4	4
68	11.2559	0.0290251	0	0	2.42591e-035	0	1	4	4
68	11.7667	0.0348291	0	0	2.42591e-035	0	1	4	4
63	13.2238	0.0928802	0	0	2.42591e-035	0	1	4	4
67	14.7737	0.0290251	0	0	2.42591e-035	0	1	4	4
70	15.2613	0.0232191	0	0	2.42591e-035	0	1	4	4
69	15.6328	0.0406351	0	0	2.42591e-035	0	1	4	4
68	15.7141	0.0232201	0	0	2.42591e-035	0	1	4	4
68	15.8012	0.0696602	0	0	2.42591e-035	0	1	4	4
69	15.9057	0.156734	0	0	2.42591e-035	0	1	4	4
69	16.2598	0.0290241	0	0	2.42591e-035	0	1	4	4
68	16.3004	0.0232201	0	0	2.42591e-035	0	1	4	4
68	16.3643	0.0464382	0	0	2.42591e-035	0	1	4	4
68	16.4107	0.029026	0	0	2.42591e-035	0	1	4	4
68	16.492	0.0348301	0	0	2.42591e-035	0	1	4	4
67	16.5268	0.0348301	0	0	2.42591e-035	0	1	4	4
67	16.6371	0.0232201	0	0	2.42591e-035	0	1	4	4
67	17.0783	0.0870762	0	0	2.42591e-035	0	1	4	4
64	18.7385	0.0232201	0	0	2.42591e-035	0	1	4	4
65	19.7021	0.0870743	0	0	2.42591e-035	0	1	4	4
68	20.1085	0.0232201	0	0	2.42591e-035	0	1	4	4
63	21.1418	0.0232201	0	0	2.42591e-035	0	1	4	4
67	21.4727	0.0348301	0	0	2.42591e-035	0	1	4	4
67	21.6352	0.0232201	0	0	2.42591e-035	0	1	4	4
63	21.7223	0.0754642	0	0	2.42591e-035	0	1	4	4
63	22.0532	0.0232201	0	0	2.42591e-035	0	1	4	4
65	22.1402	0.0290241	0	0	2.42591e-035	0	1	4	4
63	22.3724	0.0348301	0	0	2.42591e-035	0	1	4	4
62	22.6917	0.029026	0	0	2.42591e-035	0	1	4	4
63	22.9819	0.0928802	0	0	2.42591e-035	0	1	4	4
64	23.4522	0.0232201	0	0	2.42591e-035	0	1	4	4
67	23.6785	0.0348301	0	0	2.42591e-035	0	1	4	4
63	23.7888	0.0928802	0	0	2.42591e-035	0	1	4	4
63	23.9224	0.029026	0	0	2.42591e-035	0	1	4	4
62	23.9746	0.0232182	0	0	2.42591e-035	0	1	4	4
62	24.1546	0.0290241	0	0	2.42591e-035	0	1	4	4
62	24.1894	0.0232201	0	0	2.42591e-035	0	1	4	4
63	24.5319	0.029026	0	0	2.42591e-035	0	1	4	4
63	24.857	0.0232201	0	0	2.42591e-035	0	1	4	4
62	25.0079	0.0290241	0	0	2.42591e-035	0	1	4	4
65	25.5826	0.0232201	0	0	2.42591e-035	0	1	4	4
62	26.6217	0.0232201	0	0	2.42591e-035	0	1	4	4
63	26.9468	0.0348301	0	0	2.42591e-035	0	1	4	4
61	27.1093	0.0348301	0	0	2.42591e-035	0	1	4	4
62	27.3995	0.0406361	0	0	2.42591e-035	0	1	4	4
62	27.6085	0.0406342	0	0	2.42591e-035	0	1	4	4
63	28.1078	0.0406361	0	0	2.42591e-035	0	1	4	4
