midiPitch 	 onsetSec 	 durationSec 	 onsetBeats 	 onsetBarIndex 	 onsetBar 	 durationBeats 	 velocity  	 numerator 	 denominator 
62	0.441179	0.0406349	0	0	0	0	1	4	4
57	0.481814	0.0290249	0	0	0	0	1	4	4
56	0.522449	0.0232199	0	0	0	0	1	4	4
57	0.568889	0.0406349	0	0	0	0	1	4	4
57	0.621134	0.0696598	0	0	0	0	1	4	4
57	0.708209	0.0290249	0	0	0	0	1	4	4
57	0.847528	0.0348299	0	0	0	0	1	4	4
57	0.888163	0.110295	0	0	0	0	1	4	4
55	1.02168	0.10449	0	0	0	0	1	4	4
64	1.32354	0.040635	0	0	0	0	1	4	4
64	1.399	0.17415	0	0	0	0	1	4	4
63	1.69506	0.13932	0	0	0	0	1	4	4
61	1.83438	0.040635	0	0	0	0	1	4	4
62	1.88662	0.22059	0	0	0	0	1	4	4
57	2.43229	0.13932	0	0	0	0	1	4	4
60	2.57741	0.0290248	0	0	0	0	1	4	4
57	2.60644	0.0696599	0	0	0	0	1	4	4
57	2.70512	0.0928798	0	0	0	0	1	4	4
56	2.91991	0.133515	0	0	0	0	1	4	4
54	3.21016	0.0348301	0	0	0	0	1	4	4
54	3.25079	0.13932	0	0	0	0	1	4	4
58	3.39011	0.0348299	0	0	0	0	1	4	4
58	3.43075	0.0290248	0	0	0	0	1	4	4
58	3.46558	0.0290251	0	0	0	0	1	4	4
58	3.50041	0.0290248	0	0	0	0	1	4	4
58	3.53524	0.0348299	0	0	0	0	1	4	4
54	3.76744	0.0580499	0	0	0	0	1	4	4
54	3.8429	0.10449	0	0	0	0	1	4	4
57	4.08091	0.18576	0	0	0	0	1	4	4
57	4.59755	0.0638552	0	0	0	0	1	4	4
57	4.77751	0.1161	0	0	0	0	1	4	4
57	4.91102	0.0696597	0	0	0	0	1	4	4
57	5.00971	0.0406351	0	0	0	0	1	4	4
57	5.05615	0.0406346	0	0	0	0	1	4	4
57	5.10839	0.0290251	0	0	0	0	1	4	4
57	5.28254	0.19737	0	0	0	0	1	4	4
55	5.47991	0.162539	0	0	0	0	1	4	4
59	5.78757	0.150929	0	0	0	0	1	4	4
64	5.96172	0.18576	0	0	0	0	1	4	4
57	6.1649	0.0406346	0	0	0	0	1	4	4
59	6.50739	0.232199	0	0	0	0	1	4	4
61	6.81506	0.0290246	0	0	0	0	1	4	4
57	6.8673	0.0928798	0	0	0	0	1	4	4
60	7.0937	0.0696597	0	0	0	0	1	4	4
57	7.19819	0.139319	0	0	0	0	1	4	4
57	7.49424	0.133515	0	0	0	0	1	4	4
55	7.74385	0.121905	0	0	0	0	1	4	4
57	8.0283	0.0986843	0	0	0	0	1	4	4
58	8.37079	0.0348301	0	0	0	0	1	4	4
59	8.42884	0.145124	0	0	0	0	1	4	4
53	8.7307	0.24381	0	0	0	0	1	4	4
57	9.23574	0.0232201	0	0	0	0	1	4	4
59	9.25896	0.168344	0	0	0	0	1	4	4
58	9.70014	0.150929	0	0	0	0	1	4	4
63	9.93814	0.168344	0	0	0	0	1	4	4
58	10.298	0.0464401	0	0	0	0	1	4	4
62	10.4258	0.336689	0	0	0	0	1	4	4
57	10.8089	0.0928802	0	0	0	0	1	4	4
54	11.0005	0.0232201	0	0	0	0	1	4	4
55	11.0469	0.0232201	0	0	0	0	1	4	4
57	11.0759	0.458594	0	0	0	0	1	4	4
52	11.5403	0.17415	0	0	0	0	1	4	4
57	11.7145	0.179955	0	0	0	0	1	4	4
56	12.0221	0.406349	0	0	0	0	1	4	4
56	12.4285	0.18576	0	0	0	0	1	4	4
51	12.7187	0.127709	0	0	0	0	1	4	4
51	12.8464	0.168345	0	0	0	0	1	4	4
50	13.0148	0.232199	0	0	0	0	1	4	4
48	13.247	0.133515	0	0	0	0	1	4	4
50	13.3805	0.568889	0	0	0	0	1	4	4
57	14.1119	0.0696602	0	0	0	0	1	4	4
83615904	14.2338	0.203175	0	0	0	0	1	4	4
62	14.4602	0.133515	0	0	0	0	1	4	4
62	14.5937	0.150929	0	0	0	0	1	4	4
63	14.7447	0.354104	0	0	0	0	1	4	4
64	15.0988	0.27864	0	0	0	0	1	4	4
65	15.5109	0.20898	0	0	0	0	1	4	4
64	15.8941	0.54567	0	0	0	0	1	4	4
65	16.4397	0.13932	0	0	0	0	1	4	4
71	16.939	0.226395	0	0	0	0	1	4	4
69	17.3279	0.458595	0	0	0	0	1	4	4
65	17.8155	0.0580502	0	0	0	0	1	4	4
64	17.9897	0.278639	0	0	0	0	1	4	4
67	18.4947	0.499229	0	0	0	0	1	4	4
65	19.139	0.168344	0	0	0	0	1	4	4
68	19.3887	0.0696602	0	0	0	0	1	4	4
63	19.499	0.232199	0	0	0	0	1	4	4
62	20.004	0.325079	0	0	0	0	1	4	4
54	20.4974	0.203175	0	0	0	0	1	4	4
53	20.7006	0.0232182	0	0	0	0	1	4	4
57	20.7644	0.0986843	0	0	0	0	1	4	4
57	20.8631	0.179955	0	0	0	0	1	4	4
56	21.641	0.029026	0	0	0	0	1	4	4
57	21.7281	0.168346	0	0	0	0	1	4	4
58	22.2215	0.121904	0	0	0	0	1	4	4
57	22.6336	0.0870762	0	0	0	0	1	4	4
57	22.7207	0.0290241	0	0	0	0	1	4	4
57	22.8252	0.18576	0	0	0	0	1	4	4
57	23.0516	0.12771	0	0	0	0	1	4	4
63	23.5566	0.313469	0	0	0	0	1	4	4
63	23.8933	0.156734	0	0	0	0	1	4	4
62	24.0501	0.371519	0	0	0	0	1	4	4
58	24.6132	0.0754642	0	0	0	0	1	4	4
60	24.706	0.0406342	0	0	0	0	1	4	4
60	24.7525	0.110294	0	0	0	0	1	4	4
57	24.8802	0.493425	0	0	0	0	1	4	4
55	25.3736	0.0290241	0	0	0	0	1	4	4
60	25.9309	0.0986862	0	0	0	0	1	4	4
57	26.256	0.13932	0	0	0	0	1	4	4
55	26.5636	0.0522461	0	0	0	0	1	4	4
57	26.6159	0.0232201	0	0	0	0	1	4	4
57	26.6507	0.0232201	0	0	0	0	1	4	4
57	26.6797	0.0232201	0	0	0	0	1	4	4
57	26.7262	0.0522442	0	0	0	0	1	4	4
60	26.7784	0.290249	0	0	0	0	1	4	4
57	27.0861	0.0348301	0	0	0	0	1	4	4
57	27.1441	0.0348301	0	0	0	0	1	4	4
57	27.179	0.0522442	0	0	0	0	1	4	4
57	27.2312	0.121904	0	0	0	0	1	4	4
53	27.4576	0.156734	0	0	0	0	1	4	4
55	27.6143	0.029026	0	0	0	0	1	4	4
57	27.6434	0.0290241	0	0	0	0	1	4	4
57	27.684	0.0232201	0	0	0	0	1	4	4
57	27.7537	0.0232201	0	0	0	0	1	4	4
57	27.7827	0.0232201	0	0	0	0	1	4	4
53	28.0033	0.0870743	0	0	0	0	1	4	4
56	28.1426	0.0348301	0	0	0	0	1	4	4
56	28.189	0.0638561	0	0	0	0	1	4	4
57	28.2529	0.319273	0	0	0	0	1	4	4
56	28.9901	0.0232201	0	0	0	0	1	4	4
61	29.0133	0.0580502	0	0	0	0	1	4	4
