midiPitch 	 onsetSec 	 durationSec 	 onsetBeats 	 onsetBarIndex 	 onsetBar 	 durationBeats 	 velocity  	 numerator 	 denominator 
79	0.667574	0.0696598	0	0	0	0	1	4	4
78	0.754649	0.0232199	0	0	0	0	1	4	4
73	0.853333	0.03483	0	0	0	0	1	4	4
73	0.957823	0.0406349	0	0	0	0	1	4	4
72	1.20163	0.03483	0	0	0	0	1	4	4
74	1.34676	0.0232201	0	0	0	0	1	4	4
79	1.399	0.0232199	0	0	0	0	1	4	4
72	1.57896	0.0580499	0	0	0	0	1	4	4
64	3.70358	0.12771	0	0	0	0	1	4	4
64	4.31891	0.0638547	0	0	0	0	1	4	4
64	4.5337	0.0928798	0	0	0	0	1	4	4
67	4.80073	0.22059	0	0	0	0	1	4	4
67	5.02132	0.121905	0	0	0	0	1	4	4
64	5.27093	0.0696597	0	0	0	0	1	4	4
64	5.34059	0.0580497	0	0	0	0	1	4	4
62	5.75274	0.121905	0	0	0	0	1	4	4
66	5.99655	0.0986853	0	0	0	0	1	4	4
62	6.50159	0.0232196	0	0	0	0	1	4	4
62	6.53061	0.0696602	0	0	0	0	1	4	4
66	6.76281	0.0870748	0	0	0	0	1	4	4
68	6.84989	0.0232201	0	0	0	0	1	4	4
62	7.48844	0.0464396	0	0	0	0	1	4	4
62	7.66839	0.10449	0	0	0	0	1	4	4
62	7.77288	0.0232201	0	0	0	0	1	4	4
65	8.17923	0.0232201	0	0	0	0	1	4	4
62	8.46367	0.0812693	0	0	0	0	1	4	4
62	8.60299	0.110294	0	0	0	0	1	4	4
62	9.22413	0.104489	0	0	0	0	1	4	4
64	9.43891	0.0406351	0	0	0	0	1	4	4
64	9.67111	0.0986843	0	0	0	0	1	4	4
64	9.7698	0.0290251	0	0	0	0	1	4	4
67	9.94394	0.0812702	0	0	0	0	1	4	4
64	10.4258	0.0290251	0	0	0	0	1	4	4
64	10.4548	0.0580502	0	0	0	0	1	4	4
71	10.5535	0.127709	0	0	0	0	1	4	4
69	10.716	0.0232201	0	0	0	0	1	4	4
67	10.7741	0.1161	0	0	0	0	1	4	4
64	10.9018	0.0986843	0	0	0	0	1	4	4
69	11.0237	0.0232201	0	0	0	0	1	4	4
57	11.0933	0.0406351	0	0	0	0	1	4	4
67	11.163	0.0870743	0	0	0	0	1	4	4
64	11.668	0.0812702	0	0	0	0	1	4	4
64	12.1615	0.0812693	0	0	0	0	1	4	4
64	12.4169	0.0638552	0	0	0	0	1	4	4
64	12.4807	0.0290251	0	0	0	0	1	4	4
67	12.6897	0.0928802	0	0	0	0	1	4	4
67	12.7826	0.0406342	0	0	0	0	1	4	4
64	13.1541	0.0290251	0	0	0	0	1	4	4
64	13.1889	0.0232201	0	0	0	0	1	4	4
62	13.3979	0.110294	0	0	0	0	1	4	4
62	13.6127	0.0928793	0	0	0	0	1	4	4
62	13.7056	0.0348301	0	0	0	0	1	4	4
66	13.8333	0.110294	0	0	0	0	1	4	4
62	14.3499	0.0928802	0	0	0	0	1	4	4
62	14.4428	0.0290241	0	0	0	0	1	4	4
62	15.389	0.0464401	0	0	0	0	1	4	4
62	15.5806	0.0812702	0	0	0	0	1	4	4
62	16.0798	0.0290241	0	0	0	0	1	4	4
62	16.1146	0.0522442	0	0	0	0	1	4	4
62	16.3178	0.0870743	0	0	0	0	1	4	4
62	16.4397	0.0928802	0	0	0	0	1	4	4
62	16.5326	0.0232201	0	0	0	0	1	4	4
66	16.5674	0.110294	0	0	0	0	1	4	4
64	16.6893	0.0406342	0	0	0	0	1	4	4
66	16.8287	0.0638561	0	0	0	0	1	4	4
62	17.0609	0.0348301	0	0	0	0	1	4	4
62	17.1015	0.0464401	0	0	0	0	1	4	4
62	17.1479	0.0348301	0	0	0	0	1	4	4
64	17.2873	0.10449	0	0	0	0	1	4	4
64	17.5485	0.110294	0	0	0	0	1	4	4
64	18.2102	0.0232201	0	0	0	0	1	4	4
64	18.2625	0.10449	0	0	0	0	1	4	4
59	18.4308	0.0290241	0	0	0	0	1	4	4
50	18.5934	0.0406361	0	0	0	0	1	4	4
67	18.6572	0.0638561	0	0	0	0	1	4	4
64	18.7675	0.0928783	0	0	0	0	1	4	4
69	18.8894	0.110294	0	0	0	0	1	4	4
64	19.1216	0.0986862	0	0	0	0	1	4	4
64	19.5164	0.110296	0	0	0	0	1	4	4
65	19.8647	0.116098	0	0	0	0	1	4	4
66	20.1085	0.10449	0	0	0	0	1	4	4
64	20.2536	0.0754642	0	0	0	0	1	4	4
66	20.3523	0.145126	0	0	0	0	1	4	4
67	20.4974	0.325079	0	0	0	0	1	4	4
66	20.9618	0.203175	0	0	0	0	1	4	4
66	21.4552	0.104488	0	0	0	0	1	4	4
65	21.8732	0.0406342	0	0	0	0	1	4	4
66	21.9196	0.116098	0	0	0	0	1	4	4
62	22.326	0.249613	0	0	0	0	1	4	4
63	22.5814	0.0986843	0	0	0	0	1	4	4
61	22.6801	0.0348301	0	0	0	0	1	4	4
64	22.8426	0.417959	0	0	0	0	1	4	4
62	23.8179	0.0754662	0	0	0	0	1	4	4
64	24.0385	0.0928802	0	0	0	0	1	4	4
64	24.1313	0.0638542	0	0	0	0	1	4	4
66	24.2707	0.18576	0	0	0	0	1	4	4
64	24.6364	0.0986843	0	0	0	0	1	4	4
64	24.886	0.127708	0	0	0	0	1	4	4
64	25.1878	0.110294	0	0	0	0	1	4	4
67	25.3794	0.110294	0	0	0	0	1	4	4
66	26.018	0.0754642	0	0	0	0	1	4	4
67	26.2676	0.446985	0	0	0	0	1	4	4
66	26.7726	0.307663	0	0	0	0	1	4	4
64	27.1093	0.121904	0	0	0	0	1	4	4
67	27.9742	0.0580502	0	0	0	0	1	4	4
66	28.0323	0.0696602	0	0	0	0	1	4	4
67	28.1368	0.551474	0	0	0	0	1	4	4
66	28.7695	0.417959	0	0	0	0	1	4	4
