midiPitch 	 onsetSec 	 durationSec 	 onsetBeats 	 onsetBarIndex 	 onsetBar 	 durationBeats 	 velocity  	 numerator 	 denominator 
62	0.522449	0.029025	0	0	0	0	1	4	4
63	0.690794	0.0406349	0	0	0	0	1	4	4
65	0.743039	0.0232199	0	0	0	0	1	4	4
69	0.830113	0.0232199	0	0	0	0	1	4	4
66	1.25968	0.0232199	0	0	0	0	1	4	4
65	1.69506	0.0232199	0	0	0	0	1	4	4
68	1.90984	0.0232201	0	0	0	0	1	4	4
69	2.2117	0.0232198	0	0	0	0	1	4	4
69	2.33941	0.0290251	0	0	0	0	1	4	4
71	2.42649	0.0232198	0	0	0	0	1	4	4
71	2.83283	0.0232198	0	0	0	0	1	4	4
72	2.85605	0.0232201	0	0	0	0	1	4	4
62	2.90249	0.0232201	0	0	0	0	1	4	4
74	3.25079	0.0406349	0	0	0	0	1	4	4
72	3.43075	0.0406349	0	0	0	0	1	4	4
69	4.44662	0.0232196	0	0	0	0	1	4	4
72	4.46984	0.0232201	0	0	0	0	1	4	4
69	4.71946	0.0290251	0	0	0	0	1	4	4
72	5.43927	0.0232201	0	0	0	0	1	4	4
71	5.56118	0.0290246	0	0	0	0	1	4	4
71	5.67147	0.0232196	0	0	0	0	1	4	4
72	5.7063	0.0232201	0	0	0	0	1	4	4
69	6.4029	0.0232196	0	0	0	0	1	4	4
70	6.50739	0.0232196	0	0	0	0	1	4	4
72	6.76862	0.0290251	0	0	0	0	1	4	4
74	7.03565	0.0232201	0	0	0	0	1	4	4
75	7.14014	0.0348301	0	0	0	0	1	4	4
69	7.27365	0.0232201	0	0	0	0	1	4	4
72	7.36653	0.0232201	0	0	0	0	1	4	4
69	7.58132	0.0232201	0	0	0	0	1	4	4
70	7.69741	0.0232201	0	0	0	0	1	4	4
69	7.93542	0.0232196	0	0	0	0	1	4	4
70	7.99927	0.0290251	0	0	0	0	1	4	4
68	8.16181	0.0232201	0	0	0	0	1	4	4
70	8.27211	0.0290251	0	0	0	0	1	4	4
72	8.34177	0.0232201	0	0	0	0	1	4	4
75	8.62621	0.0638552	0	0	0	0	1	4	4
76	9.16608	0.0522451	0	0	0	0	1	4	4
71	9.40408	0.0290251	0	0	0	0	1	4	4
68	10.5883	0.0232201	0	0	0	0	1	4	4
69	10.7741	0.0290251	0	0	0	0	1	4	4
72	11.9989	0.0290251	0	0	0	0	1	4	4
72	12.057	0.0290251	0	0	0	0	1	4	4
71	12.4459	0.0290251	0	0	0	0	1	4	4
68	12.6549	0.0232201	0	0	0	0	1	4	4
72	12.9393	0.0232201	0	0	0	0	1	4	4
73	13.1193	0.0232201	0	0	0	0	1	4	4
66	13.218	0.0232191	0	0	0	0	1	4	4
74	13.8507	0.0348301	0	0	0	0	1	4	4
69	13.9668	0.0290251	0	0	0	0	1	4	4
67	14.646	0.0348291	0	0	0	0	1	4	4
70	15.3252	0.0232201	0	0	0	0	1	4	4
65	15.3948	0.0232201	0	0	0	0	1	4	4
71	15.7199	0.0348301	0	0	0	0	1	4	4
69	16.1437	0.0232201	0	0	0	0	1	4	4
69	16.2772	0.029026	0	0	0	0	1	4	4
69	16.3062	0.0290241	0	0	0	0	1	4	4
79	16.3468	0.0348301	0	0	0	0	1	4	4
69	16.8577	0.0290241	0	0	0	0	1	4	4
70	17.1189	0.0290241	0	0	0	0	1	4	4
69	17.1654	0.0406342	0	0	0	0	1	4	4
70	17.2815	0.0464401	0	0	0	0	1	4	4
70	17.4846	0.0522461	0	0	0	0	1	4	4
61	17.5949	0.0290241	0	0	0	0	1	4	4
74	18.1928	0.0290241	0	0	0	0	1	4	4
68	18.2799	0.0232201	0	0	0	0	1	4	4
71	18.3844	0.0290241	0	0	0	0	1	4	4
64	18.4134	0.0406342	0	0	0	0	1	4	4
67	18.7849	0.0232201	0	0	0	0	1	4	4
65	18.9417	0.0232201	0	0	0	0	1	4	4
70	19.2087	0.0290241	0	0	0	0	1	4	4
67	19.2493	0.0464401	0	0	0	0	1	4	4
70	19.6093	0.029026	0	0	0	0	1	4	4
73	19.6615	0.0348282	0	0	0	0	1	4	4
72	19.9053	0.0464401	0	0	0	0	1	4	4
72	20.0388	0.0232201	0	0	0	0	1	4	4
72	20.1956	0.0232201	0	0	0	0	1	4	4
71	20.242	0.0928802	0	0	0	0	1	4	4
70	20.6251	0.0348301	0	0	0	0	1	4	4
70	20.7702	0.0638561	0	0	0	0	1	4	4
69	20.9734	0.0638561	0	0	0	0	1	4	4
70	21.5133	0.0232182	0	0	0	0	1	4	4
72	21.7339	0.0232201	0	0	0	0	1	4	4
69	21.8674	0.0232201	0	0	0	0	1	4	4
72	22.3028	0.0348301	0	0	0	0	1	4	4
69	22.4943	0.0290241	0	0	0	0	1	4	4
75	22.6278	0.0290241	0	0	0	0	1	4	4
75	22.6801	0.0348301	0	0	0	0	1	4	4
70	22.8194	0.0232201	0	0	0	0	1	4	4
74	22.8484	0.0232201	0	0	0	0	1	4	4
71	22.8775	0.0232201	0	0	0	0	1	4	4
73	22.9936	0.029026	0	0	0	0	1	4	4
73	23.1039	0.0232201	0	0	0	0	1	4	4
70	23.3535	0.0754642	0	0	0	0	1	4	4
69	23.6785	0.0232201	0	0	0	0	1	4	4
72	23.7018	0.0348301	0	0	0	0	1	4	4
75	23.8179	0.0232201	0	0	0	0	1	4	4
67	24.021	0.0580502	0	0	0	0	1	4	4
71	24.1023	0.0406361	0	0	0	0	1	4	4
70	24.1429	0.0232201	0	0	0	0	1	4	4
70	24.3113	0.0406342	0	0	0	0	1	4	4
70	24.3577	0.0348282	0	0	0	0	1	4	4
72	24.5145	0.0290241	0	0	0	0	1	4	4
71	24.6712	0.0348301	0	0	0	0	1	4	4
74	25.1124	0.0232201	0	0	0	0	1	4	4
70	25.4955	0.0348301	0	0	0	0	1	4	4
69	25.7567	0.0406342	0	0	0	0	1	4	4
71	25.7974	0.0232201	0	0	0	0	1	4	4
72	26.0412	0.0406361	0	0	0	0	1	4	4
70	26.1457	0.029026	0	0	0	0	1	4	4
70	26.1747	0.0232201	0	0	0	0	1	4	4
70	26.2502	0.0232201	0	0	0	0	1	4	4
73	26.4011	0.0232201	0	0	0	0	1	4	4
71	26.4998	0.0406342	0	0	0	0	1	4	4
68	26.5636	0.0232201	0	0	0	0	1	4	4
74	26.6275	0.0696583	0	0	0	0	1	4	4
74	26.732	0.0406361	0	0	0	0	1	4	4
71	26.8132	0.0232201	0	0	0	0	1	4	4
70	26.8713	0.0928802	0	0	0	0	1	4	4
69	27.0106	0.0232201	0	0	0	0	1	4	4
69	27.3183	0.0232201	0	0	0	0	1	4	4
69	27.5969	0.0290241	0	0	0	0	1	4	4
71	27.9162	0.0232201	0	0	0	0	1	4	4
72	27.9626	0.0406361	0	0	0	0	1	4	4
69	28.1832	0.0290241	0	0	0	0	1	4	4
73	28.3051	0.0232201	0	0	0	0	1	4	4
68	28.4328	0.0232201	0	0	0	0	1	4	4
71	28.6534	0.0580502	0	0	0	0	1	4	4
70	28.7405	0.0232201	0	0	0	0	1	4	4
73	28.8508	0.0348301	0	0	0	0	1	4	4
70	29.0424	0.0232201	0	0	0	0	1	4	4
