midiPitch 	 onsetSec 	 durationSec 	 onsetBeats 	 onsetBarIndex 	 onsetBar 	 durationBeats 	 velocity  	 numerator 	 denominator 
63	0.818503	0.0348299	0	0	3.76109e-035	0	1	4	4
67	0.882358	0.0232199	0	0	3.76109e-035	0	1	4	4
65	0.911383	0.029025	0	0	3.76109e-035	0	1	4	4
67	0.940408	0.0638549	0	0	3.76109e-035	0	1	4	4
65	1.06812	0.0232199	0	0	3.76109e-035	0	1	4	4
64	1.14939	0.040635	0	0	3.76109e-035	0	1	4	4
66	1.28871	0.0754648	0	0	3.76109e-035	0	1	4	4
67	1.3932	0.0348299	0	0	3.76109e-035	0	1	4	4
67	1.42803	0.0580499	0	0	3.76109e-035	0	1	4	4
67	1.48608	0.15093	0	0	3.76109e-035	0	1	4	4
66	1.93887	0.145125	0	0	3.76109e-035	0	1	4	4
67	2.23492	0.0580499	0	0	3.76109e-035	0	1	4	4
71	2.77478	0.0290248	0	0	3.76109e-035	0	1	4	4
73	2.86186	0.0232201	0	0	3.76109e-035	0	1	4	4
71	2.88508	0.0232198	0	0	3.76109e-035	0	1	4	4
69	3.01279	0.0232201	0	0	3.76109e-035	0	1	4	4
67	3.0302	0.0232198	0	0	3.76109e-035	0	1	4	4
71	3.40172	0.0406349	0	0	3.76109e-035	0	1	4	4
58	4.04608	0.18576	0	0	3.76109e-035	0	1	4	4
69	4.98649	0.470204	0	0	3.76109e-035	0	1	4	4
50	6.68154	0.0870748	0	0	3.76109e-035	0	1	4	4
54	6.76862	0.12771	0	0	3.76109e-035	0	1	4	4
53	6.90213	0.145124	0	0	3.76109e-035	0	1	4	4
55	7.08209	0.110295	0	0	3.76109e-035	0	1	4	4
56	7.41878	0.313469	0	0	3.76109e-035	0	1	4	4
55	7.81351	0.150929	0	0	3.76109e-035	0	1	4	4
51	7.96444	0.470204	0	0	3.76109e-035	0	1	4	4
53	8.46367	0.267029	0	0	3.76109e-035	0	1	4	4
52	8.88163	0.22059	0	0	3.76109e-035	0	1	4	4
58	10.716	0.139319	0	0	3.76109e-035	0	1	4	4
56	11.0469	0.10449	0	0	3.76109e-035	0	1	4	4
57	11.3604	0.121904	0	0	3.76109e-035	0	1	4	4
57	11.7377	0.19737	0	0	3.76109e-035	0	1	4	4
59	12.3356	0.0522451	0	0	3.76109e-035	0	1	4	4
58	12.3878	0.0232191	0	0	3.76109e-035	0	1	4	4
58	12.4169	0.0406351	0	0	3.76109e-035	0	1	4	4
57	12.6084	0.17415	0	0	3.76109e-035	0	1	4	4
57	12.9393	0.0522451	0	0	3.76109e-035	0	1	4	4
57	13.4444	0.0522451	0	0	3.76109e-035	0	1	4	4
58	13.4966	0.0928802	0	0	3.76109e-035	0	1	4	4
55	13.7578	0.168344	0	0	3.76109e-035	0	1	4	4
55	13.9436	0.127709	0	0	3.76109e-035	0	1	4	4
57	14.0597	0.01161	0	0	3.76109e-035	0	1	4	4
55	13.9436	0.133514	0	0	3.76109e-035	0	1	4	4
57	14.0597	0.15093	0	0	3.76109e-035	0	1	4	4
55	14.2106	0.435374	0	0	3.76109e-035	0	1	4	4
52	14.6924	0.24381	0	0	3.76109e-035	0	1	4	4
49	17.0957	0.0464401	0	0	3.76109e-035	0	1	4	4
50	17.3917	0.0696583	0	0	3.76109e-035	0	1	4	4
51	17.5775	0.179955	0	0	3.76109e-035	0	1	4	4
52	17.7575	0.16254	0	0	3.76109e-035	0	1	4	4
52	17.92	0.0696602	0	0	3.76109e-035	0	1	4	4
51	17.9897	0.145124	0	0	3.76109e-035	0	1	4	4
51	18.187	0.0580502	0	0	3.76109e-035	0	1	4	4
55	18.2509	0.13932	0	0	3.76109e-035	0	1	4	4
57	18.4483	0.290249	0	0	3.76109e-035	0	1	4	4
57	19.0636	0.156736	0	0	3.76109e-035	0	1	4	4
57	19.6905	0.232199	0	0	3.76109e-035	0	1	4	4
50	20.718	0.121904	0	0	3.76109e-035	0	1	4	4
52	21.3798	0.110296	0	0	3.76109e-035	0	1	4	4
57	21.8616	0.220589	0	0	3.76109e-035	0	1	4	4
57	22.0822	0.0696602	0	0	3.76109e-035	0	1	4	4
55	22.2737	0.029026	0	0	3.76109e-035	0	1	4	4
57	22.4189	0.214785	0	0	3.76109e-035	0	1	4	4
57	23.278	0.168344	0	0	3.76109e-035	0	1	4	4
57	23.4986	0.249615	0	0	3.76109e-035	0	1	4	4
56	23.9398	0.139318	0	0	3.76109e-035	0	1	4	4
57	24.2649	0.179955	0	0	3.76109e-035	0	1	4	4
59	24.648	0.0638542	0	0	3.76109e-035	0	1	4	4
59	25.0195	0.1161	0	0	3.76109e-035	0	1	4	4
59	25.3388	0.156734	0	0	3.76109e-035	0	1	4	4
59	25.6813	0.18576	0	0	3.76109e-035	0	1	4	4
66	26.4243	0.0232182	0	0	3.76109e-035	0	1	4	4
66	26.5172	0.0522461	0	0	3.76109e-035	0	1	4	4
57	26.6101	0.197371	0	0	3.76109e-035	0	1	4	4
57	26.8423	0.371519	0	0	3.76109e-035	0	1	4	4
57	27.3473	0.394739	0	0	3.76109e-035	0	1	4	4
59	27.8988	0.168344	0	0	3.76109e-035	0	1	4	4
59	28.1948	0.290249	0	0	3.76109e-035	0	1	4	4
59	28.4851	0.354105	0	0	3.76109e-035	0	1	4	4
59	28.8392	0.0638542	0	0	3.76109e-035	0	1	4	4
59	28.9205	0.0406361	0	0	3.76109e-035	0	1	4	4
57	29.1875	0.53406	0	0	3.76109e-035	0	1	4	4
