midiPitch 	 onsetSec 	 durationSec 	 onsetBeats 	 onsetBarIndex 	 onsetBar 	 durationBeats 	 velocity  	 numerator 	 denominator 
65	0.17415	0.15093	0	0	0	0	1	4	4
65	0.325079	0.238005	0	0	0	0	1	4	4
65	1.89243	0.0754648	0	0	0	0	1	4	4
65	1.96789	0.336689	0	0	0	0	1	4	4
65	2.30458	0.0290248	0	0	0	0	1	4	4
65	2.64707	0.121905	0	0	0	0	1	4	4
57	3.01859	0.0232201	0	0	0	0	1	4	4
69	3.16372	0.15093	0	0	0	0	1	4	4
68	3.31465	0.191565	0	0	0	0	1	4	4
65	3.66295	0.214784	0	0	0	0	1	4	4
60	3.87773	0.388934	0	0	0	0	1	4	4
60	4.26667	0.121905	0	0	0	0	1	4	4
67	4.97487	0.336689	0	0	0	0	1	4	4
72	5.31156	0.354105	0	0	0	0	1	4	4
72	5.66567	0.168344	0	0	0	0	1	4	4
67	5.95011	0.354104	0	0	0	0	1	4	4
67	6.30422	0.0348301	0	0	0	0	1	4	4
67	6.35066	0.417959	0	0	0	0	1	4	4
68	6.93116	0.0986848	0	0	0	0	1	4	4
68	7.02984	0.156735	0	0	0	0	1	4	4
68	7.35492	0.0290251	0	0	0	0	1	4	4
69	7.38975	0.17415	0	0	0	0	1	4	4
68	7.5639	0.0232201	0	0	0	0	1	4	4
68	7.66839	0.0638552	0	0	0	0	1	4	4
68	7.73224	0.0406346	0	0	0	0	1	4	4
63	7.94122	0.191564	0	0	0	0	1	4	4
63	8.24308	0.0522451	0	0	0	0	1	4	4
61	8.43465	0.203175	0	0	0	0	1	4	4
57	8.63782	0.470204	0	0	0	0	1	4	4
64	10.3677	0.0812702	0	0	0	0	1	4	4
74	10.8553	0.133514	0	0	0	0	1	4	4
74	10.9888	0.20898	0	0	0	0	1	4	4
74	11.1978	0.0928802	0	0	0	0	1	4	4
66	11.3313	0.336689	0	0	0	0	1	4	4
65	11.668	0.0348301	0	0	0	0	1	4	4
72	11.7145	0.290249	0	0	0	0	1	4	4
72	12.0047	0.17415	0	0	0	0	1	4	4
66	12.7536	0.0638542	0	0	0	0	1	4	4
79	13.1309	0.0638552	0	0	0	0	1	4	4
67	13.2586	0.0348301	0	0	0	0	1	4	4
67	13.305	0.32508	0	0	0	0	1	4	4
65	13.9842	0.19737	0	0	0	0	1	4	4
64	14.1816	0.20898	0	0	0	0	1	4	4
67	14.437	0.139319	0	0	0	0	1	4	4
67	14.6692	0.27864	0	0	0	0	1	4	4
60	15.0697	0.481814	0	0	0	0	1	4	4
69	17.6878	0.226395	0	0	0	0	1	4	4
67	17.9839	0.255421	0	0	0	0	1	4	4
68	18.4831	0.0290241	0	0	0	0	1	4	4
69	18.5179	0.0580502	0	0	0	0	1	4	4
67	18.663	0.394739	0	0	0	0	1	4	4
63	19.0578	0.0406342	0	0	0	0	1	4	4
64	19.1042	0.232199	0	0	0	0	1	4	4
63	19.4757	0.110294	0	0	0	0	1	4	4
61	19.8008	0.110294	0	0	0	0	1	4	4
57	19.9111	0.319275	0	0	0	0	1	4	4
69	20.3233	0.365715	0	0	0	0	1	4	4
67	20.689	0.0290241	0	0	0	0	1	4	4
65	21.0315	0.121904	0	0	0	0	1	4	4
65	21.1824	0.423763	0	0	0	0	1	4	4
66	21.6062	0.0232201	0	0	0	0	1	4	4
74	21.6294	0.220591	0	0	0	0	1	4	4
74	21.85	0.185759	0	0	0	0	1	4	4
74	22.2621	0.179955	0	0	0	0	1	4	4
72	22.5001	0.029026	0	0	0	0	1	4	4
75	22.5292	0.272833	0	0	0	0	1	4	4
75	22.831	0.121904	0	0	0	0	1	4	4
70	22.9645	0.0986843	0	0	0	0	1	4	4
65	23.3709	0.296055	0	0	0	0	1	4	4
72	23.9166	0.179955	0	0	0	0	1	4	4
70	24.2823	0.238005	0	0	0	0	1	4	4
67	24.6828	0.185759	0	0	0	0	1	4	4
69	24.8686	0.0986862	0	0	0	0	1	4	4
66	24.9673	0.325079	0	0	0	0	1	4	4
64	25.2923	0.208979	0	0	0	0	1	4	4
68	25.5478	0.110294	0	0	0	0	1	4	4
63	25.8786	0.806892	0	0	0	0	1	4	4
61	26.6855	0.0986862	0	0	0	0	1	4	4
61	26.7842	0.174149	0	0	0	0	1	4	4
58	27.5273	0.232199	0	0	0	0	1	4	4
63	27.7595	0.772064	0	0	0	0	1	4	4
57	28.8566	0.13932	0	0	0	0	1	4	4
