midiPitch 	 onsetSec 	 durationSec 	 onsetBeats 	 onsetBarIndex 	 onsetBar 	 durationBeats 	 velocity  	 numerator 	 denominator 
53	0.0580499	0.0464399	0	0	3.93076e-035	0	1	4	4
53	0.121905	0.02322	0	0	3.93076e-035	0	1	4	4
53	0.203175	0.0580499	0	0	3.93076e-035	0	1	4	4
53	0.342494	0.0638549	0	0	3.93076e-035	0	1	4	4
53	0.446984	0.0638549	0	0	3.93076e-035	0	1	4	4
53	0.534059	0.226395	0	0	3.93076e-035	0	1	4	4
53	0.812698	0.348299	0	0	3.93076e-035	0	1	4	4
53	1.18422	0.0580499	0	0	3.93076e-035	0	1	4	4
53	1.30612	0.10449	0	0	3.93076e-035	0	1	4	4
53	1.42803	0.0812699	0	0	3.93076e-035	0	1	4	4
53	1.53832	0.0464399	0	0	3.93076e-035	0	1	4	4
52	1.63701	0.03483	0	0	3.93076e-035	0	1	4	4
67	1.67184	0.156735	0	0	3.93076e-035	0	1	4	4
69	1.86921	0.03483	0	0	3.93076e-035	0	1	4	4
70	1.95048	0.03483	0	0	3.93076e-035	0	1	4	4
70	2.04336	0.0406349	0	0	3.93076e-035	0	1	4	4
70	2.18268	0.0406351	0	0	3.93076e-035	0	1	4	4
70	2.23492	0.191565	0	0	3.93076e-035	0	1	4	4
70	2.43229	0.0348299	0	0	3.93076e-035	0	1	4	4
70	2.46712	0.0348299	0	0	3.93076e-035	0	1	4	4
67	2.50776	0.0696599	0	0	3.93076e-035	0	1	4	4
55	2.60063	0.0696599	0	0	3.93076e-035	0	1	4	4
55	2.67029	0.0290248	0	0	3.93076e-035	0	1	4	4
55	2.76317	0.1161	0	0	3.93076e-035	0	1	4	4
55	2.87927	0.0232198	0	0	3.93076e-035	0	1	4	4
55	2.94893	0.0290251	0	0	3.93076e-035	0	1	4	4
55	2.98376	0.0870748	0	0	3.93076e-035	0	1	4	4
55	3.07084	0.0522449	0	0	3.93076e-035	0	1	4	4
55	3.12308	0.0638549	0	0	3.93076e-035	0	1	4	4
55	3.18694	0.516644	0	0	3.93076e-035	0	1	4	4
55	3.70358	0.0348299	0	0	3.93076e-035	0	1	4	4
55	3.86032	0.0522449	0	0	3.93076e-035	0	1	4	4
58	3.91256	0.110295	0	0	3.93076e-035	0	1	4	4
58	4.02286	0.0232201	0	0	3.93076e-035	0	1	4	4
54	4.04608	0.0870748	0	0	3.93076e-035	0	1	4	4
55	4.15637	0.0464401	0	0	3.93076e-035	0	1	4	4
58	4.20281	0.0870748	0	0	3.93076e-035	0	1	4	4
55	4.28989	0.0928798	0	0	3.93076e-035	0	1	4	4
58	4.43501	0.0522447	0	0	3.93076e-035	0	1	4	4
54	4.51628	0.377324	0	0	3.93076e-035	0	1	4	4
58	4.91102	0.24381	0	0	3.93076e-035	0	1	4	4
54	5.17805	0.0638552	0	0	3.93076e-035	0	1	4	4
54	5.26512	0.0986848	0	0	3.93076e-035	0	1	4	4
54	5.38703	0.0232201	0	0	3.93076e-035	0	1	4	4
61	5.39864	0.0638552	0	0	3.93076e-035	0	1	4	4
58	5.46249	0.0290246	0	0	3.93076e-035	0	1	4	4
58	5.53215	0.18576	0	0	3.93076e-035	0	1	4	4
58	5.74113	0.0406351	0	0	3.93076e-035	0	1	4	4
61	5.85723	0.278639	0	0	3.93076e-035	0	1	4	4
58	6.47256	0.0348301	0	0	3.93076e-035	0	1	4	4
58	6.50739	0.0348296	0	0	3.93076e-035	0	1	4	4
58	6.54803	0.191565	0	0	3.93076e-035	0	1	4	4
58	6.77442	0.0406351	0	0	3.93076e-035	0	1	4	4
58	6.85569	0.2322	0	0	3.93076e-035	0	1	4	4
58	7.0995	0.0638547	0	0	3.93076e-035	0	1	4	4
53	7.22721	0.0696602	0	0	3.93076e-035	0	1	4	4
53	7.29687	0.0638547	0	0	3.93076e-035	0	1	4	4
53	7.38975	0.0580497	0	0	3.93076e-035	0	1	4	4
53	7.4478	0.19737	0	0	3.93076e-035	0	1	4	4
52	7.82512	0.0290246	0	0	3.93076e-035	0	1	4	4
52	7.89478	0.0232201	0	0	3.93076e-035	0	1	4	4
51	7.918	0.110295	0	0	3.93076e-035	0	1	4	4
51	8.21406	0.0580502	0	0	3.93076e-035	0	1	4	4
52	8.27211	0.0290251	0	0	3.93076e-035	0	1	4	4
52	8.35338	0.0406351	0	0	3.93076e-035	0	1	4	4
51	8.40562	0.0464401	0	0	3.93076e-035	0	1	4	4
51	8.46367	0.0348301	0	0	3.93076e-035	0	1	4	4
51	8.50431	0.0986843	0	0	3.93076e-035	0	1	4	4
53	8.69587	0.0290241	0	0	3.93076e-035	0	1	4	4
51	8.78295	0.0232201	0	0	3.93076e-035	0	1	4	4
51	8.82358	0.0232201	0	0	3.93076e-035	0	1	4	4
52	8.98032	0.0522451	0	0	3.93076e-035	0	1	4	4
52	9.04998	0.0232201	0	0	3.93076e-035	0	1	4	4
52	9.09642	0.0290241	0	0	3.93076e-035	0	1	4	4
52	9.26476	0.0232201	0	0	3.93076e-035	0	1	4	4
61	9.40408	0.150929	0	0	3.93076e-035	0	1	4	4
61	9.59565	0.441179	0	0	3.93076e-035	0	1	4	4
61	10.0252	0.139319	0	0	3.93076e-035	0	1	4	4
61	10.1994	0.0232201	0	0	3.93076e-035	0	1	4	4
61	10.2632	0.0232201	0	0	3.93076e-035	0	1	4	4
61	10.2922	0.0232201	0	0	3.93076e-035	0	1	4	4
61	10.3213	0.0232201	0	0	3.93076e-035	0	1	4	4
61	10.3503	0.319274	0	0	3.93076e-035	0	1	4	4
61	10.8669	0.0406351	0	0	3.93076e-035	0	1	4	4
61	11.0527	0.0638552	0	0	3.93076e-035	0	1	4	4
61	11.1572	0.545669	0	0	3.93076e-035	0	1	4	4
61	11.9467	0.0348301	0	0	3.93076e-035	0	1	4	4
61	11.9989	0.679184	0	0	3.93076e-035	0	1	4	4
56	12.6781	0.139319	0	0	3.93076e-035	0	1	4	4
56	12.9683	0.0696592	0	0	3.93076e-035	0	1	4	4
61	13.0902	0.0232201	0	0	3.93076e-035	0	1	4	4
56	13.1831	0.0406342	0	0	3.93076e-035	0	1	4	4
56	13.2296	0.0290251	0	0	3.93076e-035	0	1	4	4
56	13.2644	0.0812702	0	0	3.93076e-035	0	1	4	4
51	13.543	0.0232201	0	0	3.93076e-035	0	1	4	4
56	13.5605	0.0812693	0	0	3.93076e-035	0	1	4	4
56	13.6417	0.18576	0	0	3.93076e-035	0	1	4	4
56	13.8275	0.0522442	0	0	3.93076e-035	0	1	4	4
51	13.9436	0.0348301	0	0	3.93076e-035	0	1	4	4
51	14.0597	0.203175	0	0	3.93076e-035	0	1	4	4
56	14.2919	0.0348301	0	0	3.93076e-035	0	1	4	4
51	14.3441	0.0638552	0	0	3.93076e-035	0	1	4	4
56	14.408	0.0348301	0	0	3.93076e-035	0	1	4	4
56	14.4776	0.0406351	0	0	3.93076e-035	0	1	4	4
56	14.5241	0.110295	0	0	3.93076e-035	0	1	4	4
56	14.675	0.0290251	0	0	3.93076e-035	0	1	4	4
56	14.7098	0.0406351	0	0	3.93076e-035	0	1	4	4
56	14.7563	0.0870752	0	0	3.93076e-035	0	1	4	4
56	14.9072	0.0348301	0	0	3.93076e-035	0	1	4	4
56	14.9711	0.0290251	0	0	3.93076e-035	0	1	4	4
55	15.0756	0.168345	0	0	3.93076e-035	0	1	4	4
55	15.4587	0.0290241	0	0	3.93076e-035	0	1	4	4
51	15.4935	0.10449	0	0	3.93076e-035	0	1	4	4
55	15.5516	0.203175	0	0	3.93076e-035	0	1	4	4
55	15.8012	0.0638552	0	0	3.93076e-035	0	1	4	4
55	15.8708	0.0464392	0	0	3.93076e-035	0	1	4	4
55	15.9695	0.0348291	0	0	3.93076e-035	0	1	4	4
51	16.3236	0.0464401	0	0	3.93076e-035	0	1	4	4
55	16.4223	0.226395	0	0	3.93076e-035	0	1	4	4
55	16.6545	0.0232201	0	0	3.93076e-035	0	1	4	4
55	16.6835	0.13932	0	0	3.93076e-035	0	1	4	4
55	16.8519	0.197371	0	0	3.93076e-035	0	1	4	4
55	17.0493	0.156734	0	0	3.93076e-035	0	1	4	4
51	17.235	0.121906	0	0	3.93076e-035	0	1	4	4
53	17.5949	0.0232201	0	0	3.93076e-035	0	1	4	4
52	17.7633	0.0290241	0	0	3.93076e-035	0	1	4	4
53	17.7981	0.0290241	0	0	3.93076e-035	0	1	4	4
53	17.8329	0.0232201	0	0	3.93076e-035	0	1	4	4
53	17.8736	0.0232201	0	0	3.93076e-035	0	1	4	4
53	17.9316	0.0290241	0	0	3.93076e-035	0	1	4	4
53	17.9664	0.0232201	0	0	3.93076e-035	0	1	4	4
53	18.0535	0.0406342	0	0	3.93076e-035	0	1	4	4
53	18.1	0.0348301	0	0	3.93076e-035	0	1	4	4
53	18.1406	0.0406361	0	0	3.93076e-035	0	1	4	4
53	18.187	0.0406361	0	0	3.93076e-035	0	1	4	4
52	18.2335	0.446983	0	0	3.93076e-035	0	1	4	4
53	18.6805	0.029026	0	0	3.93076e-035	0	1	4	4
53	18.7153	0.922995	0	0	3.93076e-035	0	1	4	4
53	19.6615	0.0348282	0	0	3.93076e-035	0	1	4	4
53	19.7021	0.145124	0	0	3.93076e-035	0	1	4	4
53	19.9459	0.0348301	0	0	3.93076e-035	0	1	4	4
53	19.9866	0.0870743	0	0	3.93076e-035	0	1	4	4
57	20.0737	0.388935	0	0	3.93076e-035	0	1	4	4
57	20.5903	0.0870762	0	0	3.93076e-035	0	1	4	4
53	20.7064	0.0696602	0	0	3.93076e-035	0	1	4	4
54	20.8515	0.029026	0	0	3.93076e-035	0	1	4	4
53	20.9792	0.0986843	0	0	3.93076e-035	0	1	4	4
53	21.1418	0.0232201	0	0	3.93076e-035	0	1	4	4
57	21.165	0.0464401	0	0	3.93076e-035	0	1	4	4
53	21.2114	0.10449	0	0	3.93076e-035	0	1	4	4
57	21.5888	0.0406342	0	0	3.93076e-035	0	1	4	4
53	21.6294	0.0232201	0	0	3.93076e-035	0	1	4	4
53	21.7745	0.0232201	0	0	3.93076e-035	0	1	4	4
53	21.8035	0.0232201	0	0	3.93076e-035	0	1	4	4
53	21.8326	0.0348301	0	0	3.93076e-035	0	1	4	4
53	21.8732	0.0348301	0	0	3.93076e-035	0	1	4	4
57	21.908	0.0290241	0	0	3.93076e-035	0	1	4	4
57	21.9487	0.179955	0	0	3.93076e-035	0	1	4	4
53	22.1228	0.0928783	0	0	3.93076e-035	0	1	4	4
53	22.6743	0.0348301	0	0	3.93076e-035	0	1	4	4
53	22.7672	0.0870762	0	0	3.93076e-035	0	1	4	4
55	22.86	0.029026	0	0	3.93076e-035	0	1	4	4
55	22.9007	0.0290241	0	0	3.93076e-035	0	1	4	4
51	23.1271	0.0290241	0	0	3.93076e-035	0	1	4	4
51	23.2025	0.0522442	0	0	3.93076e-035	0	1	4	4
53	23.2548	0.0638561	0	0	3.93076e-035	0	1	4	4
51	23.3361	0.0348301	0	0	3.93076e-035	0	1	4	4
55	23.3999	0.0464401	0	0	3.93076e-035	0	1	4	4
51	23.458	0.0232201	0	0	3.93076e-035	0	1	4	4
51	23.5624	0.0696602	0	0	3.93076e-035	0	1	4	4
51	23.6727	0.0638561	0	0	3.93076e-035	0	1	4	4
52	23.7366	0.0348301	0	0	3.93076e-035	0	1	4	4
55	23.8411	0.0348301	0	0	3.93076e-035	0	1	4	4
51	23.8759	0.0580502	0	0	3.93076e-035	0	1	4	4
55	24.0385	0.0406342	0	0	3.93076e-035	0	1	4	4
55	24.0965	0.0580502	0	0	3.93076e-035	0	1	4	4
55	24.172	0.0290241	0	0	3.93076e-035	0	1	4	4
55	24.2358	0.0406361	0	0	3.93076e-035	0	1	4	4
51	24.4796	0.0696602	0	0	3.93076e-035	0	1	4	4
55	24.5609	0.179955	0	0	3.93076e-035	0	1	4	4
51	24.7931	0.0754642	0	0	3.93076e-035	0	1	4	4
55	24.9034	0.0406361	0	0	3.93076e-035	0	1	4	4
70	24.9324	0.0290241	0	0	3.93076e-035	0	1	4	4
70	24.9673	0.0406342	0	0	3.93076e-035	0	1	4	4
70	25.124	0.0580502	0	0	3.93076e-035	0	1	4	4
70	25.1995	0.0406342	0	0	3.93076e-035	0	1	4	4
70	25.2517	0.0812702	0	0	3.93076e-035	0	1	4	4
70	25.4839	0.0406342	0	0	3.93076e-035	0	1	4	4
70	25.5303	0.0754642	0	0	3.93076e-035	0	1	4	4
67	25.7393	0.0348301	0	0	3.93076e-035	0	1	4	4
70	25.7741	0.16254	0	0	3.93076e-035	0	1	4	4
67	25.9599	0.0522442	0	0	3.93076e-035	0	1	4	4
70	26.0122	0.0290241	0	0	3.93076e-035	0	1	4	4
55	25.8206	1.13778	0	0	3.93076e-035	0	1	4	4
55	27.3067	0.232201	0	0	3.93076e-035	0	1	4	4
70	27.5737	0.0348301	0	0	3.93076e-035	0	1	4	4
70	27.6492	0.214785	0	0	3.93076e-035	0	1	4	4
70	27.8639	0.10449	0	0	3.93076e-035	0	1	4	4
70	27.9684	0.0928802	0	0	3.93076e-035	0	1	4	4
70	28.0613	0.0870743	0	0	3.93076e-035	0	1	4	4
70	28.1716	0.0406342	0	0	3.93076e-035	0	1	4	4
70	28.2297	0.139318	0	0	3.93076e-035	0	1	4	4
69	28.427	0.0870743	0	0	3.93076e-035	0	1	4	4
69	28.5315	0.13932	0	0	3.93076e-035	0	1	4	4
69	28.8276	0.359909	0	0	3.93076e-035	0	1	4	4
69	29.4197	0.301861	0	0	3.93076e-035	0	1	4	4
