midiPitch 	 onsetSec 	 durationSec 	 onsetBeats 	 onsetBarIndex 	 onsetBar 	 durationBeats 	 velocity  	 numerator 	 denominator 
62	0.0754649	0.0290249	0	0	0	0	1	4	4
62	0.19737	0.10449	0	0	0	0	1	4	4
62	0.301859	0.20898	0	0	0	0	1	4	4
62	0.510839	0.18576	0	0	0	0	1	4	4
62	0.696599	0.22059	0	0	0	0	1	4	4
62	0.917188	0.16254	0	0	0	0	1	4	4
62	1.07973	0.156735	0	0	0	0	1	4	4
62	1.23646	0.13932	0	0	0	0	1	4	4
62	1.37578	0.0522449	0	0	0	0	1	4	4
60	1.42803	0.121905	0	0	0	0	1	4	4
61	1.54993	0.0696598	0	0	0	0	1	4	4
62	1.6254	0.0522449	0	0	0	0	1	4	4
60	2.36263	0.0638549	0	0	0	0	1	4	4
60	2.42649	0.156735	0	0	0	0	1	4	4
60	2.58322	0.0232198	0	0	0	0	1	4	4
55	2.60644	0.19737	0	0	0	0	1	4	4
55	2.80381	0.226395	0	0	0	0	1	4	4
67	2.89088	0.412154	0	0	0	0	1	4	4
67	3.30304	0.0232198	0	0	0	0	1	4	4
60	3.39011	0.261225	0	0	0	0	1	4	4
55	3.65134	0.19737	0	0	0	0	1	4	4
65	3.88934	0.20898	0	0	0	0	1	4	4
64	4.11574	0.307664	0	0	0	0	1	4	4
66	5.85723	0.0638547	0	0	0	0	1	4	4
64	6.09524	0.116099	0	0	0	0	1	4	4
64	6.21134	0.249615	0	0	0	0	1	4	4
56	7.65678	0.1161	0	0	0	0	1	4	4
65	7.90059	0.16254	0	0	0	0	1	4	4
65	8.06313	0.226395	0	0	0	0	1	4	4
64	8.30694	0.16254	0	0	0	0	1	4	4
64	8.46948	0.655963	0	0	0	0	1	4	4
57	11.6564	0.22059	0	0	0	0	1	4	4
65	11.9293	0.179955	0	0	0	0	1	4	4
64	12.1673	0.255419	0	0	0	0	1	4	4
64	12.4227	0.806893	0	0	0	0	1	4	4
63	13.6417	0.15093	0	0	0	0	1	4	4
64	13.8623	0.191565	0	0	0	0	1	4	4
90890400	14.1119	0.0986853	0	0	0	0	1	4	4
65	14.2106	0.121904	0	0	0	0	1	4	4
67	14.3325	0.325079	0	0	0	0	1	4	4
64	14.675	0.412154	0	0	0	0	1	4	4
64	15.1046	0.2322	0	0	0	0	1	4	4
65	15.3948	0.505033	0	0	0	0	1	4	4
64	16.2714	0.133514	0	0	0	0	1	4	4
64	16.5152	0.13932	0	0	0	0	1	4	4
62	16.6545	0.417959	0	0	0	0	1	4	4
61	17.0725	0.0232201	0	0	0	0	1	4	4
62	17.1015	0.226395	0	0	0	0	1	4	4
62	17.3279	0.0406361	0	0	0	0	1	4	4
62	17.4498	0.330885	0	0	0	0	1	4	4
62	17.7807	0.156734	0	0	0	0	1	4	4
62	18.6166	0.17415	0	0	0	0	1	4	4
65	18.8546	0.214785	0	0	0	0	1	4	4
61	19.7428	0.0696602	0	0	0	0	1	4	4
62	19.975	0.0812702	0	0	0	0	1	4	4
64	20.2246	1.02168	0	0	0	0	1	4	4
64	21.5829	0.133516	0	0	0	0	1	4	4
64	21.8035	0.272835	0	0	0	0	1	4	4
67	22.088	0.156734	0	0	0	0	1	4	4
68	22.2447	0.214785	0	0	0	0	1	4	4
64	22.4653	0.301859	0	0	0	0	1	4	4
64	22.7672	0.342495	0	0	0	0	1	4	4
64	23.1097	0.13932	0	0	0	0	1	4	4
64	23.5973	0.214785	0	0	0	0	1	4	4
62	23.8121	0.191565	0	0	0	0	1	4	4
62	24.0036	0.255419	0	0	0	0	1	4	4
62	24.259	0.145124	0	0	0	0	1	4	4
64	24.4042	0.301861	0	0	0	0	1	4	4
64	24.706	0.226395	0	0	0	0	1	4	4
59	24.9324	0.185759	0	0	0	0	1	4	4
60	25.1182	0.17415	0	0	0	0	1	4	4
64	27.5621	0.330883	0	0	0	0	1	4	4
60	28.0845	0.267031	0	0	0	0	1	4	4
60	28.3922	0.16254	0	0	0	0	1	4	4
