midiPitch 	 onsetSec 	 durationSec 	 onsetBeats 	 onsetBarIndex 	 onsetBar 	 durationBeats 	 velocity  	 numerator 	 denominator 
66	0.0406349	0.24381	0	0	2.12522e-035	0	1	4	4
70	0.336689	0.168345	0	0	2.12522e-035	0	1	4	4
73	0.539864	0.464399	0	0	2.12522e-035	0	1	4	4
70	1.01007	0.319274	0	0	2.12522e-035	0	1	4	4
66	2.04336	0.621134	0	0	2.12522e-035	0	1	4	4
68	2.66449	0.290249	0	0	2.12522e-035	0	1	4	4
70	3.01859	0.238004	0	0	2.12522e-035	0	1	4	4
69	3.2566	0.476009	0	0	2.12522e-035	0	1	4	4
67	3.80227	0.17415	0	0	2.12522e-035	0	1	4	4
65	4.01705	0.0812697	0	0	2.12522e-035	0	1	4	4
65	4.09832	0.278639	0	0	2.12522e-035	0	1	4	4
67	4.40599	1.01007	0	0	2.12522e-035	0	1	4	4
65	5.45088	0.284444	0	0	2.12522e-035	0	1	4	4
69	5.74694	0.17415	0	0	2.12522e-035	0	1	4	4
72	5.92109	0.499229	0	0	2.12522e-035	0	1	4	4
69	6.46095	0.226395	0	0	2.12522e-035	0	1	4	4
69	6.68735	0.10449	0	0	2.12522e-035	0	1	4	4
60	6.79184	0.307664	0	0	2.12522e-035	0	1	4	4
74	7.19819	0.0232201	0	0	2.12522e-035	0	1	4	4
65	7.28526	0.510839	0	0	2.12522e-035	0	1	4	4
66	7.7961	0.336689	0	0	2.12522e-035	0	1	4	4
68	8.16181	0.25542	0	0	2.12522e-035	0	1	4	4
70	8.50431	0.307664	0	0	2.12522e-035	0	1	4	4
66	8.85841	0.145124	0	0	2.12522e-035	0	1	4	4
68	9.13705	0.110295	0	0	2.12522e-035	0	1	4	4
67	9.24735	0.18576	0	0	2.12522e-035	0	1	4	4
67	9.43311	0.0580502	0	0	2.12522e-035	0	1	4	4
64	9.49116	0.301859	0	0	2.12522e-035	0	1	4	4
65	9.82204	0.319275	0	0	2.12522e-035	0	1	4	4
65	10.1413	0.301859	0	0	2.12522e-035	0	1	4	4
65	10.4432	0.238005	0	0	2.12522e-035	0	1	4	4
65	10.6812	0.435374	0	0	2.12522e-035	0	1	4	4
70	11.1804	0.13932	0	0	2.12522e-035	0	1	4	4
70	11.3197	0.22059	0	0	2.12522e-035	0	1	4	4
70	11.5635	0.290249	0	0	2.12522e-035	0	1	4	4
70	11.8538	0.330885	0	0	2.12522e-035	0	1	4	4
70	12.1847	0.383129	0	0	2.12522e-035	0	1	4	4
69	12.5852	0.359909	0	0	2.12522e-035	0	1	4	4
69	12.9451	0.0406351	0	0	2.12522e-035	0	1	4	4
69	12.9916	0.563084	0	0	2.12522e-035	0	1	4	4
69	13.5546	0.121904	0	0	2.12522e-035	0	1	4	4
65	13.6998	0.20898	0	0	2.12522e-035	0	1	4	4
65	13.9088	0.563084	0	0	2.12522e-035	0	1	4	4
69	14.4718	0.16254	0	0	2.12522e-035	0	1	4	4
67	14.675	0.261225	0	0	2.12522e-035	0	1	4	4
65	14.9362	0.383129	0	0	2.12522e-035	0	1	4	4
67	15.3484	0.719819	0	0	2.12522e-035	0	1	4	4
67	16.0682	0.238005	0	0	2.12522e-035	0	1	4	4
67	16.3062	0.0290241	0	0	2.12522e-035	0	1	4	4
65	16.3352	0.342495	0	0	2.12522e-035	0	1	4	4
69	16.6777	0.197369	0	0	2.12522e-035	0	1	4	4
72	16.8925	0.191565	0	0	2.12522e-035	0	1	4	4
72	17.0841	0.290249	0	0	2.12522e-035	0	1	4	4
69	17.3743	0.365715	0	0	2.12522e-035	0	1	4	4
65	18.2509	0.13932	0	0	2.12522e-035	0	1	4	4
65	18.3902	0.336689	0	0	2.12522e-035	0	1	4	4
65	18.7269	0.354105	0	0	2.12522e-035	0	1	4	4
67	19.0984	0.278641	0	0	2.12522e-035	0	1	4	4
69	19.4061	0.342495	0	0	2.12522e-035	0	1	4	4
65	19.8066	0.255419	0	0	2.12522e-035	0	1	4	4
67	20.1375	0.261225	0	0	2.12522e-035	0	1	4	4
64	20.4742	0.336689	0	0	2.12522e-035	0	1	4	4
65	20.8109	0.702404	0	0	2.12522e-035	0	1	4	4
65	21.5133	0.0638542	0	0	2.12522e-035	0	1	4	4
53	21.8093	0.0928802	0	0	2.12522e-035	0	1	4	4
57	22.2679	0.133514	0	0	2.12522e-035	0	1	4	4
60	22.4015	0.214785	0	0	2.12522e-035	0	1	4	4
57	22.6511	0.0290241	0	0	2.12522e-035	0	1	4	4
53	22.7207	0.0928783	0	0	2.12522e-035	0	1	4	4
53	22.8136	0.0232201	0	0	2.12522e-035	0	1	4	4
53	22.8368	0.0232201	0	0	2.12522e-035	0	1	4	4
53	22.8775	0.0232201	0	0	2.12522e-035	0	1	4	4
53	22.9471	0.156734	0	0	2.12522e-035	0	1	4	4
51	23.6263	0.0754662	0	0	2.12522e-035	0	1	4	4
53	23.754	0.12771	0	0	2.12522e-035	0	1	4	4
53	23.8817	0.0464401	0	0	2.12522e-035	0	1	4	4
53	23.9282	0.0812683	0	0	2.12522e-035	0	1	4	4
53	24.0094	0.0406361	0	0	2.12522e-035	0	1	4	4
52	24.5377	0.208979	0	0	2.12522e-035	0	1	4	4
53	24.7467	0.0232201	0	0	2.12522e-035	0	1	4	4
55	24.9382	0.0232201	0	0	2.12522e-035	0	1	4	4
57	24.9789	0.0348282	0	0	2.12522e-035	0	1	4	4
57	25.0137	0.0580502	0	0	2.12522e-035	0	1	4	4
57	25.2401	0.203175	0	0	2.12522e-035	0	1	4	4
57	25.5361	0.365715	0	0	2.12522e-035	0	1	4	4
54	25.9773	0.0638542	0	0	2.12522e-035	0	1	4	4
55	26.2676	0.0406361	0	0	2.12522e-035	0	1	4	4
55	26.3605	0.029026	0	0	2.12522e-035	0	1	4	4
55	26.4127	0.0232201	0	0	2.12522e-035	0	1	4	4
67	26.9584	0.0464401	0	0	2.12522e-035	0	1	4	4
54	27.3589	0.0580502	0	0	2.12522e-035	0	1	4	4
54	27.417	0.0290241	0	0	2.12522e-035	0	1	4	4
57	27.6317	0.284443	0	0	2.12522e-035	0	1	4	4
60	27.9917	0.145124	0	0	2.12522e-035	0	1	4	4
53	28.4096	0.0522442	0	0	2.12522e-035	0	1	4	4
53	28.4619	0.0696602	0	0	2.12522e-035	0	1	4	4
53	28.5954	0.261225	0	0	2.12522e-035	0	1	4	4
50	29.0366	0.284445	0	0	2.12522e-035	0	1	4	4
53	29.4835	0.0464382	0	0	2.12522e-035	0	1	4	4
54	29.6809	0.0696602	0	0	2.12522e-035	0	1	4	4
54	29.7506	0.255419	0	0	2.12522e-035	0	1	4	4
