midiPitch 	 onsetSec 	 durationSec 	 onsetBeats 	 onsetBarIndex 	 onsetBar 	 durationBeats 	 velocity  	 numerator 	 denominator 
74	0.0406349	0.168345	0	0	2.63296e-035	0	1	4	4
74	0.20898	0.470204	0	0	2.63296e-035	0	1	4	4
74	0.679184	0.168345	0	0	2.63296e-035	0	1	4	4
57	0.737234	0.191565	0	0	2.63296e-035	0	1	4	4
60	0.957823	0.301859	0	0	2.63296e-035	0	1	4	4
58	1.27129	0.2322	0	0	2.63296e-035	0	1	4	4
58	1.50349	0.04644	0	0	2.63296e-035	0	1	4	4
55	1.82277	0.208979	0	0	2.63296e-035	0	1	4	4
57	2.06077	0.0580499	0	0	2.63296e-035	0	1	4	4
57	2.11882	0.0232198	0	0	2.63296e-035	0	1	4	4
57	2.14204	0.0464399	0	0	2.63296e-035	0	1	4	4
69	2.46712	0.551474	0	0	2.63296e-035	0	1	4	4
69	3.01859	0.0870748	0	0	2.63296e-035	0	1	4	4
65	3.10567	0.2322	0	0	2.63296e-035	0	1	4	4
68	3.34367	0.319274	0	0	2.63296e-035	0	1	4	4
65	3.76163	0.203175	0	0	2.63296e-035	0	1	4	4
68	3.96481	0.319274	0	0	2.63296e-035	0	1	4	4
69	4.28408	0.0986848	0	0	2.63296e-035	0	1	4	4
65	4.38277	0.3483	0	0	2.63296e-035	0	1	4	4
65	4.73107	0.626939	0	0	2.63296e-035	0	1	4	4
65	6.78603	0.290249	0	0	2.63296e-035	0	1	4	4
65	7.07628	0.0406351	0	0	2.63296e-035	0	1	4	4
67	7.23302	0.272835	0	0	2.63296e-035	0	1	4	4
65	7.76127	0.145125	0	0	2.63296e-035	0	1	4	4
65	7.90639	0.0406346	0	0	2.63296e-035	0	1	4	4
67	8.04571	0.319274	0	0	2.63296e-035	0	1	4	4
68	8.38821	0.0638552	0	0	2.63296e-035	0	1	4	4
67	8.45206	0.156734	0	0	2.63296e-035	0	1	4	4
65	8.6146	0.325079	0	0	2.63296e-035	0	1	4	4
65	9.08481	0.284444	0	0	2.63296e-035	0	1	4	4
65	9.36925	0.226395	0	0	2.63296e-035	0	1	4	4
57	9.76399	0.22059	0	0	2.63296e-035	0	1	4	4
57	9.98458	0.238005	0	0	2.63296e-035	0	1	4	4
53	11.0701	0.24381	0	0	2.63296e-035	0	1	4	4
72	11.401	0.0232201	0	0	2.63296e-035	0	1	4	4
72	11.43	0.354105	0	0	2.63296e-035	0	1	4	4
75	11.8828	0.0522451	0	0	2.63296e-035	0	1	4	4
69	11.9815	0.168344	0	0	2.63296e-035	0	1	4	4
72	12.3066	0.789478	0	0	2.63296e-035	0	1	4	4
72	13.1657	0.104489	0	0	2.63296e-035	0	1	4	4
69	13.2702	0.510839	0	0	2.63296e-035	0	1	4	4
69	13.781	1.67764	0	0	2.63296e-035	0	1	4	4
65	15.5341	0.226395	0	0	2.63296e-035	0	1	4	4
65	16.1553	0.179955	0	0	2.63296e-035	0	1	4	4
65	16.701	0.261225	0	0	2.63296e-035	0	1	4	4
67	16.9622	0.290249	0	0	2.63296e-035	0	1	4	4
69	17.2524	0.499229	0	0	2.63296e-035	0	1	4	4
69	17.7517	0.232199	0	0	2.63296e-035	0	1	4	4
66	18.7211	0.319275	0	0	2.63296e-035	0	1	4	4
66	19.0404	0.226395	0	0	2.63296e-035	0	1	4	4
64	19.6615	0.168344	0	0	2.63296e-035	0	1	4	4
65	19.8356	0.179955	0	0	2.63296e-035	0	1	4	4
72	20.1665	0.238005	0	0	2.63296e-035	0	1	4	4
76	20.4278	0.261225	0	0	2.63296e-035	0	1	4	4
75	20.689	0.261223	0	0	2.63296e-035	0	1	4	4
74	20.9502	0.0232201	0	0	2.63296e-035	0	1	4	4
74	20.9792	0.296055	0	0	2.63296e-035	0	1	4	4
73	21.2753	0.238005	0	0	2.63296e-035	0	1	4	4
72	21.5539	0.272835	0	0	2.63296e-035	0	1	4	4
72	22.117	0.371519	0	0	2.63296e-035	0	1	4	4
73	22.4885	0.0406361	0	0	2.63296e-035	0	1	4	4
74	22.5292	0.278639	0	0	2.63296e-035	0	1	4	4
73	22.9123	0.0928783	0	0	2.63296e-035	0	1	4	4
74	23.0052	1.06812	0	0	2.63296e-035	0	1	4	4
72	24.0733	0.296055	0	0	2.63296e-035	0	1	4	4
70	24.3984	0.272835	0	0	2.63296e-035	0	1	4	4
70	24.6712	0.232199	0	0	2.63296e-035	0	1	4	4
71	24.9731	0.0580502	0	0	2.63296e-035	0	1	4	4
72	25.0311	0.261225	0	0	2.63296e-035	0	1	4	4
72	25.2923	0.0406342	0	0	2.63296e-035	0	1	4	4
71	25.3388	0.0696602	0	0	2.63296e-035	0	1	4	4
72	25.4084	0.667572	0	0	2.63296e-035	0	1	4	4
70	26.1631	0.191565	0	0	2.63296e-035	0	1	4	4
68	26.6565	0.226395	0	0	2.63296e-035	0	1	4	4
69	26.9177	0.10449	0	0	2.63296e-035	0	1	4	4
66	27.0222	0.179955	0	0	2.63296e-035	0	1	4	4
66	27.0222	0.185759	0	0	2.63296e-035	0	1	4	4
72	27.1964	0.01161	0	0	2.63296e-035	0	1	4	4
66	27.0222	0.191565	0	0	2.63296e-035	0	1	4	4
72	27.1964	0.017416	0	0	2.63296e-035	0	1	4	4
66	27.0222	0.197369	0	0	2.63296e-035	0	1	4	4
72	27.1964	0.0232201	0	0	2.63296e-035	0	1	4	4
66	27.0222	0.203175	0	0	2.63296e-035	0	1	4	4
72	27.1964	0.029026	0	0	2.63296e-035	0	1	4	4
66	27.0222	0.208979	0	0	2.63296e-035	0	1	4	4
72	27.1964	0.0348301	0	0	2.63296e-035	0	1	4	4
66	27.0222	0.214785	0	0	2.63296e-035	0	1	4	4
72	27.1964	0.0406361	0	0	2.63296e-035	0	1	4	4
66	27.0222	0.220589	0	0	2.63296e-035	0	1	4	4
72	27.1964	0.0464401	0	0	2.63296e-035	0	1	4	4
66	27.0222	0.226395	0	0	2.63296e-035	0	1	4	4
72	27.1964	0.0522461	0	0	2.63296e-035	0	1	4	4
66	27.0222	0.232199	0	0	2.63296e-035	0	1	4	4
72	27.1964	0.319275	0	0	2.63296e-035	0	1	4	4
71	27.5215	0.0870762	0	0	2.63296e-035	0	1	4	4
72	27.6085	0.255419	0	0	2.63296e-035	0	1	4	4
70	27.8698	0.214783	0	0	2.63296e-035	0	1	4	4
65	28.4677	0.255419	0	0	2.63296e-035	0	1	4	4
72	28.9263	0.10449	0	0	2.63296e-035	0	1	4	4
74	29.0307	0.679184	0	0	2.63296e-035	0	1	4	4
