midiPitch 	 onsetSec 	 durationSec 	 onsetBeats 	 onsetBarIndex 	 onsetBar 	 durationBeats 	 velocity  	 numerator 	 denominator 
56	0.168345	0.0406349	0	0	0	0	1	4	4
56	0.22059	0.0290249	0	0	0	0	1	4	4
56	0.261224	0.02322	0	0	0	0	1	4	4
56	0.359909	0.0406349	0	0	0	0	1	4	4
56	0.446984	0.0986848	0	0	0	0	1	4	4
52	0.545669	0.0638549	0	0	0	0	1	4	4
66	0.667574	0.452789	0	0	0	0	1	4	4
66	1.13778	0.0580498	0	0	0	0	1	4	4
66	1.20163	0.0696598	0	0	0	0	1	4	4
66	1.2771	0.2322	0	0	0	0	1	4	4
63	1.5093	0.040635	0	0	0	0	1	4	4
63	1.59057	0.03483	0	0	0	0	1	4	4
67	1.68345	0.0232199	0	0	0	0	1	4	4
63	1.71247	0.029025	0	0	0	0	1	4	4
63	1.75311	0.0290248	0	0	0	0	1	4	4
63	1.78794	0.0232199	0	0	0	0	1	4	4
63	1.82277	0.10449	0	0	0	0	1	4	4
63	1.92726	0.0754648	0	0	0	0	1	4	4
67	2.4381	0.0290251	0	0	0	0	1	4	4
67	2.48454	0.0464399	0	0	0	0	1	4	4
67	2.56	0.0986848	0	0	0	0	1	4	4
67	2.68771	0.208979	0	0	0	0	1	4	4
67	2.9141	0.203175	0	0	0	0	1	4	4
68	3.29723	0.145125	0	0	0	0	1	4	4
68	3.44236	0.0580499	0	0	0	0	1	4	4
68	3.50041	0.133515	0	0	0	0	1	4	4
68	3.65714	0.0870748	0	0	0	0	1	4	4
68	3.74422	0.0290248	0	0	0	0	1	4	4
75	3.76163	0.12771	0	0	0	0	1	4	4
68	3.88934	0.0406349	0	0	0	0	1	4	4
75	3.91837	0.0638547	0	0	0	0	1	4	4
71	4.22023	0.0464396	0	0	0	0	1	4	4
71	4.26667	0.0754652	0	0	0	0	1	4	4
71	4.34213	0.220589	0	0	0	0	1	4	4
71	4.56272	0.27864	0	0	0	0	1	4	4
71	4.84136	0.18576	0	0	0	0	1	4	4
71	5.10258	0.13932	0	0	0	0	1	4	4
71	5.2419	0.441179	0	0	0	0	1	4	4
78	5.83982	0.0406351	0	0	0	0	1	4	4
78	5.88045	0.272834	0	0	0	0	1	4	4
84	9.86848	0.423764	0	0	0	0	1	4	4
87	11.2849	0.0870752	0	0	0	0	1	4	4
84	11.8944	0.116099	0	0	0	0	1	4	4
86	12.144	0.0464401	0	0	0	0	1	4	4
62	12.0628	0.19737	0	0	0	0	1	4	4
62	12.2601	0.406349	0	0	0	0	1	4	4
62	12.6665	0.31347	0	0	0	0	1	4	4
74	13.0032	0.0348291	0	0	0	0	1	4	4
74	13.0496	0.12771	0	0	0	0	1	4	4
74	13.1889	0.0812693	0	0	0	0	1	4	4
74	13.2702	0.0754652	0	0	0	0	1	4	4
74	13.3457	0.0290251	0	0	0	0	1	4	4
75	13.3921	0.0406342	0	0	0	0	1	4	4
74	13.4327	0.30186	0	0	0	0	1	4	4
74	13.7346	0.0754652	0	0	0	0	1	4	4
74	13.8159	0.110294	0	0	0	0	1	4	4
75	13.9262	0.0290251	0	0	0	0	1	4	4
74	13.9552	0.0986843	0	0	0	0	1	4	4
62	13.9262	0.348299	0	0	0	0	1	4	4
62	14.2745	0.249615	0	0	0	0	1	4	4
62	14.5241	0.0232201	0	0	0	0	1	4	4
62	14.6054	0.0464401	0	0	0	0	1	4	4
62	14.6518	0.104489	0	0	0	0	1	4	4
62	14.7563	0.0638552	0	0	0	0	1	4	4
62	14.8201	0.0290251	0	0	0	0	1	4	4
62	14.884	0.0812702	0	0	0	0	1	4	4
63	15.9579	0.0406351	0	0	0	0	1	4	4
63	16.0044	0.0232201	0	0	0	0	1	4	4
63	16.103	0.197369	0	0	0	0	1	4	4
63	16.341	0.0406342	0	0	0	0	1	4	4
63	16.3875	0.185759	0	0	0	0	1	4	4
63	16.5907	0.0406342	0	0	0	0	1	4	4
58	16.788	0.0986843	0	0	0	0	1	4	4
58	16.8867	0.029026	0	0	0	0	1	4	4
63	16.9622	0.116098	0	0	0	0	1	4	4
63	17.1712	0.16254	0	0	0	0	1	4	4
63	17.3801	0.801088	0	0	0	0	1	4	4
63	18.1812	0.0580502	0	0	0	0	1	4	4
66	18.4599	0.145124	0	0	0	0	1	4	4
66	18.7501	0.342495	0	0	0	0	1	4	4
63	19.139	0.394739	0	0	0	0	1	4	4
63	19.5338	0.10449	0	0	0	0	1	4	4
63	19.6383	0.0290241	0	0	0	0	1	4	4
63	19.6731	0.446983	0	0	0	0	1	4	4
63	20.1375	0.0812702	0	0	0	0	1	4	4
66	20.2536	0.168344	0	0	0	0	1	4	4
63	20.4219	0.0580502	0	0	0	0	1	4	4
63	20.48	0.121904	0	0	0	0	1	4	4
63	20.6019	0.0348301	0	0	0	0	1	4	4
63	20.6367	0.0406361	0	0	0	0	1	4	4
63	20.689	0.150928	0	0	0	0	1	4	4
63	20.8457	0.0580502	0	0	0	0	1	4	4
63	20.9038	0.0348282	0	0	0	0	1	4	4
63	20.9444	0.0232201	0	0	0	0	1	4	4
63	20.9734	0.0870762	0	0	0	0	1	4	4
63	21.0779	0.0406342	0	0	0	0	1	4	4
63	21.1244	0.0290241	0	0	0	0	1	4	4
63	21.2114	0.121904	0	0	0	0	1	4	4
63	21.3624	0.133514	0	0	0	0	1	4	4
63	21.5017	0.249613	0	0	0	0	1	4	4
63	21.7919	0.0522442	0	0	0	0	1	4	4
63	22.0299	0.0580502	0	0	0	0	1	4	4
63	22.1402	0.197371	0	0	0	0	1	4	4
63	22.3376	0.0232182	0	0	0	0	1	4	4
63	22.3608	0.17415	0	0	0	0	1	4	4
63	22.535	0.16254	0	0	0	0	1	4	4
63	22.7614	0.0290241	0	0	0	0	1	4	4
63	22.8078	0.0580502	0	0	0	0	1	4	4
63	22.8659	0.0290241	0	0	0	0	1	4	4
63	22.8949	0.0232201	0	0	0	0	1	4	4
63	23.04	0.0986862	0	0	0	0	1	4	4
63	23.1851	0.0986862	0	0	0	0	1	4	4
63	23.3244	0.0522442	0	0	0	0	1	4	4
63	23.4986	0.0696602	0	0	0	0	1	4	4
63	23.6089	0.185759	0	0	0	0	1	4	4
63	23.7946	0.110296	0	0	0	0	1	4	4
63	23.9049	0.0870743	0	0	0	0	1	4	4
63	23.992	0.0290241	0	0	0	0	1	4	4
63	24.0559	0.0638561	0	0	0	0	1	4	4
63	24.1313	0.0754642	0	0	0	0	1	4	4
63	24.2358	0.029026	0	0	0	0	1	4	4
63	24.2707	0.156734	0	0	0	0	1	4	4
63	24.4274	0.238005	0	0	0	0	1	4	4
70	26.3314	0.121904	0	0	0	0	1	4	4
70	26.4707	0.203175	0	0	0	0	1	4	4
70	26.7262	0.185759	0	0	0	0	1	4	4
69	26.9119	0.0696602	0	0	0	0	1	4	4
69	27.2022	0.394739	0	0	0	0	1	4	4
68	27.5969	0.0522442	0	0	0	0	1	4	4
68	27.7943	0.15093	0	0	0	0	1	4	4
67	27.9858	0.029026	0	0	0	0	1	4	4
62	28.0149	0.185759	0	0	0	0	1	4	4
67	28.2529	0.0464382	0	0	0	0	1	4	4
62	28.2993	0.0348301	0	0	0	0	1	4	4
63	28.4386	0.261225	0	0	0	0	1	4	4
63	28.7231	0.0580502	0	0	0	0	1	4	4
66	28.8914	0.145124	0	0	0	0	1	4	4
63	29.321	0.0406342	0	0	0	0	1	4	4
67	29.3616	0.0928802	0	0	0	0	1	4	4
63	29.4545	0.0348301	0	0	0	0	1	4	4
67	29.5184	0.145126	0	0	0	0	1	4	4
