midiPitch 	 onsetSec 	 durationSec 	 onsetBeats 	 onsetBarIndex 	 onsetBar 	 durationBeats 	 velocity  	 numerator 	 denominator 
66	0.522449	0.0464399	0	0	2.95249e-035	0	1	4	4
70	0.603719	0.029025	0	0	2.95249e-035	0	1	4	4
66	0.731429	0.029025	0	0	2.95249e-035	0	1	4	4
63	0.760454	0.0348299	0	0	2.95249e-035	0	1	4	4
66	0.795283	0.0406349	0	0	2.95249e-035	0	1	4	4
67	0.841723	0.0232199	0	0	2.95249e-035	0	1	4	4
66	0.928798	0.0290249	0	0	2.95249e-035	0	1	4	4
64	1.14939	0.0812699	0	0	2.95249e-035	0	1	4	4
63	1.25968	0.0870748	0	0	2.95249e-035	0	1	4	4
63	1.34676	0.04644	0	0	2.95249e-035	0	1	4	4
65	1.3932	0.0232199	0	0	2.95249e-035	0	1	4	4
67	1.61379	0.03483	0	0	2.95249e-035	0	1	4	4
71	1.88662	0.0812699	0	0	2.95249e-035	0	1	4	4
67	2.00272	0.0290248	0	0	2.95249e-035	0	1	4	4
66	2.03755	0.19737	0	0	2.95249e-035	0	1	4	4
63	2.23492	0.203175	0	0	2.95249e-035	0	1	4	4
66	2.77478	0.238004	0	0	2.95249e-035	0	1	4	4
63	3.01279	0.307664	0	0	2.95249e-035	0	1	4	4
66	3.74422	0.16254	0	0	2.95249e-035	0	1	4	4
63	3.92417	0.522449	0	0	2.95249e-035	0	1	4	4
67	4.71946	0.0986848	0	0	2.95249e-035	0	1	4	4
66	4.81814	0.10449	0	0	2.95249e-035	0	1	4	4
66	4.92263	0.0638547	0	0	2.95249e-035	0	1	4	4
66	4.98649	0.203175	0	0	2.95249e-035	0	1	4	4
63	5.19546	0.15093	0	0	2.95249e-035	0	1	4	4
63	5.34639	0.272834	0	0	2.95249e-035	0	1	4	4
66	5.95011	0.284444	0	0	2.95249e-035	0	1	4	4
63	6.23456	0.18576	0	0	2.95249e-035	0	1	4	4
63	6.42032	0.0406351	0	0	2.95249e-035	0	1	4	4
63	6.47256	0.22059	0	0	2.95249e-035	0	1	4	4
66	6.7512	0.10449	0	0	2.95249e-035	0	1	4	4
63	6.85569	0.2322	0	0	2.95249e-035	0	1	4	4
63	7.20399	0.17415	0	0	2.95249e-035	0	1	4	4
66	7.72644	0.17415	0	0	2.95249e-035	0	1	4	4
63	7.90059	0.267029	0	0	2.95249e-035	0	1	4	4
63	8.19084	0.18576	0	0	2.95249e-035	0	1	4	4
66	8.70748	0.423763	0	0	2.95249e-035	0	1	4	4
63	9.13125	0.22059	0	0	2.95249e-035	0	1	4	4
66	9.99039	0.25542	0	0	2.95249e-035	0	1	4	4
66	10.7392	0.255419	0	0	2.95249e-035	0	1	4	4
63	11.1862	0.214785	0	0	2.95249e-035	0	1	4	4
66	11.6971	0.19737	0	0	2.95249e-035	0	1	4	4
63	12.1905	0.179955	0	0	2.95249e-035	0	1	4	4
66	12.6549	0.110295	0	0	2.95249e-035	0	1	4	4
66	12.9161	0.168344	0	0	2.95249e-035	0	1	4	4
63	13.4327	0.0986853	0	0	2.95249e-035	0	1	4	4
66	13.9146	0.31347	0	0	2.95249e-035	0	1	4	4
63	14.228	0.145124	0	0	2.95249e-035	0	1	4	4
63	14.3732	0.0348301	0	0	2.95249e-035	0	1	4	4
66	14.704	0.121905	0	0	2.95249e-035	0	1	4	4
66	14.8259	0.179955	0	0	2.95249e-035	0	1	4	4
63	15.1684	0.17415	0	0	2.95249e-035	0	1	4	4
66	15.6909	0.284445	0	0	2.95249e-035	0	1	4	4
66	15.9753	0.0232201	0	0	2.95249e-035	0	1	4	4
63	16.1785	0.17415	0	0	2.95249e-035	0	1	4	4
68	16.6313	0.1161	0	0	2.95249e-035	0	1	4	4
66	16.7474	0.0290241	0	0	2.95249e-035	0	1	4	4
66	16.9099	0.168344	0	0	2.95249e-035	0	1	4	4
65	17.0783	0.029026	0	0	2.95249e-035	0	1	4	4
63	17.1131	0.220591	0	0	2.95249e-035	0	1	4	4
63	17.3337	0.232199	0	0	2.95249e-035	0	1	4	4
66	17.9374	0.0464401	0	0	2.95249e-035	0	1	4	4
66	17.9839	0.179955	0	0	2.95249e-035	0	1	4	4
63	18.1638	0.238005	0	0	2.95249e-035	0	1	4	4
66	18.6746	0.17415	0	0	2.95249e-035	0	1	4	4
63	18.8952	0.383129	0	0	2.95249e-035	0	1	4	4
66	19.6673	0.197371	0	0	2.95249e-035	0	1	4	4
63	20.1433	0.185759	0	0	2.95249e-035	0	1	4	4
62	20.3291	0.029026	0	0	2.95249e-035	0	1	4	4
66	20.6309	0.179955	0	0	2.95249e-035	0	1	4	4
66	20.9038	0.174149	0	0	2.95249e-035	0	1	4	4
66	21.0779	0.0464401	0	0	2.95249e-035	0	1	4	4
63	21.1418	0.208981	0	0	2.95249e-035	0	1	4	4
63	21.374	0.121904	0	0	2.95249e-035	0	1	4	4
66	21.8906	0.203175	0	0	2.95249e-035	0	1	4	4
63	22.0938	0.243811	0	0	2.95249e-035	0	1	4	4
66	22.622	0.168344	0	0	2.95249e-035	0	1	4	4
0	22.7904	0.0754662	0	0	2.95249e-035	0	1	4	4
63	22.8659	0.0812702	0	0	2.95249e-035	0	1	4	4
63	23.1445	0.145124	0	0	2.95249e-035	0	1	4	4
66	23.6205	0.226395	0	0	2.95249e-035	0	1	4	4
63	23.9572	0.1161	0	0	2.95249e-035	0	1	4	4
63	24.0733	0.197369	0	0	2.95249e-035	0	1	4	4
66	24.8454	0.208981	0	0	2.95249e-035	0	1	4	4
66	25.0543	0.162539	0	0	2.95249e-035	0	1	4	4
67	25.3504	0.0290241	0	0	2.95249e-035	0	1	4	4
66	25.391	0.0348301	0	0	2.95249e-035	0	1	4	4
67	25.4317	0.029026	0	0	2.95249e-035	0	1	4	4
68	25.4665	0.197371	0	0	2.95249e-035	0	1	4	4
66	25.7509	0.0870743	0	0	2.95249e-035	0	1	4	4
66	25.838	0.284445	0	0	2.95249e-035	0	1	4	4
63	26.1224	0.179955	0	0	2.95249e-035	0	1	4	4
63	26.3024	0.0406361	0	0	2.95249e-035	0	1	4	4
63	26.3488	0.168344	0	0	2.95249e-035	0	1	4	4
66	26.6217	0.17415	0	0	2.95249e-035	0	1	4	4
63	26.8307	0.0812683	0	0	2.95249e-035	0	1	4	4
63	27.1151	0.156734	0	0	2.95249e-035	0	1	4	4
66	27.5911	0.15093	0	0	2.95249e-035	0	1	4	4
63	27.9046	0.0406361	0	0	2.95249e-035	0	1	4	4
63	27.951	0.0870762	0	0	2.95249e-035	0	1	4	4
63	28.0381	0.0638542	0	0	2.95249e-035	0	1	4	4
63	28.1019	0.16254	0	0	2.95249e-035	0	1	4	4
66	28.8334	0.348299	0	0	2.95249e-035	0	1	4	4
68	29.4371	0.174149	0	0	2.95249e-035	0	1	4	4
