midiPitch 	 onsetSec 	 durationSec 	 onsetBeats 	 onsetBarIndex 	 onsetBar 	 durationBeats 	 velocity  	 numerator 	 denominator 
60	0.145125	0.0348299	0	0	1.97458e-035	0	1	4	4
60	0.238005	0.0638549	0	0	1.97458e-035	0	1	4	4
60	0.301859	0.0406349	0	0	1.97458e-035	0	1	4	4
64	0.388934	0.0580499	0	0	1.97458e-035	0	1	4	4
61	0.464399	0.0232199	0	0	1.97458e-035	0	1	4	4
64	0.638549	0.0870748	0	0	1.97458e-035	0	1	4	4
64	0.905578	0.0406349	0	0	1.97458e-035	0	1	4	4
63	1.02168	0.0232199	0	0	1.97458e-035	0	1	4	4
63	1.09134	0.0232199	0	0	1.97458e-035	0	1	4	4
64	1.13778	0.0464399	0	0	1.97458e-035	0	1	4	4
64	1.18422	0.0638548	0	0	1.97458e-035	0	1	4	4
64	1.30032	0.17415	0	0	1.97458e-035	0	1	4	4
64	1.47447	0.029025	0	0	1.97458e-035	0	1	4	4
62	1.72408	0.0464399	0	0	1.97458e-035	0	1	4	4
61	1.79374	0.0464399	0	0	1.97458e-035	0	1	4	4
65	2.08399	0.0232201	0	0	1.97458e-035	0	1	4	4
65	2.11882	0.0290248	0	0	1.97458e-035	0	1	4	4
65	2.2117	0.0638549	0	0	1.97458e-035	0	1	4	4
64	2.31039	0.0406349	0	0	1.97458e-035	0	1	4	4
63	2.35102	0.0580499	0	0	1.97458e-035	0	1	4	4
62	2.70512	0.0406349	0	0	1.97458e-035	0	1	4	4
62	2.75156	0.0232201	0	0	1.97458e-035	0	1	4	4
61	2.83864	0.0406349	0	0	1.97458e-035	0	1	4	4
61	2.88508	0.0348299	0	0	1.97458e-035	0	1	4	4
60	2.95474	0.0232201	0	0	1.97458e-035	0	1	4	4
60	3.01279	0.0232201	0	0	1.97458e-035	0	1	4	4
59	3.08825	0.0232198	0	0	1.97458e-035	0	1	4	4
58	3.31465	0.0290251	0	0	1.97458e-035	0	1	4	4
58	3.55265	0.0232198	0	0	1.97458e-035	0	1	4	4
58	3.6107	0.0406349	0	0	1.97458e-035	0	1	4	4
60	3.78485	0.0464399	0	0	1.97458e-035	0	1	4	4
60	3.86032	0.0812697	0	0	1.97458e-035	0	1	4	4
60	3.94159	0.0464399	0	0	1.97458e-035	0	1	4	4
65	4.40599	0.0232201	0	0	1.97458e-035	0	1	4	4
64	4.51048	0.0232201	0	0	1.97458e-035	0	1	4	4
64	4.5395	0.0232196	0	0	1.97458e-035	0	1	4	4
60	4.68463	0.0348301	0	0	1.97458e-035	0	1	4	4
60	4.81814	0.0232201	0	0	1.97458e-035	0	1	4	4
60	4.84136	0.0406346	0	0	1.97458e-035	0	1	4	4
62	6.10104	0.0232201	0	0	1.97458e-035	0	1	4	4
63	6.66413	0.0464401	0	0	1.97458e-035	0	1	4	4
63	6.84408	0.20898	0	0	1.97458e-035	0	1	4	4
63	7.33751	0.0464401	0	0	1.97458e-035	0	1	4	4
63	7.45941	0.0580502	0	0	1.97458e-035	0	1	4	4
63	7.62195	0.0986848	0	0	1.97458e-035	0	1	4	4
63	7.77868	0.0638547	0	0	1.97458e-035	0	1	4	4
61	8.22567	0.0290251	0	0	1.97458e-035	0	1	4	4
63	8.34757	0.0290251	0	0	1.97458e-035	0	1	4	4
62	8.42884	0.0290251	0	0	1.97458e-035	0	1	4	4
67	8.59719	0.0348301	0	0	1.97458e-035	0	1	4	4
65	8.7249	0.0232201	0	0	1.97458e-035	0	1	4	4
60	8.75392	0.0290251	0	0	1.97458e-035	0	1	4	4
60	8.79456	0.0348301	0	0	1.97458e-035	0	1	4	4
60	8.88744	0.0406342	0	0	1.97458e-035	0	1	4	4
62	8.93968	0.0348301	0	0	1.97458e-035	0	1	4	4
64	9.17188	0.0290251	0	0	1.97458e-035	0	1	4	4
61	9.29959	0.0290241	0	0	1.97458e-035	0	1	4	4
64	9.35184	0.0290251	0	0	1.97458e-035	0	1	4	4
57	9.45052	0.0406351	0	0	1.97458e-035	0	1	4	4
52	9.49116	0.272834	0	0	1.97458e-035	0	1	4	4
60	9.91492	0.0232201	0	0	1.97458e-035	0	1	4	4
60	9.97297	0.0406351	0	0	1.97458e-035	0	1	4	4
60	10.0194	0.0232201	0	0	1.97458e-035	0	1	4	4
55	10.1936	0.0290251	0	0	1.97458e-035	0	1	4	4
55	10.269	0.0290251	0	0	1.97458e-035	0	1	4	4
56	10.4838	0.0232201	0	0	1.97458e-035	0	1	4	4
56	10.6696	0.0348301	0	0	1.97458e-035	0	1	4	4
56	10.7392	0.0870743	0	0	1.97458e-035	0	1	4	4
56	10.9888	0.0696602	0	0	1.97458e-035	0	1	4	4
51	11.2617	0.0870752	0	0	1.97458e-035	0	1	4	4
56	11.7203	0.0290251	0	0	1.97458e-035	0	1	4	4
56	11.7551	0.0464392	0	0	1.97458e-035	0	1	4	4
56	11.8015	0.0290251	0	0	1.97458e-035	0	1	4	4
56	11.9873	0.0232191	0	0	1.97458e-035	0	1	4	4
55	12.2717	0.0406351	0	0	1.97458e-035	0	1	4	4
55	12.5736	0.0232201	0	0	1.97458e-035	0	1	4	4
55	12.7013	0.0232201	0	0	1.97458e-035	0	1	4	4
55	12.7478	0.0348301	0	0	1.97458e-035	0	1	4	4
55	12.8348	0.0290251	0	0	1.97458e-035	0	1	4	4
60	12.9103	0.0290251	0	0	1.97458e-035	0	1	4	4
57	12.9974	0.0232191	0	0	1.97458e-035	0	1	4	4
57	13.038	0.0290251	0	0	1.97458e-035	0	1	4	4
55	13.3805	0.0406351	0	0	1.97458e-035	0	1	4	4
55	13.4269	0.30186	0	0	1.97458e-035	0	1	4	4
55	14.466	0.0348301	0	0	1.97458e-035	0	1	4	4
59	14.9072	0.0232201	0	0	1.97458e-035	0	1	4	4
51	14.9769	0.0928793	0	0	1.97458e-035	0	1	4	4
56	15.093	0.0638552	0	0	1.97458e-035	0	1	4	4
56	15.1568	0.0290251	0	0	1.97458e-035	0	1	4	4
60	15.5574	0.0232201	0	0	1.97458e-035	0	1	4	4
63	16.103	0.0754642	0	0	1.97458e-035	0	1	4	4
58	16.5558	0.0290241	0	0	1.97458e-035	0	1	4	4
55	16.73	0.0232201	0	0	1.97458e-035	0	1	4	4
55	16.7648	0.0232201	0	0	1.97458e-035	0	1	4	4
55	16.8054	0.0290241	0	0	1.97458e-035	0	1	4	4
55	16.9041	0.0348301	0	0	1.97458e-035	0	1	4	4
57	17.4034	0.0290241	0	0	1.97458e-035	0	1	4	4
57	17.502	0.0812702	0	0	1.97458e-035	0	1	4	4
57	17.5833	0.0232201	0	0	1.97458e-035	0	1	4	4
52	17.6181	0.156734	0	0	1.97458e-035	0	1	4	4
52	17.7749	0.156734	0	0	1.97458e-035	0	1	4	4
55	17.9897	0.0406342	0	0	1.97458e-035	0	1	4	4
55	18.0361	0.0290241	0	0	1.97458e-035	0	1	4	4
55	18.0709	0.0348301	0	0	1.97458e-035	0	1	4	4
52	18.187	0.029026	0	0	1.97458e-035	0	1	4	4
55	18.2335	0.121904	0	0	1.97458e-035	0	1	4	4
56	18.7385	0.156734	0	0	1.97458e-035	0	1	4	4
57	18.9475	0.0232201	0	0	1.97458e-035	0	1	4	4
56	18.9881	0.029026	0	0	1.97458e-035	0	1	4	4
56	19.0636	0.0348301	0	0	1.97458e-035	0	1	4	4
57	19.4467	0.168344	0	0	1.97458e-035	0	1	4	4
57	19.7428	0.0406361	0	0	1.97458e-035	0	1	4	4
51	20.0678	0.0406342	0	0	1.97458e-035	0	1	4	4
63	20.2014	0.0406342	0	0	1.97458e-035	0	1	4	4
63	20.6193	0.0232201	0	0	1.97458e-035	0	1	4	4
56	20.66	0.0232201	0	0	1.97458e-035	0	1	4	4
65	21.6584	0.0290241	0	0	1.97458e-035	0	1	4	4
68	22.2273	0.0464401	0	0	1.97458e-035	0	1	4	4
68	22.3434	0.0348301	0	0	1.97458e-035	0	1	4	4
68	22.3782	0.0290241	0	0	1.97458e-035	0	1	4	4
60	22.5582	0.0464401	0	0	1.97458e-035	0	1	4	4
64	22.7091	0.0290241	0	0	1.97458e-035	0	1	4	4
69	22.773	0.0406342	0	0	1.97458e-035	0	1	4	4
68	22.9936	0.168346	0	0	1.97458e-035	0	1	4	4
65	24.3055	0.0348301	0	0	1.97458e-035	0	1	4	4
67	24.5783	0.0290241	0	0	1.97458e-035	0	1	4	4
67	24.6596	0.0406342	0	0	1.97458e-035	0	1	4	4
69	24.7583	0.0232201	0	0	1.97458e-035	0	1	4	4
69	24.7815	0.0232201	0	0	1.97458e-035	0	1	4	4
68	25.2807	0.0870743	0	0	1.97458e-035	0	1	4	4
67	25.5187	0.0696602	0	0	1.97458e-035	0	1	4	4
67	25.6058	0.0754642	0	0	1.97458e-035	0	1	4	4
66	25.6929	0.0232201	0	0	1.97458e-035	0	1	4	4
68	25.7741	0.10449	0	0	1.97458e-035	0	1	4	4
68	25.8786	0.0406342	0	0	1.97458e-035	0	1	4	4
68	26.3256	0.0232201	0	0	1.97458e-035	0	1	4	4
69	26.3721	0.0406361	0	0	1.97458e-035	0	1	4	4
64	26.6159	0.0348282	0	0	1.97458e-035	0	1	4	4
68	26.819	0.0232201	0	0	1.97458e-035	0	1	4	4
69	26.8481	0.0232201	0	0	1.97458e-035	0	1	4	4
69	26.8829	0.15093	0	0	1.97458e-035	0	1	4	4
63	27.3531	0.0232201	0	0	1.97458e-035	0	1	4	4
69	28.8856	0.0232182	0	0	1.97458e-035	0	1	4	4
68	28.9553	0.0232201	0	0	1.97458e-035	0	1	4	4
67	28.9785	0.0580502	0	0	1.97458e-035	0	1	4	4
68	29.0946	0.0232201	0	0	1.97458e-035	0	1	4	4
68	29.3616	0.0754662	0	0	1.97458e-035	0	1	4	4
68	29.4777	0.0232201	0	0	1.97458e-035	0	1	4	4
68	29.5184	0.0232201	0	0	1.97458e-035	0	1	4	4
67	29.559	0.0232201	0	0	1.97458e-035	0	1	4	4
