midiPitch 	 onsetSec 	 durationSec 	 onsetBeats 	 onsetBarIndex 	 onsetBar 	 durationBeats 	 velocity  	 numerator 	 denominator 
55	0.644354	0.371519	0	0	2.51964e-035	0	1	4	4
54	1.61959	0.0464399	0	0	2.51964e-035	0	1	4	4
64	1.98531	0.156735	0	0	2.51964e-035	0	1	4	4
62	2.51937	0.203175	0	0	2.51964e-035	0	1	4	4
62	2.85605	0.0290251	0	0	2.51964e-035	0	1	4	4
62	2.89088	0.319274	0	0	2.51964e-035	0	1	4	4
55	3.58748	0.1161	0	0	2.51964e-035	0	1	4	4
69	4.15637	0.0290251	0	0	2.51964e-035	0	1	4	4
57	4.27828	0.110295	0	0	2.51964e-035	0	1	4	4
57	4.38857	0.12771	0	0	2.51964e-035	0	1	4	4
60	4.51628	0.307664	0	0	2.51964e-035	0	1	4	4
61	5.06776	0.110294	0	0	2.51964e-035	0	1	4	4
58	5.17805	0.336689	0	0	2.51964e-035	0	1	4	4
53	6.1649	0.481814	0	0	2.51964e-035	0	1	4	4
62	7.61615	0.278639	0	0	2.51964e-035	0	1	4	4
62	7.93542	0.313469	0	0	2.51964e-035	0	1	4	4
53	8.98612	0.261225	0	0	2.51964e-035	0	1	4	4
55	9.85107	0.17415	0	0	2.51964e-035	0	1	4	4
56	10.0252	0.179955	0	0	2.51964e-035	0	1	4	4
0	10.2052	0.13932	0	0	2.51964e-035	0	1	4	4
55	10.3445	0.0870743	0	0	2.51964e-035	0	1	4	4
55	10.7624	0.3483	0	0	2.51964e-035	0	1	4	4
54	11.7725	0.0986843	0	0	2.51964e-035	0	1	4	4
62	12.7187	0.214785	0	0	2.51964e-035	0	1	4	4
62	13.0206	0.197371	0	0	2.51964e-035	0	1	4	4
62	13.218	0.179955	0	0	2.51964e-035	0	1	4	4
55	13.6533	0.19737	0	0	2.51964e-035	0	1	4	4
56	14.0713	0.0406351	0	0	2.51964e-035	0	1	4	4
56	14.1177	0.261225	0	0	2.51964e-035	0	1	4	4
57	14.4022	0.261224	0	0	2.51964e-035	0	1	4	4
61	14.6634	0.168345	0	0	2.51964e-035	0	1	4	4
60	15.0756	0.13932	0	0	2.51964e-035	0	1	4	4
60	15.3716	0.296055	0	0	2.51964e-035	0	1	4	4
59	15.8476	0.179954	0	0	2.51964e-035	0	1	4	4
58	16.0276	0.15093	0	0	2.51964e-035	0	1	4	4
58	16.1785	0.0638542	0	0	2.51964e-035	0	1	4	4
57	16.3236	0.156734	0	0	2.51964e-035	0	1	4	4
57	16.4804	0.168344	0	0	2.51964e-035	0	1	4	4
53	16.6487	0.59211	0	0	2.51964e-035	0	1	4	4
60	17.6414	0.0812702	0	0	2.51964e-035	0	1	4	4
62	17.7923	0.232201	0	0	2.51964e-035	0	1	4	4
62	18.1638	0.145124	0	0	2.51964e-035	0	1	4	4
62	18.3263	0.121904	0	0	2.51964e-035	0	1	4	4
60	18.5527	0.307663	0	0	2.51964e-035	0	1	4	4
62	18.8662	0.208979	0	0	2.51964e-035	0	1	4	4
65	19.0752	0.272835	0	0	2.51964e-035	0	1	4	4
69	20.0562	0.441179	0	0	2.51964e-035	0	1	4	4
68	20.4974	0.0348282	0	0	2.51964e-035	0	1	4	4
67	20.538	0.15093	0	0	2.51964e-035	0	1	4	4
68	20.689	0.110294	0	0	2.51964e-035	0	1	4	4
65	20.7993	0.208979	0	0	2.51964e-035	0	1	4	4
62	21.0837	0.249613	0	0	2.51964e-035	0	1	4	4
60	21.6062	0.10449	0	0	2.51964e-035	0	1	4	4
62	21.7977	0.13932	0	0	2.51964e-035	0	1	4	4
65	21.9371	0.261225	0	0	2.51964e-035	0	1	4	4
53	22.5582	0.429569	0	0	2.51964e-035	0	1	4	4
65	23.6669	0.150928	0	0	2.51964e-035	0	1	4	4
67	23.8179	0.110296	0	0	2.51964e-035	0	1	4	4
68	23.9282	0.203175	0	0	2.51964e-035	0	1	4	4
69	24.2242	0.220591	0	0	2.51964e-035	0	1	4	4
72	24.468	0.940409	0	0	2.51964e-035	0	1	4	4
74	25.42	0.0986862	0	0	2.51964e-035	0	1	4	4
68	25.5187	0.185759	0	0	2.51964e-035	0	1	4	4
73	25.7045	0.0986862	0	0	2.51964e-035	0	1	4	4
68	25.8961	0.301861	0	0	2.51964e-035	0	1	4	4
67	26.3024	0.0406361	0	0	2.51964e-035	0	1	4	4
65	26.7784	0.505033	0	0	2.51964e-035	0	1	4	4
69	27.3009	0.226395	0	0	2.51964e-035	0	1	4	4
60	28.6941	0.301859	0	0	2.51964e-035	0	1	4	4
62	28.9959	0.203175	0	0	2.51964e-035	0	1	4	4
65	29.2107	0.191565	0	0	2.51964e-035	0	1	4	4
