midiPitch 	 onsetSec 	 durationSec 	 onsetBeats 	 onsetBarIndex 	 onsetBar 	 durationBeats 	 velocity  	 numerator 	 denominator 
61	0.0464399	0.0638549	0	0	4.60753e-035	0	1	4	4
65	0.110295	0.1161	0	0	4.60753e-035	0	1	4	4
61	0.24381	0.0348299	0	0	4.60753e-035	0	1	4	4
66	0.342494	0.0754648	0	0	4.60753e-035	0	1	4	4
61	0.435374	0.0522449	0	0	4.60753e-035	0	1	4	4
66	0.487619	0.0638549	0	0	4.60753e-035	0	1	4	4
61	0.551474	0.13932	0	0	4.60753e-035	0	1	4	4
65	0.690794	0.0580499	0	0	4.60753e-035	0	1	4	4
61	0.748844	0.203175	0	0	4.60753e-035	0	1	4	4
66	0.952018	0.0406349	0	0	4.60753e-035	0	1	4	4
68	0.992653	0.0348299	0	0	4.60753e-035	0	1	4	4
68	1.03909	0.03483	0	0	4.60753e-035	0	1	4	4
67	1.15519	0.1161	0	0	4.60753e-035	0	1	4	4
67	1.27129	0.0232199	0	0	4.60753e-035	0	1	4	4
68	1.42222	0.0580499	0	0	4.60753e-035	0	1	4	4
68	1.67764	0.15093	0	0	4.60753e-035	0	1	4	4
69	1.90984	0.0928799	0	0	4.60753e-035	0	1	4	4
68	2.00272	0.0232198	0	0	4.60753e-035	0	1	4	4
68	2.28136	0.0464401	0	0	4.60753e-035	0	1	4	4
69	2.33361	0.08127	0	0	4.60753e-035	0	1	4	4
68	2.55419	0.0406349	0	0	4.60753e-035	0	1	4	4
68	2.61224	0.0290248	0	0	4.60753e-035	0	1	4	4
68	2.76317	0.10449	0	0	4.60753e-035	0	1	4	4
65	3.13469	0.0986848	0	0	4.60753e-035	0	1	4	4
68	3.23338	0.0232198	0	0	4.60753e-035	0	1	4	4
68	3.28562	0.0754647	0	0	4.60753e-035	0	1	4	4
66	3.6049	0.0870748	0	0	4.60753e-035	0	1	4	4
65	3.75002	0.13932	0	0	4.60753e-035	0	1	4	4
68	3.90095	0.0232198	0	0	4.60753e-035	0	1	4	4
68	3.92998	0.0696599	0	0	4.60753e-035	0	1	4	4
67	4.05769	0.0696602	0	0	4.60753e-035	0	1	4	4
66	4.22023	0.0232201	0	0	4.60753e-035	0	1	4	4
66	4.25506	0.0290251	0	0	4.60753e-035	0	1	4	4
72	4.4234	0.22059	0	0	4.60753e-035	0	1	4	4
68	4.64399	0.0348296	0	0	4.60753e-035	0	1	4	4
72	4.72526	0.110295	0	0	4.60753e-035	0	1	4	4
72	4.83556	0.0986848	0	0	4.60753e-035	0	1	4	4
70	4.93424	0.168344	0	0	4.60753e-035	0	1	4	4
70	5.10258	0.12771	0	0	4.60753e-035	0	1	4	4
72	5.29415	0.0638552	0	0	4.60753e-035	0	1	4	4
68	5.358	0.255419	0	0	4.60753e-035	0	1	4	4
68	5.85143	0.0290251	0	0	4.60753e-035	0	1	4	4
61	6.78603	0.0290251	0	0	4.60753e-035	0	1	4	4
59	6.81506	0.226394	0	0	4.60753e-035	0	1	4	4
65	7.23302	0.0870752	0	0	4.60753e-035	0	1	4	4
65	7.38395	0.156734	0	0	4.60753e-035	0	1	4	4
68	7.54068	0.15093	0	0	4.60753e-035	0	1	4	4
63	7.69161	0.0986848	0	0	4.60753e-035	0	1	4	4
63	7.92961	0.10449	0	0	4.60753e-035	0	1	4	4
63	8.0341	0.20898	0	0	4.60753e-035	0	1	4	4
63	8.24308	0.0580502	0	0	4.60753e-035	0	1	4	4
60	8.39982	0.423764	0	0	4.60753e-035	0	1	4	4
59	8.86422	0.17415	0	0	4.60753e-035	0	1	4	4
58	9.09061	0.191565	0	0	4.60753e-035	0	1	4	4
68	9.64209	0.0406351	0	0	4.60753e-035	0	1	4	4
70	9.96716	0.10449	0	0	4.60753e-035	0	1	4	4
61	10.1878	0.168344	0	0	4.60753e-035	0	1	4	4
68	10.6638	0.127709	0	0	4.60753e-035	0	1	4	4
60	10.7973	0.13932	0	0	4.60753e-035	0	1	4	4
59	10.9424	0.150929	0	0	4.60753e-035	0	1	4	4
56	11.3429	0.162539	0	0	4.60753e-035	0	1	4	4
57	11.7667	0.0580492	0	0	4.60753e-035	0	1	4	4
58	11.8248	0.0290251	0	0	4.60753e-035	0	1	4	4
68	11.9351	0.0406351	0	0	4.60753e-035	0	1	4	4
68	12.353	0.121904	0	0	4.60753e-035	0	1	4	4
68	13.1193	0.0232201	0	0	4.60753e-035	0	1	4	4
60	13.1715	0.0928793	0	0	4.60753e-035	0	1	4	4
59	13.2644	0.10449	0	0	4.60753e-035	0	1	4	4
60	13.3689	0.359909	0	0	4.60753e-035	0	1	4	4
51	13.961	0.0232201	0	0	4.60753e-035	0	1	4	4
59	14.0307	0.243809	0	0	4.60753e-035	0	1	4	4
56	14.2745	0.0290251	0	0	4.60753e-035	0	1	4	4
60	15.0059	0.371519	0	0	4.60753e-035	0	1	4	4
58	15.5458	0.0870752	0	0	4.60753e-035	0	1	4	4
60	15.7025	0.0406351	0	0	4.60753e-035	0	1	4	4
59	15.7431	0.0232201	0	0	4.60753e-035	0	1	4	4
60	15.8534	0.301859	0	0	4.60753e-035	0	1	4	4
60	16.1553	0.10449	0	0	4.60753e-035	0	1	4	4
60	16.2598	0.0754642	0	0	4.60753e-035	0	1	4	4
60	16.3352	0.179955	0	0	4.60753e-035	0	1	4	4
58	16.5152	0.133514	0	0	4.60753e-035	0	1	4	4
63	17.1828	0.156734	0	0	4.60753e-035	0	1	4	4
60	17.3743	0.0986843	0	0	4.60753e-035	0	1	4	4
61	17.5891	0.359909	0	0	4.60753e-035	0	1	4	4
59	18.0245	0.208979	0	0	4.60753e-035	0	1	4	4
58	18.2335	0.406349	0	0	4.60753e-035	0	1	4	4
58	18.663	0.249615	0	0	4.60753e-035	0	1	4	4
62	19.4235	0.516644	0	0	4.60753e-035	0	1	4	4
65	20.0098	0.0406342	0	0	4.60753e-035	0	1	4	4
62	20.0562	0.238003	0	0	4.60753e-035	0	1	4	4
70	20.3639	0.0870762	0	0	4.60753e-035	0	1	4	4
61	20.9328	0.0754642	0	0	4.60753e-035	0	1	4	4
61	21.0083	0.0232201	0	0	4.60753e-035	0	1	4	4
68	21.4552	0.0232201	0	0	4.60753e-035	0	1	4	4
67	21.7281	0.029026	0	0	4.60753e-035	0	1	4	4
68	21.8151	0.0522442	0	0	4.60753e-035	0	1	4	4
68	22.0183	0.0232201	0	0	4.60753e-035	0	1	4	4
68	22.1983	0.0290241	0	0	4.60753e-035	0	1	4	4
68	22.2331	0.0638542	0	0	4.60753e-035	0	1	4	4
67	22.297	0.0232201	0	0	4.60753e-035	0	1	4	4
68	22.3956	0.0348301	0	0	4.60753e-035	0	1	4	4
68	22.5988	0.0406361	0	0	4.60753e-035	0	1	4	4
69	22.6685	0.0232201	0	0	4.60753e-035	0	1	4	4
70	22.773	0.0406342	0	0	4.60753e-035	0	1	4	4
68	23.011	0.0348301	0	0	4.60753e-035	0	1	4	4
68	23.2025	0.0638542	0	0	4.60753e-035	0	1	4	4
68	23.3999	0.0232201	0	0	4.60753e-035	0	1	4	4
69	23.4638	0.0232201	0	0	4.60753e-035	0	1	4	4
68	23.5799	0.0348301	0	0	4.60753e-035	0	1	4	4
72	23.7366	0.0290241	0	0	4.60753e-035	0	1	4	4
72	23.7714	0.168344	0	0	4.60753e-035	0	1	4	4
72	24.021	0.0348301	0	0	4.60753e-035	0	1	4	4
69	24.0907	0.0232201	0	0	4.60753e-035	0	1	4	4
72	24.1139	0.0232201	0	0	4.60753e-035	0	1	4	4
68	24.1371	0.0232201	0	0	4.60753e-035	0	1	4	4
72	24.1604	0.0986843	0	0	4.60753e-035	0	1	4	4
70	24.3345	0.0348301	0	0	4.60753e-035	0	1	4	4
70	24.3984	0.0638542	0	0	4.60753e-035	0	1	4	4
68	24.5493	0.0638542	0	0	4.60753e-035	0	1	4	4
68	24.6364	0.383129	0	0	4.60753e-035	0	1	4	4
68	25.0253	0.0754662	0	0	4.60753e-035	0	1	4	4
68	25.1008	0.0406342	0	0	4.60753e-035	0	1	4	4
68	25.153	0.0696602	0	0	4.60753e-035	0	1	4	4
68	25.2517	0.1161	0	0	4.60753e-035	0	1	4	4
65	25.4433	0.0638561	0	0	4.60753e-035	0	1	4	4
69	25.8902	0.0928802	0	0	4.60753e-035	0	1	4	4
66	26.0934	0.0522442	0	0	4.60753e-035	0	1	4	4
61	26.2211	0.0348282	0	0	4.60753e-035	0	1	4	4
63	26.256	0.0812702	0	0	4.60753e-035	0	1	4	4
68	26.3372	0.0348301	0	0	4.60753e-035	0	1	4	4
65	26.3953	0.0696602	0	0	4.60753e-035	0	1	4	4
61	26.6101	0.191565	0	0	4.60753e-035	0	1	4	4
65	26.8016	0.0232201	0	0	4.60753e-035	0	1	4	4
68	26.8249	0.243809	0	0	4.60753e-035	0	1	4	4
68	26.8249	0.249615	0	0	4.60753e-035	0	1	4	4
63	27.0629	0.01161	0	0	4.60753e-035	0	1	4	4
68	26.8249	0.255419	0	0	4.60753e-035	0	1	4	4
63	27.0629	0.214785	0	0	4.60753e-035	0	1	4	4
63	27.2776	0.238005	0	0	4.60753e-035	0	1	4	4
64	27.5156	0.0638542	0	0	4.60753e-035	0	1	4	4
60	27.7072	0.406349	0	0	4.60753e-035	0	1	4	4
59	28.16	0.156734	0	0	4.60753e-035	0	1	4	4
59	28.4328	0.203175	0	0	4.60753e-035	0	1	4	4
