midiPitch 	 onsetSec 	 durationSec 	 onsetBeats 	 onsetBarIndex 	 onsetBar 	 durationBeats 	 velocity  	 numerator 	 denominator 
74	0.0580499	0.10449	0	0	0	0	1	4	4
78	0.16254	0.214785	0	0	0	0	1	4	4
74	0.435374	0.551474	0	0	0	0	1	4	4
78	0.986848	0.02322	0	0	0	0	1	4	4
78	1.01587	0.029025	0	0	0	0	1	4	4
55	1.38159	0.110295	0	0	0	0	1	4	4
59	1.49188	0.0232199	0	0	0	0	1	4	4
62	1.5151	0.0464399	0	0	0	0	1	4	4
55	1.56154	0.10449	0	0	0	0	1	4	4
62	1.66603	0.0986848	0	0	0	0	1	4	4
59	1.79374	0.0754648	0	0	0	0	1	4	4
62	1.87501	0.121905	0	0	0	0	1	4	4
59	1.99692	0.0696599	0	0	0	0	1	4	4
59	2.12463	0.17415	0	0	0	0	1	4	4
59	2.6819	0.156735	0	0	0	0	1	4	4
59	2.96635	0.10449	0	0	0	0	1	4	4
59	3.17533	0.0580499	0	0	0	0	1	4	4
59	3.41333	0.12771	0	0	0	0	1	4	4
55	3.58168	0.301859	0	0	0	0	1	4	4
55	3.90095	0.0638549	0	0	0	0	1	4	4
62	4.01705	0.365714	0	0	0	0	1	4	4
55	4.38277	0.17415	0	0	0	0	1	4	4
62	4.55692	0.0232196	0	0	0	0	1	4	4
55	4.58014	0.795284	0	0	0	0	1	4	4
55	5.41025	0.383129	0	0	0	0	1	4	4
55	5.79338	0.551474	0	0	0	0	1	4	4
55	6.42612	0.0638552	0	0	0	0	1	4	4
55	6.59447	0.1161	0	0	0	0	1	4	4
55	6.72798	0.203175	0	0	0	0	1	4	4
55	7.01823	0.0812697	0	0	0	0	1	4	4
55	7.16916	0.330884	0	0	0	0	1	4	4
55	7.70322	0.179955	0	0	0	0	1	4	4
55	8.33596	0.296055	0	0	0	0	1	4	4
55	8.7307	0.0812702	0	0	0	0	1	4	4
55	8.83519	0.133514	0	0	0	0	1	4	4
55	8.97451	0.0928802	0	0	0	0	1	4	4
55	9.24735	0.116099	0	0	0	0	1	4	4
55	9.4215	0.25542	0	0	0	0	1	4	4
55	9.83365	0.30186	0	0	0	0	1	4	4
55	10.1355	0.20898	0	0	0	0	1	4	4
55	10.4141	0.0812702	0	0	0	0	1	4	4
59	10.507	0.354104	0	0	0	0	1	4	4
55	10.9018	0.0870743	0	0	0	0	1	4	4
55	10.9888	0.0348301	0	0	0	0	1	4	4
59	11.0237	0.12771	0	0	0	0	1	4	4
55	11.1514	0.0696592	0	0	0	0	1	4	4
59	11.221	0.18576	0	0	0	0	1	4	4
55	11.4068	0.0870752	0	0	0	0	1	4	4
59	11.4939	0.24381	0	0	0	0	1	4	4
59	11.7377	0.290249	0	0	0	0	1	4	4
55	12.057	0.156734	0	0	0	0	1	4	4
59	12.2137	0.0870752	0	0	0	0	1	4	4
55	12.562	0.121904	0	0	0	0	1	4	4
55	12.7245	0.0464401	0	0	0	0	1	4	4
55	12.7884	0.104489	0	0	0	0	1	4	4
55	12.8929	0.29025	0	0	0	0	1	4	4
55	13.2296	0.18576	0	0	0	0	1	4	4
59	13.4676	0.0406351	0	0	0	0	1	4	4
55	13.5082	0.110295	0	0	0	0	1	4	4
55	13.7172	0.371519	0	0	0	0	1	4	4
59	14.0713	0.3483	0	0	0	0	1	4	4
55	14.4196	0.203175	0	0	0	0	1	4	4
55	14.6866	0.0696602	0	0	0	0	1	4	4
59	14.7853	0.0522451	0	0	0	0	1	4	4
59	15.0465	0.0406342	0	0	0	0	1	4	4
59	15.093	0.0406351	0	0	0	0	1	4	4
55	15.1336	0.179955	0	0	0	0	1	4	4
59	15.3136	0.0986853	0	0	0	0	1	4	4
59	15.4645	0.0870743	0	0	0	0	1	4	4
55	15.5516	0.179955	0	0	0	0	1	4	4
55	15.7315	0.0406351	0	0	0	0	1	4	4
50	15.7605	0.0522451	0	0	0	0	1	4	4
55	15.8941	1.76472	0	0	0	0	1	4	4
55	17.7168	0.801088	0	0	0	0	1	4	4
55	18.5179	0.261225	0	0	0	0	1	4	4
55	18.7791	0.0348301	0	0	0	0	1	4	4
48	18.8256	0.214785	0	0	0	0	1	4	4
55	18.9591	0.336689	0	0	0	0	1	4	4
55	19.2958	0.319275	0	0	0	0	1	4	4
74	18.5295	1.81696	0	0	0	0	1	4	4
55	20.2942	0.17415	0	0	0	0	1	4	4
74	18.5295	2.03755	0	0	0	0	1	4	4
74	20.5729	0.319275	0	0	0	0	1	4	4
76	20.8922	0.0348282	0	0	0	0	1	4	4
76	20.9328	0.272835	0	0	0	0	1	4	4
74	21.2056	0.255419	0	0	0	0	1	4	4
76	21.5829	0.249615	0	0	0	0	1	4	4
74	21.8326	0.70821	0	0	0	0	1	4	4
74	22.5466	0.539864	0	0	0	0	1	4	4
74	23.1155	0.255419	0	0	0	0	1	4	4
78	23.3709	0.243809	0	0	0	0	1	4	4
78	23.696	0.17415	0	0	0	0	1	4	4
74	23.8701	0.214785	0	0	0	0	1	4	4
74	24.0849	0.127708	0	0	0	0	1	4	4
74	24.3229	0.133514	0	0	0	0	1	4	4
74	24.468	0.0406342	0	0	0	0	1	4	4
78	24.5087	0.203175	0	0	0	0	1	4	4
74	24.7118	0.0870762	0	0	0	0	1	4	4
78	24.8105	0.1161	0	0	0	0	1	4	4
74	24.9266	0.702404	0	0	0	0	1	4	4
78	25.629	0.15093	0	0	0	0	1	4	4
74	25.78	0.893967	0	0	0	0	1	4	4
76	26.7436	0.0232201	0	0	0	0	1	4	4
76	26.8016	0.0232201	0	0	0	0	1	4	4
76	26.8307	0.0348282	0	0	0	0	1	4	4
76	26.8771	0.029026	0	0	0	0	1	4	4
74	26.9061	0.174149	0	0	0	0	1	4	4
55	26.4417	1.37578	0	0	0	0	1	4	4
55	27.8175	0.365715	0	0	0	0	1	4	4
55	28.2471	0.232201	0	0	0	0	1	4	4
55	28.5838	0.110296	0	0	0	0	1	4	4
55	28.6941	0.0580482	0	0	0	0	1	4	4
55	28.7521	0.0754662	0	0	0	0	1	4	4
48	28.8276	0.133514	0	0	0	0	1	4	4
76	28.7985	0.377325	0	0	0	0	1	4	4
