midiPitch 	 onsetSec 	 durationSec 	 onsetBeats 	 onsetBarIndex 	 onsetBar 	 durationBeats 	 velocity  	 numerator 	 denominator 
66	0.0754649	0.0290249	0	0	0	0	1	4	4
65	0.1161	0.0232199	0	0	0	0	1	4	4
65	0.13932	0.0290249	0	0	0	0	1	4	4
65	0.168345	0.0290249	0	0	0	0	1	4	4
65	0.261224	0.029025	0	0	0	0	1	4	4
66	0.365714	0.0290249	0	0	0	0	1	4	4
66	0.476009	0.0348299	0	0	0	0	1	4	4
63	0.818503	0.0696599	0	0	0	0	1	4	4
64	0.969433	0.029025	0	0	0	0	1	4	4
67	1.01007	0.0232199	0	0	0	0	1	4	4
65	1.03909	0.029025	0	0	0	0	1	4	4
65	1.26549	0.0290248	0	0	0	0	1	4	4
65	1.33515	0.0406349	0	0	0	0	1	4	4
65	1.38159	0.03483	0	0	0	0	1	4	4
65	1.42222	0.040635	0	0	0	0	1	4	4
65	1.5151	0.0464399	0	0	0	0	1	4	4
65	1.59057	0.0406349	0	0	0	0	1	4	4
65	1.85179	0.0232199	0	0	0	0	1	4	4
65	1.9737	0.029025	0	0	0	0	1	4	4
65	2.07819	0.0348301	0	0	0	0	1	4	4
65	2.11882	0.0290248	0	0	0	0	1	4	4
68	2.5658	0.0348299	0	0	0	0	1	4	4
67	2.60063	0.0348301	0	0	0	0	1	4	4
64	2.83283	0.0232198	0	0	0	0	1	4	4
65	2.87927	0.0232198	0	0	0	0	1	4	4
65	3.16372	0.0232201	0	0	0	0	1	4	4
64	3.19274	0.0290248	0	0	0	0	1	4	4
67	3.2566	0.0232201	0	0	0	0	1	4	4
66	4.19701	0.0348301	0	0	0	0	1	4	4
67	4.47565	0.0290251	0	0	0	0	1	4	4
65	4.61497	0.0348301	0	0	0	0	1	4	4
67	4.68463	0.0348301	0	0	0	0	1	4	4
66	4.73107	0.0290251	0	0	0	0	1	4	4
66	4.7659	0.10449	0	0	0	0	1	4	4
64	5.25351	0.0406346	0	0	0	0	1	4	4
64	6.18812	0.0232196	0	0	0	0	1	4	4
66	6.94857	0.0290251	0	0	0	0	1	4	4
65	7.04726	0.0348301	0	0	0	0	1	4	4
68	7.50585	0.0580497	0	0	0	0	1	4	4
66	7.5639	0.0290251	0	0	0	0	1	4	4
68	8.0341	0.0232201	0	0	0	0	1	4	4
69	8.25469	0.0290251	0	0	0	0	1	4	4
68	8.31274	0.0348301	0	0	0	0	1	4	4
65	8.53333	0.0232201	0	0	0	0	1	4	4
65	8.56236	0.0696602	0	0	0	0	1	4	4
68	8.67846	0.0522442	0	0	0	0	1	4	4
68	8.7307	0.0580502	0	0	0	0	1	4	4
69	8.78875	0.0580502	0	0	0	0	1	4	4
70	8.8468	0.0464401	0	0	0	0	1	4	4
68	8.91646	0.0348301	0	0	0	0	1	4	4
66	9.21252	0.0290251	0	0	0	0	1	4	4
65	9.43891	0.0232201	0	0	0	0	1	4	4
66	9.61887	0.0232201	0	0	0	0	1	4	4
70	9.92073	0.0290241	0	0	0	0	1	4	4
65	9.97878	0.0290251	0	0	0	0	1	4	4
53	10.0659	0.0232201	0	0	0	0	1	4	4
65	10.1587	0.0348301	0	0	0	0	1	4	4
69	11.0063	0.0290251	0	0	0	0	1	4	4
69	11.2791	0.0754652	0	0	0	0	1	4	4
69	11.5751	0.0348291	0	0	0	0	1	4	4
68	11.6274	0.0290251	0	0	0	0	1	4	4
70	11.9989	0.0406351	0	0	0	0	1	4	4
70	12.086	0.0464401	0	0	0	0	1	4	4
70	12.7478	0.0232201	0	0	0	0	1	4	4
69	13.1193	0.0232201	0	0	0	0	1	4	4
68	13.276	0.0406351	0	0	0	0	1	4	4
65	13.5721	0.0232201	0	0	0	0	1	4	4
65	14.141	0.10449	0	0	0	0	1	4	4
66	14.2687	0.0232201	0	0	0	0	1	4	4
63	14.7679	0.0232201	0	0	0	0	1	4	4
61	15.18	0.0348301	0	0	0	0	1	4	4
58	15.5922	0.0348301	0	0	0	0	1	4	4
58	15.6851	0.0522451	0	0	0	0	1	4	4
56	15.7373	0.0290251	0	0	0	0	1	4	4
65	15.9811	0.0232191	0	0	0	0	1	4	4
68	16.3178	0.0232201	0	0	0	0	1	4	4
61	16.341	0.0348301	0	0	0	0	1	4	4
63	16.6487	0.0232201	0	0	0	0	1	4	4
61	16.6777	0.0232201	0	0	0	0	1	4	4
58	16.9796	0.0348301	0	0	0	0	1	4	4
65	17.1015	0.029026	0	0	0	0	1	4	4
63	17.3395	0.0232201	0	0	0	0	1	4	4
60	17.8155	0.0232201	0	0	0	0	1	4	4
62	17.9839	0.0232201	0	0	0	0	1	4	4
64	18.1174	0.0348301	0	0	0	0	1	4	4
64	18.1638	0.0522461	0	0	0	0	1	4	4
66	18.4192	0.0522442	0	0	0	0	1	4	4
66	18.5005	0.0348301	0	0	0	0	1	4	4
60	18.6572	0.0348301	0	0	0	0	1	4	4
66	19.4351	0.0696583	0	0	0	0	1	4	4
56	19.7834	0.0232201	0	0	0	0	1	4	4
69	19.9982	0.0406342	0	0	0	0	1	4	4
69	20.242	0.029026	0	0	0	0	1	4	4
58	20.3	0.0348301	0	0	0	0	1	4	4
61	20.3987	0.029026	0	0	0	0	1	4	4
61	20.4336	0.0696602	0	0	0	0	1	4	4
63	20.538	0.0232201	0	0	0	0	1	4	4
58	21.1069	0.0232182	0	0	0	0	1	4	4
57	21.4668	0.0232201	0	0	0	0	1	4	4
66	21.4901	0.0232201	0	0	0	0	1	4	4
64	21.6236	0.0232201	0	0	0	0	1	4	4
65	21.8442	0.0464401	0	0	0	0	1	4	4
65	22.4653	0.029026	0	0	0	0	1	4	4
65	22.5872	0.029026	0	0	0	0	1	4	4
65	22.6278	0.0232201	0	0	0	0	1	4	4
58	22.8484	0.0870762	0	0	0	0	1	4	4
57	23.1677	0.0232201	0	0	0	0	1	4	4
57	23.5741	0.0406342	0	0	0	0	1	4	4
58	23.6147	0.0464401	0	0	0	0	1	4	4
58	23.6611	0.0232201	0	0	0	0	1	4	4
58	23.8411	0.029026	0	0	0	0	1	4	4
58	24.0152	0.133514	0	0	0	0	1	4	4
58	24.2416	0.0406342	0	0	0	0	1	4	4
58	24.4158	0.0928802	0	0	0	0	1	4	4
58	24.6422	0.0986862	0	0	0	0	1	4	4
58	24.8395	0.179955	0	0	0	0	1	4	4
58	25.3097	0.10449	0	0	0	0	1	4	4
58	25.7219	0.0232201	0	0	0	0	1	4	4
58	25.7509	0.0870743	0	0	0	0	1	4	4
58	26.1283	0.0696602	0	0	0	0	1	4	4
58	26.2211	0.0696583	0	0	0	0	1	4	4
58	26.4127	0.0290241	0	0	0	0	1	4	4
58	26.5927	0.0870743	0	0	0	0	1	4	4
58	26.8132	0.0232201	0	0	0	0	1	4	4
58	26.8481	0.0522442	0	0	0	0	1	4	4
58	26.9003	0.029026	0	0	0	0	1	4	4
58	27.1325	0.0754642	0	0	0	0	1	4	4
60	27.4344	0.0406342	0	0	0	0	1	4	4
60	27.475	0.0232201	0	0	0	0	1	4	4
60	27.7769	0.0406342	0	0	0	0	1	4	4
60	27.8698	0.0290241	0	0	0	0	1	4	4
58	27.9858	0.0232201	0	0	0	0	1	4	4
58	28.3283	0.0232201	0	0	0	0	1	4	4
58	28.3748	0.1161	0	0	0	0	1	4	4
58	28.5838	0.0464401	0	0	0	0	1	4	4
58	28.7753	0.029026	0	0	0	0	1	4	4
58	28.8102	0.0232201	0	0	0	0	1	4	4
58	29.0075	0.0522442	0	0	0	0	1	4	4
58	29.141	0.0290241	0	0	0	0	1	4	4
65	29.2223	0.0232201	0	0	0	0	1	4	4
58	29.3152	0.0580502	0	0	0	0	1	4	4
58	29.4255	0.0406342	0	0	0	0	1	4	4
