midiPitch 	 onsetSec 	 durationSec 	 onsetBeats 	 onsetBarIndex 	 onsetBar 	 durationBeats 	 velocity  	 numerator 	 denominator 
80	3.98803	0.0232201	0	0	0	0	1	4	4
81	4.03447	0.0754647	0	0	0	0	1	4	4
77	4.46404	0.0638552	0	0	0	0	1	4	4
72	5.24771	0.0522447	0	0	0	0	1	4	4
82	5.29995	0.0406351	0	0	0	0	1	4	4
81	5.34639	0.0580497	0	0	0	0	1	4	4
82	5.69469	0.0406351	0	0	0	0	1	4	4
81	5.75274	0.0406346	0	0	0	0	1	4	4
74	6.03138	0.0522451	0	0	0	0	1	4	4
82	6.18231	0.0232196	0	0	0	0	1	4	4
58	6.29841	0.0638547	0	0	0	0	1	4	4
55	6.45515	0.0348301	0	0	0	0	1	4	4
55	6.519	0.0522451	0	0	0	0	1	4	4
58	6.83828	0.0232201	0	0	0	0	1	4	4
58	6.87311	0.0290251	0	0	0	0	1	4	4
58	6.91955	0.0348301	0	0	0	0	1	4	4
58	7.05887	0.0232201	0	0	0	0	1	4	4
58	7.13433	0.0348301	0	0	0	0	1	4	4
59	7.22721	0.0232201	0	0	0	0	1	4	4
52	7.46522	0.0232201	0	0	0	0	1	4	4
58	7.81932	0.0232196	0	0	0	0	1	4	4
56	8.19084	0.0232201	0	0	0	0	1	4	4
52	8.37079	0.0522451	0	0	0	0	1	4	4
52	8.42304	0.0580502	0	0	0	0	1	4	4
52	8.51592	0.0290251	0	0	0	0	1	4	4
52	8.55075	0.0464401	0	0	0	0	1	4	4
50	8.75392	0.0754652	0	0	0	0	1	4	4
62	8.82939	0.116099	0	0	0	0	1	4	4
50	8.94549	0.168345	0	0	0	0	1	4	4
50	9.1893	0.0464401	0	0	0	0	1	4	4
57	9.23574	0.0232201	0	0	0	0	1	4	4
57	9.25896	0.0232201	0	0	0	0	1	4	4
50	9.3054	0.0464392	0	0	0	0	1	4	4
57	9.40989	0.0232201	0	0	0	0	1	4	4
55	9.5434	0.0348301	0	0	0	0	1	4	4
53	9.7698	0.0406351	0	0	0	0	1	4	4
55	10.1007	0.0580492	0	0	0	0	1	4	4
53	10.4374	0.0348301	0	0	0	0	1	4	4
53	11.2965	0.0232201	0	0	0	0	1	4	4
52	11.4416	0.0406351	0	0	0	0	1	4	4
52	11.4881	0.110294	0	0	0	0	1	4	4
53	11.906	0.121904	0	0	0	0	1	4	4
53	12.0744	0.133514	0	0	0	0	1	4	4
53	12.2717	0.17415	0	0	0	0	1	4	4
56	12.4517	0.0348301	0	0	0	0	1	4	4
57	12.6317	0.0232201	0	0	0	0	1	4	4
56	12.8174	0.0290251	0	0	0	0	1	4	4
53	13.3689	0.0580492	0	0	0	0	1	4	4
58	13.543	0.0290251	0	0	0	0	1	4	4
55	13.6766	0.0232201	0	0	0	0	1	4	4
56	13.7868	0.0290251	0	0	0	0	1	4	4
57	14.3151	0.0232201	0	0	0	0	1	4	4
53	14.5241	0.0290251	0	0	0	0	1	4	4
52	14.5879	0.0290251	0	0	0	0	1	4	4
52	14.6286	0.19737	0	0	0	0	1	4	4
52	14.8956	0.0812702	0	0	0	0	1	4	4
57	15.1046	0.0290251	0	0	0	0	1	4	4
57	15.2671	0.0406342	0	0	0	0	1	4	4
50	15.3078	0.16254	0	0	0	0	1	4	4
50	15.5109	0.0696602	0	0	0	0	1	4	4
55	15.8418	0.0522442	0	0	0	0	1	4	4
53	16.1321	0.0580502	0	0	0	0	1	4	4
53	16.2249	0.12771	0	0	0	0	1	4	4
64	17.8852	0.1161	0	0	0	0	1	4	4
65	18.338	0.0580502	0	0	0	0	1	4	4
63	18.7966	0.029026	0	0	0	0	1	4	4
63	18.872	0.0232201	0	0	0	0	1	4	4
69	19.0113	0.0464401	0	0	0	0	1	4	4
69	19.0578	0.0232201	0	0	0	0	1	4	4
64	19.1158	0.0290241	0	0	0	0	1	4	4
77	19.2435	0.121904	0	0	0	0	1	4	4
77	19.4177	0.10449	0	0	0	0	1	4	4
78	19.5512	0.0580502	0	0	0	0	1	4	4
79	19.6441	0.0232201	0	0	0	0	1	4	4
80	19.6731	0.0232182	0	0	0	0	1	4	4
81	19.7079	0.0638561	0	0	0	0	1	4	4
82	20.004	0.0580502	0	0	0	0	1	4	4
80	20.1956	0.0348301	0	0	0	0	1	4	4
79	20.5555	0.0348301	0	0	0	0	1	4	4
83	20.6251	0.0232201	0	0	0	0	1	4	4
82	21.136	0.0232201	0	0	0	0	1	4	4
82	21.1592	0.0232201	0	0	0	0	1	4	4
83	21.1998	0.0232201	0	0	0	0	1	4	4
52	22.2041	0.0986862	0	0	0	0	1	4	4
55	22.3202	0.0290241	0	0	0	0	1	4	4
67	22.7498	0.0290241	0	0	0	0	1	4	4
67	22.8136	0.0580502	0	0	0	0	1	4	4
61	23.1445	0.0348301	0	0	0	0	1	4	4
63	23.1909	0.0232201	0	0	0	0	1	4	4
58	23.8063	0.0232201	0	0	0	0	1	4	4
66	23.8295	0.029026	0	0	0	0	1	4	4
66	23.9514	0.0232201	0	0	0	0	1	4	4
66	24.4564	0.0348301	0	0	0	0	1	4	4
67	24.886	0.0696602	0	0	0	0	1	4	4
68	25.0776	0.0290241	0	0	0	0	1	4	4
67	25.1066	0.0348301	0	0	0	0	1	4	4
66	25.1646	0.0348301	0	0	0	0	1	4	4
67	25.5536	0.0348301	0	0	0	0	1	4	4
67	25.6058	0.0522442	0	0	0	0	1	4	4
65	25.6755	0.0290241	0	0	0	0	1	4	4
66	25.8206	0.0464401	0	0	0	0	1	4	4
64	26.0644	0.029026	0	0	0	0	1	4	4
62	26.3779	0.0232201	0	0	0	0	1	4	4
64	26.552	0.0232201	0	0	0	0	1	4	4
65	26.6855	0.0232201	0	0	0	0	1	4	4
64	26.7784	0.0232201	0	0	0	0	1	4	4
65	26.9584	0.029026	0	0	0	0	1	4	4
65	27.417	0.0580482	0	0	0	0	1	4	4
67	27.9684	0.0348301	0	0	0	0	1	4	4
62	28.1542	0.029026	0	0	0	0	1	4	4
66	28.5896	0.0638542	0	0	0	0	1	4	4
66	29.1701	0.0522461	0	0	0	0	1	4	4
66	29.6809	0.0406361	0	0	0	0	1	4	4
