midiPitch 	 onsetSec 	 durationSec 	 onsetBeats 	 onsetBarIndex 	 onsetBar 	 durationBeats 	 velocity  	 numerator 	 denominator 
71	0.272834	0.0348299	0	0	2.57609e-035	0	1	4	4
71	0.365714	0.0232199	0	0	2.57609e-035	0	1	4	4
70	0.388934	0.02322	0	0	2.57609e-035	0	1	4	4
72	0.481814	0.0638548	0	0	2.57609e-035	0	1	4	4
65	0.731429	0.0406349	0	0	2.57609e-035	0	1	4	4
66	0.940408	0.0348299	0	0	2.57609e-035	0	1	4	4
66	0.981043	0.0406349	0	0	2.57609e-035	0	1	4	4
71	1.03909	0.0696599	0	0	2.57609e-035	0	1	4	4
71	1.161	0.0348299	0	0	2.57609e-035	0	1	4	4
67	1.24807	0.0232199	0	0	2.57609e-035	0	1	4	4
66	1.38159	0.0580499	0	0	2.57609e-035	0	1	4	4
71	1.43964	0.0638548	0	0	2.57609e-035	0	1	4	4
70	1.59637	0.0464399	0	0	2.57609e-035	0	1	4	4
64	1.68925	0.0812699	0	0	2.57609e-035	0	1	4	4
65	1.79955	0.10449	0	0	2.57609e-035	0	1	4	4
72	1.89243	0.0870749	0	0	2.57609e-035	0	1	4	4
65	1.9795	0.0754648	0	0	2.57609e-035	0	1	4	4
70	2.0898	0.214785	0	0	2.57609e-035	0	1	4	4
51	2.34522	0.12771	0	0	2.57609e-035	0	1	4	4
50	2.75156	0.255419	0	0	2.57609e-035	0	1	4	4
51	3.15211	0.18576	0	0	2.57609e-035	0	1	4	4
53	3.87193	0.0522449	0	0	2.57609e-035	0	1	4	4
51	3.99964	0.0522447	0	0	2.57609e-035	0	1	4	4
50	4.05188	0.0406351	0	0	2.57609e-035	0	1	4	4
52	4.15637	0.0348301	0	0	2.57609e-035	0	1	4	4
52	4.19701	0.19737	0	0	2.57609e-035	0	1	4	4
50	4.47565	0.121905	0	0	2.57609e-035	0	1	4	4
64	5.29415	0.0232201	0	0	2.57609e-035	0	1	4	4
49	5.38703	0.0696602	0	0	2.57609e-035	0	1	4	4
52	5.59601	0.2322	0	0	2.57609e-035	0	1	4	4
51	5.97333	0.191565	0	0	2.57609e-035	0	1	4	4
52	6.46095	0.10449	0	0	2.57609e-035	0	1	4	4
51	6.98921	0.226395	0	0	2.57609e-035	0	1	4	4
50	7.30268	0.0812697	0	0	2.57609e-035	0	1	4	4
70	7.30268	0.18576	0	0	2.57609e-035	0	1	4	4
73	7.78449	0.121905	0	0	2.57609e-035	0	1	4	4
70	8.34757	0.0232201	0	0	2.57609e-035	0	1	4	4
74	8.40562	0.0812702	0	0	2.57609e-035	0	1	4	4
74	8.48689	0.0580492	0	0	2.57609e-035	0	1	4	4
71	8.62041	0.0696602	0	0	2.57609e-035	0	1	4	4
73	8.90485	0.179955	0	0	2.57609e-035	0	1	4	4
51	9.09642	0.127709	0	0	2.57609e-035	0	1	4	4
53	9.92653	0.0986843	0	0	2.57609e-035	0	1	4	4
53	10.0891	0.0870743	0	0	2.57609e-035	0	1	4	4
52	10.1761	0.12771	0	0	2.57609e-035	0	1	4	4
53	10.5941	0.0406351	0	0	2.57609e-035	0	1	4	4
71	10.5651	0.191566	0	0	2.57609e-035	0	1	4	4
66	11.134	0.110294	0	0	2.57609e-035	0	1	4	4
72	11.2385	0.0638552	0	0	2.57609e-035	0	1	4	4
54	11.1862	0.168345	0	0	2.57609e-035	0	1	4	4
52	11.4474	0.0696602	0	0	2.57609e-035	0	1	4	4
54	12.0686	0.19737	0	0	2.57609e-035	0	1	4	4
52	12.3646	0.0986843	0	0	2.57609e-035	0	1	4	4
54	12.6549	0.179955	0	0	2.57609e-035	0	1	4	4
50	12.9683	0.0638542	0	0	2.57609e-035	0	1	4	4
54	13.1773	0.0522442	0	0	2.57609e-035	0	1	4	4
52	13.2296	0.18576	0	0	2.57609e-035	0	1	4	4
52	14.0423	0.156735	0	0	2.57609e-035	0	1	4	4
53	14.4834	0.0812702	0	0	2.57609e-035	0	1	4	4
52	14.7853	0.307664	0	0	2.57609e-035	0	1	4	4
54	15.093	0.191565	0	0	2.57609e-035	0	1	4	4
53	15.6619	0.0580492	0	0	2.57609e-035	0	1	4	4
53	15.7199	0.0232201	0	0	2.57609e-035	0	1	4	4
53	16.3004	0.156734	0	0	2.57609e-035	0	1	4	4
53	16.8809	0.0348301	0	0	2.57609e-035	0	1	4	4
52	16.9215	0.13932	0	0	2.57609e-035	0	1	4	4
49	17.3917	0.0522442	0	0	2.57609e-035	0	1	4	4
52	17.5659	0.121904	0	0	2.57609e-035	0	1	4	4
52	17.6878	0.145124	0	0	2.57609e-035	0	1	4	4
50	18.0013	0.127708	0	0	2.57609e-035	0	1	4	4
52	19.7428	0.1161	0	0	2.57609e-035	0	1	4	4
53	20.1259	0.145126	0	0	2.57609e-035	0	1	4	4
52	21.0895	0.110294	0	0	2.57609e-035	0	1	4	4
52	21.1998	0.0580502	0	0	2.57609e-035	0	1	4	4
51	21.2579	0.12771	0	0	2.57609e-035	0	1	4	4
52	21.4785	0.226395	0	0	2.57609e-035	0	1	4	4
52	22.2157	0.16254	0	0	2.57609e-035	0	1	4	4
56	22.4827	0.0290241	0	0	2.57609e-035	0	1	4	4
56	22.5176	0.0232201	0	0	2.57609e-035	0	1	4	4
50	22.6685	0.0812702	0	0	2.57609e-035	0	1	4	4
58	22.7498	0.0348301	0	0	2.57609e-035	0	1	4	4
54	22.7904	0.0406361	0	0	2.57609e-035	0	1	4	4
60	23.0226	0.0464401	0	0	2.57609e-035	0	1	4	4
58	23.5044	0.0464401	0	0	2.57609e-035	0	1	4	4
60	23.6205	0.0696602	0	0	2.57609e-035	0	1	4	4
60	23.9688	0.133514	0	0	2.57609e-035	0	1	4	4
60	24.1371	0.10449	0	0	2.57609e-035	0	1	4	4
60	24.2649	0.272835	0	0	2.57609e-035	0	1	4	4
60	24.8047	0.0754642	0	0	2.57609e-035	0	1	4	4
49	25.2343	0.0638542	0	0	2.57609e-035	0	1	4	4
50	25.2981	0.0348301	0	0	2.57609e-035	0	1	4	4
56	25.362	0.0348301	0	0	2.57609e-035	0	1	4	4
58	25.5071	0.0696602	0	0	2.57609e-035	0	1	4	4
59	25.9541	0.029026	0	0	2.57609e-035	0	1	4	4
60	25.9889	0.0580502	0	0	2.57609e-035	0	1	4	4
58	26.0702	0.0464401	0	0	2.57609e-035	0	1	4	4
58	26.2327	0.0580482	0	0	2.57609e-035	0	1	4	4
68	26.256	0.197371	0	0	2.57609e-035	0	1	4	4
69	26.4533	0.203175	0	0	2.57609e-035	0	1	4	4
70	26.7088	0.121906	0	0	2.57609e-035	0	1	4	4
69	26.8307	0.127708	0	0	2.57609e-035	0	1	4	4
68	26.9584	0.238005	0	0	2.57609e-035	0	1	4	4
67	27.1964	0.516644	0	0	2.57609e-035	0	1	4	4
65	27.713	0.168344	0	0	2.57609e-035	0	1	4	4
64	27.8814	0.16254	0	0	2.57609e-035	0	1	4	4
64	28.0439	0.029026	0	0	2.57609e-035	0	1	4	4
