midiPitch 	 onsetSec 	 durationSec 	 onsetBeats 	 onsetBarIndex 	 onsetBar 	 durationBeats 	 velocity  	 numerator 	 denominator 
76	2.60063	0.0464399	0	0	4.21261e-035	0	1	4	4
72	2.80961	0.0580499	0	0	4.21261e-035	0	1	4	4
73	2.86766	0.0986848	0	0	4.21261e-035	0	1	4	4
73	3.11728	0.156735	0	0	4.21261e-035	0	1	4	4
75	3.29723	0.0870748	0	0	4.21261e-035	0	1	4	4
77	3.52363	0.0290251	0	0	4.21261e-035	0	1	4	4
75	3.77324	0.087075	0	0	4.21261e-035	0	1	4	4
77	4.10993	0.0290251	0	0	4.21261e-035	0	1	4	4
75	4.14476	0.0232196	0	0	4.21261e-035	0	1	4	4
63	4.26667	0.0232201	0	0	4.21261e-035	0	1	4	4
75	4.37696	0.0986848	0	0	4.21261e-035	0	1	4	4
77	4.82975	0.0464396	0	0	4.21261e-035	0	1	4	4
85	5.26512	0.0928798	0	0	4.21261e-035	0	1	4	4
77	5.358	0.0348296	0	0	4.21261e-035	0	1	4	4
77	5.7063	0.0406351	0	0	4.21261e-035	0	1	4	4
76	5.75855	0.0522447	0	0	4.21261e-035	0	1	4	4
76	6.22295	0.0290251	0	0	4.21261e-035	0	1	4	4
75	6.42032	0.0580502	0	0	4.21261e-035	0	1	4	4
81	6.64671	0.121905	0	0	4.21261e-035	0	1	4	4
73	6.77442	0.150929	0	0	4.21261e-035	0	1	4	4
82	7.02984	0.0348301	0	0	4.21261e-035	0	1	4	4
74	7.19238	0.150929	0	0	4.21261e-035	0	1	4	4
74	7.34331	0.0522451	0	0	4.21261e-035	0	1	4	4
74	7.41878	0.18576	0	0	4.21261e-035	0	1	4	4
76	7.93542	0.0348296	0	0	4.21261e-035	0	1	4	4
75	7.97025	0.0464401	0	0	4.21261e-035	0	1	4	4
77	8.4927	0.0522442	0	0	4.21261e-035	0	1	4	4
85	8.79456	0.0464401	0	0	4.21261e-035	0	1	4	4
75	8.89905	0.0522442	0	0	4.21261e-035	0	1	4	4
84	8.95129	0.0348301	0	0	4.21261e-035	0	1	4	4
75	9.11383	0.104489	0	0	4.21261e-035	0	1	4	4
75	9.35184	0.156735	0	0	4.21261e-035	0	1	4	4
76	9.50857	0.0348291	0	0	4.21261e-035	0	1	4	4
74	9.5434	0.0754652	0	0	4.21261e-035	0	1	4	4
77	9.7698	0.110295	0	0	4.21261e-035	0	1	4	4
74	9.95555	0.0812702	0	0	4.21261e-035	0	1	4	4
75	10.269	0.116099	0	0	4.21261e-035	0	1	4	4
74	10.3851	0.0870752	0	0	4.21261e-035	0	1	4	4
74	10.4722	0.0522451	0	0	4.21261e-035	0	1	4	4
75	10.5244	0.243809	0	0	4.21261e-035	0	1	4	4
77	11.0121	0.110295	0	0	4.21261e-035	0	1	4	4
84	11.5229	0.0812693	0	0	4.21261e-035	0	1	4	4
76	11.9931	0.0348301	0	0	4.21261e-035	0	1	4	4
75	12.0337	0.0464401	0	0	4.21261e-035	0	1	4	4
75	12.4517	0.0290251	0	0	4.21261e-035	0	1	4	4
73	12.6433	0.0638552	0	0	4.21261e-035	0	1	4	4
77	12.8522	0.0232201	0	0	4.21261e-035	0	1	4	4
83	12.8755	0.12771	0	0	4.21261e-035	0	1	4	4
74	13.038	0.0870752	0	0	4.21261e-035	0	1	4	4
82	13.2412	0.10449	0	0	4.21261e-035	0	1	4	4
75	13.4269	0.145125	0	0	4.21261e-035	0	1	4	4
75	13.5721	0.156734	0	0	4.21261e-035	0	1	4	4
75	13.7462	0.121904	0	0	4.21261e-035	0	1	4	4
77	14.1235	0.0232201	0	0	4.21261e-035	0	1	4	4
77	14.1758	0.0696602	0	0	4.21261e-035	0	1	4	4
71	14.8201	0.0464392	0	0	4.21261e-035	0	1	4	4
87	14.9595	0.0290251	0	0	4.21261e-035	0	1	4	4
78	15.0465	0.0406342	0	0	4.21261e-035	0	1	4	4
77	15.0988	0.0464401	0	0	4.21261e-035	0	1	4	4
76	15.3484	0.0696602	0	0	4.21261e-035	0	1	4	4
73	15.5748	0.150929	0	0	4.21261e-035	0	1	4	4
73	15.7257	0.0290251	0	0	4.21261e-035	0	1	4	4
67	15.9927	0.0580492	0	0	4.21261e-035	0	1	4	4
77	16.0392	0.203175	0	0	4.21261e-035	0	1	4	4
68	16.5965	0.0696602	0	0	4.21261e-035	0	1	4	4
67	16.6661	0.12771	0	0	4.21261e-035	0	1	4	4
68	16.7938	0.243809	0	0	4.21261e-035	0	1	4	4
68	17.1595	0.0812702	0	0	4.21261e-035	0	1	4	4
68	17.3917	0.139318	0	0	4.21261e-035	0	1	4	4
68	17.74	0.238005	0	0	4.21261e-035	0	1	4	4
70	18.1174	0.0986862	0	0	4.21261e-035	0	1	4	4
66	18.3031	0.336689	0	0	4.21261e-035	0	1	4	4
70	18.7617	0.0348301	0	0	4.21261e-035	0	1	4	4
71	18.8024	0.174149	0	0	4.21261e-035	0	1	4	4
70	19.1449	0.1161	0	0	4.21261e-035	0	1	4	4
71	19.348	0.029026	0	0	4.21261e-035	0	1	4	4
72	19.3771	0.0580502	0	0	4.21261e-035	0	1	4	4
70	19.5164	0.0870762	0	0	4.21261e-035	0	1	4	4
73	20.0388	0.0348301	0	0	4.21261e-035	0	1	4	4
73	20.0388	0.0406361	0	0	4.21261e-035	0	1	4	4
59	20.0678	0.110294	0	0	4.21261e-035	0	1	4	4
60	20.2942	0.0928802	0	0	4.21261e-035	0	1	4	4
72	20.3871	0.0406361	0	0	4.21261e-035	0	1	4	4
69	20.8805	0.150928	0	0	4.21261e-035	0	1	4	4
71	21.6062	0.121904	0	0	4.21261e-035	0	1	4	4
71	21.8035	0.0696602	0	0	4.21261e-035	0	1	4	4
59	21.8442	0.10449	0	0	4.21261e-035	0	1	4	4
71	21.9487	0.0580502	0	0	4.21261e-035	0	1	4	4
71	22.2621	0.029026	0	0	4.21261e-035	0	1	4	4
73	22.2912	0.116098	0	0	4.21261e-035	0	1	4	4
78	22.802	0.0696602	0	0	4.21261e-035	0	1	4	4
71	22.8659	0.0638542	0	0	4.21261e-035	0	1	4	4
71	23.1561	0.0638542	0	0	4.21261e-035	0	1	4	4
76	23.2548	0.0232201	0	0	4.21261e-035	0	1	4	4
78	23.4405	0.0232201	0	0	4.21261e-035	0	1	4	4
60	23.6495	0.0754662	0	0	4.21261e-035	0	1	4	4
60	23.9514	0.0406342	0	0	4.21261e-035	0	1	4	4
58	24.2242	0.133516	0	0	4.21261e-035	0	1	4	4
58	24.5899	0.121904	0	0	4.21261e-035	0	1	4	4
58	24.9615	0.110294	0	0	4.21261e-035	0	1	4	4
58	25.1298	0.0754662	0	0	4.21261e-035	0	1	4	4
56	25.5361	0.10449	0	0	4.21261e-035	0	1	4	4
60	25.7393	0.0348301	0	0	4.21261e-035	0	1	4	4
58	25.7858	0.029026	0	0	4.21261e-035	0	1	4	4
57	25.8264	0.0638542	0	0	4.21261e-035	0	1	4	4
58	26.1166	0.0232201	0	0	4.21261e-035	0	1	4	4
59	26.2211	0.0348282	0	0	4.21261e-035	0	1	4	4
58	26.7146	0.0580502	0	0	4.21261e-035	0	1	4	4
59	26.8074	0.0638542	0	0	4.21261e-035	0	1	4	4
59	26.8945	0.0232201	0	0	4.21261e-035	0	1	4	4
58	27.0861	0.0406342	0	0	4.21261e-035	0	1	4	4
58	27.2893	0.0696602	0	0	4.21261e-035	0	1	4	4
58	27.3589	0.10449	0	0	4.21261e-035	0	1	4	4
59	27.6898	0.0580502	0	0	4.21261e-035	0	1	4	4
62	28.0671	0.0638542	0	0	4.21261e-035	0	1	4	4
59	28.5083	0.0696602	0	0	4.21261e-035	0	1	4	4
58	29.0307	0.0522442	0	0	4.21261e-035	0	1	4	4
