midiPitch 	 onsetSec 	 durationSec 	 onsetBeats 	 onsetBarIndex 	 onsetBar 	 durationBeats 	 velocity  	 numerator 	 denominator 
83	0.214785	0.0406349	0	0	1.92752e-035	0	1	4	4
78	0.325079	0.029025	0	0	1.92752e-035	0	1	4	4
77	0.394739	0.0812699	0	0	1.92752e-035	0	1	4	4
75	0.476009	0.0232199	0	0	1.92752e-035	0	1	4	4
77	0.522449	0.10449	0	0	1.92752e-035	0	1	4	4
77	0.679184	0.0406349	0	0	1.92752e-035	0	1	4	4
76	0.719819	0.0812698	0	0	1.92752e-035	0	1	4	4
75	0.801088	0.12771	0	0	1.92752e-035	0	1	4	4
75	0.928798	0.0290249	0	0	1.92752e-035	0	1	4	4
75	0.969433	0.1161	0	0	1.92752e-035	0	1	4	4
77	1.59637	0.0232199	0	0	1.92752e-035	0	1	4	4
76	1.67764	0.0406349	0	0	1.92752e-035	0	1	4	4
83	1.79374	0.121905	0	0	1.92752e-035	0	1	4	4
76	1.96209	0.03483	0	0	1.92752e-035	0	1	4	4
76	2.11882	0.1161	0	0	1.92752e-035	0	1	4	4
77	2.25234	0.568889	0	0	1.92752e-035	0	1	4	4
76	2.82122	0.156735	0	0	1.92752e-035	0	1	4	4
76	3.17533	0.0638549	0	0	1.92752e-035	0	1	4	4
77	3.45977	0.20898	0	0	1.92752e-035	0	1	4	4
74	3.7268	0.0232201	0	0	1.92752e-035	0	1	4	4
73	3.76163	0.0232198	0	0	1.92752e-035	0	1	4	4
80	3.91837	0.0290248	0	0	1.92752e-035	0	1	4	4
78	4.01125	0.0232201	0	0	1.92752e-035	0	1	4	4
74	4.05769	0.0580502	0	0	1.92752e-035	0	1	4	4
76	4.21442	0.0232201	0	0	1.92752e-035	0	1	4	4
75	4.29569	0.1161	0	0	1.92752e-035	0	1	4	4
76	4.41179	0.0232201	0	0	1.92752e-035	0	1	4	4
77	4.63819	0.0870748	0	0	1.92752e-035	0	1	4	4
76	4.73107	0.10449	0	0	1.92752e-035	0	1	4	4
75	4.83556	0.255419	0	0	1.92752e-035	0	1	4	4
73	5.09097	0.133515	0	0	1.92752e-035	0	1	4	4
79	5.3522	0.0232201	0	0	1.92752e-035	0	1	4	4
79	5.46249	0.0232196	0	0	1.92752e-035	0	1	4	4
72	6.06621	0.0696597	0	0	1.92752e-035	0	1	4	4
81	6.2868	0.0348296	0	0	1.92752e-035	0	1	4	4
61	6.2868	0.0986848	0	0	1.92752e-035	0	1	4	4
56	6.48998	0.0290246	0	0	1.92752e-035	0	1	4	4
63	6.519	0.0580502	0	0	1.92752e-035	0	1	4	4
63	6.59447	0.0580497	0	0	1.92752e-035	0	1	4	4
64	6.65252	0.0870748	0	0	1.92752e-035	0	1	4	4
63	6.82667	0.0348301	0	0	1.92752e-035	0	1	4	4
65	6.87311	0.0348301	0	0	1.92752e-035	0	1	4	4
53	7.18077	0.0754647	0	0	1.92752e-035	0	1	4	4
53	7.29687	0.0870748	0	0	1.92752e-035	0	1	4	4
52	7.38395	0.226395	0	0	1.92752e-035	0	1	4	4
66	8.13279	0.0928802	0	0	1.92752e-035	0	1	4	4
53	8.23728	0.18576	0	0	1.92752e-035	0	1	4	4
59	8.57397	0.0580502	0	0	1.92752e-035	0	1	4	4
59	8.73651	0.0696602	0	0	1.92752e-035	0	1	4	4
55	8.81197	0.0696602	0	0	1.92752e-035	0	1	4	4
59	8.89324	0.0232191	0	0	1.92752e-035	0	1	4	4
59	9.10803	0.0290241	0	0	1.92752e-035	0	1	4	4
59	9.3112	0.0290241	0	0	1.92752e-035	0	1	4	4
63	9.34023	0.0348301	0	0	1.92752e-035	0	1	4	4
60	9.37506	0.0464401	0	0	1.92752e-035	0	1	4	4
64	9.68853	0.0232201	0	0	1.92752e-035	0	1	4	4
63	9.74077	0.0348301	0	0	1.92752e-035	0	1	4	4
75	10.0426	0.168344	0	0	1.92752e-035	0	1	4	4
76	10.211	0.145124	0	0	1.92752e-035	0	1	4	4
75	10.3561	0.10449	0	0	1.92752e-035	0	1	4	4
74	10.4722	0.133514	0	0	1.92752e-035	0	1	4	4
59	11.0411	0.0232201	0	0	1.92752e-035	0	1	4	4
59	11.0701	0.0870752	0	0	1.92752e-035	0	1	4	4
61	11.1572	0.0348291	0	0	1.92752e-035	0	1	4	4
79	11.2791	0.214785	0	0	1.92752e-035	0	1	4	4
80	11.5055	0.0522451	0	0	1.92752e-035	0	1	4	4
78	11.6971	0.0406351	0	0	1.92752e-035	0	1	4	4
77	11.7435	0.127709	0	0	1.92752e-035	0	1	4	4
76	11.8712	0.348299	0	0	1.92752e-035	0	1	4	4
76	12.2195	0.0232201	0	0	1.92752e-035	0	1	4	4
75	12.2485	0.0870752	0	0	1.92752e-035	0	1	4	4
72	12.8406	0.0406351	0	0	1.92752e-035	0	1	4	4
80	13.0206	0.0348301	0	0	1.92752e-035	0	1	4	4
80	13.0554	0.0696602	0	0	1.92752e-035	0	1	4	4
72	13.1193	0.0290251	0	0	1.92752e-035	0	1	4	4
69	13.2122	0.0348291	0	0	1.92752e-035	0	1	4	4
72	13.2586	0.0638552	0	0	1.92752e-035	0	1	4	4
75	13.3631	0.0232201	0	0	1.92752e-035	0	1	4	4
75	13.6185	0.0464392	0	0	1.92752e-035	0	1	4	4
76	13.7172	0.226395	0	0	1.92752e-035	0	1	4	4
76	13.9552	0.0580502	0	0	1.92752e-035	0	1	4	4
75	14.0132	0.162539	0	0	1.92752e-035	0	1	4	4
75	14.1758	0.0290251	0	0	1.92752e-035	0	1	4	4
74	14.2106	0.0812693	0	0	1.92752e-035	0	1	4	4
78	14.4254	0.0348291	0	0	1.92752e-035	0	1	4	4
73	14.5473	0.0348301	0	0	1.92752e-035	0	1	4	4
77	14.7969	0.0290251	0	0	1.92752e-035	0	1	4	4
78	14.8434	0.0232191	0	0	1.92752e-035	0	1	4	4
78	14.8956	0.145125	0	0	1.92752e-035	0	1	4	4
78	15.1278	0.0232201	0	0	1.92752e-035	0	1	4	4
61	15.7373	0.0928802	0	0	1.92752e-035	0	1	4	4
55	15.9289	0.0290251	0	0	1.92752e-035	0	1	4	4
64	16.1901	0.0638542	0	0	1.92752e-035	0	1	4	4
63	16.3585	0.029026	0	0	1.92752e-035	0	1	4	4
64	16.3933	0.0928802	0	0	1.92752e-035	0	1	4	4
64	16.492	0.0638561	0	0	1.92752e-035	0	1	4	4
66	16.5558	0.0754642	0	0	1.92752e-035	0	1	4	4
64	16.7358	0.0232201	0	0	1.92752e-035	0	1	4	4
65	16.9215	0.0348301	0	0	1.92752e-035	0	1	4	4
63	17.1944	0.0232201	0	0	1.92752e-035	0	1	4	4
62	17.2466	0.0348301	0	0	1.92752e-035	0	1	4	4
64	17.8271	0.307665	0	0	1.92752e-035	0	1	4	4
64	18.2973	0.13932	0	0	1.92752e-035	0	1	4	4
64	18.605	0.0580502	0	0	1.92752e-035	0	1	4	4
64	18.663	0.0522442	0	0	1.92752e-035	0	1	4	4
61	18.7269	0.0522461	0	0	1.92752e-035	0	1	4	4
64	18.8604	0.203175	0	0	1.92752e-035	0	1	4	4
66	19.0636	0.487619	0	0	1.92752e-035	0	1	4	4
60	19.8182	0.110294	0	0	1.92752e-035	0	1	4	4
61	19.9285	0.0290241	0	0	1.92752e-035	0	1	4	4
60	19.9692	0.330885	0	0	1.92752e-035	0	1	4	4
63	20.7702	0.0696602	0	0	1.92752e-035	0	1	4	4
73	21.7513	0.0812702	0	0	1.92752e-035	0	1	4	4
66	22.6162	0.0754642	0	0	1.92752e-035	0	1	4	4
68	22.6975	0.0348301	0	0	1.92752e-035	0	1	4	4
68	22.7323	0.0522442	0	0	1.92752e-035	0	1	4	4
66	22.7962	0.0986843	0	0	1.92752e-035	0	1	4	4
73	22.9936	0.232201	0	0	1.92752e-035	0	1	4	4
63	23.5915	0.0232201	0	0	1.92752e-035	0	1	4	4
69	23.8875	0.029026	0	0	1.92752e-035	0	1	4	4
56	24.021	0.121906	0	0	1.92752e-035	0	1	4	4
56	24.1429	0.214785	0	0	1.92752e-035	0	1	4	4
58	24.6944	0.0580502	0	0	1.92752e-035	0	1	4	4
56	24.7699	0.0870743	0	0	1.92752e-035	0	1	4	4
64	25.4781	0.0232201	0	0	1.92752e-035	0	1	4	4
62	26.5346	0.0348301	0	0	1.92752e-035	0	1	4	4
61	26.5694	0.0348301	0	0	1.92752e-035	0	1	4	4
60	26.9351	0.0348301	0	0	1.92752e-035	0	1	4	4
68	27.3531	0.0232201	0	0	1.92752e-035	0	1	4	4
68	27.3763	0.0348301	0	0	1.92752e-035	0	1	4	4
66	27.6782	0.0638561	0	0	1.92752e-035	0	1	4	4
71	28.0845	0.18576	0	0	1.92752e-035	0	1	4	4
70	28.2703	0.0696602	0	0	1.92752e-035	0	1	4	4
68	28.3574	0.0812702	0	0	1.92752e-035	0	1	4	4
68	28.4386	0.0638542	0	0	1.92752e-035	0	1	4	4
68	28.665	0.16254	0	0	1.92752e-035	0	1	4	4
69	28.8276	0.0812683	0	0	1.92752e-035	0	1	4	4
69	28.9088	0.15093	0	0	1.92752e-035	0	1	4	4
