midiPitch 	 onsetSec 	 durationSec 	 onsetBeats 	 onsetBarIndex 	 onsetBar 	 durationBeats 	 velocity  	 numerator 	 denominator 
59	1.161	0.0406349	0	0	4.02466e-035	0	1	4	4
59	1.23066	0.03483	0	0	4.02466e-035	0	1	4	4
60	1.26549	0.0580498	0	0	4.02466e-035	0	1	4	4
60	1.38739	0.0406349	0	0	4.02466e-035	0	1	4	4
52	1.53832	0.493424	0	0	4.02466e-035	0	1	4	4
53	2.06077	0.19737	0	0	4.02466e-035	0	1	4	4
53	2.25814	0.0812697	0	0	4.02466e-035	0	1	4	4
52	2.33941	0.0232201	0	0	4.02466e-035	0	1	4	4
53	3.12889	0.441179	0	0	4.02466e-035	0	1	4	4
59	3.79066	0.0406349	0	0	4.02466e-035	0	1	4	4
57	3.83129	0.0696599	0	0	4.02466e-035	0	1	4	4
58	3.92417	0.133515	0	0	4.02466e-035	0	1	4	4
57	4.23184	0.725624	0	0	4.02466e-035	0	1	4	4
55	4.95746	0.0232196	0	0	4.02466e-035	0	1	4	4
55	4.98068	0.0232201	0	0	4.02466e-035	0	1	4	4
60	5.52635	0.441179	0	0	4.02466e-035	0	1	4	4
55	6.77442	0.121905	0	0	4.02466e-035	0	1	4	4
55	6.94857	0.249615	0	0	4.02466e-035	0	1	4	4
54	7.19819	0.121905	0	0	4.02466e-035	0	1	4	4
52	7.32009	0.238004	0	0	4.02466e-035	0	1	4	4
52	7.65097	0.1161	0	0	4.02466e-035	0	1	4	4
52	7.76707	0.394739	0	0	4.02466e-035	0	1	4	4
50	8.34757	0.168344	0	0	4.02466e-035	0	1	4	4
48	8.91066	0.354104	0	0	4.02466e-035	0	1	4	4
48	9.3112	0.145124	0	0	4.02466e-035	0	1	4	4
60	10.1936	0.284445	0	0	4.02466e-035	0	1	4	4
60	10.6638	0.476009	0	0	4.02466e-035	0	1	4	4
59	11.1398	0.383129	0	0	4.02466e-035	0	1	4	4
54	12.0976	0.133514	0	0	4.02466e-035	0	1	4	4
59	12.3124	0.0464401	0	0	4.02466e-035	0	1	4	4
57	12.3588	0.0638542	0	0	4.02466e-035	0	1	4	4
57	12.4227	0.0232201	0	0	4.02466e-035	0	1	4	4
55	12.6549	0.0406351	0	0	4.02466e-035	0	1	4	4
57	12.9219	0.0290251	0	0	4.02466e-035	0	1	4	4
57	13.0322	0.203175	0	0	4.02466e-035	0	1	4	4
54	13.2354	0.0290251	0	0	4.02466e-035	0	1	4	4
58	13.3399	0.0754652	0	0	4.02466e-035	0	1	4	4
57	13.4502	0.133515	0	0	4.02466e-035	0	1	4	4
56	13.5837	0.139319	0	0	4.02466e-035	0	1	4	4
56	13.8275	0.0580492	0	0	4.02466e-035	0	1	4	4
54	13.8855	0.0348301	0	0	4.02466e-035	0	1	4	4
55	13.99	0.0986843	0	0	4.02466e-035	0	1	4	4
59	14.6576	0.0348301	0	0	4.02466e-035	0	1	4	4
59	14.6982	0.0870752	0	0	4.02466e-035	0	1	4	4
60	14.7853	0.26703	0	0	4.02466e-035	0	1	4	4
60	15.0523	0.330884	0	0	4.02466e-035	0	1	4	4
60	15.5864	0.25542	0	0	4.02466e-035	0	1	4	4
59	15.8418	0.214785	0	0	4.02466e-035	0	1	4	4
54	16.0566	0.0232201	0	0	4.02466e-035	0	1	4	4
29286560	16.0798	0.0870743	0	0	4.02466e-035	0	1	4	4
53	16.1669	0.284445	0	0	4.02466e-035	0	1	4	4
58	17.0318	0.110296	0	0	4.02466e-035	0	1	4	4
59	17.1421	0.0348301	0	0	4.02466e-035	0	1	4	4
57	17.4092	0.13932	0	0	4.02466e-035	0	1	4	4
57	17.9955	0.18576	0	0	4.02466e-035	0	1	4	4
56	18.1812	0.127708	0	0	4.02466e-035	0	1	4	4
56	18.3089	0.15093	0	0	4.02466e-035	0	1	4	4
61	19.1681	0.156734	0	0	4.02466e-035	0	1	4	4
62	19.3248	0.406349	0	0	4.02466e-035	0	1	4	4
62	19.7312	0.0696602	0	0	4.02466e-035	0	1	4	4
63	19.9227	0.0928802	0	0	4.02466e-035	0	1	4	4
61	20.2826	0.197369	0	0	4.02466e-035	0	1	4	4
62	20.48	0.284445	0	0	4.02466e-035	0	1	4	4
60	20.8051	0.267031	0	0	4.02466e-035	0	1	4	4
69	21.8906	0.0696602	0	0	4.02466e-035	0	1	4	4
57	21.9603	0.0812702	0	0	4.02466e-035	0	1	4	4
58	22.0415	0.0696602	0	0	4.02466e-035	0	1	4	4
58	22.3956	0.342495	0	0	4.02466e-035	0	1	4	4
53	23.5624	0.0290241	0	0	4.02466e-035	0	1	4	4
55	23.6147	0.365715	0	0	4.02466e-035	0	1	4	4
57	24.2126	0.110296	0	0	4.02466e-035	0	1	4	4
58	24.3461	0.121904	0	0	4.02466e-035	0	1	4	4
60	24.7467	0.0580502	0	0	4.02466e-035	0	1	4	4
60	24.8047	0.0348301	0	0	4.02466e-035	0	1	4	4
60	24.8454	0.423765	0	0	4.02466e-035	0	1	4	4
53	25.2749	0.272835	0	0	4.02466e-035	0	1	4	4
53	25.5478	0.272835	0	0	4.02466e-035	0	1	4	4
65	25.9135	0.0638542	0	0	4.02466e-035	0	1	4	4
54	25.9715	0.0754642	0	0	4.02466e-035	0	1	4	4
53	26.0644	0.0754662	0	0	4.02466e-035	0	1	4	4
53	26.1399	0.0812702	0	0	4.02466e-035	0	1	4	4
57	26.3953	0.0348301	0	0	4.02466e-035	0	1	4	4
56	26.523	0.0812702	0	0	4.02466e-035	0	1	4	4
55	26.6101	0.0406342	0	0	4.02466e-035	0	1	4	4
55	26.6971	0.0754662	0	0	4.02466e-035	0	1	4	4
55	26.819	0.0348282	0	0	4.02466e-035	0	1	4	4
55	26.9177	0.0348301	0	0	4.02466e-035	0	1	4	4
58	27.0861	0.0406342	0	0	4.02466e-035	0	1	4	4
55	27.1499	0.0406361	0	0	4.02466e-035	0	1	4	4
57	27.2486	0.0348282	0	0	4.02466e-035	0	1	4	4
56	27.3067	0.029026	0	0	4.02466e-035	0	1	4	4
58	27.4054	0.0232201	0	0	4.02466e-035	0	1	4	4
56	27.4286	0.0348301	0	0	4.02466e-035	0	1	4	4
53	27.684	0.0406342	0	0	4.02466e-035	0	1	4	4
53	27.7478	0.029026	0	0	4.02466e-035	0	1	4	4
60	28.1832	0.150928	0	0	4.02466e-035	0	1	4	4
63	28.398	0.0522442	0	0	4.02466e-035	0	1	4	4
62	28.4502	0.029026	0	0	4.02466e-035	0	1	4	4
58	28.5489	0.0232201	0	0	4.02466e-035	0	1	4	4
63	28.5722	0.0986862	0	0	4.02466e-035	0	1	4	4
61	28.6708	0.0232201	0	0	4.02466e-035	0	1	4	4
58	28.7057	0.0232201	0	0	4.02466e-035	0	1	4	4
63	28.7521	0.0522461	0	0	4.02466e-035	0	1	4	4
63	29.0075	0.179955	0	0	4.02466e-035	0	1	4	4
61	29.1875	0.0406342	0	0	4.02466e-035	0	1	4	4
