midiPitch 	 onsetSec 	 durationSec 	 onsetBeats 	 onsetBarIndex 	 onsetBar 	 durationBeats 	 velocity  	 numerator 	 denominator 
60	0.16254	0.0580499	0	0	2.78336e-035	0	1	4	4
65	0.22059	0.10449	0	0	2.78336e-035	0	1	4	4
65	0.481814	0.0522449	0	0	2.78336e-035	0	1	4	4
65	0.545669	0.0870749	0	0	2.78336e-035	0	1	4	4
65	0.783673	0.029025	0	0	2.78336e-035	0	1	4	4
65	0.812698	0.0232199	0	0	2.78336e-035	0	1	4	4
60	0.893968	0.133515	0	0	2.78336e-035	0	1	4	4
63	1.1668	0.0232201	0	0	2.78336e-035	0	1	4	4
63	1.20744	0.0406349	0	0	2.78336e-035	0	1	4	4
60	1.25388	0.145125	0	0	2.78336e-035	0	1	4	4
60	1.399	0.168345	0	0	2.78336e-035	0	1	4	4
60	1.65442	0.133515	0	0	2.78336e-035	0	1	4	4
60	1.78794	0.040635	0	0	2.78336e-035	0	1	4	4
60	1.86921	0.22059	0	0	2.78336e-035	0	1	4	4
56	2.15946	0.133515	0	0	2.78336e-035	0	1	4	4
63	2.29297	0.0638549	0	0	2.78336e-035	0	1	4	4
63	2.35683	0.0232201	0	0	2.78336e-035	0	1	4	4
63	2.38005	0.0638547	0	0	2.78336e-035	0	1	4	4
56	2.50195	0.17415	0	0	2.78336e-035	0	1	4	4
63	2.6761	0.0696597	0	0	2.78336e-035	0	1	4	4
63	2.78639	0.0638547	0	0	2.78336e-035	0	1	4	4
56	2.87927	0.0812697	0	0	2.78336e-035	0	1	4	4
56	2.96054	0.15093	0	0	2.78336e-035	0	1	4	4
63	3.12889	0.0348299	0	0	2.78336e-035	0	1	4	4
63	3.16952	0.20898	0	0	2.78336e-035	0	1	4	4
63	3.3785	0.0232201	0	0	2.78336e-035	0	1	4	4
63	3.40753	0.133515	0	0	2.78336e-035	0	1	4	4
63	3.62231	0.2322	0	0	2.78336e-035	0	1	4	4
63	4.05188	0.191565	0	0	2.78336e-035	0	1	4	4
63	4.40018	0.19737	0	0	2.78336e-035	0	1	4	4
63	4.59755	0.0522451	0	0	2.78336e-035	0	1	4	4
63	4.6498	0.0406346	0	0	2.78336e-035	0	1	4	4
63	4.84717	0.0348296	0	0	2.78336e-035	0	1	4	4
58	5.0039	0.0696597	0	0	2.78336e-035	0	1	4	4
58	5.07936	0.0232201	0	0	2.78336e-035	0	1	4	4
58	5.11419	0.737234	0	0	2.78336e-035	0	1	4	4
58	5.96753	0.441179	0	0	2.78336e-035	0	1	4	4
58	6.40871	0.417959	0	0	2.78336e-035	0	1	4	4
58	6.88472	0.12771	0	0	2.78336e-035	0	1	4	4
58	7.01243	0.0290246	0	0	2.78336e-035	0	1	4	4
58	7.04726	0.423764	0	0	2.78336e-035	0	1	4	4
58	7.47102	0.0232201	0	0	2.78336e-035	0	1	4	4
58	7.51746	0.0406346	0	0	2.78336e-035	0	1	4	4
58	7.58132	0.226395	0	0	2.78336e-035	0	1	4	4
55	8.17923	0.0290251	0	0	2.78336e-035	0	1	4	4
58	8.21406	0.0232201	0	0	2.78336e-035	0	1	4	4
58	8.23728	0.0232201	0	0	2.78336e-035	0	1	4	4
58	8.2605	0.0522442	0	0	2.78336e-035	0	1	4	4
55	8.31855	0.19737	0	0	2.78336e-035	0	1	4	4
58	8.52172	0.0870752	0	0	2.78336e-035	0	1	4	4
58	8.67846	0.0232201	0	0	2.78336e-035	0	1	4	4
58	8.70748	0.0348291	0	0	2.78336e-035	0	1	4	4
58	8.74231	0.0232201	0	0	2.78336e-035	0	1	4	4
60	8.90485	0.0290241	0	0	2.78336e-035	0	1	4	4
65	9.04417	0.150929	0	0	2.78336e-035	0	1	4	4
65	9.1951	0.0464401	0	0	2.78336e-035	0	1	4	4
65	9.24154	0.121904	0	0	2.78336e-035	0	1	4	4
60	9.43891	0.156734	0	0	2.78336e-035	0	1	4	4
65	9.66531	0.0986843	0	0	2.78336e-035	0	1	4	4
65	9.78721	0.13932	0	0	2.78336e-035	0	1	4	4
60	9.92653	0.0464392	0	0	2.78336e-035	0	1	4	4
65	9.97297	0.110295	0	0	2.78336e-035	0	1	4	4
60	10.0717	0.0812693	0	0	2.78336e-035	0	1	4	4
60	10.2226	0.24381	0	0	2.78336e-035	0	1	4	4
60	10.4664	0.714013	0	0	2.78336e-035	0	1	4	4
65	11.4184	0.12771	0	0	2.78336e-035	0	1	4	4
60	11.5461	0.0406342	0	0	2.78336e-035	0	1	4	4
65	11.5868	0.0522451	0	0	2.78336e-035	0	1	4	4
60	11.639	0.528255	0	0	2.78336e-035	0	1	4	4
60	12.1673	0.0812693	0	0	2.78336e-035	0	1	4	4
60	12.2485	0.307665	0	0	2.78336e-035	0	1	4	4
60	12.5852	0.17415	0	0	2.78336e-035	0	1	4	4
60	12.7594	0.0348301	0	0	2.78336e-035	0	1	4	4
60	12.8522	0.0870752	0	0	2.78336e-035	0	1	4	4
60	12.9393	0.0290251	0	0	2.78336e-035	0	1	4	4
60	12.9683	0.0696592	0	0	2.78336e-035	0	1	4	4
60	13.038	0.0696602	0	0	2.78336e-035	0	1	4	4
60	13.1077	0.0580502	0	0	2.78336e-035	0	1	4	4
60	13.1657	0.0522451	0	0	2.78336e-035	0	1	4	4
60	13.3573	0.110294	0	0	2.78336e-035	0	1	4	4
60	13.4966	0.0522451	0	0	2.78336e-035	0	1	4	4
60	13.5895	0.139319	0	0	2.78336e-035	0	1	4	4
60	13.781	0.307664	0	0	2.78336e-035	0	1	4	4
60	14.3035	0.20898	0	0	2.78336e-035	0	1	4	4
65	14.5705	0.0232201	0	0	2.78336e-035	0	1	4	4
60	14.5937	0.0290251	0	0	2.78336e-035	0	1	4	4
60	14.704	0.412154	0	0	2.78336e-035	0	1	4	4
60	15.1394	0.0638552	0	0	2.78336e-035	0	1	4	4
60	15.2033	0.446984	0	0	2.78336e-035	0	1	4	4
60	15.6502	0.493423	0	0	2.78336e-035	0	1	4	4
60	16.1437	0.0638542	0	0	2.78336e-035	0	1	4	4
53	16.2017	0.1161	0	0	2.78336e-035	0	1	4	4
60	16.3178	0.0812683	0	0	2.78336e-035	0	1	4	4
65	16.3991	0.10449	0	0	2.78336e-035	0	1	4	4
60	16.5036	0.0870762	0	0	2.78336e-035	0	1	4	4
54	16.8461	0.0232201	0	0	2.78336e-035	0	1	4	4
58	17.0551	0.847528	0	0	2.78336e-035	0	1	4	4
58	17.9258	0.145124	0	0	2.78336e-035	0	1	4	4
58	18.0709	0.220591	0	0	2.78336e-035	0	1	4	4
58	18.3496	0.116098	0	0	2.78336e-035	0	1	4	4
58	18.4657	0.267031	0	0	2.78336e-035	0	1	4	4
65	18.9243	0.0986843	0	0	2.78336e-035	0	1	4	4
65	19.0229	0.0406342	0	0	2.78336e-035	0	1	4	4
65	19.081	0.0754642	0	0	2.78336e-035	0	1	4	4
65	19.1565	0.0348301	0	0	2.78336e-035	0	1	4	4
65	19.261	0.0696602	0	0	2.78336e-035	0	1	4	4
58	19.3306	0.197369	0	0	2.78336e-035	0	1	4	4
58	19.528	0.13932	0	0	2.78336e-035	0	1	4	4
65	19.7718	0.232199	0	0	2.78336e-035	0	1	4	4
65	20.004	0.208981	0	0	2.78336e-035	0	1	4	4
65	20.2652	0.214785	0	0	2.78336e-035	0	1	4	4
65	20.48	0.15093	0	0	2.78336e-035	0	1	4	4
65	20.6309	0.0290241	0	0	2.78336e-035	0	1	4	4
56	20.8747	1.02168	0	0	2.78336e-035	0	1	4	4
56	22.0996	0.0754642	0	0	2.78336e-035	0	1	4	4
63	22.1751	0.16254	0	0	2.78336e-035	0	1	4	4
63	22.4363	0.0696602	0	0	2.78336e-035	0	1	4	4
56	22.622	0.1161	0	0	2.78336e-035	0	1	4	4
56	22.7846	0.0290241	0	0	2.78336e-035	0	1	4	4
63	22.8136	0.0638561	0	0	2.78336e-035	0	1	4	4
56	22.8775	0.0232201	0	0	2.78336e-035	0	1	4	4
63	22.9007	0.0232201	0	0	2.78336e-035	0	1	4	4
63	22.9297	0.0522442	0	0	2.78336e-035	0	1	4	4
63	23.04	0.220591	0	0	2.78336e-035	0	1	4	4
63	23.3535	0.0232182	0	0	2.78336e-035	0	1	4	4
54	23.8759	0.156734	0	0	2.78336e-035	0	1	4	4
68	24.4448	0.0290241	0	0	2.78336e-035	0	1	4	4
68	24.5493	0.0232201	0	0	2.78336e-035	0	1	4	4
63	24.5783	0.0928802	0	0	2.78336e-035	0	1	4	4
63	24.7176	0.0696602	0	0	2.78336e-035	0	1	4	4
58	25.0311	0.0986843	0	0	2.78336e-035	0	1	4	4
58	25.1646	0.597914	0	0	2.78336e-035	0	1	4	4
58	25.7625	0.992653	0	0	2.78336e-035	0	1	4	4
58	26.7726	1.0507	0	0	2.78336e-035	0	1	4	4
51	27.8639	0.417959	0	0	2.78336e-035	0	1	4	4
58	28.2819	0.10449	0	0	2.78336e-035	0	1	4	4
