midiPitch 	 onsetSec 	 durationSec 	 onsetBeats 	 onsetBarIndex 	 onsetBar 	 durationBeats 	 velocity  	 numerator 	 denominator 
57	0.24381	0.0348299	0	0	4.70183e-035	0	1	4	4
57	0.278639	0.029025	0	0	4.70183e-035	0	1	4	4
57	0.307664	0.10449	0	0	4.70183e-035	0	1	4	4
57	0.412154	0.133515	0	0	4.70183e-035	0	1	4	4
57	0.632744	0.0290249	0	0	4.70183e-035	0	1	4	4
57	0.673379	0.20898	0	0	4.70183e-035	0	1	4	4
65	1.14939	0.0870749	0	0	4.70183e-035	0	1	4	4
53	1.23646	0.0580498	0	0	4.70183e-035	0	1	4	4
54	1.399	0.029025	0	0	4.70183e-035	0	1	4	4
57	1.43383	0.029025	0	0	4.70183e-035	0	1	4	4
58	1.55574	0.040635	0	0	4.70183e-035	0	1	4	4
58	1.60798	0.13932	0	0	4.70183e-035	0	1	4	4
62	1.7473	0.0406349	0	0	4.70183e-035	0	1	4	4
65	1.79955	0.191565	0	0	4.70183e-035	0	1	4	4
62	1.99111	0.10449	0	0	4.70183e-035	0	1	4	4
65	2.14204	0.110295	0	0	4.70183e-035	0	1	4	4
62	2.25234	0.0464399	0	0	4.70183e-035	0	1	4	4
65	2.29878	0.0232201	0	0	4.70183e-035	0	1	4	4
65	2.52517	0.0348299	0	0	4.70183e-035	0	1	4	4
65	2.56	0.0348299	0	0	4.70183e-035	0	1	4	4
65	2.72254	0.0406349	0	0	4.70183e-035	0	1	4	4
62	2.78639	0.0580497	0	0	4.70183e-035	0	1	4	4
55	2.9141	0.261225	0	0	4.70183e-035	0	1	4	4
60	3.23918	0.0522449	0	0	4.70183e-035	0	1	4	4
65	3.29143	0.0522449	0	0	4.70183e-035	0	1	4	4
60	3.36109	0.0406351	0	0	4.70183e-035	0	1	4	4
65	3.45977	0.25542	0	0	4.70183e-035	0	1	4	4
65	3.84871	0.16254	0	0	4.70183e-035	0	1	4	4
60	4.01125	0.0928798	0	0	4.70183e-035	0	1	4	4
60	4.17379	0.0290251	0	0	4.70183e-035	0	1	4	4
65	4.20281	0.191565	0	0	4.70183e-035	0	1	4	4
65	4.39438	0.0928798	0	0	4.70183e-035	0	1	4	4
57	4.54531	0.0696597	0	0	4.70183e-035	0	1	4	4
58	4.61497	0.238005	0	0	4.70183e-035	0	1	4	4
58	4.85297	0.0232196	0	0	4.70183e-035	0	1	4	4
62	4.87619	0.0232201	0	0	4.70183e-035	0	1	4	4
62	4.90522	0.0232201	0	0	4.70183e-035	0	1	4	4
58	4.92844	0.0290251	0	0	4.70183e-035	0	1	4	4
62	4.95746	0.0290246	0	0	4.70183e-035	0	1	4	4
58	5.10258	0.0290251	0	0	4.70183e-035	0	1	4	4
62	5.13161	0.0928798	0	0	4.70183e-035	0	1	4	4
62	5.33478	0.0812697	0	0	4.70183e-035	0	1	4	4
62	5.64825	0.0928798	0	0	4.70183e-035	0	1	4	4
58	5.77016	0.110295	0	0	4.70183e-035	0	1	4	4
62	5.88045	0.0754647	0	0	4.70183e-035	0	1	4	4
56	6.10104	0.15093	0	0	4.70183e-035	0	1	4	4
57	6.42032	0.0522451	0	0	4.70183e-035	0	1	4	4
57	6.47256	0.191565	0	0	4.70183e-035	0	1	4	4
57	6.66413	0.0870748	0	0	4.70183e-035	0	1	4	4
57	6.81506	0.238004	0	0	4.70183e-035	0	1	4	4
56	7.12272	0.0696597	0	0	4.70183e-035	0	1	4	4
60	7.29687	0.0812697	0	0	4.70183e-035	0	1	4	4
53	7.37814	0.0406351	0	0	4.70183e-035	0	1	4	4
57	7.43039	0.0580497	0	0	4.70183e-035	0	1	4	4
57	7.64517	0.0696602	0	0	4.70183e-035	0	1	4	4
64	7.95864	0.0348301	0	0	4.70183e-035	0	1	4	4
62	8.01088	0.0638552	0	0	4.70183e-035	0	1	4	4
62	8.43465	0.0522451	0	0	4.70183e-035	0	1	4	4
65	8.58558	0.133514	0	0	4.70183e-035	0	1	4	4
65	8.71909	0.0232201	0	0	4.70183e-035	0	1	4	4
62	8.75392	0.0232201	0	0	4.70183e-035	0	1	4	4
65	8.77714	0.19737	0	0	4.70183e-035	0	1	4	4
62	8.97451	0.0812702	0	0	4.70183e-035	0	1	4	4
67	9.17769	0.0406351	0	0	4.70183e-035	0	1	4	4
69	9.36925	0.0232201	0	0	4.70183e-035	0	1	4	4
65	9.39247	0.0522451	0	0	4.70183e-035	0	1	4	4
60	9.44472	0.0812702	0	0	4.70183e-035	0	1	4	4
57	9.52599	0.0406342	0	0	4.70183e-035	0	1	4	4
57	9.60726	0.150929	0	0	4.70183e-035	0	1	4	4
57	9.75819	0.0232201	0	0	4.70183e-035	0	1	4	4
60	9.96716	0.0928802	0	0	4.70183e-035	0	1	4	4
60	10.269	0.0290251	0	0	4.70183e-035	0	1	4	4
60	10.3271	0.0348291	0	0	4.70183e-035	0	1	4	4
60	10.3677	0.0406351	0	0	4.70183e-035	0	1	4	4
57	10.5477	0.0464392	0	0	4.70183e-035	0	1	4	4
57	10.5941	0.0348301	0	0	4.70183e-035	0	1	4	4
57	10.7508	0.0696592	0	0	4.70183e-035	0	1	4	4
58	10.9134	0.150929	0	0	4.70183e-035	0	1	4	4
58	11.0643	0.20898	0	0	4.70183e-035	0	1	4	4
58	11.2733	0.0406351	0	0	4.70183e-035	0	1	4	4
62	11.3139	0.0986843	0	0	4.70183e-035	0	1	4	4
58	11.4184	0.0464401	0	0	4.70183e-035	0	1	4	4
58	11.4649	0.0232201	0	0	4.70183e-035	0	1	4	4
62	11.5403	0.0986843	0	0	4.70183e-035	0	1	4	4
58	11.877	0.0696602	0	0	4.70183e-035	0	1	4	4
58	11.9873	0.0870743	0	0	4.70183e-035	0	1	4	4
62	12.0744	0.0986853	0	0	4.70183e-035	0	1	4	4
62	12.2369	0.0232201	0	0	4.70183e-035	0	1	4	4
56	12.3066	0.179955	0	0	4.70183e-035	0	1	4	4
57	12.6781	0.191565	0	0	4.70183e-035	0	1	4	4
57	12.8697	0.133515	0	0	4.70183e-035	0	1	4	4
57	13.0961	0.284445	0	0	4.70183e-035	0	1	4	4
55	13.3805	0.0348301	0	0	4.70183e-035	0	1	4	4
53	13.5953	0.104489	0	0	4.70183e-035	0	1	4	4
57	13.8507	0.0928802	0	0	4.70183e-035	0	1	4	4
58	14.1061	0.121905	0	0	4.70183e-035	0	1	4	4
62	14.2454	0.116099	0	0	4.70183e-035	0	1	4	4
62	14.4486	0.0638542	0	0	4.70183e-035	0	1	4	4
62	14.6402	0.0464392	0	0	4.70183e-035	0	1	4	4
64	14.7969	0.0406351	0	0	4.70183e-035	0	1	4	4
64	14.8434	0.0348291	0	0	4.70183e-035	0	1	4	4
64	14.9769	0.0348301	0	0	4.70183e-035	0	1	4	4
65	15.0523	0.0986843	0	0	4.70183e-035	0	1	4	4
65	15.151	0.0464401	0	0	4.70183e-035	0	1	4	4
55	15.3136	0.249615	0	0	4.70183e-035	0	1	4	4
56	15.7896	0.0290251	0	0	4.70183e-035	0	1	4	4
53	15.9057	0.0812702	0	0	4.70183e-035	0	1	4	4
60	15.9869	0.0638542	0	0	4.70183e-035	0	1	4	4
57	16.1727	0.0696583	0	0	4.70183e-035	0	1	4	4
53	16.2888	0.0522461	0	0	4.70183e-035	0	1	4	4
60	16.341	0.162539	0	0	4.70183e-035	0	1	4	4
60	16.55	0.0522461	0	0	4.70183e-035	0	1	4	4
57	16.7358	0.0928783	0	0	4.70183e-035	0	1	4	4
57	16.9099	0.1161	0	0	4.70183e-035	0	1	4	4
58	17.026	0.255419	0	0	4.70183e-035	0	1	4	4
58	17.415	0.0348282	0	0	4.70183e-035	0	1	4	4
58	17.4498	0.0464401	0	0	4.70183e-035	0	1	4	4
58	17.5078	0.0232201	0	0	4.70183e-035	0	1	4	4
62	17.5311	0.121904	0	0	4.70183e-035	0	1	4	4
62	17.7226	0.133514	0	0	4.70183e-035	0	1	4	4
58	17.8794	0.0522461	0	0	4.70183e-035	0	1	4	4
65	18.0535	0.232199	0	0	4.70183e-035	0	1	4	4
65	18.2915	0.0870743	0	0	4.70183e-035	0	1	4	4
57	18.4831	0.0232201	0	0	4.70183e-035	0	1	4	4
58	18.5121	0.029026	0	0	4.70183e-035	0	1	4	4
60	18.5469	0.133514	0	0	4.70183e-035	0	1	4	4
60	18.6805	0.296055	0	0	4.70183e-035	0	1	4	4
60	18.9765	0.238005	0	0	4.70183e-035	0	1	4	4
60	19.2145	0.029026	0	0	4.70183e-035	0	1	4	4
60	19.2668	0.139318	0	0	4.70183e-035	0	1	4	4
60	19.4061	0.0986843	0	0	4.70183e-035	0	1	4	4
60	19.5048	0.278641	0	0	4.70183e-035	0	1	4	4
60	19.975	0.249615	0	0	4.70183e-035	0	1	4	4
62	20.2246	0.0986843	0	0	4.70183e-035	0	1	4	4
62	20.3233	0.0928802	0	0	4.70183e-035	0	1	4	4
58	20.4336	0.12771	0	0	4.70183e-035	0	1	4	4
62	21.2463	0.214785	0	0	4.70183e-035	0	1	4	4
60	21.5946	0.313471	0	0	4.70183e-035	0	1	4	4
60	21.9371	0.179955	0	0	4.70183e-035	0	1	4	4
60	22.117	0.179955	0	0	4.70183e-035	0	1	4	4
57	22.297	0.359909	0	0	4.70183e-035	0	1	4	4
57	22.6569	0.0754662	0	0	4.70183e-035	0	1	4	4
57	22.7323	0.0348282	0	0	4.70183e-035	0	1	4	4
56	22.7672	0.179956	0	0	4.70183e-035	0	1	4	4
57	22.9471	0.0812683	0	0	4.70183e-035	0	1	4	4
57	23.1561	0.0928802	0	0	4.70183e-035	0	1	4	4
46	23.487	0.174149	0	0	4.70183e-035	0	1	4	4
46	23.7018	0.185759	0	0	4.70183e-035	0	1	4	4
62	23.934	0.133514	0	0	4.70183e-035	0	1	4	4
65	24.0675	0.18576	0	0	4.70183e-035	0	1	4	4
65	24.2823	0.290251	0	0	4.70183e-035	0	1	4	4
60	24.6422	0.551476	0	0	4.70183e-035	0	1	4	4
60	25.2111	0.0638542	0	0	4.70183e-035	0	1	4	4
60	25.4142	0.267029	0	0	4.70183e-035	0	1	4	4
60	25.6813	0.0464401	0	0	4.70183e-035	0	1	4	4
60	25.7974	0.191565	0	0	4.70183e-035	0	1	4	4
60	25.9889	0.307665	0	0	4.70183e-035	0	1	4	4
62	26.8016	0.1161	0	0	4.70183e-035	0	1	4	4
62	27.0222	0.110294	0	0	4.70183e-035	0	1	4	4
62	27.4344	0.238005	0	0	4.70183e-035	0	1	4	4
60	27.7885	0.197369	0	0	4.70183e-035	0	1	4	4
60	28.131	0.179955	0	0	4.70183e-035	0	1	4	4
59	28.3109	0.296055	0	0	4.70183e-035	0	1	4	4
