midiPitch 	 onsetSec 	 durationSec 	 onsetBeats 	 onsetBarIndex 	 onsetBar 	 durationBeats 	 velocity  	 numerator 	 denominator 
59	0.406349	0.110295	0	0	0	0	1	4	4
59	0.516644	0.0754648	0	0	0	0	1	4	4
59	0.673379	0.0464399	0	0	0	0	1	4	4
59	0.719819	0.110295	0	0	0	0	1	4	4
66	1.43964	0.156735	0	0	0	0	1	4	4
62	1.6254	0.0754648	0	0	0	0	1	4	4
66	1.70086	0.0580498	0	0	0	0	1	4	4
66	2.01433	0.10449	0	0	0	0	1	4	4
65	2.11882	0.0232198	0	0	0	0	1	4	4
69	2.2117	0.10449	0	0	0	0	1	4	4
70	2.31619	0.0638549	0	0	0	0	1	4	4
59	2.60644	0.2322	0	0	0	0	1	4	4
59	2.83864	0.0522449	0	0	0	0	1	4	4
57	3.0302	0.342494	0	0	0	0	1	4	4
54	3.58748	0.232199	0	0	0	0	1	4	4
52	3.85451	0.13932	0	0	0	0	1	4	4
68	3.84871	0.214784	0	0	0	0	1	4	4
68	4.06349	0.0638552	0	0	0	0	1	4	4
68	4.17959	0.191565	0	0	0	0	1	4	4
66	5.2419	0.214785	0	0	0	0	1	4	4
65	5.4683	0.150929	0	0	0	0	1	4	4
69	6.0546	0.0290251	0	0	0	0	1	4	4
70	6.08363	0.0464396	0	0	0	0	1	4	4
71	6.13007	0.0754647	0	0	0	0	1	4	4
69	6.20553	0.0232201	0	0	0	0	1	4	4
69	6.22875	0.0522451	0	0	0	0	1	4	4
71	6.30422	0.15093	0	0	0	0	1	4	4
71	6.47256	0.0870748	0	0	0	0	1	4	4
70	6.55964	0.0348301	0	0	0	0	1	4	4
71	6.60027	0.145124	0	0	0	0	1	4	4
70	6.7454	0.0754647	0	0	0	0	1	4	4
69	6.83247	0.423764	0	0	0	0	1	4	4
66	7.39556	0.226395	0	0	0	0	1	4	4
66	7.64517	0.2322	0	0	0	0	1	4	4
66	7.94703	0.156734	0	0	0	0	1	4	4
64	8.23147	0.18576	0	0	0	0	1	4	4
62	8.50431	0.0754642	0	0	0	0	1	4	4
62	8.57977	0.110295	0	0	0	0	1	4	4
64	8.74812	0.214785	0	0	0	0	1	4	4
61	9.20091	0.0754652	0	0	0	0	1	4	4
61	9.29379	0.168344	0	0	0	0	1	4	4
61	9.68272	0.104489	0	0	0	0	1	4	4
61	9.8917	0.139319	0	0	0	0	1	4	4
57	10.3271	0.238004	0	0	0	0	1	4	4
57	10.5941	0.226395	0	0	0	0	1	4	4
59	11.3139	0.127709	0	0	0	0	1	4	4
59	11.4416	0.203175	0	0	0	0	1	4	4
61	11.8712	0.0754652	0	0	0	0	1	4	4
64	12.2717	0.203175	0	0	0	0	1	4	4
62	12.4749	0.0232201	0	0	0	0	1	4	4
62	12.8348	0.10449	0	0	0	0	1	4	4
62	12.9393	0.150929	0	0	0	0	1	4	4
59	13.3573	0.0580502	0	0	0	0	1	4	4
59	13.4966	0.0928802	0	0	0	0	1	4	4
59	13.6243	0.0522442	0	0	0	0	1	4	4
59	13.6766	0.0232201	0	0	0	0	1	4	4
59	13.7056	0.0870752	0	0	0	0	1	4	4
57	14.1351	0.0986853	0	0	0	0	1	4	4
59	14.2512	0.1161	0	0	0	0	1	4	4
59	14.4254	0.133514	0	0	0	0	1	4	4
59	14.5879	0.0754642	0	0	0	0	1	4	4
59	14.704	0.15093	0	0	0	0	1	4	4
59	14.855	0.0812693	0	0	0	0	1	4	4
59	15.0059	0.0638542	0	0	0	0	1	4	4
80	16.5616	0.0406361	0	0	0	0	1	4	4
80	16.6429	0.0290241	0	0	0	0	1	4	4
80	16.701	0.0464401	0	0	0	0	1	4	4
80	16.7474	0.0580502	0	0	0	0	1	4	4
80	16.8345	0.0232201	0	0	0	0	1	4	4
81	16.8925	0.0522442	0	0	0	0	1	4	4
78	16.9738	0.0580482	0	0	0	0	1	4	4
81	17.0318	0.029026	0	0	0	0	1	4	4
81	17.1654	0.0290241	0	0	0	0	1	4	4
81	17.2176	0.0348301	0	0	0	0	1	4	4
81	17.264	0.0290241	0	0	0	0	1	4	4
80	17.2989	0.156734	0	0	0	0	1	4	4
81	17.4556	0.12771	0	0	0	0	1	4	4
81	17.7052	0.0638542	0	0	0	0	1	4	4
81	17.8097	0.0870743	0	0	0	0	1	4	4
81	17.949	0.029026	0	0	0	0	1	4	4
80	18.0419	0.0406342	0	0	0	0	1	4	4
81	18.2973	0.0580502	0	0	0	0	1	4	4
81	18.3612	0.0348301	0	0	0	0	1	4	4
81	18.4599	0.0290241	0	0	0	0	1	4	4
78	18.4947	0.0638542	0	0	0	0	1	4	4
81	18.5644	0.0348301	0	0	0	0	1	4	4
80	18.6514	0.0870743	0	0	0	0	1	4	4
80	18.7675	0.0522442	0	0	0	0	1	4	4
80	18.872	0.0986862	0	0	0	0	1	4	4
80	19.0462	0.0348301	0	0	0	0	1	4	4
81	19.1158	0.0290241	0	0	0	0	1	4	4
81	19.2203	0.0522442	0	0	0	0	1	4	4
81	19.3016	0.0406361	0	0	0	0	1	4	4
81	19.3422	0.0406342	0	0	0	0	1	4	4
80	19.3945	0.0522461	0	0	0	0	1	4	4
80	19.4815	0.029026	0	0	0	0	1	4	4
80	19.5512	0.133514	0	0	0	0	1	4	4
81	19.8647	0.0464382	0	0	0	0	1	4	4
80	19.9692	0.0348301	0	0	0	0	1	4	4
81	20.0388	0.0232201	0	0	0	0	1	4	4
81	20.0911	0.0754662	0	0	0	0	1	4	4
80	20.1839	0.0406361	0	0	0	0	1	4	4
80	20.2362	0.0348301	0	0	0	0	1	4	4
80	20.3929	0.0754642	0	0	0	0	1	4	4
68	20.5497	0.0232201	0	0	0	0	1	4	4
68	20.9502	0.156736	0	0	0	0	1	4	4
68	21.1069	0.0870743	0	0	0	0	1	4	4
68	21.2114	0.191565	0	0	0	0	1	4	4
68	21.5191	0.0754642	0	0	0	0	1	4	4
68	22.0822	0.12771	0	0	0	0	1	4	4
72	22.2157	0.18576	0	0	0	0	1	4	4
72	22.5234	0.0870743	0	0	0	0	1	4	4
58	23.5799	0.0696602	0	0	0	0	1	4	4
59	23.6205	0.0348301	0	0	0	0	1	4	4
59	23.6727	0.203175	0	0	0	0	1	4	4
59	23.8759	0.0638561	0	0	0	0	1	4	4
64	24.1255	0.0348301	0	0	0	0	1	4	4
66	24.1662	0.220589	0	0	0	0	1	4	4
66	24.3868	0.0696602	0	0	0	0	1	4	4
66	24.5493	0.174149	0	0	0	0	1	4	4
66	24.7931	0.0754642	0	0	0	0	1	4	4
62	25.2807	0.203175	0	0	0	0	1	4	4
63	25.5478	0.208981	0	0	0	0	1	4	4
63	25.8612	0.0406361	0	0	0	0	1	4	4
60	26.0876	0.0232201	0	0	0	0	1	4	4
59	26.1224	0.0232201	0	0	0	0	1	4	4
60	26.1515	0.150928	0	0	0	0	1	4	4
60	26.4069	0.156734	0	0	0	0	1	4	4
59	26.5636	0.0406361	0	0	0	0	1	4	4
59	26.6101	0.029026	0	0	0	0	1	4	4
58	26.732	0.12771	0	0	0	0	1	4	4
59	26.8829	0.0348301	0	0	0	0	1	4	4
52	27.0454	0.0232182	0	0	0	0	1	4	4
57	27.1151	0.0232201	0	0	0	0	1	4	4
57	27.1499	0.0232201	0	0	0	0	1	4	4
57	27.1732	0.0348301	0	0	0	0	1	4	4
58	27.2718	0.0464401	0	0	0	0	1	4	4
57	27.3879	0.168344	0	0	0	0	1	4	4
62	27.655	0.0870743	0	0	0	0	1	4	4
67	27.9684	0.156734	0	0	0	0	1	4	4
69	28.2703	0.121904	0	0	0	0	1	4	4
70	28.5373	0.110296	0	0	0	0	1	4	4
71	28.6476	0.342493	0	0	0	0	1	4	4
