midiPitch 	 onsetSec 	 durationSec 	 onsetBeats 	 onsetBarIndex 	 onsetBar 	 durationBeats 	 velocity  	 numerator 	 denominator 
69	0.917188	0.0870749	0	0	0	0	1	4	4
66	1.11456	0.110295	0	0	0	0	1	4	4
67	1.25388	0.191565	0	0	0	0	1	4	4
72	2.15946	0.0406349	0	0	0	0	1	4	4
60	2.20009	0.133515	0	0	0	0	1	4	4
65	2.68771	0.0232198	0	0	0	0	1	4	4
68	2.71673	0.0870748	0	0	0	0	1	4	4
67	2.80381	0.20898	0	0	0	0	1	4	4
63	3.24499	0.203175	0	0	0	0	1	4	4
55	4.55692	0.203175	0	0	0	0	1	4	4
72	5.02132	0.0464401	0	0	0	0	1	4	4
67	5.24771	0.0406346	0	0	0	0	1	4	4
67	5.29995	0.18576	0	0	0	0	1	4	4
67	5.61342	0.0986848	0	0	0	0	1	4	4
67	5.71211	0.0812697	0	0	0	0	1	4	4
67	5.97914	0.156734	0	0	0	0	1	4	4
67	6.53642	0.0986848	0	0	0	0	1	4	4
67	6.70476	0.20898	0	0	0	0	1	4	4
68	6.91374	0.0638547	0	0	0	0	1	4	4
69	7.02984	0.35991	0	0	0	0	1	4	4
69	7.47102	0.1161	0	0	0	0	1	4	4
65	7.73224	0.325079	0	0	0	0	1	4	4
67	9.43311	0.110294	0	0	0	0	1	4	4
67	10.2284	0.191565	0	0	0	0	1	4	4
66	10.42	0.0290251	0	0	0	0	1	4	4
68	10.4606	0.127709	0	0	0	0	1	4	4
67	10.7334	0.243809	0	0	0	0	1	4	4
68	11.3778	0.0406351	0	0	0	0	1	4	4
65	11.4184	0.0232201	0	0	0	0	1	4	4
67	11.4939	0.133514	0	0	0	0	1	4	4
70	11.7957	0.179955	0	0	0	0	1	4	4
65	12.1673	0.104489	0	0	0	0	1	4	4
67	12.4111	0.0464401	0	0	0	0	1	4	4
67	12.4575	0.0348301	0	0	0	0	1	4	4
67	12.4981	0.150929	0	0	0	0	1	4	4
67	12.7652	0.17415	0	0	0	0	1	4	4
65	13.218	0.0580492	0	0	0	0	1	4	4
68	13.4385	0.0696602	0	0	0	0	1	4	4
67	13.5082	0.0290251	0	0	0	0	1	4	4
67	13.543	0.139319	0	0	0	0	1	4	4
74	13.8739	0.10449	0	0	0	0	1	4	4
74	13.9784	0.25542	0	0	0	0	1	4	4
68	14.4834	0.0928802	0	0	0	0	1	4	4
67	14.7215	0.26703	0	0	0	0	1	4	4
62	15.3658	0.145124	0	0	0	0	1	4	4
67	15.7954	0.133514	0	0	0	0	1	4	4
68	15.9289	0.121904	0	0	0	0	1	4	4
67	16.0508	0.156734	0	0	0	0	1	4	4
69	17.0434	0.0986862	0	0	0	0	1	4	4
69	17.1421	0.197369	0	0	0	0	1	4	4
67	17.5078	0.0580502	0	0	0	0	1	4	4
67	17.6123	0.179955	0	0	0	0	1	4	4
70	19.29	0.0580502	0	0	0	0	1	4	4
68	19.5512	0.0638561	0	0	0	0	1	4	4
66	19.6151	0.0290241	0	0	0	0	1	4	4
69	19.6499	0.139318	0	0	0	0	1	4	4
67	20.2246	0.133514	0	0	0	0	1	4	4
71	21.3391	0.0638542	0	0	0	0	1	4	4
68	21.5829	0.0696602	0	0	0	0	1	4	4
67	21.6526	0.0348301	0	0	0	0	1	4	4
68	21.6932	0.139318	0	0	0	0	1	4	4
67	21.9719	0.203175	0	0	0	0	1	4	4
68	22.3724	0.0580502	0	0	0	0	1	4	4
68	22.6104	0.0928802	0	0	0	0	1	4	4
67	22.7904	0.203175	0	0	0	0	1	4	4
67	23.098	0.145124	0	0	0	0	1	4	4
70	23.3709	0.667574	0	0	0	0	1	4	4
69	24.1081	0.104488	0	0	0	0	1	4	4
66	24.2997	0.0348301	0	0	0	0	1	4	4
65	24.3403	0.313469	0	0	0	0	1	4	4
64	25.5652	0.0232201	0	0	0	0	1	4	4
68	25.7219	0.0406342	0	0	0	0	1	4	4
67	25.78	0.0348301	0	0	0	0	1	4	4
68	25.8206	0.121904	0	0	0	0	1	4	4
67	26.0644	0.191565	0	0	0	0	1	4	4
69	26.7378	0.0522442	0	0	0	0	1	4	4
66	26.79	0.0406361	0	0	0	0	1	4	4
67	26.8365	0.133514	0	0	0	0	1	4	4
67	27.1093	0.179955	0	0	0	0	1	4	4
69	27.5215	0.0928802	0	0	0	0	1	4	4
68	27.7595	0.0812702	0	0	0	0	1	4	4
67	27.8639	0.15093	0	0	0	0	1	4	4
74	28.1832	0.284445	0	0	0	0	1	4	4
67	28.5722	0.0812702	0	0	0	0	1	4	4
64	28.8972	0.127708	0	0	0	0	1	4	4
66	29.1759	0.168344	0	0	0	0	1	4	4
