midiPitch 	 onsetSec 	 durationSec 	 onsetBeats 	 onsetBarIndex 	 onsetBar 	 durationBeats 	 velocity  	 numerator 	 denominator 
56	0.684989	0.0406349	0	0	0	0	1	4	4
51	0.725624	0.0870749	0	0	0	0	1	4	4
58	0.812698	0.0522448	0	0	0	0	1	4	4
56	0.893968	0.0406349	0	0	0	0	1	4	4
58	0.975238	0.029025	0	0	0	0	1	4	4
58	1.14358	0.040635	0	0	0	0	1	4	4
57	1.26549	0.0290248	0	0	0	0	1	4	4
58	1.48027	0.0232199	0	0	0	0	1	4	4
58	1.68925	0.03483	0	0	0	0	1	4	4
72	1.87501	0.0232199	0	0	0	0	1	4	4
74	1.91565	0.0522449	0	0	0	0	1	4	4
70	1.96789	0.0232199	0	0	0	0	1	4	4
75	2.00853	0.0232198	0	0	0	0	1	4	4
70	2.06658	0.0232198	0	0	0	0	1	4	4
73	2.10721	0.0232198	0	0	0	0	1	4	4
70	2.15365	0.0290248	0	0	0	0	1	4	4
70	2.19429	0.0348299	0	0	0	0	1	4	4
68	2.34522	0.0290251	0	0	0	0	1	4	4
70	2.46712	0.0348299	0	0	0	0	1	4	4
77	2.64707	0.0522449	0	0	0	0	1	4	4
58	2.86766	0.0232201	0	0	0	0	1	4	4
58	2.90249	0.0406351	0	0	0	0	1	4	4
57	3.04181	0.0232198	0	0	0	0	1	4	4
72	4.02866	0.18576	0	0	0	0	1	4	4
71	4.26086	0.0406351	0	0	0	0	1	4	4
72	4.3073	0.0580497	0	0	0	0	1	4	4
63	4.36535	0.0348301	0	0	0	0	1	4	4
64	4.48726	0.0232201	0	0	0	0	1	4	4
64	4.5337	0.0406346	0	0	0	0	1	4	4
64	4.57433	0.0522451	0	0	0	0	1	4	4
63	4.74848	0.0348296	0	0	0	0	1	4	4
65	4.78912	0.0464401	0	0	0	0	1	4	4
64	5.39864	0.0290251	0	0	0	0	1	4	4
64	5.43347	0.0232201	0	0	0	0	1	4	4
64	5.54957	0.0406346	0	0	0	0	1	4	4
64	5.66567	0.0290246	0	0	0	0	1	4	4
60	5.8224	0.0812697	0	0	0	0	1	4	4
60	5.90367	0.0290251	0	0	0	0	1	4	4
67	6.00236	0.0406351	0	0	0	0	1	4	4
67	6.0488	0.0232201	0	0	0	0	1	4	4
67	6.09524	0.0232196	0	0	0	0	1	4	4
60	6.11846	0.0696602	0	0	0	0	1	4	4
67	6.36807	0.0348301	0	0	0	0	1	4	4
64	6.50739	0.0638547	0	0	0	0	1	4	4
64	6.57125	0.0348301	0	0	0	0	1	4	4
64	6.78023	0.121905	0	0	0	0	1	4	4
63	7.18077	0.0232201	0	0	0	0	1	4	4
68	7.20399	0.0232196	0	0	0	0	1	4	4
66	7.30848	0.0348296	0	0	0	0	1	4	4
62	7.62195	0.0290246	0	0	0	0	1	4	4
62	7.68	0.0290251	0	0	0	0	1	4	4
63	7.8019	0.0232201	0	0	0	0	1	4	4
65	7.96444	0.0232201	0	0	0	0	1	4	4
64	8.27211	0.0986843	0	0	0	0	1	4	4
60	8.47528	0.0638542	0	0	0	0	1	4	4
64	8.55655	0.22059	0	0	0	0	1	4	4
64	8.83519	0.0232201	0	0	0	0	1	4	4
64	8.87002	0.0522442	0	0	0	0	1	4	4
65	8.96871	0.0638552	0	0	0	0	1	4	4
67	9.58404	0.0290251	0	0	0	0	1	4	4
67	9.64209	0.0348301	0	0	0	0	1	4	4
64	9.78141	0.0232201	0	0	0	0	1	4	4
64	9.86268	0.24381	0	0	0	0	1	4	4
64	10.1065	0.0522442	0	0	0	0	1	4	4
64	10.2052	0.0406351	0	0	0	0	1	4	4
64	10.2748	0.0406351	0	0	0	0	1	4	4
64	10.3387	0.0406342	0	0	0	0	1	4	4
62	10.3793	0.0232201	0	0	0	0	1	4	4
64	10.4374	0.0406351	0	0	0	0	1	4	4
66	10.5999	0.0290251	0	0	0	0	1	4	4
66	10.6289	0.0348301	0	0	0	0	1	4	4
66	10.7218	0.0232201	0	0	0	0	1	4	4
66	10.7508	0.0464392	0	0	0	0	1	4	4
66	10.9018	0.0406351	0	0	0	0	1	4	4
66	10.9482	0.0406342	0	0	0	0	1	4	4
66	10.9888	0.0406351	0	0	0	0	1	4	4
64	11.2327	0.0406351	0	0	0	0	1	4	4
64	11.4184	0.0464401	0	0	0	0	1	4	4
65	11.6796	0.0348301	0	0	0	0	1	4	4
65	11.7261	0.0290251	0	0	0	0	1	4	4
56	12.5504	0.0464401	0	0	0	0	1	4	4
61	12.9335	0.0464401	0	0	0	0	1	4	4
65	13.038	0.0232201	0	0	0	0	1	4	4
64	13.1831	0.0406342	0	0	0	0	1	4	4
64	13.2296	0.0870752	0	0	0	0	1	4	4
64	13.3921	0.0870743	0	0	0	0	1	4	4
64	13.514	0.0290251	0	0	0	0	1	4	4
64	13.5663	0.0348301	0	0	0	0	1	4	4
64	13.8797	0.0348301	0	0	0	0	1	4	4
64	13.932	0.0232201	0	0	0	0	1	4	4
67	14.1293	0.0232201	0	0	0	0	1	4	4
64	14.1758	0.116099	0	0	0	0	1	4	4
60	14.8317	0.0928793	0	0	0	0	1	4	4
64	15.2265	0.0522442	0	0	0	0	1	4	4
57	15.4587	0.0232191	0	0	0	0	1	4	4
62	15.5574	0.0232201	0	0	0	0	1	4	4
65	15.8476	0.0232201	0	0	0	0	1	4	4
65	15.8941	0.0232201	0	0	0	0	1	4	4
64	16.4746	0.0754642	0	0	0	0	1	4	4
58	17.0725	0.0348301	0	0	0	0	1	4	4
65	17.3047	0.029026	0	0	0	0	1	4	4
65	17.3337	0.0754642	0	0	0	0	1	4	4
65	17.4092	0.0290241	0	0	0	0	1	4	4
62	17.6123	0.0290241	0	0	0	0	1	4	4
63	17.6704	0.0290241	0	0	0	0	1	4	4
63	17.7981	0.0754642	0	0	0	0	1	4	4
65	17.9548	0.0232201	0	0	0	0	1	4	4
64	18.2102	0.0406342	0	0	0	0	1	4	4
63	18.2741	0.0522461	0	0	0	0	1	4	4
64	18.9359	0.0232201	0	0	0	0	1	4	4
65	18.9649	0.0348301	0	0	0	0	1	4	4
70	19.4409	0.0464401	0	0	0	0	1	4	4
66	19.5396	0.0348301	0	0	0	0	1	4	4
65	19.6383	0.0348301	0	0	0	0	1	4	4
65	19.7021	0.0348301	0	0	0	0	1	4	4
64	19.9576	0.0232201	0	0	0	0	1	4	4
65	20.062	0.0232201	0	0	0	0	1	4	4
65	20.2768	0.0232201	0	0	0	0	1	4	4
65	20.3523	0.0348301	0	0	0	0	1	4	4
65	20.3929	0.0232201	0	0	0	0	1	4	4
65	20.4568	0.0232201	0	0	0	0	1	4	4
67	20.7354	0.029026	0	0	0	0	1	4	4
69	21.165	0.0232201	0	0	0	0	1	4	4
68	21.1882	0.0232201	0	0	0	0	1	4	4
68	21.3333	0.0928802	0	0	0	0	1	4	4
68	21.4262	0.121904	0	0	0	0	1	4	4
68	21.5481	0.0522461	0	0	0	0	1	4	4
68	21.6004	0.191565	0	0	0	0	1	4	4
69	21.7919	0.0522442	0	0	0	0	1	4	4
69	21.8732	0.0232201	0	0	0	0	1	4	4
69	21.9022	0.0232201	0	0	0	0	1	4	4
69	22.0125	0.0580502	0	0	0	0	1	4	4
72	22.1751	0.0290241	0	0	0	0	1	4	4
71	22.3492	0.0348301	0	0	0	0	1	4	4
69	22.4131	0.0232201	0	0	0	0	1	4	4
69	22.6801	0.029026	0	0	0	0	1	4	4
69	22.7265	0.0232201	0	0	0	0	1	4	4
69	22.7788	0.0348301	0	0	0	0	1	4	4
62	23.6785	0.0232201	0	0	0	0	1	4	4
63	23.7192	0.0406361	0	0	0	0	1	4	4
63	23.7598	0.0406342	0	0	0	0	1	4	4
70	23.8179	0.029026	0	0	0	0	1	4	4
58	23.992	0.0232201	0	0	0	0	1	4	4
70	24.0849	0.0290241	0	0	0	0	1	4	4
69	24.1313	0.0232201	0	0	0	0	1	4	4
70	24.2649	0.0348301	0	0	0	0	1	4	4
69	24.4042	0.0522461	0	0	0	0	1	4	4
68	24.6538	0.0406361	0	0	0	0	1	4	4
71	24.7409	0.0464401	0	0	0	0	1	4	4
70	24.8105	0.029026	0	0	0	0	1	4	4
68	25.0659	0.13932	0	0	0	0	1	4	4
70	25.3794	0.0232201	0	0	0	0	1	4	4
64	25.4375	0.0406342	0	0	0	0	1	4	4
67	25.4955	0.0290241	0	0	0	0	1	4	4
70	25.5361	0.0232201	0	0	0	0	1	4	4
67	25.6174	0.0290241	0	0	0	0	1	4	4
64	26.0005	0.029026	0	0	0	0	1	4	4
69	26.0702	0.0290241	0	0	0	0	1	4	4
68	26.1166	0.139318	0	0	0	0	1	4	4
65	26.2792	0.0406361	0	0	0	0	1	4	4
64	26.4591	0.029026	0	0	0	0	1	4	4
64	26.5172	0.0638561	0	0	0	0	1	4	4
64	26.5985	0.0348301	0	0	0	0	1	4	4
64	26.761	0.0290241	0	0	0	0	1	4	4
70	27.1906	0.0348301	0	0	0	0	1	4	4
68	27.2312	0.029026	0	0	0	0	1	4	4
70	27.266	0.0348301	0	0	0	0	1	4	4
70	27.504	0.0406342	0	0	0	0	1	4	4
70	27.8407	0.029026	0	0	0	0	1	4	4
69	27.8756	0.0348301	0	0	0	0	1	4	4
61	28.1252	0.0290241	0	0	0	0	1	4	4
61	28.2529	0.0406342	0	0	0	0	1	4	4
62	28.4735	0.0290241	0	0	0	0	1	4	4
63	28.5025	0.029026	0	0	0	0	1	4	4
62	28.607	0.0754662	0	0	0	0	1	4	4
63	28.9785	0.029026	0	0	0	0	1	4	4
63	29.0133	0.0232201	0	0	0	0	1	4	4
63	29.0366	0.0348301	0	0	0	0	1	4	4
