midiPitch 	 onsetSec 	 durationSec 	 onsetBeats 	 onsetBarIndex 	 onsetBar 	 durationBeats 	 velocity  	 numerator 	 denominator 
67	0.0928798	0.0290249	0	0	0	0	1	4	4
67	0.121905	0.13932	0	0	0	0	1	4	4
67	0.261224	0.16254	0	0	0	0	1	4	4
65	0.522449	0.13932	0	0	0	0	1	4	4
67	0.714014	0.10449	0	0	0	0	1	4	4
65	0.911383	0.12771	0	0	0	0	1	4	4
67	1.06812	0.510839	0	0	0	0	1	4	4
67	1.6312	0.04644	0	0	0	0	1	4	4
65	1.69506	0.0348299	0	0	0	0	1	4	4
63	1.73569	0.029025	0	0	0	0	1	4	4
64	1.77052	0.0812699	0	0	0	0	1	4	4
69	1.89243	0.040635	0	0	0	0	1	4	4
68	1.93306	0.0986847	0	0	0	0	1	4	4
65	2.03175	0.0290251	0	0	0	0	1	4	4
69	2.11882	0.0406349	0	0	0	0	1	4	4
61	2.21751	0.0290248	0	0	0	0	1	4	4
62	2.25234	0.0638549	0	0	0	0	1	4	4
68	2.36263	0.0754647	0	0	0	0	1	4	4
55	2.43229	0.0464399	0	0	0	0	1	4	4
64	2.47873	0.0928798	0	0	0	0	1	4	4
65	2.57161	0.0348299	0	0	0	0	1	4	4
65	2.73995	0.267029	0	0	0	0	1	4	4
64	3.05342	0.1161	0	0	0	0	1	4	4
67	3.30304	0.249614	0	0	0	0	1	4	4
64	3.58168	0.243809	0	0	0	0	1	4	4
65	3.87773	0.1161	0	0	0	0	1	4	4
65	3.99383	0.0232201	0	0	0	0	1	4	4
65	4.01705	0.0870748	0	0	0	0	1	4	4
64	4.10413	0.0290251	0	0	0	0	1	4	4
64	4.17379	0.20898	0	0	0	0	1	4	4
62	4.69043	0.0870748	0	0	0	0	1	4	4
67	4.96907	0.168344	0	0	0	0	1	4	4
64	5.16063	0.162539	0	0	0	0	1	4	4
63	5.39864	0.0986848	0	0	0	0	1	4	4
62	5.49732	0.13932	0	0	0	0	1	4	4
65	5.75274	0.168344	0	0	0	0	1	4	4
64	5.92109	0.17415	0	0	0	0	1	4	4
64	6.11846	0.249615	0	0	0	0	1	4	4
62	7.36653	0.13932	0	0	0	0	1	4	4
67	7.55809	0.16254	0	0	0	0	1	4	4
67	7.72063	0.191565	0	0	0	0	1	4	4
67	7.9122	0.255419	0	0	0	0	1	4	4
65	8.47528	0.162539	0	0	0	0	1	4	4
70	8.77714	0.121905	0	0	0	0	1	4	4
69	8.89905	0.0290241	0	0	0	0	1	4	4
69	8.93388	0.1161	0	0	0	0	1	4	4
69	9.09061	0.20898	0	0	0	0	1	4	4
68	9.50277	0.0812693	0	0	0	0	1	4	4
68	9.58404	0.179955	0	0	0	0	1	4	4
70	9.82204	0.145124	0	0	0	0	1	4	4
70	9.96716	0.16254	0	0	0	0	1	4	4
69	10.1587	0.145125	0	0	0	0	1	4	4
67	10.4374	0.0580502	0	0	0	0	1	4	4
69	10.6057	0.2322	0	0	0	0	1	4	4
67	10.8379	0.0348301	0	0	0	0	1	4	4
67	10.8844	0.203175	0	0	0	0	1	4	4
67	11.4068	0.133515	0	0	0	0	1	4	4
68	11.5577	0.0870743	0	0	0	0	1	4	4
67	11.6448	0.12771	0	0	0	0	1	4	4
67	11.848	0.1161	0	0	0	0	1	4	4
65	12.0918	0.0290251	0	0	0	0	1	4	4
65	12.1266	0.0348301	0	0	0	0	1	4	4
64	12.2892	0.22059	0	0	0	0	1	4	4
67	12.5098	0.25542	0	0	0	0	1	4	4
68	12.8174	0.121905	0	0	0	0	1	4	4
68	13.0961	0.17415	0	0	0	0	1	4	4
69	13.2702	0.0232201	0	0	0	0	1	4	4
69	13.2992	0.0638552	0	0	0	0	1	4	4
69	13.3631	0.0232201	0	0	0	0	1	4	4
67	13.5314	0.110294	0	0	0	0	1	4	4
68	13.6591	0.0754652	0	0	0	0	1	4	4
67	13.7346	0.0232201	0	0	0	0	1	4	4
67	13.8623	0.30186	0	0	0	0	1	4	4
65	14.2745	0.13932	0	0	0	0	1	4	4
64	14.4138	0.0406342	0	0	0	0	1	4	4
64	14.4602	0.0812702	0	0	0	0	1	4	4
65	14.6518	0.121904	0	0	0	0	1	4	4
64	14.8085	0.104489	0	0	0	0	1	4	4
67	15.0581	0.20898	0	0	0	0	1	4	4
69	15.2845	0.133515	0	0	0	0	1	4	4
69	15.5167	0.0696602	0	0	0	0	1	4	4
67	15.6154	0.104489	0	0	0	0	1	4	4
67	15.7199	0.0232201	0	0	0	0	1	4	4
67	15.8012	0.104489	0	0	0	0	1	4	4
66	16.1379	0.121904	0	0	0	0	1	4	4
62	16.2888	0.13932	0	0	0	0	1	4	4
65	16.4281	0.348299	0	0	0	0	1	4	4
64	16.8403	0.267031	0	0	0	0	1	4	4
63	17.2408	0.0464401	0	0	0	0	1	4	4
67	17.5137	0.232199	0	0	0	0	1	4	4
67	17.7458	0.0580502	0	0	0	0	1	4	4
67	17.8039	0.12771	0	0	0	0	1	4	4
67	17.9897	0.0986843	0	0	0	0	1	4	4
65	18.3844	0.133514	0	0	0	0	1	4	4
68	19.0636	0.12771	0	0	0	0	1	4	4
65	19.3074	0.0870743	0	0	0	0	1	4	4
67	19.5222	0.133514	0	0	0	0	1	4	4
64	19.6557	0.272835	0	0	0	0	1	4	4
67	19.9517	0.232199	0	0	0	0	1	4	4
65	20.2304	0.191565	0	0	0	0	1	4	4
65	20.5903	0.179955	0	0	0	0	1	4	4
62	20.8515	0.208981	0	0	0	0	1	4	4
62	21.0721	0.156734	0	0	0	0	1	4	4
62	21.2288	0.116098	0	0	0	0	1	4	4
65	21.4436	0.150928	0	0	0	0	1	4	4
64	21.7223	0.17415	0	0	0	0	1	4	4
67	22.4305	0.0928802	0	0	0	0	1	4	4
61	22.7381	0.0232201	0	0	0	0	1	4	4
73	22.7498	0.01161	0	0	0	0	1	4	4
61	22.7381	0.0290241	0	0	0	0	1	4	4
73	22.7498	0.0174141	0	0	0	0	1	4	4
61	22.7381	0.0348301	0	0	0	0	1	4	4
73	22.7498	0.0232201	0	0	0	0	1	4	4
61	22.7381	0.0406342	0	0	0	0	1	4	4
73	22.7498	0.17415	0	0	0	0	1	4	4
62	22.9239	0.290249	0	0	0	0	1	4	4
62	23.2432	0.121906	0	0	0	0	1	4	4
65	23.4638	0.220589	0	0	0	0	1	4	4
64	23.8005	0.278639	0	0	0	0	1	4	4
67	24.6596	0.0522442	0	0	0	0	1	4	4
63	24.9324	0.121904	0	0	0	0	1	4	4
67	25.0543	0.319275	0	0	0	0	1	4	4
65	25.4955	0.145124	0	0	0	0	1	4	4
67	25.6406	0.272835	0	0	0	0	1	4	4
69	26.2618	0.12771	0	0	0	0	1	4	4
67	26.3895	0.145124	0	0	0	0	1	4	4
67	26.6507	0.17415	0	0	0	0	1	4	4
67	27.1441	0.0754642	0	0	0	0	1	4	4
68	27.3125	0.0290241	0	0	0	0	1	4	4
67	27.3473	0.0870743	0	0	0	0	1	4	4
67	27.5331	0.16254	0	0	0	0	1	4	4
65	27.6956	0.12771	0	0	0	0	1	4	4
65	27.8233	0.185759	0	0	0	0	1	4	4
67	28.0091	0.18576	0	0	0	0	1	4	4
65	28.1948	0.110294	0	0	0	0	1	4	4
64	28.4038	0.0754662	0	0	0	0	1	4	4
67	28.5257	0.1161	0	0	0	0	1	4	4
67	28.7753	0.313471	0	0	0	0	1	4	4
67	29.4603	0.226395	0	0	0	0	1	4	4
