midiPitch 	 onsetSec 	 durationSec 	 onsetBeats 	 onsetBarIndex 	 onsetBar 	 durationBeats 	 velocity  	 numerator 	 denominator 
59	0.551474	0.0870748	0	0	1.86166e-035	0	1	4	4
59	0.876553	0.1161	0	0	1.86166e-035	0	1	4	4
59	1.17841	0.0870749	0	0	1.86166e-035	0	1	4	4
57	1.45705	0.0928799	0	0	1.86166e-035	0	1	4	4
63	1.81696	0.0696598	0	0	1.86166e-035	0	1	4	4
62	2.0898	0.0406349	0	0	1.86166e-035	0	1	4	4
61	2.37424	0.0406349	0	0	1.86166e-035	0	1	4	4
60	2.66449	0.0348299	0	0	1.86166e-035	0	1	4	4
59	2.97796	0.0522449	0	0	1.86166e-035	0	1	4	4
58	3.27982	0.0580499	0	0	1.86166e-035	0	1	4	4
57	3.57007	0.0986848	0	0	1.86166e-035	0	1	4	4
56	3.721	0.13932	0	0	1.86166e-035	0	1	4	4
55	4.00544	0.150929	0	0	1.86166e-035	0	1	4	4
55	4.15637	0.12771	0	0	1.86166e-035	0	1	4	4
56	4.3015	0.0232201	0	0	1.86166e-035	0	1	4	4
56	4.32472	0.17415	0	0	1.86166e-035	0	1	4	4
55	4.63238	0.12771	0	0	1.86166e-035	0	1	4	4
63	4.78912	0.13932	0	0	1.86166e-035	0	1	4	4
63	5.07356	0.0464401	0	0	1.86166e-035	0	1	4	4
63	5.12	0.0232201	0	0	1.86166e-035	0	1	4	4
63	5.14902	0.0406346	0	0	1.86166e-035	0	1	4	4
62	5.24771	0.1161	0	0	1.86166e-035	0	1	4	4
56	5.43347	0.1161	0	0	1.86166e-035	0	1	4	4
55	6.26358	0.110295	0	0	1.86166e-035	0	1	4	4
54	6.61769	0.110295	0	0	1.86166e-035	0	1	4	4
59	6.73379	0.18576	0	0	1.86166e-035	0	1	4	4
65	6.92535	0.1161	0	0	1.86166e-035	0	1	4	4
64	7.04145	0.238005	0	0	1.86166e-035	0	1	4	4
0	7.27946	0.162539	0	0	1.86166e-035	0	1	4	4
59	7.63936	0.20898	0	0	1.86166e-035	0	1	4	4
65	7.86576	0.10449	0	0	1.86166e-035	0	1	4	4
64	7.97025	0.19737	0	0	1.86166e-035	0	1	4	4
64	8.16762	0.203175	0	0	1.86166e-035	0	1	4	4
63	8.37079	0.0696602	0	0	1.86166e-035	0	1	4	4
64	8.48109	0.0986843	0	0	1.86166e-035	0	1	4	4
57	9.03256	0.0696602	0	0	1.86166e-035	0	1	4	4
59	9.10222	0.19737	0	0	1.86166e-035	0	1	4	4
64	9.32862	0.12771	0	0	1.86166e-035	0	1	4	4
63	9.63048	0.139319	0	0	1.86166e-035	0	1	4	4
62	9.96136	0.0696602	0	0	1.86166e-035	0	1	4	4
61	10.2168	0.179955	0	0	1.86166e-035	0	1	4	4
58	10.6347	0.179955	0	0	1.86166e-035	0	1	4	4
57	10.9656	0.168344	0	0	1.86166e-035	0	1	4	4
56	11.2733	0.203175	0	0	1.86166e-035	0	1	4	4
55	11.5984	0.156735	0	0	1.86166e-035	0	1	4	4
56	11.906	0.156734	0	0	1.86166e-035	0	1	4	4
55	12.2137	0.121905	0	0	1.86166e-035	0	1	4	4
56	12.3356	0.127709	0	0	1.86166e-035	0	1	4	4
58	12.7884	0.0348291	0	0	1.86166e-035	0	1	4	4
58	12.829	0.121905	0	0	1.86166e-035	0	1	4	4
59	12.98	0.110294	0	0	1.86166e-035	0	1	4	4
59	13.2644	0.26703	0	0	1.86166e-035	0	1	4	4
64	15.3484	0.0290251	0	0	1.86166e-035	0	1	4	4
61	15.3774	0.121904	0	0	1.86166e-035	0	1	4	4
55	16.0392	0.0928802	0	0	1.86166e-035	0	1	4	4
57	16.1727	0.0870743	0	0	1.86166e-035	0	1	4	4
57	16.312	0.0348301	0	0	1.86166e-035	0	1	4	4
57	16.3527	0.0754642	0	0	1.86166e-035	0	1	4	4
57	16.4746	0.121904	0	0	1.86166e-035	0	1	4	4
57	16.5965	0.0348301	0	0	1.86166e-035	0	1	4	4
55	17.0318	0.307665	0	0	1.86166e-035	0	1	4	4
55	17.3395	0.029026	0	0	1.86166e-035	0	1	4	4
53	17.6472	0.336689	0	0	1.86166e-035	0	1	4	4
55	18.5353	0.0580502	0	0	1.86166e-035	0	1	4	4
57	18.6166	0.15093	0	0	1.86166e-035	0	1	4	4
57	18.7675	0.110294	0	0	1.86166e-035	0	1	4	4
58	18.9185	0.0232201	0	0	1.86166e-035	0	1	4	4
57	18.9475	0.0290241	0	0	1.86166e-035	0	1	4	4
58	19.0055	0.0870743	0	0	1.86166e-035	0	1	4	4
52	19.2842	0.208979	0	0	1.86166e-035	0	1	4	4
61	19.4932	0.197371	0	0	1.86166e-035	0	1	4	4
61	19.6905	0.12771	0	0	1.86166e-035	0	1	4	4
56	19.8182	0.261225	0	0	1.86166e-035	0	1	4	4
56	20.0795	0.0348282	0	0	1.86166e-035	0	1	4	4
65	20.2304	0.121904	0	0	1.86166e-035	0	1	4	4
65	20.3523	0.029026	0	0	1.86166e-035	0	1	4	4
55	20.4161	0.208979	0	0	1.86166e-035	0	1	4	4
55	20.6251	0.10449	0	0	1.86166e-035	0	1	4	4
54	20.747	0.0754662	0	0	1.86166e-035	0	1	4	4
54	20.8225	0.0406342	0	0	1.86166e-035	0	1	4	4
55	20.9386	0.0870762	0	0	1.86166e-035	0	1	4	4
55	21.0257	0.0232201	0	0	1.86166e-035	0	1	4	4
57	21.0663	0.13932	0	0	1.86166e-035	0	1	4	4
57	21.2056	0.150928	0	0	1.86166e-035	0	1	4	4
55	21.3972	0.162539	0	0	1.86166e-035	0	1	4	4
57	21.6642	0.0754642	0	0	1.86166e-035	0	1	4	4
57	21.7397	0.0232201	0	0	1.86166e-035	0	1	4	4
57	21.7629	0.0348301	0	0	1.86166e-035	0	1	4	4
85	21.7803	0.0928802	0	0	1.86166e-035	0	1	4	4
84	21.8732	0.110294	0	0	1.86166e-035	0	1	4	4
82	21.9835	0.185759	0	0	1.86166e-035	0	1	4	4
84	22.1693	0.0928802	0	0	1.86166e-035	0	1	4	4
84	22.2679	0.127708	0	0	1.86166e-035	0	1	4	4
83	22.3956	0.0928802	0	0	1.86166e-035	0	1	4	4
81	22.4885	0.0638542	0	0	1.86166e-035	0	1	4	4
80	22.5524	0.220591	0	0	1.86166e-035	0	1	4	4
79	23.069	0.116098	0	0	1.86166e-035	0	1	4	4
81	23.1851	0.13932	0	0	1.86166e-035	0	1	4	4
79	23.3709	0.133514	0	0	1.86166e-035	0	1	4	4
82	23.5044	0.16254	0	0	1.86166e-035	0	1	4	4
81	23.6669	0.0406342	0	0	1.86166e-035	0	1	4	4
79	23.7076	0.0986843	0	0	1.86166e-035	0	1	4	4
86	23.8063	0.15093	0	0	1.86166e-035	0	1	4	4
82	23.992	0.12771	0	0	1.86166e-035	0	1	4	4
81	24.1197	0.0986843	0	0	1.86166e-035	0	1	4	4
82	24.5725	0.0406342	0	0	1.86166e-035	0	1	4	4
71	25.2227	0.255419	0	0	1.86166e-035	0	1	4	4
82	25.629	0.13932	0	0	1.86166e-035	0	1	4	4
82	25.8206	0.0986843	0	0	1.86166e-035	0	1	4	4
74	26.2211	0.162539	0	0	1.86166e-035	0	1	4	4
57	26.4417	0.203175	0	0	1.86166e-035	0	1	4	4
60	26.8539	0.133516	0	0	1.86166e-035	0	1	4	4
60	26.9874	0.208979	0	0	1.86166e-035	0	1	4	4
73	27.1383	0.197371	0	0	1.86166e-035	0	1	4	4
76	27.6376	0.133514	0	0	1.86166e-035	0	1	4	4
74	27.7711	0.179955	0	0	1.86166e-035	0	1	4	4
74	28.0903	0.13932	0	0	1.86166e-035	0	1	4	4
81	28.3225	0.0348301	0	0	1.86166e-035	0	1	4	4
73	28.3864	0.0928802	0	0	1.86166e-035	0	1	4	4
57	28.4212	0.0986843	0	0	1.86166e-035	0	1	4	4
56	28.5199	0.0348301	0	0	1.86166e-035	0	1	4	4
57	28.6941	0.127708	0	0	1.86166e-035	0	1	4	4
57	28.8218	0.278641	0	0	1.86166e-035	0	1	4	4
61	29.3965	0.17415	0	0	1.86166e-035	0	1	4	4
45	29.5706	0.342495	0	0	1.86166e-035	0	1	4	4
