midiPitch 	 onsetSec 	 durationSec 	 onsetBeats 	 onsetBarIndex 	 onsetBar 	 durationBeats 	 velocity  	 numerator 	 denominator 
71	0.0580499	0.325079	0	0	2.72655e-035	0	1	4	4
72	0.429569	0.121905	0	0	2.72655e-035	0	1	4	4
60	1.03329	0.0696598	0	0	2.72655e-035	0	1	4	4
72	1.10295	0.0232199	0	0	2.72655e-035	0	1	4	4
60	1.09714	1.67184	0	0	2.72655e-035	0	1	4	4
65	2.76898	0.423764	0	0	2.72655e-035	0	1	4	4
67	3.19274	2.9083	0	0	2.72655e-035	0	1	4	4
67	6.10104	0.0638552	0	0	2.72655e-035	0	1	4	4
64	6.82667	0.0406351	0	0	2.72655e-035	0	1	4	4
65	6.87311	0.888163	0	0	2.72655e-035	0	1	4	4
68	7.84254	0.760454	0	0	2.72655e-035	0	1	4	4
72	8.6088	1.82857	0	0	2.72655e-035	0	1	4	4
72	10.4374	0.336689	0	0	2.72655e-035	0	1	4	4
68	10.7741	0.0348301	0	0	2.72655e-035	0	1	4	4
63	10.8147	0.568889	0	0	2.72655e-035	0	1	4	4
63	11.6158	0.30186	0	0	2.72655e-035	0	1	4	4
65	11.9176	0.0812693	0	0	2.72655e-035	0	1	4	4
65	11.9989	0.0290251	0	0	2.72655e-035	0	1	4	4
63	12.1324	0.0812693	0	0	2.72655e-035	0	1	4	4
63	12.2137	0.772064	0	0	2.72655e-035	0	1	4	4
60	13.3805	0.388934	0	0	2.72655e-035	0	1	4	4
62	13.7694	0.719818	0	0	2.72655e-035	0	1	4	4
65	14.5241	0.400544	0	0	2.72655e-035	0	1	4	4
67	14.9711	1.66023	0	0	2.72655e-035	0	1	4	4
67	16.6313	1.21905	0	0	2.72655e-035	0	1	4	4
67	17.8503	0.0406342	0	0	2.72655e-035	0	1	4	4
64	18.4541	0.12771	0	0	2.72655e-035	0	1	4	4
65	18.5818	1.03909	0	0	2.72655e-035	0	1	4	4
67	19.6499	0.714012	0	0	2.72655e-035	0	1	4	4
65	20.3639	0.928799	0	0	2.72655e-035	0	1	4	4
65	21.2927	0.684988	0	0	2.72655e-035	0	1	4	4
65	21.9777	0.243811	0	0	2.72655e-035	0	1	4	4
65	22.2215	0.743038	0	0	2.72655e-035	0	1	4	4
65	22.9994	0.226395	0	0	2.72655e-035	0	1	4	4
65	23.3244	0.0754642	0	0	2.72655e-035	0	1	4	4
65	23.3999	0.13932	0	0	2.72655e-035	0	1	4	4
65	23.5508	0.354105	0	0	2.72655e-035	0	1	4	4
65	23.9049	0.522448	0	0	2.72655e-035	0	1	4	4
60	26.5927	0.203175	0	0	2.72655e-035	0	1	4	4
62	26.7958	0.864943	0	0	2.72655e-035	0	1	4	4
62	27.893	0.296055	0	0	2.72655e-035	0	1	4	4
58	28.2471	0.464399	0	0	2.72655e-035	0	1	4	4
59	28.7115	0.238005	0	0	2.72655e-035	0	1	4	4
60	28.9495	0.301859	0	0	2.72655e-035	0	1	4	4
61	29.2513	0.0870743	0	0	2.72655e-035	0	1	4	4
