midiPitch 	 onsetSec 	 durationSec 	 onsetBeats 	 onsetBarIndex 	 onsetBar 	 durationBeats 	 velocity  	 numerator 	 denominator 
66	0.2322	0.0348299	0	0	0	0	1	4	4
68	0.272834	0.394739	0	0	0	0	1	4	4
64	0.766258	0.348299	0	0	0	0	1	4	4
68	1.22485	0.0232199	0	0	0	0	1	4	4
70	1.25388	0.10449	0	0	0	0	1	4	4
66	1.36998	0.278639	0	0	0	0	1	4	4
63	1.93887	0.08127	0	0	0	0	1	4	4
63	2.02014	0.232199	0	0	0	0	1	4	4
63	2.4439	0.249614	0	0	0	0	1	4	4
65	2.81542	0.290249	0	0	0	0	1	4	4
65	3.10567	0.09288	0	0	0	0	1	4	4
68	3.48299	0.145125	0	0	0	0	1	4	4
68	4.34794	0.307664	0	0	0	0	1	4	4
64	4.70204	0.0406351	0	0	0	0	1	4	4
64	4.82975	0.162539	0	0	0	0	1	4	4
65	4.99229	0.121905	0	0	0	0	1	4	4
72	5.4741	0.0928798	0	0	0	0	1	4	4
70	5.64245	0.0348301	0	0	0	0	1	4	4
72	5.68308	0.238004	0	0	0	0	1	4	4
70	5.92109	0.922993	0	0	0	0	1	4	4
62	12.4981	0.156734	0	0	0	0	1	4	4
63	12.6549	0.0754652	0	0	0	0	1	4	4
63	12.8	0.133514	0	0	0	0	1	4	4
61	12.9335	0.17415	0	0	0	0	1	4	4
60	13.8217	0.116099	0	0	0	0	1	4	4
68	14.5125	0.1161	0	0	0	0	1	4	4
68	14.8201	0.145124	0	0	0	0	1	4	4
63	15.1626	0.313469	0	0	0	0	1	4	4
59	15.4761	0.0232201	0	0	0	0	1	4	4
63	15.7896	0.261224	0	0	0	0	1	4	4
61	16.3817	0.1161	0	0	0	0	1	4	4
65	17.0667	0.255421	0	0	0	0	1	4	4
60	17.8503	0.0406342	0	0	0	0	1	4	4
60	17.8968	0.185759	0	0	0	0	1	4	4
60	18.187	0.121904	0	0	0	0	1	4	4
64	18.3612	0.133514	0	0	0	0	1	4	4
64	18.7037	0.255421	0	0	0	0	1	4	4
65	19.0288	0.905577	0	0	0	0	1	4	4
65	19.9343	0.238005	0	0	0	0	1	4	4
65	20.1839	0.371519	0	0	0	0	1	4	4
65	20.5845	0.714014	0	0	0	0	1	4	4
53	22.4653	0.313469	0	0	0	0	1	4	4
53	22.7788	0.0812702	0	0	0	0	1	4	4
72	22.86	0.0754662	0	0	0	0	1	4	4
53	23.0342	0.0754642	0	0	0	0	1	4	4
53	23.1097	0.029026	0	0	0	0	1	4	4
53	23.1387	0.0290241	0	0	0	0	1	4	4
53	23.1735	0.0638561	0	0	0	0	1	4	4
72	23.3535	0.0522442	0	0	0	0	1	4	4
72	23.4173	0.15093	0	0	0	0	1	4	4
65	23.5857	0.18576	0	0	0	0	1	4	4
65	23.783	0.15093	0	0	0	0	1	4	4
65	23.9398	0.116098	0	0	0	0	1	4	4
65	24.0559	0.029026	0	0	0	0	1	4	4
65	24.0965	0.116098	0	0	0	0	1	4	4
65	24.3229	0.127708	0	0	0	0	1	4	4
65	24.4796	0.0870743	0	0	0	0	1	4	4
65	24.5783	0.0464401	0	0	0	0	1	4	4
65	24.6248	0.319275	0	0	0	0	1	4	4
65	24.9556	0.0638542	0	0	0	0	1	4	4
68	25.1066	0.0232201	0	0	0	0	1	4	4
69	25.1356	0.0290241	0	0	0	0	1	4	4
68	25.1704	0.0812683	0	0	0	0	1	4	4
68	25.2517	0.029026	0	0	0	0	1	4	4
68	25.2923	0.0290241	0	0	0	0	1	4	4
68	25.3272	0.0464401	0	0	0	0	1	4	4
72	25.5129	0.191565	0	0	0	0	1	4	4
70	25.7045	0.029026	0	0	0	0	1	4	4
70	25.78	0.0870743	0	0	0	0	1	4	4
70	25.867	0.336689	0	0	0	0	1	4	4
70	26.2037	0.510839	0	0	0	0	1	4	4
68	26.8481	0.17415	0	0	0	0	1	4	4
