midiPitch 	 onsetSec 	 durationSec 	 onsetBeats 	 onsetBarIndex 	 onsetBar 	 durationBeats 	 velocity  	 numerator 	 denominator 
67	0.0464399	0.12771	0	0	2.3601e-035	0	1	4	4
67	0.17415	0.0290249	0	0	2.3601e-035	0	1	4	4
68	0.290249	0.156735	0	0	2.3601e-035	0	1	4	4
64	0.586304	0.342494	0	0	2.3601e-035	0	1	4	4
65	1.28871	0.423764	0	0	2.3601e-035	0	1	4	4
65	1.71247	0.168345	0	0	2.3601e-035	0	1	4	4
65	1.94467	0.261225	0	0	2.3601e-035	0	1	4	4
65	2.33941	0.191565	0	0	2.3601e-035	0	1	4	4
64	2.53098	0.162539	0	0	2.3601e-035	0	1	4	4
67	2.69351	0.377324	0	0	2.3601e-035	0	1	4	4
65	3.10567	0.586304	0	0	2.3601e-035	0	1	4	4
67	3.77324	0.179955	0	0	2.3601e-035	0	1	4	4
67	4.0693	0.238005	0	0	2.3601e-035	0	1	4	4
63	4.51628	0.0812697	0	0	2.3601e-035	0	1	4	4
63	4.85297	0.0348296	0	0	2.3601e-035	0	1	4	4
63	4.92844	0.0580497	0	0	2.3601e-035	0	1	4	4
65	5.09097	0.24381	0	0	2.3601e-035	0	1	4	4
64	5.3522	0.0870748	0	0	2.3601e-035	0	1	4	4
65	5.5844	0.249614	0	0	2.3601e-035	0	1	4	4
66	5.99075	0.249614	0	0	2.3601e-035	0	1	4	4
66	6.25197	0.330884	0	0	2.3601e-035	0	1	4	4
67	7.11111	0.870748	0	0	2.3601e-035	0	1	4	4
69	8.0341	0.290249	0	0	2.3601e-035	0	1	4	4
68	8.32435	0.365715	0	0	2.3601e-035	0	1	4	4
69	8.69007	0.0232191	0	0	2.3601e-035	0	1	4	4
67	8.7249	0.470204	0	0	2.3601e-035	0	1	4	4
67	9.1951	0.0696602	0	0	2.3601e-035	0	1	4	4
62	10.0484	0.0986843	0	0	2.3601e-035	0	1	4	4
64	10.1761	0.110295	0	0	2.3601e-035	0	1	4	4
65	10.4025	0.0986853	0	0	2.3601e-035	0	1	4	4
64	10.7102	0.301859	0	0	2.3601e-035	0	1	4	4
62	11.2443	0.0986853	0	0	2.3601e-035	0	1	4	4
67	11.459	0.0812702	0	0	2.3601e-035	0	1	4	4
65	11.5751	0.127709	0	0	2.3601e-035	0	1	4	4
64	11.7029	0.0638552	0	0	2.3601e-035	0	1	4	4
64	11.7667	0.0696592	0	0	2.3601e-035	0	1	4	4
65	11.8364	0.214785	0	0	2.3601e-035	0	1	4	4
67	12.086	0.127709	0	0	2.3601e-035	0	1	4	4
69	12.4111	0.981044	0	0	2.3601e-035	0	1	4	4
67	13.4269	0.145125	0	0	2.3601e-035	0	1	4	4
67	13.9668	0.226395	0	0	2.3601e-035	0	1	4	4
77	14.8608	0.0986843	0	0	2.3601e-035	0	1	4	4
77	15.0175	0.0812693	0	0	2.3601e-035	0	1	4	4
71	15.3658	0.10449	0	0	2.3601e-035	0	1	4	4
62	15.5225	0.1161	0	0	2.3601e-035	0	1	4	4
63	15.6386	0.162539	0	0	2.3601e-035	0	1	4	4
65	15.8012	0.179955	0	0	2.3601e-035	0	1	4	4
64	16.0392	0.133516	0	0	2.3601e-035	0	1	4	4
61	16.1727	0.0464382	0	0	2.3601e-035	0	1	4	4
62	16.4049	0.145124	0	0	2.3601e-035	0	1	4	4
59	16.55	0.0406361	0	0	2.3601e-035	0	1	4	4
67	18.396	0.116098	0	0	2.3601e-035	0	1	4	4
74	19.2551	0.127708	0	0	2.3601e-035	0	1	4	4
76	19.4293	0.110294	0	0	2.3601e-035	0	1	4	4
77	19.5686	0.162539	0	0	2.3601e-035	0	1	4	4
76	19.8008	0.13932	0	0	2.3601e-035	0	1	4	4
76	20.3407	0.13932	0	0	2.3601e-035	0	1	4	4
79	20.4974	0.203175	0	0	2.3601e-035	0	1	4	4
79	20.7006	0.133514	0	0	2.3601e-035	0	1	4	4
77	20.8515	0.16254	0	0	2.3601e-035	0	1	4	4
76	21.0721	0.185759	0	0	2.3601e-035	0	1	4	4
74	21.2579	0.290249	0	0	2.3601e-035	0	1	4	4
71	21.5888	0.133514	0	0	2.3601e-035	0	1	4	4
74	21.7803	0.15093	0	0	2.3601e-035	0	1	4	4
77	21.9661	0.18576	0	0	2.3601e-035	0	1	4	4
77	22.1518	0.12771	0	0	2.3601e-035	0	1	4	4
76	22.3202	0.16254	0	0	2.3601e-035	0	1	4	4
74	22.5001	0.145124	0	0	2.3601e-035	0	1	4	4
76	23.5566	0.238003	0	0	2.3601e-035	0	1	4	4
74	25.0137	0.121906	0	0	2.3601e-035	0	1	4	4
76	25.1995	0.12771	0	0	2.3601e-035	0	1	4	4
77	25.3736	0.133514	0	0	2.3601e-035	0	1	4	4
76	25.5652	0.0522442	0	0	2.3601e-035	0	1	4	4
76	25.6174	0.0870743	0	0	2.3601e-035	0	1	4	4
72	25.8728	0.0232201	0	0	2.3601e-035	0	1	4	4
76	26.1224	0.15093	0	0	2.3601e-035	0	1	4	4
79	26.3082	0.325079	0	0	2.3601e-035	0	1	4	4
77	26.6449	0.168344	0	0	2.3601e-035	0	1	4	4
76	26.819	0.185759	0	0	2.3601e-035	0	1	4	4
75	27.0048	0.0348301	0	0	2.3601e-035	0	1	4	4
74	27.0396	0.307665	0	0	2.3601e-035	0	1	4	4
74	27.5563	0.156734	0	0	2.3601e-035	0	1	4	4
77	27.742	0.319275	0	0	2.3601e-035	0	1	4	4
76	28.0961	0.168346	0	0	2.3601e-035	0	1	4	4
74	28.2761	0.162539	0	0	2.3601e-035	0	1	4	4
