midiPitch 	 onsetSec 	 durationSec 	 onsetBeats 	 onsetBarIndex 	 onsetBar 	 durationBeats 	 velocity  	 numerator 	 denominator 
60	0.301859	0.15093	0	0	2.72692e-035	0	1	4	4
60	0.481814	0.15093	0	0	2.72692e-035	0	1	4	4
60	0.772063	0.0812698	0	0	2.72692e-035	0	1	4	4
57	0.934603	0.110295	0	0	2.72692e-035	0	1	4	4
60	1.1668	0.0870749	0	0	2.72692e-035	0	1	4	4
60	1.28871	0.0870748	0	0	2.72692e-035	0	1	4	4
60	1.45125	0.040635	0	0	2.72692e-035	0	1	4	4
62	1.55574	0.029025	0	0	2.72692e-035	0	1	4	4
60	1.61959	0.029025	0	0	2.72692e-035	0	1	4	4
71	1.75311	0.0406349	0	0	2.72692e-035	0	1	4	4
64	2.12463	0.121905	0	0	2.72692e-035	0	1	4	4
62	2.53678	0.133515	0	0	2.72692e-035	0	1	4	4
62	2.67029	0.0638549	0	0	2.72692e-035	0	1	4	4
62	2.73415	0.15093	0	0	2.72692e-035	0	1	4	4
61	2.88508	0.0290248	0	0	2.72692e-035	0	1	4	4
60	3.19274	0.110295	0	0	2.72692e-035	0	1	4	4
57	3.30304	0.0406349	0	0	2.72692e-035	0	1	4	4
62	3.58748	0.214785	0	0	2.72692e-035	0	1	4	4
58	3.97061	0.121905	0	0	2.72692e-035	0	1	4	4
59	4.09252	0.0290251	0	0	2.72692e-035	0	1	4	4
62	5.25351	0.110295	0	0	2.72692e-035	0	1	4	4
63	5.36381	0.0464396	0	0	2.72692e-035	0	1	4	4
62	5.41025	0.0522451	0	0	2.72692e-035	0	1	4	4
58	5.64245	0.0696597	0	0	2.72692e-035	0	1	4	4
60	5.72372	0.0348301	0	0	2.72692e-035	0	1	4	4
55	6.01397	0.12771	0	0	2.72692e-035	0	1	4	4
55	6.14168	0.0232201	0	0	2.72692e-035	0	1	4	4
55	6.22295	0.214785	0	0	2.72692e-035	0	1	4	4
65	6.84989	0.15093	0	0	2.72692e-035	0	1	4	4
62	7.29687	0.0696597	0	0	2.72692e-035	0	1	4	4
60	7.48844	0.1161	0	0	2.72692e-035	0	1	4	4
61	7.60454	0.0232201	0	0	2.72692e-035	0	1	4	4
61	7.63356	0.133514	0	0	2.72692e-035	0	1	4	4
61	8.05732	0.104489	0	0	2.72692e-035	0	1	4	4
61	8.34757	0.0928802	0	0	2.72692e-035	0	1	4	4
62	8.44045	0.116099	0	0	2.72692e-035	0	1	4	4
60	8.70748	0.0870743	0	0	2.72692e-035	0	1	4	4
65	11.9002	0.191565	0	0	2.72692e-035	0	1	4	4
63	12.2834	0.0986853	0	0	2.72692e-035	0	1	4	4
63	12.4169	0.0754652	0	0	2.72692e-035	0	1	4	4
62	12.6375	0.110295	0	0	2.72692e-035	0	1	4	4
61	12.7826	0.0870743	0	0	2.72692e-035	0	1	4	4
62	13.009	0.121904	0	0	2.72692e-035	0	1	4	4
61	13.3515	0.0928793	0	0	2.72692e-035	0	1	4	4
58	13.5663	0.0522451	0	0	2.72692e-035	0	1	4	4
59	13.6185	0.0754642	0	0	2.72692e-035	0	1	4	4
58	13.694	0.0232201	0	0	2.72692e-035	0	1	4	4
59	14.1351	0.145124	0	0	2.72692e-035	0	1	4	4
66	15.18	0.0696602	0	0	2.72692e-035	0	1	4	4
66	15.2613	0.116099	0	0	2.72692e-035	0	1	4	4
59	15.4064	0.0406351	0	0	2.72692e-035	0	1	4	4
59	15.4471	0.0464392	0	0	2.72692e-035	0	1	4	4
59	15.9811	0.0290251	0	0	2.72692e-035	0	1	4	4
55	16.341	0.179955	0	0	2.72692e-035	0	1	4	4
66	16.7242	0.0290241	0	0	2.72692e-035	0	1	4	4
59	17.0028	0.0348301	0	0	2.72692e-035	0	1	4	4
55	17.3569	0.0348301	0	0	2.72692e-035	0	1	4	4
55	17.5601	0.0638542	0	0	2.72692e-035	0	1	4	4
55	17.6239	0.0928802	0	0	2.72692e-035	0	1	4	4
62	17.7168	0.0522442	0	0	2.72692e-035	0	1	4	4
55	18.0013	0.0290241	0	0	2.72692e-035	0	1	4	4
67	18.1116	0.0348301	0	0	2.72692e-035	0	1	4	4
59	18.2102	0.0464401	0	0	2.72692e-035	0	1	4	4
55	18.6746	0.0464401	0	0	2.72692e-035	0	1	4	4
55	18.7327	0.0580502	0	0	2.72692e-035	0	1	4	4
59	18.7907	0.0348301	0	0	2.72692e-035	0	1	4	4
54	18.8256	0.0406342	0	0	2.72692e-035	0	1	4	4
54	18.9881	0.0464401	0	0	2.72692e-035	0	1	4	4
56	19.0926	0.0232201	0	0	2.72692e-035	0	1	4	4
58	19.1274	0.0232201	0	0	2.72692e-035	0	1	4	4
55	19.2435	0.0812683	0	0	2.72692e-035	0	1	4	4
57	19.3538	0.0348301	0	0	2.72692e-035	0	1	4	4
57	19.4351	0.0232201	0	0	2.72692e-035	0	1	4	4
55	19.6731	0.0290241	0	0	2.72692e-035	0	1	4	4
55	19.737	0.0232201	0	0	2.72692e-035	0	1	4	4
59	19.7718	0.0232201	0	0	2.72692e-035	0	1	4	4
55	19.795	0.0232201	0	0	2.72692e-035	0	1	4	4
57	20.0795	0.0406342	0	0	2.72692e-035	0	1	4	4
57	20.2072	0.0406361	0	0	2.72692e-035	0	1	4	4
53	20.3175	0.0232201	0	0	2.72692e-035	0	1	4	4
50	20.4974	0.0754642	0	0	2.72692e-035	0	1	4	4
52	20.6077	0.0290241	0	0	2.72692e-035	0	1	4	4
57	20.6367	0.0406361	0	0	2.72692e-035	0	1	4	4
64	20.7412	0.191565	0	0	2.72692e-035	0	1	4	4
63	21.1882	0.029026	0	0	2.72692e-035	0	1	4	4
62	21.2405	0.0638542	0	0	2.72692e-035	0	1	4	4
62	21.3043	0.0522442	0	0	2.72692e-035	0	1	4	4
62	21.5597	0.029026	0	0	2.72692e-035	0	1	4	4
64	21.7455	0.0406342	0	0	2.72692e-035	0	1	4	4
64	22.088	0.162539	0	0	2.72692e-035	0	1	4	4
65	22.2505	0.0696602	0	0	2.72692e-035	0	1	4	4
62	23.1967	0.12771	0	0	2.72692e-035	0	1	4	4
62	23.3244	0.0348301	0	0	2.72692e-035	0	1	4	4
67	24.0036	0.13932	0	0	2.72692e-035	0	1	4	4
70	24.7118	0.0522461	0	0	2.72692e-035	0	1	4	4
59	25.0311	0.0348301	0	0	2.72692e-035	0	1	4	4
59	25.1008	0.0522442	0	0	2.72692e-035	0	1	4	4
52	26.0063	0.156734	0	0	2.72692e-035	0	1	4	4
62	26.1631	0.0754642	0	0	2.72692e-035	0	1	4	4
62	26.3256	0.0638561	0	0	2.72692e-035	0	1	4	4
62	26.3895	0.0290241	0	0	2.72692e-035	0	1	4	4
57	27.1615	0.0812702	0	0	2.72692e-035	0	1	4	4
63	27.2602	0.0232182	0	0	2.72692e-035	0	1	4	4
64	27.2893	0.220589	0	0	2.72692e-035	0	1	4	4
62	27.6027	0.110294	0	0	2.72692e-035	0	1	4	4
64	27.9626	0.0986862	0	0	2.72692e-035	0	1	4	4
62	28.2877	0.208981	0	0	2.72692e-035	0	1	4	4
62	28.5431	0.15093	0	0	2.72692e-035	0	1	4	4
62	28.6941	0.0232182	0	0	2.72692e-035	0	1	4	4
62	28.7289	0.0870762	0	0	2.72692e-035	0	1	4	4
64	28.9263	0.0638542	0	0	2.72692e-035	0	1	4	4
64	29.2223	0.0580502	0	0	2.72692e-035	0	1	4	4
64	29.2804	0.0406342	0	0	2.72692e-035	0	1	4	4
64	29.3384	0.0348301	0	0	2.72692e-035	0	1	4	4
