midiPitch 	 onsetSec 	 durationSec 	 onsetBeats 	 onsetBarIndex 	 onsetBar 	 durationBeats 	 velocity  	 numerator 	 denominator 
60	0.789478	0.563084	0	0	2.72666e-035	0	1	4	4
59	1.36998	0.238004	0	0	2.72666e-035	0	1	4	4
57	1.72408	0.301859	0	0	2.72666e-035	0	1	4	4
57	2.02594	0.255419	0	0	2.72666e-035	0	1	4	4
57	2.31619	0.0696597	0	0	2.72666e-035	0	1	4	4
59	2.38585	0.179955	0	0	2.72666e-035	0	1	4	4
57	2.5658	0.330884	0	0	2.72666e-035	0	1	4	4
57	3.03601	0.301859	0	0	2.72666e-035	0	1	4	4
57	4.3073	0.296054	0	0	2.72666e-035	0	1	4	4
60	4.60336	0.284444	0	0	2.72666e-035	0	1	4	4
58	4.8878	0.203175	0	0	2.72666e-035	0	1	4	4
54	5.09097	0.354105	0	0	2.72666e-035	0	1	4	4
53	5.62503	0.0986848	0	0	2.72666e-035	0	1	4	4
53	5.74113	0.290249	0	0	2.72666e-035	0	1	4	4
51	6.52481	0.156735	0	0	2.72666e-035	0	1	4	4
51	6.68154	0.12771	0	0	2.72666e-035	0	1	4	4
51	6.80925	0.18576	0	0	2.72666e-035	0	1	4	4
59	8.35918	0.377324	0	0	2.72666e-035	0	1	4	4
55	8.81197	0.127709	0	0	2.72666e-035	0	1	4	4
56	8.93968	0.0232201	0	0	2.72666e-035	0	1	4	4
57	8.96871	0.0464401	0	0	2.72666e-035	0	1	4	4
57	9.03837	0.110294	0	0	2.72666e-035	0	1	4	4
55	9.28218	0.487618	0	0	2.72666e-035	0	1	4	4
57	9.92073	0.17415	0	0	2.72666e-035	0	1	4	4
56	10.269	0.145124	0	0	2.72666e-035	0	1	4	4
55	10.5535	0.330884	0	0	2.72666e-035	0	1	4	4
51	11.8132	0.296055	0	0	2.72666e-035	0	1	4	4
60	12.1092	0.330884	0	0	2.72666e-035	0	1	4	4
58	12.4401	0.261225	0	0	2.72666e-035	0	1	4	4
59	12.7478	0.22059	0	0	2.72666e-035	0	1	4	4
63	13.1135	0.261225	0	0	2.72666e-035	0	1	4	4
62	13.3747	0.296054	0	0	2.72666e-035	0	1	4	4
60	13.7056	0.284445	0	0	2.72666e-035	0	1	4	4
52	13.99	0.348299	0	0	2.72666e-035	0	1	4	4
55	15.9173	0.0522451	0	0	2.72666e-035	0	1	4	4
56	16.0218	0.0348301	0	0	2.72666e-035	0	1	4	4
56	16.0624	0.0464401	0	0	2.72666e-035	0	1	4	4
55	16.1088	0.267031	0	0	2.72666e-035	0	1	4	4
55	16.5152	0.191565	0	0	2.72666e-035	0	1	4	4
57	16.7068	0.441179	0	0	2.72666e-035	0	1	4	4
56	17.1479	0.0812702	0	0	2.72666e-035	0	1	4	4
56	17.2292	0.0290241	0	0	2.72666e-035	0	1	4	4
56	17.264	0.0638542	0	0	2.72666e-035	0	1	4	4
57	17.3279	0.0928802	0	0	2.72666e-035	0	1	4	4
58	17.4208	0.0290241	0	0	2.72666e-035	0	1	4	4
58	17.4498	0.0464401	0	0	2.72666e-035	0	1	4	4
58	17.4962	0.0754662	0	0	2.72666e-035	0	1	4	4
59	17.74	0.325079	0	0	2.72666e-035	0	1	4	4
50	19.3364	0.121906	0	0	2.72666e-035	0	1	4	4
52	19.6905	0.296055	0	0	2.72666e-035	0	1	4	4
60	20.2072	0.261225	0	0	2.72666e-035	0	1	4	4
59	20.5613	0.197369	0	0	2.72666e-035	0	1	4	4
54	20.9502	0.0870762	0	0	2.72666e-035	0	1	4	4
54	21.0373	0.174149	0	0	2.72666e-035	0	1	4	4
55	21.5481	0.76626	0	0	2.72666e-035	0	1	4	4
59	23.4638	0.185759	0	0	2.72666e-035	0	1	4	4
54	23.6495	0.394739	0	0	2.72666e-035	0	1	4	4
57	24.0443	0.238005	0	0	2.72666e-035	0	1	4	4
56	24.3984	0.296055	0	0	2.72666e-035	0	1	4	4
55	24.6944	0.238005	0	0	2.72666e-035	0	1	4	4
55	24.9324	0.162539	0	0	2.72666e-035	0	1	4	4
57	25.095	0.0986862	0	0	2.72666e-035	0	1	4	4
56	25.2459	0.319275	0	0	2.72666e-035	0	1	4	4
56	25.6406	0.429569	0	0	2.72666e-035	0	1	4	4
55	26.0702	0.0754642	0	0	2.72666e-035	0	1	4	4
52	27.1732	0.354105	0	0	2.72666e-035	0	1	4	4
55	27.5273	0.255419	0	0	2.72666e-035	0	1	4	4
52	28.2877	0.145126	0	0	2.72666e-035	0	1	4	4
53	28.5489	0.371519	0	0	2.72666e-035	0	1	4	4
