midiPitch 	 onsetSec 	 durationSec 	 onsetBeats 	 onsetBarIndex 	 onsetBar 	 durationBeats 	 velocity  	 numerator 	 denominator 
59	0.441179	0.156735	0	0	4.09962e-035	0	1	4	4
60	0.714014	0.0580499	0	0	4.09962e-035	0	1	4	4
59	0.795283	0.0522449	0	0	4.09962e-035	0	1	4	4
51	0.847528	0.0232199	0	0	4.09962e-035	0	1	4	4
57	0.922993	0.0870749	0	0	4.09962e-035	0	1	4	4
55	1.01007	0.261224	0	0	4.09962e-035	0	1	4	4
63	1.36998	0.0986848	0	0	4.09962e-035	0	1	4	4
59	1.75891	0.19737	0	0	4.09962e-035	0	1	4	4
55	2.33941	0.296055	0	0	4.09962e-035	0	1	4	4
59	2.86766	0.214785	0	0	4.09962e-035	0	1	4	4
59	3.08245	0.0696597	0	0	4.09962e-035	0	1	4	4
60	3.15211	0.179955	0	0	4.09962e-035	0	1	4	4
59	3.58168	0.0638549	0	0	4.09962e-035	0	1	4	4
58	3.66875	0.18576	0	0	4.09962e-035	0	1	4	4
55	4.02866	0.0348296	0	0	4.09962e-035	0	1	4	4
55	4.06349	0.0348301	0	0	4.09962e-035	0	1	4	4
54	4.11574	0.226395	0	0	4.09962e-035	0	1	4	4
57	4.34213	0.145124	0	0	4.09962e-035	0	1	4	4
55	5.21868	0.1161	0	0	4.09962e-035	0	1	4	4
55	5.33478	0.423764	0	0	4.09962e-035	0	1	4	4
86827168	5.92109	0.24381	0	0	4.09962e-035	0	1	4	4
56	6.1649	0.0348301	0	0	4.09962e-035	0	1	4	4
61	7.36073	0.0696602	0	0	4.09962e-035	0	1	4	4
60	7.4478	0.0290251	0	0	4.09962e-035	0	1	4	4
62	7.73805	0.0696602	0	0	4.09962e-035	0	1	4	4
62	7.80771	0.0232201	0	0	4.09962e-035	0	1	4	4
59	7.83673	0.139319	0	0	4.09962e-035	0	1	4	4
62	8.01088	0.0754652	0	0	4.09962e-035	0	1	4	4
57	8.09796	0.0754652	0	0	4.09962e-035	0	1	4	4
62	8.30694	0.0812702	0	0	4.09962e-035	0	1	4	4
57	8.53333	0.18576	0	0	4.09962e-035	0	1	4	4
55	8.86422	0.336689	0	0	4.09962e-035	0	1	4	4
56	9.24735	0.139319	0	0	4.09962e-035	0	1	4	4
52	9.76399	0.2322	0	0	4.09962e-035	0	1	4	4
55	9.99619	0.319275	0	0	4.09962e-035	0	1	4	4
56	10.3561	0.0696602	0	0	4.09962e-035	0	1	4	4
58	10.6754	0.0870743	0	0	4.09962e-035	0	1	4	4
55	10.7624	0.435374	0	0	4.09962e-035	0	1	4	4
62	11.7493	0.0696592	0	0	4.09962e-035	0	1	4	4
62	11.8712	0.10449	0	0	4.09962e-035	0	1	4	4
63	11.9757	0.0754642	0	0	4.09962e-035	0	1	4	4
62	12.1382	0.24381	0	0	4.09962e-035	0	1	4	4
59	12.6839	0.168344	0	0	4.09962e-035	0	1	4	4
59	12.8522	0.191565	0	0	4.09962e-035	0	1	4	4
59	13.0902	0.0754652	0	0	4.09962e-035	0	1	4	4
59	13.1657	0.116099	0	0	4.09962e-035	0	1	4	4
58	13.305	0.30186	0	0	4.09962e-035	0	1	4	4
60	14.2454	0.110294	0	0	4.09962e-035	0	1	4	4
62	14.3557	0.150929	0	0	4.09962e-035	0	1	4	4
62	14.6344	0.0638542	0	0	4.09962e-035	0	1	4	4
60	14.8434	0.0290241	0	0	4.09962e-035	0	1	4	4
59	14.8956	0.0812702	0	0	4.09962e-035	0	1	4	4
59	14.9769	0.27864	0	0	4.09962e-035	0	1	4	4
60	15.36	0.0638552	0	0	4.09962e-035	0	1	4	4
59	15.4471	0.0580492	0	0	4.09962e-035	0	1	4	4
61	15.6793	0.417958	0	0	4.09962e-035	0	1	4	4
60	16.0972	0.0464401	0	0	4.09962e-035	0	1	4	4
58	16.6197	0.0812702	0	0	4.09962e-035	0	1	4	4
57	16.701	0.179955	0	0	4.09962e-035	0	1	4	4
55	16.8809	0.0232201	0	0	4.09962e-035	0	1	4	4
55	16.9099	0.0348301	0	0	4.09962e-035	0	1	4	4
55	17.0434	0.121906	0	0	4.09962e-035	0	1	4	4
55	17.2756	0.313469	0	0	4.09962e-035	0	1	4	4
57	17.6181	0.238003	0	0	4.09962e-035	0	1	4	4
59	18.2567	0.0522442	0	0	4.09962e-035	0	1	4	4
63	18.3089	0.16254	0	0	4.09962e-035	0	1	4	4
59	19.0578	0.12771	0	0	4.09962e-035	0	1	4	4
63	19.3596	0.0928802	0	0	4.09962e-035	0	1	4	4
60	19.4525	0.0348301	0	0	4.09962e-035	0	1	4	4
57	19.6383	0.0870743	0	0	4.09962e-035	0	1	4	4
59	19.8705	0.0754642	0	0	4.09962e-035	0	1	4	4
57	20.1085	0.0870743	0	0	4.09962e-035	0	1	4	4
59	20.2304	0.0464401	0	0	4.09962e-035	0	1	4	4
61	20.5961	0.238005	0	0	4.09962e-035	0	1	4	4
60	20.8341	0.174149	0	0	4.09962e-035	0	1	4	4
63	21.4146	0.145124	0	0	4.09962e-035	0	1	4	4
63	21.612	0.156734	0	0	4.09962e-035	0	1	4	4
64	21.879	0.0348301	0	0	4.09962e-035	0	1	4	4
63	21.9196	0.121904	0	0	4.09962e-035	0	1	4	4
59	22.0415	0.0638542	0	0	4.09962e-035	0	1	4	4
64	22.4595	0.0812702	0	0	4.09962e-035	0	1	4	4
60	22.5582	0.220589	0	0	4.09962e-035	0	1	4	4
60	22.8252	0.110296	0	0	4.09962e-035	0	1	4	4
59	22.9355	0.0928783	0	0	4.09962e-035	0	1	4	4
59	23.3302	0.0696583	0	0	4.09962e-035	0	1	4	4
60	23.3999	0.203175	0	0	4.09962e-035	0	1	4	4
59	23.7598	0.208979	0	0	4.09962e-035	0	1	4	4
61	24.2532	0.150928	0	0	4.09962e-035	0	1	4	4
60	24.4912	0.0812702	0	0	4.09962e-035	0	1	4	4
58	24.8047	0.319275	0	0	4.09962e-035	0	1	4	4
58	25.124	0.0812702	0	0	4.09962e-035	0	1	4	4
57	25.2053	0.191565	0	0	4.09962e-035	0	1	4	4
60	25.542	0.563084	0	0	4.09962e-035	0	1	4	4
64	26.7378	0.319273	0	0	4.09962e-035	0	1	4	4
58	27.3125	0.208979	0	0	4.09962e-035	0	1	4	4
62	27.5215	0.348301	0	0	4.09962e-035	0	1	4	4
64	28.2587	0.10449	0	0	4.09962e-035	0	1	4	4
61	28.3632	0.0696602	0	0	4.09962e-035	0	1	4	4
64	28.5431	0.0928802	0	0	4.09962e-035	0	1	4	4
59	28.8508	0.133514	0	0	4.09962e-035	0	1	4	4
