midiPitch 	 onsetSec 	 durationSec 	 onsetBeats 	 onsetBarIndex 	 onsetBar 	 durationBeats 	 velocity  	 numerator 	 denominator 
63	0.423764	0.0696599	0	0	5.64139e-035	0	1	4	4
61	0.650159	0.0406349	0	0	5.64139e-035	0	1	4	4
61	0.690794	0.0348299	0	0	5.64139e-035	0	1	4	4
61	0.737234	0.15093	0	0	5.64139e-035	0	1	4	4
59	0.963628	0.0580499	0	0	5.64139e-035	0	1	4	4
59	1.10295	0.03483	0	0	5.64139e-035	0	1	4	4
61	1.31193	0.1161	0	0	5.64139e-035	0	1	4	4
58	1.5151	0.0696598	0	0	5.64139e-035	0	1	4	4
60	1.59057	0.029025	0	0	5.64139e-035	0	1	4	4
59	1.70667	0.040635	0	0	5.64139e-035	0	1	4	4
59	1.88082	0.10449	0	0	5.64139e-035	0	1	4	4
60	2.23492	0.09288	0	0	5.64139e-035	0	1	4	4
57	2.61224	0.075465	0	0	5.64139e-035	0	1	4	4
53	2.68771	0.0290248	0	0	5.64139e-035	0	1	4	4
60	3.21016	0.087075	0	0	5.64139e-035	0	1	4	4
56	3.6107	0.0522449	0	0	5.64139e-035	0	1	4	4
60	3.76163	0.162539	0	0	5.64139e-035	0	1	4	4
57	4.02286	0.0522447	0	0	5.64139e-035	0	1	4	4
59	4.1912	0.0928798	0	0	5.64139e-035	0	1	4	4
57	4.3015	0.0928798	0	0	5.64139e-035	0	1	4	4
58	4.45823	0.0348301	0	0	5.64139e-035	0	1	4	4
57	4.50467	0.0928798	0	0	5.64139e-035	0	1	4	4
57	4.78331	0.26703	0	0	5.64139e-035	0	1	4	4
58	5.45669	0.0580497	0	0	5.64139e-035	0	1	4	4
59	5.67147	0.10449	0	0	5.64139e-035	0	1	4	4
56	5.86884	0.0290246	0	0	5.64139e-035	0	1	4	4
60	6.06621	0.0754647	0	0	5.64139e-035	0	1	4	4
57	6.25197	0.0812697	0	0	5.64139e-035	0	1	4	4
57	6.25197	0.0870748	0	0	5.64139e-035	0	1	4	4
68	6.32744	0.01161	0	0	5.64139e-035	0	1	4	4
57	6.25197	0.0928798	0	0	5.64139e-035	0	1	4	4
68	6.32744	0.0522451	0	0	5.64139e-035	0	1	4	4
58	6.7454	0.0406351	0	0	5.64139e-035	0	1	4	4
55	6.79184	0.0986848	0	0	5.64139e-035	0	1	4	4
60	7.02984	0.15093	0	0	5.64139e-035	0	1	4	4
60	7.52327	0.168344	0	0	5.64139e-035	0	1	4	4
59	8.21406	0.116099	0	0	5.64139e-035	0	1	4	4
60	8.39401	0.0290251	0	0	5.64139e-035	0	1	4	4
58	8.89905	0.0406342	0	0	5.64139e-035	0	1	4	4
57	8.93968	0.0580502	0	0	5.64139e-035	0	1	4	4
58	9.5434	0.121905	0	0	5.64139e-035	0	1	4	4
55	9.88009	0.0754642	0	0	5.64139e-035	0	1	4	4
58	10.0426	0.145124	0	0	5.64139e-035	0	1	4	4
59	10.7741	0.0522451	0	0	5.64139e-035	0	1	4	4
58	11.0121	0.0986853	0	0	5.64139e-035	0	1	4	4
58	11.1107	0.0638542	0	0	5.64139e-035	0	1	4	4
59	11.3081	0.104489	0	0	5.64139e-035	0	1	4	4
60	11.6042	0.0638552	0	0	5.64139e-035	0	1	4	4
60	11.7725	0.0580492	0	0	5.64139e-035	0	1	4	4
61	11.9583	0.0406342	0	0	5.64139e-035	0	1	4	4
61	11.9989	0.0406351	0	0	5.64139e-035	0	1	4	4
63	12.0454	0.1161	0	0	5.64139e-035	0	1	4	4
61	12.2543	0.0580502	0	0	5.64139e-035	0	1	4	4
61	12.3124	0.0580502	0	0	5.64139e-035	0	1	4	4
60	12.4053	0.0696602	0	0	5.64139e-035	0	1	4	4
61	12.4749	0.121905	0	0	5.64139e-035	0	1	4	4
60	12.7826	0.0464392	0	0	5.64139e-035	0	1	4	4
56	13.1077	0.0348301	0	0	5.64139e-035	0	1	4	4
58	13.2644	0.0638552	0	0	5.64139e-035	0	1	4	4
59	13.6011	0.104489	0	0	5.64139e-035	0	1	4	4
57	13.7056	0.0290251	0	0	5.64139e-035	0	1	4	4
58	13.9204	0.0870752	0	0	5.64139e-035	0	1	4	4
58	14.1932	0.0696592	0	0	5.64139e-035	0	1	4	4
56	14.2861	0.16254	0	0	5.64139e-035	0	1	4	4
58	14.4486	0.121904	0	0	5.64139e-035	0	1	4	4
58	14.8608	0.0870743	0	0	5.64139e-035	0	1	4	4
57	14.9478	0.145124	0	0	5.64139e-035	0	1	4	4
59	15.093	0.156735	0	0	5.64139e-035	0	1	4	4
59	15.3194	0.13932	0	0	5.64139e-035	0	1	4	4
58	15.6096	0.0232201	0	0	5.64139e-035	0	1	4	4
59	15.7489	0.0348301	0	0	5.64139e-035	0	1	4	4
59	15.9289	0.0812702	0	0	5.64139e-035	0	1	4	4
58	16.0102	0.0580502	0	0	5.64139e-035	0	1	4	4
58	16.1437	0.0232201	0	0	5.64139e-035	0	1	4	4
58	16.1669	0.16254	0	0	5.64139e-035	0	1	4	4
59	16.3817	0.0638542	0	0	5.64139e-035	0	1	4	4
58	16.5616	0.0348301	0	0	5.64139e-035	0	1	4	4
58	16.6081	0.0928802	0	0	5.64139e-035	0	1	4	4
58	16.8635	0.15093	0	0	5.64139e-035	0	1	4	4
58	17.0144	0.0522442	0	0	5.64139e-035	0	1	4	4
59	17.1363	0.16254	0	0	5.64139e-035	0	1	4	4
60	17.4904	0.150928	0	0	5.64139e-035	0	1	4	4
58	18.0593	0.0348301	0	0	5.64139e-035	0	1	4	4
60	18.1986	0.0464401	0	0	5.64139e-035	0	1	4	4
58	18.2451	0.0638542	0	0	5.64139e-035	0	1	4	4
57	18.3728	0.0638542	0	0	5.64139e-035	0	1	4	4
59	18.4715	0.0696602	0	0	5.64139e-035	0	1	4	4
59	18.7095	0.0754642	0	0	5.64139e-035	0	1	4	4
60	19.1623	0.0580502	0	0	5.64139e-035	0	1	4	4
59	19.586	0.0754662	0	0	5.64139e-035	0	1	4	4
59	19.7544	0.0522461	0	0	5.64139e-035	0	1	4	4
59	19.9169	0.185759	0	0	5.64139e-035	0	1	4	4
58	20.1027	0.0870762	0	0	5.64139e-035	0	1	4	4
59	20.2362	0.0522442	0	0	5.64139e-035	0	1	4	4
59	20.3058	0.0406361	0	0	5.64139e-035	0	1	4	4
59	20.3465	0.0464401	0	0	5.64139e-035	0	1	4	4
59	20.4568	0.17415	0	0	5.64139e-035	0	1	4	4
59	20.6483	0.10449	0	0	5.64139e-035	0	1	4	4
58	20.8051	0.1161	0	0	5.64139e-035	0	1	4	4
53	21.1476	0.243809	0	0	5.64139e-035	0	1	4	4
58	21.5713	0.110296	0	0	5.64139e-035	0	1	4	4
58	21.6816	0.127708	0	0	5.64139e-035	0	1	4	4
59	22.0473	0.0522461	0	0	5.64139e-035	0	1	4	4
59	22.1228	0.110294	0	0	5.64139e-035	0	1	4	4
59	22.3782	0.174149	0	0	5.64139e-035	0	1	4	4
65	22.7149	0.0812702	0	0	5.64139e-035	0	1	4	4
61	23.2141	0.0406342	0	0	5.64139e-035	0	1	4	4
58	23.487	0.0290241	0	0	5.64139e-035	0	1	4	4
56	23.6437	0.255419	0	0	5.64139e-035	0	1	4	4
59	24.259	0.0406361	0	0	5.64139e-035	0	1	4	4
58	24.3171	0.0986843	0	0	5.64139e-035	0	1	4	4
57	24.4332	0.0696602	0	0	5.64139e-035	0	1	4	4
57	24.5609	0.0928783	0	0	5.64139e-035	0	1	4	4
56	24.6596	0.0812702	0	0	5.64139e-035	0	1	4	4
59	24.8918	0.0348301	0	0	5.64139e-035	0	1	4	4
57	24.9324	0.0290241	0	0	5.64139e-035	0	1	4	4
56	25.5129	0.0696602	0	0	5.64139e-035	0	1	4	4
56	25.6755	0.0522442	0	0	5.64139e-035	0	1	4	4
58	25.8728	0.0754662	0	0	5.64139e-035	0	1	4	4
58	26.1399	0.0696602	0	0	5.64139e-035	0	1	4	4
57	26.343	0.0232201	0	0	5.64139e-035	0	1	4	4
57	26.3721	0.0464401	0	0	5.64139e-035	0	1	4	4
56	26.4185	0.0522442	0	0	5.64139e-035	0	1	4	4
61	26.8132	0.0348301	0	0	5.64139e-035	0	1	4	4
60	26.8481	0.0406342	0	0	5.64139e-035	0	1	4	4
57	26.8945	0.0638542	0	0	5.64139e-035	0	1	4	4
59	27.1035	0.029026	0	0	5.64139e-035	0	1	4	4
58	27.1383	0.168344	0	0	5.64139e-035	0	1	4	4
56	27.3067	0.0348301	0	0	5.64139e-035	0	1	4	4
58	27.3705	0.121904	0	0	5.64139e-035	0	1	4	4
58	27.9104	0.0580502	0	0	5.64139e-035	0	1	4	4
60	28.1078	0.232201	0	0	5.64139e-035	0	1	4	4
60	28.34	0.0522442	0	0	5.64139e-035	0	1	4	4
56	28.5257	0.0696602	0	0	5.64139e-035	0	1	4	4
60	28.8914	0.0696602	0	0	5.64139e-035	0	1	4	4
