midiPitch 	 onsetSec 	 durationSec 	 onsetBeats 	 onsetBarIndex 	 onsetBar 	 durationBeats 	 velocity  	 numerator 	 denominator 
68	0.121905	0.0348299	0	0	2.37902e-035	0	1	4	4
68	0.16254	0.02322	0	0	2.37902e-035	0	1	4	4
69	0.191565	0.02322	0	0	2.37902e-035	0	1	4	4
69	0.214785	0.02322	0	0	2.37902e-035	0	1	4	4
69	0.267029	0.0696599	0	0	2.37902e-035	0	1	4	4
68	0.336689	0.0754649	0	0	2.37902e-035	0	1	4	4
68	0.412154	0.0406349	0	0	2.37902e-035	0	1	4	4
68	0.458594	0.02322	0	0	2.37902e-035	0	1	4	4
68	0.487619	0.0580499	0	0	2.37902e-035	0	1	4	4
68	0.545669	0.02322	0	0	2.37902e-035	0	1	4	4
68	0.574694	0.029025	0	0	2.37902e-035	0	1	4	4
67	0.766258	0.0232199	0	0	2.37902e-035	0	1	4	4
62	0.905578	0.029025	0	0	2.37902e-035	0	1	4	4
62	0.998458	0.156735	0	0	2.37902e-035	0	1	4	4
67	1.15519	0.03483	0	0	2.37902e-035	0	1	4	4
67	1.31193	0.029025	0	0	2.37902e-035	0	1	4	4
67	1.35837	0.0986848	0	0	2.37902e-035	0	1	4	4
67	1.53832	0.17415	0	0	2.37902e-035	0	1	4	4
67	1.90404	0.0406349	0	0	2.37902e-035	0	1	4	4
66	1.96209	0.13932	0	0	2.37902e-035	0	1	4	4
60	3.3727	0.0464399	0	0	2.37902e-035	0	1	4	4
62	3.53524	0.214785	0	0	2.37902e-035	0	1	4	4
62	3.87773	0.0290251	0	0	2.37902e-035	0	1	4	4
72	4.05188	0.0232201	0	0	2.37902e-035	0	1	4	4
70	4.09252	0.0696597	0	0	2.37902e-035	0	1	4	4
69	4.16218	0.0232201	0	0	2.37902e-035	0	1	4	4
70	4.1854	0.0464401	0	0	2.37902e-035	0	1	4	4
69	4.25506	0.0638552	0	0	2.37902e-035	0	1	4	4
69	4.5337	0.1161	0	0	2.37902e-035	0	1	4	4
65	4.8878	0.0406351	0	0	2.37902e-035	0	1	4	4
62	5.68308	0.0696597	0	0	2.37902e-035	0	1	4	4
62	5.99655	0.0812702	0	0	2.37902e-035	0	1	4	4
62	7.98186	0.0986853	0	0	2.37902e-035	0	1	4	4
62	8.16181	0.0754652	0	0	2.37902e-035	0	1	4	4
66	8.29533	0.0348291	0	0	2.37902e-035	0	1	4	4
68	8.38821	0.0464401	0	0	2.37902e-035	0	1	4	4
65	8.43465	0.110294	0	0	2.37902e-035	0	1	4	4
68	8.66104	0.110294	0	0	2.37902e-035	0	1	4	4
67	8.77134	0.26703	0	0	2.37902e-035	0	1	4	4
66	9.35184	0.0232201	0	0	2.37902e-035	0	1	4	4
67	9.81043	0.214785	0	0	2.37902e-035	0	1	4	4
68	10.1761	0.17415	0	0	2.37902e-035	0	1	4	4
65	10.4141	0.441179	0	0	2.37902e-035	0	1	4	4
67	10.8553	0.0232201	0	0	2.37902e-035	0	1	4	4
65	11.3139	0.116099	0	0	2.37902e-035	0	1	4	4
73	12.2311	0.0928802	0	0	2.37902e-035	0	1	4	4
73	12.324	0.0870743	0	0	2.37902e-035	0	1	4	4
70	12.5852	0.0696592	0	0	2.37902e-035	0	1	4	4
69	12.7187	0.0580502	0	0	2.37902e-035	0	1	4	4
69	12.7768	0.255419	0	0	2.37902e-035	0	1	4	4
68	13.0322	0.16254	0	0	2.37902e-035	0	1	4	4
63	14.2338	0.156734	0	0	2.37902e-035	0	1	4	4
67	15.1917	0.145124	0	0	2.37902e-035	0	1	4	4
81	17.2118	0.0522442	0	0	2.37902e-035	0	1	4	4
81	17.264	0.0638542	0	0	2.37902e-035	0	1	4	4
81	17.9432	0.150928	0	0	2.37902e-035	0	1	4	4
81	18.0941	0.156734	0	0	2.37902e-035	0	1	4	4
81	18.2509	0.0464401	0	0	2.37902e-035	0	1	4	4
81	18.2973	0.0580502	0	0	2.37902e-035	0	1	4	4
81	18.3554	0.029026	0	0	2.37902e-035	0	1	4	4
81	18.4018	0.0638542	0	0	2.37902e-035	0	1	4	4
81	18.5237	0.0754662	0	0	2.37902e-035	0	1	4	4
81	18.6979	0.156734	0	0	2.37902e-035	0	1	4	4
81	18.8546	0.255419	0	0	2.37902e-035	0	1	4	4
80	19.11	0.284445	0	0	2.37902e-035	0	1	4	4
77	19.4641	0.12771	0	0	2.37902e-035	0	1	4	4
74	19.9866	0.0290241	0	0	2.37902e-035	0	1	4	4
80	20.1085	0.0812702	0	0	2.37902e-035	0	1	4	4
80	20.1898	0.0406342	0	0	2.37902e-035	0	1	4	4
79	20.2362	0.104488	0	0	2.37902e-035	0	1	4	4
79	20.4684	0.029026	0	0	2.37902e-035	0	1	4	4
79	20.509	0.261225	0	0	2.37902e-035	0	1	4	4
79	20.8167	0.168344	0	0	2.37902e-035	0	1	4	4
74	21.2753	0.0464382	0	0	2.37902e-035	0	1	4	4
87	21.5829	0.1161	0	0	2.37902e-035	0	1	4	4
77	22.3782	0.0986843	0	0	2.37902e-035	0	1	4	4
77	22.4769	0.0348301	0	0	2.37902e-035	0	1	4	4
77	22.5117	0.121904	0	0	2.37902e-035	0	1	4	4
74	22.6743	0.121904	0	0	2.37902e-035	0	1	4	4
87	22.7904	0.0580502	0	0	2.37902e-035	0	1	4	4
75	22.8484	0.168344	0	0	2.37902e-035	0	1	4	4
75	23.0168	0.029026	0	0	2.37902e-035	0	1	4	4
74	23.0922	0.0754642	0	0	2.37902e-035	0	1	4	4
74	23.3186	0.359909	0	0	2.37902e-035	0	1	4	4
72	23.7308	0.0522442	0	0	2.37902e-035	0	1	4	4
74	23.783	0.18576	0	0	2.37902e-035	0	1	4	4
62	25.0079	0.16254	0	0	2.37902e-035	0	1	4	4
62	25.2053	0.0348282	0	0	2.37902e-035	0	1	4	4
62	25.2459	0.0464401	0	0	2.37902e-035	0	1	4	4
77	25.3156	0.0464401	0	0	2.37902e-035	0	1	4	4
69	25.6464	0.406349	0	0	2.37902e-035	0	1	4	4
67	26.1166	0.0348301	0	0	2.37902e-035	0	1	4	4
74	26.6507	0.0928802	0	0	2.37902e-035	0	1	4	4
67	26.9816	0.179955	0	0	2.37902e-035	0	1	4	4
62	27.3241	0.0986843	0	0	2.37902e-035	0	1	4	4
66	27.4286	0.0522442	0	0	2.37902e-035	0	1	4	4
64	27.4808	0.0290241	0	0	2.37902e-035	0	1	4	4
66	27.5156	0.0754642	0	0	2.37902e-035	0	1	4	4
73	29.1991	0.116098	0	0	2.37902e-035	0	1	4	4
72	29.3152	0.0406361	0	0	2.37902e-035	0	1	4	4
69	29.6461	0.1161	0	0	2.37902e-035	0	1	4	4
