midiPitch 	 onsetSec 	 durationSec 	 onsetBeats 	 onsetBarIndex 	 onsetBar 	 durationBeats 	 velocity  	 numerator 	 denominator 
72	0.284444	0.0232199	0	0	4.26896e-035	0	1	4	4
74	0.383129	0.02322	0	0	4.26896e-035	0	1	4	4
72	0.406349	0.0232199	0	0	4.26896e-035	0	1	4	4
67	0.435374	0.0232199	0	0	4.26896e-035	0	1	4	4
71	0.458594	0.02322	0	0	4.26896e-035	0	1	4	4
67	0.557279	0.02322	0	0	4.26896e-035	0	1	4	4
73	0.638549	0.029025	0	0	4.26896e-035	0	1	4	4
72	0.708209	0.0232199	0	0	4.26896e-035	0	1	4	4
77	1.03909	0.0232201	0	0	4.26896e-035	0	1	4	4
71	1.17841	0.029025	0	0	4.26896e-035	0	1	4	4
72	1.35837	0.029025	0	0	4.26896e-035	0	1	4	4
70	1.38739	0.0232199	0	0	4.26896e-035	0	1	4	4
72	1.79955	0.029025	0	0	4.26896e-035	0	1	4	4
69	2.22331	0.19737	0	0	4.26896e-035	0	1	4	4
70	2.47293	0.0812697	0	0	4.26896e-035	0	1	4	4
70	2.55419	0.0406349	0	0	4.26896e-035	0	1	4	4
71	2.59483	0.0464399	0	0	4.26896e-035	0	1	4	4
71	2.75156	0.0986848	0	0	4.26896e-035	0	1	4	4
70	2.85025	0.0348301	0	0	4.26896e-035	0	1	4	4
64	2.96635	0.0638549	0	0	4.26896e-035	0	1	4	4
70	3.05923	0.133515	0	0	4.26896e-035	0	1	4	4
69	3.55265	0.19737	0	0	4.26896e-035	0	1	4	4
69	3.75002	0.0522449	0	0	4.26896e-035	0	1	4	4
69	3.80227	0.0232198	0	0	4.26896e-035	0	1	4	4
68	4.05769	0.17415	0	0	4.26896e-035	0	1	4	4
65	4.32472	0.1161	0	0	4.26896e-035	0	1	4	4
65	4.44082	0.0638547	0	0	4.26896e-035	0	1	4	4
70	4.62658	0.1161	0	0	4.26896e-035	0	1	4	4
70	4.74268	0.226395	0	0	4.26896e-035	0	1	4	4
69	5.32317	0.0696597	0	0	4.26896e-035	0	1	4	4
67	5.43927	0.0406351	0	0	4.26896e-035	0	1	4	4
67	5.47991	0.0290246	0	0	4.26896e-035	0	1	4	4
70	5.78757	0.0232196	0	0	4.26896e-035	0	1	4	4
69	7.59873	0.0290251	0	0	4.26896e-035	0	1	4	4
69	7.74385	0.0232201	0	0	4.26896e-035	0	1	4	4
68	8.63202	0.0464401	0	0	4.26896e-035	0	1	4	4
71	8.81197	0.0348301	0	0	4.26896e-035	0	1	4	4
71	8.89324	0.0638542	0	0	4.26896e-035	0	1	4	4
69	8.98612	0.0232201	0	0	4.26896e-035	0	1	4	4
70	9.06739	0.0290251	0	0	4.26896e-035	0	1	4	4
69	9.10803	0.0232191	0	0	4.26896e-035	0	1	4	4
69	9.33442	0.13932	0	0	4.26896e-035	0	1	4	4
68	9.83946	0.203175	0	0	4.26896e-035	0	1	4	4
68	10.0426	0.0290251	0	0	4.26896e-035	0	1	4	4
69	10.3387	0.0348291	0	0	4.26896e-035	0	1	4	4
68	10.42	0.0348301	0	0	4.26896e-035	0	1	4	4
68	10.5244	0.0290251	0	0	4.26896e-035	0	1	4	4
66	10.7218	0.0812693	0	0	4.26896e-035	0	1	4	4
70	10.9134	0.0290251	0	0	4.26896e-035	0	1	4	4
69	10.954	0.0232191	0	0	4.26896e-035	0	1	4	4
68	11.1804	0.0290251	0	0	4.26896e-035	0	1	4	4
68	11.2094	0.0232201	0	0	4.26896e-035	0	1	4	4
68	11.2385	0.150929	0	0	4.26896e-035	0	1	4	4
72	12.5039	0.0232201	0	0	4.26896e-035	0	1	4	4
71	12.5272	0.0232201	0	0	4.26896e-035	0	1	4	4
70	13.1947	0.0406342	0	0	4.26896e-035	0	1	4	4
70	13.7404	0.0290251	0	0	4.26896e-035	0	1	4	4
70	14.2629	0.0232201	0	0	4.26896e-035	0	1	4	4
69	14.8201	0.110294	0	0	4.26896e-035	0	1	4	4
68	14.9304	0.0232201	0	0	4.26896e-035	0	1	4	4
66	14.9711	0.156734	0	0	4.26896e-035	0	1	4	4
69	15.1278	0.110295	0	0	4.26896e-035	0	1	4	4
71	15.2381	0.0638542	0	0	4.26896e-035	0	1	4	4
71	15.3019	0.0464401	0	0	4.26896e-035	0	1	4	4
70	15.3542	0.127709	0	0	4.26896e-035	0	1	4	4
69	15.4819	0.0348301	0	0	4.26896e-035	0	1	4	4
68	15.5225	0.0290251	0	0	4.26896e-035	0	1	4	4
67	15.5922	0.0754652	0	0	4.26896e-035	0	1	4	4
66	15.7431	0.0464401	0	0	4.26896e-035	0	1	4	4
69	16.6255	0.0406361	0	0	4.26896e-035	0	1	4	4
70	16.6719	0.0232201	0	0	4.26896e-035	0	1	4	4
57	16.7938	0.127708	0	0	4.26896e-035	0	1	4	4
69	16.9215	0.0522461	0	0	4.26896e-035	0	1	4	4
67	17.0609	0.145124	0	0	4.26896e-035	0	1	4	4
67	17.2408	0.0696602	0	0	4.26896e-035	0	1	4	4
67	17.3105	0.0290241	0	0	4.26896e-035	0	1	4	4
67	17.3395	0.0406361	0	0	4.26896e-035	0	1	4	4
67	17.7691	0.0232201	0	0	4.26896e-035	0	1	4	4
69	17.8387	0.0290241	0	0	4.26896e-035	0	1	4	4
70	17.9548	0.0754642	0	0	4.26896e-035	0	1	4	4
69	18.2451	0.0232201	0	0	4.26896e-035	0	1	4	4
68	18.3089	0.0348301	0	0	4.26896e-035	0	1	4	4
68	18.3554	0.0232201	0	0	4.26896e-035	0	1	4	4
67	18.396	0.0290241	0	0	4.26896e-035	0	1	4	4
67	18.4308	0.0638542	0	0	4.26896e-035	0	1	4	4
68	18.5527	0.0232201	0	0	4.26896e-035	0	1	4	4
69	19.4873	0.0232201	0	0	4.26896e-035	0	1	4	4
70	19.7195	0.0464401	0	0	4.26896e-035	0	1	4	4
58	19.8298	0.0464401	0	0	4.26896e-035	0	1	4	4
63	19.9401	0.0290241	0	0	4.26896e-035	0	1	4	4
70	20.1956	0.0406361	0	0	4.26896e-035	0	1	4	4
70	20.4045	0.0232201	0	0	4.26896e-035	0	1	4	4
70	20.7122	0.029026	0	0	4.26896e-035	0	1	4	4
71	21.3043	0.1161	0	0	4.26896e-035	0	1	4	4
71	21.4204	0.0464401	0	0	4.26896e-035	0	1	4	4
71	21.5191	0.0348301	0	0	4.26896e-035	0	1	4	4
71	21.5829	0.0522461	0	0	4.26896e-035	0	1	4	4
71	21.6352	0.0232201	0	0	4.26896e-035	0	1	4	4
72	21.8616	0.0348301	0	0	4.26896e-035	0	1	4	4
71	21.8964	0.0406342	0	0	4.26896e-035	0	1	4	4
71	22.088	0.0406342	0	0	4.26896e-035	0	1	4	4
72	22.1634	0.0290241	0	0	4.26896e-035	0	1	4	4
73	22.5988	0.1161	0	0	4.26896e-035	0	1	4	4
74	22.7149	0.0812702	0	0	4.26896e-035	0	1	4	4
75	22.7962	0.0232201	0	0	4.26896e-035	0	1	4	4
75	22.8194	0.0348301	0	0	4.26896e-035	0	1	4	4
72	22.9878	0.0232201	0	0	4.26896e-035	0	1	4	4
72	23.011	0.0348301	0	0	4.26896e-035	0	1	4	4
70	23.1213	0.0464401	0	0	4.26896e-035	0	1	4	4
69	23.2664	0.0232201	0	0	4.26896e-035	0	1	4	4
72	23.3593	0.12771	0	0	4.26896e-035	0	1	4	4
73	23.725	0.0406342	0	0	4.26896e-035	0	1	4	4
71	23.7772	0.0406342	0	0	4.26896e-035	0	1	4	4
72	23.8353	0.0348301	0	0	4.26896e-035	0	1	4	4
69	24.0094	0.12771	0	0	4.26896e-035	0	1	4	4
69	24.2707	0.0348301	0	0	4.26896e-035	0	1	4	4
70	24.3287	0.0348301	0	0	4.26896e-035	0	1	4	4
81	24.3926	0.0348301	0	0	4.26896e-035	0	1	4	4
81	24.4274	0.121906	0	0	4.26896e-035	0	1	4	4
81	24.5493	0.336689	0	0	4.26896e-035	0	1	4	4
81	24.9092	0.214785	0	0	4.26896e-035	0	1	4	4
81	25.124	0.191565	0	0	4.26896e-035	0	1	4	4
81	25.3156	0.0464401	0	0	4.26896e-035	0	1	4	4
81	25.3678	0.0754642	0	0	4.26896e-035	0	1	4	4
81	25.4433	0.0348301	0	0	4.26896e-035	0	1	4	4
81	25.4781	0.0406361	0	0	4.26896e-035	0	1	4	4
83	25.9367	0.0348301	0	0	4.26896e-035	0	1	4	4
83	26.0296	0.0928783	0	0	4.26896e-035	0	1	4	4
83	26.1224	0.203175	0	0	4.26896e-035	0	1	4	4
83	26.3895	0.0928783	0	0	4.26896e-035	0	1	4	4
83	26.3895	0.0986843	0	0	4.26896e-035	0	1	4	4
71	26.4766	0.01161	0	0	4.26896e-035	0	1	4	4
83	26.3895	0.104488	0	0	4.26896e-035	0	1	4	4
71	26.4766	0.0174141	0	0	4.26896e-035	0	1	4	4
83	26.3895	0.110294	0	0	4.26896e-035	0	1	4	4
71	26.4766	0.0232201	0	0	4.26896e-035	0	1	4	4
83	26.3895	0.116098	0	0	4.26896e-035	0	1	4	4
71	26.4766	0.0638542	0	0	4.26896e-035	0	1	4	4
83	26.6101	0.0754642	0	0	4.26896e-035	0	1	4	4
79	26.8016	0.0232201	0	0	4.26896e-035	0	1	4	4
84	27.3357	0.0290241	0	0	4.26896e-035	0	1	4	4
84	27.5215	0.0870762	0	0	4.26896e-035	0	1	4	4
72	27.5911	0.0812702	0	0	4.26896e-035	0	1	4	4
84	27.7246	0.0928802	0	0	4.26896e-035	0	1	4	4
84	27.8175	0.0638542	0	0	4.26896e-035	0	1	4	4
84	27.8814	0.0232201	0	0	4.26896e-035	0	1	4	4
84	27.951	0.0928802	0	0	4.26896e-035	0	1	4	4
84	28.0439	0.0754642	0	0	4.26896e-035	0	1	4	4
70	28.4735	0.0290241	0	0	4.26896e-035	0	1	4	4
73	28.5083	0.0348301	0	0	4.26896e-035	0	1	4	4
74	28.5663	0.0580502	0	0	4.26896e-035	0	1	4	4
73	28.6244	0.0696602	0	0	4.26896e-035	0	1	4	4
73	28.6999	0.10449	0	0	4.26896e-035	0	1	4	4
73	28.8508	0.0696583	0	0	4.26896e-035	0	1	4	4
72	28.9495	0.133514	0	0	4.26896e-035	0	1	4	4
70	29.0888	0.0406342	0	0	4.26896e-035	0	1	4	4
57	29.1817	0.0754662	0	0	4.26896e-035	0	1	4	4
55	29.3442	0.0348301	0	0	4.26896e-035	0	1	4	4
62	29.4719	0.0464382	0	0	4.26896e-035	0	1	4	4
