midiPitch 	 onsetSec 	 durationSec 	 onsetBeats 	 onsetBarIndex 	 onsetBar 	 durationBeats 	 velocity  	 numerator 	 denominator 
61	0.0928798	0.02322	0	0	0	0	1	4	4
62	0.121905	0.145125	0	0	0	0	1	4	4
62	0.290249	0.13932	0	0	0	0	1	4	4
60	0.528254	0.10449	0	0	0	0	1	4	4
64	0.847528	0.179955	0	0	0	0	1	4	4
67	1.10875	0.0870748	0	0	0	0	1	4	4
60	1.19583	0.03483	0	0	0	0	1	4	4
60	1.27129	0.0696599	0	0	0	0	1	4	4
64	1.34095	0.0406349	0	0	0	0	1	4	4
64	1.38739	0.0348299	0	0	0	0	1	4	4
64	1.42803	0.20898	0	0	0	0	1	4	4
64	1.63701	0.029025	0	0	0	0	1	4	4
66	2.17687	0.121905	0	0	0	0	1	4	4
57	3.00118	0.0348301	0	0	0	0	1	4	4
61	3.55265	0.0232198	0	0	0	0	1	4	4
61	3.57587	0.0348301	0	0	0	0	1	4	4
61	4.4234	0.0232201	0	0	0	0	1	4	4
61	4.44662	0.0464396	0	0	0	0	1	4	4
60	4.49306	0.121905	0	0	0	0	1	4	4
60	4.61497	0.0232201	0	0	0	0	1	4	4
58	4.86458	0.0232196	0	0	0	0	1	4	4
60	4.91683	0.0696597	0	0	0	0	1	4	4
60	4.98649	0.0290251	0	0	0	0	1	4	4
63	5.12	0.0406351	0	0	0	0	1	4	4
60	5.54376	0.0812697	0	0	0	0	1	4	4
67	5.77596	0.0348296	0	0	0	0	1	4	4
55	5.8166	0.121905	0	0	0	0	1	4	4
60	5.95592	0.0522447	0	0	0	0	1	4	4
57	6.06041	0.0290251	0	0	0	0	1	4	4
60	6.08943	0.121904	0	0	0	0	1	4	4
60	6.22875	0.203175	0	0	0	0	1	4	4
62	6.46095	0.18576	0	0	0	0	1	4	4
64	6.79764	0.214785	0	0	0	0	1	4	4
57	7.36073	0.133515	0	0	0	0	1	4	4
55	7.83093	0.0754647	0	0	0	0	1	4	4
57	8.04571	0.0928793	0	0	0	0	1	4	4
60	8.51011	0.0290251	0	0	0	0	1	4	4
60	8.55075	0.0290251	0	0	0	0	1	4	4
60	8.60299	0.0638552	0	0	0	0	1	4	4
62	8.66685	0.325079	0	0	0	0	1	4	4
60	9.03837	0.365714	0	0	0	0	1	4	4
66	10.0891	0.0870743	0	0	0	0	1	4	4
60	10.3619	0.0406351	0	0	0	0	1	4	4
57	10.4432	0.0638552	0	0	0	0	1	4	4
56	10.5941	0.0986853	0	0	0	0	1	4	4
57	10.6928	0.0638552	0	0	0	0	1	4	4
57	10.7566	0.0638542	0	0	0	0	1	4	4
57	10.896	0.0232201	0	0	0	0	1	4	4
57	10.925	0.0754642	0	0	0	0	1	4	4
57	11.0353	0.0290251	0	0	0	0	1	4	4
57	11.0643	0.168344	0	0	0	0	1	4	4
57	11.4881	0.0232201	0	0	0	0	1	4	4
57	11.5403	0.0290251	0	0	0	0	1	4	4
57	11.7145	0.0522451	0	0	0	0	1	4	4
57	11.7667	0.0232191	0	0	0	0	1	4	4
57	11.8073	0.0696602	0	0	0	0	1	4	4
57	11.877	0.0696602	0	0	0	0	1	4	4
60	12.0163	0.0232201	0	0	0	0	1	4	4
61	12.0395	0.0290251	0	0	0	0	1	4	4
60	12.0744	0.0696602	0	0	0	0	1	4	4
60	12.2311	0.10449	0	0	0	0	1	4	4
57	12.3356	0.0290251	0	0	0	0	1	4	4
57	12.5968	0.0464392	0	0	0	0	1	4	4
57	12.6433	0.0232201	0	0	0	0	1	4	4
60	13.1483	0.0522451	0	0	0	0	1	4	4
60	13.2005	0.0754642	0	0	0	0	1	4	4
60	13.276	0.0406351	0	0	0	0	1	4	4
56	13.3283	0.0696602	0	0	0	0	1	4	4
63	14.019	0.116099	0	0	0	0	1	4	4
64	14.1351	0.10449	0	0	0	0	1	4	4
64	14.2396	0.0232191	0	0	0	0	1	4	4
64	14.2629	0.12771	0	0	0	0	1	4	4
67	14.4428	0.133514	0	0	0	0	1	4	4
60	14.704	0.0406351	0	0	0	0	1	4	4
62	14.7679	0.0580502	0	0	0	0	1	4	4
61	14.8259	0.0348301	0	0	0	0	1	4	4
60	14.9537	0.10449	0	0	0	0	1	4	4
63	15.0581	0.20898	0	0	0	0	1	4	4
64	15.4703	0.17415	0	0	0	0	1	4	4
63	15.6444	0.156734	0	0	0	0	1	4	4
60	15.836	0.0232201	0	0	0	0	1	4	4
64	15.8592	0.0348291	0	0	0	0	1	4	4
60	15.9289	0.121904	0	0	0	0	1	4	4
65	16.1495	0.0754642	0	0	0	0	1	4	4
57	16.2946	0.0406342	0	0	0	0	1	4	4
62	16.4629	0.185759	0	0	0	0	1	4	4
55	16.7996	0.16254	0	0	0	0	1	4	4
56	16.9854	0.145124	0	0	0	0	1	4	4
57	17.2176	0.16254	0	0	0	0	1	4	4
60	17.6762	0.0348301	0	0	0	0	1	4	4
57	17.7691	0.0986843	0	0	0	0	1	4	4
57	18.2625	0.191565	0	0	0	0	1	4	4
57	18.6572	0.0522461	0	0	0	0	1	4	4
55	18.8546	0.0580502	0	0	0	0	1	4	4
57	19.1042	0.0580502	0	0	0	0	1	4	4
56	19.4873	0.0290241	0	0	0	0	1	4	4
60	19.5222	0.12771	0	0	0	0	1	4	4
57	19.9576	0.029026	0	0	0	0	1	4	4
57	19.9924	0.0464401	0	0	0	0	1	4	4
56	20.6367	0.0348301	0	0	0	0	1	4	4
56	20.6832	0.0232201	0	0	0	0	1	4	4
57	20.9444	0.13932	0	0	0	0	1	4	4
57	21.3217	0.0232201	0	0	0	0	1	4	4
57	21.5249	0.232201	0	0	0	0	1	4	4
57	21.7571	0.0464401	0	0	0	0	1	4	4
64	22.0067	0.0232201	0	0	0	0	1	4	4
64	22.0473	0.0522461	0	0	0	0	1	4	4
64	22.0996	0.116098	0	0	0	0	1	4	4
55	22.5117	0.0928802	0	0	0	0	1	4	4
57	22.7323	0.0928783	0	0	0	0	1	4	4
61	22.9413	0.214785	0	0	0	0	1	4	4
62	23.1561	0.0348301	0	0	0	0	1	4	4
60	23.1909	0.0522442	0	0	0	0	1	4	4
60	23.2432	0.10449	0	0	0	0	1	4	4
60	23.3477	0.0406342	0	0	0	0	1	4	4
60	23.4347	0.0464401	0	0	0	0	1	4	4
59	23.4812	0.0232201	0	0	0	0	1	4	4
61	23.5102	0.0812683	0	0	0	0	1	4	4
59	24.3113	0.0290241	0	0	0	0	1	4	4
57	25.0311	0.0696602	0	0	0	0	1	4	4
57	25.7103	0.0696602	0	0	0	0	1	4	4
57	26.3721	0.029026	0	0	0	0	1	4	4
59	26.6391	0.145124	0	0	0	0	1	4	4
64	27.0048	0.0522442	0	0	0	0	1	4	4
55	27.0571	0.029026	0	0	0	0	1	4	4
62	27.0977	0.0348301	0	0	0	0	1	4	4
62	27.1325	0.0638542	0	0	0	0	1	4	4
63	27.1964	0.0464401	0	0	0	0	1	4	4
64	27.2718	0.0406361	0	0	0	0	1	4	4
64	27.3299	0.029026	0	0	0	0	1	4	4
64	27.3937	0.0754642	0	0	0	0	1	4	4
61	27.6956	0.0232201	0	0	0	0	1	4	4
62	27.7595	0.0406361	0	0	0	0	1	4	4
61	28.2064	0.0406342	0	0	0	0	1	4	4
62	28.4212	0.145124	0	0	0	0	1	4	4
62	28.5663	0.0290241	0	0	0	0	1	4	4
61	28.7463	0.0754642	0	0	0	0	1	4	4
60	28.8218	0.0406361	0	0	0	0	1	4	4
60	28.8624	0.0580482	0	0	0	0	1	4	4
55	29.1004	0.0406342	0	0	0	0	1	4	4
68	29.2746	0.029026	0	0	0	0	1	4	4
69	29.379	0.243809	0	0	0	0	1	4	4
69	29.6229	0.12771	0	0	0	0	1	4	4
