midiPitch 	 onsetSec 	 durationSec 	 onsetBeats 	 onsetBarIndex 	 onsetBar 	 durationBeats 	 velocity  	 numerator 	 denominator 
60	0.156735	0.0870748	0	0	0	0	1	4	4
61	0.24381	0.0406349	0	0	0	0	1	4	4
65	0.319274	0.191565	0	0	0	0	1	4	4
65	0.510839	0.15093	0	0	0	0	1	4	4
65	0.661769	0.592109	0	0	0	0	1	4	4
65	1.25388	0.214785	0	0	0	0	1	4	4
65	1.46866	0.156735	0	0	0	0	1	4	4
65	1.6254	0.19737	0	0	0	0	1	4	4
65	1.90404	0.15093	0	0	0	0	1	4	4
65	2.0956	0.08127	0	0	0	0	1	4	4
73	2.17687	0.313469	0	0	0	0	1	4	4
73	2.62966	0.13932	0	0	0	0	1	4	4
54	2.98957	0.133515	0	0	0	0	1	4	4
70	3.16952	0.0580499	0	0	0	0	1	4	4
72	3.22757	0.0986848	0	0	0	0	1	4	4
72	3.32626	0.0348299	0	0	0	0	1	4	4
72	3.3727	0.0870748	0	0	0	0	1	4	4
72	3.45977	0.423764	0	0	0	0	1	4	4
72	3.88354	0.15093	0	0	0	0	1	4	4
72	4.03447	1.23646	0	0	0	0	1	4	4
72	5.27093	0.150929	0	0	0	0	1	4	4
72	5.42186	0.0812697	0	0	0	0	1	4	4
70	5.52635	0.168344	0	0	0	0	1	4	4
72	5.7005	0.2322	0	0	0	0	1	4	4
75	6.00816	0.12771	0	0	0	0	1	4	4
75	6.13587	0.156735	0	0	0	0	1	4	4
75	6.29261	0.127709	0	0	0	0	1	4	4
73	6.42032	0.446984	0	0	0	0	1	4	4
72	6.8673	0.133515	0	0	0	0	1	4	4
73	7.00082	0.232199	0	0	0	0	1	4	4
72	7.23302	0.121905	0	0	0	0	1	4	4
70	7.36073	0.505034	0	0	0	0	1	4	4
65	7.90059	0.783674	0	0	0	0	1	4	4
65	8.68426	0.17415	0	0	0	0	1	4	4
65	9.12544	0.0754652	0	0	0	0	1	4	4
63	9.27057	0.162539	0	0	0	0	1	4	4
65	9.45633	0.214785	0	0	0	0	1	4	4
66	9.67111	0.272834	0	0	0	0	1	4	4
66	9.94394	0.15093	0	0	0	0	1	4	4
66	10.0949	0.0928793	0	0	0	0	1	4	4
68	10.1936	0.406349	0	0	0	0	1	4	4
65	10.5999	0.10449	0	0	0	0	1	4	4
65	10.7044	0.476008	0	0	0	0	1	4	4
65	11.1804	0.133515	0	0	0	0	1	4	4
63	11.3546	0.214785	0	0	0	0	1	4	4
61	11.61	1.09714	0	0	0	0	1	4	4
66	13.4618	0.586304	0	0	0	0	1	4	4
67	14.1642	0.493423	0	0	0	0	1	4	4
67	14.6634	0.0986853	0	0	0	0	1	4	4
70	14.8027	0.145124	0	0	0	0	1	4	4
70	14.9478	0.388934	0	0	0	0	1	4	4
71	15.3368	0.615329	0	0	0	0	1	4	4
72	15.9985	0.667574	0	0	0	0	1	4	4
75	16.6893	0.510839	0	0	0	0	1	4	4
76	17.206	0.684988	0	0	0	0	1	4	4
77	17.8968	0.528254	0	0	0	0	1	4	4
77	18.425	0.0928802	0	0	0	0	1	4	4
80	18.5702	0.261225	0	0	0	0	1	4	4
79	18.8314	0.0696602	0	0	0	0	1	4	4
76	18.9068	0.0754662	0	0	0	0	1	4	4
72	18.9823	1.03329	0	0	0	0	1	4	4
72	20.0156	0.10449	0	0	0	0	1	4	4
70	20.48	0.220591	0	0	0	0	1	4	4
72	20.718	0.238005	0	0	0	0	1	4	4
75	21.0315	0.267031	0	0	0	0	1	4	4
75	21.2985	0.133514	0	0	0	0	1	4	4
73	21.4436	0.441179	0	0	0	0	1	4	4
72	21.9487	0.400543	0	0	0	0	1	4	4
70	22.384	0.510839	0	0	0	0	1	4	4
65	22.8949	0.812698	0	0	0	0	1	4	4
65	24.0791	0.15093	0	0	0	0	1	4	4
63	24.2881	0.174149	0	0	0	0	1	4	4
65	24.4796	0.232199	0	0	0	0	1	4	4
66	24.7583	0.220591	0	0	0	0	1	4	4
66	24.9789	0.191565	0	0	0	0	1	4	4
66	25.1704	0.104488	0	0	0	0	1	4	4
68	25.2749	0.336691	0	0	0	0	1	4	4
65	25.6639	0.603718	0	0	0	0	1	4	4
65	26.2676	0.133516	0	0	0	0	1	4	4
63	26.4127	0.0986843	0	0	0	0	1	4	4
61	26.5114	0.191565	0	0	0	0	1	4	4
60	26.7029	3.0244	0	0	0	0	1	4	4
