midiPitch 	 onsetSec 	 durationSec 	 onsetBeats 	 onsetBarIndex 	 onsetBar 	 durationBeats 	 velocity  	 numerator 	 denominator 
53	0.772063	0.0290249	0	0	0	0	1	4	4
59	0.841723	0.0464399	0	0	0	0	1	4	4
64	0.940408	0.0232199	0	0	0	0	1	4	4
54	1.32354	0.0522449	0	0	0	0	1	4	4
53	1.57896	0.040635	0	0	0	0	1	4	4
55	1.68925	0.0232199	0	0	0	0	1	4	4
53	1.84018	0.0464399	0	0	0	0	1	4	4
61	1.88662	0.0232199	0	0	0	0	1	4	4
53	2.23492	0.0290251	0	0	0	0	1	4	4
53	2.30458	0.0928798	0	0	0	0	1	4	4
54	2.72834	0.0406349	0	0	0	0	1	4	4
53	2.78639	0.0232198	0	0	0	0	1	4	4
57	2.89088	0.0232198	0	0	0	0	1	4	4
53	2.97796	0.0406349	0	0	0	0	1	4	4
59	3.33206	0.0232201	0	0	0	0	1	4	4
60	3.35528	0.0232198	0	0	0	0	1	4	4
53	3.93578	0.0348301	0	0	0	0	1	4	4
53	4.16218	0.0406351	0	0	0	0	1	4	4
4294967295	4.19701	0.01161	0	0	0	0	1	4	4
70	4.49306	0.0290251	0	0	0	0	1	4	4
70	4.62658	0.0348301	0	0	0	0	1	4	4
74	4.86458	0.0232196	0	0	0	0	1	4	4
68	4.96327	0.0348296	0	0	0	0	1	4	4
71	5.02132	0.0232201	0	0	0	0	1	4	4
67	5.26512	0.0290246	0	0	0	0	1	4	4
69	5.31156	0.0232201	0	0	0	0	1	4	4
71	5.36381	0.0232196	0	0	0	0	1	4	4
65	5.62503	0.0232201	0	0	0	0	1	4	4
65	5.7063	0.0348301	0	0	0	0	1	4	4
72	5.75274	0.0232201	0	0	0	0	1	4	4
68	5.77596	0.0348296	0	0	0	0	1	4	4
70	5.8224	0.0406351	0	0	0	0	1	4	4
66	6.11846	0.0290251	0	0	0	0	1	4	4
65	6.20553	0.0290251	0	0	0	0	1	4	4
59	6.25778	0.0232201	0	0	0	0	1	4	4
65	6.69315	0.0348296	0	0	0	0	1	4	4
66	6.78603	0.0348296	0	0	0	0	1	4	4
62	6.94857	0.0348301	0	0	0	0	1	4	4
67	7.36073	0.0232201	0	0	0	0	1	4	4
66	7.93542	0.0232196	0	0	0	0	1	4	4
68	8.58558	0.0290251	0	0	0	0	1	4	4
71	8.70168	0.0348291	0	0	0	0	1	4	4
71	8.78295	0.0290251	0	0	0	0	1	4	4
70	8.95129	0.0290251	0	0	0	0	1	4	4
72	9.10222	0.0232191	0	0	0	0	1	4	4
65	9.13125	0.0290251	0	0	0	0	1	4	4
70	9.26476	0.0232201	0	0	0	0	1	4	4
65	9.35764	0.0232201	0	0	0	0	1	4	4
65	9.38086	0.0406351	0	0	0	0	1	4	4
71	9.43891	0.0290251	0	0	0	0	1	4	4
65	9.52599	0.0522442	0	0	0	0	1	4	4
68	9.61306	0.0232201	0	0	0	0	1	4	4
68	9.69433	0.0232201	0	0	0	0	1	4	4
65	10.0194	0.0232201	0	0	0	0	1	4	4
66	10.2574	0.0406351	0	0	0	0	1	4	4
68	10.4316	0.0232201	0	0	0	0	1	4	4
71	10.7392	0.0232191	0	0	0	0	1	4	4
64	11.1862	0.0464401	0	0	0	0	1	4	4
64	11.2733	0.0290251	0	0	0	0	1	4	4
64	11.3023	0.0232201	0	0	0	0	1	4	4
65	11.5519	0.0290251	0	0	0	0	1	4	4
65	11.5926	0.0754652	0	0	0	0	1	4	4
65	12.1498	0.0870743	0	0	0	0	1	4	4
72	12.2311	0.0232201	0	0	0	0	1	4	4
65	12.2543	0.0580502	0	0	0	0	1	4	4
66	12.3588	0.0290251	0	0	0	0	1	4	4
66	12.5388	0.0232201	0	0	0	0	1	4	4
66	12.62	0.0406351	0	0	0	0	1	4	4
65	13.3283	0.0348301	0	0	0	0	1	4	4
68	13.514	0.0290251	0	0	0	0	1	4	4
66	13.543	0.0232201	0	0	0	0	1	4	4
66	13.6475	0.0290251	0	0	0	0	1	4	4
72	13.6707	0.0290251	0	0	0	0	1	4	4
72	13.961	0.0232201	0	0	0	0	1	4	4
69	14.0365	0.0348291	0	0	0	0	1	4	4
71	14.1061	0.0290251	0	0	0	0	1	4	4
65	14.379	0.0348301	0	0	0	0	1	4	4
66	14.5589	0.0290251	0	0	0	0	1	4	4
68	14.5995	0.0290251	0	0	0	0	1	4	4
68	14.6924	0.0290251	0	0	0	0	1	4	4
70	14.7447	0.0290251	0	0	0	0	1	4	4
65	14.7795	0.0232201	0	0	0	0	1	4	4
67	15.0059	0.0232201	0	0	0	0	1	4	4
69	15.1394	0.0232201	0	0	0	0	1	4	4
71	15.4413	0.0290251	0	0	0	0	1	4	4
68	15.7663	0.0232201	0	0	0	0	1	4	4
68	15.8244	0.0290251	0	0	0	0	1	4	4
65	16.3004	0.0232201	0	0	0	0	1	4	4
71	16.3352	0.0232201	0	0	0	0	1	4	4
72	16.3701	0.0406342	0	0	0	0	1	4	4
69	16.4281	0.0232201	0	0	0	0	1	4	4
65	16.6893	0.0580502	0	0	0	0	1	4	4
66	16.8054	0.0406342	0	0	0	0	1	4	4
70	16.8635	0.0406361	0	0	0	0	1	4	4
66	16.939	0.0232201	0	0	0	0	1	4	4
70	16.9738	0.0290241	0	0	0	0	1	4	4
67	17.0028	0.0290241	0	0	0	0	1	4	4
70	17.0493	0.0522442	0	0	0	0	1	4	4
66	17.1073	0.116098	0	0	0	0	1	4	4
70	17.5485	0.0232201	0	0	0	0	1	4	4
68	17.8329	0.029026	0	0	0	0	1	4	4
68	17.8678	0.0348301	0	0	0	0	1	4	4
65	17.8968	0.0232201	0	0	0	0	1	4	4
70	18.2625	0.0348301	0	0	0	0	1	4	4
66	18.2973	0.0348301	0	0	0	0	1	4	4
70	18.3438	0.029026	0	0	0	0	1	4	4
66	18.4192	0.0348282	0	0	0	0	1	4	4
71	18.7327	0.0290241	0	0	0	0	1	4	4
68	19.4409	0.0232201	0	0	0	0	1	4	4
71	19.7544	0.0232201	0	0	0	0	1	4	4
66	19.7834	0.0464401	0	0	0	0	1	4	4
65	20.1781	0.0232201	0	0	0	0	1	4	4
66	20.3581	0.0232201	0	0	0	0	1	4	4
65	20.4219	0.0348301	0	0	0	0	1	4	4
65	20.5206	0.0464401	0	0	0	0	1	4	4
65	20.6019	0.029026	0	0	0	0	1	4	4
67	20.8922	0.0406342	0	0	0	0	1	4	4
68	21.1069	0.0232182	0	0	0	0	1	4	4
70	21.4146	0.0232201	0	0	0	0	1	4	4
69	21.6642	0.029026	0	0	0	0	1	4	4
68	21.7165	0.0290241	0	0	0	0	1	4	4
69	21.7803	0.0290241	0	0	0	0	1	4	4
68	21.9429	0.0406361	0	0	0	0	1	4	4
71	22.1634	0.0232201	0	0	0	0	1	4	4
69	22.3724	0.0232201	0	0	0	0	1	4	4
69	22.4943	0.0406342	0	0	0	0	1	4	4
68	22.564	0.0406361	0	0	0	0	1	4	4
70	22.7846	0.0290241	0	0	0	0	1	4	4
68	22.8194	0.0290241	0	0	0	0	1	4	4
72	23.0342	0.0290241	0	0	0	0	1	4	4
67	23.0864	0.0232201	0	0	0	0	1	4	4
65	23.249	0.0232201	0	0	0	0	1	4	4
68	23.3709	0.0232201	0	0	0	0	1	4	4
67	23.545	0.0290241	0	0	0	0	1	4	4
66	23.8527	0.0232201	0	0	0	0	1	4	4
68	23.9049	0.0232201	0	0	0	0	1	4	4
66	23.9804	0.0232201	0	0	0	0	1	4	4
70	24.2068	0.0348301	0	0	0	0	1	4	4
65	24.259	0.0232201	0	0	0	0	1	4	4
65	24.3926	0.0406361	0	0	0	0	1	4	4
65	24.4622	0.0232201	0	0	0	0	1	4	4
67	24.648	0.0406342	0	0	0	0	1	4	4
68	24.7699	0.0232201	0	0	0	0	1	4	4
66	24.8163	0.0232201	0	0	0	0	1	4	4
66	24.8802	0.0348301	0	0	0	0	1	4	4
70	25.0892	0.0406342	0	0	0	0	1	4	4
71	25.2807	0.0406342	0	0	0	0	1	4	4
71	25.3852	0.0232201	0	0	0	0	1	4	4
72	25.7277	0.029026	0	0	0	0	1	4	4
64	25.7974	0.029026	0	0	0	0	1	4	4
65	25.8264	0.0232182	0	0	0	0	1	4	4
67	25.9019	0.0348301	0	0	0	0	1	4	4
74	26.0296	0.0232182	0	0	0	0	1	4	4
66	26.3779	0.0232201	0	0	0	0	1	4	4
71	26.523	0.0232201	0	0	0	0	1	4	4
69	26.7494	0.0232201	0	0	0	0	1	4	4
71	27.0106	0.0290241	0	0	0	0	1	4	4
70	27.0396	0.0232201	0	0	0	0	1	4	4
64	27.0629	0.0232201	0	0	0	0	1	4	4
65	27.1325	0.0290241	0	0	0	0	1	4	4
67	27.2254	0.0406342	0	0	0	0	1	4	4
65	27.6259	0.029026	0	0	0	0	1	4	4
70	27.684	0.0232201	0	0	0	0	1	4	4
67	27.7537	0.0290241	0	0	0	0	1	4	4
65	27.8233	0.0232201	0	0	0	0	1	4	4
65	28.0323	0.0348301	0	0	0	0	1	4	4
65	28.1194	0.0406361	0	0	0	0	1	4	4
68	28.4096	0.0232201	0	0	0	0	1	4	4
67	28.8856	0.0232182	0	0	0	0	1	4	4
67	28.9959	0.0464401	0	0	0	0	1	4	4
68	29.3674	0.0232201	0	0	0	0	1	4	4
65	29.4603	0.0290241	0	0	0	0	1	4	4
63	29.6229	0.029026	0	0	0	0	1	4	4
65	29.6693	0.0464401	0	0	0	0	1	4	4
