midiPitch 	 onsetSec 	 durationSec 	 onsetBeats 	 onsetBarIndex 	 onsetBar 	 durationBeats 	 velocity  	 numerator 	 denominator 
57	0.0406349	0.145125	0	0	2.53898e-035	0	1	4	4
56	0.214785	0.02322	0	0	2.53898e-035	0	1	4	4
56	0.267029	0.02322	0	0	2.53898e-035	0	1	4	4
55	0.319274	0.168345	0	0	2.53898e-035	0	1	4	4
55	0.522449	0.0522449	0	0	2.53898e-035	0	1	4	4
55	0.586304	0.20898	0	0	2.53898e-035	0	1	4	4
55	0.795283	0.2322	0	0	2.53898e-035	0	1	4	4
55	1.02748	0.0928798	0	0	2.53898e-035	0	1	4	4
55	1.12617	0.179955	0	0	2.53898e-035	0	1	4	4
57	1.38739	0.243809	0	0	2.53898e-035	0	1	4	4
59	1.6312	0.16254	0	0	2.53898e-035	0	1	4	4
59	1.96209	0.133515	0	0	2.53898e-035	0	1	4	4
60	2.0956	0.679184	0	0	2.53898e-035	0	1	4	4
60	2.77478	0.17415	0	0	2.53898e-035	0	1	4	4
59	3.08825	0.638549	0	0	2.53898e-035	0	1	4	4
57	3.80807	0.243809	0	0	2.53898e-035	0	1	4	4
66	4.60916	0.795283	0	0	2.53898e-035	0	1	4	4
57	5.96753	0.12771	0	0	2.53898e-035	0	1	4	4
57	6.53061	0.296054	0	0	2.53898e-035	0	1	4	4
59	7.15175	0.179955	0	0	2.53898e-035	0	1	4	4
62	7.33751	0.39474	0	0	2.53898e-035	0	1	4	4
55	7.93542	0.539864	0	0	2.53898e-035	0	1	4	4
55	8.47528	0.18576	0	0	2.53898e-035	0	1	4	4
67	8.78295	0.12771	0	0	2.53898e-035	0	1	4	4
67	8.91066	0.0290241	0	0	2.53898e-035	0	1	4	4
67	8.92227	0.435374	0	0	2.53898e-035	0	1	4	4
62	9.35764	0.830113	0	0	2.53898e-035	0	1	4	4
62	10.1878	0.0290251	0	0	2.53898e-035	0	1	4	4
60	10.5593	0.342495	0	0	2.53898e-035	0	1	4	4
62	11.0179	0.27864	0	0	2.53898e-035	0	1	4	4
62	11.4823	0.0696602	0	0	2.53898e-035	0	1	4	4
62	11.5635	0.0464392	0	0	2.53898e-035	0	1	4	4
62	11.61	0.0522451	0	0	2.53898e-035	0	1	4	4
62	11.7551	0.0348291	0	0	2.53898e-035	0	1	4	4
64	11.9815	0.551474	0	0	2.53898e-035	0	1	4	4
64	12.533	0.24381	0	0	2.53898e-035	0	1	4	4
62	12.8058	0.0232191	0	0	2.53898e-035	0	1	4	4
62	12.8348	0.1161	0	0	2.53898e-035	0	1	4	4
60	13.0844	0.0348301	0	0	2.53898e-035	0	1	4	4
64	13.3224	0.609524	0	0	2.53898e-035	0	1	4	4
64	13.9436	0.545669	0	0	2.53898e-035	0	1	4	4
60	15.0523	0.272834	0	0	2.53898e-035	0	1	4	4
62	15.6444	0.702403	0	0	2.53898e-035	0	1	4	4
62	16.5152	0.0870762	0	0	2.53898e-035	0	1	4	4
64	16.6023	0.359909	0	0	2.53898e-035	0	1	4	4
64	17.1131	0.0754662	0	0	2.53898e-035	0	1	4	4
64	17.1886	0.104488	0	0	2.53898e-035	0	1	4	4
64	17.3685	0.278639	0	0	2.53898e-035	0	1	4	4
62	17.6472	0.238005	0	0	2.53898e-035	0	1	4	4
64	17.8852	0.516644	0	0	2.53898e-035	0	1	4	4
61	18.4018	0.0870743	0	0	2.53898e-035	0	1	4	4
64	18.4889	0.342495	0	0	2.53898e-035	0	1	4	4
64	18.8314	0.232199	0	0	2.53898e-035	0	1	4	4
59	19.6847	0.243811	0	0	2.53898e-035	0	1	4	4
60	19.9692	0.400545	0	0	2.53898e-035	0	1	4	4
62	20.3697	0.621134	0	0	2.53898e-035	0	1	4	4
62	21.1244	0.10449	0	0	2.53898e-035	0	1	4	4
62	21.4146	0.359909	0	0	2.53898e-035	0	1	4	4
61	21.7745	0.156736	0	0	2.53898e-035	0	1	4	4
62	22.2389	0.272835	0	0	2.53898e-035	0	1	4	4
58	22.5117	0.0812702	0	0	2.53898e-035	0	1	4	4
60	22.593	0.708208	0	0	2.53898e-035	0	1	4	4
60	23.3477	0.330885	0	0	2.53898e-035	0	1	4	4
59	23.6785	0.226395	0	0	2.53898e-035	0	1	4	4
55	23.9746	0.0696583	0	0	2.53898e-035	0	1	4	4
57	24.5145	0.121904	0	0	2.53898e-035	0	1	4	4
59	24.6364	0.377323	0	0	2.53898e-035	0	1	4	4
59	25.0137	0.029026	0	0	2.53898e-035	0	1	4	4
58	25.0543	0.15093	0	0	2.53898e-035	0	1	4	4
59	25.2053	1.2829	0	0	2.53898e-035	0	1	4	4
59	26.4882	0.423763	0	0	2.53898e-035	0	1	4	4
57	26.9293	0.1161	0	0	2.53898e-035	0	1	4	4
57	27.0454	0.278639	0	0	2.53898e-035	0	1	4	4
57	27.3241	0.0290241	0	0	2.53898e-035	0	1	4	4
57	27.3937	0.0812683	0	0	2.53898e-035	0	1	4	4
62	27.8349	0.127708	0	0	2.53898e-035	0	1	4	4
50	28.2297	0.249615	0	0	2.53898e-035	0	1	4	4
55	28.8218	0.17415	0	0	2.53898e-035	0	1	4	4
59	29.112	0.208981	0	0	2.53898e-035	0	1	4	4
57	29.321	0.0232201	0	0	2.53898e-035	0	1	4	4
57	29.3558	0.661768	0	0	2.53898e-035	0	1	4	4
