midiPitch 	 onsetSec 	 durationSec 	 onsetBeats 	 onsetBarIndex 	 onsetBar 	 durationBeats 	 velocity  	 numerator 	 denominator 
59	0.446984	0.0348299	0	0	0	0	1	4	4
59	0.481814	0.02322	0	0	0	0	1	4	4
59	0.574694	0.0348299	0	0	0	0	1	4	4
59	0.609524	0.029025	0	0	0	0	1	4	4
55	0.708209	0.0696598	0	0	0	0	1	4	4
54	0.777868	0.03483	0	0	0	0	1	4	4
54	0.876553	0.0232199	0	0	0	0	1	4	4
55	1.00426	0.0232199	0	0	0	0	1	4	4
59	1.03329	0.029025	0	0	0	0	1	4	4
60	1.09714	0.0232199	0	0	0	0	1	4	4
54	1.13778	0.0348299	0	0	0	0	1	4	4
52	1.21905	0.029025	0	0	0	0	1	4	4
52	1.2829	0.029025	0	0	0	0	1	4	4
54	1.31773	0.0522449	0	0	0	0	1	4	4
62	1.36998	0.0812697	0	0	0	0	1	4	4
62	1.45125	0.0812699	0	0	0	0	1	4	4
62	1.60798	0.0232199	0	0	0	0	1	4	4
64	1.65442	0.383129	0	0	0	0	1	4	4
64	2.05497	0.0522449	0	0	0	0	1	4	4
64	2.10721	0.22059	0	0	0	0	1	4	4
64	2.33941	0.0522449	0	0	0	0	1	4	4
64	2.39166	0.075465	0	0	0	0	1	4	4
67	2.81542	0.0986848	0	0	0	0	1	4	4
67	2.9141	0.0290251	0	0	0	0	1	4	4
67	3.00118	0.0290251	0	0	0	0	1	4	4
67	3.0302	0.0232198	0	0	0	0	1	4	4
62	3.1463	0.0290248	0	0	0	0	1	4	4
62	3.23918	0.400544	0	0	0	0	1	4	4
62	3.98222	0.214785	0	0	0	0	1	4	4
62	4.19701	0.0638547	0	0	0	0	1	4	4
62	4.4176	0.0696597	0	0	0	0	1	4	4
59	4.58594	0.0348301	0	0	0	0	1	4	4
65	5.85723	0.0232201	0	0	0	0	1	4	4
59	5.88045	0.0290246	0	0	0	0	1	4	4
59	5.91528	0.0522451	0	0	0	0	1	4	4
59	6.24617	0.0406351	0	0	0	0	1	4	4
60	6.30422	0.110295	0	0	0	0	1	4	4
60	6.41451	0.0580502	0	0	0	0	1	4	4
60	6.47256	0.0232201	0	0	0	0	1	4	4
60	6.50159	0.139319	0	0	0	0	1	4	4
60	6.64091	0.0754647	0	0	0	0	1	4	4
60	6.72218	0.10449	0	0	0	0	1	4	4
60	6.82667	0.0522451	0	0	0	0	1	4	4
59	7.05887	0.0290251	0	0	0	0	1	4	4
59	7.14014	0.0290251	0	0	0	0	1	4	4
60	7.17497	0.0464401	0	0	0	0	1	4	4
61	7.31429	0.0290246	0	0	0	0	1	4	4
60	7.39556	0.0290251	0	0	0	0	1	4	4
60	7.43039	0.0232196	0	0	0	0	1	4	4
60	7.45941	0.203175	0	0	0	0	1	4	4
58	7.70902	0.0348296	0	0	0	0	1	4	4
61	8.46948	0.0406342	0	0	0	0	1	4	4
61	8.52753	0.0406351	0	0	0	0	1	4	4
60	8.56816	0.0754652	0	0	0	0	1	4	4
60	8.92227	0.0232201	0	0	0	0	1	4	4
60	8.97451	0.0290251	0	0	0	0	1	4	4
60	9.00354	0.0232201	0	0	0	0	1	4	4
60	9.21832	0.0348301	0	0	0	0	1	4	4
62	9.46794	0.0522451	0	0	0	0	1	4	4
60	9.52018	0.319274	0	0	0	0	1	4	4
58	9.94394	0.0232201	0	0	0	0	1	4	4
61	10.3039	0.0464401	0	0	0	0	1	4	4
55	10.7566	0.150929	0	0	0	0	1	4	4
60	10.9366	0.0232201	0	0	0	0	1	4	4
59	10.9598	0.0232191	0	0	0	0	1	4	4
58	10.9888	0.0290251	0	0	0	0	1	4	4
57	11.0179	0.0290251	0	0	0	0	1	4	4
56	11.2268	0.0232201	0	0	0	0	1	4	4
55	11.2617	0.0812702	0	0	0	0	1	4	4
55	11.3546	0.0406342	0	0	0	0	1	4	4
55	11.401	0.0464401	0	0	0	0	1	4	4
61	11.5171	0.0522451	0	0	0	0	1	4	4
60	11.8886	0.24381	0	0	0	0	1	4	4
58	12.1324	0.0406351	0	0	0	0	1	4	4
57	12.1789	0.0580492	0	0	0	0	1	4	4
56	12.7884	0.0406342	0	0	0	0	1	4	4
59	12.8406	0.0290251	0	0	0	0	1	4	4
61	12.9277	0.0348301	0	0	0	0	1	4	4
60	12.9683	0.22059	0	0	0	0	1	4	4
60	13.5372	0.0232201	0	0	0	0	1	4	4
60	13.5895	0.121904	0	0	0	0	1	4	4
60	14.1874	0.0638542	0	0	0	0	1	4	4
63	14.6286	0.0290241	0	0	0	0	1	4	4
62	14.6634	0.0290251	0	0	0	0	1	4	4
61	14.6982	0.0348301	0	0	0	0	1	4	4
61	14.7505	0.214785	0	0	0	0	1	4	4
60	15.1278	0.0812702	0	0	0	0	1	4	4
59	15.2613	0.104489	0	0	0	0	1	4	4
59	15.3658	0.10449	0	0	0	0	1	4	4
56	15.778	0.0928802	0	0	0	0	1	4	4
56	15.9521	0.0464401	0	0	0	0	1	4	4
55	16.0624	0.0580502	0	0	0	0	1	4	4
56	16.1437	0.0638542	0	0	0	0	1	4	4
55	16.2075	0.029026	0	0	0	0	1	4	4
55	16.2366	0.110294	0	0	0	0	1	4	4
55	16.4862	0.0464401	0	0	0	0	1	4	4
55	16.6081	0.0290241	0	0	0	0	1	4	4
55	16.7706	0.0696583	0	0	0	0	1	4	4
55	16.8403	0.0464401	0	0	0	0	1	4	4
55	16.8867	0.1161	0	0	0	0	1	4	4
55	17.0028	0.18576	0	0	0	0	1	4	4
55	17.3337	0.0232201	0	0	0	0	1	4	4
55	17.3627	0.029026	0	0	0	0	1	4	4
55	17.3917	0.0406342	0	0	0	0	1	4	4
55	17.4382	0.284445	0	0	0	0	1	4	4
55	17.74	0.0348301	0	0	0	0	1	4	4
55	17.8039	0.10449	0	0	0	0	1	4	4
55	18.0245	0.249613	0	0	0	0	1	4	4
55	18.4483	0.16254	0	0	0	0	1	4	4
55	18.7153	0.029026	0	0	0	0	1	4	4
55	18.7443	0.127708	0	0	0	0	1	4	4
55	19.0171	0.145124	0	0	0	0	1	4	4
55	19.1797	0.0348301	0	0	0	0	1	4	4
55	19.2203	0.0406342	0	0	0	0	1	4	4
55	19.261	0.145124	0	0	0	0	1	4	4
55	19.4061	0.0232201	0	0	0	0	1	4	4
55	19.4641	0.0696602	0	0	0	0	1	4	4
55	19.6034	0.0870743	0	0	0	0	1	4	4
55	19.8356	0.0348301	0	0	0	0	1	4	4
55	19.8763	0.0348282	0	0	0	0	1	4	4
55	19.9227	0.0812702	0	0	0	0	1	4	4
60	20.3	0.0870743	0	0	0	0	1	4	4
60	20.3871	0.0522461	0	0	0	0	1	4	4
55	20.5613	0.0406342	0	0	0	0	1	4	4
55	20.6774	0.0580482	0	0	0	0	1	4	4
55	21.0315	0.029026	0	0	0	0	1	4	4
55	21.0721	0.0464382	0	0	0	0	1	4	4
55	21.3217	0.0232201	0	0	0	0	1	4	4
55	21.4668	0.0522442	0	0	0	0	1	4	4
55	21.6062	0.0232201	0	0	0	0	1	4	4
54	21.6584	0.0406342	0	0	0	0	1	4	4
55	21.7165	0.0406342	0	0	0	0	1	4	4
55	21.9719	0.243809	0	0	0	0	1	4	4
55	22.2215	0.0580502	0	0	0	0	1	4	4
55	22.297	0.0638542	0	0	0	0	1	4	4
55	22.3782	0.0812702	0	0	0	0	1	4	4
55	22.4595	0.0406342	0	0	0	0	1	4	4
55	22.5466	0.0290241	0	0	0	0	1	4	4
55	22.5756	0.0232201	0	0	0	0	1	4	4
55	22.6046	0.0464401	0	0	0	0	1	4	4
55	22.6511	0.133514	0	0	0	0	1	4	4
55	22.86	0.029026	0	0	0	0	1	4	4
54	22.9413	0.0290241	0	0	0	0	1	4	4
55	23.011	0.0232201	0	0	0	0	1	4	4
59	23.22	0.0464401	0	0	0	0	1	4	4
53	23.2664	0.0638561	0	0	0	0	1	4	4
54	23.3535	0.0638542	0	0	0	0	1	4	4
55	23.5508	0.0928802	0	0	0	0	1	4	4
55	23.8005	0.0522442	0	0	0	0	1	4	4
60	24.172	0.0232201	0	0	0	0	1	4	4
56	24.3055	0.0232201	0	0	0	0	1	4	4
55	24.4912	0.0406342	0	0	0	0	1	4	4
59	24.5319	0.029026	0	0	0	0	1	4	4
59	24.5609	0.0290241	0	0	0	0	1	4	4
53	24.6364	0.0290241	0	0	0	0	1	4	4
55	24.7234	0.0232201	0	0	0	0	1	4	4
55	24.886	0.0406342	0	0	0	0	1	4	4
55	25.0021	0.0232182	0	0	0	0	1	4	4
55	25.0485	0.029026	0	0	0	0	1	4	4
55	25.3214	0.0348301	0	0	0	0	1	4	4
59	25.362	0.0232201	0	0	0	0	1	4	4
55	25.6522	0.0290241	0	0	0	0	1	4	4
55	25.7683	0.0232201	0	0	0	0	1	4	4
53	25.8728	0.0406361	0	0	0	0	1	4	4
60	26.1224	0.0232201	0	0	0	0	1	4	4
55	26.6043	0.0348301	0	0	0	0	1	4	4
50	26.8016	0.029026	0	0	0	0	1	4	4
55	26.8365	0.0232201	0	0	0	0	1	4	4
55	27.4344	0.0406342	0	0	0	0	1	4	4
56	27.4924	0.0232201	0	0	0	0	1	4	4
54	27.5156	0.0232201	0	0	0	0	1	4	4
57	27.713	0.029026	0	0	0	0	1	4	4
54	27.9568	0.0348301	0	0	0	0	1	4	4
59	28.2122	0.0232201	0	0	0	0	1	4	4
53	28.4967	0.0464401	0	0	0	0	1	4	4
58	28.578	0.0232201	0	0	0	0	1	4	4
56	28.6941	0.0754642	0	0	0	0	1	4	4
