midiPitch 	 onsetSec 	 durationSec 	 onsetBeats 	 onsetBarIndex 	 onsetBar 	 durationBeats 	 velocity  	 numerator 	 denominator 
62	0.0406349	0.20898	0	0	4.70181e-035	0	1	4	4
61	0.249615	0.191565	0	0	4.70181e-035	0	1	4	4
60	0.615329	0.2322	0	0	4.70181e-035	0	1	4	4
56	0.847528	0.272834	0	0	4.70181e-035	0	1	4	4
55	1.26549	0.0348299	0	0	4.70181e-035	0	1	4	4
57	1.44544	0.806893	0	0	4.70181e-035	0	1	4	4
57	2.25234	0.307664	0	0	4.70181e-035	0	1	4	4
69	2.74576	0.145125	0	0	4.70181e-035	0	1	4	4
69	2.89088	0.10449	0	0	4.70181e-035	0	1	4	4
65	2.99537	0.179955	0	0	4.70181e-035	0	1	4	4
60	3.39592	0.238004	0	0	4.70181e-035	0	1	4	4
57	3.63973	0.359909	0	0	4.70181e-035	0	1	4	4
54	4.00544	0.0580497	0	0	4.70181e-035	0	1	4	4
56	4.12154	0.0348296	0	0	4.70181e-035	0	1	4	4
53	4.16218	0.342494	0	0	4.70181e-035	0	1	4	4
62	4.64399	0.661768	0	0	4.70181e-035	0	1	4	4
62	5.30576	0.25542	0	0	4.70181e-035	0	1	4	4
60	5.69469	0.25542	0	0	4.70181e-035	0	1	4	4
61	6.03138	0.0406351	0	0	4.70181e-035	0	1	4	4
64	6.07782	0.441179	0	0	4.70181e-035	0	1	4	4
63	6.58286	0.17415	0	0	4.70181e-035	0	1	4	4
64	6.75701	0.20898	0	0	4.70181e-035	0	1	4	4
60	8.85841	0.145124	0	0	4.70181e-035	0	1	4	4
60	9.12544	0.0870752	0	0	4.70181e-035	0	1	4	4
60	9.21252	0.417959	0	0	4.70181e-035	0	1	4	4
60	9.70014	0.487618	0	0	4.70181e-035	0	1	4	4
60	10.1936	0.179955	0	0	4.70181e-035	0	1	4	4
58	10.5128	0.156734	0	0	4.70181e-035	0	1	4	4
57	10.8379	0.26703	0	0	4.70181e-035	0	1	4	4
55	11.4068	0.156735	0	0	4.70181e-035	0	1	4	4
53	11.7029	0.522449	0	0	4.70181e-035	0	1	4	4
65	13.961	0.557279	0	0	4.70181e-035	0	1	4	4
62	14.6228	0.179955	0	0	4.70181e-035	0	1	4	4
59	14.9537	0.0406351	0	0	4.70181e-035	0	1	4	4
60	15.0001	0.359909	0	0	4.70181e-035	0	1	4	4
59	15.36	0.0348301	0	0	4.70181e-035	0	1	4	4
52	15.9869	0.0406342	0	0	4.70181e-035	0	1	4	4
51	16.1205	0.0348301	0	0	4.70181e-035	0	1	4	4
67	16.8751	0.458595	0	0	4.70181e-035	0	1	4	4
67	17.3337	0.162539	0	0	4.70181e-035	0	1	4	4
72	17.6472	0.226395	0	0	4.70181e-035	0	1	4	4
64	18.0767	0.243809	0	0	4.70181e-035	0	1	4	4
62	18.3205	0.261225	0	0	4.70181e-035	0	1	4	4
60	18.5818	0.296055	0	0	4.70181e-035	0	1	4	4
60	19.0462	0.609524	0	0	4.70181e-035	0	1	4	4
53	20.0504	0.278639	0	0	4.70181e-035	0	1	4	4
62	22.1054	0.522449	0	0	4.70181e-035	0	1	4	4
62	22.6278	0.278639	0	0	4.70181e-035	0	1	4	4
58	23.0342	0.232199	0	0	4.70181e-035	0	1	4	4
58	23.4057	0.203175	0	0	4.70181e-035	0	1	4	4
58	23.7192	0.0580502	0	0	4.70181e-035	0	1	4	4
55	24.0385	0.772062	0	0	4.70181e-035	0	1	4	4
55	24.8105	0.0812702	0	0	4.70181e-035	0	1	4	4
58	25.0892	0.0464401	0	0	4.70181e-035	0	1	4	4
57	26.0876	0.830114	0	0	4.70181e-035	0	1	4	4
56	27.0803	0.0232201	0	0	4.70181e-035	0	1	4	4
57	27.1209	0.0290241	0	0	4.70181e-035	0	1	4	4
57	27.1964	0.133514	0	0	4.70181e-035	0	1	4	4
57	27.3299	0.0406361	0	0	4.70181e-035	0	1	4	4
57	27.3879	0.13932	0	0	4.70181e-035	0	1	4	4
55	27.5273	0.0522442	0	0	4.70181e-035	0	1	4	4
53	28.0149	0.220589	0	0	4.70181e-035	0	1	4	4
53	28.2355	0.232201	0	0	4.70181e-035	0	1	4	4
