midiPitch 	 onsetSec 	 durationSec 	 onsetBeats 	 onsetBarIndex 	 onsetBar 	 durationBeats 	 velocity  	 numerator 	 denominator 
51	0.0638549	0.0522449	0	0	2.37892e-035	0	1	4	4
50	0.1161	0.0290249	0	0	2.37892e-035	0	1	4	4
50	0.18576	0.0464399	0	0	2.37892e-035	0	1	4	4
52	0.2322	0.121905	0	0	2.37892e-035	0	1	4	4
52	0.354104	0.13932	0	0	2.37892e-035	0	1	4	4
45	0.493424	0.290249	0	0	2.37892e-035	0	1	4	4
45	0.934603	0.0638549	0	0	2.37892e-035	0	1	4	4
58	1.03329	0.156735	0	0	2.37892e-035	0	1	4	4
57	1.41642	0.0638548	0	0	2.37892e-035	0	1	4	4
57	1.57315	0.16254	0	0	2.37892e-035	0	1	4	4
55	1.73569	0.0928799	0	0	2.37892e-035	0	1	4	4
56	1.82857	0.191565	0	0	2.37892e-035	0	1	4	4
52	2.42068	0.0754647	0	0	2.37892e-035	0	1	4	4
52	2.49615	0.0986848	0	0	2.37892e-035	0	1	4	4
50	2.6819	0.0696597	0	0	2.37892e-035	0	1	4	4
51	2.82122	0.179955	0	0	2.37892e-035	0	1	4	4
52	3.15211	0.110295	0	0	2.37892e-035	0	1	4	4
48	3.73841	0.0812697	0	0	2.37892e-035	0	1	4	4
50	3.81968	0.0406351	0	0	2.37892e-035	0	1	4	4
45	3.96481	0.0232198	0	0	2.37892e-035	0	1	4	4
65	4.06349	0.24381	0	0	2.37892e-035	0	1	4	4
64	4.3073	0.110295	0	0	2.37892e-035	0	1	4	4
63	4.51048	0.133515	0	0	2.37892e-035	0	1	4	4
65	4.64399	0.388934	0	0	2.37892e-035	0	1	4	4
62	5.03293	0.19737	0	0	2.37892e-035	0	1	4	4
59	5.44508	0.238005	0	0	2.37892e-035	0	1	4	4
58	5.68308	0.10449	0	0	2.37892e-035	0	1	4	4
70	5.97914	0.145124	0	0	2.37892e-035	0	1	4	4
70	6.12426	0.290249	0	0	2.37892e-035	0	1	4	4
62	7.55809	0.16254	0	0	2.37892e-035	0	1	4	4
62	7.97605	0.179955	0	0	2.37892e-035	0	1	4	4
62	10.3387	0.261224	0	0	2.37892e-035	0	1	4	4
53	10.8379	0.0232201	0	0	2.37892e-035	0	1	4	4
53	10.8611	0.0290251	0	0	2.37892e-035	0	1	4	4
56	10.8669	0.406349	0	0	2.37892e-035	0	1	4	4
57	11.3081	0.19737	0	0	2.37892e-035	0	1	4	4
59	11.5055	0.214785	0	0	2.37892e-035	0	1	4	4
59	11.7203	0.719818	0	0	2.37892e-035	0	1	4	4
59	12.4981	0.156734	0	0	2.37892e-035	0	1	4	4
58	12.6549	0.156734	0	0	2.37892e-035	0	1	4	4
58	12.9045	0.348299	0	0	2.37892e-035	0	1	4	4
59	13.2528	0.110295	0	0	2.37892e-035	0	1	4	4
60	13.3631	0.20898	0	0	2.37892e-035	0	1	4	4
59	13.5721	0.127709	0	0	2.37892e-035	0	1	4	4
57	13.6998	0.31347	0	0	2.37892e-035	0	1	4	4
64	14.6866	0.214785	0	0	2.37892e-035	0	1	4	4
49	15.3426	0.0696602	0	0	2.37892e-035	0	1	4	4
54	15.598	0.121904	0	0	2.37892e-035	0	1	4	4
58	15.9695	0.0638552	0	0	2.37892e-035	0	1	4	4
58	16.0334	0.0870743	0	0	2.37892e-035	0	1	4	4
55	16.2307	0.354105	0	0	2.37892e-035	0	1	4	4
50	16.7764	0.255419	0	0	2.37892e-035	0	1	4	4
52	17.0725	0.696598	0	0	2.37892e-035	0	1	4	4
52	17.7691	0.203175	0	0	2.37892e-035	0	1	4	4
50	18.0071	0.0696602	0	0	2.37892e-035	0	1	4	4
52	18.0767	0.133514	0	0	2.37892e-035	0	1	4	4
53	18.2102	0.0348301	0	0	2.37892e-035	0	1	4	4
50	18.2451	0.0638542	0	0	2.37892e-035	0	1	4	4
52	18.3089	0.145124	0	0	2.37892e-035	0	1	4	4
50	18.4599	0.0406342	0	0	2.37892e-035	0	1	4	4
52	18.5005	0.156734	0	0	2.37892e-035	0	1	4	4
50	18.6921	0.214785	0	0	2.37892e-035	0	1	4	4
50	19.1158	0.284445	0	0	2.37892e-035	0	1	4	4
45	19.8298	0.150928	0	0	2.37892e-035	0	1	4	4
43	20.5439	0.0696602	0	0	2.37892e-035	0	1	4	4
45	20.7586	0.168344	0	0	2.37892e-035	0	1	4	4
46	20.9676	0.226395	0	0	2.37892e-035	0	1	4	4
47	21.194	0.261225	0	0	2.37892e-035	0	1	4	4
47	21.5191	0.371519	0	0	2.37892e-035	0	1	4	4
47	21.9371	0.15093	0	0	2.37892e-035	0	1	4	4
47	22.088	0.0406342	0	0	2.37892e-035	0	1	4	4
50	22.1576	0.12771	0	0	2.37892e-035	0	1	4	4
51	22.3318	0.18576	0	0	2.37892e-035	0	1	4	4
52	22.5582	0.238005	0	0	2.37892e-035	0	1	4	4
53	22.7962	0.0406342	0	0	2.37892e-035	0	1	4	4
52	22.8368	0.348299	0	0	2.37892e-035	0	1	4	4
51	23.3244	0.0580502	0	0	2.37892e-035	0	1	4	4
52	23.3825	0.0754642	0	0	2.37892e-035	0	1	4	4
53	23.458	0.0580502	0	0	2.37892e-035	0	1	4	4
52	23.516	0.0348301	0	0	2.37892e-035	0	1	4	4
51	23.5566	0.0580482	0	0	2.37892e-035	0	1	4	4
49	23.6553	0.0928802	0	0	2.37892e-035	0	1	4	4
52	23.8295	0.110296	0	0	2.37892e-035	0	1	4	4
50	24.0501	0.0870743	0	0	2.37892e-035	0	1	4	4
53	24.2823	0.145124	0	0	2.37892e-035	0	1	4	4
52	24.7293	0.0290241	0	0	2.37892e-035	0	1	4	4
51	24.7699	0.0870743	0	0	2.37892e-035	0	1	4	4
47	25.1704	0.156734	0	0	2.37892e-035	0	1	4	4
48	25.3852	0.0406342	0	0	2.37892e-035	0	1	4	4
47	25.4258	0.0754642	0	0	2.37892e-035	0	1	4	4
47	25.5245	0.10449	0	0	2.37892e-035	0	1	4	4
45	25.9541	0.0754662	0	0	2.37892e-035	0	1	4	4
50	26.1457	0.179955	0	0	2.37892e-035	0	1	4	4
51	26.3837	0.0348301	0	0	2.37892e-035	0	1	4	4
52	26.6043	0.191565	0	0	2.37892e-035	0	1	4	4
51	27.1499	0.029026	0	0	2.37892e-035	0	1	4	4
52	27.179	0.0290241	0	0	2.37892e-035	0	1	4	4
55	27.266	0.232199	0	0	2.37892e-035	0	1	4	4
47	27.9394	0.179955	0	0	2.37892e-035	0	1	4	4
48	28.1774	0.0406361	0	0	2.37892e-035	0	1	4	4
48	28.2239	0.191565	0	0	2.37892e-035	0	1	4	4
53	28.9437	0.13932	0	0	2.37892e-035	0	1	4	4
51	29.083	0.203175	0	0	2.37892e-035	0	1	4	4
52	29.3849	0.226395	0	0	2.37892e-035	0	1	4	4
