midiPitch 	 onsetSec 	 durationSec 	 onsetBeats 	 onsetBarIndex 	 onsetBar 	 durationBeats 	 velocity  	 numerator 	 denominator 
63	0.0406349	0.133515	0	0	0	0	1	4	4
61	0.18576	0.12771	0	0	0	0	1	4	4
62	0.313469	0.0406349	0	0	0	0	1	4	4
61	0.354104	0.0406349	0	0	0	0	1	4	4
61	0.417959	0.0696599	0	0	0	0	1	4	4
60	0.487619	0.179955	0	0	0	0	1	4	4
62	0.667574	1.06812	0	0	0	0	1	4	4
66	1.79374	0.214785	0	0	0	0	1	4	4
54	2.11302	0.0348299	0	0	0	0	1	4	4
55	2.14785	0.0232201	0	0	0	0	1	4	4
54	2.17687	0.203175	0	0	0	0	1	4	4
66	2.38005	0.0232198	0	0	0	0	1	4	4
65	2.42068	0.0986848	0	0	0	0	1	4	4
66	2.51937	0.0406349	0	0	0	0	1	4	4
57	2.73415	0.0232198	0	0	0	0	1	4	4
69	4.08671	0.133515	0	0	0	0	1	4	4
71	4.26086	0.0464401	0	0	0	0	1	4	4
66	4.37696	0.417959	0	0	0	0	1	4	4
66	5.14322	0.19737	0	0	0	0	1	4	4
66	5.34059	0.150929	0	0	0	0	1	4	4
65	5.49152	0.0348301	0	0	0	0	1	4	4
66	5.60181	0.0580502	0	0	0	0	1	4	4
66	5.69469	0.110295	0	0	0	0	1	4	4
73	5.96753	0.0232201	0	0	0	0	1	4	4
60	6.06041	0.110295	0	0	0	0	1	4	4
61	6.1707	0.179955	0	0	0	0	1	4	4
60	6.35066	0.249615	0	0	0	0	1	4	4
60	6.60027	0.0986848	0	0	0	0	1	4	4
61	6.94277	0.121905	0	0	0	0	1	4	4
63	7.11111	0.330884	0	0	0	0	1	4	4
61	7.442	0.27864	0	0	0	0	1	4	4
61	7.72063	0.10449	0	0	0	0	1	4	4
60	7.82512	1.05651	0	0	0	0	1	4	4
60	8.91646	0.0812702	0	0	0	0	1	4	4
61	10.0136	0.0232201	0	0	0	0	1	4	4
56	10.1936	0.13932	0	0	0	0	1	4	4
61	11.3139	0.0232201	0	0	0	0	1	4	4
61	11.4184	0.10449	0	0	0	0	1	4	4
57	11.6796	0.127709	0	0	0	0	1	4	4
54	12.3414	0.0232201	0	0	0	0	1	4	4
60	12.3646	0.156734	0	0	0	0	1	4	4
62	12.5446	0.0406351	0	0	0	0	1	4	4
61	12.7013	0.0464401	0	0	0	0	1	4	4
59	12.8406	0.0406351	0	0	0	0	1	4	4
59	12.8813	0.0232201	0	0	0	0	1	4	4
57	13.0206	0.0812702	0	0	0	0	1	4	4
57	13.1715	0.0696592	0	0	0	0	1	4	4
66	13.4037	0.0870743	0	0	0	0	1	4	4
63	13.5837	0.0812693	0	0	0	0	1	4	4
63	13.6998	0.0406351	0	0	0	0	1	4	4
63	13.7578	0.0812693	0	0	0	0	1	4	4
59	13.8855	0.0754652	0	0	0	0	1	4	4
68	13.9784	0.0232201	0	0	0	0	1	4	4
61	14.0771	0.0406351	0	0	0	0	1	4	4
60	14.1235	0.0348301	0	0	0	0	1	4	4
61	14.3732	0.0754652	0	0	0	0	1	4	4
61	14.5879	0.0232201	0	0	0	0	1	4	4
62	14.6286	0.0928793	0	0	0	0	1	4	4
63	14.7447	0.0870752	0	0	0	0	1	4	4
60	14.8317	0.0580492	0	0	0	0	1	4	4
60	14.9304	0.0348301	0	0	0	0	1	4	4
74	15.0233	0.0638542	0	0	0	0	1	4	4
56	15.1975	0.0812693	0	0	0	0	1	4	4
61	15.5748	0.110294	0	0	0	0	1	4	4
62	15.7431	0.27864	0	0	0	0	1	4	4
57	16.0798	0.127708	0	0	0	0	1	4	4
66	16.2772	0.17415	0	0	0	0	1	4	4
54	16.6313	0.0406342	0	0	0	0	1	4	4
72	16.6719	0.0406361	0	0	0	0	1	4	4
61	16.73	0.197371	0	0	0	0	1	4	4
59	17.2234	0.0348301	0	0	0	0	1	4	4
59	17.2582	0.0348301	0	0	0	0	1	4	4
60	17.7749	0.0290241	0	0	0	0	1	4	4
59	17.8852	0.0290241	0	0	0	0	1	4	4
54	17.9316	0.0290241	0	0	0	0	1	4	4
62	17.9839	0.0986843	0	0	0	0	1	4	4
61	18.0825	0.16254	0	0	0	0	1	4	4
65	18.3554	0.10449	0	0	0	0	1	4	4
64	18.5934	0.0232201	0	0	0	0	1	4	4
63	18.6166	0.0638542	0	0	0	0	1	4	4
61	18.6805	0.0638561	0	0	0	0	1	4	4
61	18.8546	0.0290241	0	0	0	0	1	4	4
60	18.9301	0.0232201	0	0	0	0	1	4	4
60	18.9591	0.0522442	0	0	0	0	1	4	4
60	19.0404	0.121904	0	0	0	0	1	4	4
60	19.1681	0.0754662	0	0	0	0	1	4	4
66	20.9502	0.12771	0	0	0	0	1	4	4
61	21.1302	0.0232201	0	0	0	0	1	4	4
60	21.1592	0.0580502	0	0	0	0	1	4	4
61	21.2579	0.12771	0	0	0	0	1	4	4
66	21.4378	0.0522461	0	0	0	0	1	4	4
63	21.5829	0.0348301	0	0	0	0	1	4	4
59	21.6468	0.0290241	0	0	0	0	1	4	4
65	22.0706	0.0928802	0	0	0	0	1	4	4
63	22.3376	0.249613	0	0	0	0	1	4	4
63	22.6569	0.0580502	0	0	0	0	1	4	4
63	22.7207	0.0406342	0	0	0	0	1	4	4
64	22.8252	0.0232201	0	0	0	0	1	4	4
61	22.8484	0.0406361	0	0	0	0	1	4	4
60	22.9297	0.0638542	0	0	0	0	1	4	4
63	23.3244	0.0464401	0	0	0	0	1	4	4
62	23.3709	0.179955	0	0	0	0	1	4	4
63	23.5508	0.0580502	0	0	0	0	1	4	4
63	23.7308	0.0522442	0	0	0	0	1	4	4
63	23.783	0.0406361	0	0	0	0	1	4	4
60	23.9224	0.029026	0	0	0	0	1	4	4
61	24.1952	0.0696602	0	0	0	0	1	4	4
65	24.4971	0.0232201	0	0	0	0	1	4	4
61	24.5261	0.220589	0	0	0	0	1	4	4
62	24.7467	0.0464401	0	0	0	0	1	4	4
66	25.095	0.10449	0	0	0	0	1	4	4
66	25.3562	0.10449	0	0	0	0	1	4	4
62	25.542	0.0696602	0	0	0	0	1	4	4
61	25.6174	0.0986843	0	0	0	0	1	4	4
62	25.7683	0.0348301	0	0	0	0	1	4	4
61	25.9831	0.0232201	0	0	0	0	1	4	4
66	26.2327	0.168344	0	0	0	0	1	4	4
66	26.4011	0.127708	0	0	0	0	1	4	4
66	26.5288	0.0522461	0	0	0	0	1	4	4
66	26.581	0.0232201	0	0	0	0	1	4	4
66	26.6449	0.0580502	0	0	0	0	1	4	4
66	26.7842	0.0290241	0	0	0	0	1	4	4
61	26.8132	0.029026	0	0	0	0	1	4	4
61	26.8481	0.0232201	0	0	0	0	1	4	4
66	26.8887	0.0580502	0	0	0	0	1	4	4
60	26.999	0.0290241	0	0	0	0	1	4	4
61	27.028	0.0290241	0	0	0	0	1	4	4
64	27.1441	0.0522442	0	0	0	0	1	4	4
62	27.1964	0.0232201	0	0	0	0	1	4	4
64	27.3067	0.0638561	0	0	0	0	1	4	4
64	27.3995	0.0812702	0	0	0	0	1	4	4
61	27.504	0.0522442	0	0	0	0	1	4	4
61	27.6492	0.0348301	0	0	0	0	1	4	4
61	27.6956	0.0232201	0	0	0	0	1	4	4
61	27.7188	0.185759	0	0	0	0	1	4	4
61	27.9742	0.1161	0	0	0	0	1	4	4
61	28.1774	0.0696602	0	0	0	0	1	4	4
