midiPitch 	 onsetSec 	 durationSec 	 onsetBeats 	 onsetBarIndex 	 onsetBar 	 durationBeats 	 velocity  	 numerator 	 denominator 
58	0.330884	0.0638549	0	0	0	0	1	4	4
59	0.516644	0.0580499	0	0	0	0	1	4	4
56	0.603719	0.029025	0	0	0	0	1	4	4
60	0.731429	0.0348299	0	0	0	0	1	4	4
60	0.911383	0.0812699	0	0	0	0	1	4	4
58	1.07973	0.0232199	0	0	0	0	1	4	4
59	1.12617	0.029025	0	0	0	0	1	4	4
59	1.15519	0.0870749	0	0	0	0	1	4	4
60	1.48027	0.040635	0	0	0	0	1	4	4
61	1.69506	0.0812699	0	0	0	0	1	4	4
60	1.77633	0.0754648	0	0	0	0	1	4	4
60	1.90404	0.0638548	0	0	0	0	1	4	4
62	2.0956	0.16254	0	0	0	0	1	4	4
62	2.26975	0.0870748	0	0	0	0	1	4	4
64	2.49034	0.0406351	0	0	0	0	1	4	4
62	2.68771	0.0696597	0	0	0	0	1	4	4
63	2.87927	0.0232198	0	0	0	0	1	4	4
62	2.9083	0.0348301	0	0	0	0	1	4	4
62	3.47719	0.0580499	0	0	0	0	1	4	4
64	3.66295	0.0580497	0	0	0	0	1	4	4
58	3.98222	0.0522451	0	0	0	0	1	4	4
58	4.05188	0.0290251	0	0	0	0	1	4	4
63	4.10993	0.0870748	0	0	0	0	1	4	4
57	4.28408	0.0232201	0	0	0	0	1	4	4
63	4.4234	0.0406346	0	0	0	0	1	4	4
64	4.49306	0.0696597	0	0	0	0	1	4	4
64	4.56272	0.0464401	0	0	0	0	1	4	4
63	4.62658	0.0348301	0	0	0	0	1	4	4
63	4.84717	0.0580497	0	0	0	0	1	4	4
68	5.32317	0.15093	0	0	0	0	1	4	4
68	5.4741	0.0406346	0	0	0	0	1	4	4
57	6.11846	0.0232201	0	0	0	0	1	4	4
58	6.18231	0.0348296	0	0	0	0	1	4	4
58	6.29841	0.0406346	0	0	0	0	1	4	4
58	6.33905	0.0522451	0	0	0	0	1	4	4
58	6.46095	0.0290251	0	0	0	0	1	4	4
65	6.57125	0.110295	0	0	0	0	1	4	4
62	6.68154	0.0928798	0	0	0	0	1	4	4
63	6.82667	0.16254	0	0	0	0	1	4	4
59	7.16916	0.10449	0	0	0	0	1	4	4
58	7.29687	0.0696597	0	0	0	0	1	4	4
63	7.36653	0.0522451	0	0	0	0	1	4	4
64	7.69741	0.0464396	0	0	0	0	1	4	4
63	7.74385	0.0232201	0	0	0	0	1	4	4
63	7.83093	0.0464396	0	0	0	0	1	4	4
63	8.01669	0.0406351	0	0	0	0	1	4	4
69	8.50431	0.0812693	0	0	0	0	1	4	4
69	8.58558	0.0232201	0	0	0	0	1	4	4
68	8.6146	0.110294	0	0	0	0	1	4	4
68	8.89905	0.0928793	0	0	0	0	1	4	4
56	8.99193	0.0580502	0	0	0	0	1	4	4
57	9.1893	0.0812702	0	0	0	0	1	4	4
55	9.33442	0.0290251	0	0	0	0	1	4	4
55	9.36925	0.0232201	0	0	0	0	1	4	4
58	9.56662	0.0464401	0	0	0	0	1	4	4
58	9.61306	0.0232201	0	0	0	0	1	4	4
58	9.63628	0.0464401	0	0	0	0	1	4	4
58	9.68272	0.0290251	0	0	0	0	1	4	4
58	9.78721	0.0696602	0	0	0	0	1	4	4
62	9.90331	0.0290251	0	0	0	0	1	4	4
62	9.95555	0.0232201	0	0	0	0	1	4	4
63	10.0252	0.0696602	0	0	0	0	1	4	4
63	10.1007	0.0348301	0	0	0	0	1	4	4
63	10.1355	0.104489	0	0	0	0	1	4	4
63	10.5012	0.0638542	0	0	0	0	1	4	4
63	10.8263	0.20898	0	0	0	0	1	4	4
69	11.8248	0.0870752	0	0	0	0	1	4	4
60	11.9815	0.0696592	0	0	0	0	1	4	4
66	12.7303	0.133514	0	0	0	0	1	4	4
65	12.8639	0.0290251	0	0	0	0	1	4	4
58	12.9161	0.0406351	0	0	0	0	1	4	4
65	12.9683	0.0812693	0	0	0	0	1	4	4
58	13.0496	0.0754652	0	0	0	0	1	4	4
65	13.1251	0.0928802	0	0	0	0	1	4	4
63	13.5953	0.0522442	0	0	0	0	1	4	4
70	14.0597	0.0638552	0	0	0	0	1	4	4
68	14.2977	0.0522451	0	0	0	0	1	4	4
68	14.3499	0.0232201	0	0	0	0	1	4	4
68	14.3732	0.0290251	0	0	0	0	1	4	4
56	14.4776	0.0870752	0	0	0	0	1	4	4
57	14.6808	0.0232201	0	0	0	0	1	4	4
56	14.7215	0.0580502	0	0	0	0	1	4	4
57	14.8608	0.121904	0	0	0	0	1	4	4
57	14.9827	0.0232201	0	0	0	0	1	4	4
58	15.122	0.150929	0	0	0	0	1	4	4
58	15.2729	0.197371	0	0	0	0	1	4	4
58	15.4761	0.0406351	0	0	0	0	1	4	4
58	15.5225	0.0638552	0	0	0	0	1	4	4
63	16.0508	0.029026	0	0	0	0	1	4	4
56	16.2482	0.0290241	0	0	0	0	1	4	4
64	16.4339	0.0406361	0	0	0	0	1	4	4
62	16.4804	0.0348301	0	0	0	0	1	4	4
62	16.5152	0.0232201	0	0	0	0	1	4	4
63	16.5849	0.0232201	0	0	0	0	1	4	4
62	16.6081	0.0232201	0	0	0	0	1	4	4
63	16.6371	0.0870762	0	0	0	0	1	4	4
63	16.7416	0.0812702	0	0	0	0	1	4	4
63	16.8229	0.0812702	0	0	0	0	1	4	4
63	17.0725	0.0348301	0	0	0	0	1	4	4
63	17.1189	0.127708	0	0	0	0	1	4	4
64	17.264	0.0522442	0	0	0	0	1	4	4
63	17.3163	0.110294	0	0	0	0	1	4	4
58	17.9084	0.10449	0	0	0	0	1	4	4
61	18.0825	0.0522461	0	0	0	0	1	4	4
60	18.2625	0.121906	0	0	0	0	1	4	4
60	18.4308	0.110294	0	0	0	0	1	4	4
60	18.5585	0.0812702	0	0	0	0	1	4	4
58	18.7501	0.0522461	0	0	0	0	1	4	4
59	19.4003	0.0464401	0	0	0	0	1	4	4
56	19.5686	0.0580502	0	0	0	0	1	4	4
56	19.6499	0.0232201	0	0	0	0	1	4	4
57	19.8124	0.0696602	0	0	0	0	1	4	4
57	19.8821	0.0522442	0	0	0	0	1	4	4
57	20.4278	0.0348301	0	0	0	0	1	4	4
56	20.6483	0.0812702	0	0	0	0	1	4	4
57	20.8051	0.0580502	0	0	0	0	1	4	4
55	20.8631	0.0232201	0	0	0	0	1	4	4
52	20.9096	0.0870743	0	0	0	0	1	4	4
54	21.1998	0.0406361	0	0	0	0	1	4	4
53	21.2753	0.127708	0	0	0	0	1	4	4
58	21.85	0.145124	0	0	0	0	1	4	4
57	22.1983	0.0406342	0	0	0	0	1	4	4
58	22.326	0.0406342	0	0	0	0	1	4	4
60	22.4247	0.0232201	0	0	0	0	1	4	4
59	22.4769	0.029026	0	0	0	0	1	4	4
60	22.5117	0.0754642	0	0	0	0	1	4	4
61	22.5872	0.0406361	0	0	0	0	1	4	4
61	22.6336	0.0928802	0	0	0	0	1	4	4
63	23.0284	0.121906	0	0	0	0	1	4	4
63	23.1503	0.0406342	0	0	0	0	1	4	4
63	23.3186	0.255419	0	0	0	0	1	4	4
63	23.6089	0.121904	0	0	0	0	1	4	4
70	24.2532	0.0754642	0	0	0	0	1	4	4
61	24.3868	0.0290241	0	0	0	0	1	4	4
58	24.4216	0.156734	0	0	0	0	1	4	4
58	24.6538	0.0986862	0	0	0	0	1	4	4
60	24.7757	0.168344	0	0	0	0	1	4	4
60	25.0137	0.0580502	0	0	0	0	1	4	4
58	25.1937	0.0580482	0	0	0	0	1	4	4
57	25.2517	0.0232201	0	0	0	0	1	4	4
58	25.4375	0.13932	0	0	0	0	1	4	4
58	25.78	0.0754642	0	0	0	0	1	4	4
57	26.3488	0.0522461	0	0	0	0	1	4	4
56	26.5694	0.116098	0	0	0	0	1	4	4
56	26.8365	0.0870743	0	0	0	0	1	4	4
56	27.3473	0.365713	0	0	0	0	1	4	4
58	27.713	0.220591	0	0	0	0	1	4	4
