midiPitch 	 onsetSec 	 durationSec 	 onsetBeats 	 onsetBarIndex 	 onsetBar 	 durationBeats 	 velocity  	 numerator 	 denominator 
67	0.0754649	0.0754649	0	0	0	0	1	4	4
67	0.15093	0.02322	0	0	0	0	1	4	4
62	0.17415	0.0464399	0	0	0	0	1	4	4
63	0.22059	0.0290249	0	0	0	0	1	4	4
63	0.272834	0.02322	0	0	0	0	1	4	4
63	0.325079	0.0812699	0	0	0	0	1	4	4
62	0.423764	0.0348299	0	0	0	0	1	4	4
62	0.464399	0.0464399	0	0	0	0	1	4	4
62	0.510839	0.0406349	0	0	0	0	1	4	4
63	0.597914	0.03483	0	0	0	0	1	4	4
62	0.684989	0.0232199	0	0	0	0	1	4	4
63	0.719819	0.145125	0	0	0	0	1	4	4
62	0.975238	0.0406349	0	0	0	0	1	4	4
61	1.12036	0.539864	0	0	0	0	1	4	4
58	1.8634	0.0696599	0	0	0	0	1	4	4
58	1.93306	0.226395	0	0	0	0	1	4	4
63	2.18848	0.0232201	0	0	0	0	1	4	4
56	2.2117	0.110295	0	0	0	0	1	4	4
57	2.36263	0.0522449	0	0	0	0	1	4	4
67	2.80381	0.075465	0	0	0	0	1	4	4
55	2.94893	0.0290251	0	0	0	0	1	4	4
62	3.00698	0.0232201	0	0	0	0	1	4	4
58	3.08245	0.0232198	0	0	0	0	1	4	4
67	3.21596	0.133515	0	0	0	0	1	4	4
67	3.34948	0.0406349	0	0	0	0	1	4	4
67	3.42494	0.0232201	0	0	0	0	1	4	4
70	3.57007	0.0406351	0	0	0	0	1	4	4
70	3.6107	0.0522449	0	0	0	0	1	4	4
65	3.91256	0.330884	0	0	0	0	1	4	4
61	4.59175	0.0406351	0	0	0	0	1	4	4
61	5.42186	0.133515	0	0	0	0	1	4	4
64	5.55537	0.0348296	0	0	0	0	1	4	4
64	5.59601	0.0232201	0	0	0	0	1	4	4
63	5.71211	0.13932	0	0	0	0	1	4	4
63	6.11265	0.0232201	0	0	0	0	1	4	4
62	6.13587	0.0406351	0	0	0	0	1	4	4
64	6.21134	0.0870752	0	0	0	0	1	4	4
61	6.64091	0.2322	0	0	0	0	1	4	4
66	7.26785	0.145125	0	0	0	0	1	4	4
58	7.41878	0.10449	0	0	0	0	1	4	4
66	7.67419	0.0696597	0	0	0	0	1	4	4
54	7.76707	0.16254	0	0	0	0	1	4	4
62	8.08054	0.0290241	0	0	0	0	1	4	4
61	8.10957	0.0638552	0	0	0	0	1	4	4
61	8.17342	0.0406351	0	0	0	0	1	4	4
63	8.24308	0.17415	0	0	0	0	1	4	4
63	8.54494	0.168344	0	0	0	0	1	4	4
63	8.75973	0.0348301	0	0	0	0	1	4	4
63	8.85261	0.0348301	0	0	0	0	1	4	4
64	9.20091	0.0232201	0	0	0	0	1	4	4
65	9.22413	0.110294	0	0	0	0	1	4	4
65	9.36345	0.0638552	0	0	0	0	1	4	4
65	9.50277	0.0754642	0	0	0	0	1	4	4
62	9.57823	0.0290251	0	0	0	0	1	4	4
61	9.63628	0.0348301	0	0	0	0	1	4	4
61	9.8917	0.0522442	0	0	0	0	1	4	4
66	10.5941	0.0232201	0	0	0	0	1	4	4
73	10.5999	0.0348301	0	0	0	0	1	4	4
73	10.6986	0.156734	0	0	0	0	1	4	4
75	10.8902	0.296054	0	0	0	0	1	4	4
76	11.3836	0.0232201	0	0	0	0	1	4	4
75	11.43	0.10449	0	0	0	0	1	4	4
76	11.5693	0.110294	0	0	0	0	1	4	4
75	11.7029	0.0580502	0	0	0	0	1	4	4
73	11.8132	0.0464401	0	0	0	0	1	4	4
74	11.8828	0.0232201	0	0	0	0	1	4	4
75	12.0279	0.0638552	0	0	0	0	1	4	4
70	12.1556	0.104489	0	0	0	0	1	4	4
73	12.295	0.0348301	0	0	0	0	1	4	4
73	12.3356	0.110294	0	0	0	0	1	4	4
68	12.4459	0.0290251	0	0	0	0	1	4	4
68	12.4807	0.0928802	0	0	0	0	1	4	4
70	12.6084	0.10449	0	0	0	0	1	4	4
63	13.0206	0.0232201	0	0	0	0	1	4	4
64	13.1077	0.0290251	0	0	0	0	1	4	4
63	13.1367	0.0232201	0	0	0	0	1	4	4
63	13.218	0.179955	0	0	0	0	1	4	4
66	14.2222	0.0290241	0	0	0	0	1	4	4
67	14.3035	0.0290251	0	0	0	0	1	4	4
61	14.4022	0.0348301	0	0	0	0	1	4	4
66	15.2729	0.0870752	0	0	0	0	1	4	4
66	15.7431	0.133515	0	0	0	0	1	4	4
66	16.2482	0.0870743	0	0	0	0	1	4	4
63	16.7532	0.029026	0	0	0	0	1	4	4
66	16.8461	0.0928802	0	0	0	0	1	4	4
60	17.0667	0.0348301	0	0	0	0	1	4	4
66	17.2524	0.0696602	0	0	0	0	1	4	4
66	17.4846	0.0638561	0	0	0	0	1	4	4
66	17.7807	0.0696602	0	0	0	0	1	4	4
63	17.8503	0.0464401	0	0	0	0	1	4	4
66	17.8968	0.10449	0	0	0	0	1	4	4
63	18.3205	0.0638561	0	0	0	0	1	4	4
66	18.4483	0.0290241	0	0	0	0	1	4	4
59	18.4889	0.18576	0	0	0	0	1	4	4
63	18.6746	0.0406342	0	0	0	0	1	4	4
60	18.9068	0.0754662	0	0	0	0	1	4	4
58	19.0171	0.116098	0	0	0	0	1	4	4
72	19.3422	0.0522442	0	0	0	0	1	4	4
57	19.4293	0.0696602	0	0	0	0	1	4	4
58	19.5396	0.0348301	0	0	0	0	1	4	4
61	19.5744	0.0348301	0	0	0	0	1	4	4
57	19.6267	0.0522442	0	0	0	0	1	4	4
51	19.8995	0.0638561	0	0	0	0	1	4	4
54	20.0737	0.0870743	0	0	0	0	1	4	4
57	20.1607	0.0348301	0	0	0	0	1	4	4
56	20.2826	0.0522442	0	0	0	0	1	4	4
54	20.4858	0.0232182	0	0	0	0	1	4	4
66	20.6135	0.0522461	0	0	0	0	1	4	4
57	20.6658	0.0232201	0	0	0	0	1	4	4
61	20.689	0.0406342	0	0	0	0	1	4	4
61	20.7354	0.0406361	0	0	0	0	1	4	4
54	20.7993	0.0348301	0	0	0	0	1	4	4
64	20.8341	0.0522442	0	0	0	0	1	4	4
62	21.3624	0.0348301	0	0	0	0	1	4	4
63	21.4436	0.0232201	0	0	0	0	1	4	4
61	21.5888	0.0638542	0	0	0	0	1	4	4
57	21.9777	0.0696602	0	0	0	0	1	4	4
66	22.0648	0.0522442	0	0	0	0	1	4	4
62	22.1344	0.0290241	0	0	0	0	1	4	4
66	22.2157	0.0812702	0	0	0	0	1	4	4
61	22.297	0.110294	0	0	0	0	1	4	4
66	22.5176	0.0348282	0	0	0	0	1	4	4
61	22.5988	0.0522461	0	0	0	0	1	4	4
66	22.7498	0.0638542	0	0	0	0	1	4	4
61	22.9529	0.0406342	0	0	0	0	1	4	4
66	23.069	0.0812702	0	0	0	0	1	4	4
66	23.1619	0.0232182	0	0	0	0	1	4	4
66	23.1851	0.10449	0	0	0	0	1	4	4
66	23.5044	0.10449	0	0	0	0	1	4	4
66	23.6553	0.174149	0	0	0	0	1	4	4
66	23.9804	0.12771	0	0	0	0	1	4	4
65	24.1081	0.121904	0	0	0	0	1	4	4
63	24.4506	0.10449	0	0	0	0	1	4	4
66	24.5551	0.0928802	0	0	0	0	1	4	4
65	24.648	0.121904	0	0	0	0	1	4	4
63	25.1414	0.278639	0	0	0	0	1	4	4
66	25.7974	0.10449	0	0	0	0	1	4	4
63	25.9889	0.208981	0	0	0	0	1	4	4
66	27.504	0.1161	0	0	0	0	1	4	4
66	27.8233	0.116098	0	0	0	0	1	4	4
65	28.1368	0.0232201	0	0	0	0	1	4	4
65	28.1658	0.029026	0	0	0	0	1	4	4
61	28.2935	0.0754642	0	0	0	0	1	4	4
59	28.4444	0.127708	0	0	0	0	1	4	4
57	28.816	0.0638542	0	0	0	0	1	4	4
60	28.9495	0.1161	0	0	0	0	1	4	4
