midiPitch 	 onsetSec 	 durationSec 	 onsetBeats 	 onsetBarIndex 	 onsetBar 	 durationBeats 	 velocity  	 numerator 	 denominator 
67	0.19737	0.290249	0	0	2.32257e-035	0	1	4	4
67	0.725624	0.0406349	0	0	2.32257e-035	0	1	4	4
67	0.801088	0.278639	0	0	2.32257e-035	0	1	4	4
67	1.21905	0.0232201	0	0	2.32257e-035	0	1	4	4
67	1.29451	0.075465	0	0	2.32257e-035	0	1	4	4
66	1.36998	0.0638548	0	0	2.32257e-035	0	1	4	4
66	1.69506	0.029025	0	0	2.32257e-035	0	1	4	4
67	1.7415	0.0754648	0	0	2.32257e-035	0	1	4	4
67	1.81696	0.238005	0	0	2.32257e-035	0	1	4	4
67	2.21751	0.0580499	0	0	2.32257e-035	0	1	4	4
67	2.27556	1.5151	0	0	2.32257e-035	0	1	4	4
55	4.17959	0.0348301	0	0	2.32257e-035	0	1	4	4
55	4.27828	0.284444	0	0	2.32257e-035	0	1	4	4
55	4.56272	0.133515	0	0	2.32257e-035	0	1	4	4
55	4.69624	0.0290251	0	0	2.32257e-035	0	1	4	4
55	4.72526	0.0522447	0	0	2.32257e-035	0	1	4	4
55	4.74848	0.10449	0	0	2.32257e-035	0	1	4	4
55	4.85297	0.0928798	0	0	2.32257e-035	0	1	4	4
55	4.96907	0.406349	0	0	2.32257e-035	0	1	4	4
55	5.42186	0.0986848	0	0	2.32257e-035	0	1	4	4
55	5.52054	0.0638552	0	0	2.32257e-035	0	1	4	4
55	5.5844	0.0464396	0	0	2.32257e-035	0	1	4	4
55	5.63084	0.0232201	0	0	2.32257e-035	0	1	4	4
55	5.8224	0.0406351	0	0	2.32257e-035	0	1	4	4
56	5.88626	0.0290246	0	0	2.32257e-035	0	1	4	4
55	5.92689	0.0348301	0	0	2.32257e-035	0	1	4	4
55	6.13587	0.0522451	0	0	2.32257e-035	0	1	4	4
55	6.29261	0.127709	0	0	2.32257e-035	0	1	4	4
55	6.44934	0.203175	0	0	2.32257e-035	0	1	4	4
55	6.72798	0.0696602	0	0	2.32257e-035	0	1	4	4
55	6.79764	0.1161	0	0	2.32257e-035	0	1	4	4
55	7.04726	0.19737	0	0	2.32257e-035	0	1	4	4
55	7.24463	0.0464401	0	0	2.32257e-035	0	1	4	4
55	7.29107	0.0464396	0	0	2.32257e-035	0	1	4	4
55	7.61034	0.0232201	0	0	2.32257e-035	0	1	4	4
62	7.80771	0.0522447	0	0	2.32257e-035	0	1	4	4
62	7.87156	0.0290251	0	0	2.32257e-035	0	1	4	4
57	8.01669	0.0580502	0	0	2.32257e-035	0	1	4	4
50	8.16762	0.110295	0	0	2.32257e-035	0	1	4	4
62	8.27791	0.139319	0	0	2.32257e-035	0	1	4	4
62	8.45206	0.0290251	0	0	2.32257e-035	0	1	4	4
62	8.55075	0.0290251	0	0	2.32257e-035	0	1	4	4
62	8.59719	0.319274	0	0	2.32257e-035	0	1	4	4
62	8.91646	0.0406351	0	0	2.32257e-035	0	1	4	4
62	9.08481	0.133514	0	0	2.32257e-035	0	1	4	4
62	9.21832	0.0348301	0	0	2.32257e-035	0	1	4	4
62	9.27057	0.127709	0	0	2.32257e-035	0	1	4	4
62	9.58404	0.0812702	0	0	2.32257e-035	0	1	4	4
63	9.66531	0.0290251	0	0	2.32257e-035	0	1	4	4
63	9.70014	0.17415	0	0	2.32257e-035	0	1	4	4
55	10.5302	0.0580492	0	0	2.32257e-035	0	1	4	4
55	10.5883	0.0290251	0	0	2.32257e-035	0	1	4	4
65	10.6522	0.0406351	0	0	2.32257e-035	0	1	4	4
65	10.8553	0.0232201	0	0	2.32257e-035	0	1	4	4
65	10.9888	0.0522451	0	0	2.32257e-035	0	1	4	4
65	11.0875	0.0232201	0	0	2.32257e-035	0	1	4	4
65	11.3894	0.10449	0	0	2.32257e-035	0	1	4	4
65	11.6158	0.0232201	0	0	2.32257e-035	0	1	4	4
64	11.639	0.0232201	0	0	2.32257e-035	0	1	4	4
65	11.7029	0.0638552	0	0	2.32257e-035	0	1	4	4
65	11.7899	0.377325	0	0	2.32257e-035	0	1	4	4
65	12.1789	0.0638542	0	0	2.32257e-035	0	1	4	4
65	12.2427	0.0406351	0	0	2.32257e-035	0	1	4	4
55	12.6026	0.0928793	0	0	2.32257e-035	0	1	4	4
55	12.6955	0.493424	0	0	2.32257e-035	0	1	4	4
55	13.4153	0.296054	0	0	2.32257e-035	0	1	4	4
55	13.7114	0.516644	0	0	2.32257e-035	0	1	4	4
55	14.228	0.0232191	0	0	2.32257e-035	0	1	4	4
62	14.466	0.0986853	0	0	2.32257e-035	0	1	4	4
55	14.5705	0.139319	0	0	2.32257e-035	0	1	4	4
62	14.7098	0.0812702	0	0	2.32257e-035	0	1	4	4
62	14.8666	0.16254	0	0	2.32257e-035	0	1	4	4
55	15.1626	0.127709	0	0	2.32257e-035	0	1	4	4
55	15.4645	0.0986843	0	0	2.32257e-035	0	1	4	4
62	15.5632	0.0580502	0	0	2.32257e-035	0	1	4	4
62	15.6212	0.0232201	0	0	2.32257e-035	0	1	4	4
66	15.7838	0.0348301	0	0	2.32257e-035	0	1	4	4
57	15.8186	0.0406351	0	0	2.32257e-035	0	1	4	4
63	15.9289	0.0696602	0	0	2.32257e-035	0	1	4	4
62	16.0914	0.0232201	0	0	2.32257e-035	0	1	4	4
57	16.2888	0.0348301	0	0	2.32257e-035	0	1	4	4
64	16.3352	0.0464401	0	0	2.32257e-035	0	1	4	4
63	16.3875	0.0580482	0	0	2.32257e-035	0	1	4	4
62	16.5094	0.0696602	0	0	2.32257e-035	0	1	4	4
62	16.8054	0.0464382	0	0	2.32257e-035	0	1	4	4
63	16.8577	0.0232201	0	0	2.32257e-035	0	1	4	4
62	17.1189	0.0464401	0	0	2.32257e-035	0	1	4	4
62	17.1654	0.0406342	0	0	2.32257e-035	0	1	4	4
62	17.2931	0.0638561	0	0	2.32257e-035	0	1	4	4
63	17.3569	0.0348301	0	0	2.32257e-035	0	1	4	4
62	17.3917	0.0522442	0	0	2.32257e-035	0	1	4	4
62	17.4904	0.0580502	0	0	2.32257e-035	0	1	4	4
63	17.6239	0.0754642	0	0	2.32257e-035	0	1	4	4
62	17.92	0.0232201	0	0	2.32257e-035	0	1	4	4
61	17.9722	0.0232201	0	0	2.32257e-035	0	1	4	4
61	18.0013	0.0348301	0	0	2.32257e-035	0	1	4	4
63	18.0651	0.12771	0	0	2.32257e-035	0	1	4	4
65	18.3844	0.0348301	0	0	2.32257e-035	0	1	4	4
64	18.4483	0.0870743	0	0	2.32257e-035	0	1	4	4
65	18.5411	0.0928802	0	0	2.32257e-035	0	1	4	4
64	18.634	0.0870743	0	0	2.32257e-035	0	1	4	4
63	18.7385	0.0464401	0	0	2.32257e-035	0	1	4	4
65	18.7907	0.116098	0	0	2.32257e-035	0	1	4	4
63	19.319	0.0232201	0	0	2.32257e-035	0	1	4	4
61	19.7254	0.0406342	0	0	2.32257e-035	0	1	4	4
63	19.9459	0.0522461	0	0	2.32257e-035	0	1	4	4
64	19.9982	0.0290241	0	0	2.32257e-035	0	1	4	4
64	20.0272	0.12771	0	0	2.32257e-035	0	1	4	4
64	20.48	0.0464401	0	0	2.32257e-035	0	1	4	4
65	20.5264	0.0348301	0	0	2.32257e-035	0	1	4	4
65	20.5613	0.0290241	0	0	2.32257e-035	0	1	4	4
66	20.8631	0.029026	0	0	2.32257e-035	0	1	4	4
65	20.985	0.029026	0	0	2.32257e-035	0	1	4	4
65	21.0199	0.029026	0	0	2.32257e-035	0	1	4	4
66	21.1592	0.0406342	0	0	2.32257e-035	0	1	4	4
65	21.223	0.0232201	0	0	2.32257e-035	0	1	4	4
62	21.4843	0.0406342	0	0	2.32257e-035	0	1	4	4
55	21.6932	0.162539	0	0	2.32257e-035	0	1	4	4
55	21.8558	0.0464401	0	0	2.32257e-035	0	1	4	4
55	21.9022	0.0232201	0	0	2.32257e-035	0	1	4	4
55	21.9254	0.0290241	0	0	2.32257e-035	0	1	4	4
55	22.0996	0.0928783	0	0	2.32257e-035	0	1	4	4
55	22.1925	0.133516	0	0	2.32257e-035	0	1	4	4
62	22.4943	0.0754642	0	0	2.32257e-035	0	1	4	4
56	22.5872	0.0232201	0	0	2.32257e-035	0	1	4	4
55	22.7323	0.104488	0	0	2.32257e-035	0	1	4	4
55	22.8368	0.0522461	0	0	2.32257e-035	0	1	4	4
55	22.8891	0.0348301	0	0	2.32257e-035	0	1	4	4
55	22.9297	0.197371	0	0	2.32257e-035	0	1	4	4
55	23.1271	0.127708	0	0	2.32257e-035	0	1	4	4
55	23.2548	0.0232201	0	0	2.32257e-035	0	1	4	4
55	23.3128	0.0580502	0	0	2.32257e-035	0	1	4	4
55	23.4986	0.0348301	0	0	2.32257e-035	0	1	4	4
55	23.8527	0.0638561	0	0	2.32257e-035	0	1	4	4
57	24.1488	0.0232201	0	0	2.32257e-035	0	1	4	4
55	24.2881	0.0522442	0	0	2.32257e-035	0	1	4	4
57	24.7931	0.0348301	0	0	2.32257e-035	0	1	4	4
50	24.9034	0.0754662	0	0	2.32257e-035	0	1	4	4
62	25.0195	0.0232201	0	0	2.32257e-035	0	1	4	4
56	25.095	0.0348301	0	0	2.32257e-035	0	1	4	4
67	25.2981	0.0348301	0	0	2.32257e-035	0	1	4	4
68	25.3562	0.121904	0	0	2.32257e-035	0	1	4	4
67	25.7974	0.18576	0	0	2.32257e-035	0	1	4	4
68	26.1805	0.0696602	0	0	2.32257e-035	0	1	4	4
68	26.3663	0.0580502	0	0	2.32257e-035	0	1	4	4
68	26.7088	0.029026	0	0	2.32257e-035	0	1	4	4
68	26.7436	0.55728	0	0	2.32257e-035	0	1	4	4
67	27.3241	0.150928	0	0	2.32257e-035	0	1	4	4
67	27.5215	0.0812702	0	0	2.32257e-035	0	1	4	4
67	27.6027	0.203175	0	0	2.32257e-035	0	1	4	4
67	27.8059	0.208981	0	0	2.32257e-035	0	1	4	4
66	28.0903	0.0464401	0	0	2.32257e-035	0	1	4	4
65	28.1368	0.0290241	0	0	2.32257e-035	0	1	4	4
67	28.4561	0.104488	0	0	2.32257e-035	0	1	4	4
