midiPitch 	 onsetSec 	 durationSec 	 onsetBeats 	 onsetBarIndex 	 onsetBar 	 durationBeats 	 velocity  	 numerator 	 denominator 
56	0.179955	0.0290249	0	0	0	0	1	4	4
55	0.214785	0.0406349	0	0	0	0	1	4	4
57	0.301859	0.0290249	0	0	0	0	1	4	4
58	0.336689	0.261224	0	0	0	0	1	4	4
57	0.597914	0.441179	0	0	0	0	1	4	4
58	1.03909	0.0812699	0	0	0	0	1	4	4
60	1.13778	0.145125	0	0	0	0	1	4	4
61	1.29451	0.22059	0	0	0	0	1	4	4
55	1.5151	0.133515	0	0	0	0	1	4	4
59	1.66023	0.029025	0	0	0	0	1	4	4
59	1.72408	0.0406349	0	0	0	0	1	4	4
57	1.81696	0.267029	0	0	0	0	1	4	4
61	2.2059	0.0638549	0	0	0	0	1	4	4
55	2.39166	0.10449	0	0	0	0	1	4	4
55	2.49615	0.0290251	0	0	0	0	1	4	4
56	2.57741	0.0522449	0	0	0	0	1	4	4
62	2.75737	0.255419	0	0	0	0	1	4	4
62	3.16372	0.650159	0	0	0	0	1	4	4
61	4.09832	0.214785	0	0	0	0	1	4	4
62	4.35955	0.284445	0	0	0	0	1	4	4
52	4.86458	0.522449	0	0	0	0	1	4	4
49	5.38703	0.0348301	0	0	0	0	1	4	4
50	5.46249	0.1161	0	0	0	0	1	4	4
56	5.64825	0.145124	0	0	0	0	1	4	4
55	5.79338	0.179955	0	0	0	0	1	4	4
59	6.71637	0.0522451	0	0	0	0	1	4	4
59	6.76862	0.0580497	0	0	0	0	1	4	4
67	7.38395	0.0580497	0	0	0	0	1	4	4
65	7.4478	0.0986848	0	0	0	0	1	4	4
55	7.54648	0.12771	0	0	0	0	1	4	4
55	7.67419	0.16254	0	0	0	0	1	4	4
59	8.47528	0.162539	0	0	0	0	1	4	4
59	8.63782	0.150929	0	0	0	0	1	4	4
59	8.78875	0.0870752	0	0	0	0	1	4	4
52	9.02676	0.191565	0	0	0	0	1	4	4
52	9.21832	0.0290251	0	0	0	0	1	4	4
62	9.50857	0.313469	0	0	0	0	1	4	4
57	9.82204	0.179955	0	0	0	0	1	4	4
62	10.0252	0.18576	0	0	0	0	1	4	4
62	10.211	0.156734	0	0	0	0	1	4	4
62	10.3677	0.15093	0	0	0	0	1	4	4
62	10.7566	0.0928793	0	0	0	0	1	4	4
60	11.6912	0.19737	0	0	0	0	1	4	4
60	11.8886	0.0290251	0	0	0	0	1	4	4
62	12.3008	0.441179	0	0	0	0	1	4	4
62	12.742	0.319274	0	0	0	0	1	4	4
62	13.3921	0.145124	0	0	0	0	1	4	4
62	13.9378	0.168344	0	0	0	0	1	4	4
62	14.1061	0.0754652	0	0	0	0	1	4	4
62	14.5125	0.133515	0	0	0	0	1	4	4
61	15.0407	0.0696592	0	0	0	0	1	4	4
60	15.1162	0.121905	0	0	0	0	1	4	4
62	15.2729	0.10449	0	0	0	0	1	4	4
62	15.3832	0.0348301	0	0	0	0	1	4	4
62	15.4703	0.133514	0	0	0	0	1	4	4
62	15.6154	0.0522451	0	0	0	0	1	4	4
66	15.7663	0.0232201	0	0	0	0	1	4	4
62	15.8302	0.0986843	0	0	0	0	1	4	4
57	16.0798	0.0696602	0	0	0	0	1	4	4
69	16.1611	0.243809	0	0	0	0	1	4	4
71	16.4281	0.121904	0	0	0	0	1	4	4
67	16.55	0.0580502	0	0	0	0	1	4	4
64	16.997	0.0928783	0	0	0	0	1	4	4
69	17.1654	0.116098	0	0	0	0	1	4	4
60	17.7342	0.121904	0	0	0	0	1	4	4
60	17.8561	0.0464401	0	0	0	0	1	4	4
61	17.9258	0.110296	0	0	0	0	1	4	4
62	18.0361	0.0232182	0	0	0	0	1	4	4
59	18.2625	0.0232201	0	0	0	0	1	4	4
62	18.2915	0.12771	0	0	0	0	1	4	4
61	18.4192	0.0232201	0	0	0	0	1	4	4
62	18.4773	0.0464401	0	0	0	0	1	4	4
62	18.5237	0.278641	0	0	0	0	1	4	4
62	18.8198	0.296055	0	0	0	0	1	4	4
60	19.2958	0.0290241	0	0	0	0	1	4	4
61	19.3248	0.0754662	0	0	0	0	1	4	4
62	19.7834	0.0870743	0	0	0	0	1	4	4
62	19.8879	0.17415	0	0	0	0	1	4	4
62	20.0737	0.121904	0	0	0	0	1	4	4
62	20.1956	0.121904	0	0	0	0	1	4	4
62	20.3813	0.0870743	0	0	0	0	1	4	4
62	20.4684	0.0406342	0	0	0	0	1	4	4
62	20.5148	0.0464401	0	0	0	0	1	4	4
66	20.7644	0.0638542	0	0	0	0	1	4	4
62	20.9328	0.0232201	0	0	0	0	1	4	4
56	20.9792	0.179955	0	0	0	0	1	4	4
57	21.1592	0.261225	0	0	0	0	1	4	4
0	21.4204	0.249615	0	0	0	0	1	4	4
57	21.7455	0.10449	0	0	0	0	1	4	4
58	21.879	0.121904	0	0	0	0	1	4	4
57	22.3318	0.0580502	0	0	0	0	1	4	4
55	22.3898	0.238005	0	0	0	0	1	4	4
56	22.6278	0.133514	0	0	0	0	1	4	4
52	22.86	0.208981	0	0	0	0	1	4	4
62	23.6263	0.1161	0	0	0	0	1	4	4
54	23.8005	0.191565	0	0	0	0	1	4	4
55	24.4274	0.0928802	0	0	0	0	1	4	4
57	24.5203	0.313469	0	0	0	0	1	4	4
57	24.8337	0.110296	0	0	0	0	1	4	4
57	24.944	0.156734	0	0	0	0	1	4	4
57	25.1008	0.145124	0	0	0	0	1	4	4
68	25.4142	0.168344	0	0	0	0	1	4	4
70	25.867	0.208979	0	0	0	0	1	4	4
69	26.0586	0.371519	0	0	0	0	1	4	4
69	26.4649	0.197369	0	0	0	0	1	4	4
70	26.6855	0.12771	0	0	0	0	1	4	4
56	26.9235	0.0870762	0	0	0	0	1	4	4
57	27.0106	0.0232201	0	0	0	0	1	4	4
57	27.0687	0.0870762	0	0	0	0	1	4	4
57	27.1557	0.0638542	0	0	0	0	1	4	4
57	27.2196	0.133514	0	0	0	0	1	4	4
62	27.4402	0.301859	0	0	0	0	1	4	4
61	27.8175	0.12771	0	0	0	0	1	4	4
63	27.9742	0.168344	0	0	0	0	1	4	4
62	28.3458	0.354105	0	0	0	0	1	4	4
56	28.9669	0.365715	0	0	0	0	1	4	4
