midiPitch 	 onsetSec 	 durationSec 	 onsetBeats 	 onsetBarIndex 	 onsetBar 	 durationBeats 	 velocity  	 numerator 	 denominator 
49	0.249615	0.0406349	0	0	4.1371e-035	0	1	4	4
53	0.348299	0.0348299	0	0	4.1371e-035	0	1	4	4
53	0.684989	0.12771	0	0	4.1371e-035	0	1	4	4
50	1.09134	0.0870749	0	0	4.1371e-035	0	1	4	4
51	1.34095	0.0928798	0	0	4.1371e-035	0	1	4	4
52	1.43964	0.168345	0	0	4.1371e-035	0	1	4	4
51	2.11882	0.0464399	0	0	4.1371e-035	0	1	4	4
53	2.21751	0.191565	0	0	4.1371e-035	0	1	4	4
48	2.50776	0.15093	0	0	4.1371e-035	0	1	4	4
50	2.65868	0.0290251	0	0	4.1371e-035	0	1	4	4
51	2.71093	0.203175	0	0	4.1371e-035	0	1	4	4
52	3.13469	0.0232198	0	0	4.1371e-035	0	1	4	4
53	3.16372	0.0290251	0	0	4.1371e-035	0	1	4	4
52	3.23338	0.179955	0	0	4.1371e-035	0	1	4	4
52	3.44236	0.0928798	0	0	4.1371e-035	0	1	4	4
74	3.51202	0.0348301	0	0	4.1371e-035	0	1	4	4
78	3.721	0.0464399	0	0	4.1371e-035	0	1	4	4
78	3.99383	0.0232201	0	0	4.1371e-035	0	1	4	4
71	4.01705	0.0870748	0	0	4.1371e-035	0	1	4	4
71	4.10413	0.110295	0	0	4.1371e-035	0	1	4	4
75	4.22023	0.12771	0	0	4.1371e-035	0	1	4	4
72	5.31156	0.0928798	0	0	4.1371e-035	0	1	4	4
77	5.63664	0.0290251	0	0	4.1371e-035	0	1	4	4
80	6.06621	0.0928798	0	0	4.1371e-035	0	1	4	4
72	6.7512	0.0232201	0	0	4.1371e-035	0	1	4	4
64	6.82667	0.0290251	0	0	4.1371e-035	0	1	4	4
72	6.88472	0.0928798	0	0	4.1371e-035	0	1	4	4
74	7.22721	0.0696602	0	0	4.1371e-035	0	1	4	4
71	7.442	0.0406351	0	0	4.1371e-035	0	1	4	4
52	7.43619	0.0928802	0	0	4.1371e-035	0	1	4	4
50	7.97025	0.0232201	0	0	4.1371e-035	0	1	4	4
65	11.2152	0.110295	0	0	4.1371e-035	0	1	4	4
65	11.6158	0.0580502	0	0	4.1371e-035	0	1	4	4
67	11.7725	0.0754642	0	0	4.1371e-035	0	1	4	4
51	11.9931	0.0696602	0	0	4.1371e-035	0	1	4	4
52	12.0628	0.0232201	0	0	4.1371e-035	0	1	4	4
54	12.0918	0.121904	0	0	4.1371e-035	0	1	4	4
56	12.7536	0.0638542	0	0	4.1371e-035	0	1	4	4
53	13.2586	0.0580502	0	0	4.1371e-035	0	1	4	4
53	14.0016	0.238005	0	0	4.1371e-035	0	1	4	4
54	14.3906	0.0348301	0	0	4.1371e-035	0	1	4	4
55	14.5647	0.0754652	0	0	4.1371e-035	0	1	4	4
51	15.1742	0.0348301	0	0	4.1371e-035	0	1	4	4
55	15.2091	0.179955	0	0	4.1371e-035	0	1	4	4
50	15.598	0.0986843	0	0	4.1371e-035	0	1	4	4
60	15.7954	0.0290251	0	0	4.1371e-035	0	1	4	4
52	15.9347	0.0986853	0	0	4.1371e-035	0	1	4	4
54	16.4223	0.17415	0	0	4.1371e-035	0	1	4	4
51	16.6719	0.029026	0	0	4.1371e-035	0	1	4	4
55	16.7242	0.0232201	0	0	4.1371e-035	0	1	4	4
57	16.8693	0.0406342	0	0	4.1371e-035	0	1	4	4
57	16.9157	0.0928802	0	0	4.1371e-035	0	1	4	4
54	17.0086	0.0348282	0	0	4.1371e-035	0	1	4	4
54	17.1247	0.0232201	0	0	4.1371e-035	0	1	4	4
55	17.1537	0.0754642	0	0	4.1371e-035	0	1	4	4
53	17.2292	0.197369	0	0	4.1371e-035	0	1	4	4
54	17.4266	0.0696602	0	0	4.1371e-035	0	1	4	4
55	17.4962	0.0638561	0	0	4.1371e-035	0	1	4	4
55	17.5601	0.0232201	0	0	4.1371e-035	0	1	4	4
55	17.6007	0.0580502	0	0	4.1371e-035	0	1	4	4
53	17.949	0.0232201	0	0	4.1371e-035	0	1	4	4
55	18.0187	0.0986843	0	0	4.1371e-035	0	1	4	4
54	18.2857	0.0870762	0	0	4.1371e-035	0	1	4	4
54	18.6979	0.0232201	0	0	4.1371e-035	0	1	4	4
55	18.7269	0.16254	0	0	4.1371e-035	0	1	4	4
54	18.8894	0.0870743	0	0	4.1371e-035	0	1	4	4
54	19.0229	0.16254	0	0	4.1371e-035	0	1	4	4
54	19.3771	0.0290241	0	0	4.1371e-035	0	1	4	4
57	19.5396	0.121906	0	0	4.1371e-035	0	1	4	4
55	19.6905	0.0464401	0	0	4.1371e-035	0	1	4	4
56	19.7892	0.1161	0	0	4.1371e-035	0	1	4	4
56	19.9053	0.0870743	0	0	4.1371e-035	0	1	4	4
54	20.0562	0.0348282	0	0	4.1371e-035	0	1	4	4
54	20.0911	0.0928802	0	0	4.1371e-035	0	1	4	4
53	20.3058	0.0232201	0	0	4.1371e-035	0	1	4	4
54	20.3349	0.0522442	0	0	4.1371e-035	0	1	4	4
53	20.4626	0.0986843	0	0	4.1371e-035	0	1	4	4
51	20.5613	0.0232201	0	0	4.1371e-035	0	1	4	4
53	20.7761	0.0290241	0	0	4.1371e-035	0	1	4	4
53	20.8109	0.0232201	0	0	4.1371e-035	0	1	4	4
54	20.8399	0.029026	0	0	4.1371e-035	0	1	4	4
53	20.898	0.232199	0	0	4.1371e-035	0	1	4	4
56	21.2405	0.104488	0	0	4.1371e-035	0	1	4	4
56	21.3449	0.0638561	0	0	4.1371e-035	0	1	4	4
53	21.4378	0.110294	0	0	4.1371e-035	0	1	4	4
54	21.5771	0.156734	0	0	4.1371e-035	0	1	4	4
51	22.0415	0.174149	0	0	4.1371e-035	0	1	4	4
56	22.384	0.168344	0	0	4.1371e-035	0	1	4	4
55	22.7033	0.0406361	0	0	4.1371e-035	0	1	4	4
58	22.7962	0.0348301	0	0	4.1371e-035	0	1	4	4
58	22.8368	0.0522461	0	0	4.1371e-035	0	1	4	4
59	23.1793	0.0232201	0	0	4.1371e-035	0	1	4	4
60	23.2258	0.0812702	0	0	4.1371e-035	0	1	4	4
59	23.307	0.0348301	0	0	4.1371e-035	0	1	4	4
57	23.5799	0.0638561	0	0	4.1371e-035	0	1	4	4
58	24.3403	0.029026	0	0	4.1371e-035	0	1	4	4
59	24.3751	0.0870743	0	0	4.1371e-035	0	1	4	4
57	24.6596	0.0232201	0	0	4.1371e-035	0	1	4	4
58	24.6886	0.1161	0	0	4.1371e-035	0	1	4	4
57	25.0892	0.0290241	0	0	4.1371e-035	0	1	4	4
59	25.2401	0.0348301	0	0	4.1371e-035	0	1	4	4
59	25.2749	0.0986862	0	0	4.1371e-035	0	1	4	4
55	25.42	0.0870762	0	0	4.1371e-035	0	1	4	4
53	25.8032	0.0348282	0	0	4.1371e-035	0	1	4	4
55	25.8438	0.249615	0	0	4.1371e-035	0	1	4	4
55	26.343	0.0464401	0	0	4.1371e-035	0	1	4	4
53	26.4649	0.0986843	0	0	4.1371e-035	0	1	4	4
56	26.581	0.0986843	0	0	4.1371e-035	0	1	4	4
52	27.0687	0.029026	0	0	4.1371e-035	0	1	4	4
54	27.1557	0.0986843	0	0	4.1371e-035	0	1	4	4
55	27.5331	0.0638561	0	0	4.1371e-035	0	1	4	4
55	27.7362	0.0464401	0	0	4.1371e-035	0	1	4	4
54	27.9162	0.0232201	0	0	4.1371e-035	0	1	4	4
55	28.189	0.0232201	0	0	4.1371e-035	0	1	4	4
57	28.2122	0.0232201	0	0	4.1371e-035	0	1	4	4
55	28.369	0.0812702	0	0	4.1371e-035	0	1	4	4
52	28.6128	0.249615	0	0	4.1371e-035	0	1	4	4
52	28.8682	0.0580502	0	0	4.1371e-035	0	1	4	4
