midiPitch 	 onsetSec 	 durationSec 	 onsetBeats 	 onsetBarIndex 	 onsetBar 	 durationBeats 	 velocity  	 numerator 	 denominator 
72	0.429569	0.156735	0	0	4.64513e-035	0	1	4	4
72	0.586304	0.110295	0	0	4.64513e-035	0	1	4	4
71	0.696599	0.19737	0	0	4.64513e-035	0	1	4	4
69	0.911383	0.24381	0	0	4.64513e-035	0	1	4	4
66	1.15519	0.15093	0	0	4.64513e-035	0	1	4	4
64	1.36998	0.214785	0	0	4.64513e-035	0	1	4	4
66	1.63701	0.13932	0	0	4.64513e-035	0	1	4	4
66	1.81696	0.0232199	0	0	4.64513e-035	0	1	4	4
66	1.84018	0.0522449	0	0	4.64513e-035	0	1	4	4
67	2.31039	0.0522449	0	0	4.64513e-035	0	1	4	4
66	2.75737	0.0232201	0	0	4.64513e-035	0	1	4	4
61	3.04762	1.35837	0	0	4.64513e-035	0	1	4	4
59	4.40599	0.191565	0	0	4.64513e-035	0	1	4	4
59	4.60336	0.19737	0	0	4.64513e-035	0	1	4	4
56	4.92263	0.278639	0	0	4.64513e-035	0	1	4	4
64	5.38122	0.470204	0	0	4.64513e-035	0	1	4	4
0	5.85143	0.162539	0	0	4.64513e-035	0	1	4	4
57	6.07782	0.18576	0	0	4.64513e-035	0	1	4	4
58	6.36807	0.2322	0	0	4.64513e-035	0	1	4	4
59	6.60027	0.116099	0	0	4.64513e-035	0	1	4	4
58	6.83828	0.12771	0	0	4.64513e-035	0	1	4	4
59	6.96599	0.481814	0	0	4.64513e-035	0	1	4	4
58	7.4478	0.0232201	0	0	4.64513e-035	0	1	4	4
64	8.6088	0.214785	0	0	4.64513e-035	0	1	4	4
66	8.82939	0.116099	0	0	4.64513e-035	0	1	4	4
67	8.94549	0.156735	0	0	4.64513e-035	0	1	4	4
66	9.12544	0.2322	0	0	4.64513e-035	0	1	4	4
60	9.59565	0.191565	0	0	4.64513e-035	0	1	4	4
66	9.78721	0.27864	0	0	4.64513e-035	0	1	4	4
64	10.0659	0.191565	0	0	4.64513e-035	0	1	4	4
60	10.3387	0.19737	0	0	4.64513e-035	0	1	4	4
59	10.5825	0.110295	0	0	4.64513e-035	0	1	4	4
59	10.6928	0.0348301	0	0	4.64513e-035	0	1	4	4
61	10.8031	0.110295	0	0	4.64513e-035	0	1	4	4
60	11.0005	0.110295	0	0	4.64513e-035	0	1	4	4
61	11.1107	0.20898	0	0	4.64513e-035	0	1	4	4
60	11.5229	0.145124	0	0	4.64513e-035	0	1	4	4
61	11.668	0.354104	0	0	4.64513e-035	0	1	4	4
61	12.0221	0.110295	0	0	4.64513e-035	0	1	4	4
64	12.1556	0.116099	0	0	4.64513e-035	0	1	4	4
60	12.4343	0.522449	0	0	4.64513e-035	0	1	4	4
59	13.038	0.203175	0	0	4.64513e-035	0	1	4	4
56	13.6069	0.214785	0	0	4.64513e-035	0	1	4	4
74	17.1595	0.197371	0	0	4.64513e-035	0	1	4	4
72	17.3976	0.0986843	0	0	4.64513e-035	0	1	4	4
73	17.4962	0.13932	0	0	4.64513e-035	0	1	4	4
61	17.8619	0.0870743	0	0	4.64513e-035	0	1	4	4
60	18.3089	0.16254	0	0	4.64513e-035	0	1	4	4
60	18.4715	0.238005	0	0	4.64513e-035	0	1	4	4
61	18.7095	0.325079	0	0	4.64513e-035	0	1	4	4
62	19.2958	0.220589	0	0	4.64513e-035	0	1	4	4
64	19.5164	0.383129	0	0	4.64513e-035	0	1	4	4
61	20.1898	0.133514	0	0	4.64513e-035	0	1	4	4
59	20.3639	0.394739	0	0	4.64513e-035	0	1	4	4
56	21.9371	0.470203	0	0	4.64513e-035	0	1	4	4
57	22.4073	0.12771	0	0	4.64513e-035	0	1	4	4
66	23.963	0.243809	0	0	4.64513e-035	0	1	4	4
69	24.2126	0.481815	0	0	4.64513e-035	0	1	4	4
71	24.7176	0.145124	0	0	4.64513e-035	0	1	4	4
69	24.8918	0.203175	0	0	4.64513e-035	0	1	4	4
69	25.095	0.0522461	0	0	4.64513e-035	0	1	4	4
69	25.78	0.336689	0	0	4.64513e-035	0	1	4	4
72	26.2327	0.336689	0	0	4.64513e-035	0	1	4	4
71	26.7146	0.272835	0	0	4.64513e-035	0	1	4	4
69	27.237	0.174149	0	0	4.64513e-035	0	1	4	4
77	27.5911	0.121904	0	0	4.64513e-035	0	1	4	4
71	27.713	0.220591	0	0	4.64513e-035	0	1	4	4
69	27.9742	0.121904	0	0	4.64513e-035	0	1	4	4
69	28.0961	0.0232201	0	0	4.64513e-035	0	1	4	4
72	28.1252	0.243809	0	0	4.64513e-035	0	1	4	4
71	28.5896	0.232199	0	0	4.64513e-035	0	1	4	4
69	28.8856	0.174149	0	0	4.64513e-035	0	1	4	4
