midiPitch 	 onsetSec 	 durationSec 	 onsetBeats 	 onsetBarIndex 	 onsetBar 	 durationBeats 	 velocity  	 numerator 	 denominator 
55	0.0522449	0.110295	0	0	4.15641e-035	0	1	4	4
55	0.16254	0.365714	0	0	4.15641e-035	0	1	4	4
54	0.528254	0.191565	0	0	4.15641e-035	0	1	4	4
54	0.743039	0.1161	0	0	4.15641e-035	0	1	4	4
54	0.952018	0.278639	0	0	4.15641e-035	0	1	4	4
59	1.81696	0.156735	0	0	4.15641e-035	0	1	4	4
52	2.20009	0.168345	0	0	4.15641e-035	0	1	4	4
52	2.58902	0.203175	0	0	4.15641e-035	0	1	4	4
57	3.04762	0.0522449	0	0	4.15641e-035	0	1	4	4
54	3.09986	0.0348299	0	0	4.15641e-035	0	1	4	4
55	3.15791	0.655964	0	0	4.15641e-035	0	1	4	4
54	3.81388	0.19737	0	0	4.15641e-035	0	1	4	4
54	4.33633	0.19737	0	0	4.15641e-035	0	1	4	4
52	4.62658	0.18576	0	0	4.15641e-035	0	1	4	4
55	6.21134	0.0986848	0	0	4.15641e-035	0	1	4	4
57	6.35066	0.12771	0	0	4.15641e-035	0	1	4	4
57	6.47837	0.394739	0	0	4.15641e-035	0	1	4	4
57	6.89633	0.499229	0	0	4.15641e-035	0	1	4	4
57	9.57823	0.13932	0	0	4.15641e-035	0	1	4	4
54	9.71755	0.0986843	0	0	4.15641e-035	0	1	4	4
57	9.93234	0.0580492	0	0	4.15641e-035	0	1	4	4
57	9.93234	0.0638542	0	0	4.15641e-035	0	1	4	4
54	9.98458	0.01161	0	0	4.15641e-035	0	1	4	4
57	9.93234	0.0696592	0	0	4.15641e-035	0	1	4	4
54	9.98458	0.017415	0	0	4.15641e-035	0	1	4	4
57	9.93234	0.0754642	0	0	4.15641e-035	0	1	4	4
54	9.98458	0.10449	0	0	4.15641e-035	0	1	4	4
57	10.0891	0.22059	0	0	4.15641e-035	0	1	4	4
57	10.3097	0.0348301	0	0	4.15641e-035	0	1	4	4
54	10.3445	0.0522442	0	0	4.15641e-035	0	1	4	4
54	10.3967	0.0406351	0	0	4.15641e-035	0	1	4	4
57	10.4432	0.121904	0	0	4.15641e-035	0	1	4	4
55	11.3778	0.197371	0	0	4.15641e-035	0	1	4	4
54	12.9045	0.145124	0	0	4.15641e-035	0	1	4	4
55	13.0728	0.156734	0	0	4.15641e-035	0	1	4	4
55	13.2296	0.0406351	0	0	4.15641e-035	0	1	4	4
55	13.2818	0.156734	0	0	4.15641e-035	0	1	4	4
55	13.4385	0.0522451	0	0	4.15641e-035	0	1	4	4
55	13.6475	0.423764	0	0	4.15641e-035	0	1	4	4
54	14.3093	0.0638552	0	0	4.15641e-035	0	1	4	4
54	14.3732	0.162539	0	0	4.15641e-035	0	1	4	4
57	16.4049	0.203175	0	0	4.15641e-035	0	1	4	4
57	16.6081	0.0232201	0	0	4.15641e-035	0	1	4	4
58	16.6661	0.0348301	0	0	4.15641e-035	0	1	4	4
54	16.701	0.0348301	0	0	4.15641e-035	0	1	4	4
54	16.7358	0.0928783	0	0	4.15641e-035	0	1	4	4
55	16.8287	0.121906	0	0	4.15641e-035	0	1	4	4
55	17.0318	0.0812702	0	0	4.15641e-035	0	1	4	4
54	17.1944	0.15093	0	0	4.15641e-035	0	1	4	4
57	17.7633	0.0986843	0	0	4.15641e-035	0	1	4	4
55	17.9955	0.0986843	0	0	4.15641e-035	0	1	4	4
55	18.0941	0.16254	0	0	4.15641e-035	0	1	4	4
58	19.0926	0.0348301	0	0	4.15641e-035	0	1	4	4
60	19.5744	0.0464401	0	0	4.15641e-035	0	1	4	4
54	19.6209	0.0812702	0	0	4.15641e-035	0	1	4	4
58	19.7254	0.10449	0	0	4.15641e-035	0	1	4	4
57	19.8995	0.0986862	0	0	4.15641e-035	0	1	4	4
57	19.9982	0.208979	0	0	4.15641e-035	0	1	4	4
57	20.4161	0.319273	0	0	4.15641e-035	0	1	4	4
54	23.3186	0.0464401	0	0	4.15641e-035	0	1	4	4
54	23.5857	0.284445	0	0	4.15641e-035	0	1	4	4
52	23.8701	0.243809	0	0	4.15641e-035	0	1	4	4
52	24.1139	0.406349	0	0	4.15641e-035	0	1	4	4
52	24.5667	0.208981	0	0	4.15641e-035	0	1	4	4
50	24.8744	0.296055	0	0	4.15641e-035	0	1	4	4
49	25.1937	0.203175	0	0	4.15641e-035	0	1	4	4
51	25.3968	0.191565	0	0	4.15641e-035	0	1	4	4
55	26.6449	0.214785	0	0	4.15641e-035	0	1	4	4
55	27.0338	0.667572	0	0	4.15641e-035	0	1	4	4
54	27.7014	0.16254	0	0	4.15641e-035	0	1	4	4
54	27.8639	0.18576	0	0	4.15641e-035	0	1	4	4
