midiPitch 	 onsetSec 	 durationSec 	 onsetBeats 	 onsetBarIndex 	 onsetBar 	 durationBeats 	 velocity  	 numerator 	 denominator 
63	0.156735	0.0638549	0	0	3.44167e-035	0	1	4	4
63	0.22059	0.0696599	0	0	3.44167e-035	0	1	4	4
63	0.290249	0.18576	0	0	3.44167e-035	0	1	4	4
61	0.905578	0.0638549	0	0	3.44167e-035	0	1	4	4
63	1.00426	0.17415	0	0	3.44167e-035	0	1	4	4
63	1.17841	0.0754648	0	0	3.44167e-035	0	1	4	4
62	1.6254	0.0696598	0	0	3.44167e-035	0	1	4	4
58	1.7473	0.0348299	0	0	3.44167e-035	0	1	4	4
61	1.79374	0.0522449	0	0	3.44167e-035	0	1	4	4
61	1.9795	0.13932	0	0	3.44167e-035	0	1	4	4
59	2.15365	0.0696599	0	0	3.44167e-035	0	1	4	4
56	2.47293	0.156735	0	0	3.44167e-035	0	1	4	4
61	2.74576	0.0406351	0	0	3.44167e-035	0	1	4	4
62	2.7922	0.156734	0	0	3.44167e-035	0	1	4	4
62	3.12889	0.0870748	0	0	3.44167e-035	0	1	4	4
63	3.21596	0.0348301	0	0	3.44167e-035	0	1	4	4
63	3.2566	0.168345	0	0	3.44167e-035	0	1	4	4
62	3.83129	0.0406349	0	0	3.44167e-035	0	1	4	4
64	3.92417	0.0464401	0	0	3.44167e-035	0	1	4	4
63	4.21442	0.156734	0	0	3.44167e-035	0	1	4	4
62	4.64399	0.139319	0	0	3.44167e-035	0	1	4	4
61	4.78331	0.0870748	0	0	3.44167e-035	0	1	4	4
61	4.87039	0.0290251	0	0	3.44167e-035	0	1	4	4
61	4.90522	0.133515	0	0	3.44167e-035	0	1	4	4
58	5.13741	0.0406346	0	0	3.44167e-035	0	1	4	4
61	5.61923	0.13932	0	0	3.44167e-035	0	1	4	4
63	5.75855	0.1161	0	0	3.44167e-035	0	1	4	4
63	5.87465	0.0928798	0	0	3.44167e-035	0	1	4	4
63	6.0546	0.267029	0	0	3.44167e-035	0	1	4	4
61	7.22141	0.121904	0	0	3.44167e-035	0	1	4	4
59	7.62776	0.0638547	0	0	3.44167e-035	0	1	4	4
62	7.76707	0.13932	0	0	3.44167e-035	0	1	4	4
63	7.90639	0.10449	0	0	3.44167e-035	0	1	4	4
55	8.10376	0.110295	0	0	3.44167e-035	0	1	4	4
55	8.21406	0.0290251	0	0	3.44167e-035	0	1	4	4
56	8.33016	0.0870752	0	0	3.44167e-035	0	1	4	4
57	8.41723	0.203175	0	0	3.44167e-035	0	1	4	4
63	8.7249	0.133515	0	0	3.44167e-035	0	1	4	4
63	8.85841	0.0406351	0	0	3.44167e-035	0	1	4	4
56	9.00934	0.0232201	0	0	3.44167e-035	0	1	4	4
63	9.09642	0.238004	0	0	3.44167e-035	0	1	4	4
63	9.33442	0.145125	0	0	3.44167e-035	0	1	4	4
63	9.47955	0.0232201	0	0	3.44167e-035	0	1	4	4
67	9.73497	0.162539	0	0	3.44167e-035	0	1	4	4
67	9.89751	0.0348301	0	0	3.44167e-035	0	1	4	4
66	9.93234	0.156734	0	0	3.44167e-035	0	1	4	4
66	10.0891	0.0522451	0	0	3.44167e-035	0	1	4	4
66	10.1413	0.330884	0	0	3.44167e-035	0	1	4	4
66	10.5302	0.127709	0	0	3.44167e-035	0	1	4	4
63	10.658	0.0580502	0	0	3.44167e-035	0	1	4	4
63	10.8263	0.156734	0	0	3.44167e-035	0	1	4	4
63	12.0047	0.284445	0	0	3.44167e-035	0	1	4	4
63	12.2892	0.0986853	0	0	3.44167e-035	0	1	4	4
61	12.7187	0.0870752	0	0	3.44167e-035	0	1	4	4
64	12.8639	0.0754652	0	0	3.44167e-035	0	1	4	4
63	13.1019	0.121904	0	0	3.44167e-035	0	1	4	4
63	13.247	0.0348301	0	0	3.44167e-035	0	1	4	4
63	13.4966	0.110295	0	0	3.44167e-035	0	1	4	4
61	13.8391	0.1161	0	0	3.44167e-035	0	1	4	4
59	13.9552	0.0290251	0	0	3.44167e-035	0	1	4	4
63	14.5531	0.313469	0	0	3.44167e-035	0	1	4	4
62	14.8666	0.0290251	0	0	3.44167e-035	0	1	4	4
63	14.9653	0.238005	0	0	3.44167e-035	0	1	4	4
63	15.2033	0.110294	0	0	3.44167e-035	0	1	4	4
63	15.6851	0.214785	0	0	3.44167e-035	0	1	4	4
62	16.0044	0.0986862	0	0	3.44167e-035	0	1	4	4
63	16.2191	0.0696602	0	0	3.44167e-035	0	1	4	4
62	16.4049	0.0348301	0	0	3.44167e-035	0	1	4	4
62	16.4397	0.121904	0	0	3.44167e-035	0	1	4	4
61	16.7706	0.0986843	0	0	3.44167e-035	0	1	4	4
56	17.206	0.0232201	0	0	3.44167e-035	0	1	4	4
63	17.6588	0.1161	0	0	3.44167e-035	0	1	4	4
63	17.7749	0.0638542	0	0	3.44167e-035	0	1	4	4
64	17.8619	0.0232201	0	0	3.44167e-035	0	1	4	4
63	17.9839	0.255421	0	0	3.44167e-035	0	1	4	4
62	18.2393	0.0290241	0	0	3.44167e-035	0	1	4	4
62	18.2683	0.0522442	0	0	3.44167e-035	0	1	4	4
62	18.3205	0.029026	0	0	3.44167e-035	0	1	4	4
64	18.3844	0.0580502	0	0	3.44167e-035	0	1	4	4
66	18.4831	0.0638542	0	0	3.44167e-035	0	1	4	4
68	18.7269	0.284445	0	0	3.44167e-035	0	1	4	4
64	19.1216	0.214785	0	0	3.44167e-035	0	1	4	4
66	19.5628	0.133514	0	0	3.44167e-035	0	1	4	4
64	19.6963	0.0232201	0	0	3.44167e-035	0	1	4	4
63	19.7195	0.15093	0	0	3.44167e-035	0	1	4	4
61	19.8705	0.0290241	0	0	3.44167e-035	0	1	4	4
63	19.9053	0.220589	0	0	3.44167e-035	0	1	4	4
61	20.271	0.249613	0	0	3.44167e-035	0	1	4	4
63	20.5206	0.243811	0	0	3.44167e-035	0	1	4	4
61	20.7644	0.10449	0	0	3.44167e-035	0	1	4	4
68	20.927	0.0928802	0	0	3.44167e-035	0	1	4	4
69	21.0199	0.0406361	0	0	3.44167e-035	0	1	4	4
69	21.0721	0.127708	0	0	3.44167e-035	0	1	4	4
70	21.2927	0.16254	0	0	3.44167e-035	0	1	4	4
61	21.5597	0.1161	0	0	3.44167e-035	0	1	4	4
66	21.6758	0.168344	0	0	3.44167e-035	0	1	4	4
65	21.8442	0.243811	0	0	3.44167e-035	0	1	4	4
63	22.5988	0.168344	0	0	3.44167e-035	0	1	4	4
55	23.1909	0.203175	0	0	3.44167e-035	0	1	4	4
62	23.4173	0.13932	0	0	3.44167e-035	0	1	4	4
62	24.1778	0.133514	0	0	3.44167e-035	0	1	4	4
62	24.4448	0.0348301	0	0	3.44167e-035	0	1	4	4
60	24.5493	0.0406342	0	0	3.44167e-035	0	1	4	4
60	24.5957	0.121904	0	0	3.44167e-035	0	1	4	4
60	24.7176	0.185759	0	0	3.44167e-035	0	1	4	4
60	25.2227	0.0696602	0	0	3.44167e-035	0	1	4	4
60	25.333	0.110294	0	0	3.44167e-035	0	1	4	4
60	25.5884	0.214785	0	0	3.44167e-035	0	1	4	4
62	26.4301	0.1161	0	0	3.44167e-035	0	1	4	4
51	26.7088	0.0580502	0	0	3.44167e-035	0	1	4	4
64	26.8016	0.029026	0	0	3.44167e-035	0	1	4	4
63	26.941	0.162539	0	0	3.44167e-035	0	1	4	4
63	27.1267	0.0464401	0	0	3.44167e-035	0	1	4	4
63	27.2196	0.0580502	0	0	3.44167e-035	0	1	4	4
61	27.4576	0.0232201	0	0	3.44167e-035	0	1	4	4
61	27.5098	0.0986862	0	0	3.44167e-035	0	1	4	4
61	27.6085	0.0290241	0	0	3.44167e-035	0	1	4	4
61	27.6376	0.13932	0	0	3.44167e-035	0	1	4	4
66	28.5025	0.296055	0	0	3.44167e-035	0	1	4	4
