midiPitch 	 onsetSec 	 durationSec 	 onsetBeats 	 onsetBarIndex 	 onsetBar 	 durationBeats 	 velocity  	 numerator 	 denominator 
61	0.0928798	0.02322	0	0	2.34127e-035	0	1	4	4
59	0.12771	0.156735	0	0	2.34127e-035	0	1	4	4
59	0.354104	0.0870748	0	0	2.34127e-035	0	1	4	4
60	0.551474	0.0232199	0	0	2.34127e-035	0	1	4	4
56	0.650159	0.0232199	0	0	2.34127e-035	0	1	4	4
60	0.696599	0.0464399	0	0	2.34127e-035	0	1	4	4
59	0.859138	0.0348299	0	0	2.34127e-035	0	1	4	4
61	0.963628	0.029025	0	0	2.34127e-035	0	1	4	4
61	1.0507	0.18576	0	0	2.34127e-035	0	1	4	4
60	1.35256	0.1161	0	0	2.34127e-035	0	1	4	4
60	1.66023	0.0928799	0	0	2.34127e-035	0	1	4	4
60	1.80535	0.0754648	0	0	2.34127e-035	0	1	4	4
59	2.02014	0.133515	0	0	2.34127e-035	0	1	4	4
59	2.17687	0.0638547	0	0	2.34127e-035	0	1	4	4
58	2.3278	0.0348299	0	0	2.34127e-035	0	1	4	4
60	2.83283	0.0290248	0	0	2.34127e-035	0	1	4	4
60	2.93732	0.0696597	0	0	2.34127e-035	0	1	4	4
60	3.18113	0.0754647	0	0	2.34127e-035	0	1	4	4
61	3.27401	0.0290251	0	0	2.34127e-035	0	1	4	4
59	3.30304	0.133515	0	0	2.34127e-035	0	1	4	4
59	3.43655	0.0986848	0	0	2.34127e-035	0	1	4	4
59	3.59909	0.0406349	0	0	2.34127e-035	0	1	4	4
59	3.63973	0.0290248	0	0	2.34127e-035	0	1	4	4
60	3.91256	0.150929	0	0	2.34127e-035	0	1	4	4
60	4.09252	0.15093	0	0	2.34127e-035	0	1	4	4
60	4.72526	0.0406346	0	0	2.34127e-035	0	1	4	4
60	4.85878	0.0870748	0	0	2.34127e-035	0	1	4	4
59	4.94585	0.0754647	0	0	2.34127e-035	0	1	4	4
59	5.02132	0.0522447	0	0	2.34127e-035	0	1	4	4
60	5.21288	0.145125	0	0	2.34127e-035	0	1	4	4
59	5.37542	0.0580497	0	0	2.34127e-035	0	1	4	4
59	5.46249	0.139319	0	0	2.34127e-035	0	1	4	4
62	5.87465	0.0986848	0	0	2.34127e-035	0	1	4	4
60	6.53642	0.0406351	0	0	2.34127e-035	0	1	4	4
60	6.58286	0.0464396	0	0	2.34127e-035	0	1	4	4
60	6.66413	0.110295	0	0	2.34127e-035	0	1	4	4
60	7.7961	0.110295	0	0	2.34127e-035	0	1	4	4
59	8.10957	0.12771	0	0	2.34127e-035	0	1	4	4
59	8.27211	0.0696592	0	0	2.34127e-035	0	1	4	4
59	8.44626	0.0406351	0	0	2.34127e-035	0	1	4	4
65	8.79456	0.296055	0	0	2.34127e-035	0	1	4	4
60	9.10222	0.0406342	0	0	2.34127e-035	0	1	4	4
59	9.14866	0.133515	0	0	2.34127e-035	0	1	4	4
61	9.58404	0.0870752	0	0	2.34127e-035	0	1	4	4
59	9.73497	0.127709	0	0	2.34127e-035	0	1	4	4
59	9.86268	0.133514	0	0	2.34127e-035	0	1	4	4
59	9.99619	0.0986853	0	0	2.34127e-035	0	1	4	4
61	10.1761	0.0522451	0	0	2.34127e-035	0	1	4	4
58	10.2632	0.0754652	0	0	2.34127e-035	0	1	4	4
61	10.3445	0.156734	0	0	2.34127e-035	0	1	4	4
59	10.5244	0.0406342	0	0	2.34127e-035	0	1	4	4
59	10.7102	0.0986843	0	0	2.34127e-035	0	1	4	4
62	11.0237	0.13932	0	0	2.34127e-035	0	1	4	4
62	11.3139	0.25542	0	0	2.34127e-035	0	1	4	4
61	11.5693	0.0522442	0	0	2.34127e-035	0	1	4	4
60	11.8073	0.0696602	0	0	2.34127e-035	0	1	4	4
60	11.9931	0.0232201	0	0	2.34127e-035	0	1	4	4
60	12.0512	0.110295	0	0	2.34127e-035	0	1	4	4
59	12.4749	0.1161	0	0	2.34127e-035	0	1	4	4
60	12.6433	0.0812702	0	0	2.34127e-035	0	1	4	4
59	12.7884	0.0754642	0	0	2.34127e-035	0	1	4	4
53	12.9741	0.278639	0	0	2.34127e-035	0	1	4	4
62	13.3108	0.0812702	0	0	2.34127e-035	0	1	4	4
59	13.7288	0.0406351	0	0	2.34127e-035	0	1	4	4
60	13.9146	0.127709	0	0	2.34127e-035	0	1	4	4
60	14.2687	0.133515	0	0	2.34127e-035	0	1	4	4
58	14.4022	0.2322	0	0	2.34127e-035	0	1	4	4
60	14.6344	0.127709	0	0	2.34127e-035	0	1	4	4
60	15.2381	0.243809	0	0	2.34127e-035	0	1	4	4
60	15.8244	0.104489	0	0	2.34127e-035	0	1	4	4
59	15.9637	0.0290251	0	0	2.34127e-035	0	1	4	4
59	16.1727	0.0406342	0	0	2.34127e-035	0	1	4	4
60	16.4978	0.0638542	0	0	2.34127e-035	0	1	4	4
59	16.6139	0.0348301	0	0	2.34127e-035	0	1	4	4
60	16.8229	0.0638542	0	0	2.34127e-035	0	1	4	4
60	17.0783	0.0870762	0	0	2.34127e-035	0	1	4	4
60	17.4324	0.191565	0	0	2.34127e-035	0	1	4	4
56	17.6297	0.110296	0	0	2.34127e-035	0	1	4	4
59	17.7458	0.168344	0	0	2.34127e-035	0	1	4	4
58	18.3728	0.0638542	0	0	2.34127e-035	0	1	4	4
57	18.4657	0.0986862	0	0	2.34127e-035	0	1	4	4
60	18.7617	0.0348301	0	0	2.34127e-035	0	1	4	4
59	18.8024	0.0406342	0	0	2.34127e-035	0	1	4	4
59	18.8488	0.174149	0	0	2.34127e-035	0	1	4	4
58	19.0926	0.0348301	0	0	2.34127e-035	0	1	4	4
60	19.261	0.0812702	0	0	2.34127e-035	0	1	4	4
59	19.3422	0.0348301	0	0	2.34127e-035	0	1	4	4
57	19.557	0.0812702	0	0	2.34127e-035	0	1	4	4
57	19.6383	0.0232201	0	0	2.34127e-035	0	1	4	4
65	19.9808	0.0232201	0	0	2.34127e-035	0	1	4	4
65	20.0911	0.243811	0	0	2.34127e-035	0	1	4	4
65	20.3349	0.0232201	0	0	2.34127e-035	0	1	4	4
62	20.7122	0.0812702	0	0	2.34127e-035	0	1	4	4
60	20.7935	0.0406361	0	0	2.34127e-035	0	1	4	4
60	20.8341	0.0232201	0	0	2.34127e-035	0	1	4	4
61	20.8631	0.10449	0	0	2.34127e-035	0	1	4	4
61	20.9676	0.0406342	0	0	2.34127e-035	0	1	4	4
61	21.223	0.0754662	0	0	2.34127e-035	0	1	4	4
61	21.3856	0.0696602	0	0	2.34127e-035	0	1	4	4
61	21.5597	0.0522461	0	0	2.34127e-035	0	1	4	4
61	21.612	0.0232201	0	0	2.34127e-035	0	1	4	4
61	21.6352	0.0348301	0	0	2.34127e-035	0	1	4	4
61	21.6932	0.0870743	0	0	2.34127e-035	0	1	4	4
61	21.85	0.0290241	0	0	2.34127e-035	0	1	4	4
62	22.7091	0.0232201	0	0	2.34127e-035	0	1	4	4
66	22.7904	0.0754662	0	0	2.34127e-035	0	1	4	4
60	23.2954	0.0290241	0	0	2.34127e-035	0	1	4	4
61	23.4231	0.0348301	0	0	2.34127e-035	0	1	4	4
65	23.458	0.0812702	0	0	2.34127e-035	0	1	4	4
61	23.5392	0.0348301	0	0	2.34127e-035	0	1	4	4
62	23.5741	0.0406342	0	0	2.34127e-035	0	1	4	4
65	23.6205	0.133514	0	0	2.34127e-035	0	1	4	4
61	23.754	0.0522442	0	0	2.34127e-035	0	1	4	4
65	23.8121	0.0638542	0	0	2.34127e-035	0	1	4	4
65	23.9514	0.0754642	0	0	2.34127e-035	0	1	4	4
61	24.0559	0.0696602	0	0	2.34127e-035	0	1	4	4
64	24.1836	0.0232201	0	0	2.34127e-035	0	1	4	4
65	24.2939	0.0696602	0	0	2.34127e-035	0	1	4	4
65	24.3635	0.0232201	0	0	2.34127e-035	0	1	4	4
62	24.3984	0.0580502	0	0	2.34127e-035	0	1	4	4
58	24.5783	0.0638542	0	0	2.34127e-035	0	1	4	4
62	24.7002	0.0232201	0	0	2.34127e-035	0	1	4	4
62	24.7409	0.0406342	0	0	2.34127e-035	0	1	4	4
58	24.9498	0.0464401	0	0	2.34127e-035	0	1	4	4
59	25.0195	0.0870743	0	0	2.34127e-035	0	1	4	4
63	25.838	0.0348301	0	0	2.34127e-035	0	1	4	4
63	25.8786	0.0348301	0	0	2.34127e-035	0	1	4	4
62	25.9367	0.0464401	0	0	2.34127e-035	0	1	4	4
61	25.9831	0.0406342	0	0	2.34127e-035	0	1	4	4
61	26.0238	0.191565	0	0	2.34127e-035	0	1	4	4
61	26.285	0.0348301	0	0	2.34127e-035	0	1	4	4
62	26.552	0.0406361	0	0	2.34127e-035	0	1	4	4
61	26.5927	0.0290241	0	0	2.34127e-035	0	1	4	4
56	26.6217	0.179955	0	0	2.34127e-035	0	1	4	4
65	27.0338	0.0464382	0	0	2.34127e-035	0	1	4	4
65	27.0803	0.0232201	0	0	2.34127e-035	0	1	4	4
62	27.1209	0.0290241	0	0	2.34127e-035	0	1	4	4
70	27.2138	1.06812	0	0	2.34127e-035	0	1	4	4
69	28.3458	0.0348301	0	0	2.34127e-035	0	1	4	4
65	28.5025	0.0406361	0	0	2.34127e-035	0	1	4	4
65	28.5663	0.197369	0	0	2.34127e-035	0	1	4	4
65	28.845	0.1161	0	0	2.34127e-035	0	1	4	4
65	28.9611	0.0812702	0	0	2.34127e-035	0	1	4	4
65	29.054	0.0406342	0	0	2.34127e-035	0	1	4	4
