midiPitch 	 onsetSec 	 durationSec 	 onsetBeats 	 onsetBarIndex 	 onsetBar 	 durationBeats 	 velocity  	 numerator 	 denominator 
76	0.0464399	0.191565	0	0	0	0	1	4	4
72	0.226395	0.0754649	0	0	0	0	1	4	4
72	0.301859	0.0232199	0	0	0	0	1	4	4
77	0.493424	0.0290249	0	0	0	0	1	4	4
79	0.702404	0.029025	0	0	0	0	1	4	4
79	0.737234	0.029025	0	0	0	0	1	4	4
67	0.766258	0.24381	0	0	0	0	1	4	4
67	1.01587	0.0522449	0	0	0	0	1	4	4
71	1.06812	0.0580499	0	0	0	0	1	4	4
67	1.2829	0.1161	0	0	0	0	1	4	4
67	1.399	0.0522449	0	0	0	0	1	4	4
55	1.46866	0.377324	0	0	0	0	1	4	4
55	1.8634	0.12771	0	0	0	0	1	4	4
59	2.02594	0.0522449	0	0	0	0	1	4	4
59	2.18848	0.0522449	0	0	0	0	1	4	4
59	2.47873	0.232199	0	0	0	0	1	4	4
59	2.78639	0.0348299	0	0	0	0	1	4	4
50	2.9141	0.0522449	0	0	0	0	1	4	4
53	2.96635	0.0232201	0	0	0	0	1	4	4
69	2.92571	0.191565	0	0	0	0	1	4	4
62	3.11728	0.168345	0	0	0	0	1	4	4
67	3.29143	0.0290248	0	0	0	0	1	4	4
62	3.32045	0.08127	0	0	0	0	1	4	4
64	3.43075	0.191565	0	0	0	0	1	4	4
67	3.62231	0.20898	0	0	0	0	1	4	4
62	3.91837	0.621134	0	0	0	0	1	4	4
62	4.6498	0.121904	0	0	0	0	1	4	4
62	5.01551	0.394739	0	0	0	0	1	4	4
59	5.42186	0.110295	0	0	0	0	1	4	4
62	6.11846	0.0522451	0	0	0	0	1	4	4
62	6.40871	0.0696602	0	0	0	0	1	4	4
62	6.47837	0.0406346	0	0	0	0	1	4	4
62	6.6351	0.0348301	0	0	0	0	1	4	4
62	6.73959	0.0464401	0	0	0	0	1	4	4
62	6.81506	0.0464396	0	0	0	0	1	4	4
62	6.8615	0.0580497	0	0	0	0	1	4	4
62	6.93116	0.13932	0	0	0	0	1	4	4
64	7.07048	0.238005	0	0	0	0	1	4	4
62	7.43039	0.0696597	0	0	0	0	1	4	4
55	7.50005	0.307664	0	0	0	0	1	4	4
67	9.43311	0.191565	0	0	0	0	1	4	4
62	9.84526	0.145124	0	0	0	0	1	4	4
62	10.1239	0.162539	0	0	0	0	1	4	4
62	10.2864	0.26703	0	0	0	0	1	4	4
64	10.5651	0.238005	0	0	0	0	1	4	4
62	10.954	0.133514	0	0	0	0	1	4	4
62	11.0875	0.290249	0	0	0	0	1	4	4
62	11.3778	0.272835	0	0	0	0	1	4	4
62	11.6506	0.0870752	0	0	0	0	1	4	4
62	11.7377	0.0696592	0	0	0	0	1	4	4
62	11.8073	0.0348301	0	0	0	0	1	4	4
62	11.8422	0.26703	0	0	0	0	1	4	4
62	12.1092	0.110294	0	0	0	0	1	4	4
62	12.2195	0.0986853	0	0	0	0	1	4	4
62	12.3182	0.0928793	0	0	0	0	1	4	4
62	12.4111	0.214785	0	0	0	0	1	4	4
62	12.6317	0.0812702	0	0	0	0	1	4	4
62	12.7245	0.383129	0	0	0	0	1	4	4
62	13.1077	0.31347	0	0	0	0	1	4	4
62	13.4211	0.0928793	0	0	0	0	1	4	4
62	13.514	0.226395	0	0	0	0	1	4	4
62	13.7694	0.121904	0	0	0	0	1	4	4
62	13.9436	0.0870752	0	0	0	0	1	4	4
62	14.0307	0.226394	0	0	0	0	1	4	4
62	14.4718	0.0638552	0	0	0	0	1	4	4
62	14.7853	0.139319	0	0	0	0	1	4	4
65	15.331	0.261225	0	0	0	0	1	4	4
62	15.6444	0.238005	0	0	0	0	1	4	4
59	16.0566	0.174149	0	0	0	0	1	4	4
62	16.8171	0.319275	0	0	0	0	1	4	4
62	17.3511	0.13932	0	0	0	0	1	4	4
62	17.6472	0.261225	0	0	0	0	1	4	4
60	18.2509	0.261225	0	0	0	0	1	4	4
57	20.2072	0.238005	0	0	0	0	1	4	4
55	20.5032	0.481813	0	0	0	0	1	4	4
55	20.985	0.12771	0	0	0	0	1	4	4
55	21.4727	0.226395	0	0	0	0	1	4	4
55	21.7803	0.568888	0	0	0	0	1	4	4
55	22.355	0.481813	0	0	0	0	1	4	4
55	22.8368	0.0464401	0	0	0	0	1	4	4
52	22.8717	0.278641	0	0	0	0	1	4	4
52	23.1503	0.0406342	0	0	0	0	1	4	4
52	23.2316	0.0928802	0	0	0	0	1	4	4
52	23.3244	0.18576	0	0	0	0	1	4	4
57	23.6785	0.319273	0	0	0	0	1	4	4
55	24.0443	0.563084	0	0	0	0	1	4	4
59	24.7989	0.0580482	0	0	0	0	1	4	4
62	25.5071	0.917189	0	0	0	0	1	4	4
62	26.8074	0.110294	0	0	0	0	1	4	4
67	27.0396	0.16254	0	0	0	0	1	4	4
65	27.2893	0.249615	0	0	0	0	1	4	4
62	27.5795	0.272835	0	0	0	0	1	4	4
67	28.4561	0.0522442	0	0	0	0	1	4	4
67	28.5083	0.145124	0	0	0	0	1	4	4
