midiPitch 	 onsetSec 	 durationSec 	 onsetBeats 	 onsetBarIndex 	 onsetBar 	 durationBeats 	 velocity  	 numerator 	 denominator 
64	0.261224	0.029025	0	0	3.72359e-035	0	1	4	4
65	0.383129	0.13932	0	0	3.72359e-035	0	1	4	4
65	0.574694	0.145125	0	0	3.72359e-035	0	1	4	4
67	0.882358	0.25542	0	0	3.72359e-035	0	1	4	4
65	1.27129	0.255419	0	0	3.72359e-035	0	1	4	4
63	1.52671	0.354104	0	0	3.72359e-035	0	1	4	4
62	1.88082	0.261224	0	0	3.72359e-035	0	1	4	4
60	2.18268	0.528254	0	0	3.72359e-035	0	1	4	4
58	2.71093	0.0290251	0	0	3.72359e-035	0	1	4	4
67	3.70358	0.0870748	0	0	3.72359e-035	0	1	4	4
65	3.87773	0.10449	0	0	3.72359e-035	0	1	4	4
69	4.12154	0.0348296	0	0	3.72359e-035	0	1	4	4
67	4.15637	0.0348301	0	0	3.72359e-035	0	1	4	4
65	4.19701	0.0464401	0	0	3.72359e-035	0	1	4	4
63	4.37696	0.249615	0	0	3.72359e-035	0	1	4	4
63	4.74848	0.0232196	0	0	3.72359e-035	0	1	4	4
62	4.77751	0.435374	0	0	3.72359e-035	0	1	4	4
65	5.85143	0.145124	0	0	3.72359e-035	0	1	4	4
65	6.01977	0.13932	0	0	3.72359e-035	0	1	4	4
67	6.1707	0.12771	0	0	3.72359e-035	0	1	4	4
65	6.29841	0.301859	0	0	3.72359e-035	0	1	4	4
65	6.6293	0.0464401	0	0	3.72359e-035	0	1	4	4
62	7.0995	0.290249	0	0	3.72359e-035	0	1	4	4
60	7.65678	0.301859	0	0	3.72359e-035	0	1	4	4
65	8.34757	0.31347	0	0	3.72359e-035	0	1	4	4
63	8.68426	0.0754642	0	0	3.72359e-035	0	1	4	4
65	9.15447	0.0870752	0	0	3.72359e-035	0	1	4	4
65	9.24154	0.18576	0	0	3.72359e-035	0	1	4	4
64	9.46794	0.162539	0	0	3.72359e-035	0	1	4	4
65	9.67111	0.139319	0	0	3.72359e-035	0	1	4	4
66	9.81043	0.0580502	0	0	3.72359e-035	0	1	4	4
62	9.86848	0.290249	0	0	3.72359e-035	0	1	4	4
28172448	10.6347	0.10449	0	0	3.72359e-035	0	1	4	4
62	10.7392	0.0232191	0	0	3.72359e-035	0	1	4	4
63	10.7857	0.156735	0	0	3.72359e-035	0	1	4	4
65	10.9424	0.17415	0	0	3.72359e-035	0	1	4	4
65	11.1166	0.168344	0	0	3.72359e-035	0	1	4	4
67	11.4358	0.307665	0	0	3.72359e-035	0	1	4	4
65	11.7435	0.156734	0	0	3.72359e-035	0	1	4	4
66	11.9989	0.156735	0	0	3.72359e-035	0	1	4	4
65	12.1556	0.127709	0	0	3.72359e-035	0	1	4	4
67	12.3008	0.0232201	0	0	3.72359e-035	0	1	4	4
68	12.3298	0.0696602	0	0	3.72359e-035	0	1	4	4
65	12.3995	0.214784	0	0	3.72359e-035	0	1	4	4
62	12.62	0.27864	0	0	3.72359e-035	0	1	4	4
60	13.0148	0.261224	0	0	3.72359e-035	0	1	4	4
60	13.276	0.383129	0	0	3.72359e-035	0	1	4	4
63	18.1638	0.290249	0	0	3.72359e-035	0	1	4	4
65	18.4541	0.110296	0	0	3.72359e-035	0	1	4	4
65	18.5644	0.0290241	0	0	3.72359e-035	0	1	4	4
65	18.6224	0.267029	0	0	3.72359e-035	0	1	4	4
65	18.8894	0.0522442	0	0	3.72359e-035	0	1	4	4
67	21.7745	0.0812702	0	0	3.72359e-035	0	1	4	4
67	21.8558	0.267031	0	0	3.72359e-035	0	1	4	4
68	22.1228	0.0696583	0	0	3.72359e-035	0	1	4	4
68	22.2157	0.214785	0	0	3.72359e-035	0	1	4	4
71	22.4305	0.452789	0	0	3.72359e-035	0	1	4	4
65	28.1542	0.249615	0	0	3.72359e-035	0	1	4	4
65	28.845	0.267029	0	0	3.72359e-035	0	1	4	4
61	29.1585	0.0348301	0	0	3.72359e-035	0	1	4	4
