midiPitch 	 onsetSec 	 durationSec 	 onsetBeats 	 onsetBarIndex 	 onsetBar 	 durationBeats 	 velocity  	 numerator 	 denominator 
63	0.15093	0.02322	0	0	3.53522e-035	0	1	4	4
66	0.261224	0.0348299	0	0	3.53522e-035	0	1	4	4
66	0.301859	0.0638549	0	0	3.53522e-035	0	1	4	4
62	0.383129	0.0638549	0	0	3.53522e-035	0	1	4	4
61	0.446984	0.0928798	0	0	3.53522e-035	0	1	4	4
68	0.702404	0.0464399	0	0	3.53522e-035	0	1	4	4
63	0.754649	0.0580499	0	0	3.53522e-035	0	1	4	4
63	0.830113	0.0348299	0	0	3.53522e-035	0	1	4	4
63	0.870748	0.0696599	0	0	3.53522e-035	0	1	4	4
62	1.08553	0.0406349	0	0	3.53522e-035	0	1	4	4
62	1.12617	0.0406349	0	0	3.53522e-035	0	1	4	4
63	1.69506	0.0232199	0	0	3.53522e-035	0	1	4	4
63	1.72408	0.0522449	0	0	3.53522e-035	0	1	4	4
63	1.81116	0.029025	0	0	3.53522e-035	0	1	4	4
61	1.86921	0.0232199	0	0	3.53522e-035	0	1	4	4
62	1.92726	0.0638548	0	0	3.53522e-035	0	1	4	4
64	2.30458	0.0522449	0	0	3.53522e-035	0	1	4	4
68	2.37424	0.0812697	0	0	3.53522e-035	0	1	4	4
61	2.45551	0.0580499	0	0	3.53522e-035	0	1	4	4
61	2.53098	0.0638547	0	0	3.53522e-035	0	1	4	4
62	2.76898	0.17415	0	0	3.53522e-035	0	1	4	4
64	4.01705	0.0580497	0	0	3.53522e-035	0	1	4	4
64	4.09832	0.0464401	0	0	3.53522e-035	0	1	4	4
64	4.14476	0.0290246	0	0	3.53522e-035	0	1	4	4
61	4.24345	0.238004	0	0	3.53522e-035	0	1	4	4
66	4.48726	0.145125	0	0	3.53522e-035	0	1	4	4
59	4.63238	0.0232201	0	0	3.53522e-035	0	1	4	4
60	4.70204	0.121905	0	0	3.53522e-035	0	1	4	4
66	4.98068	0.156735	0	0	3.53522e-035	0	1	4	4
63	5.2419	0.0348301	0	0	3.53522e-035	0	1	4	4
62	6.46095	0.0464401	0	0	3.53522e-035	0	1	4	4
61	6.89633	0.20898	0	0	3.53522e-035	0	1	4	4
61	7.17497	0.0638547	0	0	3.53522e-035	0	1	4	4
65	7.85415	0.0580502	0	0	3.53522e-035	0	1	4	4
58	7.92961	0.0232196	0	0	3.53522e-035	0	1	4	4
62	7.95283	0.0406351	0	0	3.53522e-035	0	1	4	4
62	8.23147	0.191565	0	0	3.53522e-035	0	1	4	4
62	8.64363	0.133514	0	0	3.53522e-035	0	1	4	4
62	8.82358	0.121904	0	0	3.53522e-035	0	1	4	4
62	9.50857	0.139319	0	0	3.53522e-035	0	1	4	4
58	9.70014	0.191565	0	0	3.53522e-035	0	1	4	4
58	9.8917	0.0406351	0	0	3.53522e-035	0	1	4	4
62	10.5709	0.19737	0	0	3.53522e-035	0	1	4	4
59	11.0179	0.162539	0	0	3.53522e-035	0	1	4	4
62	12.0279	0.133515	0	0	3.53522e-035	0	1	4	4
62	12.1847	0.121904	0	0	3.53522e-035	0	1	4	4
62	12.4517	0.15093	0	0	3.53522e-035	0	1	4	4
62	13.4269	0.110295	0	0	3.53522e-035	0	1	4	4
62	13.7114	0.150929	0	0	3.53522e-035	0	1	4	4
62	14.408	0.116099	0	0	3.53522e-035	0	1	4	4
63	14.8724	0.179955	0	0	3.53522e-035	0	1	4	4
63	15.0523	0.0464392	0	0	3.53522e-035	0	1	4	4
62	15.0988	0.261225	0	0	3.53522e-035	0	1	4	4
63	15.5225	0.261225	0	0	3.53522e-035	0	1	4	4
62	15.7838	0.110294	0	0	3.53522e-035	0	1	4	4
66	16.2191	0.029026	0	0	3.53522e-035	0	1	4	4
57	16.8519	0.0754662	0	0	3.53522e-035	0	1	4	4
57	16.9273	0.110294	0	0	3.53522e-035	0	1	4	4
62	17.0551	0.029026	0	0	3.53522e-035	0	1	4	4
62	17.0899	0.13932	0	0	3.53522e-035	0	1	4	4
64	17.3395	0.121904	0	0	3.53522e-035	0	1	4	4
62	17.473	0.133516	0	0	3.53522e-035	0	1	4	4
63	18.3438	0.1161	0	0	3.53522e-035	0	1	4	4
63	18.4831	0.110294	0	0	3.53522e-035	0	1	4	4
63	18.5934	0.0348301	0	0	3.53522e-035	0	1	4	4
62	18.7443	0.0232201	0	0	3.53522e-035	0	1	4	4
61	18.7675	0.0232201	0	0	3.53522e-035	0	1	4	4
62	18.7907	0.0638542	0	0	3.53522e-035	0	1	4	4
65	18.8836	0.0232201	0	0	3.53522e-035	0	1	4	4
66	18.9185	0.0812702	0	0	3.53522e-035	0	1	4	4
62	19.1623	0.0348301	0	0	3.53522e-035	0	1	4	4
62	19.1971	0.0870743	0	0	3.53522e-035	0	1	4	4
62	19.2842	0.0348301	0	0	3.53522e-035	0	1	4	4
61	19.4757	0.0870743	0	0	3.53522e-035	0	1	4	4
62	19.6093	0.191565	0	0	3.53522e-035	0	1	4	4
58	20.0098	0.145124	0	0	3.53522e-035	0	1	4	4
62	20.1665	0.0348301	0	0	3.53522e-035	0	1	4	4
63	20.2014	0.104488	0	0	3.53522e-035	0	1	4	4
62	20.4452	0.0406361	0	0	3.53522e-035	0	1	4	4
64	20.4858	0.133514	0	0	3.53522e-035	0	1	4	4
63	20.7238	0.121906	0	0	3.53522e-035	0	1	4	4
61	20.8747	0.029026	0	0	3.53522e-035	0	1	4	4
65	21.0315	0.0696602	0	0	3.53522e-035	0	1	4	4
66	21.3682	0.0754662	0	0	3.53522e-035	0	1	4	4
67	21.5249	0.0348301	0	0	3.53522e-035	0	1	4	4
67	21.7513	0.325081	0	0	3.53522e-035	0	1	4	4
67	22.2041	0.0870762	0	0	3.53522e-035	0	1	4	4
67	22.3376	0.0522442	0	0	3.53522e-035	0	1	4	4
67	22.4363	0.0232201	0	0	3.53522e-035	0	1	4	4
67	22.5059	0.0580482	0	0	3.53522e-035	0	1	4	4
67	22.7556	0.0754662	0	0	3.53522e-035	0	1	4	4
63	22.8426	0.0464401	0	0	3.53522e-035	0	1	4	4
67	22.8891	0.0638542	0	0	3.53522e-035	0	1	4	4
61	23.3825	0.12771	0	0	3.53522e-035	0	1	4	4
62	23.5102	0.0696583	0	0	3.53522e-035	0	1	4	4
66	23.6727	0.0928802	0	0	3.53522e-035	0	1	4	4
62	23.7946	0.0522461	0	0	3.53522e-035	0	1	4	4
54	23.9572	0.0348301	0	0	3.53522e-035	0	1	4	4
64	24.1952	0.0464401	0	0	3.53522e-035	0	1	4	4
61	24.2649	0.150928	0	0	3.53522e-035	0	1	4	4
64	24.5087	0.1161	0	0	3.53522e-035	0	1	4	4
62	24.6538	0.0348301	0	0	3.53522e-035	0	1	4	4
66	24.706	0.0464401	0	0	3.53522e-035	0	1	4	4
61	24.7583	0.0464401	0	0	3.53522e-035	0	1	4	4
61	24.8047	0.0232201	0	0	3.53522e-035	0	1	4	4
66	25.0659	0.0290241	0	0	3.53522e-035	0	1	4	4
63	25.1995	0.0348301	0	0	3.53522e-035	0	1	4	4
60	25.3156	0.0232201	0	0	3.53522e-035	0	1	4	4
63	25.362	0.110294	0	0	3.53522e-035	0	1	4	4
63	25.5013	0.0522461	0	0	3.53522e-035	0	1	4	4
63	25.5594	0.0638542	0	0	3.53522e-035	0	1	4	4
61	25.7625	0.214785	0	0	3.53522e-035	0	1	4	4
62	26.9526	0.0638542	0	0	3.53522e-035	0	1	4	4
62	27.0164	0.0232201	0	0	3.53522e-035	0	1	4	4
63	27.6317	0.145124	0	0	3.53522e-035	0	1	4	4
62	27.7769	0.0638542	0	0	3.53522e-035	0	1	4	4
68	28.0265	0.0290241	0	0	3.53522e-035	0	1	4	4
62	28.8508	0.0522442	0	0	3.53522e-035	0	1	4	4
