midiPitch 	 onsetSec 	 durationSec 	 onsetBeats 	 onsetBarIndex 	 onsetBar 	 durationBeats 	 velocity  	 numerator 	 denominator 
62	2.41488	0.0638549	0	0	2.50095e-035	0	1	4	4
60	2.61224	0.0580499	0	0	2.50095e-035	0	1	4	4
62	2.87927	0.0406349	0	0	2.50095e-035	0	1	4	4
62	2.92571	0.133515	0	0	2.50095e-035	0	1	4	4
62	3.05923	0.20898	0	0	2.50095e-035	0	1	4	4
61	3.27982	0.226395	0	0	2.50095e-035	0	1	4	4
58	3.52943	0.110295	0	0	2.50095e-035	0	1	4	4
59	3.721	0.087075	0	0	2.50095e-035	0	1	4	4
68	3.98803	0.0812697	0	0	2.50095e-035	0	1	4	4
60	4.0693	0.0290251	0	0	2.50095e-035	0	1	4	4
67	4.09832	0.0232201	0	0	2.50095e-035	0	1	4	4
68	4.20281	0.528254	0	0	2.50095e-035	0	1	4	4
67	5.39864	0.17415	0	0	2.50095e-035	0	1	4	4
60	5.59601	0.226395	0	0	2.50095e-035	0	1	4	4
60	5.8224	0.203175	0	0	2.50095e-035	0	1	4	4
60	6.02558	0.0232201	0	0	2.50095e-035	0	1	4	4
61	6.0546	0.406349	0	0	2.50095e-035	0	1	4	4
62	6.56544	0.1161	0	0	2.50095e-035	0	1	4	4
62	6.68154	0.0232201	0	0	2.50095e-035	0	1	4	4
63	6.76281	0.0754647	0	0	2.50095e-035	0	1	4	4
63	6.83828	0.0522451	0	0	2.50095e-035	0	1	4	4
61	7.25043	0.0406351	0	0	2.50095e-035	0	1	4	4
60	7.29687	0.261224	0	0	2.50095e-035	0	1	4	4
60	8.60299	0.179955	0	0	2.50095e-035	0	1	4	4
61	9.28798	0.145124	0	0	2.50095e-035	0	1	4	4
59	9.45052	0.0290251	0	0	2.50095e-035	0	1	4	4
58	9.49116	0.116099	0	0	2.50095e-035	0	1	4	4
61	9.60726	0.470204	0	0	2.50095e-035	0	1	4	4
63	10.1529	0.13932	0	0	2.50095e-035	0	1	4	4
59	10.7741	0.1161	0	0	2.50095e-035	0	1	4	4
61	11.1746	0.0812702	0	0	2.50095e-035	0	1	4	4
54	11.3371	0.0522442	0	0	2.50095e-035	0	1	4	4
54	11.3894	0.0232201	0	0	2.50095e-035	0	1	4	4
54	11.8132	0.388934	0	0	2.50095e-035	0	1	4	4
68	14.2977	0.214785	0	0	2.50095e-035	0	1	4	4
71	14.5125	0.0870752	0	0	2.50095e-035	0	1	4	4
75	15.6154	0.162539	0	0	2.50095e-035	0	1	4	4
75	15.778	0.0290251	0	0	2.50095e-035	0	1	4	4
68	16.0682	0.354103	0	0	2.50095e-035	0	1	4	4
63	16.579	0.208979	0	0	2.50095e-035	0	1	4	4
71	17.0609	0.13932	0	0	2.50095e-035	0	1	4	4
58	17.2002	0.0812683	0	0	2.50095e-035	0	1	4	4
60	17.4092	0.232199	0	0	2.50095e-035	0	1	4	4
60	17.6414	0.0232201	0	0	2.50095e-035	0	1	4	4
63	17.8852	0.278639	0	0	2.50095e-035	0	1	4	4
58	18.2161	0.139318	0	0	2.50095e-035	0	1	4	4
58	18.5411	0.400543	0	0	2.50095e-035	0	1	4	4
58	18.9417	0.197371	0	0	2.50095e-035	0	1	4	4
67	19.6441	0.0812702	0	0	2.50095e-035	0	1	4	4
63	20.956	0.0406342	0	0	2.50095e-035	0	1	4	4
62	20.9966	0.168344	0	0	2.50095e-035	0	1	4	4
62	21.165	0.18576	0	0	2.50095e-035	0	1	4	4
62	21.4668	0.243809	0	0	2.50095e-035	0	1	4	4
62	21.7107	0.12771	0	0	2.50095e-035	0	1	4	4
60	22.2563	0.0986843	0	0	2.50095e-035	0	1	4	4
58	22.4885	0.214785	0	0	2.50095e-035	0	1	4	4
63	23.2954	0.104488	0	0	2.50095e-035	0	1	4	4
59	23.7308	0.110294	0	0	2.50095e-035	0	1	4	4
63	24.4216	0.16254	0	0	2.50095e-035	0	1	4	4
61	24.6364	0.214785	0	0	2.50095e-035	0	1	4	4
62	24.8512	0.0870743	0	0	2.50095e-035	0	1	4	4
60	24.9382	0.272835	0	0	2.50095e-035	0	1	4	4
60	25.2807	0.0986843	0	0	2.50095e-035	0	1	4	4
60	25.3794	0.0696602	0	0	2.50095e-035	0	1	4	4
59	25.4549	0.597914	0	0	2.50095e-035	0	1	4	4
61	27.4924	0.197369	0	0	2.50095e-035	0	1	4	4
61	27.6898	0.220591	0	0	2.50095e-035	0	1	4	4
61	27.9104	0.249615	0	0	2.50095e-035	0	1	4	4
59	28.16	0.0812702	0	0	2.50095e-035	0	1	4	4
61	28.2413	0.0522442	0	0	2.50095e-035	0	1	4	4
61	28.2935	0.0580502	0	0	2.50095e-035	0	1	4	4
61	28.3516	0.226395	0	0	2.50095e-035	0	1	4	4
59	28.7637	0.13932	0	0	2.50095e-035	0	1	4	4
