midiPitch 	 onsetSec 	 durationSec 	 onsetBeats 	 onsetBarIndex 	 onsetBar 	 durationBeats 	 velocity  	 numerator 	 denominator 
61	0.261224	0.110295	0	0	0	0	1	4	4
61	0.371519	0.0348299	0	0	0	0	1	4	4
61	0.499229	0.12771	0	0	0	0	1	4	4
61	0.679184	0.191565	0	0	0	0	1	4	4
61	0.882358	0.0870748	0	0	0	0	1	4	4
58	1.49769	0.10449	0	0	0	0	1	4	4
65	1.69506	0.0348299	0	0	0	0	1	4	4
58	1.80535	0.10449	0	0	0	0	1	4	4
58	2.01433	0.0232198	0	0	0	0	1	4	4
64	2.07819	0.0232201	0	0	0	0	1	4	4
63	2.10721	0.0406349	0	0	0	0	1	4	4
63	2.2059	0.0348299	0	0	0	0	1	4	4
63	2.24073	0.0290251	0	0	0	0	1	4	4
61	2.45551	0.156735	0	0	0	0	1	4	4
64	2.65288	0.0348301	0	0	0	0	1	4	4
63	2.71093	0.121905	0	0	0	0	1	4	4
63	2.89669	0.0406351	0	0	0	0	1	4	4
63	2.95474	0.0522449	0	0	0	0	1	4	4
63	3.0244	0.0406349	0	0	0	0	1	4	4
63	3.34948	0.1161	0	0	0	0	1	4	4
63	3.46558	0.0696599	0	0	0	0	1	4	4
65	3.88934	0.0580499	0	0	0	0	1	4	4
60	4.00544	0.162539	0	0	0	0	1	4	4
61	4.19701	0.0580497	0	0	0	0	1	4	4
66	5.06776	0.0696597	0	0	0	0	1	4	4
63	5.13741	0.110295	0	0	0	0	1	4	4
63	5.29995	0.0406351	0	0	0	0	1	4	4
66	5.50893	0.0522451	0	0	0	0	1	4	4
63	5.61923	0.0928798	0	0	0	0	1	4	4
63	5.71211	0.0696602	0	0	0	0	1	4	4
63	5.78177	0.0232196	0	0	0	0	1	4	4
63	6.01397	0.0406351	0	0	0	0	1	4	4
65	6.42612	0.0232201	0	0	0	0	1	4	4
65	6.44934	0.0232201	0	0	0	0	1	4	4
63	6.52481	0.0232201	0	0	0	0	1	4	4
67	6.65252	0.133515	0	0	0	0	1	4	4
64	6.80925	0.0232196	0	0	0	0	1	4	4
63	6.83247	0.0290251	0	0	0	0	1	4	4
65	6.88472	0.0232201	0	0	0	0	1	4	4
63	6.93696	0.0232201	0	0	0	0	1	4	4
61	7.29687	0.0232201	0	0	0	0	1	4	4
61	7.36653	0.0928798	0	0	0	0	1	4	4
61	7.52327	0.168344	0	0	0	0	1	4	4
61	7.75546	0.0348301	0	0	0	0	1	4	4
61	7.88317	0.0348301	0	0	0	0	1	4	4
64	8.06313	0.0464392	0	0	0	0	1	4	4
64	8.10957	0.0232201	0	0	0	0	1	4	4
64	8.13279	0.0290251	0	0	0	0	1	4	4
65	8.16762	0.121905	0	0	0	0	1	4	4
65	8.28952	0.116099	0	0	0	0	1	4	4
65	8.56236	0.133515	0	0	0	0	1	4	4
65	8.69587	0.18576	0	0	0	0	1	4	4
63	9.00934	0.0348301	0	0	0	0	1	4	4
65	9.08481	0.20898	0	0	0	0	1	4	4
63	9.47955	0.168344	0	0	0	0	1	4	4
63	9.64789	0.0464401	0	0	0	0	1	4	4
63	9.69433	0.17415	0	0	0	0	1	4	4
61	9.91492	0.0754642	0	0	0	0	1	4	4
63	10.1761	0.179955	0	0	0	0	1	4	4
65	10.3561	0.400545	0	0	0	0	1	4	4
78110880	10.8147	0.30186	0	0	0	0	1	4	4
64	11.4707	0.0232201	0	0	0	0	1	4	4
68	11.6854	0.18576	0	0	0	0	1	4	4
68	11.8712	0.10449	0	0	0	0	1	4	4
68	12.0918	0.0696602	0	0	0	0	1	4	4
68	12.1615	0.0812693	0	0	0	0	1	4	4
68	12.3356	0.127709	0	0	0	0	1	4	4
68	12.5968	0.121904	0	0	0	0	1	4	4
68	12.7187	0.0522451	0	0	0	0	1	4	4
68	12.771	0.0928793	0	0	0	0	1	4	4
63	12.9683	0.2322	0	0	0	0	1	4	4
58	13.7172	0.31347	0	0	0	0	1	4	4
58	14.8143	0.0696592	0	0	0	0	1	4	4
68	15.1917	0.18576	0	0	0	0	1	4	4
68	15.4239	0.150929	0	0	0	0	1	4	4
68	15.5748	0.0464401	0	0	0	0	1	4	4
69	15.6328	0.0812693	0	0	0	0	1	4	4
68	15.8708	0.150929	0	0	0	0	1	4	4
68	16.0218	0.203175	0	0	0	0	1	4	4
68	16.2249	0.121904	0	0	0	0	1	4	4
70	16.5094	0.0406342	0	0	0	0	1	4	4
68	16.55	0.348299	0	0	0	0	1	4	4
68	16.8983	0.0406361	0	0	0	0	1	4	4
70	17.1828	0.0696602	0	0	0	0	1	4	4
70	17.2524	0.325079	0	0	0	0	1	4	4
58	18.2683	0.179955	0	0	0	0	1	4	4
69	18.4773	0.208981	0	0	0	0	1	4	4
70	18.9243	0.139318	0	0	0	0	1	4	4
70	19.0636	0.255421	0	0	0	0	1	4	4
74	19.3654	0.121904	0	0	0	0	1	4	4
76	19.5628	0.0870762	0	0	0	0	1	4	4
68	19.6557	0.203175	0	0	0	0	1	4	4
68	20.0562	0.133514	0	0	0	0	1	4	4
70	20.1898	0.179955	0	0	0	0	1	4	4
74	20.4858	0.145124	0	0	0	0	1	4	4
75	20.6309	0.220589	0	0	0	0	1	4	4
77	20.8515	0.0696602	0	0	0	0	1	4	4
70	20.9618	0.110296	0	0	0	0	1	4	4
70	21.0721	0.226395	0	0	0	0	1	4	4
64	21.2985	0.0232182	0	0	0	0	1	4	4
61	21.432	0.319273	0	0	0	0	1	4	4
68	22.0125	0.16254	0	0	0	0	1	4	4
70	22.1751	0.0406342	0	0	0	0	1	4	4
70	22.2331	0.116098	0	0	0	0	1	4	4
68	22.4479	0.127708	0	0	0	0	1	4	4
70	22.6627	0.150928	0	0	0	0	1	4	4
68	22.9123	0.0928783	0	0	0	0	1	4	4
70	23.1155	0.145124	0	0	0	0	1	4	4
68	23.2896	0.238005	0	0	0	0	1	4	4
70	23.5276	0.18576	0	0	0	0	1	4	4
69	23.7134	0.0406342	0	0	0	0	1	4	4
70	23.7772	0.156734	0	0	0	0	1	4	4
73	24.2184	0.371519	0	0	0	0	1	4	4
68	24.619	0.597914	0	0	0	0	1	4	4
70	25.2169	0.15093	0	0	0	0	1	4	4
73	25.7451	0.168344	0	0	0	0	1	4	4
73	25.9135	0.139318	0	0	0	0	1	4	4
73	26.2153	0.133514	0	0	0	0	1	4	4
73	26.4069	0.0754642	0	0	0	0	1	4	4
73	26.6391	0.0928783	0	0	0	0	1	4	4
73	26.8539	0.0754662	0	0	0	0	1	4	4
