midiPitch 	 onsetSec 	 durationSec 	 onsetBeats 	 onsetBarIndex 	 onsetBar 	 durationBeats 	 velocity  	 numerator 	 denominator 
70	0.301859	0.0232199	0	0	0	0	1	4	4
68	0.464399	0.0232199	0	0	0	0	1	4	4
68	0.493424	0.02322	0	0	0	0	1	4	4
69	1.23066	0.0232199	0	0	0	0	1	4	4
71	1.30612	0.03483	0	0	0	0	1	4	4
71	1.34095	0.0522449	0	0	0	0	1	4	4
69	1.57315	0.0232199	0	0	0	0	1	4	4
68	1.59637	0.0232199	0	0	0	0	1	4	4
69	1.71828	0.0232199	0	0	0	0	1	4	4
71	1.81696	0.0232199	0	0	0	0	1	4	4
67	1.86921	0.0232199	0	0	0	0	1	4	4
71	1.90404	0.0348299	0	0	0	0	1	4	4
72	2.11882	0.0406349	0	0	0	0	1	4	4
72	2.15946	0.0406349	0	0	0	0	1	4	4
72	2.33361	0.0290251	0	0	0	0	1	4	4
72	2.50195	0.10449	0	0	0	0	1	4	4
72	2.68771	0.0348299	0	0	0	0	1	4	4
72	2.76317	0.0348299	0	0	0	0	1	4	4
72	2.87927	0.0232198	0	0	0	0	1	4	4
72	2.94893	0.0348301	0	0	0	0	1	4	4
72	2.98957	0.0290248	0	0	0	0	1	4	4
72	3.09406	0.0290248	0	0	0	0	1	4	4
73	3.30304	0.0406349	0	0	0	0	1	4	4
73	3.52943	0.0348299	0	0	0	0	1	4	4
72	3.57007	0.0290251	0	0	0	0	1	4	4
73	3.62812	0.0290251	0	0	0	0	1	4	4
73	3.67456	0.0290251	0	0	0	0	1	4	4
73	3.721	0.0406351	0	0	0	0	1	4	4
72	3.76744	0.0290251	0	0	0	0	1	4	4
73	3.79646	0.0406349	0	0	0	0	1	4	4
73	3.94739	0.0406349	0	0	0	0	1	4	4
65	3.99964	0.0232201	0	0	0	0	1	4	4
73	4.10993	0.0580497	0	0	0	0	1	4	4
73	4.24925	0.0232196	0	0	0	0	1	4	4
73	4.39438	0.0522451	0	0	0	0	1	4	4
73	4.58594	0.0348301	0	0	0	0	1	4	4
73	4.70204	0.0986848	0	0	0	0	1	4	4
73	4.91102	0.0406351	0	0	0	0	1	4	4
73	5.03293	0.0406346	0	0	0	0	1	4	4
74	5.40444	0.0232201	0	0	0	0	1	4	4
72	5.79338	0.0290251	0	0	0	0	1	4	4
74	6.14748	0.0290251	0	0	0	0	1	4	4
76	6.47256	0.0406346	0	0	0	0	1	4	4
77	6.80345	0.0290246	0	0	0	0	1	4	4
71	6.97179	0.0290251	0	0	0	0	1	4	4
74	7.15175	0.0290251	0	0	0	0	1	4	4
77	7.25043	0.0348301	0	0	0	0	1	4	4
76	7.4478	0.0232201	0	0	0	0	1	4	4
77	7.59293	0.0290251	0	0	0	0	1	4	4
71	7.62776	0.0290246	0	0	0	0	1	4	4
77	7.6858	0.0290251	0	0	0	0	1	4	4
79	8.07474	0.0406342	0	0	0	0	1	4	4
78	8.19084	0.0290251	0	0	0	0	1	4	4
79	8.21986	0.0232201	0	0	0	0	1	4	4
79	8.25469	0.0406351	0	0	0	0	1	4	4
79	8.48689	0.0406342	0	0	0	0	1	4	4
79	8.66685	0.0406351	0	0	0	0	1	4	4
79	8.75392	0.0290251	0	0	0	0	1	4	4
79	8.78295	0.0348301	0	0	0	0	1	4	4
79	8.99193	0.0232201	0	0	0	0	1	4	4
80	9.02095	0.0348301	0	0	0	0	1	4	4
79	9.08481	0.0232201	0	0	0	0	1	4	4
59	9.96136	0.0232201	0	0	0	0	1	4	4
60	10.1529	0.0464401	0	0	0	0	1	4	4
60	10.2284	0.0696602	0	0	0	0	1	4	4
72	12.3762	0.0696592	0	0	0	0	1	4	4
72	12.4459	0.0696602	0	0	0	0	1	4	4
72	12.7187	0.0406351	0	0	0	0	1	4	4
71	12.8	0.0232191	0	0	0	0	1	4	4
71	12.8755	0.0232201	0	0	0	0	1	4	4
83	13.0206	0.0232201	0	0	0	0	1	4	4
83	13.2644	0.0232201	0	0	0	0	1	4	4
84	13.305	0.0290251	0	0	0	0	1	4	4
83	13.543	0.0290251	0	0	0	0	1	4	4
83	13.7985	0.0290251	0	0	0	0	1	4	4
84	14.1758	0.0406351	0	0	0	0	1	4	4
84	14.4602	0.0290251	0	0	0	0	1	4	4
84	14.7156	0.0232201	0	0	0	0	1	4	4
85	14.8317	0.0290251	0	0	0	0	1	4	4
85	14.9014	0.0290251	0	0	0	0	1	4	4
84	14.9362	0.0232201	0	0	0	0	1	4	4
85	14.9769	0.0348301	0	0	0	0	1	4	4
85	15.093	0.0290251	0	0	0	0	1	4	4
85	15.2497	0.0232191	0	0	0	0	1	4	4
85	15.2787	0.0232201	0	0	0	0	1	4	4
85	15.3194	0.0290251	0	0	0	0	1	4	4
86	15.3542	0.0232201	0	0	0	0	1	4	4
85	15.4122	0.0232201	0	0	0	0	1	4	4
86	15.4587	0.0232191	0	0	0	0	1	4	4
85	15.4819	0.0348301	0	0	0	0	1	4	4
85	15.5341	0.0406351	0	0	0	0	1	4	4
85	15.7373	0.0232201	0	0	0	0	1	4	4
85	15.8302	0.0696592	0	0	0	0	1	4	4
85	15.9057	0.0464401	0	0	0	0	1	4	4
85	15.9927	0.0290251	0	0	0	0	1	4	4
85	16.0334	0.0870743	0	0	0	0	1	4	4
85	16.1785	0.0232201	0	0	0	0	1	4	4
85	16.2017	0.0464401	0	0	0	0	1	4	4
85	16.3468	0.0232201	0	0	0	0	1	4	4
85	16.3933	0.0232201	0	0	0	0	1	4	4
85	16.4165	0.0290241	0	0	0	0	1	4	4
86	16.4862	0.0232201	0	0	0	0	1	4	4
86	16.579	0.0290241	0	0	0	0	1	4	4
86	16.6603	0.0232201	0	0	0	0	1	4	4
87	16.9448	0.0348301	0	0	0	0	1	4	4
86	16.997	0.0348282	0	0	0	0	1	4	4
86	17.0493	0.0754642	0	0	0	0	1	4	4
86	17.1305	0.0406342	0	0	0	0	1	4	4
87	17.2176	0.0348301	0	0	0	0	1	4	4
87	17.3976	0.0232201	0	0	0	0	1	4	4
86	17.5427	0.0232201	0	0	0	0	1	4	4
86	17.6065	0.0232182	0	0	0	0	1	4	4
87	17.6472	0.0290241	0	0	0	0	1	4	4
86	17.711	0.0232201	0	0	0	0	1	4	4
87	17.7342	0.0348301	0	0	0	0	1	4	4
87	17.8329	0.0348301	0	0	0	0	1	4	4
87	17.8678	0.029026	0	0	0	0	1	4	4
87	18.0477	0.0232201	0	0	0	0	1	4	4
87	18.0709	0.029026	0	0	0	0	1	4	4
87	18.1232	0.0232201	0	0	0	0	1	4	4
87	18.2335	0.0232201	0	0	0	0	1	4	4
87	18.5005	0.0232201	0	0	0	0	1	4	4
87	18.5644	0.0232201	0	0	0	0	1	4	4
87	18.5876	0.0522442	0	0	0	0	1	4	4
87	18.872	0.0232201	0	0	0	0	1	4	4
88	19.1971	0.0290241	0	0	0	0	1	4	4
87	19.2319	0.0348301	0	0	0	0	1	4	4
87	19.6034	0.0232201	0	0	0	0	1	4	4
80	20.213	0.0638542	0	0	0	0	1	4	4
81	20.2768	0.0290241	0	0	0	0	1	4	4
81	20.3175	0.029026	0	0	0	0	1	4	4
69	20.4219	0.0232201	0	0	0	0	1	4	4
65	21.5133	0.0232182	0	0	0	0	1	4	4
67	21.6932	0.0232201	0	0	0	0	1	4	4
63	21.7919	0.0464401	0	0	0	0	1	4	4
66	21.9312	0.0232182	0	0	0	0	1	4	4
69	22.1054	0.029026	0	0	0	0	1	4	4
67	22.2621	0.029026	0	0	0	0	1	4	4
63	22.5408	0.0638542	0	0	0	0	1	4	4
65	22.6162	0.0232201	0	0	0	0	1	4	4
63	22.6627	0.0232201	0	0	0	0	1	4	4
63	22.7846	0.0348301	0	0	0	0	1	4	4
65	22.8542	0.0290241	0	0	0	0	1	4	4
63	23.0168	0.0232201	0	0	0	0	1	4	4
63	23.1735	0.0406361	0	0	0	0	1	4	4
63	23.2258	0.0232201	0	0	0	0	1	4	4
63	23.3361	0.0348301	0	0	0	0	1	4	4
63	23.3941	0.0290241	0	0	0	0	1	4	4
63	23.4231	0.0232201	0	0	0	0	1	4	4
68	23.458	0.0232201	0	0	0	0	1	4	4
63	23.6669	0.0870743	0	0	0	0	1	4	4
63	23.7656	0.0348301	0	0	0	0	1	4	4
65	23.8585	0.0232201	0	0	0	0	1	4	4
63	23.8991	0.0580502	0	0	0	0	1	4	4
63	24.0965	0.0232201	0	0	0	0	1	4	4
63	24.1778	0.0232182	0	0	0	0	1	4	4
63	24.8744	0.0348301	0	0	0	0	1	4	4
63	24.9731	0.029026	0	0	0	0	1	4	4
63	25.0079	0.0232201	0	0	0	0	1	4	4
61	25.0892	0.0290241	0	0	0	0	1	4	4
66	25.1937	0.0232182	0	0	0	0	1	4	4
63	25.2575	0.0348301	0	0	0	0	1	4	4
63	25.3156	0.0232201	0	0	0	0	1	4	4
62	25.3446	0.029026	0	0	0	0	1	4	4
63	25.4781	0.0464401	0	0	0	0	1	4	4
63	25.5478	0.0580502	0	0	0	0	1	4	4
64	25.6464	0.0348301	0	0	0	0	1	4	4
64	25.6871	0.0232201	0	0	0	0	1	4	4
63	25.7683	0.0232201	0	0	0	0	1	4	4
63	25.8032	0.0754642	0	0	0	0	1	4	4
62	25.9889	0.029026	0	0	0	0	1	4	4
62	26.0992	0.029026	0	0	0	0	1	4	4
64	26.1457	0.0232201	0	0	0	0	1	4	4
64	26.3488	0.0232201	0	0	0	0	1	4	4
63	26.4533	0.0290241	0	0	0	0	1	4	4
62	26.6275	0.0348282	0	0	0	0	1	4	4
63	26.761	0.0522442	0	0	0	0	1	4	4
61	26.9642	0.0290241	0	0	0	0	1	4	4
63	27.0687	0.029026	0	0	0	0	1	4	4
63	27.1093	0.0348301	0	0	0	0	1	4	4
63	27.2196	0.0696602	0	0	0	0	1	4	4
63	27.3763	0.029026	0	0	0	0	1	4	4
63	27.6201	0.0348301	0	0	0	0	1	4	4
63	27.8465	0.0464382	0	0	0	0	1	4	4
