midiPitch 	 onsetSec 	 durationSec 	 onsetBeats 	 onsetBarIndex 	 onsetBar 	 durationBeats 	 velocity  	 numerator 	 denominator 
54	2.49615	0.0580499	0	0	0	0	1	4	4
55	2.75156	0.0232201	0	0	0	0	1	4	4
56	2.78059	0.0464399	0	0	0	0	1	4	4
55	2.87347	0.0290248	0	0	0	0	1	4	4
54	2.9083	0.145125	0	0	0	0	1	4	4
56	3.23338	0.133515	0	0	0	0	1	4	4
53	3.54104	0.0928798	0	0	0	0	1	4	4
55	3.71519	0.0348299	0	0	0	0	1	4	4
55	3.79066	0.0522449	0	0	0	0	1	4	4
53	3.8429	0.16254	0	0	0	0	1	4	4
53	4.01705	0.0638547	0	0	0	0	1	4	4
53	4.16798	0.16254	0	0	0	0	1	4	4
52	4.56272	0.191565	0	0	0	0	1	4	4
54	5.06195	0.127709	0	0	0	0	1	4	4
52	5.18966	0.0348301	0	0	0	0	1	4	4
56	5.66567	0.133514	0	0	0	0	1	4	4
54	5.99655	0.0464401	0	0	0	0	1	4	4
53	6.18812	0.179955	0	0	0	0	1	4	4
53	6.36807	0.0348301	0	0	0	0	1	4	4
55	6.44934	0.10449	0	0	0	0	1	4	4
54	6.57125	0.0522447	0	0	0	0	1	4	4
53	6.84408	0.15093	0	0	0	0	1	4	4
53	7.2156	0.127709	0	0	0	0	1	4	4
58	7.37234	0.35991	0	0	0	0	1	4	4
53	7.74966	0.18576	0	0	0	0	1	4	4
57	8.20245	0.0754652	0	0	0	0	1	4	4
55	8.36499	0.0406351	0	0	0	0	1	4	4
54	8.54494	0.0406351	0	0	0	0	1	4	4
53	8.67846	0.0580492	0	0	0	0	1	4	4
53	8.85841	0.18576	0	0	0	0	1	4	4
54	9.27057	0.0870743	0	0	0	0	1	4	4
53	9.55501	0.37152	0	0	0	0	1	4	4
58	10.06	0.168344	0	0	0	0	1	4	4
58	10.2284	0.0348301	0	0	0	0	1	4	4
54	10.269	0.0290251	0	0	0	0	1	4	4
54	10.5535	0.191565	0	0	0	0	1	4	4
54	10.9308	0.0928793	0	0	0	0	1	4	4
53	11.1746	0.0638552	0	0	0	0	1	4	4
52	11.3952	0.2322	0	0	0	0	1	4	4
51	11.6796	0.0522451	0	0	0	0	1	4	4
55	11.7319	0.0406351	0	0	0	0	1	4	4
55	11.7841	0.0754642	0	0	0	0	1	4	4
58	12.7303	0.156734	0	0	0	0	1	4	4
59	12.8871	0.156734	0	0	0	0	1	4	4
58	13.0438	0.0232201	0	0	0	0	1	4	4
52	13.067	0.17415	0	0	0	0	1	4	4
57	13.5721	0.0406351	0	0	0	0	1	4	4
55	13.7172	0.0870752	0	0	0	0	1	4	4
54	13.8275	0.121904	0	0	0	0	1	4	4
53	14.2338	0.179955	0	0	0	0	1	4	4
55	14.4196	0.116099	0	0	0	0	1	4	4
53	14.5589	0.18576	0	0	0	0	1	4	4
53	14.7447	0.0348301	0	0	0	0	1	4	4
54	14.8724	0.0986853	0	0	0	0	1	4	4
56	14.9885	0.0580502	0	0	0	0	1	4	4
56	15.2149	0.0348301	0	0	0	0	1	4	4
54	15.2555	0.0290241	0	0	0	0	1	4	4
54	15.2903	0.0464401	0	0	0	0	1	4	4
59	15.4006	0.307664	0	0	0	0	1	4	4
57	15.7083	0.0290251	0	0	0	0	1	4	4
56	15.7431	0.0754652	0	0	0	0	1	4	4
53	15.8766	0.0580492	0	0	0	0	1	4	4
60	16.2888	0.13932	0	0	0	0	1	4	4
53	16.6139	0.110296	0	0	0	0	1	4	4
59	16.8867	0.0754662	0	0	0	0	1	4	4
59	16.9622	0.0986843	0	0	0	0	1	4	4
55	17.0725	0.0464401	0	0	0	0	1	4	4
55	17.1189	0.0696602	0	0	0	0	1	4	4
54	17.5253	0.0696602	0	0	0	0	1	4	4
53	17.5949	0.0638542	0	0	0	0	1	4	4
53	17.6588	0.133514	0	0	0	0	1	4	4
54	17.9781	0.121904	0	0	0	0	1	4	4
58	18.1	0.12771	0	0	0	0	1	4	4
59	18.2277	0.162539	0	0	0	0	1	4	4
53	18.3902	0.18576	0	0	0	0	1	4	4
60	18.9417	0.156734	0	0	0	0	1	4	4
55	19.2842	0.10449	0	0	0	0	1	4	4
54	19.5918	0.0290241	0	0	0	0	1	4	4
54	19.6267	0.150928	0	0	0	0	1	4	4
57	19.8182	0.127708	0	0	0	0	1	4	4
54	20.0156	0.133514	0	0	0	0	1	4	4
58	20.3349	0.0870743	0	0	0	0	1	4	4
58	20.4219	0.029026	0	0	0	0	1	4	4
52	20.6658	0.0232201	0	0	0	0	1	4	4
54	20.9096	0.0580502	0	0	0	0	1	4	4
53	20.9676	0.0406342	0	0	0	0	1	4	4
66	21.136	0.0696602	0	0	0	0	1	4	4
54	21.2056	0.191565	0	0	0	0	1	4	4
55	21.5888	0.121904	0	0	0	0	1	4	4
56	22.1576	0.0406361	0	0	0	0	1	4	4
59	22.3202	0.156734	0	0	0	0	1	4	4
54	22.6511	0.0580502	0	0	0	0	1	4	4
54	22.9181	0.12771	0	0	0	0	1	4	4
54	23.098	0.0348301	0	0	0	0	1	4	4
58	23.6437	0.0406342	0	0	0	0	1	4	4
57	23.7772	0.0464401	0	0	0	0	1	4	4
57	23.9049	0.191565	0	0	0	0	1	4	4
52	24.0965	0.0406342	0	0	0	0	1	4	4
53	24.6596	0.110294	0	0	0	0	1	4	4
56	24.8918	0.0812702	0	0	0	0	1	4	4
55	25.0601	0.0406361	0	0	0	0	1	4	4
57	25.1008	0.0348301	0	0	0	0	1	4	4
57	25.5361	0.0580502	0	0	0	0	1	4	4
54	25.6058	0.145124	0	0	0	0	1	4	4
59	26.0586	0.0580502	0	0	0	0	1	4	4
59	26.1166	0.1161	0	0	0	0	1	4	4
56	26.2153	0.145124	0	0	0	0	1	4	4
55	26.5578	0.0406342	0	0	0	0	1	4	4
53	26.6043	0.0406342	0	0	0	0	1	4	4
54	26.7842	0.104488	0	0	0	0	1	4	4
57	27.179	0.121904	0	0	0	0	1	4	4
56	27.5969	0.127708	0	0	0	0	1	4	4
65	28.2935	0.12771	0	0	0	0	1	4	4
56	28.5954	0.0986862	0	0	0	0	1	4	4
55	28.6941	0.0232182	0	0	0	0	1	4	4
58	28.7173	0.208981	0	0	0	0	1	4	4
