midiPitch 	 onsetSec 	 durationSec 	 onsetBeats 	 onsetBarIndex 	 onsetBar 	 durationBeats 	 velocity  	 numerator 	 denominator 
65	0.0406349	0.110295	0	0	2.38838e-035	0	1	4	4
65	0.20898	0.0696598	0	0	2.38838e-035	0	1	4	4
65	0.278639	0.0348299	0	0	2.38838e-035	0	1	4	4
65	0.371519	0.13932	0	0	2.38838e-035	0	1	4	4
66	0.510839	0.0348299	0	0	2.38838e-035	0	1	4	4
65	0.574694	0.0638549	0	0	2.38838e-035	0	1	4	4
65	0.789478	0.168345	0	0	2.38838e-035	0	1	4	4
68	1.20744	0.0464399	0	0	2.38838e-035	0	1	4	4
64	1.41642	0.029025	0	0	2.38838e-035	0	1	4	4
59	2.10721	0.0232198	0	0	2.38838e-035	0	1	4	4
59	2.13043	0.0522449	0	0	2.38838e-035	0	1	4	4
65	2.2059	0.145125	0	0	2.38838e-035	0	1	4	4
67	2.38005	0.0406349	0	0	2.38838e-035	0	1	4	4
68	2.42068	0.243809	0	0	2.38838e-035	0	1	4	4
67	2.66449	0.0232201	0	0	2.38838e-035	0	1	4	4
68	2.71093	0.336689	0	0	2.38838e-035	0	1	4	4
69	3.04762	0.0232198	0	0	2.38838e-035	0	1	4	4
68	3.11147	0.18576	0	0	2.38838e-035	0	1	4	4
68	3.45977	0.10449	0	0	2.38838e-035	0	1	4	4
67	3.77905	0.0406349	0	0	2.38838e-035	0	1	4	4
65	3.9532	0.354104	0	0	2.38838e-035	0	1	4	4
70	5.03873	0.0232201	0	0	2.38838e-035	0	1	4	4
67	5.08517	0.156735	0	0	2.38838e-035	0	1	4	4
67	5.2419	0.214785	0	0	2.38838e-035	0	1	4	4
65	5.67728	0.301859	0	0	2.38838e-035	0	1	4	4
69	6.50159	0.0232196	0	0	2.38838e-035	0	1	4	4
67	7.22141	0.0290246	0	0	2.38838e-035	0	1	4	4
64	7.45361	0.0232201	0	0	2.38838e-035	0	1	4	4
65	7.70322	0.0348296	0	0	2.38838e-035	0	1	4	4
65	7.77288	0.0290251	0	0	2.38838e-035	0	1	4	4
65	7.84834	0.0406351	0	0	2.38838e-035	0	1	4	4
63	8.33016	0.0580502	0	0	2.38838e-035	0	1	4	4
65	8.38821	0.0290251	0	0	2.38838e-035	0	1	4	4
63	8.77134	0.12771	0	0	2.38838e-035	0	1	4	4
68	8.90485	0.0290241	0	0	2.38838e-035	0	1	4	4
69	9.18349	0.0290251	0	0	2.38838e-035	0	1	4	4
68	9.31701	0.0522442	0	0	2.38838e-035	0	1	4	4
68	9.36925	0.0232201	0	0	2.38838e-035	0	1	4	4
72	9.5434	0.156735	0	0	2.38838e-035	0	1	4	4
68	9.70014	0.0464392	0	0	2.38838e-035	0	1	4	4
68	9.74658	0.0986853	0	0	2.38838e-035	0	1	4	4
68	9.93814	0.0986843	0	0	2.38838e-035	0	1	4	4
68	10.06	0.0464401	0	0	2.38838e-035	0	1	4	4
67	10.3677	0.0232201	0	0	2.38838e-035	0	1	4	4
72	10.5767	0.121905	0	0	2.38838e-035	0	1	4	4
72	10.6986	0.0232201	0	0	2.38838e-035	0	1	4	4
58	11.3488	0.0870743	0	0	2.38838e-035	0	1	4	4
70	11.4358	0.0406351	0	0	2.38838e-035	0	1	4	4
61	11.7551	0.0348291	0	0	2.38838e-035	0	1	4	4
62	11.8886	0.313469	0	0	2.38838e-035	0	1	4	4
75	12.2369	0.0580502	0	0	2.38838e-035	0	1	4	4
67	12.295	0.0812702	0	0	2.38838e-035	0	1	4	4
74	12.9277	0.0580502	0	0	2.38838e-035	0	1	4	4
74	12.9858	0.0638542	0	0	2.38838e-035	0	1	4	4
73	13.5198	0.191565	0	0	2.38838e-035	0	1	4	4
72	13.7114	0.0406351	0	0	2.38838e-035	0	1	4	4
74	13.7578	0.0290251	0	0	2.38838e-035	0	1	4	4
65	14.3035	0.0986853	0	0	2.38838e-035	0	1	4	4
67	14.408	0.104489	0	0	2.38838e-035	0	1	4	4
65	14.5125	0.19737	0	0	2.38838e-035	0	1	4	4
65	14.7853	0.156734	0	0	2.38838e-035	0	1	4	4
65	14.942	0.150929	0	0	2.38838e-035	0	1	4	4
67	15.2323	0.0290251	0	0	2.38838e-035	0	1	4	4
56	15.8476	0.127709	0	0	2.38838e-035	0	1	4	4
56	16.0856	0.0986862	0	0	2.38838e-035	0	1	4	4
59	16.2366	0.0986843	0	0	2.38838e-035	0	1	4	4
60	16.3352	0.226395	0	0	2.38838e-035	0	1	4	4
58	16.6139	0.0812702	0	0	2.38838e-035	0	1	4	4
58	16.7242	0.290249	0	0	2.38838e-035	0	1	4	4
60	17.026	0.197369	0	0	2.38838e-035	0	1	4	4
58	17.2234	0.261225	0	0	2.38838e-035	0	1	4	4
59	17.4846	0.15093	0	0	2.38838e-035	0	1	4	4
55	17.6472	0.15093	0	0	2.38838e-035	0	1	4	4
63	18.5179	0.110294	0	0	2.38838e-035	0	1	4	4
59	18.9185	0.0406361	0	0	2.38838e-035	0	1	4	4
58	18.9649	0.10449	0	0	2.38838e-035	0	1	4	4
58	19.0694	0.0290241	0	0	2.38838e-035	0	1	4	4
58	19.1042	0.313469	0	0	2.38838e-035	0	1	4	4
59	19.4177	0.16254	0	0	2.38838e-035	0	1	4	4
59	21.7281	0.029026	0	0	2.38838e-035	0	1	4	4
59	21.7803	0.185759	0	0	2.38838e-035	0	1	4	4
59	21.9661	0.133516	0	0	2.38838e-035	0	1	4	4
59	22.1867	0.15093	0	0	2.38838e-035	0	1	4	4
60	22.3376	0.179955	0	0	2.38838e-035	0	1	4	4
59	22.535	0.261225	0	0	2.38838e-035	0	1	4	4
59	22.7962	0.10449	0	0	2.38838e-035	0	1	4	4
60	22.9007	0.179955	0	0	2.38838e-035	0	1	4	4
59	23.1039	0.255419	0	0	2.38838e-035	0	1	4	4
72	25.0427	0.16254	0	0	2.38838e-035	0	1	4	4
73	25.2807	0.10449	0	0	2.38838e-035	0	1	4	4
75	25.391	0.0290241	0	0	2.38838e-035	0	1	4	4
71	25.6232	0.325081	0	0	2.38838e-035	0	1	4	4
71	26.0005	0.15093	0	0	2.38838e-035	0	1	4	4
71	26.1515	0.168344	0	0	2.38838e-035	0	1	4	4
70	26.3198	0.0290241	0	0	2.38838e-035	0	1	4	4
71	26.3546	0.0348301	0	0	2.38838e-035	0	1	4	4
70	26.3953	0.110294	0	0	2.38838e-035	0	1	4	4
70	26.5288	0.197371	0	0	2.38838e-035	0	1	4	4
67	26.761	0.0522442	0	0	2.38838e-035	0	1	4	4
68	26.8132	0.0406342	0	0	2.38838e-035	0	1	4	4
65	27.0803	0.0870762	0	0	2.38838e-035	0	1	4	4
68	27.2022	0.0232201	0	0	2.38838e-035	0	1	4	4
68	27.2312	0.325079	0	0	2.38838e-035	0	1	4	4
67	27.5621	0.0290241	0	0	2.38838e-035	0	1	4	4
65	27.6027	0.17415	0	0	2.38838e-035	0	1	4	4
66	27.8001	0.406349	0	0	2.38838e-035	0	1	4	4
