midiPitch 	 onsetSec 	 durationSec 	 onsetBeats 	 onsetBarIndex 	 onsetBar 	 durationBeats 	 velocity  	 numerator 	 denominator 
73	0.133515	0.0290249	0	0	3.70496e-035	0	1	4	4
69	0.16254	0.02322	0	0	3.70496e-035	0	1	4	4
69	0.18576	0.02322	0	0	3.70496e-035	0	1	4	4
65	0.267029	0.10449	0	0	3.70496e-035	0	1	4	4
65	0.371519	0.0464399	0	0	3.70496e-035	0	1	4	4
65	0.417959	0.0406349	0	0	3.70496e-035	0	1	4	4
65	0.464399	0.0464399	0	0	3.70496e-035	0	1	4	4
64	0.615329	0.029025	0	0	3.70496e-035	0	1	4	4
64	0.917188	0.02322	0	0	3.70496e-035	0	1	4	4
65	0.946213	0.0406349	0	0	3.70496e-035	0	1	4	4
64	1.01587	0.0928799	0	0	3.70496e-035	0	1	4	4
66	1.19002	0.0290248	0	0	3.70496e-035	0	1	4	4
65	1.22485	0.0232199	0	0	3.70496e-035	0	1	4	4
65	1.25388	0.133515	0	0	3.70496e-035	0	1	4	4
65	1.44544	0.0406349	0	0	3.70496e-035	0	1	4	4
65	1.5151	0.10449	0	0	3.70496e-035	0	1	4	4
65	1.61959	0.029025	0	0	3.70496e-035	0	1	4	4
66	1.66023	0.0580499	0	0	3.70496e-035	0	1	4	4
65	1.81696	0.029025	0	0	3.70496e-035	0	1	4	4
65	1.88662	0.0580499	0	0	3.70496e-035	0	1	4	4
62	2.04336	0.0232201	0	0	3.70496e-035	0	1	4	4
62	2.07819	0.0232201	0	0	3.70496e-035	0	1	4	4
67	2.10141	0.0290248	0	0	3.70496e-035	0	1	4	4
62	2.13043	0.1161	0	0	3.70496e-035	0	1	4	4
67	2.3278	0.0232198	0	0	3.70496e-035	0	1	4	4
67	2.35683	0.0464399	0	0	3.70496e-035	0	1	4	4
67	2.4381	0.2322	0	0	3.70496e-035	0	1	4	4
65	2.75737	0.0348301	0	0	3.70496e-035	0	1	4	4
65	2.7922	0.121905	0	0	3.70496e-035	0	1	4	4
65	3.06503	0.0580499	0	0	3.70496e-035	0	1	4	4
65	3.16952	0.0464399	0	0	3.70496e-035	0	1	4	4
66	3.30304	0.0232198	0	0	3.70496e-035	0	1	4	4
64	3.34948	0.0522449	0	0	3.70496e-035	0	1	4	4
64	3.40172	0.0406349	0	0	3.70496e-035	0	1	4	4
64	3.45397	0.0290248	0	0	3.70496e-035	0	1	4	4
66	3.58168	0.0290251	0	0	3.70496e-035	0	1	4	4
65	3.68617	0.0464399	0	0	3.70496e-035	0	1	4	4
65	3.73841	0.0406349	0	0	3.70496e-035	0	1	4	4
64	3.79066	0.0348299	0	0	3.70496e-035	0	1	4	4
65	3.85451	0.0290248	0	0	3.70496e-035	0	1	4	4
65	3.88934	0.0928798	0	0	3.70496e-035	0	1	4	4
65	4.04608	0.0870748	0	0	3.70496e-035	0	1	4	4
67	4.22603	0.255419	0	0	3.70496e-035	0	1	4	4
67	4.5395	0.0290246	0	0	3.70496e-035	0	1	4	4
67	4.57433	0.0638552	0	0	3.70496e-035	0	1	4	4
62	4.63819	0.150929	0	0	3.70496e-035	0	1	4	4
67	4.78912	0.0290251	0	0	3.70496e-035	0	1	4	4
67	4.84136	0.0232201	0	0	3.70496e-035	0	1	4	4
67	4.87039	0.0638552	0	0	3.70496e-035	0	1	4	4
67	4.9981	0.0232201	0	0	3.70496e-035	0	1	4	4
67	5.05615	0.0348296	0	0	3.70496e-035	0	1	4	4
67	5.14902	0.0290246	0	0	3.70496e-035	0	1	4	4
59	5.24771	0.203175	0	0	3.70496e-035	0	1	4	4
59	5.47991	0.0812697	0	0	3.70496e-035	0	1	4	4
63	5.67147	0.0232196	0	0	3.70496e-035	0	1	4	4
63	5.83982	0.0232201	0	0	3.70496e-035	0	1	4	4
63	5.87465	0.0232196	0	0	3.70496e-035	0	1	4	4
59	5.89787	0.0522451	0	0	3.70496e-035	0	1	4	4
60	5.96753	0.0232201	0	0	3.70496e-035	0	1	4	4
64	5.99075	0.0348296	0	0	3.70496e-035	0	1	4	4
59	6.08943	0.0290246	0	0	3.70496e-035	0	1	4	4
59	6.14168	0.0290251	0	0	3.70496e-035	0	1	4	4
63	6.18812	0.0232196	0	0	3.70496e-035	0	1	4	4
59	6.24036	0.0522451	0	0	3.70496e-035	0	1	4	4
59	6.32744	0.0290251	0	0	3.70496e-035	0	1	4	4
59	6.43773	0.0406351	0	0	3.70496e-035	0	1	4	4
52	6.69896	0.0406346	0	0	3.70496e-035	0	1	4	4
62	6.89052	0.0290246	0	0	3.70496e-035	0	1	4	4
64	6.92535	0.0232201	0	0	3.70496e-035	0	1	4	4
64	6.98921	0.0290251	0	0	3.70496e-035	0	1	4	4
64	7.02984	0.0290251	0	0	3.70496e-035	0	1	4	4
64	7.08209	0.10449	0	0	3.70496e-035	0	1	4	4
64	7.2156	0.0580497	0	0	3.70496e-035	0	1	4	4
64	7.27365	0.0638547	0	0	3.70496e-035	0	1	4	4
64	7.33751	0.18576	0	0	3.70496e-035	0	1	4	4
64	7.57551	0.0464401	0	0	3.70496e-035	0	1	4	4
64	7.62195	0.0290246	0	0	3.70496e-035	0	1	4	4
64	7.72644	0.0754647	0	0	3.70496e-035	0	1	4	4
62	7.81932	0.0754647	0	0	3.70496e-035	0	1	4	4
59	7.99927	0.0812702	0	0	3.70496e-035	0	1	4	4
59	8.22567	0.0348301	0	0	3.70496e-035	0	1	4	4
59	8.2663	0.0464392	0	0	3.70496e-035	0	1	4	4
59	8.33016	0.0232201	0	0	3.70496e-035	0	1	4	4
59	8.35918	0.0580502	0	0	3.70496e-035	0	1	4	4
59	8.43465	0.0928793	0	0	3.70496e-035	0	1	4	4
59	8.53914	0.0812702	0	0	3.70496e-035	0	1	4	4
59	8.64363	0.116099	0	0	3.70496e-035	0	1	4	4
59	8.75973	0.0232201	0	0	3.70496e-035	0	1	4	4
59	8.82939	0.156734	0	0	3.70496e-035	0	1	4	4
60	9.00934	0.0928802	0	0	3.70496e-035	0	1	4	4
59	9.10222	0.0232191	0	0	3.70496e-035	0	1	4	4
59	9.15447	0.0232201	0	0	3.70496e-035	0	1	4	4
60	9.17769	0.110295	0	0	3.70496e-035	0	1	4	4
59	9.28798	0.0348301	0	0	3.70496e-035	0	1	4	4
59	9.45633	0.0290251	0	0	3.70496e-035	0	1	4	4
65	10.031	0.156734	0	0	3.70496e-035	0	1	4	4
60	10.3097	0.0928793	0	0	3.70496e-035	0	1	4	4
60	10.4141	0.0754652	0	0	3.70496e-035	0	1	4	4
60	10.5128	0.0406351	0	0	3.70496e-035	0	1	4	4
59	10.7624	0.0348301	0	0	3.70496e-035	0	1	4	4
65	10.9018	0.0580502	0	0	3.70496e-035	0	1	4	4
65	11.0527	0.0290251	0	0	3.70496e-035	0	1	4	4
60	11.0933	0.0232201	0	0	3.70496e-035	0	1	4	4
60	11.134	0.0290251	0	0	3.70496e-035	0	1	4	4
65	11.2559	0.0870752	0	0	3.70496e-035	0	1	4	4
67	11.5984	0.133515	0	0	3.70496e-035	0	1	4	4
62	11.8248	0.0348301	0	0	3.70496e-035	0	1	4	4
55	12.1673	0.179955	0	0	3.70496e-035	0	1	4	4
59	12.4343	0.0232201	0	0	3.70496e-035	0	1	4	4
53	12.4865	0.0348301	0	0	3.70496e-035	0	1	4	4
53	12.5272	0.0986843	0	0	3.70496e-035	0	1	4	4
53	12.6258	0.17415	0	0	3.70496e-035	0	1	4	4
60	12.8464	0.0406351	0	0	3.70496e-035	0	1	4	4
54	12.9277	0.0290251	0	0	3.70496e-035	0	1	4	4
60	13.1077	0.0696602	0	0	3.70496e-035	0	1	4	4
53	13.2876	0.0348301	0	0	3.70496e-035	0	1	4	4
53	13.3747	0.0406351	0	0	3.70496e-035	0	1	4	4
53	13.4153	0.0986843	0	0	3.70496e-035	0	1	4	4
60	15.2149	0.0406351	0	0	3.70496e-035	0	1	4	4
58	15.5922	0.0290251	0	0	3.70496e-035	0	1	4	4
59	15.8418	0.0348301	0	0	3.70496e-035	0	1	4	4
59	15.9347	0.0406351	0	0	3.70496e-035	0	1	4	4
59	15.9811	0.162539	0	0	3.70496e-035	0	1	4	4
59	16.1843	0.0696583	0	0	3.70496e-035	0	1	4	4
59	16.2598	0.139318	0	0	3.70496e-035	0	1	4	4
60	16.4281	0.0232201	0	0	3.70496e-035	0	1	4	4
59	16.4571	0.133516	0	0	3.70496e-035	0	1	4	4
59	16.7764	0.16254	0	0	3.70496e-035	0	1	4	4
56	17.0028	0.12771	0	0	3.70496e-035	0	1	4	4
57	17.1305	0.0754642	0	0	3.70496e-035	0	1	4	4
56	17.2176	0.15093	0	0	3.70496e-035	0	1	4	4
56	17.5543	0.110294	0	0	3.70496e-035	0	1	4	4
59	20.1665	0.0754642	0	0	3.70496e-035	0	1	4	4
62	20.8747	0.133514	0	0	3.70496e-035	0	1	4	4
59	21.2521	0.0638542	0	0	3.70496e-035	0	1	4	4
63	21.4436	0.0290241	0	0	3.70496e-035	0	1	4	4
61	21.7919	0.0696602	0	0	3.70496e-035	0	1	4	4
59	22.3608	0.0522461	0	0	3.70496e-035	0	1	4	4
58	22.5524	0.10449	0	0	3.70496e-035	0	1	4	4
62	23.1851	0.1161	0	0	3.70496e-035	0	1	4	4
62	23.4173	0.0870743	0	0	3.70496e-035	0	1	4	4
62	23.7308	0.17415	0	0	3.70496e-035	0	1	4	4
64	24.5609	0.0986843	0	0	3.70496e-035	0	1	4	4
60	24.9615	0.0580502	0	0	3.70496e-035	0	1	4	4
62	25.4491	0.10449	0	0	3.70496e-035	0	1	4	4
59	25.9715	0.197369	0	0	3.70496e-035	0	1	4	4
62	26.2095	0.0696583	0	0	3.70496e-035	0	1	4	4
61	26.3314	0.0232201	0	0	3.70496e-035	0	1	4	4
62	26.6391	0.174149	0	0	3.70496e-035	0	1	4	4
60	26.9642	0.104488	0	0	3.70496e-035	0	1	4	4
55	27.4518	0.0638542	0	0	3.70496e-035	0	1	4	4
62	27.655	0.0406342	0	0	3.70496e-035	0	1	4	4
67	27.8872	0.0348301	0	0	3.70496e-035	0	1	4	4
59	27.922	0.0290241	0	0	3.70496e-035	0	1	4	4
67	28.0555	0.156734	0	0	3.70496e-035	0	1	4	4
67	28.4212	0.0290241	0	0	3.70496e-035	0	1	4	4
67	28.578	0.0232201	0	0	3.70496e-035	0	1	4	4
67	28.6186	0.0638561	0	0	3.70496e-035	0	1	4	4
67	28.9379	0.0464401	0	0	3.70496e-035	0	1	4	4
67	28.9901	0.0406361	0	0	3.70496e-035	0	1	4	4
67	29.1004	0.0522442	0	0	3.70496e-035	0	1	4	4
67	29.2629	0.0638542	0	0	3.70496e-035	0	1	4	4
59	29.7099	0.0348282	0	0	3.70496e-035	0	1	4	4
72	29.8086	0.0290241	0	0	3.70496e-035	0	1	4	4
