midiPitch 	 onsetSec 	 durationSec 	 onsetBeats 	 onsetBarIndex 	 onsetBar 	 durationBeats 	 velocity  	 numerator 	 denominator 
82	0.12771	0.249615	0	0	0	0	1	4	4
79	0.383129	0.15093	0	0	0	0	1	4	4
75	0.673379	0.133515	0	0	0	0	1	4	4
77	1.21905	0.03483	0	0	0	0	1	4	4
78	1.2771	0.133515	0	0	0	0	1	4	4
79	1.41061	0.179955	0	0	0	0	1	4	4
75	1.67184	0.0754648	0	0	0	0	1	4	4
84	1.78794	0.191565	0	0	0	0	1	4	4
84	1.9795	0.040635	0	0	0	0	1	4	4
78	2.33941	0.13932	0	0	0	0	1	4	4
79	2.53678	0.17415	0	0	0	0	1	4	4
86	3.45397	0.12771	0	0	0	0	1	4	4
85	3.63392	0.22059	0	0	0	0	1	4	4
84	4.01125	0.1161	0	0	0	0	1	4	4
82	4.16798	0.1161	0	0	0	0	1	4	4
85	4.28408	0.133515	0	0	0	0	1	4	4
84	4.56853	0.16254	0	0	0	0	1	4	4
82	4.82975	0.179955	0	0	0	0	1	4	4
78	5.10839	0.19737	0	0	0	0	1	4	4
79	5.38122	0.156735	0	0	0	0	1	4	4
82	5.5844	0.162539	0	0	0	0	1	4	4
82	5.83982	0.22059	0	0	0	0	1	4	4
78	6.11265	0.110295	0	0	0	0	1	4	4
79	6.22875	0.156735	0	0	0	0	1	4	4
82	6.38549	0.127709	0	0	0	0	1	4	4
84	6.5132	0.13932	0	0	0	0	1	4	4
77	6.92535	0.110295	0	0	0	0	1	4	4
80	7.05306	0.17415	0	0	0	0	1	4	4
77	7.33751	0.121905	0	0	0	0	1	4	4
72	7.62195	0.133514	0	0	0	0	1	4	4
73	7.75546	0.121905	0	0	0	0	1	4	4
74	7.90639	0.226394	0	0	0	0	1	4	4
70	8.16762	0.145124	0	0	0	0	1	4	4
74	8.31274	0.13932	0	0	0	0	1	4	4
77	8.45206	0.116099	0	0	0	0	1	4	4
76	8.56816	0.1161	0	0	0	0	1	4	4
79	8.71329	0.15093	0	0	0	0	1	4	4
77	8.87002	0.116099	0	0	0	0	1	4	4
80	8.98612	0.168344	0	0	0	0	1	4	4
80	9.15447	0.12771	0	0	0	0	1	4	4
77	9.5434	0.110295	0	0	0	0	1	4	4
80	9.70594	0.243809	0	0	0	0	1	4	4
77	9.95555	0.0870752	0	0	0	0	1	4	4
80	10.0717	0.168344	0	0	0	0	1	4	4
77	10.24	0.127709	0	0	0	0	1	4	4
73	10.3677	0.1161	0	0	0	0	1	4	4
74	10.4838	0.162539	0	0	0	0	1	4	4
77	10.6463	0.27864	0	0	0	0	1	4	4
80	11.2036	0.2322	0	0	0	0	1	4	4
80	11.4939	0.179955	0	0	0	0	1	4	4
80	11.6738	0.354104	0	0	0	0	1	4	4
73	12.0686	0.145124	0	0	0	0	1	4	4
74	12.2137	0.133515	0	0	0	0	1	4	4
77	12.3472	0.150929	0	0	0	0	1	4	4
77	12.4981	0.110294	0	0	0	0	1	4	4
77	12.6317	0.0928802	0	0	0	0	1	4	4
81	13.0496	0.191565	0	0	0	0	1	4	4
77	13.2934	0.12771	0	0	0	0	1	4	4
86	13.4385	0.19737	0	0	0	0	1	4	4
87	13.6359	0.0406351	0	0	0	0	1	4	4
87	13.6766	0.0580502	0	0	0	0	1	4	4
85	13.9842	0.127709	0	0	0	0	1	4	4
86	14.1119	0.156734	0	0	0	0	1	4	4
84	14.2745	0.19737	0	0	0	0	1	4	4
84	14.5299	0.150929	0	0	0	0	1	4	4
82	14.6982	0.26703	0	0	0	0	1	4	4
83	14.9653	0.110294	0	0	0	0	1	4	4
82	15.1104	0.1161	0	0	0	0	1	4	4
82	15.2265	0.145124	0	0	0	0	1	4	4
82	15.6793	0.0232191	0	0	0	0	1	4	4
82	15.7083	0.0812702	0	0	0	0	1	4	4
82	15.7896	0.0290251	0	0	0	0	1	4	4
85	16.2249	0.174149	0	0	0	0	1	4	4
84	16.3991	0.145126	0	0	0	0	1	4	4
85	16.5442	0.0348301	0	0	0	0	1	4	4
82	16.6835	0.110296	0	0	0	0	1	4	4
85	16.7938	0.0928783	0	0	0	0	1	4	4
78	17.0667	0.1161	0	0	0	0	1	4	4
78	17.1828	0.15093	0	0	0	0	1	4	4
78	17.3337	0.348299	0	0	0	0	1	4	4
78	17.682	0.174149	0	0	0	0	1	4	4
73	18.2102	0.232201	0	0	0	0	1	4	4
76	18.5005	0.168344	0	0	0	0	1	4	4
74	18.6688	0.029026	0	0	0	0	1	4	4
75	18.7037	0.0580502	0	0	0	0	1	4	4
78	19.0636	0.13932	0	0	0	0	1	4	4
79	19.2726	0.13932	0	0	0	0	1	4	4
82	19.7428	0.1161	0	0	0	0	1	4	4
84	19.8589	0.133514	0	0	0	0	1	4	4
85	20.1317	0.296055	0	0	0	0	1	4	4
82	20.7644	0.12771	0	0	0	0	1	4	4
84	20.8922	0.162539	0	0	0	0	1	4	4
82	21.1476	0.12771	0	0	0	0	1	4	4
84	21.2753	0.104488	0	0	0	0	1	4	4
82	21.4262	0.0928802	0	0	0	0	1	4	4
83	21.5191	0.0580502	0	0	0	0	1	4	4
85	21.5771	0.0986843	0	0	0	0	1	4	4
82	21.7223	0.156734	0	0	0	0	1	4	4
79	21.9719	0.145124	0	0	0	0	1	4	4
78	22.117	0.13932	0	0	0	0	1	4	4
79	22.4015	0.150928	0	0	0	0	1	4	4
79	22.7091	0.162539	0	0	0	0	1	4	4
75	22.9529	0.145124	0	0	0	0	1	4	4
77	23.1155	0.238005	0	0	0	0	1	4	4
75	23.3709	0.1161	0	0	0	0	1	4	4
77	23.4928	0.15093	0	0	0	0	1	4	4
77	23.6437	0.1161	0	0	0	0	1	4	4
75	24.0094	0.1161	0	0	0	0	1	4	4
77	24.1662	0.0812683	0	0	0	0	1	4	4
75	24.2474	0.1161	0	0	0	0	1	4	4
72	24.5319	0.220591	0	0	0	0	1	4	4
72	24.7525	0.238005	0	0	0	0	1	4	4
75	24.9905	0.0928783	0	0	0	0	1	4	4
72	25.2691	0.110294	0	0	0	0	1	4	4
75	25.3794	0.110294	0	0	0	0	1	4	4
84	25.8206	0.110294	0	0	0	0	1	4	4
85	25.9309	0.0348301	0	0	0	0	1	4	4
85	25.9657	0.110294	0	0	0	0	1	4	4
84	26.076	0.12771	0	0	0	0	1	4	4
84	26.2908	0.13932	0	0	0	0	1	4	4
83	26.7842	0.0580502	0	0	0	0	1	4	4
83	26.8423	0.121904	0	0	0	0	1	4	4
83	27.0629	0.17415	0	0	0	0	1	4	4
84	27.237	0.110294	0	0	0	0	1	4	4
82	27.3821	0.127708	0	0	0	0	1	4	4
80	27.5156	0.133514	0	0	0	0	1	4	4
75	27.742	0.0928802	0	0	0	0	1	4	4
75	28.4212	0.168344	0	0	0	0	1	4	4
75	28.5896	0.0754642	0	0	0	0	1	4	4
72	28.6941	0.104488	0	0	0	0	1	4	4
71	28.7985	0.0928802	0	0	0	0	1	4	4
72	28.8914	0.0696602	0	0	0	0	1	4	4
