midiPitch 	 onsetSec 	 durationSec 	 onsetBeats 	 onsetBarIndex 	 onsetBar 	 durationBeats 	 velocity  	 numerator 	 denominator 
62	0.406349	0.145125	0	0	2.57652e-035	0	1	4	4
63	0.626939	0.0232199	0	0	2.57652e-035	0	1	4	4
62	0.789478	0.179955	0	0	2.57652e-035	0	1	4	4
62	1.11456	0.040635	0	0	2.57652e-035	0	1	4	4
62	1.161	0.133515	0	0	2.57652e-035	0	1	4	4
62	1.44544	0.0754648	0	0	2.57652e-035	0	1	4	4
62	1.52091	0.0696598	0	0	2.57652e-035	0	1	4	4
60	1.59057	0.110295	0	0	2.57652e-035	0	1	4	4
59	1.70086	0.0638548	0	0	2.57652e-035	0	1	4	4
59	1.81696	0.0638549	0	0	2.57652e-035	0	1	4	4
59	1.9737	0.029025	0	0	2.57652e-035	0	1	4	4
59	2.00272	0.0870748	0	0	2.57652e-035	0	1	4	4
58	2.9141	0.0406349	0	0	2.57652e-035	0	1	4	4
57	2.96635	0.0290251	0	0	2.57652e-035	0	1	4	4
57	3.01279	0.145125	0	0	2.57652e-035	0	1	4	4
57	3.15791	0.15093	0	0	2.57652e-035	0	1	4	4
57	3.30884	0.0232201	0	0	2.57652e-035	0	1	4	4
55	3.38431	0.1161	0	0	2.57652e-035	0	1	4	4
55	3.50041	0.0580499	0	0	2.57652e-035	0	1	4	4
52	3.61651	0.145125	0	0	2.57652e-035	0	1	4	4
52	3.76163	0.0232198	0	0	2.57652e-035	0	1	4	4
52	3.79066	0.0870748	0	0	2.57652e-035	0	1	4	4
52	3.90095	0.156734	0	0	2.57652e-035	0	1	4	4
57	4.10993	0.0464396	0	0	2.57652e-035	0	1	4	4
58	4.16218	0.0870752	0	0	2.57652e-035	0	1	4	4
57	4.27247	0.301859	0	0	2.57652e-035	0	1	4	4
57	4.57433	0.0406351	0	0	2.57652e-035	0	1	4	4
57	4.62077	0.0580497	0	0	2.57652e-035	0	1	4	4
55	4.85878	0.0348296	0	0	2.57652e-035	0	1	4	4
55	4.89361	0.0232201	0	0	2.57652e-035	0	1	4	4
55	4.92263	0.0290251	0	0	2.57652e-035	0	1	4	4
57	5.06195	0.0870748	0	0	2.57652e-035	0	1	4	4
57	5.23029	0.0348301	0	0	2.57652e-035	0	1	4	4
57	5.31156	0.121905	0	0	2.57652e-035	0	1	4	4
58	5.4741	0.0348296	0	0	2.57652e-035	0	1	4	4
57	5.65406	0.0232201	0	0	2.57652e-035	0	1	4	4
57	5.77016	0.0290246	0	0	2.57652e-035	0	1	4	4
57	5.87465	0.121904	0	0	2.57652e-035	0	1	4	4
57	6.01397	0.0406351	0	0	2.57652e-035	0	1	4	4
57	6.06621	0.0348296	0	0	2.57652e-035	0	1	4	4
57	6.11846	0.0290251	0	0	2.57652e-035	0	1	4	4
52	6.42612	0.0406351	0	0	2.57652e-035	0	1	4	4
53	6.62349	0.0464401	0	0	2.57652e-035	0	1	4	4
53	6.78603	0.0406346	0	0	2.57652e-035	0	1	4	4
55	6.90213	0.0290246	0	0	2.57652e-035	0	1	4	4
54	6.93116	0.0232201	0	0	2.57652e-035	0	1	4	4
53	6.97179	0.0986848	0	0	2.57652e-035	0	1	4	4
52	7.07048	0.0928798	0	0	2.57652e-035	0	1	4	4
52	7.22141	0.110294	0	0	2.57652e-035	0	1	4	4
52	7.3317	0.0812702	0	0	2.57652e-035	0	1	4	4
53	7.48263	0.0232201	0	0	2.57652e-035	0	1	4	4
55	7.57551	0.0406351	0	0	2.57652e-035	0	1	4	4
52	7.76707	0.0406351	0	0	2.57652e-035	0	1	4	4
52	7.83673	0.0406346	0	0	2.57652e-035	0	1	4	4
52	8.01088	0.110294	0	0	2.57652e-035	0	1	4	4
53	8.13279	0.0348301	0	0	2.57652e-035	0	1	4	4
53	8.20245	0.0290251	0	0	2.57652e-035	0	1	4	4
58	8.2605	0.145124	0	0	2.57652e-035	0	1	4	4
57	8.40562	0.0348301	0	0	2.57652e-035	0	1	4	4
57	8.44045	0.0348301	0	0	2.57652e-035	0	1	4	4
57	8.48109	0.0696592	0	0	2.57652e-035	0	1	4	4
57	8.58558	0.0522451	0	0	2.57652e-035	0	1	4	4
57	8.63782	0.19737	0	0	2.57652e-035	0	1	4	4
55	8.93968	0.0638552	0	0	2.57652e-035	0	1	4	4
55	9.01515	0.0348301	0	0	2.57652e-035	0	1	4	4
52	9.11964	0.0812693	0	0	2.57652e-035	0	1	4	4
52	9.20091	0.179955	0	0	2.57652e-035	0	1	4	4
58	9.63048	0.133514	0	0	2.57652e-035	0	1	4	4
58	9.76399	0.0348301	0	0	2.57652e-035	0	1	4	4
57	9.82785	0.0406351	0	0	2.57652e-035	0	1	4	4
57	9.8917	0.0232201	0	0	2.57652e-035	0	1	4	4
57	9.92073	0.272834	0	0	2.57652e-035	0	1	4	4
55	10.2632	0.0580502	0	0	2.57652e-035	0	1	4	4
55	10.3793	0.0232201	0	0	2.57652e-035	0	1	4	4
57	10.4664	0.110294	0	0	2.57652e-035	0	1	4	4
57	10.6638	0.17415	0	0	2.57652e-035	0	1	4	4
57	10.8379	0.0464401	0	0	2.57652e-035	0	1	4	4
58	11.0005	0.1161	0	0	2.57652e-035	0	1	4	4
57	11.1166	0.0580492	0	0	2.57652e-035	0	1	4	4
57	11.1746	0.0232201	0	0	2.57652e-035	0	1	4	4
57	11.2849	0.0232201	0	0	2.57652e-035	0	1	4	4
57	11.3139	0.0638542	0	0	2.57652e-035	0	1	4	4
57	11.3836	0.0580502	0	0	2.57652e-035	0	1	4	4
57	11.4765	0.0870752	0	0	2.57652e-035	0	1	4	4
55	11.61	0.0232201	0	0	2.57652e-035	0	1	4	4
55	11.7145	0.0406351	0	0	2.57652e-035	0	1	4	4
52	11.819	0.0290251	0	0	2.57652e-035	0	1	4	4
52	11.8538	0.0638552	0	0	2.57652e-035	0	1	4	4
57	12.1847	0.0406342	0	0	2.57652e-035	0	1	4	4
55	12.4169	0.0464401	0	0	2.57652e-035	0	1	4	4
55	12.4691	0.0348301	0	0	2.57652e-035	0	1	4	4
57	12.5156	0.0232201	0	0	2.57652e-035	0	1	4	4
55	12.5446	0.0290251	0	0	2.57652e-035	0	1	4	4
57	12.6258	0.0580502	0	0	2.57652e-035	0	1	4	4
52	12.8871	0.0580502	0	0	2.57652e-035	0	1	4	4
53	12.9509	0.0290251	0	0	2.57652e-035	0	1	4	4
51	13.1077	0.0522451	0	0	2.57652e-035	0	1	4	4
53	13.218	0.0522442	0	0	2.57652e-035	0	1	4	4
62	13.3921	0.0290251	0	0	2.57652e-035	0	1	4	4
64	13.4444	0.0232201	0	0	2.57652e-035	0	1	4	4
63	13.4676	0.0290251	0	0	2.57652e-035	0	1	4	4
64	13.514	0.1161	0	0	2.57652e-035	0	1	4	4
64	13.6533	0.0348301	0	0	2.57652e-035	0	1	4	4
64	13.7056	0.0348301	0	0	2.57652e-035	0	1	4	4
64	13.8159	0.0232191	0	0	2.57652e-035	0	1	4	4
64	13.9029	0.412154	0	0	2.57652e-035	0	1	4	4
64	14.3151	0.133515	0	0	2.57652e-035	0	1	4	4
67	14.4718	0.17415	0	0	2.57652e-035	0	1	4	4
65	14.8782	0.0406351	0	0	2.57652e-035	0	1	4	4
64	14.9188	0.0406351	0	0	2.57652e-035	0	1	4	4
64	14.9653	0.0464401	0	0	2.57652e-035	0	1	4	4
65	15.0756	0.0406351	0	0	2.57652e-035	0	1	4	4
63	15.1278	0.0290251	0	0	2.57652e-035	0	1	4	4
64	15.2555	0.168344	0	0	2.57652e-035	0	1	4	4
66	15.4239	0.0870743	0	0	2.57652e-035	0	1	4	4
64	15.8128	0.0406351	0	0	2.57652e-035	0	1	4	4
66	15.9057	0.0290251	0	0	2.57652e-035	0	1	4	4
63	16.2075	0.0348301	0	0	2.57652e-035	0	1	4	4
63	16.2598	0.0464401	0	0	2.57652e-035	0	1	4	4
64	16.312	0.0696602	0	0	2.57652e-035	0	1	4	4
64	16.4049	0.1161	0	0	2.57652e-035	0	1	4	4
67	16.6371	0.0232201	0	0	2.57652e-035	0	1	4	4
67	16.6661	0.0406342	0	0	2.57652e-035	0	1	4	4
67	16.7706	0.0696583	0	0	2.57652e-035	0	1	4	4
65	16.8519	0.17415	0	0	2.57652e-035	0	1	4	4
66	17.2234	0.0232201	0	0	2.57652e-035	0	1	4	4
67	17.2524	0.0812702	0	0	2.57652e-035	0	1	4	4
67	17.3395	0.0348301	0	0	2.57652e-035	0	1	4	4
67	17.4788	0.0638542	0	0	2.57652e-035	0	1	4	4
65	17.5891	0.10449	0	0	2.57652e-035	0	1	4	4
62	17.8097	0.0348282	0	0	2.57652e-035	0	1	4	4
62	17.8445	0.145126	0	0	2.57652e-035	0	1	4	4
70	18.2857	0.249615	0	0	2.57652e-035	0	1	4	4
68	18.5353	0.029026	0	0	2.57652e-035	0	1	4	4
64	18.9939	0.0638542	0	0	2.57652e-035	0	1	4	4
63	19.0578	0.0348301	0	0	2.57652e-035	0	1	4	4
64	19.2087	0.0348301	0	0	2.57652e-035	0	1	4	4
65	19.2435	0.0232201	0	0	2.57652e-035	0	1	4	4
64	19.3596	0.208981	0	0	2.57652e-035	0	1	4	4
64	19.6441	0.528254	0	0	2.57652e-035	0	1	4	4
64	20.3523	0.203175	0	0	2.57652e-035	0	1	4	4
70	20.6542	0.168344	0	0	2.57652e-035	0	1	4	4
68	20.8225	0.156734	0	0	2.57652e-035	0	1	4	4
70	21.3043	0.0348301	0	0	2.57652e-035	0	1	4	4
70	21.403	0.0406361	0	0	2.57652e-035	0	1	4	4
70	22.0648	0.0232201	0	0	2.57652e-035	0	1	4	4
69	22.2912	0.0348301	0	0	2.57652e-035	0	1	4	4
70	22.3782	0.0232201	0	0	2.57652e-035	0	1	4	4
72	22.8252	0.0812702	0	0	2.57652e-035	0	1	4	4
71	22.9065	0.029026	0	0	2.57652e-035	0	1	4	4
70	22.9413	0.0464401	0	0	2.57652e-035	0	1	4	4
57	23.2838	0.0696602	0	0	2.57652e-035	0	1	4	4
58	23.8295	0.0406361	0	0	2.57652e-035	0	1	4	4
55	24.0733	0.0696602	0	0	2.57652e-035	0	1	4	4
55	24.1429	0.0580482	0	0	2.57652e-035	0	1	4	4
64	24.439	0.0522461	0	0	2.57652e-035	0	1	4	4
64	24.4912	0.0754642	0	0	2.57652e-035	0	1	4	4
64	24.6422	0.12771	0	0	2.57652e-035	0	1	4	4
70	24.7699	0.0232201	0	0	2.57652e-035	0	1	4	4
70	24.8279	0.0754642	0	0	2.57652e-035	0	1	4	4
69	24.9034	0.121904	0	0	2.57652e-035	0	1	4	4
69	25.0253	0.0406361	0	0	2.57652e-035	0	1	4	4
69	25.1298	0.0696602	0	0	2.57652e-035	0	1	4	4
69	25.333	0.13932	0	0	2.57652e-035	0	1	4	4
70	25.4723	0.0232201	0	0	2.57652e-035	0	1	4	4
71	25.5652	0.0232201	0	0	2.57652e-035	0	1	4	4
67	25.7858	0.191565	0	0	2.57652e-035	0	1	4	4
67	25.9773	0.029026	0	0	2.57652e-035	0	1	4	4
71	26.0528	0.0696602	0	0	2.57652e-035	0	1	4	4
65	26.1805	0.12771	0	0	2.57652e-035	0	1	4	4
66	26.3082	0.0870743	0	0	2.57652e-035	0	1	4	4
69	26.3953	0.0638542	0	0	2.57652e-035	0	1	4	4
69	26.4591	0.0812702	0	0	2.57652e-035	0	1	4	4
69	26.7784	0.203175	0	0	2.57652e-035	0	1	4	4
69	26.9816	0.1161	0	0	2.57652e-035	0	1	4	4
69	27.1557	0.0522442	0	0	2.57652e-035	0	1	4	4
68	27.2138	0.0754642	0	0	2.57652e-035	0	1	4	4
69	27.4982	0.0406361	0	0	2.57652e-035	0	1	4	4
69	27.5389	0.0290241	0	0	2.57652e-035	0	1	4	4
69	27.7769	0.0696602	0	0	2.57652e-035	0	1	4	4
69	28.2819	0.110294	0	0	2.57652e-035	0	1	4	4
70	28.4444	0.0870743	0	0	2.57652e-035	0	1	4	4
69	28.5315	0.0232201	0	0	2.57652e-035	0	1	4	4
64	29.1933	0.1161	0	0	2.57652e-035	0	1	4	4
