midiPitch 	 onsetSec 	 durationSec 	 onsetBeats 	 onsetBarIndex 	 onsetBar 	 durationBeats 	 velocity  	 numerator 	 denominator 
55	0.766258	0.029025	0	0	4.11879e-035	0	1	4	4
59	0.812698	0.0348299	0	0	4.11879e-035	0	1	4	4
56	0.981043	0.02322	0	0	4.11879e-035	0	1	4	4
55	1.08553	0.0290248	0	0	4.11879e-035	0	1	4	4
58	1.42222	0.0232201	0	0	4.11879e-035	0	1	4	4
63	1.56154	0.0232199	0	0	4.11879e-035	0	1	4	4
70	1.57896	0.0232199	0	0	4.11879e-035	0	1	4	4
62	1.68925	0.0232199	0	0	4.11879e-035	0	1	4	4
60	1.83438	0.040635	0	0	4.11879e-035	0	1	4	4
60	1.88662	0.0638549	0	0	4.11879e-035	0	1	4	4
60	2.01433	0.0580499	0	0	4.11879e-035	0	1	4	4
60	2.0956	0.0406349	0	0	4.11879e-035	0	1	4	4
60	2.36263	0.0290248	0	0	4.11879e-035	0	1	4	4
60	2.40327	0.0348299	0	0	4.11879e-035	0	1	4	4
60	2.45551	0.0290251	0	0	4.11879e-035	0	1	4	4
60	2.52517	0.0232198	0	0	4.11879e-035	0	1	4	4
60	2.89088	0.0348299	0	0	4.11879e-035	0	1	4	4
63	2.92571	0.0232198	0	0	4.11879e-035	0	1	4	4
68	3.03601	0.0232198	0	0	4.11879e-035	0	1	4	4
64	3.46558	0.0290251	0	0	4.11879e-035	0	1	4	4
67	3.63973	0.0232201	0	0	4.11879e-035	0	1	4	4
64	4.10993	0.0290251	0	0	4.11879e-035	0	1	4	4
68	4.13896	0.0638547	0	0	4.11879e-035	0	1	4	4
70	4.23184	0.0754647	0	0	4.11879e-035	0	1	4	4
68	4.3073	0.0348301	0	0	4.11879e-035	0	1	4	4
63	4.42921	0.0232201	0	0	4.11879e-035	0	1	4	4
60	4.68463	0.0232201	0	0	4.11879e-035	0	1	4	4
71	4.882	0.0348301	0	0	4.11879e-035	0	1	4	4
71	4.95166	0.0464396	0	0	4.11879e-035	0	1	4	4
67	5.03293	0.0290251	0	0	4.11879e-035	0	1	4	4
68	5.23029	0.0232201	0	0	4.11879e-035	0	1	4	4
70	5.25351	0.0232201	0	0	4.11879e-035	0	1	4	4
73	5.55537	0.0232201	0	0	4.11879e-035	0	1	4	4
72	5.67728	0.0464396	0	0	4.11879e-035	0	1	4	4
71	5.72372	0.0406351	0	0	4.11879e-035	0	1	4	4
67	5.77016	0.0290246	0	0	4.11879e-035	0	1	4	4
70	6.15329	0.0290251	0	0	4.11879e-035	0	1	4	4
65	6.19392	0.0232196	0	0	4.11879e-035	0	1	4	4
68	6.25197	0.0232201	0	0	4.11879e-035	0	1	4	4
67	6.45515	0.0232201	0	0	4.11879e-035	0	1	4	4
67	6.59447	0.0754647	0	0	4.11879e-035	0	1	4	4
4294967295	6.66413	0.0232201	0	0	4.11879e-035	0	1	4	4
4294967295	6.68154	0.01161	0	0	4.11879e-035	0	1	4	4
55	6.72218	0.0522451	0	0	4.11879e-035	0	1	4	4
55	6.85569	0.12771	0	0	4.11879e-035	0	1	4	4
56	7.02984	0.0290251	0	0	4.11879e-035	0	1	4	4
55	7.12853	0.0232201	0	0	4.11879e-035	0	1	4	4
55	7.15175	0.0290251	0	0	4.11879e-035	0	1	4	4
55	7.3317	0.0406351	0	0	4.11879e-035	0	1	4	4
56	7.38395	0.0290251	0	0	4.11879e-035	0	1	4	4
56	7.442	0.0348301	0	0	4.11879e-035	0	1	4	4
56	7.55229	0.0406351	0	0	4.11879e-035	0	1	4	4
71	7.58712	0.0290251	0	0	4.11879e-035	0	1	4	4
68	7.74385	0.0406351	0	0	4.11879e-035	0	1	4	4
72	7.85995	0.0232201	0	0	4.11879e-035	0	1	4	4
70	7.90639	0.0232201	0	0	4.11879e-035	0	1	4	4
72	7.94703	0.0638552	0	0	4.11879e-035	0	1	4	4
68	8.28372	0.0348291	0	0	4.11879e-035	0	1	4	4
69	8.46948	0.0348301	0	0	4.11879e-035	0	1	4	4
73	8.51011	0.0406351	0	0	4.11879e-035	0	1	4	4
75	8.7249	0.0232201	0	0	4.11879e-035	0	1	4	4
56	8.93968	0.0522451	0	0	4.11879e-035	0	1	4	4
59	9.02095	0.0348301	0	0	4.11879e-035	0	1	4	4
57	9.13705	0.0290251	0	0	4.11879e-035	0	1	4	4
55	9.22993	0.0754652	0	0	4.11879e-035	0	1	4	4
60	9.57823	0.0290251	0	0	4.11879e-035	0	1	4	4
58	9.60726	0.0232201	0	0	4.11879e-035	0	1	4	4
60	9.74077	0.0232201	0	0	4.11879e-035	0	1	4	4
60	10.2922	0.0696592	0	0	4.11879e-035	0	1	4	4
61	10.3619	0.0232201	0	0	4.11879e-035	0	1	4	4
62	10.4432	0.0232201	0	0	4.11879e-035	0	1	4	4
63	10.658	0.0232201	0	0	4.11879e-035	0	1	4	4
67	10.9018	0.0290251	0	0	4.11879e-035	0	1	4	4
60	10.9888	0.0348301	0	0	4.11879e-035	0	1	4	4
60	11.0237	0.0696602	0	0	4.11879e-035	0	1	4	4
60	11.0991	0.0290251	0	0	4.11879e-035	0	1	4	4
60	11.1746	0.0232201	0	0	4.11879e-035	0	1	4	4
60	11.3546	0.0290241	0	0	4.11879e-035	0	1	4	4
60	11.4068	0.0464401	0	0	4.11879e-035	0	1	4	4
60	11.639	0.0290251	0	0	4.11879e-035	0	1	4	4
61	11.8422	0.0406351	0	0	4.11879e-035	0	1	4	4
61	12.0744	0.0232201	0	0	4.11879e-035	0	1	4	4
63	12.1731	0.0290241	0	0	4.11879e-035	0	1	4	4
61	12.4343	0.0232201	0	0	4.11879e-035	0	1	4	4
64	12.829	0.0406351	0	0	4.11879e-035	0	1	4	4
61	13.1947	0.0348291	0	0	4.11879e-035	0	1	4	4
61	13.2702	0.0290251	0	0	4.11879e-035	0	1	4	4
74	13.8855	0.0638552	0	0	4.11879e-035	0	1	4	4
74	13.9842	0.0348301	0	0	4.11879e-035	0	1	4	4
74	14.0423	0.0406351	0	0	4.11879e-035	0	1	4	4
74	14.1235	0.0928802	0	0	4.11879e-035	0	1	4	4
74	14.2396	0.0464392	0	0	4.11879e-035	0	1	4	4
74	14.4428	0.0464392	0	0	4.11879e-035	0	1	4	4
74	14.6866	0.0348301	0	0	4.11879e-035	0	1	4	4
73	14.7679	0.0348301	0	0	4.11879e-035	0	1	4	4
73	14.8317	0.0580492	0	0	4.11879e-035	0	1	4	4
73	14.8898	0.0522451	0	0	4.11879e-035	0	1	4	4
73	14.942	0.0290251	0	0	4.11879e-035	0	1	4	4
73	14.9885	0.0290251	0	0	4.11879e-035	0	1	4	4
73	15.1626	0.0348301	0	0	4.11879e-035	0	1	4	4
73	15.2149	0.0522451	0	0	4.11879e-035	0	1	4	4
73	15.2903	0.0406351	0	0	4.11879e-035	0	1	4	4
73	15.3832	0.0348301	0	0	4.11879e-035	0	1	4	4
73	15.418	0.0986843	0	0	4.11879e-035	0	1	4	4
73	15.5806	0.0290251	0	0	4.11879e-035	0	1	4	4
73	15.6096	0.0928793	0	0	4.11879e-035	0	1	4	4
73	15.7025	0.0406351	0	0	4.11879e-035	0	1	4	4
73	15.8592	0.0348291	0	0	4.11879e-035	0	1	4	4
73	15.9289	0.0290251	0	0	4.11879e-035	0	1	4	4
73	15.9985	0.0290241	0	0	4.11879e-035	0	1	4	4
73	16.1379	0.0522442	0	0	4.11879e-035	0	1	4	4
71	16.1901	0.0522442	0	0	4.11879e-035	0	1	4	4
74	16.3701	0.0348301	0	0	4.11879e-035	0	1	4	4
73	16.4862	0.0290241	0	0	4.11879e-035	0	1	4	4
73	16.521	0.0986843	0	0	4.11879e-035	0	1	4	4
74	16.6719	0.029026	0	0	4.11879e-035	0	1	4	4
73	16.73	0.0232201	0	0	4.11879e-035	0	1	4	4
74	16.759	0.121904	0	0	4.11879e-035	0	1	4	4
74	16.9332	0.0232201	0	0	4.11879e-035	0	1	4	4
74	17.0841	0.0464401	0	0	4.11879e-035	0	1	4	4
74	17.1654	0.0232201	0	0	4.11879e-035	0	1	4	4
73	17.2524	0.0232201	0	0	4.11879e-035	0	1	4	4
74	17.2815	0.0464401	0	0	4.11879e-035	0	1	4	4
74	17.4672	0.0696602	0	0	4.11879e-035	0	1	4	4
74	17.6472	0.0232201	0	0	4.11879e-035	0	1	4	4
74	17.7226	0.0638561	0	0	4.11879e-035	0	1	4	4
74	17.7923	0.0406342	0	0	4.11879e-035	0	1	4	4
74	17.8329	0.0232201	0	0	4.11879e-035	0	1	4	4
74	17.8619	0.0638542	0	0	4.11879e-035	0	1	4	4
74	17.9258	0.0232201	0	0	4.11879e-035	0	1	4	4
74	17.9664	0.0522442	0	0	4.11879e-035	0	1	4	4
73	18.0187	0.0232201	0	0	4.11879e-035	0	1	4	4
74	18.0651	0.0232201	0	0	4.11879e-035	0	1	4	4
74	18.2393	0.0290241	0	0	4.11879e-035	0	1	4	4
65	18.338	0.0232201	0	0	4.11879e-035	0	1	4	4
74	18.6398	0.0522442	0	0	4.11879e-035	0	1	4	4
73	18.6921	0.029026	0	0	4.11879e-035	0	1	4	4
74	18.7907	0.0348301	0	0	4.11879e-035	0	1	4	4
73	18.872	0.0232201	0	0	4.11879e-035	0	1	4	4
74	18.9881	0.029026	0	0	4.11879e-035	0	1	4	4
73	19.0636	0.0348301	0	0	4.11879e-035	0	1	4	4
73	19.0984	0.029026	0	0	4.11879e-035	0	1	4	4
73	19.1449	0.029026	0	0	4.11879e-035	0	1	4	4
73	19.261	0.0580502	0	0	4.11879e-035	0	1	4	4
74	19.3771	0.0348301	0	0	4.11879e-035	0	1	4	4
73	19.4525	0.0232201	0	0	4.11879e-035	0	1	4	4
73	19.528	0.0406361	0	0	4.11879e-035	0	1	4	4
73	19.5686	0.0232201	0	0	4.11879e-035	0	1	4	4
73	19.5976	0.0232201	0	0	4.11879e-035	0	1	4	4
74	19.6789	0.0232201	0	0	4.11879e-035	0	1	4	4
73	19.7195	0.133516	0	0	4.11879e-035	0	1	4	4
73	19.8531	0.0522442	0	0	4.11879e-035	0	1	4	4
73	19.9053	0.179955	0	0	4.11879e-035	0	1	4	4
74	20.2188	0.029026	0	0	4.11879e-035	0	1	4	4
73	20.2884	0.0232201	0	0	4.11879e-035	0	1	4	4
73	20.3291	0.0348301	0	0	4.11879e-035	0	1	4	4
74	20.5845	0.0348301	0	0	4.11879e-035	0	1	4	4
73	20.6774	0.0464382	0	0	4.11879e-035	0	1	4	4
70	20.7412	0.0290241	0	0	4.11879e-035	0	1	4	4
73	20.8051	0.0348301	0	0	4.11879e-035	0	1	4	4
71	21.6062	0.0232201	0	0	4.11879e-035	0	1	4	4
73	21.7803	0.0232201	0	0	4.11879e-035	0	1	4	4
74	22.0357	0.029026	0	0	4.11879e-035	0	1	4	4
73	22.088	0.0290241	0	0	4.11879e-035	0	1	4	4
77	22.6104	0.0232201	0	0	4.11879e-035	0	1	4	4
77	22.6453	0.0348301	0	0	4.11879e-035	0	1	4	4
77	22.7498	0.0232201	0	0	4.11879e-035	0	1	4	4
68	22.7904	0.0232201	0	0	4.11879e-035	0	1	4	4
72	22.8426	0.0406342	0	0	4.11879e-035	0	1	4	4
68	22.9878	0.0290241	0	0	4.11879e-035	0	1	4	4
72	23.4347	0.0232201	0	0	4.11879e-035	0	1	4	4
68	23.6263	0.0232201	0	0	4.11879e-035	0	1	4	4
72	23.7714	0.0348282	0	0	4.11879e-035	0	1	4	4
71	23.8411	0.0232201	0	0	4.11879e-035	0	1	4	4
69	24.021	0.0522461	0	0	4.11879e-035	0	1	4	4
68	24.4622	0.0232201	0	0	4.11879e-035	0	1	4	4
71	24.7815	0.0232201	0	0	4.11879e-035	0	1	4	4
68	24.8047	0.0290241	0	0	4.11879e-035	0	1	4	4
72	24.8337	0.0232201	0	0	4.11879e-035	0	1	4	4
68	24.8744	0.0464401	0	0	4.11879e-035	0	1	4	4
71	24.9905	0.0232182	0	0	4.11879e-035	0	1	4	4
71	25.0137	0.0232201	0	0	4.11879e-035	0	1	4	4
68	25.4142	0.0406342	0	0	4.11879e-035	0	1	4	4
67	25.5129	0.0232201	0	0	4.11879e-035	0	1	4	4
68	25.6174	0.0232201	0	0	4.11879e-035	0	1	4	4
68	25.867	0.0290241	0	0	4.11879e-035	0	1	4	4
72	25.9425	0.0232201	0	0	4.11879e-035	0	1	4	4
66	26.3256	0.0232201	0	0	4.11879e-035	0	1	4	4
69	26.5056	0.0232201	0	0	4.11879e-035	0	1	4	4
70	26.5578	0.0232201	0	0	4.11879e-035	0	1	4	4
71	26.581	0.0522442	0	0	4.11879e-035	0	1	4	4
71	26.6739	0.0232201	0	0	4.11879e-035	0	1	4	4
71	26.7088	0.0232201	0	0	4.11879e-035	0	1	4	4
69	26.7494	0.0986843	0	0	4.11879e-035	0	1	4	4
68	26.8481	0.1161	0	0	4.11879e-035	0	1	4	4
68	27.3647	0.0348301	0	0	4.11879e-035	0	1	4	4
71	27.5098	0.029026	0	0	4.11879e-035	0	1	4	4
68	27.7885	0.0464401	0	0	4.11879e-035	0	1	4	4
67	28.1078	0.029026	0	0	4.11879e-035	0	1	4	4
74	28.3225	0.0986862	0	0	4.11879e-035	0	1	4	4
