midiPitch 	 onsetSec 	 durationSec 	 onsetBeats 	 onsetBarIndex 	 onsetBar 	 durationBeats 	 velocity  	 numerator 	 denominator 
71	0.0406349	0.2322	0	0	2.91479e-035	0	1	4	4
74	0.272834	0.16254	0	0	2.91479e-035	0	1	4	4
71	0.435374	0.690794	0	0	2.91479e-035	0	1	4	4
71	1.12617	0.406349	0	0	2.91479e-035	0	1	4	4
71	1.53252	0.435374	0	0	2.91479e-035	0	1	4	4
71	1.96789	0.179955	0	0	2.91479e-035	0	1	4	4
69	2.14785	0.168345	0	0	2.91479e-035	0	1	4	4
71	2.35683	0.0580499	0	0	2.91479e-035	0	1	4	4
74	2.41488	0.156735	0	0	2.91479e-035	0	1	4	4
76	2.78059	0.470204	0	0	2.91479e-035	0	1	4	4
71	3.27982	0.156735	0	0	2.91479e-035	0	1	4	4
76	3.6107	0.145125	0	0	2.91479e-035	0	1	4	4
71	3.75583	0.284445	0	0	2.91479e-035	0	1	4	4
76	4.04027	0.0928798	0	0	2.91479e-035	0	1	4	4
71	4.13315	0.179955	0	0	2.91479e-035	0	1	4	4
71	4.41179	0.400544	0	0	2.91479e-035	0	1	4	4
71	4.85878	0.0638547	0	0	2.91479e-035	0	1	4	4
76	4.92263	0.12771	0	0	2.91479e-035	0	1	4	4
64	5.48571	0.35991	0	0	2.91479e-035	0	1	4	4
69	5.84562	0.13932	0	0	2.91479e-035	0	1	4	4
69	5.98494	0.238004	0	0	2.91479e-035	0	1	4	4
69	6.22295	0.20898	0	0	2.91479e-035	0	1	4	4
69	6.45515	0.121905	0	0	2.91479e-035	0	1	4	4
69	6.57705	0.0638547	0	0	2.91479e-035	0	1	4	4
64	6.64091	0.0696602	0	0	2.91479e-035	0	1	4	4
69	6.69896	0.01161	0	0	2.91479e-035	0	1	4	4
64	6.64091	0.0754647	0	0	2.91479e-035	0	1	4	4
69	6.69896	0.0174146	0	0	2.91479e-035	0	1	4	4
64	6.64091	0.0812697	0	0	2.91479e-035	0	1	4	4
69	6.69896	0.0232196	0	0	2.91479e-035	0	1	4	4
64	6.64091	0.0870748	0	0	2.91479e-035	0	1	4	4
69	6.69896	0.0290246	0	0	2.91479e-035	0	1	4	4
64	6.64091	0.0928798	0	0	2.91479e-035	0	1	4	4
69	6.69896	0.0348296	0	0	2.91479e-035	0	1	4	4
64	6.64091	0.0986848	0	0	2.91479e-035	0	1	4	4
69	6.69896	0.110295	0	0	2.91479e-035	0	1	4	4
62	6.97179	0.3483	0	0	2.91479e-035	0	1	4	4
64	7.32009	0.226394	0	0	2.91479e-035	0	1	4	4
64	7.54648	0.0522451	0	0	2.91479e-035	0	1	4	4
64	7.61034	0.127709	0	0	2.91479e-035	0	1	4	4
64	7.78449	0.325079	0	0	2.91479e-035	0	1	4	4
64	8.11537	0.168345	0	0	2.91479e-035	0	1	4	4
71	8.29533	0.371519	0	0	2.91479e-035	0	1	4	4
71	8.66685	0.127709	0	0	2.91479e-035	0	1	4	4
83	8.74812	0.406349	0	0	2.91479e-035	0	1	4	4
83	9.15447	0.133515	0	0	2.91479e-035	0	1	4	4
83	9.28798	0.203175	0	0	2.91479e-035	0	1	4	4
83	9.51438	0.145124	0	0	2.91479e-035	0	1	4	4
83	9.6595	0.121904	0	0	2.91479e-035	0	1	4	4
83	9.78141	0.841723	0	0	2.91479e-035	0	1	4	4
83	10.6231	0.121905	0	0	2.91479e-035	0	1	4	4
76	10.745	0.864943	0	0	2.91479e-035	0	1	4	4
76	11.61	0.168345	0	0	2.91479e-035	0	1	4	4
76	11.7783	0.0754642	0	0	2.91479e-035	0	1	4	4
76	11.8538	0.214785	0	0	2.91479e-035	0	1	4	4
76	12.0686	0.348299	0	0	2.91479e-035	0	1	4	4
76	12.4169	0.26703	0	0	2.91479e-035	0	1	4	4
76	12.6839	0.539864	0	0	2.91479e-035	0	1	4	4
79	13.2238	0.249615	0	0	2.91479e-035	0	1	4	4
76	13.485	0.406349	0	0	2.91479e-035	0	1	4	4
74	13.8971	0.510839	0	0	2.91479e-035	0	1	4	4
76	14.4544	0.673379	0	0	2.91479e-035	0	1	4	4
76	15.1278	0.0232201	0	0	2.91479e-035	0	1	4	4
76	15.1568	0.145124	0	0	2.91479e-035	0	1	4	4
76	15.3019	0.423764	0	0	2.91479e-035	0	1	4	4
76	15.7257	0.238005	0	0	2.91479e-035	0	1	4	4
76	15.9637	0.179955	0	0	2.91479e-035	0	1	4	4
76	16.1437	0.284445	0	0	2.91479e-035	0	1	4	4
76	16.9215	0.133514	0	0	2.91479e-035	0	1	4	4
76	17.0551	0.13932	0	0	2.91479e-035	0	1	4	4
76	17.1944	0.18576	0	0	2.91479e-035	0	1	4	4
76	17.3801	0.0928783	0	0	2.91479e-035	0	1	4	4
76	17.4962	0.13932	0	0	2.91479e-035	0	1	4	4
71	17.6356	0.284445	0	0	2.91479e-035	0	1	4	4
83	17.92	0.330883	0	0	2.91479e-035	0	1	4	4
74	18.2509	0.354105	0	0	2.91479e-035	0	1	4	4
71	18.6282	0.267029	0	0	2.91479e-035	0	1	4	4
71	18.8952	1.2829	0	0	2.91479e-035	0	1	4	4
71	20.1781	0.946213	0	0	2.91479e-035	0	1	4	4
71	21.1244	0.621134	0	0	2.91479e-035	0	1	4	4
71	21.7455	0.441179	0	0	2.91479e-035	0	1	4	4
67	22.1867	0.365713	0	0	2.91479e-035	0	1	4	4
64	22.5524	0.342495	0	0	2.91479e-035	0	1	4	4
64	22.8949	0.388935	0	0	2.91479e-035	0	1	4	4
64	23.2838	0.383129	0	0	2.91479e-035	0	1	4	4
64	23.6669	0.208979	0	0	2.91479e-035	0	1	4	4
64	23.8759	0.220591	0	0	2.91479e-035	0	1	4	4
64	24.0965	0.179955	0	0	2.91479e-035	0	1	4	4
64	24.2765	0.406349	0	0	2.91479e-035	0	1	4	4
64	24.6828	0.133514	0	0	2.91479e-035	0	1	4	4
64	24.8163	0.621134	0	0	2.91479e-035	0	1	4	4
67	25.4375	0.0928802	0	0	2.91479e-035	0	1	4	4
67	25.5303	0.348299	0	0	2.91479e-035	0	1	4	4
64	25.8786	0.510839	0	0	2.91479e-035	0	1	4	4
62	26.3895	0.0696583	0	0	2.91479e-035	0	1	4	4
62	26.4591	0.0638561	0	0	2.91479e-035	0	1	4	4
62	26.8016	0.0812702	0	0	2.91479e-035	0	1	4	4
64	26.9235	0.13932	0	0	2.91479e-035	0	1	4	4
64	27.0977	0.191565	0	0	2.91479e-035	0	1	4	4
64	27.3473	0.150928	0	0	2.91479e-035	0	1	4	4
64	27.5098	0.238005	0	0	2.91479e-035	0	1	4	4
64	27.7478	0.748844	0	0	2.91479e-035	0	1	4	4
64	28.4967	0.563084	0	0	2.91479e-035	0	1	4	4
64	29.0598	0.226395	0	0	2.91479e-035	0	1	4	4
67	29.4777	0.267029	0	0	2.91479e-035	0	1	4	4
