midiPitch 	 onsetSec 	 durationSec 	 onsetBeats 	 onsetBarIndex 	 onsetBar 	 durationBeats 	 velocity  	 numerator 	 denominator 
45	1.27129	0.17415	0	0	0	0	1	4	4
43	1.44544	0.18576	0	0	0	0	1	4	4
51	2.13624	0.0638549	0	0	0	0	1	4	4
43	2.24073	0.2322	0	0	0	0	1	4	4
52	2.47293	0.388934	0	0	0	0	1	4	4
51	2.86186	0.0290251	0	0	0	0	1	4	4
50	2.89669	0.09288	0	0	0	0	1	4	4
50	2.98957	0.121905	0	0	0	0	1	4	4
48	3.43655	0.272835	0	0	0	0	1	4	4
44	4.11574	0.342494	0	0	0	0	1	4	4
79	6.62349	0.179955	0	0	0	0	1	4	4
82	6.89633	0.342494	0	0	0	0	1	4	4
82	7.30848	0.272834	0	0	0	0	1	4	4
82	7.58132	0.0580497	0	0	0	0	1	4	4
82	7.64517	0.29025	0	0	0	0	1	4	4
79	7.93542	0.0812697	0	0	0	0	1	4	4
74	8.01669	0.156734	0	0	0	0	1	4	4
70	8.46948	0.377324	0	0	0	0	1	4	4
70	8.8468	0.354104	0	0	0	0	1	4	4
70	9.20091	0.493424	0	0	0	0	1	4	4
70	9.71755	0.743038	0	0	0	0	1	4	4
70	10.5302	0.470203	0	0	0	0	1	4	4
65	11.5403	0.0580492	0	0	0	0	1	4	4
69	11.9583	0.0870743	0	0	0	0	1	4	4
69	12.0454	0.20898	0	0	0	0	1	4	4
69	12.2543	0.0870752	0	0	0	0	1	4	4
63	13.6998	0.168344	0	0	0	0	1	4	4
64	13.8681	0.17415	0	0	0	0	1	4	4
67	14.1061	0.1161	0	0	0	0	1	4	4
64	14.2629	0.0928802	0	0	0	0	1	4	4
65	14.3557	0.0290251	0	0	0	0	1	4	4
60	14.646	0.0232191	0	0	0	0	1	4	4
70	15.6793	0.156734	0	0	0	0	1	4	4
69	16.016	0.145126	0	0	0	0	1	4	4
72	16.3817	0.15093	0	0	0	0	1	4	4
70	16.579	0.156734	0	0	0	0	1	4	4
77	18.3089	0.226395	0	0	0	0	1	4	4
69	19.5338	0.0870743	0	0	0	0	1	4	4
70	19.6209	0.220591	0	0	0	0	1	4	4
67	20.004	0.238005	0	0	0	0	1	4	4
65	20.6948	0.597914	0	0	0	0	1	4	4
64	21.2927	0.377325	0	0	0	0	1	4	4
64	21.67	0.0928783	0	0	0	0	1	4	4
65	21.7629	0.203175	0	0	0	0	1	4	4
65	21.9661	0.0696602	0	0	0	0	1	4	4
65	22.0357	0.110294	0	0	0	0	1	4	4
62	22.146	0.1161	0	0	0	0	1	4	4
54	25.3562	0.0638542	0	0	0	0	1	4	4
55	25.5071	0.133514	0	0	0	0	1	4	4
56	25.838	0.261225	0	0	0	0	1	4	4
56	26.1166	0.325079	0	0	0	0	1	4	4
55	26.4417	0.272835	0	0	0	0	1	4	4
