midiPitch 	 onsetSec 	 durationSec 	 onsetBeats 	 onsetBarIndex 	 onsetBar 	 durationBeats 	 velocity  	 numerator 	 denominator 
57	0.0406349	0.156735	0	0	0	0	1	4	4
57	0.313469	0.0986848	0	0	0	0	1	4	4
59	0.499229	0.0406349	0	0	0	0	1	4	4
58	0.563084	0.0986848	0	0	0	0	1	4	4
58	0.661769	0.0522449	0	0	0	0	1	4	4
57	0.801088	0.029025	0	0	0	0	1	4	4
57	0.893968	0.12771	0	0	0	0	1	4	4
57	1.23066	0.0522449	0	0	0	0	1	4	4
57	1.28871	0.029025	0	0	0	0	1	4	4
56	1.41642	0.0348299	0	0	0	0	1	4	4
58	1.48027	0.0464399	0	0	0	0	1	4	4
58	1.53252	0.0522449	0	0	0	0	1	4	4
57	1.59057	0.0464399	0	0	0	0	1	4	4
57	1.63701	0.040635	0	0	0	0	1	4	4
56	1.8634	0.029025	0	0	0	0	1	4	4
57	1.89823	0.20898	0	0	0	0	1	4	4
63	2.37424	0.0232198	0	0	0	0	1	4	4
57	2.47293	0.0522449	0	0	0	0	1	4	4
56	2.54839	0.0406349	0	0	0	0	1	4	4
58	3.11728	0.0580499	0	0	0	0	1	4	4
57	3.36109	0.075465	0	0	0	0	1	4	4
57	3.43655	0.0580499	0	0	0	0	1	4	4
56	3.51202	0.17415	0	0	0	0	1	4	4
56	4.37696	0.0638552	0	0	0	0	1	4	4
57	4.44082	0.0232196	0	0	0	0	1	4	4
57	4.48145	0.0348301	0	0	0	0	1	4	4
57	4.5395	0.110295	0	0	0	0	1	4	4
57	4.78331	0.15093	0	0	0	0	1	4	4
57	5.3522	0.150929	0	0	0	0	1	4	4
59	5.75274	0.1161	0	0	0	0	1	4	4
57	6.00236	0.0754652	0	0	0	0	1	4	4
57	6.07782	0.191565	0	0	0	0	1	4	4
57	6.26939	0.191565	0	0	0	0	1	4	4
57	6.75701	0.0348301	0	0	0	0	1	4	4
57	6.95438	0.0812697	0	0	0	0	1	4	4
57	7.2156	0.0754647	0	0	0	0	1	4	4
55	7.51746	0.0464396	0	0	0	0	1	4	4
55	7.5639	0.0348301	0	0	0	0	1	4	4
57	7.67419	0.16254	0	0	0	0	1	4	4
57	7.95283	0.0754652	0	0	0	0	1	4	4
56	8.59138	0.162539	0	0	0	0	1	4	4
57	9.09061	0.0870743	0	0	0	0	1	4	4
55	9.35184	0.13932	0	0	0	0	1	4	4
57	9.85107	0.0290251	0	0	0	0	1	4	4
57	9.97878	0.0232201	0	0	0	0	1	4	4
57	10.0252	0.0522451	0	0	0	0	1	4	4
58	10.5535	0.0290241	0	0	0	0	1	4	4
56	10.687	0.133514	0	0	0	0	1	4	4
60	10.9946	0.17415	0	0	0	0	1	4	4
60	11.2849	0.0580502	0	0	0	0	1	4	4
62	11.7029	0.0348301	0	0	0	0	1	4	4
62	11.7609	0.150929	0	0	0	0	1	4	4
60	11.9118	0.0696602	0	0	0	0	1	4	4
71	12.0454	0.0232201	0	0	0	0	1	4	4
61	12.2717	0.133514	0	0	0	0	1	4	4
61	12.4053	0.0464401	0	0	0	0	1	4	4
61	12.4517	0.0348301	0	0	0	0	1	4	4
61	12.4865	0.0232201	0	0	0	0	1	4	4
60	12.5272	0.0812693	0	0	0	0	1	4	4
60	12.6084	0.0580502	0	0	0	0	1	4	4
60	12.6665	0.0348301	0	0	0	0	1	4	4
69	12.7361	0.342494	0	0	0	0	1	4	4
69	13.0786	0.1161	0	0	0	0	1	4	4
57	13.8217	0.104489	0	0	0	0	1	4	4
61	14.0887	0.162539	0	0	0	0	1	4	4
61	14.2512	0.13932	0	0	0	0	1	4	4
63	14.3906	0.452789	0	0	0	0	1	4	4
63	14.8434	0.18576	0	0	0	0	1	4	4
60	15.2729	0.197371	0	0	0	0	1	4	4
60	15.4703	0.0290241	0	0	0	0	1	4	4
60	15.5051	0.214785	0	0	0	0	1	4	4
60	15.7199	0.179955	0	0	0	0	1	4	4
57	15.9579	0.330884	0	0	0	0	1	4	4
57	16.3817	0.10449	0	0	0	0	1	4	4
57	16.6313	0.110294	0	0	0	0	1	4	4
57	16.8171	0.145126	0	0	0	0	1	4	4
53	17.7923	0.464399	0	0	0	0	1	4	4
62	18.6224	0.510838	0	0	0	0	1	4	4
57	20.4858	0.446983	0	0	0	0	1	4	4
53	20.9328	0.17415	0	0	0	0	1	4	4
55	21.2346	0.394739	0	0	0	0	1	4	4
56	22.0706	0.16254	0	0	0	0	1	4	4
57	22.3724	0.156736	0	0	0	0	1	4	4
55	22.8949	0.18576	0	0	0	0	1	4	4
55	23.0806	0.301859	0	0	0	0	1	4	4
55	23.3825	0.0290241	0	0	0	0	1	4	4
54	23.7308	0.179955	0	0	0	0	1	4	4
55	24.3577	0.162539	0	0	0	0	1	4	4
61	24.7002	0.226395	0	0	0	0	1	4	4
60	25.0311	0.220589	0	0	0	0	1	4	4
60	25.4839	0.0522442	0	0	0	0	1	4	4
60	25.5361	0.0696602	0	0	0	0	1	4	4
60	25.6058	0.133514	0	0	0	0	1	4	4
60	26.0063	0.156734	0	0	0	0	1	4	4
60	26.1921	0.0928802	0	0	0	0	1	4	4
60	26.285	0.278639	0	0	0	0	1	4	4
57	27.4982	0.133516	0	0	0	0	1	4	4
60	27.7943	0.133514	0	0	0	0	1	4	4
61	27.9278	0.18576	0	0	0	0	1	4	4
60	28.1136	0.0928802	0	0	0	0	1	4	4
62	28.2064	0.267029	0	0	0	0	1	4	4
62	28.5547	0.185759	0	0	0	0	1	4	4
60	28.9785	0.197371	0	0	0	0	1	4	4
60	29.1759	0.0232201	0	0	0	0	1	4	4
60	29.2165	0.197371	0	0	0	0	1	4	4
60	29.4429	0.12771	0	0	0	0	1	4	4
