midiPitch 	 onsetSec 	 durationSec 	 onsetBeats 	 onsetBarIndex 	 onsetBar 	 durationBeats 	 velocity  	 numerator 	 denominator 
68	0.841723	0.029025	0	0	0	0	1	4	4
67	0.870748	0.15093	0	0	0	0	1	4	4
67	1.0507	0.0870749	0	0	0	0	1	4	4
67	1.13778	0.0580498	0	0	0	0	1	4	4
70	1.36998	0.0348299	0	0	0	0	1	4	4
74	1.42803	0.0870749	0	0	0	0	1	4	4
72	1.52671	0.0580499	0	0	0	0	1	4	4
68	1.57896	0.04644	0	0	0	0	1	4	4
70	1.79955	0.029025	0	0	0	0	1	4	4
67	1.82857	0.0348299	0	0	0	0	1	4	4
67	1.91565	0.0232199	0	0	0	0	1	4	4
66	1.93887	0.029025	0	0	0	0	1	4	4
70	2.00853	0.0348299	0	0	0	0	1	4	4
67	2.04336	0.0580499	0	0	0	0	1	4	4
67	2.15365	0.168345	0	0	0	0	1	4	4
70	2.7922	0.10449	0	0	0	0	1	4	4
68	3.07664	0.0870748	0	0	0	0	1	4	4
67	3.22757	0.203175	0	0	0	0	1	4	4
67	3.43075	0.0696599	0	0	0	0	1	4	4
74	3.58748	0.0348299	0	0	0	0	1	4	4
70	4.10993	0.0464396	0	0	0	0	1	4	4
67	4.27828	0.0812697	0	0	0	0	1	4	4
69	4.38857	0.0812697	0	0	0	0	1	4	4
69	4.67302	0.121905	0	0	0	0	1	4	4
69	4.98068	0.0348301	0	0	0	0	1	4	4
69	5.10839	0.0464401	0	0	0	0	1	4	4
69	5.16063	0.0406346	0	0	0	0	1	4	4
77	5.71791	0.0522451	0	0	0	0	1	4	4
71	6.19973	0.0464396	0	0	0	0	1	4	4
67	6.78023	0.290249	0	0	0	0	1	4	4
59	7.46522	0.0232201	0	0	0	0	1	4	4
70	7.66839	0.0870748	0	0	0	0	1	4	4
67	7.92381	0.0638547	0	0	0	0	1	4	4
67	7.98766	0.20898	0	0	0	0	1	4	4
67	8.19664	0.0580502	0	0	0	0	1	4	4
71	8.7307	0.0522451	0	0	0	0	1	4	4
67	8.94549	0.121905	0	0	0	0	1	4	4
67	9.06739	0.0638542	0	0	0	0	1	4	4
67	9.16027	0.179955	0	0	0	0	1	4	4
67	9.34023	0.0522451	0	0	0	0	1	4	4
62	10.1007	0.0348301	0	0	0	0	1	4	4
55	10.1703	0.0232201	0	0	0	0	1	4	4
67	10.3619	0.0638552	0	0	0	0	1	4	4
67	10.4258	0.0232201	0	0	0	0	1	4	4
67	10.4664	0.150929	0	0	0	0	1	4	4
74	10.7857	0.0696602	0	0	0	0	1	4	4
73	10.8727	0.0580502	0	0	0	0	1	4	4
72	11.1746	0.0638552	0	0	0	0	1	4	4
68	11.2733	0.0812702	0	0	0	0	1	4	4
66	11.3546	0.0522442	0	0	0	0	1	4	4
69	11.4765	0.0406351	0	0	0	0	1	4	4
67	11.5171	0.22059	0	0	0	0	1	4	4
74	11.877	0.0232201	0	0	0	0	1	4	4
73	12.1266	0.0348301	0	0	0	0	1	4	4
71	12.3878	0.0580492	0	0	0	0	1	4	4
75	12.5388	0.0406351	0	0	0	0	1	4	4
67	12.6375	0.13932	0	0	0	0	1	4	4
67	12.8058	0.110294	0	0	0	0	1	4	4
74	12.9161	0.0754652	0	0	0	0	1	4	4
74	13.0148	0.0290241	0	0	0	0	1	4	4
72	13.067	0.0232201	0	0	0	0	1	4	4
70	13.0961	0.0290251	0	0	0	0	1	4	4
69	14.1061	0.0290251	0	0	0	0	1	4	4
73	14.1351	0.0696602	0	0	0	0	1	4	4
68	14.2687	0.0406351	0	0	0	0	1	4	4
69	14.3906	0.0580502	0	0	0	0	1	4	4
70	14.466	0.0812702	0	0	0	0	1	4	4
69	14.5473	0.0580502	0	0	0	0	1	4	4
71	14.6054	0.0406351	0	0	0	0	1	4	4
68	14.6692	0.0232201	0	0	0	0	1	4	4
74	14.6924	0.0812702	0	0	0	0	1	4	4
70	14.8085	0.0638542	0	0	0	0	1	4	4
56	14.8376	0.145124	0	0	0	0	1	4	4
58	15.5922	0.0870752	0	0	0	0	1	4	4
57	15.8302	0.0580492	0	0	0	0	1	4	4
56	15.8883	0.0522451	0	0	0	0	1	4	4
55	15.9347	0.0406351	0	0	0	0	1	4	4
52	16.2424	0.0348301	0	0	0	0	1	4	4
53	16.283	0.0232201	0	0	0	0	1	4	4
57	16.4281	0.0464401	0	0	0	0	1	4	4
55	16.4978	0.0812702	0	0	0	0	1	4	4
55	16.6777	0.0290241	0	0	0	0	1	4	4
53	16.7068	0.0348301	0	0	0	0	1	4	4
55	16.9854	0.0348282	0	0	0	0	1	4	4
54	17.026	0.0348301	0	0	0	0	1	4	4
55	17.177	0.0290241	0	0	0	0	1	4	4
53	17.2524	0.0522442	0	0	0	0	1	4	4
54	17.444	0.156734	0	0	0	0	1	4	4
53	17.8271	0.0522442	0	0	0	0	1	4	4
53	17.9664	0.0580502	0	0	0	0	1	4	4
56	18.158	0.0232201	0	0	0	0	1	4	4
55	18.3844	0.0522442	0	0	0	0	1	4	4
55	18.5295	0.0580502	0	0	0	0	1	4	4
55	18.5876	0.127708	0	0	0	0	1	4	4
56	18.8894	0.0232201	0	0	0	0	1	4	4
55	18.9591	0.0232201	0	0	0	0	1	4	4
55	19.0171	0.0232201	0	0	0	0	1	4	4
55	19.139	0.10449	0	0	0	0	1	4	4
55	19.4235	0.0870743	0	0	0	0	1	4	4
56	19.6093	0.0638561	0	0	0	0	1	4	4
55	20.1607	0.0522461	0	0	0	0	1	4	4
55	20.213	0.0406342	0	0	0	0	1	4	4
57	20.2942	0.0348301	0	0	0	0	1	4	4
55	20.4858	0.0232182	0	0	0	0	1	4	4
56	20.6251	0.0348301	0	0	0	0	1	4	4
53	20.9038	0.0406342	0	0	0	0	1	4	4
56	21.0431	0.0406361	0	0	0	0	1	4	4
55	21.3391	0.0580502	0	0	0	0	1	4	4
54	21.3972	0.0232201	0	0	0	0	1	4	4
54	21.4378	0.0406361	0	0	0	0	1	4	4
60	21.5713	0.0696602	0	0	0	0	1	4	4
58	21.6526	0.029026	0	0	0	0	1	4	4
55	21.7977	0.0232201	0	0	0	0	1	4	4
54	21.821	0.0232201	0	0	0	0	1	4	4
54	21.8964	0.0870743	0	0	0	0	1	4	4
53	22.0996	0.0290241	0	0	0	0	1	4	4
55	22.2563	0.0348301	0	0	0	0	1	4	4
56	22.3724	0.0406361	0	0	0	0	1	4	4
53	22.5524	0.0464401	0	0	0	0	1	4	4
53	22.6511	0.0580502	0	0	0	0	1	4	4
55	22.7846	0.0406342	0	0	0	0	1	4	4
58	22.9819	0.0406361	0	0	0	0	1	4	4
56	23.0226	0.0638542	0	0	0	0	1	4	4
55	23.4115	0.0406361	0	0	0	0	1	4	4
55	23.5624	0.0232201	0	0	0	0	1	4	4
56	23.696	0.0580502	0	0	0	0	1	4	4
55	23.7598	0.0290241	0	0	0	0	1	4	4
54	23.8411	0.0986862	0	0	0	0	1	4	4
57	24.1429	0.0638542	0	0	0	0	1	4	4
54	24.2242	0.0986862	0	0	0	0	1	4	4
43	24.5261	0.116098	0	0	0	0	1	4	4
55	24.7583	0.0638542	0	0	0	0	1	4	4
54	24.8802	0.121906	0	0	0	0	1	4	4
54	25.0021	0.133514	0	0	0	0	1	4	4
54	25.2865	0.0232201	0	0	0	0	1	4	4
55	25.3214	0.0754662	0	0	0	0	1	4	4
55	25.3968	0.0464382	0	0	0	0	1	4	4
54	25.4433	0.0638561	0	0	0	0	1	4	4
55	25.7219	0.0870743	0	0	0	0	1	4	4
53	26.0702	0.0406342	0	0	0	0	1	4	4
54	26.1166	0.0290241	0	0	0	0	1	4	4
60	26.285	0.12771	0	0	0	0	1	4	4
54	26.4127	0.168344	0	0	0	0	1	4	4
57	26.6217	0.0232201	0	0	0	0	1	4	4
54	26.8713	0.0406342	0	0	0	0	1	4	4
55	26.9642	0.0754642	0	0	0	0	1	4	4
55	27.0396	0.110294	0	0	0	0	1	4	4
53	27.4286	0.0232201	0	0	0	0	1	4	4
53	27.4576	0.0232201	0	0	0	0	1	4	4
56	27.4866	0.110296	0	0	0	0	1	4	4
55	27.6724	0.0406342	0	0	0	0	1	4	4
54	27.7188	0.133514	0	0	0	0	1	4	4
54	27.9975	0.0232201	0	0	0	0	1	4	4
55	28.0207	0.029026	0	0	0	0	1	4	4
55	28.2993	0.0580502	0	0	0	0	1	4	4
53	28.4038	0.0464401	0	0	0	0	1	4	4
53	28.5605	0.0464401	0	0	0	0	1	4	4
55	28.8102	0.029026	0	0	0	0	1	4	4
53	29.0133	0.0812702	0	0	0	0	1	4	4
