midiPitch 	 onsetSec 	 durationSec 	 onsetBeats 	 onsetBarIndex 	 onsetBar 	 durationBeats 	 velocity  	 numerator 	 denominator 
71	3.05923	0.0290251	0	0	0	0	1	4	4
71	3.35528	0.0348299	0	0	0	0	1	4	4
72	3.55846	0.0348299	0	0	0	0	1	4	4
55	4.09832	0.0232201	0	0	0	0	1	4	4
55	4.46404	0.0406351	0	0	0	0	1	4	4
55	4.71365	0.0464401	0	0	0	0	1	4	4
55	4.96327	0.0348296	0	0	0	0	1	4	4
55	5.09678	0.0232201	0	0	0	0	1	4	4
55	5.34639	0.0406346	0	0	0	0	1	4	4
76	5.72952	0.0580502	0	0	0	0	1	4	4
76	6.03138	0.0406351	0	0	0	0	1	4	4
75	6.09524	0.0290246	0	0	0	0	1	4	4
72	6.13007	0.0522451	0	0	0	0	1	4	4
79	6.29261	0.116099	0	0	0	0	1	4	4
75	6.47837	0.0232201	0	0	0	0	1	4	4
63	6.58286	0.0812697	0	0	0	0	1	4	4
63	6.66413	0.145125	0	0	0	0	1	4	4
63	6.80925	0.0406346	0	0	0	0	1	4	4
63	6.85569	0.20898	0	0	0	0	1	4	4
63	7.19238	0.1161	0	0	0	0	1	4	4
63	7.64517	0.168345	0	0	0	0	1	4	4
60	7.82512	0.0290246	0	0	0	0	1	4	4
59	7.85415	0.0290251	0	0	0	0	1	4	4
60	7.90639	0.133515	0	0	0	0	1	4	4
60	8.03991	0.0348301	0	0	0	0	1	4	4
63	8.25469	0.0812693	0	0	0	0	1	4	4
64	8.44045	0.0348301	0	0	0	0	1	4	4
59	8.4927	0.0290241	0	0	0	0	1	4	4
63	8.6088	0.22059	0	0	0	0	1	4	4
63	8.82939	0.0464401	0	0	0	0	1	4	4
63	8.88163	0.0870743	0	0	0	0	1	4	4
63	8.98032	0.0812702	0	0	0	0	1	4	4
60	9.33442	0.0928802	0	0	0	0	1	4	4
62	9.99039	0.0928802	0	0	0	0	1	4	4
62	10.3039	0.145124	0	0	0	0	1	4	4
62	10.449	0.0348301	0	0	0	0	1	4	4
62	10.507	0.0290251	0	0	0	0	1	4	4
63	10.8437	0.0290251	0	0	0	0	1	4	4
67	10.9018	0.168344	0	0	0	0	1	4	4
67	11.163	0.0754642	0	0	0	0	1	4	4
67	11.2385	0.0696602	0	0	0	0	1	4	4
55	11.5403	0.0406351	0	0	0	0	1	4	4
65	11.6448	0.162539	0	0	0	0	1	4	4
65	11.8073	0.0464401	0	0	0	0	1	4	4
67	11.8596	0.12771	0	0	0	0	1	4	4
70	12.4459	0.0290251	0	0	0	0	1	4	4
70	12.6897	0.0348301	0	0	0	0	1	4	4
75	14.1642	0.0696602	0	0	0	0	1	4	4
70	14.4428	0.0348291	0	0	0	0	1	4	4
70	14.6344	0.0986843	0	0	0	0	1	4	4
75	14.884	0.110295	0	0	0	0	1	4	4
72	15.0407	0.0348291	0	0	0	0	1	4	4
72	15.3716	0.0522451	0	0	0	0	1	4	4
70	15.4877	0.0522451	0	0	0	0	1	4	4
70	15.54	0.0232201	0	0	0	0	1	4	4
72	15.7257	0.0406351	0	0	0	0	1	4	4
60	15.7083	0.12771	0	0	0	0	1	4	4
60	15.836	0.0290251	0	0	0	0	1	4	4
60	15.9695	0.0870752	0	0	0	0	1	4	4
56	16.2075	0.12771	0	0	0	0	1	4	4
56	16.3817	0.0638542	0	0	0	0	1	4	4
56	16.8693	0.1161	0	0	0	0	1	4	4
59	17.1712	0.029026	0	0	0	0	1	4	4
56	17.2408	0.0290241	0	0	0	0	1	4	4
60	17.2698	0.0348301	0	0	0	0	1	4	4
60	17.3511	0.029026	0	0	0	0	1	4	4
62	17.7807	0.0522442	0	0	0	0	1	4	4
55	17.9432	0.127708	0	0	0	0	1	4	4
55	18.1754	0.145124	0	0	0	0	1	4	4
55	18.3205	0.029026	0	0	0	0	1	4	4
55	18.6456	0.0638542	0	0	0	0	1	4	4
55	18.872	0.121906	0	0	0	0	1	4	4
58	19.0752	0.0406361	0	0	0	0	1	4	4
55	19.2493	0.1161	0	0	0	0	1	4	4
55	19.3712	0.10449	0	0	0	0	1	4	4
55	19.4815	0.0986862	0	0	0	0	1	4	4
55	19.7312	0.0406361	0	0	0	0	1	4	4
56	19.824	0.0232201	0	0	0	0	1	4	4
55	19.8879	0.121906	0	0	0	0	1	4	4
55	20.0098	0.0348301	0	0	0	0	1	4	4
55	20.3755	0.0754662	0	0	0	0	1	4	4
63	22.8775	0.0232201	0	0	0	0	1	4	4
63	22.9007	0.313469	0	0	0	0	1	4	4
63	23.7714	0.342493	0	0	0	0	1	4	4
63	24.23	0.208979	0	0	0	0	1	4	4
60	24.4622	0.145124	0	0	0	0	1	4	4
63	24.7699	0.133514	0	0	0	0	1	4	4
60	24.9034	0.15093	0	0	0	0	1	4	4
62	25.6406	0.197369	0	0	0	0	1	4	4
55	26.1515	0.133514	0	0	0	0	1	4	4
55	26.3488	0.0754662	0	0	0	0	1	4	4
62	26.4301	0.168344	0	0	0	0	1	4	4
62	26.6217	0.145124	0	0	0	0	1	4	4
55	26.8074	0.162539	0	0	0	0	1	4	4
62	27.0338	0.162539	0	0	0	0	1	4	4
62	27.4112	0.0522461	0	0	0	0	1	4	4
55	27.4924	0.0812702	0	0	0	0	1	4	4
55	27.684	0.0754642	0	0	0	0	1	4	4
65	27.7595	0.267031	0	0	0	0	1	4	4
55	28.2239	0.371519	0	0	0	0	1	4	4
55	28.816	0.249615	0	0	0	0	1	4	4
