midiPitch 	 onsetSec 	 durationSec 	 onsetBeats 	 onsetBarIndex 	 onsetBar 	 durationBeats 	 velocity  	 numerator 	 denominator 
77	0.121905	0.19737	0	0	0	0	1	4	4
77	0.319274	0.0406349	0	0	0	0	1	4	4
77	0.365714	0.446984	0	0	0	0	1	4	4
77	0.940408	0.0232199	0	0	0	0	1	4	4
77	1.15519	0.03483	0	0	0	0	1	4	4
77	1.19583	0.121905	0	0	0	0	1	4	4
78	1.31773	0.191565	0	0	0	0	1	4	4
78	1.5093	0.0638549	0	0	0	0	1	4	4
73	1.57315	0.191565	0	0	0	0	1	4	4
73	1.81116	0.0522449	0	0	0	0	1	4	4
78	1.96209	0.12771	0	0	0	0	1	4	4
76	2.38005	0.0232198	0	0	0	0	1	4	4
78	2.66449	0.1161	0	0	0	0	1	4	4
73	2.83864	0.249614	0	0	0	0	1	4	4
78	3.09406	0.20898	0	0	0	0	1	4	4
78	3.30304	0.0522449	0	0	0	0	1	4	4
78	3.40172	0.0580497	0	0	0	0	1	4	4
78	3.65134	0.0638549	0	0	0	0	1	4	4
81	3.81388	0.226395	0	0	0	0	1	4	4
81	4.05188	0.0928802	0	0	0	0	1	4	4
73	4.13315	0.20898	0	0	0	0	1	4	4
73	4.34213	0.0290246	0	0	0	0	1	4	4
73	4.38857	0.737234	0	0	0	0	1	4	4
73	5.21288	0.16254	0	0	0	0	1	4	4
76	5.41605	0.1161	0	0	0	0	1	4	4
73	5.53215	0.168344	0	0	0	0	1	4	4
73	5.75274	0.10449	0	0	0	0	1	4	4
76	5.85723	0.121905	0	0	0	0	1	4	4
73	6.07782	0.168344	0	0	0	0	1	4	4
73	6.36227	0.0348301	0	0	0	0	1	4	4
76	6.54222	0.0696597	0	0	0	0	1	4	4
73	6.61188	0.0232201	0	0	0	0	1	4	4
73	6.67574	0.0348301	0	0	0	0	1	4	4
73	6.71057	0.0232196	0	0	0	0	1	4	4
73	6.78023	0.0696597	0	0	0	0	1	4	4
73	6.94277	0.0348301	0	0	0	0	1	4	4
64	6.9776	0.307664	0	0	0	0	1	4	4
64	7.28526	0.1161	0	0	0	0	1	4	4
73	7.48844	0.0638547	0	0	0	0	1	4	4
73	7.55229	0.10449	0	0	0	0	1	4	4
85	7.63936	0.0406351	0	0	0	0	1	4	4
85	7.72644	0.220589	0	0	0	0	1	4	4
85	7.94703	0.0754652	0	0	0	0	1	4	4
85	8.02249	0.0870743	0	0	0	0	1	4	4
85	8.10957	0.0522451	0	0	0	0	1	4	4
85	8.16181	0.0870752	0	0	0	0	1	4	4
85	8.24889	0.110294	0	0	0	0	1	4	4
84	8.69587	0.0290241	0	0	0	0	1	4	4
84	8.75392	0.0522451	0	0	0	0	1	4	4
84	8.89324	0.0232191	0	0	0	0	1	4	4
72	8.77714	0.522449	0	0	0	0	1	4	4
71	9.3054	0.0928793	0	0	0	0	1	4	4
71	9.41569	0.10449	0	0	0	0	1	4	4
71	9.56082	0.261225	0	0	0	0	1	4	4
71	9.82204	0.476009	0	0	0	0	1	4	4
71	10.298	0.168344	0	0	0	0	1	4	4
71	10.4664	0.319274	0	0	0	0	1	4	4
71	10.7857	0.394739	0	0	0	0	1	4	4
69	11.4939	0.19737	0	0	0	0	1	4	4
69	11.6912	0.25542	0	0	0	0	1	4	4
69	11.9467	0.116099	0	0	0	0	1	4	4
69	12.0628	0.777868	0	0	0	0	1	4	4
81	12.8	0.313469	0	0	0	0	1	4	4
80	13.2528	0.0580502	0	0	0	0	1	4	4
77	13.3399	0.0638552	0	0	0	0	1	4	4
80	13.4037	0.0696592	0	0	0	0	1	4	4
80	13.4734	0.0638552	0	0	0	0	1	4	4
80	13.543	0.0638552	0	0	0	0	1	4	4
80	13.6707	0.0348301	0	0	0	0	1	4	4
80	13.7056	0.12771	0	0	0	0	1	4	4
80	13.8391	0.20898	0	0	0	0	1	4	4
80	14.0481	0.0754652	0	0	0	0	1	4	4
80	14.1816	0.0580502	0	0	0	0	1	4	4
80	14.2629	0.0638552	0	0	0	0	1	4	4
80	14.3325	0.139319	0	0	0	0	1	4	4
80	14.4718	0.0232201	0	0	0	0	1	4	4
80	14.5415	0.191565	0	0	0	0	1	4	4
80	14.7505	0.0928802	0	0	0	0	1	4	4
80	14.8434	0.0754642	0	0	0	0	1	4	4
80	14.9188	0.2322	0	0	0	0	1	4	4
77	15.4645	0.104489	0	0	0	0	1	4	4
77	15.6154	0.110294	0	0	0	0	1	4	4
77	16.0624	0.17415	0	0	0	0	1	4	4
77	16.3527	0.179955	0	0	0	0	1	4	4
77	16.5326	0.145124	0	0	0	0	1	4	4
77	16.6777	0.0580502	0	0	0	0	1	4	4
69	17.0957	0.121904	0	0	0	0	1	4	4
69	17.2176	0.0290241	0	0	0	0	1	4	4
69	17.3859	0.029026	0	0	0	0	1	4	4
81	17.5311	0.1161	0	0	0	0	1	4	4
69	17.7923	0.0464401	0	0	0	0	1	4	4
69	17.8387	0.0406342	0	0	0	0	1	4	4
69	17.9664	0.185759	0	0	0	0	1	4	4
73	18.3496	0.0348301	0	0	0	0	1	4	4
73	18.4134	0.864943	0	0	0	0	1	4	4
80	19.2784	0.272835	0	0	0	0	1	4	4
76	19.5512	0.191565	0	0	0	0	1	4	4
80	19.7428	0.156734	0	0	0	0	1	4	4
76	19.8879	0.01161	0	0	0	0	1	4	4
80	19.7428	0.16254	0	0	0	0	1	4	4
76	19.8879	0.017416	0	0	0	0	1	4	4
80	19.7428	0.168344	0	0	0	0	1	4	4
76	19.8879	0.0232201	0	0	0	0	1	4	4
80	19.7428	0.17415	0	0	0	0	1	4	4
76	19.8879	0.284445	0	0	0	0	1	4	4
76	20.4219	0.0232201	0	0	0	0	1	4	4
73	20.4452	0.0464401	0	0	0	0	1	4	4
73	20.4916	0.655964	0	0	0	0	1	4	4
69	21.223	0.0696602	0	0	0	0	1	4	4
68	21.6584	0.185759	0	0	0	0	1	4	4
68	21.8442	0.354105	0	0	0	0	1	4	4
68	22.1983	0.10449	0	0	0	0	1	4	4
73	22.3492	0.307665	0	0	0	0	1	4	4
73	22.6569	0.586304	0	0	0	0	1	4	4
69	23.2606	0.185759	0	0	0	0	1	4	4
76	23.4347	0.01161	0	0	0	0	1	4	4
69	23.2606	0.191565	0	0	0	0	1	4	4
76	23.4347	0.342495	0	0	0	0	1	4	4
76	23.7772	0.121904	0	0	0	0	1	4	4
76	23.8991	0.284445	0	0	0	0	1	4	4
78	24.3229	0.534058	0	0	0	0	1	4	4
78	24.857	0.313471	0	0	0	0	1	4	4
78	25.1704	0.0986843	0	0	0	0	1	4	4
78	25.2691	0.470203	0	0	0	0	1	4	4
78	25.7393	0.348299	0	0	0	0	1	4	4
78	26.0876	0.156734	0	0	0	0	1	4	4
78	26.2444	0.029026	0	0	0	0	1	4	4
78	26.3663	0.272835	0	0	0	0	1	4	4
78	26.6391	0.0232182	0	0	0	0	1	4	4
78	26.6855	0.377325	0	0	0	0	1	4	4
78	27.0687	0.133516	0	0	0	0	1	4	4
78	27.2022	0.0696583	0	0	0	0	1	4	4
78	27.3183	0.679184	0	0	0	0	1	4	4
78	27.9975	0.261225	0	0	0	0	1	4	4
78	28.2877	0.220591	0	0	0	0	1	4	4
78	28.5083	0.737234	0	0	0	0	1	4	4
78	29.2455	0.0348301	0	0	0	0	1	4	4
