midiPitch 	 onsetSec 	 durationSec 	 onsetBeats 	 onsetBarIndex 	 onsetBar 	 durationBeats 	 velocity  	 numerator 	 denominator 
64	0.603719	0.029025	0	0	2.31315e-035	0	1	4	4
64	0.737234	0.02322	0	0	2.31315e-035	0	1	4	4
68	0.772063	0.0232199	0	0	2.31315e-035	0	1	4	4
69	0.795283	0.0232199	0	0	2.31315e-035	0	1	4	4
68	1.02748	0.0406349	0	0	2.31315e-035	0	1	4	4
73	1.09134	0.0232199	0	0	2.31315e-035	0	1	4	4
72	1.19583	0.029025	0	0	2.31315e-035	0	1	4	4
73	1.27129	0.029025	0	0	2.31315e-035	0	1	4	4
73	1.399	0.029025	0	0	2.31315e-035	0	1	4	4
73	1.44544	0.0406349	0	0	2.31315e-035	0	1	4	4
71	1.57896	0.0232199	0	0	2.31315e-035	0	1	4	4
74	1.61959	0.0232199	0	0	2.31315e-035	0	1	4	4
72	1.66023	0.0232199	0	0	2.31315e-035	0	1	4	4
73	1.90404	0.029025	0	0	2.31315e-035	0	1	4	4
68	2.25814	0.0290248	0	0	2.31315e-035	0	1	4	4
74	2.28717	0.0290251	0	0	2.31315e-035	0	1	4	4
68	2.38005	0.0232198	0	0	2.31315e-035	0	1	4	4
77	2.69932	0.0232201	0	0	2.31315e-035	0	1	4	4
73	2.86186	0.0290251	0	0	2.31315e-035	0	1	4	4
73	2.9141	0.0290251	0	0	2.31315e-035	0	1	4	4
74	2.94893	0.0522449	0	0	2.31315e-035	0	1	4	4
73	3.01279	0.0232201	0	0	2.31315e-035	0	1	4	4
68	3.16372	0.0464399	0	0	2.31315e-035	0	1	4	4
74	3.21016	0.0580499	0	0	2.31315e-035	0	1	4	4
73	3.26821	0.0522449	0	0	2.31315e-035	0	1	4	4
74	3.48299	0.0232201	0	0	2.31315e-035	0	1	4	4
73	3.51202	0.0638549	0	0	2.31315e-035	0	1	4	4
75	3.58168	0.0232201	0	0	2.31315e-035	0	1	4	4
71	3.74422	0.0290248	0	0	2.31315e-035	0	1	4	4
73	3.92998	0.0290251	0	0	2.31315e-035	0	1	4	4
58	4.11574	0.0580497	0	0	2.31315e-035	0	1	4	4
57	4.23764	0.0232196	0	0	2.31315e-035	0	1	4	4
58	4.38277	0.0232201	0	0	2.31315e-035	0	1	4	4
58	4.6498	0.0290246	0	0	2.31315e-035	0	1	4	4
61	4.72526	0.0232201	0	0	2.31315e-035	0	1	4	4
56	4.91683	0.0232201	0	0	2.31315e-035	0	1	4	4
57	5.13741	0.0232201	0	0	2.31315e-035	0	1	4	4
57	5.16063	0.0406346	0	0	2.31315e-035	0	1	4	4
57	5.27093	0.0406346	0	0	2.31315e-035	0	1	4	4
58	5.32317	0.0290251	0	0	2.31315e-035	0	1	4	4
60	5.38703	0.0348301	0	0	2.31315e-035	0	1	4	4
56	5.42766	0.0290251	0	0	2.31315e-035	0	1	4	4
56	5.74694	0.0406351	0	0	2.31315e-035	0	1	4	4
57	6.02558	0.0232201	0	0	2.31315e-035	0	1	4	4
57	6.29841	0.0696597	0	0	2.31315e-035	0	1	4	4
57	6.55383	0.0290251	0	0	2.31315e-035	0	1	4	4
58	6.78023	0.0522447	0	0	2.31315e-035	0	1	4	4
57	7.40717	0.0754647	0	0	2.31315e-035	0	1	4	4
61	7.49424	0.0232201	0	0	2.31315e-035	0	1	4	4
57	7.55809	0.0232201	0	0	2.31315e-035	0	1	4	4
57	7.98186	0.0580502	0	0	2.31315e-035	0	1	4	4
61	8.07474	0.0290241	0	0	2.31315e-035	0	1	4	4
57	8.19084	0.0290251	0	0	2.31315e-035	0	1	4	4
57	8.52172	0.0348301	0	0	2.31315e-035	0	1	4	4
64	8.56236	0.0406351	0	0	2.31315e-035	0	1	4	4
59	8.74231	0.0406351	0	0	2.31315e-035	0	1	4	4
60	8.92227	0.0232201	0	0	2.31315e-035	0	1	4	4
56	9.13705	0.0232201	0	0	2.31315e-035	0	1	4	4
57	9.26476	0.0348301	0	0	2.31315e-035	0	1	4	4
57	9.29959	0.0232201	0	0	2.31315e-035	0	1	4	4
57	9.47374	0.0580492	0	0	2.31315e-035	0	1	4	4
59	9.97878	0.0406351	0	0	2.31315e-035	0	1	4	4
57	10.0775	0.0580502	0	0	2.31315e-035	0	1	4	4
57	10.3271	0.0290241	0	0	2.31315e-035	0	1	4	4
58	10.5302	0.0406342	0	0	2.31315e-035	0	1	4	4
57	10.6754	0.0696602	0	0	2.31315e-035	0	1	4	4
58	10.8844	0.0290251	0	0	2.31315e-035	0	1	4	4
57	11.1398	0.0290251	0	0	2.31315e-035	0	1	4	4
62	11.848	0.0232201	0	0	2.31315e-035	0	1	4	4
60	11.9873	0.0406342	0	0	2.31315e-035	0	1	4	4
59	12.086	0.0232201	0	0	2.31315e-035	0	1	4	4
70	12.9741	0.0232201	0	0	2.31315e-035	0	1	4	4
69	13.0206	0.0232201	0	0	2.31315e-035	0	1	4	4
67	13.0438	0.0348301	0	0	2.31315e-035	0	1	4	4
73	13.2122	0.0580492	0	0	2.31315e-035	0	1	4	4
70	13.4502	0.0464401	0	0	2.31315e-035	0	1	4	4
53	14.6112	0.0232201	0	0	2.31315e-035	0	1	4	4
58	15.54	0.0580502	0	0	2.31315e-035	0	1	4	4
76	15.865	0.0580492	0	0	2.31315e-035	0	1	4	4
76	16.103	0.0232201	0	0	2.31315e-035	0	1	4	4
74	16.1495	0.0406342	0	0	2.31315e-035	0	1	4	4
77	16.2307	0.0232201	0	0	2.31315e-035	0	1	4	4
76	16.254	0.0232201	0	0	2.31315e-035	0	1	4	4
78	16.283	0.0232201	0	0	2.31315e-035	0	1	4	4
78	16.3352	0.029026	0	0	2.31315e-035	0	1	4	4
75	16.5732	0.029026	0	0	2.31315e-035	0	1	4	4
57	16.7242	0.0232201	0	0	2.31315e-035	0	1	4	4
57	17.502	0.0290241	0	0	2.31315e-035	0	1	4	4
60	17.5717	0.0464401	0	0	2.31315e-035	0	1	4	4
55	17.6472	0.0290241	0	0	2.31315e-035	0	1	4	4
56	18.158	0.0232201	0	0	2.31315e-035	0	1	4	4
58	18.3031	0.0348301	0	0	2.31315e-035	0	1	4	4
59	18.4889	0.029026	0	0	2.31315e-035	0	1	4	4
58	18.814	0.0290241	0	0	2.31315e-035	0	1	4	4
57	19.139	0.0232201	0	0	2.31315e-035	0	1	4	4
57	19.261	0.0232201	0	0	2.31315e-035	0	1	4	4
57	19.7776	0.0406361	0	0	2.31315e-035	0	1	4	4
58	20.2768	0.0406342	0	0	2.31315e-035	0	1	4	4
57	21.0431	0.0522461	0	0	2.31315e-035	0	1	4	4
62	21.3275	0.0290241	0	0	2.31315e-035	0	1	4	4
57	21.4843	0.0348301	0	0	2.31315e-035	0	1	4	4
58	21.7513	0.0348301	0	0	2.31315e-035	0	1	4	4
57	21.9603	0.0348301	0	0	2.31315e-035	0	1	4	4
57	22.2273	0.0464401	0	0	2.31315e-035	0	1	4	4
57	22.3318	0.0232201	0	0	2.31315e-035	0	1	4	4
57	22.5524	0.0754662	0	0	2.31315e-035	0	1	4	4
57	22.8368	0.0696602	0	0	2.31315e-035	0	1	4	4
57	22.9645	0.0348301	0	0	2.31315e-035	0	1	4	4
57	23.3419	0.0464382	0	0	2.31315e-035	0	1	4	4
57	23.6611	0.029026	0	0	2.31315e-035	0	1	4	4
57	23.696	0.0464401	0	0	2.31315e-035	0	1	4	4
57	23.8295	0.0232201	0	0	2.31315e-035	0	1	4	4
57	23.8585	0.0232201	0	0	2.31315e-035	0	1	4	4
58	23.9049	0.0348301	0	0	2.31315e-035	0	1	4	4
58	23.9572	0.0348301	0	0	2.31315e-035	0	1	4	4
57	24.1429	0.0232201	0	0	2.31315e-035	0	1	4	4
57	24.4448	0.0348301	0	0	2.31315e-035	0	1	4	4
57	24.9556	0.0232201	0	0	2.31315e-035	0	1	4	4
57	25.8264	0.0580482	0	0	2.31315e-035	0	1	4	4
57	26.0238	0.0348301	0	0	2.31315e-035	0	1	4	4
57	26.3546	0.0232201	0	0	2.31315e-035	0	1	4	4
57	26.4707	0.029026	0	0	2.31315e-035	0	1	4	4
58	26.7552	0.0754662	0	0	2.31315e-035	0	1	4	4
57	27.0396	0.0522442	0	0	2.31315e-035	0	1	4	4
55	27.0977	0.0232201	0	0	2.31315e-035	0	1	4	4
