midiPitch 	 onsetSec 	 durationSec 	 onsetBeats 	 onsetBarIndex 	 onsetBar 	 durationBeats 	 velocity  	 numerator 	 denominator 
77	1.02748	0.0870748	0	0	2.03118e-035	0	1	4	4
73	1.11456	0.476009	0	0	2.03118e-035	0	1	4	4
73	1.59057	0.168345	0	0	2.03118e-035	0	1	4	4
66	1.76472	0.13932	0	0	2.03118e-035	0	1	4	4
78	1.90404	0.301859	0	0	2.03118e-035	0	1	4	4
78	2.17687	0.725623	0	0	2.03118e-035	0	1	4	4
78	2.90249	0.603719	0	0	2.03118e-035	0	1	4	4
80	3.50621	0.574694	0	0	2.03118e-035	0	1	4	4
80	4.08091	0.3483	0	0	2.03118e-035	0	1	4	4
78	4.42921	0.243809	0	0	2.03118e-035	0	1	4	4
80	4.72526	0.522449	0	0	2.03118e-035	0	1	4	4
81	5.24771	0.22059	0	0	2.03118e-035	0	1	4	4
81	5.50893	0.592109	0	0	2.03118e-035	0	1	4	4
80	6.10104	0.307664	0	0	2.03118e-035	0	1	4	4
81	6.40871	0.18576	0	0	2.03118e-035	0	1	4	4
73	6.59447	0.139319	0	0	2.03118e-035	0	1	4	4
81	6.72218	0.01161	0	0	2.03118e-035	0	1	4	4
73	6.59447	0.145124	0	0	2.03118e-035	0	1	4	4
81	6.72218	0.017415	0	0	2.03118e-035	0	1	4	4
73	6.59447	0.150929	0	0	2.03118e-035	0	1	4	4
81	6.72218	0.0232201	0	0	2.03118e-035	0	1	4	4
73	6.59447	0.156734	0	0	2.03118e-035	0	1	4	4
81	6.72218	0.0290251	0	0	2.03118e-035	0	1	4	4
73	6.59447	0.162539	0	0	2.03118e-035	0	1	4	4
81	6.72218	0.0348301	0	0	2.03118e-035	0	1	4	4
73	6.59447	0.168344	0	0	2.03118e-035	0	1	4	4
81	6.72218	0.0406351	0	0	2.03118e-035	0	1	4	4
73	6.59447	0.17415	0	0	2.03118e-035	0	1	4	4
81	6.72218	0.0464401	0	0	2.03118e-035	0	1	4	4
73	6.59447	0.179955	0	0	2.03118e-035	0	1	4	4
81	6.72218	0.0522451	0	0	2.03118e-035	0	1	4	4
73	6.59447	0.18576	0	0	2.03118e-035	0	1	4	4
81	6.72218	0.0580502	0	0	2.03118e-035	0	1	4	4
73	6.59447	0.191565	0	0	2.03118e-035	0	1	4	4
81	6.72218	0.0638552	0	0	2.03118e-035	0	1	4	4
73	6.59447	0.19737	0	0	2.03118e-035	0	1	4	4
81	6.72218	0.0696602	0	0	2.03118e-035	0	1	4	4
73	6.59447	0.203175	0	0	2.03118e-035	0	1	4	4
81	6.72218	0.145125	0	0	2.03118e-035	0	1	4	4
81	6.94857	0.0812697	0	0	2.03118e-035	0	1	4	4
81	7.02984	0.10449	0	0	2.03118e-035	0	1	4	4
74	7.13433	0.696599	0	0	2.03118e-035	0	1	4	4
74	7.83093	0.371519	0	0	2.03118e-035	0	1	4	4
74	8.20245	0.145124	0	0	2.03118e-035	0	1	4	4
74	8.34757	0.0928802	0	0	2.03118e-035	0	1	4	4
74	8.44045	0.127709	0	0	2.03118e-035	0	1	4	4
74	8.56816	0.261225	0	0	2.03118e-035	0	1	4	4
78	8.82939	0.104489	0	0	2.03118e-035	0	1	4	4
85	8.93388	0.731429	0	0	2.03118e-035	0	1	4	4
83	9.66531	0.325079	0	0	2.03118e-035	0	1	4	4
81	9.99039	0.580499	0	0	2.03118e-035	0	1	4	4
83	10.5709	0.551475	0	0	2.03118e-035	0	1	4	4
83	11.1224	0.0696592	0	0	2.03118e-035	0	1	4	4
81	11.192	0.284445	0	0	2.03118e-035	0	1	4	4
81	11.4765	0.238005	0	0	2.03118e-035	0	1	4	4
81	11.7145	0.0406351	0	0	2.03118e-035	0	1	4	4
80	11.7551	0.638549	0	0	2.03118e-035	0	1	4	4
77	12.5272	0.603719	0	0	2.03118e-035	0	1	4	4
77	13.1309	0.928798	0	0	2.03118e-035	0	1	4	4
77	14.0597	0.0232201	0	0	2.03118e-035	0	1	4	4
77	14.2396	0.458593	0	0	2.03118e-035	0	1	4	4
68	14.6982	0.696599	0	0	2.03118e-035	0	1	4	4
73	15.3948	0.145124	0	0	2.03118e-035	0	1	4	4
73	15.54	0.307665	0	0	2.03118e-035	0	1	4	4
78	15.865	1.09134	0	0	2.03118e-035	0	1	4	4
78	16.9564	0.597914	0	0	2.03118e-035	0	1	4	4
78	17.5543	0.0464401	0	0	2.03118e-035	0	1	4	4
78	17.5543	0.0522461	0	0	2.03118e-035	0	1	4	4
80	17.5949	0.928797	0	0	2.03118e-035	0	1	4	4
78	18.5237	0.243811	0	0	2.03118e-035	0	1	4	4
80	18.8198	0.563084	0	0	2.03118e-035	0	1	4	4
81	19.4757	0.772064	0	0	2.03118e-035	0	1	4	4
80	20.3349	0.232199	0	0	2.03118e-035	0	1	4	4
81	20.6019	0.179955	0	0	2.03118e-035	0	1	4	4
73	20.7819	0.0870762	0	0	2.03118e-035	0	1	4	4
81	20.8573	0.01161	0	0	2.03118e-035	0	1	4	4
73	20.7819	0.0928802	0	0	2.03118e-035	0	1	4	4
81	20.8573	0.0174141	0	0	2.03118e-035	0	1	4	4
73	20.7819	0.0986862	0	0	2.03118e-035	0	1	4	4
81	20.8573	0.0232201	0	0	2.03118e-035	0	1	4	4
73	20.7819	0.10449	0	0	2.03118e-035	0	1	4	4
81	20.8573	0.0290241	0	0	2.03118e-035	0	1	4	4
73	20.7819	0.110296	0	0	2.03118e-035	0	1	4	4
81	20.8573	0.0348301	0	0	2.03118e-035	0	1	4	4
73	20.7819	0.1161	0	0	2.03118e-035	0	1	4	4
81	20.8573	0.0406342	0	0	2.03118e-035	0	1	4	4
73	20.7819	0.121906	0	0	2.03118e-035	0	1	4	4
81	20.8573	0.0464401	0	0	2.03118e-035	0	1	4	4
73	20.7819	0.12771	0	0	2.03118e-035	0	1	4	4
81	20.8573	0.0522442	0	0	2.03118e-035	0	1	4	4
73	20.7819	0.133514	0	0	2.03118e-035	0	1	4	4
81	20.8573	0.0580482	0	0	2.03118e-035	0	1	4	4
73	20.7819	0.13932	0	0	2.03118e-035	0	1	4	4
81	20.8573	0.0638542	0	0	2.03118e-035	0	1	4	4
73	20.7819	0.145124	0	0	2.03118e-035	0	1	4	4
81	20.8573	0.0696583	0	0	2.03118e-035	0	1	4	4
73	20.7819	0.15093	0	0	2.03118e-035	0	1	4	4
81	20.8573	0.0754642	0	0	2.03118e-035	0	1	4	4
73	20.7819	0.156734	0	0	2.03118e-035	0	1	4	4
81	20.8573	0.232199	0	0	2.03118e-035	0	1	4	4
81	21.0895	0.0290241	0	0	2.03118e-035	0	1	4	4
74	21.1185	1.17261	0	0	2.03118e-035	0	1	4	4
74	22.2912	0.597914	0	0	2.03118e-035	0	1	4	4
74	22.8891	0.0290241	0	0	2.03118e-035	0	1	4	4
78	23.011	0.12771	0	0	2.03118e-035	0	1	4	4
85	23.1561	0.638548	0	0	2.03118e-035	0	1	4	4
83	23.7946	0.272835	0	0	2.03118e-035	0	1	4	4
81	24.1023	0.441179	0	0	2.03118e-035	0	1	4	4
81	24.5667	0.0638542	0	0	2.03118e-035	0	1	4	4
83	24.6306	0.597914	0	0	2.03118e-035	0	1	4	4
83	25.2285	0.0522461	0	0	2.03118e-035	0	1	4	4
81	25.2807	0.499229	0	0	2.03118e-035	0	1	4	4
81	25.78	0.0754642	0	0	2.03118e-035	0	1	4	4
80	25.8554	0.0232201	0	0	2.03118e-035	0	1	4	4
80	25.8844	0.0348301	0	0	2.03118e-035	0	1	4	4
80	25.9251	0.493423	0	0	2.03118e-035	0	1	4	4
80	26.4185	0.0290241	0	0	2.03118e-035	0	1	4	4
78	26.4649	0.325079	0	0	2.03118e-035	0	1	4	4
74	26.97	0.10449	0	0	2.03118e-035	0	1	4	4
74	27.0745	0.267029	0	0	2.03118e-035	0	1	4	4
78	27.3415	0.243811	0	0	2.03118e-035	0	1	4	4
78	27.6492	0.110294	0	0	2.03118e-035	0	1	4	4
78	27.8756	0.0928802	0	0	2.03118e-035	0	1	4	4
74	28.0091	0.110294	0	0	2.03118e-035	0	1	4	4
74	28.1368	0.1161	0	0	2.03118e-035	0	1	4	4
74	28.2645	0.104488	0	0	2.03118e-035	0	1	4	4
74	28.3922	0.0348301	0	0	2.03118e-035	0	1	4	4
78	28.427	0.0754642	0	0	2.03118e-035	0	1	4	4
76	28.5025	0.0348301	0	0	2.03118e-035	0	1	4	4
74	28.5605	0.0580502	0	0	2.03118e-035	0	1	4	4
78	28.6186	0.0522461	0	0	2.03118e-035	0	1	4	4
74	28.6708	0.0812683	0	0	2.03118e-035	0	1	4	4
81	28.7753	0.16254	0	0	2.03118e-035	0	1	4	4
74	28.9379	0.1161	0	0	2.03118e-035	0	1	4	4
81	29.054	0.284443	0	0	2.03118e-035	0	1	4	4
74	29.3384	0.574696	0	0	2.03118e-035	0	1	4	4
