midiPitch 	 onsetSec 	 durationSec 	 onsetBeats 	 onsetBarIndex 	 onsetBar 	 durationBeats 	 velocity  	 numerator 	 denominator 
70	0.22059	0.0986848	0	0	2.29423e-035	0	1	4	4
75	0.400544	0.0348299	0	0	2.29423e-035	0	1	4	4
76	0.435374	0.12771	0	0	2.29423e-035	0	1	4	4
79	0.563084	0.1161	0	0	2.29423e-035	0	1	4	4
79	0.679184	0.1161	0	0	2.29423e-035	0	1	4	4
82	0.795283	0.359909	0	0	2.29423e-035	0	1	4	4
77	1.15519	0.0522449	0	0	2.29423e-035	0	1	4	4
74	1.20744	0.417959	0	0	2.29423e-035	0	1	4	4
77	1.70667	0.03483	0	0	2.29423e-035	0	1	4	4
77	1.76472	0.272834	0	0	2.29423e-035	0	1	4	4
77	1.76472	0.278639	0	0	2.29423e-035	0	1	4	4
70	2.03175	0.075465	0	0	2.29423e-035	0	1	4	4
70	2.10721	0.0522449	0	0	2.29423e-035	0	1	4	4
74	2.16526	0.290249	0	0	2.29423e-035	0	1	4	4
79	2.49034	0.121905	0	0	2.29423e-035	0	1	4	4
77	2.61224	0.0232201	0	0	2.29423e-035	0	1	4	4
77	2.64707	0.16254	0	0	2.29423e-035	0	1	4	4
77	2.80961	0.0986848	0	0	2.29423e-035	0	1	4	4
74	2.93732	0.0928798	0	0	2.29423e-035	0	1	4	4
75	3.12308	0.0406349	0	0	2.29423e-035	0	1	4	4
74	3.28562	0.0928798	0	0	2.29423e-035	0	1	4	4
76	3.41914	0.0522449	0	0	2.29423e-035	0	1	4	4
78	3.52943	0.214785	0	0	2.29423e-035	0	1	4	4
78	3.81968	0.1161	0	0	2.29423e-035	0	1	4	4
79	3.9532	0.208979	0	0	2.29423e-035	0	1	4	4
74	4.43501	0.406349	0	0	2.29423e-035	0	1	4	4
72	4.85297	0.133514	0	0	2.29423e-035	0	1	4	4
72	4.98649	0.10449	0	0	2.29423e-035	0	1	4	4
79	5.08517	0.20898	0	0	2.29423e-035	0	1	4	4
77	5.3522	0.162539	0	0	2.29423e-035	0	1	4	4
78	5.51474	0.121905	0	0	2.29423e-035	0	1	4	4
74	5.63664	0.0928798	0	0	2.29423e-035	0	1	4	4
74	5.72952	0.0348301	0	0	2.29423e-035	0	1	4	4
72	5.80499	0.406349	0	0	2.29423e-035	0	1	4	4
72	6.22875	0.0812697	0	0	2.29423e-035	0	1	4	4
72	6.31002	0.39474	0	0	2.29423e-035	0	1	4	4
72	6.8615	0.17415	0	0	2.29423e-035	0	1	4	4
78	7.02984	0.0522451	0	0	2.29423e-035	0	1	4	4
76	7.18077	0.0464396	0	0	2.29423e-035	0	1	4	4
72	7.27946	0.110295	0	0	2.29423e-035	0	1	4	4
70	7.38975	0.110295	0	0	2.29423e-035	0	1	4	4
73	7.59293	0.267029	0	0	2.29423e-035	0	1	4	4
68	8.01669	0.0464401	0	0	2.29423e-035	0	1	4	4
68	8.20825	0.17415	0	0	2.29423e-035	0	1	4	4
72	8.3824	0.121905	0	0	2.29423e-035	0	1	4	4
51	8.55075	0.296055	0	0	2.29423e-035	0	1	4	4
57	9.17188	0.0522451	0	0	2.29423e-035	0	1	4	4
58	9.28218	0.150929	0	0	2.29423e-035	0	1	4	4
58	9.43311	0.226395	0	0	2.29423e-035	0	1	4	4
58	9.6595	0.0232201	0	0	2.29423e-035	0	1	4	4
55	9.7756	0.0290251	0	0	2.29423e-035	0	1	4	4
53	9.81043	0.249615	0	0	2.29423e-035	0	1	4	4
56	10.3213	0.0232201	0	0	2.29423e-035	0	1	4	4
57	10.3503	0.139319	0	0	2.29423e-035	0	1	4	4
57	10.4896	0.127709	0	0	2.29423e-035	0	1	4	4
56	10.6173	0.13932	0	0	2.29423e-035	0	1	4	4
58	10.8263	0.150929	0	0	2.29423e-035	0	1	4	4
58	10.9772	0.12771	0	0	2.29423e-035	0	1	4	4
58	11.1049	0.0638552	0	0	2.29423e-035	0	1	4	4
61	11.1688	0.0986843	0	0	2.29423e-035	0	1	4	4
56	11.7087	0.110294	0	0	2.29423e-035	0	1	4	4
56	11.819	0.179955	0	0	2.29423e-035	0	1	4	4
62	12.3995	0.0754642	0	0	2.29423e-035	0	1	4	4
61	12.4749	0.1161	0	0	2.29423e-035	0	1	4	4
59	12.6491	0.0522451	0	0	2.29423e-035	0	1	4	4
58	12.7013	0.121904	0	0	2.29423e-035	0	1	4	4
57	12.8348	0.0580502	0	0	2.29423e-035	0	1	4	4
56	12.8929	0.10449	0	0	2.29423e-035	0	1	4	4
53	13.0902	0.377324	0	0	2.29423e-035	0	1	4	4
53	14.0365	0.17415	0	0	2.29423e-035	0	1	4	4
54	14.2106	0.116099	0	0	2.29423e-035	0	1	4	4
54	14.3267	0.0638552	0	0	2.29423e-035	0	1	4	4
55	14.3906	0.0638542	0	0	2.29423e-035	0	1	4	4
56	14.4544	0.0232201	0	0	2.29423e-035	0	1	4	4
56	14.4834	0.15093	0	0	2.29423e-035	0	1	4	4
60	14.7679	0.150929	0	0	2.29423e-035	0	1	4	4
60	14.9188	0.13932	0	0	2.29423e-035	0	1	4	4
53	15.151	0.0406351	0	0	2.29423e-035	0	1	4	4
51	15.3948	0.238005	0	0	2.29423e-035	0	1	4	4
51	15.8883	0.238006	0	0	2.29423e-035	0	1	4	4
55	16.312	0.15093	0	0	2.29423e-035	0	1	4	4
58	16.759	0.0696583	0	0	2.29423e-035	0	1	4	4
58	16.8287	0.0406361	0	0	2.29423e-035	0	1	4	4
59	16.8751	0.0232201	0	0	2.29423e-035	0	1	4	4
55	17.0202	0.029026	0	0	2.29423e-035	0	1	4	4
52	17.0551	0.278641	0	0	2.29423e-035	0	1	4	4
56	17.6878	0.267031	0	0	2.29423e-035	0	1	4	4
57	17.9548	0.168344	0	0	2.29423e-035	0	1	4	4
58	18.1464	0.162539	0	0	2.29423e-035	0	1	4	4
58	18.3089	0.10449	0	0	2.29423e-035	0	1	4	4
58	18.4483	0.145124	0	0	2.29423e-035	0	1	4	4
60	18.6108	0.197369	0	0	2.29423e-035	0	1	4	4
57	19.0752	0.203175	0	0	2.29423e-035	0	1	4	4
60	19.8008	0.0348301	0	0	2.29423e-035	0	1	4	4
60	19.8415	0.0754642	0	0	2.29423e-035	0	1	4	4
58	20.004	0.15093	0	0	2.29423e-035	0	1	4	4
56	20.2536	0.0986843	0	0	2.29423e-035	0	1	4	4
53	20.4568	0.0986843	0	0	2.29423e-035	0	1	4	4
53	20.5555	0.290251	0	0	2.29423e-035	0	1	4	4
55	21.1824	0.0406342	0	0	2.29423e-035	0	1	4	4
55	21.2521	0.0522442	0	0	2.29423e-035	0	1	4	4
56	21.3101	0.0348282	0	0	2.29423e-035	0	1	4	4
56	21.3449	0.0348301	0	0	2.29423e-035	0	1	4	4
56	21.3972	0.0812702	0	0	2.29423e-035	0	1	4	4
56	21.5946	0.0522461	0	0	2.29423e-035	0	1	4	4
56	21.6468	0.0290241	0	0	2.29423e-035	0	1	4	4
56	21.6874	0.0522442	0	0	2.29423e-035	0	1	4	4
56	21.7397	0.0348301	0	0	2.29423e-035	0	1	4	4
56	21.8442	0.0232201	0	0	2.29423e-035	0	1	4	4
57	22.2854	0.0348301	0	0	2.29423e-035	0	1	4	4
56	22.3376	0.127708	0	0	2.29423e-035	0	1	4	4
60	22.5814	0.179955	0	0	2.29423e-035	0	1	4	4
60	22.7614	0.0232201	0	0	2.29423e-035	0	1	4	4
60	22.7904	0.0232201	0	0	2.29423e-035	0	1	4	4
63	22.8426	0.162539	0	0	2.29423e-035	0	1	4	4
63	23.0052	0.0348301	0	0	2.29423e-035	0	1	4	4
56	23.2316	0.0464401	0	0	2.29423e-035	0	1	4	4
56	23.278	0.284445	0	0	2.29423e-035	0	1	4	4
57	23.5624	0.0696602	0	0	2.29423e-035	0	1	4	4
58	23.8063	0.203175	0	0	2.29423e-035	0	1	4	4
58	24.3868	0.0580502	0	0	2.29423e-035	0	1	4	4
60	24.468	0.0754642	0	0	2.29423e-035	0	1	4	4
58	24.6073	0.0580502	0	0	2.29423e-035	0	1	4	4
58	24.6654	0.0232201	0	0	2.29423e-035	0	1	4	4
59	24.7118	0.0638561	0	0	2.29423e-035	0	1	4	4
56	25.124	0.139318	0	0	2.29423e-035	0	1	4	4
57	25.2633	0.0696602	0	0	2.29423e-035	0	1	4	4
56	25.333	0.133514	0	0	2.29423e-035	0	1	4	4
58	25.4665	0.0348301	0	0	2.29423e-035	0	1	4	4
59	25.5013	0.0406361	0	0	2.29423e-035	0	1	4	4
58	25.542	0.0348301	0	0	2.29423e-035	0	1	4	4
58	25.5826	0.0232201	0	0	2.29423e-035	0	1	4	4
59	25.6174	0.0290241	0	0	2.29423e-035	0	1	4	4
58	25.7974	0.0464401	0	0	2.29423e-035	0	1	4	4
57	25.8438	0.0406342	0	0	2.29423e-035	0	1	4	4
60	25.8902	0.267029	0	0	2.29423e-035	0	1	4	4
55	26.4824	0.0232201	0	0	2.29423e-035	0	1	4	4
53	26.9003	0.029026	0	0	2.29423e-035	0	1	4	4
59	27.208	0.029026	0	0	2.29423e-035	0	1	4	4
58	27.3589	0.0696602	0	0	2.29423e-035	0	1	4	4
58	27.4344	0.0638542	0	0	2.29423e-035	0	1	4	4
54	27.8117	0.0290241	0	0	2.29423e-035	0	1	4	4
53	27.8465	0.191565	0	0	2.29423e-035	0	1	4	4
77	27.9336	0.296055	0	0	2.29423e-035	0	1	4	4
77	28.2297	0.0638542	0	0	2.29423e-035	0	1	4	4
77	28.2935	0.499229	0	0	2.29423e-035	0	1	4	4
72	29.2862	0.0406342	0	0	2.29423e-035	0	1	4	4
