midiPitch 	 onsetSec 	 durationSec 	 onsetBeats 	 onsetBarIndex 	 onsetBar 	 durationBeats 	 velocity  	 numerator 	 denominator 
64	0.0522449	0.0580499	0	0	0	0	1	4	4
64	0.2322	0.168345	0	0	0	0	1	4	4
64	0.563084	0.12771	0	0	0	0	1	4	4
64	0.824308	0.0406349	0	0	0	0	1	4	4
64	1.10875	0.1161	0	0	0	0	1	4	4
63	1.399	0.040635	0	0	0	0	1	4	4
64	1.43964	0.0812699	0	0	0	0	1	4	4
67	1.7473	0.0696598	0	0	0	0	1	4	4
64	2.24073	0.0464399	0	0	0	0	1	4	4
64	2.50195	0.15093	0	0	0	0	1	4	4
62	2.70512	0.0928798	0	0	0	0	1	4	4
63	2.84444	0.110295	0	0	0	0	1	4	4
62	3.1463	0.0290248	0	0	0	0	1	4	4
64	3.18113	0.1161	0	0	0	0	1	4	4
66	3.50621	0.0986848	0	0	0	0	1	4	4
62	3.94159	0.0290251	0	0	0	0	1	4	4
64	4.02286	0.156734	0	0	0	0	1	4	4
63	4.35955	0.133515	0	0	0	0	1	4	4
63	4.60916	0.10449	0	0	0	0	1	4	4
61	4.71365	0.0232201	0	0	0	0	1	4	4
67	4.98068	0.0812702	0	0	0	0	1	4	4
62	5.38122	0.0290251	0	0	0	0	1	4	4
62	5.41605	0.0696597	0	0	0	0	1	4	4
66	6.10685	0.0812702	0	0	0	0	1	4	4
64	6.48998	0.18576	0	0	0	0	1	4	4
66	6.67574	0.0986848	0	0	0	0	1	4	4
66	7.05306	0.0290251	0	0	0	0	1	4	4
64	7.08209	0.0638547	0	0	0	0	1	4	4
66	7.14594	0.16254	0	0	0	0	1	4	4
64	7.47102	0.0986848	0	0	0	0	1	4	4
66	7.8019	0.0348301	0	0	0	0	1	4	4
62	8.09215	0.150929	0	0	0	0	1	4	4
65	8.67846	0.139319	0	0	0	0	1	4	4
65	8.99193	0.0290251	0	0	0	0	1	4	4
65	9.02676	0.0870752	0	0	0	0	1	4	4
64	9.27057	0.0638542	0	0	0	0	1	4	4
65	9.63628	0.0580502	0	0	0	0	1	4	4
63	10.1181	0.150929	0	0	0	0	1	4	4
65	10.5419	0.0522442	0	0	0	0	1	4	4
65	10.7683	0.0348301	0	0	0	0	1	4	4
65	10.8031	0.0348301	0	0	0	0	1	4	4
62	10.925	0.110294	0	0	0	0	1	4	4
59	11.0353	0.0406351	0	0	0	0	1	4	4
57	11.0759	0.0406351	0	0	0	0	1	4	4
59	11.2965	0.0232201	0	0	0	0	1	4	4
58	11.3255	0.0812693	0	0	0	0	1	4	4
57	11.5751	0.0406342	0	0	0	0	1	4	4
56	11.6158	0.0290251	0	0	0	0	1	4	4
59	12.086	0.0870752	0	0	0	0	1	4	4
57	12.1731	0.249614	0	0	0	0	1	4	4
58	12.4227	0.0232201	0	0	0	0	1	4	4
64	12.7652	0.150929	0	0	0	0	1	4	4
64	13.1541	0.145124	0	0	0	0	1	4	4
64	13.9378	0.0406351	0	0	0	0	1	4	4
63	14.0829	0.0290251	0	0	0	0	1	4	4
65	14.3035	0.133515	0	0	0	0	1	4	4
64	14.6924	0.0812702	0	0	0	0	1	4	4
63	14.7737	0.0406351	0	0	0	0	1	4	4
65	15.1568	0.0290251	0	0	0	0	1	4	4
65	15.1917	0.0870743	0	0	0	0	1	4	4
65	15.4239	0.127709	0	0	0	0	1	4	4
64	15.8012	0.0406351	0	0	0	0	1	4	4
66	16.0334	0.145124	0	0	0	0	1	4	4
60	16.1785	0.179955	0	0	0	0	1	4	4
62	16.5094	0.0928802	0	0	0	0	1	4	4
58	16.8229	0.0522442	0	0	0	0	1	4	4
57	16.8751	0.0754662	0	0	0	0	1	4	4
57	17.1595	0.0638542	0	0	0	0	1	4	4
56	17.3279	0.168344	0	0	0	0	1	4	4
57	17.7575	0.0986843	0	0	0	0	1	4	4
63	18.5934	0.0464401	0	0	0	0	1	4	4
64	18.7675	0.267029	0	0	0	0	1	4	4
63	19.1158	0.0928802	0	0	0	0	1	4	4
65	19.4815	0.0928802	0	0	0	0	1	4	4
65	19.975	0.0522442	0	0	0	0	1	4	4
64	20.3407	0.110296	0	0	0	0	1	4	4
63	20.6483	0.133514	0	0	0	0	1	4	4
64	20.9154	0.0638561	0	0	0	0	1	4	4
62	20.985	0.0986862	0	0	0	0	1	4	4
62	21.2056	0.313469	0	0	0	0	1	4	4
59	21.5946	0.15093	0	0	0	0	1	4	4
59	21.9893	0.238005	0	0	0	0	1	4	4
66	22.9471	0.110294	0	0	0	0	1	4	4
63	23.3593	0.0232201	0	0	0	0	1	4	4
67	23.6205	0.1161	0	0	0	0	1	4	4
66	24.6944	0.0638542	0	0	0	0	1	4	4
65	24.7989	0.110294	0	0	0	0	1	4	4
65	24.9092	0.162539	0	0	0	0	1	4	4
66	25.3272	0.0812702	0	0	0	0	1	4	4
62	25.7103	0.0348301	0	0	0	0	1	4	4
64	25.8322	0.0348301	0	0	0	0	1	4	4
66	26.1399	0.110294	0	0	0	0	1	4	4
62	26.2502	0.0754642	0	0	0	0	1	4	4
61	26.3256	0.029026	0	0	0	0	1	4	4
64	26.4591	0.145126	0	0	0	0	1	4	4
66	26.6739	0.12771	0	0	0	0	1	4	4
64	27.4692	0.0522442	0	0	0	0	1	4	4
66	27.6259	0.13932	0	0	0	0	1	4	4
64	27.893	0.0754662	0	0	0	0	1	4	4
64	28.2064	0.104488	0	0	0	0	1	4	4
64	28.4851	0.0696602	0	0	0	0	1	4	4
66	28.8044	0.110294	0	0	0	0	1	4	4
