midiPitch 	 onsetSec 	 durationSec 	 onsetBeats 	 onsetBarIndex 	 onsetBar 	 durationBeats 	 velocity  	 numerator 	 denominator 
52	2.20009	0.1161	0	0	0	0	1	4	4
52	2.31619	0.0464399	0	0	0	0	1	4	4
52	2.53678	0.0406351	0	0	0	0	1	4	4
52	2.62385	0.0406349	0	0	0	0	1	4	4
47	2.69351	0.0232201	0	0	0	0	1	4	4
53	2.73995	0.18576	0	0	0	0	1	4	4
56	3.04181	0.296054	0	0	0	0	1	4	4
56	3.33787	0.0406349	0	0	0	0	1	4	4
56	3.3785	0.0232201	0	0	0	0	1	4	4
56	5.43347	0.0870748	0	0	0	0	1	4	4
56	5.52054	0.330884	0	0	0	0	1	4	4
56	5.90948	0.754649	0	0	0	0	1	4	4
55	6.66413	0.20898	0	0	0	0	1	4	4
54	6.87311	0.17415	0	0	0	0	1	4	4
52	7.73224	0.893968	0	0	0	0	1	4	4
45	15.627	0.371519	0	0	0	0	1	4	4
45	16.2307	0.394739	0	0	0	0	1	4	4
45	16.73	0.400545	0	0	0	0	1	4	4
46	17.1305	0.0754642	0	0	0	0	1	4	4
49	17.6704	0.226395	0	0	0	0	1	4	4
70	17.9722	0.10449	0	0	0	0	1	4	4
70	18.4076	0.156734	0	0	0	0	1	4	4
68	18.6514	0.638548	0	0	0	0	1	4	4
68	19.29	0.354105	0	0	0	0	1	4	4
68	19.6441	0.0406342	0	0	0	0	1	4	4
67	19.6847	0.354105	0	0	0	0	1	4	4
68	20.0388	0.62694	0	0	0	0	1	4	4
68	20.7238	0.0696602	0	0	0	0	1	4	4
52	20.6483	0.16254	0	0	0	0	1	4	4
52	21.3449	0.0638561	0	0	0	0	1	4	4
52	21.432	0.156734	0	0	0	0	1	4	4
47	21.85	0.272835	0	0	0	0	1	4	4
49	22.3144	0.0870743	0	0	0	0	1	4	4
49	22.4015	0.156734	0	0	0	0	1	4	4
49	22.6104	0.17415	0	0	0	0	1	4	4
49	22.7846	0.0986843	0	0	0	0	1	4	4
47	23.1387	0.214785	0	0	0	0	1	4	4
46	23.4347	0.18576	0	0	0	0	1	4	4
45	23.6205	0.853333	0	0	0	0	1	4	4
52	24.7467	0.16254	0	0	0	0	1	4	4
55	25.1704	0.145124	0	0	0	0	1	4	4
52	25.3156	0.214785	0	0	0	0	1	4	4
52	26.1108	0.226395	0	0	0	0	1	4	4
55	26.494	0.156734	0	0	0	0	1	4	4
55	26.6507	0.0348301	0	0	0	0	1	4	4
52	26.761	0.0812702	0	0	0	0	1	4	4
52	26.8423	0.0290241	0	0	0	0	1	4	4
52	27.4634	0.0812683	0	0	0	0	1	4	4
52	28.0729	0.133514	0	0	0	0	1	4	4
52	28.3806	0.110296	0	0	0	0	1	4	4
53	28.6534	0.10449	0	0	0	0	1	4	4
52	28.7579	0.121904	0	0	0	0	1	4	4
52	29.0249	0.267031	0	0	0	0	1	4	4
47	29.5184	0.249615	0	0	0	0	1	4	4
