midiPitch 	 onsetSec 	 durationSec 	 onsetBeats 	 onsetBarIndex 	 onsetBar 	 durationBeats 	 velocity  	 numerator 	 denominator 
52	0.0812698	0.702404	0	0	0	0	1	4	4
50	0.783673	0.17415	0	0	0	0	1	4	4
50	1.00426	0.226395	0	0	0	0	1	4	4
51	1.25388	0.0580499	0	0	0	0	1	4	4
57	1.40481	0.0232199	0	0	0	0	1	4	4
66	1.71247	0.0464399	0	0	0	0	1	4	4
65	1.75891	0.249615	0	0	0	0	1	4	4
64	2.00853	0.226394	0	0	0	0	1	4	4
63	2.23492	0.0290251	0	0	0	0	1	4	4
65	2.40907	0.133515	0	0	0	0	1	4	4
65	2.63546	0.15093	0	0	0	0	1	4	4
65	2.89669	0.0348301	0	0	0	0	1	4	4
64	2.97215	0.10449	0	0	0	0	1	4	4
65	3.07664	0.0696599	0	0	0	0	1	4	4
64	3.1463	0.0406349	0	0	0	0	1	4	4
64	3.27982	0.110295	0	0	0	0	1	4	4
62	3.39011	0.0522449	0	0	0	0	1	4	4
63	3.51202	0.0696599	0	0	0	0	1	4	4
64	3.58168	0.17415	0	0	0	0	1	4	4
64	3.88934	0.133515	0	0	0	0	1	4	4
63	4.45243	0.162539	0	0	0	0	1	4	4
63	4.64399	0.0986848	0	0	0	0	1	4	4
63	4.85878	0.0696597	0	0	0	0	1	4	4
64	5.43347	0.0986848	0	0	0	0	1	4	4
63	5.79338	0.0232201	0	0	0	0	1	4	4
63	5.84562	0.0754647	0	0	0	0	1	4	4
64	6.0546	0.0580497	0	0	0	0	1	4	4
63	6.11265	0.0638552	0	0	0	0	1	4	4
63	6.17651	0.0812697	0	0	0	0	1	4	4
64	6.41451	0.0696602	0	0	0	0	1	4	4
64	6.5132	0.0464401	0	0	0	0	1	4	4
63	6.62349	0.0812702	0	0	0	0	1	4	4
64	6.70476	0.0406346	0	0	0	0	1	4	4
64	6.76862	0.110295	0	0	0	0	1	4	4
62	6.94277	0.12771	0	0	0	0	1	4	4
62	7.26785	0.203175	0	0	0	0	1	4	4
63	7.52907	0.150929	0	0	0	0	1	4	4
63	8.06893	0.0348291	0	0	0	0	1	4	4
63	8.10376	0.0290251	0	0	0	0	1	4	4
62	8.17923	0.0580502	0	0	0	0	1	4	4
62	8.23728	0.0464401	0	0	0	0	1	4	4
62	8.55655	0.0986853	0	0	0	0	1	4	4
61	8.65524	0.121904	0	0	0	0	1	4	4
62	8.81197	0.0754652	0	0	0	0	1	4	4
61	9.13125	0.203175	0	0	0	0	1	4	4
62	9.46213	0.0870743	0	0	0	0	1	4	4
62	10.1413	0.0290241	0	0	0	0	1	4	4
63	10.1761	0.168345	0	0	0	0	1	4	4
64	10.5941	0.0522451	0	0	0	0	1	4	4
63	10.6463	0.0870752	0	0	0	0	1	4	4
63	10.7334	0.0464392	0	0	0	0	1	4	4
65	11.2443	0.10449	0	0	0	0	1	4	4
64	11.3488	0.0986843	0	0	0	0	1	4	4
63	11.6912	0.0232201	0	0	0	0	1	4	4
66	11.7319	0.0522451	0	0	0	0	1	4	4
66	11.848	0.22059	0	0	0	0	1	4	4
65	12.4401	0.18576	0	0	0	0	1	4	4
63	13.2354	0.214785	0	0	0	0	1	4	4
63	13.6243	0.296054	0	0	0	0	1	4	4
63	14.0132	0.133514	0	0	0	0	1	4	4
62	14.3267	0.2322	0	0	0	0	1	4	4
63	14.7215	0.19737	0	0	0	0	1	4	4
63	14.9188	0.19737	0	0	0	0	1	4	4
63	15.1394	0.0232201	0	0	0	0	1	4	4
65	15.3194	0.0696602	0	0	0	0	1	4	4
65	15.4297	0.0348301	0	0	0	0	1	4	4
65	15.4819	0.110295	0	0	0	0	1	4	4
64	15.6328	0.0928793	0	0	0	0	1	4	4
63	16.016	0.203175	0	0	0	0	1	4	4
62	16.6081	0.0406342	0	0	0	0	1	4	4
62	16.6603	0.0464401	0	0	0	0	1	4	4
61	16.7068	0.029026	0	0	0	0	1	4	4
63	17.1363	0.168344	0	0	0	0	1	4	4
63	17.3395	0.168344	0	0	0	0	1	4	4
63	17.7284	0.0290241	0	0	0	0	1	4	4
64	17.7633	0.0754642	0	0	0	0	1	4	4
63	18.1928	0.0464401	0	0	0	0	1	4	4
63	18.3786	0.18576	0	0	0	0	1	4	4
64	18.9127	0.197369	0	0	0	0	1	4	4
64	19.11	0.278641	0	0	0	0	1	4	4
62	19.4467	0.139318	0	0	0	0	1	4	4
63	19.7428	0.330885	0	0	0	0	1	4	4
64	20.0737	0.156734	0	0	0	0	1	4	4
64	20.3639	0.232201	0	0	0	0	1	4	4
62	20.5961	0.197369	0	0	0	0	1	4	4
62	20.956	0.406349	0	0	0	0	1	4	4
62	21.3624	0.0464401	0	0	0	0	1	4	4
61	21.5713	0.203175	0	0	0	0	1	4	4
62	21.9429	0.0522461	0	0	0	0	1	4	4
63	22.5988	0.243811	0	0	0	0	1	4	4
63	23.0806	0.104488	0	0	0	0	1	4	4
64	23.6089	0.197369	0	0	0	0	1	4	4
64	24.2358	0.220591	0	0	0	0	1	4	4
63	24.857	0.110296	0	0	0	0	1	4	4
64	25.0195	0.121904	0	0	0	0	1	4	4
63	25.1414	0.214785	0	0	0	0	1	4	4
63	25.6697	0.290251	0	0	0	0	1	4	4
62	26.1166	0.261225	0	0	0	0	1	4	4
62	26.4649	0.0870743	0	0	0	0	1	4	4
62	26.552	0.0232201	0	0	0	0	1	4	4
65	26.7262	0.0696602	0	0	0	0	1	4	4
65	26.7958	0.121904	0	0	0	0	1	4	4
52	26.9003	0.0812702	0	0	0	0	1	4	4
64	26.9816	0.0406361	0	0	0	0	1	4	4
65	27.0454	0.0348282	0	0	0	0	1	4	4
64	27.0861	0.0696602	0	0	0	0	1	4	4
64	27.1557	0.0232201	0	0	0	0	1	4	4
63	27.2602	0.104488	0	0	0	0	1	4	4
63	27.4982	0.481815	0	0	0	0	1	4	4
64	28.2064	0.110294	0	0	0	0	1	4	4
63	28.3167	0.179955	0	0	0	0	1	4	4
62	28.7753	0.145124	0	0	0	0	1	4	4
