midiPitch 	 onsetSec 	 durationSec 	 onsetBeats 	 onsetBarIndex 	 onsetBar 	 durationBeats 	 velocity  	 numerator 	 denominator 
66	0.121905	0.284444	0	0	3.46028e-035	0	1	4	4
67	0.505034	0.214785	0	0	3.46028e-035	0	1	4	4
61	0.748844	0.13932	0	0	3.46028e-035	0	1	4	4
61	0.888163	0.1161	0	0	3.46028e-035	0	1	4	4
62	1.14358	0.12771	0	0	3.46028e-035	0	1	4	4
62	1.27129	0.17415	0	0	3.46028e-035	0	1	4	4
62	1.44544	0.156735	0	0	3.46028e-035	0	1	4	4
62	1.60218	0.17415	0	0	3.46028e-035	0	1	4	4
62	1.77633	0.145125	0	0	3.46028e-035	0	1	4	4
62	1.92145	0.10449	0	0	3.46028e-035	0	1	4	4
62	2.02594	0.09288	0	0	3.46028e-035	0	1	4	4
62	2.11882	0.179955	0	0	3.46028e-035	0	1	4	4
62	2.98957	0.17415	0	0	3.46028e-035	0	1	4	4
62	3.23338	0.13932	0	0	3.46028e-035	0	1	4	4
62	3.52363	0.203175	0	0	3.46028e-035	0	1	4	4
64	3.75583	0.214785	0	0	3.46028e-035	0	1	4	4
62	4.09832	0.0928798	0	0	3.46028e-035	0	1	4	4
59	4.27247	0.179955	0	0	3.46028e-035	0	1	4	4
60	4.45243	0.133514	0	0	3.46028e-035	0	1	4	4
59	4.58594	0.214785	0	0	3.46028e-035	0	1	4	4
60	4.80073	0.226395	0	0	3.46028e-035	0	1	4	4
62	5.02712	0.0290251	0	0	3.46028e-035	0	1	4	4
62	5.06776	0.313469	0	0	3.46028e-035	0	1	4	4
62	5.38122	0.435374	0	0	3.46028e-035	0	1	4	4
61	6.1649	0.0812697	0	0	3.46028e-035	0	1	4	4
62	6.27519	0.10449	0	0	3.46028e-035	0	1	4	4
62	6.43193	0.0928798	0	0	3.46028e-035	0	1	4	4
64	6.68735	0.145124	0	0	3.46028e-035	0	1	4	4
62	6.83247	0.203175	0	0	3.46028e-035	0	1	4	4
62	7.05306	0.15093	0	0	3.46028e-035	0	1	4	4
64	7.20399	0.17415	0	0	3.46028e-035	0	1	4	4
66	7.46522	0.156735	0	0	3.46028e-035	0	1	4	4
66	7.62195	0.139319	0	0	3.46028e-035	0	1	4	4
66	7.76127	0.238005	0	0	3.46028e-035	0	1	4	4
62	8.05732	0.487618	0	0	3.46028e-035	0	1	4	4
62	8.54494	0.26703	0	0	3.46028e-035	0	1	4	4
62	9.24154	0.156734	0	0	3.46028e-035	0	1	4	4
66	9.57243	0.18576	0	0	3.46028e-035	0	1	4	4
66	9.7698	0.0348301	0	0	3.46028e-035	0	1	4	4
62	9.92653	0.0928793	0	0	3.46028e-035	0	1	4	4
71	10.0136	0.0928802	0	0	3.46028e-035	0	1	4	4
71	10.2458	0.313469	0	0	3.46028e-035	0	1	4	4
69	10.6057	0.179955	0	0	3.46028e-035	0	1	4	4
67	10.8321	0.0812702	0	0	3.46028e-035	0	1	4	4
64	11.1862	0.133515	0	0	3.46028e-035	0	1	4	4
71	11.4707	0.249615	0	0	3.46028e-035	0	1	4	4
71	11.7203	0.17415	0	0	3.46028e-035	0	1	4	4
71	11.9351	0.139319	0	0	3.46028e-035	0	1	4	4
69	12.1731	0.133514	0	0	3.46028e-035	0	1	4	4
69	12.3066	0.17415	0	0	3.46028e-035	0	1	4	4
67	12.591	0.0812693	0	0	3.46028e-035	0	1	4	4
66	12.7478	0.168344	0	0	3.46028e-035	0	1	4	4
67	12.9741	0.19737	0	0	3.46028e-035	0	1	4	4
71	13.5314	0.0348301	0	0	3.46028e-035	0	1	4	4
61	13.6011	0.296054	0	0	3.46028e-035	0	1	4	4
62	14.0132	0.116099	0	0	3.46028e-035	0	1	4	4
74	14.1177	0.0406351	0	0	3.46028e-035	0	1	4	4
63	14.1642	0.139319	0	0	3.46028e-035	0	1	4	4
62	14.3035	0.487619	0	0	3.46028e-035	0	1	4	4
62	14.7911	0.139319	0	0	3.46028e-035	0	1	4	4
62	14.9304	0.0232201	0	0	3.46028e-035	0	1	4	4
64	15.5225	0.0348301	0	0	3.46028e-035	0	1	4	4
64	15.5632	0.133514	0	0	3.46028e-035	0	1	4	4
66	15.6967	0.121905	0	0	3.46028e-035	0	1	4	4
66	15.8186	0.220589	0	0	3.46028e-035	0	1	4	4
66	16.1379	0.150928	0	0	3.46028e-035	0	1	4	4
64	16.3933	0.197371	0	0	3.46028e-035	0	1	4	4
62	16.73	0.15093	0	0	3.46028e-035	0	1	4	4
61	16.9564	0.18576	0	0	3.46028e-035	0	1	4	4
69	17.2873	0.0232201	0	0	3.46028e-035	0	1	4	4
64	17.3105	0.0754642	0	0	3.46028e-035	0	1	4	4
69	17.5369	0.359909	0	0	3.46028e-035	0	1	4	4
59	18.5295	0.278639	0	0	3.46028e-035	0	1	4	4
62	18.8082	0.278639	0	0	3.46028e-035	0	1	4	4
67	19.0868	0.203175	0	0	3.46028e-035	0	1	4	4
62	19.3016	0.121906	0	0	3.46028e-035	0	1	4	4
62	19.4873	0.191565	0	0	3.46028e-035	0	1	4	4
59	19.7021	0.325079	0	0	3.46028e-035	0	1	4	4
62	20.4626	0.145124	0	0	3.46028e-035	0	1	4	4
66	20.6658	0.772062	0	0	3.46028e-035	0	1	4	4
66	21.4378	0.0406361	0	0	3.46028e-035	0	1	4	4
69	21.8151	0.0464401	0	0	3.46028e-035	0	1	4	4
64	21.8616	0.133514	0	0	3.46028e-035	0	1	4	4
66	21.9951	0.150928	0	0	3.46028e-035	0	1	4	4
66	22.2389	0.13932	0	0	3.46028e-035	0	1	4	4
64	22.4537	0.18576	0	0	3.46028e-035	0	1	4	4
62	22.8542	0.121904	0	0	3.46028e-035	0	1	4	4
61	23.0864	0.267031	0	0	3.46028e-035	0	1	4	4
64	23.4986	0.238005	0	0	3.46028e-035	0	1	4	4
69	23.8237	0.516644	0	0	3.46028e-035	0	1	4	4
59	24.8686	0.226395	0	0	3.46028e-035	0	1	4	4
62	25.1298	0.255421	0	0	3.46028e-035	0	1	4	4
67	25.3968	0.168344	0	0	3.46028e-035	0	1	4	4
62	25.6697	0.0348301	0	0	3.46028e-035	0	1	4	4
62	25.7916	0.232199	0	0	3.46028e-035	0	1	4	4
59	26.2269	0.0870743	0	0	3.46028e-035	0	1	4	4
57	26.4998	0.261225	0	0	3.46028e-035	0	1	4	4
62	26.7726	0.0928783	0	0	3.46028e-035	0	1	4	4
66	27.0106	0.139318	0	0	3.46028e-035	0	1	4	4
66	27.1499	0.510839	0	0	3.46028e-035	0	1	4	4
69	28.0439	0.156734	0	0	3.46028e-035	0	1	4	4
64	28.2297	0.0928783	0	0	3.46028e-035	0	1	4	4
66	28.5141	0.156736	0	0	3.46028e-035	0	1	4	4
66	28.7753	0.110296	0	0	3.46028e-035	0	1	4	4
67	29.0249	0.110294	0	0	3.46028e-035	0	1	4	4
