midiPitch 	 onsetSec 	 durationSec 	 onsetBeats 	 onsetBarIndex 	 onsetBar 	 durationBeats 	 velocity  	 numerator 	 denominator 
72	0.0754649	0.214785	0	0	2.37915e-035	0	1	4	4
69	0.325079	0.383129	0	0	2.37915e-035	0	1	4	4
67	1.19002	0.714014	0	0	2.37915e-035	0	1	4	4
65	2.59483	0.22059	0	0	2.37915e-035	0	1	4	4
64	2.81542	0.255419	0	0	2.37915e-035	0	1	4	4
62	3.13469	0.226394	0	0	2.37915e-035	0	1	4	4
58	3.41333	0.191565	0	0	2.37915e-035	0	1	4	4
62	3.68036	0.243809	0	0	2.37915e-035	0	1	4	4
61	3.92417	0.284445	0	0	2.37915e-035	0	1	4	4
66	4.51628	0.400544	0	0	2.37915e-035	0	1	4	4
67	4.91683	0.615329	0	0	2.37915e-035	0	1	4	4
69	5.5902	0.319274	0	0	2.37915e-035	0	1	4	4
71	5.90948	0.597914	0	0	2.37915e-035	0	1	4	4
71	6.50739	0.104489	0	0	2.37915e-035	0	1	4	4
73	6.65252	0.354105	0	0	2.37915e-035	0	1	4	4
71	7.00662	0.493424	0	0	2.37915e-035	0	1	4	4
71	7.50005	0.20898	0	0	2.37915e-035	0	1	4	4
69	7.75546	0.284445	0	0	2.37915e-035	0	1	4	4
66	8.85841	0.301859	0	0	2.37915e-035	0	1	4	4
67	9.36345	0.342495	0	0	2.37915e-035	0	1	4	4
69	9.92073	0.365714	0	0	2.37915e-035	0	1	4	4
71	10.4664	0.383129	0	0	2.37915e-035	0	1	4	4
73	11.0411	0.487619	0	0	2.37915e-035	0	1	4	4
69	11.6506	0.25542	0	0	2.37915e-035	0	1	4	4
71	11.9351	0.226395	0	0	2.37915e-035	0	1	4	4
66	12.2137	0.26703	0	0	2.37915e-035	0	1	4	4
69	12.4923	0.22059	0	0	2.37915e-035	0	1	4	4
67	13.0786	0.17415	0	0	2.37915e-035	0	1	4	4
62	13.3979	0.325079	0	0	2.37915e-035	0	1	4	4
65	13.7752	2.71673	0	0	2.37915e-035	0	1	4	4
62	16.5732	0.15093	0	0	2.37915e-035	0	1	4	4
65	16.7358	0.830112	0	0	2.37915e-035	0	1	4	4
62	17.5717	0.238005	0	0	2.37915e-035	0	1	4	4
64	17.8097	0.371519	0	0	2.37915e-035	0	1	4	4
64	18.1812	1.69506	0	0	2.37915e-035	0	1	4	4
67	20.3697	0.191565	0	0	2.37915e-035	0	1	4	4
59	20.5613	0.10449	0	0	2.37915e-035	0	1	4	4
61	20.6658	0.110294	0	0	2.37915e-035	0	1	4	4
62	20.7761	0.12771	0	0	2.37915e-035	0	1	4	4
64	20.9038	0.174149	0	0	2.37915e-035	0	1	4	4
65	21.1069	0.267029	0	0	2.37915e-035	0	1	4	4
64	21.4088	0.10449	0	0	2.37915e-035	0	1	4	4
62	21.5133	0.156734	0	0	2.37915e-035	0	1	4	4
58	21.699	0.342495	0	0	2.37915e-035	0	1	4	4
57	23.6844	0.18576	0	0	2.37915e-035	0	1	4	4
62	23.8701	0.388933	0	0	2.37915e-035	0	1	4	4
64	24.4796	1.14939	0	0	2.37915e-035	0	1	4	4
65	25.6522	0.359909	0	0	2.37915e-035	0	1	4	4
64	26.2327	0.336689	0	0	2.37915e-035	0	1	4	4
69	26.8074	0.325079	0	0	2.37915e-035	0	1	4	4
67	27.1615	0.197371	0	0	2.37915e-035	0	1	4	4
63	27.3937	0.505033	0	0	2.37915e-035	0	1	4	4
64	27.8988	0.876553	0	0	2.37915e-035	0	1	4	4
64	28.7753	0.255421	0	0	2.37915e-035	0	1	4	4
65	29.0598	0.406349	0	0	2.37915e-035	0	1	4	4
62	29.6112	0.12771	0	0	2.37915e-035	0	1	4	4
64	29.739	0.156734	0	0	2.37915e-035	0	1	4	4
62	29.8957	0.1161	0	0	2.37915e-035	0	1	4	4
