midiPitch 	 onsetSec 	 durationSec 	 onsetBeats 	 onsetBarIndex 	 onsetBar 	 durationBeats 	 velocity  	 numerator 	 denominator 
55	0.0986848	0.377324	0	0	2.37905e-035	0	1	4	4
55	0.476009	0.145125	0	0	2.37905e-035	0	1	4	4
55	0.626939	0.029025	0	0	2.37905e-035	0	1	4	4
55	0.661769	0.0754648	0	0	2.37905e-035	0	1	4	4
55	0.737234	0.029025	0	0	2.37905e-035	0	1	4	4
56	0.772063	0.0348299	0	0	2.37905e-035	0	1	4	4
55	0.812698	0.0870748	0	0	2.37905e-035	0	1	4	4
55	0.899773	0.0232199	0	0	2.37905e-035	0	1	4	4
55	0.928798	0.17415	0	0	2.37905e-035	0	1	4	4
56	1.10295	0.13932	0	0	2.37905e-035	0	1	4	4
56	1.24227	0.121905	0	0	2.37905e-035	0	1	4	4
54	1.38739	0.0348299	0	0	2.37905e-035	0	1	4	4
56	1.42222	0.0522449	0	0	2.37905e-035	0	1	4	4
55	1.47447	0.0522449	0	0	2.37905e-035	0	1	4	4
55	1.52671	0.505034	0	0	2.37905e-035	0	1	4	4
54	2.03175	0.0696599	0	0	2.37905e-035	0	1	4	4
59	2.03755	3.7268	0	0	2.37905e-035	0	1	4	4
57	6.14168	0.330884	0	0	2.37905e-035	0	1	4	4
58	6.71637	0.0754652	0	0	2.37905e-035	0	1	4	4
58	6.79184	0.0232201	0	0	2.37905e-035	0	1	4	4
57	7.06467	0.168344	0	0	2.37905e-035	0	1	4	4
50	7.23302	0.296055	0	0	2.37905e-035	0	1	4	4
57	7.52907	0.0638547	0	0	2.37905e-035	0	1	4	4
50	7.59293	0.150929	0	0	2.37905e-035	0	1	4	4
50	7.74385	0.0638552	0	0	2.37905e-035	0	1	4	4
50	7.81351	0.0696597	0	0	2.37905e-035	0	1	4	4
62	8.13859	0.342495	0	0	2.37905e-035	0	1	4	4
62	8.52172	0.644354	0	0	2.37905e-035	0	1	4	4
65	9.25315	1.26549	0	0	2.37905e-035	0	1	4	4
65	10.6115	0.156734	0	0	2.37905e-035	0	1	4	4
65	10.8553	0.116099	0	0	2.37905e-035	0	1	4	4
65	11.0005	0.0986853	0	0	2.37905e-035	0	1	4	4
60	11.0991	0.290249	0	0	2.37905e-035	0	1	4	4
65	11.3894	0.16254	0	0	2.37905e-035	0	1	4	4
65	11.6042	0.110295	0	0	2.37905e-035	0	1	4	4
60	11.7203	0.847528	0	0	2.37905e-035	0	1	4	4
60	12.5678	0.261224	0	0	2.37905e-035	0	1	4	4
60	12.829	1.61379	0	0	2.37905e-035	0	1	4	4
56	14.4602	0.0232201	0	0	2.37905e-035	0	1	4	4
45	14.4834	0.307665	0	0	2.37905e-035	0	1	4	4
47	14.7911	0.19737	0	0	2.37905e-035	0	1	4	4
50	15.0349	0.0638542	0	0	2.37905e-035	0	1	4	4
48	15.0988	0.18576	0	0	2.37905e-035	0	1	4	4
49	15.2845	0.10449	0	0	2.37905e-035	0	1	4	4
49	15.4413	0.238005	0	0	2.37905e-035	0	1	4	4
50	15.6793	0.0232191	0	0	2.37905e-035	0	1	4	4
51	15.7025	0.110295	0	0	2.37905e-035	0	1	4	4
50	15.8534	0.354103	0	0	2.37905e-035	0	1	4	4
49	16.7648	0.342495	0	0	2.37905e-035	0	1	4	4
48	17.1073	0.0638542	0	0	2.37905e-035	0	1	4	4
51	18.6398	0.1161	0	0	2.37905e-035	0	1	4	4
54	18.9185	0.1161	0	0	2.37905e-035	0	1	4	4
53	19.052	0.185759	0	0	2.37905e-035	0	1	4	4
53	19.2435	0.139318	0	0	2.37905e-035	0	1	4	4
53	19.4061	0.168344	0	0	2.37905e-035	0	1	4	4
53	19.8473	0.15093	0	0	2.37905e-035	0	1	4	4
52	19.9982	0.150928	0	0	2.37905e-035	0	1	4	4
51	20.1491	0.12771	0	0	2.37905e-035	0	1	4	4
52	20.2768	0.214785	0	0	2.37905e-035	0	1	4	4
54	20.4916	0.133514	0	0	2.37905e-035	0	1	4	4
53	21.9893	0.238005	0	0	2.37905e-035	0	1	4	4
53	22.6162	0.238005	0	0	2.37905e-035	0	1	4	4
50	23.1213	0.133514	0	0	2.37905e-035	0	1	4	4
0	23.2548	0.156734	0	0	2.37905e-035	0	1	4	4
49	23.7134	0.307663	0	0	2.37905e-035	0	1	4	4
50	24.0268	0.12771	0	0	2.37905e-035	0	1	4	4
51	25.4781	0.0580502	0	0	2.37905e-035	0	1	4	4
53	25.7103	0.1161	0	0	2.37905e-035	0	1	4	4
53	26.1457	0.156734	0	0	2.37905e-035	0	1	4	4
0	26.3024	0.0928802	0	0	2.37905e-035	0	1	4	4
53	26.3953	0.0580502	0	0	2.37905e-035	0	1	4	4
54	26.9003	0.0870762	0	0	2.37905e-035	0	1	4	4
51	26.9874	0.0348301	0	0	2.37905e-035	0	1	4	4
52	27.0745	0.296055	0	0	2.37905e-035	0	1	4	4
52	27.3705	0.197369	0	0	2.37905e-035	0	1	4	4
54	27.5679	0.0754662	0	0	2.37905e-035	0	1	4	4
55	28.7753	0.0406361	0	0	2.37905e-035	0	1	4	4
57	28.903	0.481813	0	0	2.37905e-035	0	1	4	4
