midiPitch 	 onsetSec 	 durationSec 	 onsetBeats 	 onsetBarIndex 	 onsetBar 	 durationBeats 	 velocity  	 numerator 	 denominator 
71	0.0406349	0.0464399	0	0	3.78007e-035	0	1	4	4
70	0.10449	0.133515	0	0	3.78007e-035	0	1	4	4
66	0.307664	0.121905	0	0	3.78007e-035	0	1	4	4
65	0.429569	0.16254	0	0	3.78007e-035	0	1	4	4
67	0.725624	0.0406349	0	0	3.78007e-035	0	1	4	4
64	0.911383	0.029025	0	0	3.78007e-035	0	1	4	4
67	0.992653	0.0348299	0	0	3.78007e-035	0	1	4	4
65	1.06812	0.0580499	0	0	3.78007e-035	0	1	4	4
62	1.76472	0.0638549	0	0	3.78007e-035	0	1	4	4
60	2.26395	0.0290248	0	0	3.78007e-035	0	1	4	4
67	2.35683	0.15093	0	0	3.78007e-035	0	1	4	4
69	2.50776	0.1161	0	0	3.78007e-035	0	1	4	4
70	2.62385	0.17415	0	0	3.78007e-035	0	1	4	4
72	2.86186	0.18576	0	0	3.78007e-035	0	1	4	4
76	3.22757	0.15093	0	0	3.78007e-035	0	1	4	4
77	3.41333	0.27864	0	0	3.78007e-035	0	1	4	4
76	3.69197	0.0812697	0	0	3.78007e-035	0	1	4	4
72	3.77905	0.278639	0	0	3.78007e-035	0	1	4	4
70	4.06349	0.1161	0	0	3.78007e-035	0	1	4	4
69	4.17959	0.18576	0	0	3.78007e-035	0	1	4	4
67	4.37116	0.133515	0	0	3.78007e-035	0	1	4	4
69	4.84717	0.0986848	0	0	3.78007e-035	0	1	4	4
68	4.99229	0.168345	0	0	3.78007e-035	0	1	4	4
69	5.44508	0.168344	0	0	3.78007e-035	0	1	4	4
67	5.61342	0.0812697	0	0	3.78007e-035	0	1	4	4
67	5.69469	0.226395	0	0	3.78007e-035	0	1	4	4
67	5.92109	0.145125	0	0	3.78007e-035	0	1	4	4
60	7.67419	0.1161	0	0	3.78007e-035	0	1	4	4
60	8.12698	0.17415	0	0	3.78007e-035	0	1	4	4
63	8.74231	0.145125	0	0	3.78007e-035	0	1	4	4
65	9.1893	0.121905	0	0	3.78007e-035	0	1	4	4
71	9.46794	0.150929	0	0	3.78007e-035	0	1	4	4
69	9.61887	0.261225	0	0	3.78007e-035	0	1	4	4
73	9.89751	0.145124	0	0	3.78007e-035	0	1	4	4
68	10.2284	0.121905	0	0	3.78007e-035	0	1	4	4
67	10.3503	0.0406342	0	0	3.78007e-035	0	1	4	4
70	10.4954	0.168344	0	0	3.78007e-035	0	1	4	4
72	10.8089	0.12771	0	0	3.78007e-035	0	1	4	4
77	10.9888	0.296055	0	0	3.78007e-035	0	1	4	4
77	11.4184	0.18576	0	0	3.78007e-035	0	1	4	4
76	12.6433	0.121905	0	0	3.78007e-035	0	1	4	4
77	12.7652	0.162539	0	0	3.78007e-035	0	1	4	4
74	12.9335	0.179955	0	0	3.78007e-035	0	1	4	4
73	13.1135	0.121904	0	0	3.78007e-035	0	1	4	4
72	13.2354	0.133515	0	0	3.78007e-035	0	1	4	4
67	13.5198	0.17415	0	0	3.78007e-035	0	1	4	4
69	13.8449	0.29025	0	0	3.78007e-035	0	1	4	4
67	14.1468	0.150929	0	0	3.78007e-035	0	1	4	4
69	14.617	0.0812693	0	0	3.78007e-035	0	1	4	4
72	14.7447	0.133514	0	0	3.78007e-035	0	1	4	4
74	14.8956	0.12771	0	0	3.78007e-035	0	1	4	4
75	15.0349	0.145124	0	0	3.78007e-035	0	1	4	4
74	15.4587	0.168344	0	0	3.78007e-035	0	1	4	4
72	15.9347	0.121905	0	0	3.78007e-035	0	1	4	4
71	16.1088	0.110294	0	0	3.78007e-035	0	1	4	4
71	16.1088	0.1161	0	0	3.78007e-035	0	1	4	4
63	16.2133	0.01161	0	0	3.78007e-035	0	1	4	4
71	16.1088	0.121904	0	0	3.78007e-035	0	1	4	4
63	16.2133	0.0696602	0	0	3.78007e-035	0	1	4	4
70	16.283	0.0812702	0	0	3.78007e-035	0	1	4	4
69	16.8635	0.121906	0	0	3.78007e-035	0	1	4	4
67	17.026	0.10449	0	0	3.78007e-035	0	1	4	4
65	17.4614	0.133516	0	0	3.78007e-035	0	1	4	4
65	17.6181	0.185759	0	0	3.78007e-035	0	1	4	4
60	18.0245	0.150928	0	0	3.78007e-035	0	1	4	4
60	18.1754	0.232201	0	0	3.78007e-035	0	1	4	4
60	18.4831	0.0348301	0	0	3.78007e-035	0	1	4	4
74	19.0462	0.0870743	0	0	3.78007e-035	0	1	4	4
68	19.1332	0.0580502	0	0	3.78007e-035	0	1	4	4
65	19.2029	0.17415	0	0	3.78007e-035	0	1	4	4
75	19.6383	0.110294	0	0	3.78007e-035	0	1	4	4
74	19.8008	0.145124	0	0	3.78007e-035	0	1	4	4
67	19.9982	0.168344	0	0	3.78007e-035	0	1	4	4
67	20.4394	0.278639	0	0	3.78007e-035	0	1	4	4
69	22.146	0.0754662	0	0	3.78007e-035	0	1	4	4
67	22.3144	0.0406342	0	0	3.78007e-035	0	1	4	4
70	22.535	0.0580502	0	0	3.78007e-035	0	1	4	4
60	22.8775	0.0232201	0	0	3.78007e-035	0	1	4	4
70	22.9587	0.0580502	0	0	3.78007e-035	0	1	4	4
70	23.0458	0.0348301	0	0	3.78007e-035	0	1	4	4
70	23.0806	0.0406342	0	0	3.78007e-035	0	1	4	4
70	23.1909	0.0754642	0	0	3.78007e-035	0	1	4	4
63	24.0675	0.0696602	0	0	3.78007e-035	0	1	4	4
77	24.1081	0.0870743	0	0	3.78007e-035	0	1	4	4
77	24.2126	0.0522461	0	0	3.78007e-035	0	1	4	4
77	24.2649	0.0406342	0	0	3.78007e-035	0	1	4	4
77	24.3113	0.0754642	0	0	3.78007e-035	0	1	4	4
69	24.6596	0.0696602	0	0	3.78007e-035	0	1	4	4
73	24.8918	0.0870762	0	0	3.78007e-035	0	1	4	4
72	24.9789	0.0986843	0	0	3.78007e-035	0	1	4	4
70	25.0776	0.0812702	0	0	3.78007e-035	0	1	4	4
65	25.4665	0.0638561	0	0	3.78007e-035	0	1	4	4
65	25.9193	0.0986862	0	0	3.78007e-035	0	1	4	4
67	26.018	0.0638542	0	0	3.78007e-035	0	1	4	4
65	26.0934	0.0754642	0	0	3.78007e-035	0	1	4	4
64	26.1689	0.197371	0	0	3.78007e-035	0	1	4	4
65	26.3663	0.121904	0	0	3.78007e-035	0	1	4	4
64	26.4882	0.145124	0	0	3.78007e-035	0	1	4	4
64	26.6333	0.0406342	0	0	3.78007e-035	0	1	4	4
62	26.6971	0.121906	0	0	3.78007e-035	0	1	4	4
63	27.6898	0.0986862	0	0	3.78007e-035	0	1	4	4
