midiPitch 	 onsetSec 	 durationSec 	 onsetBeats 	 onsetBarIndex 	 onsetBar 	 durationBeats 	 velocity  	 numerator 	 denominator 
70	0.145125	0.16254	0	0	0	0	1	4	4
72	0.307664	0.2322	0	0	0	0	1	4	4
72	0.539864	0.0464399	0	0	0	0	1	4	4
70	0.644354	0.168345	0	0	0	0	1	4	4
70	0.812698	0.0232199	0	0	0	0	1	4	4
72	1.27129	0.0522449	0	0	0	0	1	4	4
70	1.32354	0.0696599	0	0	0	0	1	4	4
72	1.3932	0.238004	0	0	0	0	1	4	4
70	1.64862	0.19737	0	0	0	0	1	4	4
67	1.84599	0.238004	0	0	0	0	1	4	4
68	2.08399	0.0232201	0	0	0	0	1	4	4
68	2.13043	0.522449	0	0	0	0	1	4	4
68	2.65288	0.0406349	0	0	0	0	1	4	4
68	2.69351	0.0348301	0	0	0	0	1	4	4
68	2.73415	0.522449	0	0	0	0	1	4	4
58	3.2566	0.307664	0	0	0	0	1	4	4
62	5.57859	0.162539	0	0	0	0	1	4	4
65	5.74113	0.284444	0	0	0	0	1	4	4
65	5.74113	0.290249	0	0	0	0	1	4	4
72	6.01977	0.01161	0	0	0	0	1	4	4
65	5.74113	0.296054	0	0	0	0	1	4	4
72	6.01977	0.365715	0	0	0	0	1	4	4
65	6.38549	0.162539	0	0	0	0	1	4	4
68	6.54803	0.0928798	0	0	0	0	1	4	4
65	6.64091	0.214785	0	0	0	0	1	4	4
62	6.85569	0.12771	0	0	0	0	1	4	4
60	7.01823	0.150929	0	0	0	0	1	4	4
58	7.18658	0.325079	0	0	0	0	1	4	4
62	7.51166	0.156734	0	0	0	0	1	4	4
65	7.66839	0.313469	0	0	0	0	1	4	4
58	7.98186	0.516644	0	0	0	0	1	4	4
62	8.51011	0.15093	0	0	0	0	1	4	4
66	8.66104	0.336689	0	0	0	0	1	4	4
67	9.00354	0.481814	0	0	0	0	1	4	4
62	9.48535	0.168344	0	0	0	0	1	4	4
65	9.6537	0.319274	0	0	0	0	1	4	4
63	9.99619	0.12771	0	0	0	0	1	4	4
63	10.1239	0.133514	0	0	0	0	1	4	4
62	10.2574	0.19737	0	0	0	0	1	4	4
61	10.478	0.168344	0	0	0	0	1	4	4
60	10.6696	0.25542	0	0	0	0	1	4	4
59	10.954	0.17415	0	0	0	0	1	4	4
58	11.1398	0.342494	0	0	0	0	1	4	4
63	11.4823	0.168344	0	0	0	0	1	4	4
67	11.6564	0.22059	0	0	0	0	1	4	4
70	11.9641	0.0812693	0	0	0	0	1	4	4
72	12.0454	0.191565	0	0	0	0	1	4	4
70	12.4459	0.35991	0	0	0	0	1	4	4
70	13.3573	0.156734	0	0	0	0	1	4	4
67	13.6127	0.267029	0	0	0	0	1	4	4
70	13.9088	0.150929	0	0	0	0	1	4	4
72	14.0597	0.0986853	0	0	0	0	1	4	4
70	14.3964	0.0928793	0	0	0	0	1	4	4
69	14.4893	0.249615	0	0	0	0	1	4	4
67	14.7389	0.0290251	0	0	0	0	1	4	4
70	15.331	0.0812702	0	0	0	0	1	4	4
63	15.4122	0.162539	0	0	0	0	1	4	4
67	15.5748	0.214785	0	0	0	0	1	4	4
67	15.7896	0.0870752	0	0	0	0	1	4	4
70	15.8766	0.197369	0	0	0	0	1	4	4
61	16.074	0.296055	0	0	0	0	1	4	4
63	16.3701	0.197371	0	0	0	0	1	4	4
67	16.5674	0.197369	0	0	0	0	1	4	4
70	16.8287	0.145126	0	0	0	0	1	4	4
72	17.0609	0.377323	0	0	0	0	1	4	4
75	17.5369	0.0290241	0	0	0	0	1	4	4
73	17.5659	0.0986843	0	0	0	0	1	4	4
79	18.0767	0.267029	0	0	0	0	1	4	4
78	18.3438	0.13932	0	0	0	0	1	4	4
77	18.5876	0.179955	0	0	0	0	1	4	4
77	18.7675	0.220589	0	0	0	0	1	4	4
75	19.0404	0.150928	0	0	0	0	1	4	4
72	19.3422	0.191565	0	0	0	0	1	4	4
75	20.2072	0.121904	0	0	0	0	1	4	4
72	20.5206	0.272835	0	0	0	0	1	4	4
74	20.7935	0.15093	0	0	0	0	1	4	4
70	20.9908	0.319275	0	0	0	0	1	4	4
70	21.7919	0.470203	0	0	0	0	1	4	4
75	22.2621	0.0232201	0	0	0	0	1	4	4
75	22.2621	0.029026	0	0	0	0	1	4	4
63	22.2795	0.01161	0	0	0	0	1	4	4
75	22.2621	0.0348301	0	0	0	0	1	4	4
63	22.2795	0.0174141	0	0	0	0	1	4	4
75	22.2621	0.0406361	0	0	0	0	1	4	4
63	22.2795	0.0232201	0	0	0	0	1	4	4
75	22.2621	0.0464401	0	0	0	0	1	4	4
63	22.2795	0.0290241	0	0	0	0	1	4	4
75	22.2621	0.0522461	0	0	0	0	1	4	4
63	22.2795	0.0348301	0	0	0	0	1	4	4
75	22.2621	0.0580502	0	0	0	0	1	4	4
63	22.2795	0.0406342	0	0	0	0	1	4	4
75	22.2621	0.0638561	0	0	0	0	1	4	4
63	22.2795	0.0464401	0	0	0	0	1	4	4
75	22.2621	0.0696602	0	0	0	0	1	4	4
63	22.2795	0.0522442	0	0	0	0	1	4	4
75	22.2621	0.0754662	0	0	0	0	1	4	4
63	22.2795	0.0580502	0	0	0	0	1	4	4
75	22.2621	0.0812702	0	0	0	0	1	4	4
63	22.2795	0.0638542	0	0	0	0	1	4	4
75	22.2621	0.0870743	0	0	0	0	1	4	4
63	22.2795	0.0696583	0	0	0	0	1	4	4
75	22.2621	0.0928802	0	0	0	0	1	4	4
63	22.2795	0.0754642	0	0	0	0	1	4	4
75	22.2621	0.0986843	0	0	0	0	1	4	4
63	22.2795	0.0812683	0	0	0	0	1	4	4
75	22.2621	0.10449	0	0	0	0	1	4	4
63	22.2795	0.0870743	0	0	0	0	1	4	4
75	22.2621	0.110294	0	0	0	0	1	4	4
63	22.2795	0.0928783	0	0	0	0	1	4	4
75	22.2621	0.1161	0	0	0	0	1	4	4
63	22.2795	0.0986843	0	0	0	0	1	4	4
75	22.2621	0.121904	0	0	0	0	1	4	4
63	22.2795	0.104488	0	0	0	0	1	4	4
75	22.2621	0.12771	0	0	0	0	1	4	4
63	22.2795	0.110294	0	0	0	0	1	4	4
75	22.2621	0.133514	0	0	0	0	1	4	4
63	22.2795	0.116098	0	0	0	0	1	4	4
75	22.2621	0.13932	0	0	0	0	1	4	4
63	22.2795	0.121904	0	0	0	0	1	4	4
75	22.2621	0.145124	0	0	0	0	1	4	4
63	22.2795	0.127708	0	0	0	0	1	4	4
75	22.2621	0.15093	0	0	0	0	1	4	4
63	22.2795	0.133514	0	0	0	0	1	4	4
75	22.2621	0.156734	0	0	0	0	1	4	4
63	22.2795	0.139318	0	0	0	0	1	4	4
75	22.2621	0.16254	0	0	0	0	1	4	4
63	22.2795	0.145124	0	0	0	0	1	4	4
75	22.2621	0.168344	0	0	0	0	1	4	4
63	22.2795	0.150928	0	0	0	0	1	4	4
75	22.2621	0.17415	0	0	0	0	1	4	4
63	22.2795	0.156734	0	0	0	0	1	4	4
75	22.2621	0.179955	0	0	0	0	1	4	4
63	22.2795	0.185759	0	0	0	0	1	4	4
67	22.4653	0.272835	0	0	0	0	1	4	4
70	22.7381	0.197371	0	0	0	0	1	4	4
68	22.9413	0.319275	0	0	0	0	1	4	4
65	23.2606	0.150928	0	0	0	0	1	4	4
62	23.4405	0.284445	0	0	0	0	1	4	4
58	23.725	0.197369	0	0	0	0	1	4	4
58	24.23	0.162539	0	0	0	0	1	4	4
70	24.3926	0.0232201	0	0	0	0	1	4	4
62	24.4158	0.290251	0	0	0	0	1	4	4
65	24.7176	0.179955	0	0	0	0	1	4	4
63	24.9034	0.940409	0	0	0	0	1	4	4
63	25.8438	0.348299	0	0	0	0	1	4	4
63	26.1921	0.179955	0	0	0	0	1	4	4
63	26.3721	0.12771	0	0	0	0	1	4	4
60	26.8771	0.336691	0	0	0	0	1	4	4
60	27.9104	0.969433	0	0	0	0	1	4	4
60	28.8798	0.0580502	0	0	0	0	1	4	4
60	28.9379	0.441179	0	0	0	0	1	4	4
60	29.379	0.0406342	0	0	0	0	1	4	4
