midiPitch 	 onsetSec 	 durationSec 	 onsetBeats 	 onsetBarIndex 	 onsetBar 	 durationBeats 	 velocity  	 numerator 	 denominator 
62	0.0406349	0.0348299	0	0	2.02157e-035	0	1	4	4
62	0.0754649	0.0290249	0	0	2.02157e-035	0	1	4	4
62	0.12771	0.0348299	0	0	2.02157e-035	0	1	4	4
62	0.18576	0.02322	0	0	2.02157e-035	0	1	4	4
62	0.255419	0.0406349	0	0	2.02157e-035	0	1	4	4
65	0.319274	0.029025	0	0	2.02157e-035	0	1	4	4
61	0.359909	0.0348299	0	0	2.02157e-035	0	1	4	4
68	0.481814	0.0290249	0	0	2.02157e-035	0	1	4	4
69	0.516644	0.0232199	0	0	2.02157e-035	0	1	4	4
69	0.539864	0.0406349	0	0	2.02157e-035	0	1	4	4
69	0.603719	0.0232199	0	0	2.02157e-035	0	1	4	4
69	0.655964	0.0580499	0	0	2.02157e-035	0	1	4	4
67	0.731429	0.029025	0	0	2.02157e-035	0	1	4	4
67	0.830113	0.0580499	0	0	2.02157e-035	0	1	4	4
66	1.02748	0.0232199	0	0	2.02157e-035	0	1	4	4
65	1.11456	0.0232201	0	0	2.02157e-035	0	1	4	4
63	1.47447	0.0232201	0	0	2.02157e-035	0	1	4	4
65	1.59057	0.029025	0	0	2.02157e-035	0	1	4	4
60	1.71828	0.0464399	0	0	2.02157e-035	0	1	4	4
60	1.77052	0.029025	0	0	2.02157e-035	0	1	4	4
60	1.81696	0.029025	0	0	2.02157e-035	0	1	4	4
62	1.95048	0.0464399	0	0	2.02157e-035	0	1	4	4
62	1.99692	0.075465	0	0	2.02157e-035	0	1	4	4
62	2.07238	0.0290248	0	0	2.02157e-035	0	1	4	4
60	2.2059	0.0232198	0	0	2.02157e-035	0	1	4	4
60	2.25814	0.0348299	0	0	2.02157e-035	0	1	4	4
60	2.29878	0.0348299	0	0	2.02157e-035	0	1	4	4
59	2.38005	0.0406349	0	0	2.02157e-035	0	1	4	4
62	2.47873	0.10449	0	0	2.02157e-035	0	1	4	4
62	3.05342	0.0348301	0	0	2.02157e-035	0	1	4	4
62	3.08825	0.0290248	0	0	2.02157e-035	0	1	4	4
66	3.50621	0.0348299	0	0	2.02157e-035	0	1	4	4
65	3.69197	0.0464399	0	0	2.02157e-035	0	1	4	4
67	3.8429	0.0348299	0	0	2.02157e-035	0	1	4	4
67	3.88354	0.0348301	0	0	2.02157e-035	0	1	4	4
67	3.94739	0.0290248	0	0	2.02157e-035	0	1	4	4
65	3.97642	0.0232201	0	0	2.02157e-035	0	1	4	4
65	4.02866	0.162539	0	0	2.02157e-035	0	1	4	4
65	4.1912	0.0348301	0	0	2.02157e-035	0	1	4	4
62	4.22603	0.121905	0	0	2.02157e-035	0	1	4	4
62	4.34794	0.110294	0	0	2.02157e-035	0	1	4	4
65	4.46984	0.0348301	0	0	2.02157e-035	0	1	4	4
65	4.55692	0.0290246	0	0	2.02157e-035	0	1	4	4
60	4.67302	0.0522451	0	0	2.02157e-035	0	1	4	4
60	4.72526	0.0464396	0	0	2.02157e-035	0	1	4	4
60	4.84717	0.0232196	0	0	2.02157e-035	0	1	4	4
60	4.91683	0.0986848	0	0	2.02157e-035	0	1	4	4
59	5.01551	0.0232201	0	0	2.02157e-035	0	1	4	4
58	5.05615	0.0290246	0	0	2.02157e-035	0	1	4	4
61	5.16063	0.0232196	0	0	2.02157e-035	0	1	4	4
62	5.2361	0.0522447	0	0	2.02157e-035	0	1	4	4
62	5.28834	0.0464401	0	0	2.02157e-035	0	1	4	4
62	5.358	0.0638547	0	0	2.02157e-035	0	1	4	4
62	5.42186	0.110295	0	0	2.02157e-035	0	1	4	4
63	5.57279	0.0232196	0	0	2.02157e-035	0	1	4	4
64	5.89787	0.0464401	0	0	2.02157e-035	0	1	4	4
62	5.94431	0.0290251	0	0	2.02157e-035	0	1	4	4
64	6.14748	0.0290251	0	0	2.02157e-035	0	1	4	4
64	6.18812	0.0522447	0	0	2.02157e-035	0	1	4	4
60	6.36807	0.0232201	0	0	2.02157e-035	0	1	4	4
64	6.40871	0.133515	0	0	2.02157e-035	0	1	4	4
64	6.54222	0.0232201	0	0	2.02157e-035	0	1	4	4
64	6.56544	0.0986848	0	0	2.02157e-035	0	1	4	4
64	6.68154	0.0290251	0	0	2.02157e-035	0	1	4	4
65	6.98921	0.0348296	0	0	2.02157e-035	0	1	4	4
65	8.24308	0.0348301	0	0	2.02157e-035	0	1	4	4
70	8.48109	0.156734	0	0	2.02157e-035	0	1	4	4
58	9.3112	0.0638542	0	0	2.02157e-035	0	1	4	4
58	9.37506	0.0290251	0	0	2.02157e-035	0	1	4	4
58	9.40408	0.0232201	0	0	2.02157e-035	0	1	4	4
62	9.76399	0.0638552	0	0	2.02157e-035	0	1	4	4
62	9.82785	0.0348301	0	0	2.02157e-035	0	1	4	4
62	9.8917	0.0290251	0	0	2.02157e-035	0	1	4	4
62	10.2168	0.0290251	0	0	2.02157e-035	0	1	4	4
62	10.3735	0.0290251	0	0	2.02157e-035	0	1	4	4
62	11.0295	0.0638552	0	0	2.02157e-035	0	1	4	4
62	11.0933	0.162539	0	0	2.02157e-035	0	1	4	4
61	12.6607	0.0580502	0	0	2.02157e-035	0	1	4	4
63	13.0902	0.0290251	0	0	2.02157e-035	0	1	4	4
62	13.4792	0.0464401	0	0	2.02157e-035	0	1	4	4
62	13.5256	0.0290251	0	0	2.02157e-035	0	1	4	4
62	13.5546	0.0232201	0	0	2.02157e-035	0	1	4	4
62	13.6417	0.0348301	0	0	2.02157e-035	0	1	4	4
62	13.7114	0.0638552	0	0	2.02157e-035	0	1	4	4
62	13.7752	0.0232201	0	0	2.02157e-035	0	1	4	4
62	13.8681	0.0928802	0	0	2.02157e-035	0	1	4	4
62	14.0074	0.0870743	0	0	2.02157e-035	0	1	4	4
62	14.0945	0.0290251	0	0	2.02157e-035	0	1	4	4
62	14.1351	0.156734	0	0	2.02157e-035	0	1	4	4
63	14.3557	0.238005	0	0	2.02157e-035	0	1	4	4
62	14.7505	0.0696602	0	0	2.02157e-035	0	1	4	4
62	14.9362	0.12771	0	0	2.02157e-035	0	1	4	4
62	15.0639	0.139319	0	0	2.02157e-035	0	1	4	4
62	15.6328	0.0290251	0	0	2.02157e-035	0	1	4	4
60	16.9215	0.0232201	0	0	2.02157e-035	0	1	4	4
62	17.4556	0.0870743	0	0	2.02157e-035	0	1	4	4
65	17.5427	0.10449	0	0	2.02157e-035	0	1	4	4
65	17.6472	0.0406342	0	0	2.02157e-035	0	1	4	4
65	17.6936	0.12771	0	0	2.02157e-035	0	1	4	4
65	18.0129	0.185759	0	0	2.02157e-035	0	1	4	4
65	18.1986	0.16254	0	0	2.02157e-035	0	1	4	4
63	18.5005	0.17415	0	0	2.02157e-035	0	1	4	4
63	18.6746	0.17415	0	0	2.02157e-035	0	1	4	4
62	18.8488	0.0986843	0	0	2.02157e-035	0	1	4	4
61	18.9475	0.0464401	0	0	2.02157e-035	0	1	4	4
62	19.0171	0.0290241	0	0	2.02157e-035	0	1	4	4
62	19.052	0.162539	0	0	2.02157e-035	0	1	4	4
62	19.2145	0.0232201	0	0	2.02157e-035	0	1	4	4
62	19.348	0.13932	0	0	2.02157e-035	0	1	4	4
62	19.557	0.10449	0	0	2.02157e-035	0	1	4	4
60	19.6615	0.0580482	0	0	2.02157e-035	0	1	4	4
60	19.7195	0.0638561	0	0	2.02157e-035	0	1	4	4
62	19.7834	0.0406342	0	0	2.02157e-035	0	1	4	4
72	20.538	0.0754642	0	0	2.02157e-035	0	1	4	4
72	20.6135	0.0348301	0	0	2.02157e-035	0	1	4	4
74	20.6483	0.0812702	0	0	2.02157e-035	0	1	4	4
74	20.7296	0.203175	0	0	2.02157e-035	0	1	4	4
50	20.9444	0.0696602	0	0	2.02157e-035	0	1	4	4
60	21.3449	0.10449	0	0	2.02157e-035	0	1	4	4
62	21.6178	0.0348301	0	0	2.02157e-035	0	1	4	4
62	21.7687	0.0348301	0	0	2.02157e-035	0	1	4	4
62	21.8035	0.0232201	0	0	2.02157e-035	0	1	4	4
62	21.9371	0.133514	0	0	2.02157e-035	0	1	4	4
62	22.1402	0.0754642	0	0	2.02157e-035	0	1	4	4
62	22.2157	0.0522461	0	0	2.02157e-035	0	1	4	4
63	22.4653	0.0406361	0	0	2.02157e-035	0	1	4	4
60	22.593	0.0348301	0	0	2.02157e-035	0	1	4	4
60	22.6453	0.15093	0	0	2.02157e-035	0	1	4	4
64	22.8717	0.0232201	0	0	2.02157e-035	0	1	4	4
64	22.9065	0.0522442	0	0	2.02157e-035	0	1	4	4
64	22.9587	0.121906	0	0	2.02157e-035	0	1	4	4
60	23.0806	0.0232201	0	0	2.02157e-035	0	1	4	4
64	23.1503	0.0290241	0	0	2.02157e-035	0	1	4	4
64	23.2664	0.110294	0	0	2.02157e-035	0	1	4	4
53	23.6437	0.0870743	0	0	2.02157e-035	0	1	4	4
53	23.7308	0.0406361	0	0	2.02157e-035	0	1	4	4
64	23.992	0.145124	0	0	2.02157e-035	0	1	4	4
62	24.4332	0.0812702	0	0	2.02157e-035	0	1	4	4
61	24.5145	0.0290241	0	0	2.02157e-035	0	1	4	4
62	24.5493	0.156734	0	0	2.02157e-035	0	1	4	4
62	24.7118	0.133514	0	0	2.02157e-035	0	1	4	4
62	24.9208	0.0812702	0	0	2.02157e-035	0	1	4	4
61	25.1878	0.0232201	0	0	2.02157e-035	0	1	4	4
62	25.4781	0.0522461	0	0	2.02157e-035	0	1	4	4
65	25.7277	0.208981	0	0	2.02157e-035	0	1	4	4
65	25.9773	0.232201	0	0	2.02157e-035	0	1	4	4
65	26.2502	0.10449	0	0	2.02157e-035	0	1	4	4
65	26.4998	0.203175	0	0	2.02157e-035	0	1	4	4
65	26.7262	0.133514	0	0	2.02157e-035	0	1	4	4
67	26.8597	0.383129	0	0	2.02157e-035	0	1	4	4
67	27.3125	0.0348301	0	0	2.02157e-035	0	1	4	4
69	27.3531	0.121904	0	0	2.02157e-035	0	1	4	4
67	27.5156	0.313469	0	0	2.02157e-035	0	1	4	4
67	27.8291	0.214785	0	0	2.02157e-035	0	1	4	4
74	28.7463	0.191565	0	0	2.02157e-035	0	1	4	4
64	29.4893	0.0754642	0	0	2.02157e-035	0	1	4	4
63	29.5648	0.0232201	0	0	2.02157e-035	0	1	4	4
62	29.6403	0.0986843	0	0	2.02157e-035	0	1	4	4
62	29.739	0.0406342	0	0	2.02157e-035	0	1	4	4
