midiPitch 	 onsetSec 	 durationSec 	 onsetBeats 	 onsetBarIndex 	 onsetBar 	 durationBeats 	 velocity  	 numerator 	 denominator 
65	2.58902	0.0406351	0	0	3.15929e-035	0	1	4	4
59	2.68771	0.0232198	0	0	3.15929e-035	0	1	4	4
60	2.73415	0.0406349	0	0	3.15929e-035	0	1	4	4
60	2.78059	0.330884	0	0	3.15929e-035	0	1	4	4
67	3.88354	0.168344	0	0	3.15929e-035	0	1	4	4
65	4.24925	0.127709	0	0	3.15929e-035	0	1	4	4
65	4.5395	0.0464396	0	0	3.15929e-035	0	1	4	4
62	4.72526	0.162539	0	0	3.15929e-035	0	1	4	4
62	5.03293	0.110295	0	0	3.15929e-035	0	1	4	4
62	5.19546	0.0348301	0	0	3.15929e-035	0	1	4	4
65	5.50313	0.0464401	0	0	3.15929e-035	0	1	4	4
62	5.68308	0.110294	0	0	3.15929e-035	0	1	4	4
60	5.9385	0.0986848	0	0	3.15929e-035	0	1	4	4
59	6.43193	0.19737	0	0	3.15929e-035	0	1	4	4
67	7.50005	0.121905	0	0	3.15929e-035	0	1	4	4
67	7.8019	0.0464396	0	0	3.15929e-035	0	1	4	4
65	7.99927	0.116099	0	0	3.15929e-035	0	1	4	4
64	8.21986	0.127709	0	0	3.15929e-035	0	1	4	4
62	8.34757	0.214785	0	0	3.15929e-035	0	1	4	4
62	8.76553	0.0522451	0	0	3.15929e-035	0	1	4	4
61	8.81778	0.296055	0	0	3.15929e-035	0	1	4	4
63	9.11383	0.0580492	0	0	3.15929e-035	0	1	4	4
64	9.17188	0.0580502	0	0	3.15929e-035	0	1	4	4
62	9.40408	0.1161	0	0	3.15929e-035	0	1	4	4
60	9.64789	0.0928793	0	0	3.15929e-035	0	1	4	4
60	10.1703	0.121905	0	0	3.15929e-035	0	1	4	4
61	11.192	0.0232201	0	0	3.15929e-035	0	1	4	4
66	11.2965	0.127709	0	0	3.15929e-035	0	1	4	4
67	11.4242	0.19737	0	0	3.15929e-035	0	1	4	4
65	11.7029	0.2322	0	0	3.15929e-035	0	1	4	4
65	11.9641	0.0290241	0	0	3.15929e-035	0	1	4	4
64	11.9989	0.0348301	0	0	3.15929e-035	0	1	4	4
64	12.2137	0.10449	0	0	3.15929e-035	0	1	4	4
62	12.3182	0.238005	0	0	3.15929e-035	0	1	4	4
64	12.7303	0.162539	0	0	3.15929e-035	0	1	4	4
62	13.1077	0.0986853	0	0	3.15929e-035	0	1	4	4
60	13.4327	0.0580502	0	0	3.15929e-035	0	1	4	4
73	13.6127	0.150929	0	0	3.15929e-035	0	1	4	4
60	13.9146	0.0696602	0	0	3.15929e-035	0	1	4	4
67	14.9943	0.104489	0	0	3.15929e-035	0	1	4	4
68	15.4761	0.0290251	0	0	3.15929e-035	0	1	4	4
69	15.5109	0.13932	0	0	3.15929e-035	0	1	4	4
67	15.9695	0.214786	0	0	3.15929e-035	0	1	4	4
65	16.1843	0.179955	0	0	3.15929e-035	0	1	4	4
65	16.3643	0.0870743	0	0	3.15929e-035	0	1	4	4
64	16.4688	0.214785	0	0	3.15929e-035	0	1	4	4
66	16.8287	0.0348301	0	0	3.15929e-035	0	1	4	4
68	16.8693	0.0986843	0	0	3.15929e-035	0	1	4	4
60	17.6123	0.267029	0	0	3.15929e-035	0	1	4	4
67	18.7385	0.145124	0	0	3.15929e-035	0	1	4	4
67	18.9417	0.1161	0	0	3.15929e-035	0	1	4	4
65	19.1913	0.156734	0	0	3.15929e-035	0	1	4	4
65	19.3538	0.214785	0	0	3.15929e-035	0	1	4	4
64	20.271	0.174149	0	0	3.15929e-035	0	1	4	4
63	20.5903	0.168344	0	0	3.15929e-035	0	1	4	4
61	20.8573	0.174149	0	0	3.15929e-035	0	1	4	4
60	21.3624	0.319275	0	0	3.15929e-035	0	1	4	4
61	21.6816	0.0290241	0	0	3.15929e-035	0	1	4	4
68	22.4711	0.150928	0	0	3.15929e-035	0	1	4	4
67	22.7207	0.0464382	0	0	3.15929e-035	0	1	4	4
65	22.8949	0.214785	0	0	3.15929e-035	0	1	4	4
65	23.2896	0.0464401	0	0	3.15929e-035	0	1	4	4
65	23.2896	0.0522461	0	0	3.15929e-035	0	1	4	4
66	23.3302	0.0406342	0	0	3.15929e-035	0	1	4	4
67	23.3999	0.179955	0	0	3.15929e-035	0	1	4	4
62	23.5799	0.110296	0	0	3.15929e-035	0	1	4	4
69	23.6902	0.104488	0	0	3.15929e-035	0	1	4	4
72	23.8179	0.400545	0	0	3.15929e-035	0	1	4	4
74	24.2358	0.0812702	0	0	3.15929e-035	0	1	4	4
75	24.3171	0.0348301	0	0	3.15929e-035	0	1	4	4
74	24.3577	0.325079	0	0	3.15929e-035	0	1	4	4
74	24.6828	0.0638542	0	0	3.15929e-035	0	1	4	4
72	24.7525	0.278639	0	0	3.15929e-035	0	1	4	4
69	25.124	0.0290241	0	0	3.15929e-035	0	1	4	4
67	26.2153	0.156734	0	0	3.15929e-035	0	1	4	4
67	26.4417	0.0928802	0	0	3.15929e-035	0	1	4	4
65	26.6623	0.203175	0	0	3.15929e-035	0	1	4	4
62	27.1557	0.10449	0	0	3.15929e-035	0	1	4	4
62	27.4634	0.208979	0	0	3.15929e-035	0	1	4	4
63	27.6724	0.261225	0	0	3.15929e-035	0	1	4	4
62	28.0439	0.145124	0	0	3.15929e-035	0	1	4	4
