midiPitch 	 onsetSec 	 durationSec 	 onsetBeats 	 onsetBarIndex 	 onsetBar 	 durationBeats 	 velocity  	 numerator 	 denominator 
62	0.946213	0.0464399	0	0	0	0	1	4	4
63	1.06231	0.203175	0	0	0	0	1	4	4
65	1.41642	0.18576	0	0	0	0	1	4	4
70	1.95628	0.359909	0	0	0	0	1	4	4
70	2.31619	0.0696597	0	0	0	0	1	4	4
69	2.38585	0.121905	0	0	0	0	1	4	4
70	2.50776	0.731429	0	0	0	0	1	4	4
70	3.23918	0.290249	0	0	0	0	1	4	4
70	3.52943	0.12771	0	0	0	0	1	4	4
65	3.87193	0.133515	0	0	0	0	1	4	4
63	4.37116	0.354105	0	0	0	0	1	4	4
61	4.72526	0.1161	0	0	0	0	1	4	4
61	4.85878	0.145124	0	0	0	0	1	4	4
70	5.53215	0.0812697	0	0	0	0	1	4	4
60	5.7063	0.1161	0	0	0	0	1	4	4
62	5.88045	0.203175	0	0	0	0	1	4	4
60	6.1649	0.191565	0	0	0	0	1	4	4
54	8.78875	0.377324	0	0	0	0	1	4	4
53	9.16608	0.0638552	0	0	0	0	1	4	4
53	10.2632	0.150929	0	0	0	0	1	4	4
58	10.5999	0.0754652	0	0	0	0	1	4	4
61	10.7973	0.13932	0	0	0	0	1	4	4
62	10.9598	0.121904	0	0	0	0	1	4	4
64	11.3371	0.150929	0	0	0	0	1	4	4
62	11.8538	0.22059	0	0	0	0	1	4	4
0	12.0744	0.272835	0	0	0	0	1	4	4
60	12.9161	0.26703	0	0	0	0	1	4	4
60	13.1831	0.0406342	0	0	0	0	1	4	4
60	14.1293	0.150929	0	0	0	0	1	4	4
62	14.2803	0.0232201	0	0	0	0	1	4	4
62	14.3035	0.0870752	0	0	0	0	1	4	4
61	14.4834	0.26703	0	0	0	0	1	4	4
61	15.3484	0.0696602	0	0	0	0	1	4	4
56	15.9869	0.0928802	0	0	0	0	1	4	4
64	17.3047	0.0928802	0	0	0	0	1	4	4
64	17.4904	0.220589	0	0	0	0	1	4	4
65	18.0651	0.0348301	0	0	0	0	1	4	4
65	18.1058	0.255421	0	0	0	0	1	4	4
65	19.3074	0.232199	0	0	0	0	1	4	4
64	19.5686	0.197369	0	0	0	0	1	4	4
56	20.1027	0.586306	0	0	0	0	1	4	4
56	20.689	0.0464382	0	0	0	0	1	4	4
56	20.7528	0.203175	0	0	0	0	1	4	4
56	20.956	0.0232201	0	0	0	0	1	4	4
56	20.9792	0.0406342	0	0	0	0	1	4	4
58	21.3566	0.0754662	0	0	0	0	1	4	4
58	21.432	0.0232201	0	0	0	0	1	4	4
61	22.4537	0.0638561	0	0	0	0	1	4	4
61	22.5176	0.0812683	0	0	0	0	1	4	4
53	22.5988	0.220591	0	0	0	0	1	4	4
53	22.8194	0.0348301	0	0	0	0	1	4	4
61	23.5508	0.0696602	0	0	0	0	1	4	4
63	23.7366	0.0638542	0	0	0	0	1	4	4
63	23.8353	0.0580502	0	0	0	0	1	4	4
63	23.9166	0.0348301	0	0	0	0	1	4	4
56	24.648	0.0696602	0	0	0	0	1	4	4
56	24.7176	0.0232201	0	0	0	0	1	4	4
55	25.1704	0.127708	0	0	0	0	1	4	4
58	25.7103	0.0464401	0	0	0	0	1	4	4
58	25.7741	0.0406361	0	0	0	0	1	4	4
63	26.2966	0.121904	0	0	0	0	1	4	4
64	26.4185	0.220591	0	0	0	0	1	4	4
63	28.2297	0.133514	0	0	0	0	1	4	4
61	29.083	0.267029	0	0	0	0	1	4	4
