midiPitch 	 onsetSec 	 durationSec 	 onsetBeats 	 onsetBarIndex 	 onsetBar 	 durationBeats 	 velocity  	 numerator 	 denominator 
60	0.452789	0.02322	0	0	3.3849e-035	0	1	4	4
55	0.487619	0.0348299	0	0	3.3849e-035	0	1	4	4
57	0.621134	0.121905	0	0	3.3849e-035	0	1	4	4
60	1.03909	0.0232201	0	0	3.3849e-035	0	1	4	4
60	1.06231	0.0290248	0	0	3.3849e-035	0	1	4	4
55	1.13197	0.029025	0	0	3.3849e-035	0	1	4	4
55	1.161	0.0232199	0	0	3.3849e-035	0	1	4	4
55	1.19002	0.0464399	0	0	3.3849e-035	0	1	4	4
58	1.29451	0.040635	0	0	3.3849e-035	0	1	4	4
59	1.54413	0.0232199	0	0	3.3849e-035	0	1	4	4
57	1.63701	0.03483	0	0	3.3849e-035	0	1	4	4
64	1.75311	0.0290248	0	0	3.3849e-035	0	1	4	4
64	1.78213	0.040635	0	0	3.3849e-035	0	1	4	4
65	1.93887	0.0232199	0	0	3.3849e-035	0	1	4	4
65	1.96789	0.03483	0	0	3.3849e-035	0	1	4	4
65	2.00853	0.0812697	0	0	3.3849e-035	0	1	4	4
64	2.28717	0.075465	0	0	3.3849e-035	0	1	4	4
63	2.6761	0.0232198	0	0	3.3849e-035	0	1	4	4
62	2.83283	0.0406349	0	0	3.3849e-035	0	1	4	4
66	2.86766	0.0406349	0	0	3.3849e-035	0	1	4	4
63	2.99537	0.0348299	0	0	3.3849e-035	0	1	4	4
68	3.38431	0.17415	0	0	3.3849e-035	0	1	4	4
66	3.58748	0.0580499	0	0	3.3849e-035	0	1	4	4
66	3.75002	0.0348299	0	0	3.3849e-035	0	1	4	4
54	3.89515	0.0406349	0	0	3.3849e-035	0	1	4	4
66	4.05769	0.0580502	0	0	3.3849e-035	0	1	4	4
66	4.11574	0.0870748	0	0	3.3849e-035	0	1	4	4
66	4.23184	0.0348296	0	0	3.3849e-035	0	1	4	4
54	4.24345	0.0870748	0	0	3.3849e-035	0	1	4	4
54	4.40599	0.156734	0	0	3.3849e-035	0	1	4	4
54	4.67882	0.145125	0	0	3.3849e-035	0	1	4	4
57	4.89361	0.0348301	0	0	3.3849e-035	0	1	4	4
57	4.92844	0.0464396	0	0	3.3849e-035	0	1	4	4
57	4.97487	0.0290251	0	0	3.3849e-035	0	1	4	4
56	5.08517	0.0348301	0	0	3.3849e-035	0	1	4	4
67	5.31156	0.0696597	0	0	3.3849e-035	0	1	4	4
66	5.38122	0.13932	0	0	3.3849e-035	0	1	4	4
68	5.74113	0.0232201	0	0	3.3849e-035	0	1	4	4
67	5.76435	0.0522447	0	0	3.3849e-035	0	1	4	4
67	5.8166	0.0232201	0	0	3.3849e-035	0	1	4	4
67	5.84562	0.0696597	0	0	3.3849e-035	0	1	4	4
67	6.24617	0.0406351	0	0	3.3849e-035	0	1	4	4
67	6.48417	0.0696597	0	0	3.3849e-035	0	1	4	4
60	7.30268	0.0870748	0	0	3.3849e-035	0	1	4	4
77	7.36073	0.0580502	0	0	3.3849e-035	0	1	4	4
77	7.41878	0.0754647	0	0	3.3849e-035	0	1	4	4
77	7.52327	0.0348296	0	0	3.3849e-035	0	1	4	4
67	7.77288	0.0406351	0	0	3.3849e-035	0	1	4	4
79	7.81932	0.249615	0	0	3.3849e-035	0	1	4	4
62	8.35338	0.0580502	0	0	3.3849e-035	0	1	4	4
64	8.41723	0.0406351	0	0	3.3849e-035	0	1	4	4
63	8.45787	0.0290251	0	0	3.3849e-035	0	1	4	4
65	8.53914	0.0232201	0	0	3.3849e-035	0	1	4	4
64	8.57397	0.0406351	0	0	3.3849e-035	0	1	4	4
64	8.7249	0.0290251	0	0	3.3849e-035	0	1	4	4
64	8.77714	0.179955	0	0	3.3849e-035	0	1	4	4
64	9.02095	0.0928802	0	0	3.3849e-035	0	1	4	4
64	9.11383	0.0522442	0	0	3.3849e-035	0	1	4	4
67	9.1893	0.0638552	0	0	3.3849e-035	0	1	4	4
67	9.25315	0.0232201	0	0	3.3849e-035	0	1	4	4
64	9.29959	0.0464392	0	0	3.3849e-035	0	1	4	4
64	9.34603	0.0348301	0	0	3.3849e-035	0	1	4	4
64	9.38086	0.0406351	0	0	3.3849e-035	0	1	4	4
64	9.45633	0.0290251	0	0	3.3849e-035	0	1	4	4
62	9.63628	0.0232201	0	0	3.3849e-035	0	1	4	4
62	9.66531	0.0870743	0	0	3.3849e-035	0	1	4	4
65	9.75238	0.0406351	0	0	3.3849e-035	0	1	4	4
66	9.79302	0.0638552	0	0	3.3849e-035	0	1	4	4
62	9.89751	0.0348301	0	0	3.3849e-035	0	1	4	4
62	9.94394	0.0232201	0	0	3.3849e-035	0	1	4	4
62	10.002	0.0696602	0	0	3.3849e-035	0	1	4	4
62	10.1239	0.0232191	0	0	3.3849e-035	0	1	4	4
66	10.3503	0.0232191	0	0	3.3849e-035	0	1	4	4
62	10.7276	0.0348291	0	0	3.3849e-035	0	1	4	4
62	10.7799	0.0580502	0	0	3.3849e-035	0	1	4	4
62	10.8379	0.394739	0	0	3.3849e-035	0	1	4	4
62	11.3081	0.0464401	0	0	3.3849e-035	0	1	4	4
60	11.4358	0.0232201	0	0	3.3849e-035	0	1	4	4
57	11.7609	0.417959	0	0	3.3849e-035	0	1	4	4
57	12.2717	0.17415	0	0	3.3849e-035	0	1	4	4
64	12.3937	0.214784	0	0	3.3849e-035	0	1	4	4
57	12.6084	0.0290251	0	0	3.3849e-035	0	1	4	4
57	12.7013	0.0290251	0	0	3.3849e-035	0	1	4	4
57	12.7652	0.0290251	0	0	3.3849e-035	0	1	4	4
64	12.829	0.0232201	0	0	3.3849e-035	0	1	4	4
57	12.8755	0.191565	0	0	3.3849e-035	0	1	4	4
57	13.067	0.0232201	0	0	3.3849e-035	0	1	4	4
57	13.1483	0.0580502	0	0	3.3849e-035	0	1	4	4
57	13.3341	0.0986843	0	0	3.3849e-035	0	1	4	4
53	13.5546	0.20898	0	0	3.3849e-035	0	1	4	4
54	13.7927	0.19737	0	0	3.3849e-035	0	1	4	4
54	13.99	0.0406351	0	0	3.3849e-035	0	1	4	4
54	14.0307	0.0290241	0	0	3.3849e-035	0	1	4	4
54	14.1119	0.139319	0	0	3.3849e-035	0	1	4	4
54	14.2512	0.0232201	0	0	3.3849e-035	0	1	4	4
54	14.4951	0.110295	0	0	3.3849e-035	0	1	4	4
54	14.6982	0.10449	0	0	3.3849e-035	0	1	4	4
62	15.2671	0.0522442	0	0	3.3849e-035	0	1	4	4
63	15.331	0.0406351	0	0	3.3849e-035	0	1	4	4
63	15.3716	0.261225	0	0	3.3849e-035	0	1	4	4
54	15.6328	0.0986843	0	0	3.3849e-035	0	1	4	4
57	16.016	0.0696602	0	0	3.3849e-035	0	1	4	4
57	16.0856	0.0464401	0	0	3.3849e-035	0	1	4	4
57	16.1321	0.354105	0	0	3.3849e-035	0	1	4	4
57	16.4862	0.197369	0	0	3.3849e-035	0	1	4	4
57	16.8867	0.0754662	0	0	3.3849e-035	0	1	4	4
57	17.0493	0.185759	0	0	3.3849e-035	0	1	4	4
50	17.6007	0.0348301	0	0	3.3849e-035	0	1	4	4
63	17.6472	0.0290241	0	0	3.3849e-035	0	1	4	4
63	17.7052	0.0406342	0	0	3.3849e-035	0	1	4	4
62	17.7749	0.0870743	0	0	3.3849e-035	0	1	4	4
62	17.9606	0.261225	0	0	3.3849e-035	0	1	4	4
62	18.396	0.0986843	0	0	3.3849e-035	0	1	4	4
62	18.8604	0.0348301	0	0	3.3849e-035	0	1	4	4
57	19.2668	0.0696583	0	0	3.3849e-035	0	1	4	4
62	19.3306	0.0928802	0	0	3.3849e-035	0	1	4	4
62	19.5338	0.0406342	0	0	3.3849e-035	0	1	4	4
62	19.5802	0.121904	0	0	3.3849e-035	0	1	4	4
62	19.9576	0.307665	0	0	3.3849e-035	0	1	4	4
54	21.432	0.145124	0	0	3.3849e-035	0	1	4	4
54	21.8964	0.116098	0	0	3.3849e-035	0	1	4	4
54	22.0125	0.0232201	0	0	3.3849e-035	0	1	4	4
58	22.0822	0.15093	0	0	3.3849e-035	0	1	4	4
57	22.2331	0.0406342	0	0	3.3849e-035	0	1	4	4
63	22.4943	0.0696583	0	0	3.3849e-035	0	1	4	4
62	22.564	0.0696602	0	0	3.3849e-035	0	1	4	4
62	22.6336	0.0464401	0	0	3.3849e-035	0	1	4	4
63	22.7498	0.0464401	0	0	3.3849e-035	0	1	4	4
57	23.307	0.238005	0	0	3.3849e-035	0	1	4	4
57	23.5741	0.110294	0	0	3.3849e-035	0	1	4	4
57	23.8469	0.214785	0	0	3.3849e-035	0	1	4	4
57	24.1371	0.168344	0	0	3.3849e-035	0	1	4	4
57	24.4158	0.10449	0	0	3.3849e-035	0	1	4	4
57	24.5203	0.0406361	0	0	3.3849e-035	0	1	4	4
50	24.7873	0.208979	0	0	3.3849e-035	0	1	4	4
62	25.0195	0.0696602	0	0	3.3849e-035	0	1	4	4
62	25.0892	0.0406342	0	0	3.3849e-035	0	1	4	4
63	25.362	0.0232201	0	0	3.3849e-035	0	1	4	4
62	25.4084	0.197369	0	0	3.3849e-035	0	1	4	4
61	25.6697	0.0406361	0	0	3.3849e-035	0	1	4	4
62	26.1573	0.0464401	0	0	3.3849e-035	0	1	4	4
64	26.3895	0.0696583	0	0	3.3849e-035	0	1	4	4
63	26.6275	0.0348282	0	0	3.3849e-035	0	1	4	4
57	26.6623	0.0870762	0	0	3.3849e-035	0	1	4	4
57	26.7494	0.0406342	0	0	3.3849e-035	0	1	4	4
62	26.7668	0.220591	0	0	3.3849e-035	0	1	4	4
63	26.9932	0.0580502	0	0	3.3849e-035	0	1	4	4
62	27.0512	0.0754642	0	0	3.3849e-035	0	1	4	4
57	27.208	0.0754642	0	0	3.3849e-035	0	1	4	4
62	27.2951	0.029026	0	0	3.3849e-035	0	1	4	4
62	27.3299	0.214785	0	0	3.3849e-035	0	1	4	4
61	27.6085	0.0638542	0	0	3.3849e-035	0	1	4	4
54	29.1701	0.0232201	0	0	3.3849e-035	0	1	4	4
