midiPitch 	 onsetSec 	 durationSec 	 onsetBeats 	 onsetBarIndex 	 onsetBar 	 durationBeats 	 velocity  	 numerator 	 denominator 
59	0.319274	0.02322	0	0	2.51963e-035	0	1	4	4
58	0.359909	0.0290249	0	0	2.51963e-035	0	1	4	4
58	0.412154	0.0232199	0	0	2.51963e-035	0	1	4	4
58	0.452789	0.029025	0	0	2.51963e-035	0	1	4	4
58	0.487619	0.029025	0	0	2.51963e-035	0	1	4	4
60	0.748844	0.0348299	0	0	2.51963e-035	0	1	4	4
60	0.783673	0.0406349	0	0	2.51963e-035	0	1	4	4
60	0.864943	0.03483	0	0	2.51963e-035	0	1	4	4
60	1.03909	0.0812699	0	0	2.51963e-035	0	1	4	4
63	1.43964	0.0406349	0	0	2.51963e-035	0	1	4	4
65	1.5093	0.03483	0	0	2.51963e-035	0	1	4	4
60	1.60218	0.029025	0	0	2.51963e-035	0	1	4	4
60	1.71828	0.0232199	0	0	2.51963e-035	0	1	4	4
60	1.86921	0.1161	0	0	2.51963e-035	0	1	4	4
60	1.98531	0.0406348	0	0	2.51963e-035	0	1	4	4
58	2.05497	0.0290248	0	0	2.51963e-035	0	1	4	4
60	2.3278	0.0290248	0	0	2.51963e-035	0	1	4	4
62	2.49034	0.0232201	0	0	2.51963e-035	0	1	4	4
65	2.53098	0.0232198	0	0	2.51963e-035	0	1	4	4
61	3.0244	0.0232201	0	0	2.51963e-035	0	1	4	4
58	3.59909	0.0232198	0	0	2.51963e-035	0	1	4	4
58	3.65714	0.0522449	0	0	2.51963e-035	0	1	4	4
60	3.91256	0.0232198	0	0	2.51963e-035	0	1	4	4
61	3.94739	0.0290248	0	0	2.51963e-035	0	1	4	4
61	4.69624	0.0638552	0	0	2.51963e-035	0	1	4	4
65	5.01551	0.0232201	0	0	2.51963e-035	0	1	4	4
60	5.34059	0.0232201	0	0	2.51963e-035	0	1	4	4
61	5.37542	0.0232196	0	0	2.51963e-035	0	1	4	4
63	5.62503	0.0290251	0	0	2.51963e-035	0	1	4	4
59	5.86304	0.0232201	0	0	2.51963e-035	0	1	4	4
68	6.32163	0.0232201	0	0	2.51963e-035	0	1	4	4
67	6.34485	0.0232201	0	0	2.51963e-035	0	1	4	4
60	6.56544	0.0232201	0	0	2.51963e-035	0	1	4	4
67	6.78603	0.0232201	0	0	2.51963e-035	0	1	4	4
60	6.80925	0.0290246	0	0	2.51963e-035	0	1	4	4
60	6.85569	0.0464401	0	0	2.51963e-035	0	1	4	4
54	6.89633	0.0232196	0	0	2.51963e-035	0	1	4	4
60	6.93116	0.0580502	0	0	2.51963e-035	0	1	4	4
65	7.04145	0.0348301	0	0	2.51963e-035	0	1	4	4
64	7.0937	0.0406346	0	0	2.51963e-035	0	1	4	4
65	7.22141	0.0290246	0	0	2.51963e-035	0	1	4	4
65	7.54648	0.0232201	0	0	2.51963e-035	0	1	4	4
60	7.8019	0.0580497	0	0	2.51963e-035	0	1	4	4
58	8.24889	0.0638542	0	0	2.51963e-035	0	1	4	4
63	8.57977	0.0290251	0	0	2.51963e-035	0	1	4	4
68	9.02095	0.0232201	0	0	2.51963e-035	0	1	4	4
65	9.11964	0.0232191	0	0	2.51963e-035	0	1	4	4
66	9.16608	0.0232201	0	0	2.51963e-035	0	1	4	4
67	9.27637	0.0348301	0	0	2.51963e-035	0	1	4	4
68	9.40989	0.0580502	0	0	2.51963e-035	0	1	4	4
62	9.50277	0.0232201	0	0	2.51963e-035	0	1	4	4
66	9.59565	0.0290251	0	0	2.51963e-035	0	1	4	4
66	9.62467	0.0290251	0	0	2.51963e-035	0	1	4	4
68	9.80463	0.0348301	0	0	2.51963e-035	0	1	4	4
65	9.8917	0.0232201	0	0	2.51963e-035	0	1	4	4
67	10.06	0.0232201	0	0	2.51963e-035	0	1	4	4
67	10.3967	0.0348301	0	0	2.51963e-035	0	1	4	4
65	10.5825	0.0232201	0	0	2.51963e-035	0	1	4	4
67	10.8379	0.0290251	0	0	2.51963e-035	0	1	4	4
66	10.8902	0.0232201	0	0	2.51963e-035	0	1	4	4
64	11.0353	0.0232201	0	0	2.51963e-035	0	1	4	4
67	11.1224	0.0348301	0	0	2.51963e-035	0	1	4	4
64	11.5055	0.0232201	0	0	2.51963e-035	0	1	4	4
66	11.819	0.0290251	0	0	2.51963e-035	0	1	4	4
66	12.1789	0.0232191	0	0	2.51963e-035	0	1	4	4
59	12.3878	0.0696592	0	0	2.51963e-035	0	1	4	4
59	12.5562	0.226395	0	0	2.51963e-035	0	1	4	4
66	12.9974	0.0232191	0	0	2.51963e-035	0	1	4	4
61	13.0322	0.0290251	0	0	2.51963e-035	0	1	4	4
61	13.067	0.133515	0	0	2.51963e-035	0	1	4	4
70	13.3108	0.0290251	0	0	2.51963e-035	0	1	4	4
61	13.5779	0.0290251	0	0	2.51963e-035	0	1	4	4
60	13.6069	0.0406342	0	0	2.51963e-035	0	1	4	4
60	13.7752	0.0812693	0	0	2.51963e-035	0	1	4	4
60	13.8565	0.0232201	0	0	2.51963e-035	0	1	4	4
65	13.9784	0.0348301	0	0	2.51963e-035	0	1	4	4
60	14.0481	0.16254	0	0	2.51963e-035	0	1	4	4
60	14.2338	0.0290241	0	0	2.51963e-035	0	1	4	4
60	14.2919	0.121905	0	0	2.51963e-035	0	1	4	4
63	14.7969	0.0406351	0	0	2.51963e-035	0	1	4	4
65	15.2265	0.0232201	0	0	2.51963e-035	0	1	4	4
59	15.418	0.0348301	0	0	2.51963e-035	0	1	4	4
58	15.5864	0.0232201	0	0	2.51963e-035	0	1	4	4
60	15.778	0.0348301	0	0	2.51963e-035	0	1	4	4
56	15.9753	0.0290241	0	0	2.51963e-035	0	1	4	4
64	16.3004	0.0232201	0	0	2.51963e-035	0	1	4	4
58	16.7242	0.0348301	0	0	2.51963e-035	0	1	4	4
63	16.8054	0.0580482	0	0	2.51963e-035	0	1	4	4
60	17.235	0.10449	0	0	2.51963e-035	0	1	4	4
66	17.5253	0.0290241	0	0	2.51963e-035	0	1	4	4
60	17.5659	0.0406361	0	0	2.51963e-035	0	1	4	4
60	17.891	0.0522461	0	0	2.51963e-035	0	1	4	4
62	17.9548	0.0232201	0	0	2.51963e-035	0	1	4	4
60	17.9781	0.0232201	0	0	2.51963e-035	0	1	4	4
60	18.0419	0.0754642	0	0	2.51963e-035	0	1	4	4
65	18.3089	0.0464401	0	0	2.51963e-035	0	1	4	4
64	18.6688	0.0232201	0	0	2.51963e-035	0	1	4	4
62	18.7617	0.029026	0	0	2.51963e-035	0	1	4	4
60	19.1855	0.0232201	0	0	2.51963e-035	0	1	4	4
60	19.2726	0.0406342	0	0	2.51963e-035	0	1	4	4
61	19.4932	0.0348301	0	0	2.51963e-035	0	1	4	4
64	19.7137	0.0290241	0	0	2.51963e-035	0	1	4	4
65	20.0214	0.0290241	0	0	2.51963e-035	0	1	4	4
58	20.7354	0.261225	0	0	2.51963e-035	0	1	4	4
58	21.2172	0.0812702	0	0	2.51963e-035	0	1	4	4
60	21.4494	0.0812702	0	0	2.51963e-035	0	1	4	4
60	21.7513	0.0812702	0	0	2.51963e-035	0	1	4	4
60	21.908	0.0464382	0	0	2.51963e-035	0	1	4	4
65	21.9835	0.0638542	0	0	2.51963e-035	0	1	4	4
65	22.0473	0.029026	0	0	2.51963e-035	0	1	4	4
60	22.088	0.0406342	0	0	2.51963e-035	0	1	4	4
60	22.1518	0.0870743	0	0	2.51963e-035	0	1	4	4
60	22.2912	0.0928783	0	0	2.51963e-035	0	1	4	4
61	22.6104	0.0232201	0	0	2.51963e-035	0	1	4	4
60	22.9239	0.0522442	0	0	2.51963e-035	0	1	4	4
64	23.0922	0.0232201	0	0	2.51963e-035	0	1	4	4
60	23.4928	0.0348301	0	0	2.51963e-035	0	1	4	4
66	23.5276	0.0232201	0	0	2.51963e-035	0	1	4	4
60	23.7018	0.0232201	0	0	2.51963e-035	0	1	4	4
61	23.783	0.0232201	0	0	2.51963e-035	0	1	4	4
66	23.8411	0.0232201	0	0	2.51963e-035	0	1	4	4
66	24.0327	0.0348301	0	0	2.51963e-035	0	1	4	4
66	24.0791	0.029026	0	0	2.51963e-035	0	1	4	4
60	24.172	0.0290241	0	0	2.51963e-035	0	1	4	4
64	24.2997	0.0232201	0	0	2.51963e-035	0	1	4	4
69	24.5029	0.0232201	0	0	2.51963e-035	0	1	4	4
66	24.5667	0.029026	0	0	2.51963e-035	0	1	4	4
66	24.5957	0.0348282	0	0	2.51963e-035	0	1	4	4
65	24.8454	0.029026	0	0	2.51963e-035	0	1	4	4
65	24.9498	0.0232201	0	0	2.51963e-035	0	1	4	4
58	25.0834	0.261225	0	0	2.51963e-035	0	1	4	4
60	25.7161	0.0406361	0	0	2.51963e-035	0	1	4	4
60	25.8728	0.0986862	0	0	2.51963e-035	0	1	4	4
61	26.0238	0.0406342	0	0	2.51963e-035	0	1	4	4
65	26.105	0.0232201	0	0	2.51963e-035	0	1	4	4
60	26.1863	0.0406342	0	0	2.51963e-035	0	1	4	4
60	26.256	0.0754662	0	0	2.51963e-035	0	1	4	4
60	26.3837	0.029026	0	0	2.51963e-035	0	1	4	4
60	26.5636	0.0406361	0	0	2.51963e-035	0	1	4	4
60	26.6275	0.0580482	0	0	2.51963e-035	0	1	4	4
60	26.8539	0.0754662	0	0	2.51963e-035	0	1	4	4
61	26.9526	0.0232201	0	0	2.51963e-035	0	1	4	4
60	27.5331	0.029026	0	0	2.51963e-035	0	1	4	4
60	27.7362	0.0232201	0	0	2.51963e-035	0	1	4	4
58	27.9162	0.0928802	0	0	2.51963e-035	0	1	4	4
66	28.0497	0.0232201	0	0	2.51963e-035	0	1	4	4
64	28.131	0.0232201	0	0	2.51963e-035	0	1	4	4
58	28.5954	0.0348301	0	0	2.51963e-035	0	1	4	4
69	28.7811	0.0406342	0	0	2.51963e-035	0	1	4	4
66	28.9959	0.0290241	0	0	2.51963e-035	0	1	4	4
64	29.2804	0.0348282	0	0	2.51963e-035	0	1	4	4
