midiPitch 	 onsetSec 	 durationSec 	 onsetBeats 	 onsetBarIndex 	 onsetBar 	 durationBeats 	 velocity  	 numerator 	 denominator 
64	0.0406349	0.0812698	0	0	0	0	1	4	4
61	0.133515	0.0580499	0	0	0	0	1	4	4
58	0.214785	0.0348299	0	0	0	0	1	4	4
61	0.284444	0.10449	0	0	0	0	1	4	4
61	0.417959	0.1161	0	0	0	0	1	4	4
62	0.580499	0.0290249	0	0	0	0	1	4	4
62	0.615329	0.0464399	0	0	0	0	1	4	4
61	0.661769	0.029025	0	0	0	0	1	4	4
62	0.731429	0.029025	0	0	0	0	1	4	4
63	0.841723	0.0696599	0	0	0	0	1	4	4
60	0.928798	0.0406349	0	0	0	0	1	4	4
58	0.969433	0.02322	0	0	0	0	1	4	4
77	2.34522	0.0348301	0	0	0	0	1	4	4
69	3.06503	0.0406349	0	0	0	0	1	4	4
70	3.11147	0.0232201	0	0	0	0	1	4	4
74	3.19274	0.0580499	0	0	0	0	1	4	4
66	3.41914	0.0580499	0	0	0	0	1	4	4
66	3.47719	0.0928798	0	0	0	0	1	4	4
66	3.57007	0.0522449	0	0	0	0	1	4	4
65	3.62231	0.0406351	0	0	0	0	1	4	4
70	3.69197	0.0290248	0	0	0	0	1	4	4
66	3.721	0.0232201	0	0	0	0	1	4	4
66	3.75583	0.0406349	0	0	0	0	1	4	4
64	3.97642	0.249615	0	0	0	0	1	4	4
74	4.1854	0.121905	0	0	0	0	1	4	4
74	4.3073	0.162539	0	0	0	0	1	4	4
62	4.46404	0.0754652	0	0	0	0	1	4	4
62	4.5395	0.0232196	0	0	0	0	1	4	4
61	4.60336	0.10449	0	0	0	0	1	4	4
63	4.83556	0.0812697	0	0	0	0	1	4	4
64	5.20127	0.25542	0	0	0	0	1	4	4
60	5.71791	0.0232201	0	0	0	0	1	4	4
61	5.79918	0.0928802	0	0	0	0	1	4	4
61	5.89206	0.104489	0	0	0	0	1	4	4
59	6.19392	0.121904	0	0	0	0	1	4	4
62	6.31583	0.0406351	0	0	0	0	1	4	4
76	6.39129	0.232199	0	0	0	0	1	4	4
76	6.64091	0.0870748	0	0	0	0	1	4	4
76	6.72798	0.0696602	0	0	0	0	1	4	4
66	8.46948	0.133514	0	0	0	0	1	4	4
76	8.69007	0.0522442	0	0	0	0	1	4	4
76	8.81778	0.127709	0	0	0	0	1	4	4
74	8.99773	0.162539	0	0	0	0	1	4	4
61	9.34603	0.145125	0	0	0	0	1	4	4
62	9.64789	0.104489	0	0	0	0	1	4	4
64	9.93234	0.168344	0	0	0	0	1	4	4
64	10.1007	0.116099	0	0	0	0	1	4	4
64	10.2168	0.0580502	0	0	0	0	1	4	4
69	10.658	0.0986853	0	0	0	0	1	4	4
69	10.7566	0.0696592	0	0	0	0	1	4	4
68	10.8263	0.0290251	0	0	0	0	1	4	4
62	10.954	0.0812693	0	0	0	0	1	4	4
61	11.0353	0.0580502	0	0	0	0	1	4	4
61	11.3081	0.0754642	0	0	0	0	1	4	4
64	11.7493	0.0812693	0	0	0	0	1	4	4
64	11.8306	0.0754652	0	0	0	0	1	4	4
64	11.9351	0.0580492	0	0	0	0	1	4	4
66	12.3878	0.162539	0	0	0	0	1	4	4
61	13.1831	0.116099	0	0	0	0	1	4	4
71	14.3441	0.0464401	0	0	0	0	1	4	4
71	14.4254	0.0290241	0	0	0	0	1	4	4
71	14.466	0.0348301	0	0	0	0	1	4	4
71	14.9304	0.0290251	0	0	0	0	1	4	4
77	15.0465	0.0232191	0	0	0	0	1	4	4
78	15.0814	0.0406351	0	0	0	0	1	4	4
78	15.1568	0.0580502	0	0	0	0	1	4	4
78	15.2613	0.0290241	0	0	0	0	1	4	4
66	15.3078	0.0522451	0	0	0	0	1	4	4
66	15.4239	0.133514	0	0	0	0	1	4	4
66	15.5574	0.19737	0	0	0	0	1	4	4
64	15.8534	0.255419	0	0	0	0	1	4	4
64	16.1088	0.296055	0	0	0	0	1	4	4
62	16.5036	0.12771	0	0	0	0	1	4	4
62	16.6545	0.0812702	0	0	0	0	1	4	4
61	16.9157	0.162539	0	0	0	0	1	4	4
66	17.8039	0.0986843	0	0	0	0	1	4	4
66	17.9432	0.104488	0	0	0	0	1	4	4
66	18.2102	0.261225	0	0	0	0	1	4	4
66	18.4715	0.0232201	0	0	0	0	1	4	4
64	18.8894	0.0754642	0	0	0	0	1	4	4
64	18.9649	0.0232201	0	0	0	0	1	4	4
66	19.0868	0.145126	0	0	0	0	1	4	4
66	19.2319	0.0464382	0	0	0	0	1	4	4
66	19.6731	0.284443	0	0	0	0	1	4	4
64	20.0214	0.139318	0	0	0	0	1	4	4
66	20.213	0.104488	0	0	0	0	1	4	4
65	20.3175	0.0928802	0	0	0	0	1	4	4
61	20.4452	0.12771	0	0	0	0	1	4	4
71	20.7412	0.0986843	0	0	0	0	1	4	4
60	20.9618	0.0812702	0	0	0	0	1	4	4
57	21.0431	0.029026	0	0	0	0	1	4	4
68	21.3624	0.0638542	0	0	0	0	1	4	4
64	21.5133	0.0928783	0	0	0	0	1	4	4
64	21.6062	0.0348301	0	0	0	0	1	4	4
66	21.699	0.0580502	0	0	0	0	1	4	4
66	21.8384	0.110294	0	0	0	0	1	4	4
66	21.9951	0.0522442	0	0	0	0	1	4	4
61	22.6685	0.10449	0	0	0	0	1	4	4
71	23.2432	0.0232201	0	0	0	0	1	4	4
68	23.2722	0.0464401	0	0	0	0	1	4	4
73	23.5276	0.0232201	0	0	0	0	1	4	4
64	23.9166	0.0812683	0	0	0	0	1	4	4
70	24.3984	0.0232201	0	0	0	0	1	4	4
66	24.5725	0.0696583	0	0	0	0	1	4	4
66	24.7293	0.0232201	0	0	0	0	1	4	4
66	24.8163	0.220589	0	0	0	0	1	4	4
66	25.0543	0.191565	0	0	0	0	1	4	4
64	25.333	0.0406361	0	0	0	0	1	4	4
64	25.3794	0.232201	0	0	0	0	1	4	4
64	25.6116	0.284443	0	0	0	0	1	4	4
62	25.9947	0.0986843	0	0	0	0	1	4	4
62	26.1631	0.0348301	0	0	0	0	1	4	4
66	28.4851	0.0812702	0	0	0	0	1	4	4
66	28.7463	0.12771	0	0	0	0	1	4	4
64	29.083	0.0928802	0	0	0	0	1	4	4
64	29.3268	0.1161	0	0	0	0	1	4	4
64	29.4429	0.0348301	0	0	0	0	1	4	4
62	29.5126	0.255419	0	0	0	0	1	4	4
