midiPitch 	 onsetSec 	 durationSec 	 onsetBeats 	 onsetBarIndex 	 onsetBar 	 durationBeats 	 velocity  	 numerator 	 denominator 
63	0.0406349	0.18576	0	0	0	0	1	4	4
63	0.226395	0.214785	0	0	0	0	1	4	4
63	0.441179	0.696599	0	0	0	0	1	4	4
63	1.13778	0.330884	0	0	0	0	1	4	4
63	1.46866	0.423764	0	0	0	0	1	4	4
63	1.89243	0.354104	0	0	0	0	1	4	4
63	2.24653	0.08127	0	0	0	0	1	4	4
63	2.33941	0.255419	0	0	0	0	1	4	4
58	2.59483	0.10449	0	0	0	0	1	4	4
63	2.69932	0.17415	0	0	0	0	1	4	4
60	3.07084	0.13932	0	0	0	0	1	4	4
60	3.28562	0.145125	0	0	0	0	1	4	4
60	3.57587	0.1161	0	0	0	0	1	4	4
60	3.94159	0.087075	0	0	0	0	1	4	4
63	4.15637	0.12771	0	0	0	0	1	4	4
60	4.33633	0.156734	0	0	0	0	1	4	4
63	4.52789	0.10449	0	0	0	0	1	4	4
60	4.81234	0.15093	0	0	0	0	1	4	4
63	5.09097	0.110295	0	0	0	0	1	4	4
60	5.44508	0.110295	0	0	0	0	1	4	4
61	5.69469	0.0232201	0	0	0	0	1	4	4
61	5.74113	0.10449	0	0	0	0	1	4	4
61	5.84562	0.336689	0	0	0	0	1	4	4
66	6.18231	0.470204	0	0	0	0	1	4	4
66	6.65252	0.458594	0	0	0	0	1	4	4
66	7.11111	0.505034	0	0	0	0	1	4	4
60	7.61615	0.0928798	0	0	0	0	1	4	4
61	7.70902	0.133514	0	0	0	0	1	4	4
66	7.84254	0.458595	0	0	0	0	1	4	4
66	8.30113	0.0290241	0	0	0	0	1	4	4
66	8.33596	0.493424	0	0	0	0	1	4	4
63	8.8468	0.464399	0	0	0	0	1	4	4
61	9.32281	0.278639	0	0	0	0	1	4	4
63	9.72916	0.127709	0	0	0	0	1	4	4
63	9.85687	0.301859	0	0	0	0	1	4	4
66	10.1587	0.452789	0	0	0	0	1	4	4
66	10.6115	0.487619	0	0	0	0	1	4	4
66	11.0991	0.510839	0	0	0	0	1	4	4
63	11.6332	0.162539	0	0	0	0	1	4	4
66	11.7957	0.476009	0	0	0	0	1	4	4
66	12.2717	0.319275	0	0	0	0	1	4	4
66	12.591	0.214785	0	0	0	0	1	4	4
63	12.8058	0.104489	0	0	0	0	1	4	4
65	12.9103	0.330884	0	0	0	0	1	4	4
62	13.2876	0.830113	0	0	0	0	1	4	4
61	14.1177	0.702404	0	0	0	0	1	4	4
63	14.8201	0.121904	0	0	0	0	1	4	4
65	14.942	0.29025	0	0	0	0	1	4	4
65	15.2323	0.0348301	0	0	0	0	1	4	4
65	15.5051	0.0696602	0	0	0	0	1	4	4
65	15.5748	0.0232201	0	0	0	0	1	4	4
65	15.6096	0.26703	0	0	0	0	1	4	4
65	15.8766	0.220589	0	0	0	0	1	4	4
65	16.0972	0.0348301	0	0	0	0	1	4	4
65	16.1553	0.197371	0	0	0	0	1	4	4
65	16.3527	0.487617	0	0	0	0	1	4	4
63	16.9157	0.145124	0	0	0	0	1	4	4
56	17.3511	0.388935	0	0	0	0	1	4	4
69	21.165	0.0696602	0	0	0	0	1	4	4
69	21.2346	0.17415	0	0	0	0	1	4	4
68	21.4552	0.139318	0	0	0	0	1	4	4
65	21.6468	0.127708	0	0	0	0	1	4	4
66	21.7745	0.0522461	0	0	0	0	1	4	4
65	21.8268	0.267029	0	0	0	0	1	4	4
68	22.1054	0.417959	0	0	0	0	1	4	4
68	22.564	0.441179	0	0	0	0	1	4	4
68	23.0226	0.470203	0	0	0	0	1	4	4
65	23.4928	0.121904	0	0	0	0	1	4	4
68	23.696	0.458595	0	0	0	0	1	4	4
68	24.1546	0.516644	0	0	0	0	1	4	4
64	24.6712	0.0290241	0	0	0	0	1	4	4
65	24.706	0.383129	0	0	0	0	1	4	4
65	25.0892	0.0348301	0	0	0	0	1	4	4
65	25.5129	0.441179	0	0	0	0	1	4	4
68	25.9773	0.458595	0	0	0	0	1	4	4
68	26.4766	0.481813	0	0	0	0	1	4	4
68	26.9584	0.470205	0	0	0	0	1	4	4
65	27.4286	0.145124	0	0	0	0	1	4	4
68	27.5853	0.528254	0	0	0	0	1	4	4
68	28.1136	0.313469	0	0	0	0	1	4	4
68	28.427	0.226395	0	0	0	0	1	4	4
65	28.6534	0.505033	0	0	0	0	1	4	4
63	29.2978	0.719818	0	0	0	0	1	4	4
