midiPitch 	 onsetSec 	 durationSec 	 onsetBeats 	 onsetBarIndex 	 onsetBar 	 durationBeats 	 velocity  	 numerator 	 denominator 
57	0.0754649	0.0580499	0	0	0	0	1	4	4
60	0.133515	0.145125	0	0	0	0	1	4	4
60	0.388934	0.435374	0	0	0	0	1	4	4
59	0.992653	0.0348299	0	0	0	0	1	4	4
59	1.03329	0.18576	0	0	0	0	1	4	4
54	1.21905	0.16254	0	0	0	0	1	4	4
55	1.58476	0.214785	0	0	0	0	1	4	4
57	1.79955	0.417959	0	0	0	0	1	4	4
49	2.66449	0.16254	0	0	0	0	1	4	4
48	2.82703	0.12771	0	0	0	0	1	4	4
49	3.10567	0.319274	0	0	0	0	1	4	4
52	3.42494	0.19737	0	0	0	0	1	4	4
52	3.62231	0.110295	0	0	0	0	1	4	4
57	5.2361	0.0464396	0	0	0	0	1	4	4
59	5.29995	0.0290251	0	0	0	0	1	4	4
60	5.32898	0.168344	0	0	0	0	1	4	4
60	5.68308	0.133514	0	0	0	0	1	4	4
60	6.24036	0.15093	0	0	0	0	1	4	4
52	6.69315	0.156734	0	0	0	0	1	4	4
57	6.94277	0.20898	0	0	0	0	1	4	4
55	7.52327	0.249614	0	0	0	0	1	4	4
52	8.30694	0.0986853	0	0	0	0	1	4	4
51	8.40562	0.296055	0	0	0	0	1	4	4
51	8.70168	0.0290241	0	0	0	0	1	4	4
63	10.4083	0.307665	0	0	0	0	1	4	4
54	11.6216	0.19737	0	0	0	0	1	4	4
52	12.2776	0.249615	0	0	0	0	1	4	4
51	12.6375	0.20898	0	0	0	0	1	4	4
53	12.9509	0.18576	0	0	0	0	1	4	4
48	13.7346	0.150929	0	0	0	0	1	4	4
50	14.0713	0.179955	0	0	0	0	1	4	4
56	14.2629	0.377325	0	0	0	0	1	4	4
55	14.6402	0.22059	0	0	0	0	1	4	4
52	15.1162	0.22059	0	0	0	0	1	4	4
53	15.5109	0.16254	0	0	0	0	1	4	4
47	16.3875	0.104488	0	0	0	0	1	4	4
50	16.6893	0.0812702	0	0	0	0	1	4	4
54	16.9041	0.243809	0	0	0	0	1	4	4
52	17.7168	0.278639	0	0	0	0	1	4	4
53	18.2044	0.214785	0	0	0	0	1	4	4
56	18.5005	0.208981	0	0	0	0	1	4	4
0	18.7095	0.150928	0	0	0	0	1	4	4
60	19.2029	0.0522461	0	0	0	0	1	4	4
60	19.348	0.0754662	0	0	0	0	1	4	4
60	19.6731	0.162539	0	0	0	0	1	4	4
59	20.0156	0.17415	0	0	0	0	1	4	4
57	20.3291	0.13932	0	0	0	0	1	4	4
57	20.6948	0.1161	0	0	0	0	1	4	4
60	20.8109	0.261225	0	0	0	0	1	4	4
63	21.5713	0.0580502	0	0	0	0	1	4	4
60	21.6294	0.18576	0	0	0	0	1	4	4
60	21.9371	0.17415	0	0	0	0	1	4	4
65	22.2563	0.272835	0	0	0	0	1	4	4
68	22.6278	0.162539	0	0	0	0	1	4	4
67	22.8659	0.0754642	0	0	0	0	1	4	4
63	22.9413	0.226395	0	0	0	0	1	4	4
63	23.1677	0.0870743	0	0	0	0	1	4	4
65	23.4754	0.354103	0	0	0	0	1	4	4
65	23.8295	0.0406361	0	0	0	0	1	4	4
74	23.8469	0.220589	0	0	0	0	1	4	4
72	24.1894	0.12771	0	0	0	0	1	4	4
67	24.6828	0.174149	0	0	0	0	1	4	4
74	25.0137	0.12771	0	0	0	0	1	4	4
65	25.153	0.145124	0	0	0	0	1	4	4
71	25.2981	0.0812702	0	0	0	0	1	4	4
68	25.3794	0.168344	0	0	0	0	1	4	4
67	25.6174	0.15093	0	0	0	0	1	4	4
72	25.7683	0.133514	0	0	0	0	1	4	4
75	25.9193	0.15093	0	0	0	0	1	4	4
71	26.2269	0.110294	0	0	0	0	1	4	4
74	26.3372	0.220591	0	0	0	0	1	4	4
76	26.8945	0.0812702	0	0	0	0	1	4	4
79	27.0338	0.174149	0	0	0	0	1	4	4
75	27.2196	0.226395	0	0	0	0	1	4	4
77	27.5215	0.1161	0	0	0	0	1	4	4
80	27.6898	0.13932	0	0	0	0	1	4	4
79	28.0033	0.232199	0	0	0	0	1	4	4
72	28.3167	0.179955	0	0	0	0	1	4	4
71	28.6592	0.249613	0	0	0	0	1	4	4
74	28.9088	0.243811	0	0	0	0	1	4	4
79	29.1527	0.214785	0	0	0	0	1	4	4
