midiPitch 	 onsetSec 	 durationSec 	 onsetBeats 	 onsetBarIndex 	 onsetBar 	 durationBeats 	 velocity  	 numerator 	 denominator 
76	0.325079	0.1161	0	0	4.23143e-035	0	1	4	4
76	0.441179	0.121905	0	0	4.23143e-035	0	1	4	4
71	0.580499	0.1161	0	0	4.23143e-035	0	1	4	4
59	0.615329	0.168345	0	0	4.23143e-035	0	1	4	4
64	0.870748	0.26703	0	0	4.23143e-035	0	1	4	4
64	1.13778	0.226395	0	0	4.23143e-035	0	1	4	4
62	1.41061	0.301859	0	0	4.23143e-035	0	1	4	4
65	1.71828	0.0232199	0	0	4.23143e-035	0	1	4	4
65	1.7473	0.464399	0	0	4.23143e-035	0	1	4	4
62	2.24073	0.214785	0	0	4.23143e-035	0	1	4	4
62	2.45551	0.534059	0	0	4.23143e-035	0	1	4	4
62	4.52209	0.249614	0	0	4.23143e-035	0	1	4	4
62	4.7717	0.12771	0	0	4.23143e-035	0	1	4	4
62	4.89941	0.0406351	0	0	4.23143e-035	0	1	4	4
65	4.99229	0.336689	0	0	4.23143e-035	0	1	4	4
62	5.32898	0.203175	0	0	4.23143e-035	0	1	4	4
60	5.53215	0.325079	0	0	4.23143e-035	0	1	4	4
62	5.85723	1.10875	0	0	4.23143e-035	0	1	4	4
65	8.71329	0.24381	0	0	4.23143e-035	0	1	4	4
65	9.25896	0.296054	0	0	4.23143e-035	0	1	4	4
65	9.55501	0.18576	0	0	4.23143e-035	0	1	4	4
62	9.83946	0.25542	0	0	4.23143e-035	0	1	4	4
65	10.0949	0.348299	0	0	4.23143e-035	0	1	4	4
65	10.4432	0.801088	0	0	4.23143e-035	0	1	4	4
62	12.8697	0.0928802	0	0	4.23143e-035	0	1	4	4
65	13.218	0.348299	0	0	4.23143e-035	0	1	4	4
67	13.7056	0.29025	0	0	4.23143e-035	0	1	4	4
65	14.2571	1.06231	0	0	4.23143e-035	0	1	4	4
65	15.3194	0.0812702	0	0	4.23143e-035	0	1	4	4
64	17.0376	0.179955	0	0	4.23143e-035	0	1	4	4
64	17.5775	0.563084	0	0	4.23143e-035	0	1	4	4
65	18.4657	0.203175	0	0	4.23143e-035	0	1	4	4
65	18.6688	0.981045	0	0	4.23143e-035	0	1	4	4
65	19.6499	0.0580482	0	0	4.23143e-035	0	1	4	4
62	21.2288	0.255419	0	0	4.23143e-035	0	1	4	4
62	21.4843	0.10449	0	0	4.23143e-035	0	1	4	4
65	21.7629	0.197371	0	0	4.23143e-035	0	1	4	4
62	22.593	0.911383	0	0	4.23143e-035	0	1	4	4
