midiPitch 	 onsetSec 	 durationSec 	 onsetBeats 	 onsetBarIndex 	 onsetBar 	 durationBeats 	 velocity  	 numerator 	 denominator 
53	0.470204	0.13932	0	0	2.36959e-035	0	1	4	4
55	0.609524	0.10449	0	0	2.36959e-035	0	1	4	4
55	0.714014	0.0232199	0	0	2.36959e-035	0	1	4	4
55	0.795283	0.0348299	0	0	2.36959e-035	0	1	4	4
55	0.830113	0.121905	0	0	2.36959e-035	0	1	4	4
58	0.981043	0.383129	0	0	2.36959e-035	0	1	4	4
57	1.79374	0.191565	0	0	2.36959e-035	0	1	4	4
58	1.98531	0.296054	0	0	2.36959e-035	0	1	4	4
55	2.28136	0.168345	0	0	2.36959e-035	0	1	4	4
55	2.44971	0.19737	0	0	2.36959e-035	0	1	4	4
55	2.64707	0.307664	0	0	2.36959e-035	0	1	4	4
55	3.10567	0.330884	0	0	2.36959e-035	0	1	4	4
55	3.43655	0.290249	0	0	2.36959e-035	0	1	4	4
61	3.88934	0.20898	0	0	2.36959e-035	0	1	4	4
59	4.23184	0.127709	0	0	2.36959e-035	0	1	4	4
57	4.48726	0.313469	0	0	2.36959e-035	0	1	4	4
59	4.96327	0.0696597	0	0	2.36959e-035	0	1	4	4
59	5.03293	0.0580497	0	0	2.36959e-035	0	1	4	4
59	5.09097	0.0754652	0	0	2.36959e-035	0	1	4	4
60	5.16644	1.31773	0	0	2.36959e-035	0	1	4	4
60	7.28526	0.3483	0	0	2.36959e-035	0	1	4	4
60	7.6858	0.179955	0	0	2.36959e-035	0	1	4	4
58	7.99347	0.522449	0	0	2.36959e-035	0	1	4	4
58	8.67846	0.19737	0	0	2.36959e-035	0	1	4	4
58	9.03837	0.19737	0	0	2.36959e-035	0	1	4	4
57	9.40408	0.603719	0	0	2.36959e-035	0	1	4	4
60	10.0078	0.679184	0	0	2.36959e-035	0	1	4	4
56	10.7741	0.952019	0	0	2.36959e-035	0	1	4	4
58	12.771	0.255419	0	0	2.36959e-035	0	1	4	4
56	13.1715	0.19737	0	0	2.36959e-035	0	1	4	4
54	13.3689	0.458594	0	0	2.36959e-035	0	1	4	4
53	13.8275	0.179955	0	0	2.36959e-035	0	1	4	4
54	14.1584	0.319274	0	0	2.36959e-035	0	1	4	4
56	14.5241	0.12771	0	0	2.36959e-035	0	1	4	4
58	14.8492	0.644353	0	0	2.36959e-035	0	1	4	4
60	15.5574	0.59211	0	0	2.36959e-035	0	1	4	4
60	16.2946	0.203175	0	0	2.36959e-035	0	1	4	4
60	16.4978	1.19583	0	0	2.36959e-035	0	1	4	4
60	18.3089	0.255421	0	0	2.36959e-035	0	1	4	4
60	18.6572	0.267031	0	0	2.36959e-035	0	1	4	4
58	18.9243	0.406349	0	0	2.36959e-035	0	1	4	4
60	19.3829	0.179955	0	0	2.36959e-035	0	1	4	4
64	19.737	0.325079	0	0	2.36959e-035	0	1	4	4
62	20.062	0.220591	0	0	2.36959e-035	0	1	4	4
60	20.4219	0.214785	0	0	2.36959e-035	0	1	4	4
58	20.7412	0.238005	0	0	2.36959e-035	0	1	4	4
55	20.9792	0.452789	0	0	2.36959e-035	0	1	4	4
52	21.461	0.214785	0	0	2.36959e-035	0	1	4	4
50	22.5292	0.499228	0	0	2.36959e-035	0	1	4	4
48	23.1793	0.336689	0	0	2.36959e-035	0	1	4	4
50	23.8875	0.325079	0	0	2.36959e-035	0	1	4	4
48	24.2126	0.168346	0	0	2.36959e-035	0	1	4	4
53	24.5435	0.220591	0	0	2.36959e-035	0	1	4	4
53	24.9324	0.0928783	0	0	2.36959e-035	0	1	4	4
53	25.2575	0.12771	0	0	2.36959e-035	0	1	4	4
53	25.3852	0.336689	0	0	2.36959e-035	0	1	4	4
58	25.9367	0.330883	0	0	2.36959e-035	0	1	4	4
57	26.2676	0.0754662	0	0	2.36959e-035	0	1	4	4
56	26.343	0.0406342	0	0	2.36959e-035	0	1	4	4
53	26.6043	0.0928783	0	0	2.36959e-035	0	1	4	4
54	26.6971	0.12771	0	0	2.36959e-035	0	1	4	4
55	26.9874	0.168344	0	0	2.36959e-035	0	1	4	4
57	27.3241	1.31193	0	0	2.36959e-035	0	1	4	4
56	29.4081	0.0232201	0	0	2.36959e-035	0	1	4	4
57	29.4371	0.243809	0	0	2.36959e-035	0	1	4	4
58	29.7332	0.232201	0	0	2.36959e-035	0	1	4	4
