midiPitch 	 onsetSec 	 durationSec 	 onsetBeats 	 onsetBarIndex 	 onsetBar 	 durationBeats 	 velocity  	 numerator 	 denominator 
61	0.0928798	0.13932	0	0	0	0	1	4	4
60	0.359909	0.145125	0	0	0	0	1	4	4
60	0.505034	0.13932	0	0	0	0	1	4	4
58	0.679184	0.13932	0	0	0	0	1	4	4
65	0.957823	0.261224	0	0	0	0	1	4	4
56	1.21905	0.03483	0	0	0	0	1	4	4
61	1.25388	0.214785	0	0	0	0	1	4	4
58	1.46866	0.238004	0	0	0	0	1	4	4
61	2.15365	0.0870748	0	0	0	0	1	4	4
61	2.24073	0.18576	0	0	0	0	1	4	4
61	2.53678	0.24381	0	0	0	0	1	4	4
58	3.03601	0.226394	0	0	0	0	1	4	4
67	3.50621	0.0232198	0	0	0	0	1	4	4
61	3.57007	0.145125	0	0	0	0	1	4	4
58	3.80807	0.226395	0	0	0	0	1	4	4
61	4.43501	0.168344	0	0	0	0	1	4	4
61	4.81814	0.255419	0	0	0	0	1	4	4
58	5.32898	0.261224	0	0	0	0	1	4	4
61	5.84562	0.12771	0	0	0	0	1	4	4
58	6.13587	0.121905	0	0	0	0	1	4	4
61	6.42032	0.0986848	0	0	0	0	1	4	4
61	6.85569	0.13932	0	0	0	0	1	4	4
61	7.24463	0.145125	0	0	0	0	1	4	4
62	7.38975	0.13932	0	0	0	0	1	4	4
60	7.68	0.0986848	0	0	0	0	1	4	4
60	7.97605	0.0580502	0	0	0	0	1	4	4
60	8.37079	0.121905	0	0	0	0	1	4	4
56	8.7307	0.168345	0	0	0	0	1	4	4
61	9.10222	0.0348291	0	0	0	0	1	4	4
61	9.14286	0.0928802	0	0	0	0	1	4	4
61	9.54921	0.12771	0	0	0	0	1	4	4
61	9.67692	0.0522451	0	0	0	0	1	4	4
58	9.85687	0.127709	0	0	0	0	1	4	4
58	11.134	0.0986843	0	0	0	0	1	4	4
59	11.2327	0.0406351	0	0	0	0	1	4	4
61	11.2791	0.127709	0	0	0	0	1	4	4
60	11.7203	0.20898	0	0	0	0	1	4	4
60	11.9293	0.162539	0	0	0	0	1	4	4
58	12.0918	0.145124	0	0	0	0	1	4	4
61	13.3979	0.0638542	0	0	0	0	1	4	4
61	13.4618	0.29025	0	0	0	0	1	4	4
61	13.7927	0.0696592	0	0	0	0	1	4	4
60	13.99	0.2322	0	0	0	0	1	4	4
60	14.2396	0.145124	0	0	0	0	1	4	4
58	14.3848	0.150929	0	0	0	0	1	4	4
57	15.2729	0.145125	0	0	0	0	1	4	4
60	15.865	0.116099	0	0	0	0	1	4	4
60	16.1321	0.110294	0	0	0	0	1	4	4
57	16.3004	0.1161	0	0	0	0	1	4	4
53	16.7184	0.133514	0	0	0	0	1	4	4
61	17.0144	0.0754642	0	0	0	0	1	4	4
61	17.2582	0.0986862	0	0	0	0	1	4	4
61	17.3569	0.0986843	0	0	0	0	1	4	4
60	17.5949	0.133514	0	0	0	0	1	4	4
61	18.187	0.179955	0	0	0	0	1	4	4
61	18.367	0.121904	0	0	0	0	1	4	4
60	18.5818	0.145124	0	0	0	0	1	4	4
60	18.8604	0.0986862	0	0	0	0	1	4	4
58	18.9591	0.150928	0	0	0	0	1	4	4
60	19.5222	0.0464401	0	0	0	0	1	4	4
61	19.7195	0.029026	0	0	0	0	1	4	4
61	19.8705	0.208981	0	0	0	0	1	4	4
60	20.3058	0.168346	0	0	0	0	1	4	4
61	20.5787	0.0348301	0	0	0	0	1	4	4
61	20.7586	0.214785	0	0	0	0	1	4	4
61	21.0547	0.17415	0	0	0	0	1	4	4
60	21.4959	0.17415	0	0	0	0	1	4	4
61	21.7223	0.0522442	0	0	0	0	1	4	4
61	21.8616	0.0638542	0	0	0	0	1	4	4
61	22.0241	0.0986862	0	0	0	0	1	4	4
61	22.146	0.0754662	0	0	0	0	1	4	4
61	22.2795	0.0580502	0	0	0	0	1	4	4
88465768	22.3376	0.0928783	0	0	0	0	1	4	4
58	22.4305	0.13932	0	0	0	0	1	4	4
61	22.7323	0.0696583	0	0	0	0	1	4	4
61	22.8542	0.0406342	0	0	0	0	1	4	4
61	23.0226	0.185759	0	0	0	0	1	4	4
61	23.307	0.174149	0	0	0	0	1	4	4
61	23.487	0.156734	0	0	0	0	1	4	4
61	24.1488	0.208981	0	0	0	0	1	4	4
60	24.4332	0.232199	0	0	0	0	1	4	4
58	24.8395	0.0522442	0	0	0	0	1	4	4
60	24.9905	0.145124	0	0	0	0	1	4	4
60	25.4317	0.301861	0	0	0	0	1	4	4
58	25.8728	0.0986862	0	0	0	0	1	4	4
58	25.9715	0.116098	0	0	0	0	1	4	4
60	26.1457	0.16254	0	0	0	0	1	4	4
58	27.0106	0.185759	0	0	0	0	1	4	4
61	27.3067	0.179955	0	0	0	0	1	4	4
58	27.6027	0.110294	0	0	0	0	1	4	4
58	27.8698	0.296053	0	0	0	0	1	4	4
