midiPitch 	 onsetSec 	 durationSec 	 onsetBeats 	 onsetBarIndex 	 onsetBar 	 durationBeats 	 velocity  	 numerator 	 denominator 
68	0.417959	0.0754648	0	0	0	0	1	4	4
67	0.551474	0.0696599	0	0	0	0	1	4	4
65	0.737234	0.539864	0	0	0	0	1	4	4
65	1.2771	0.20898	0	0	0	0	1	4	4
65	1.48608	0.0232199	0	0	0	0	1	4	4
62	1.92145	0.0870749	0	0	0	0	1	4	4
65	2.06658	0.145125	0	0	0	0	1	4	4
67	2.36263	0.0232198	0	0	0	0	1	4	4
67	2.39746	0.0464399	0	0	0	0	1	4	4
65	2.52517	0.0406349	0	0	0	0	1	4	4
65	2.59483	0.0696599	0	0	0	0	1	4	4
65	2.9141	0.08127	0	0	0	0	1	4	4
65	2.99537	0.0232198	0	0	0	0	1	4	4
65	3.01859	0.0348299	0	0	0	0	1	4	4
70	3.1463	0.0290248	0	0	0	0	1	4	4
69	3.17533	0.075465	0	0	0	0	1	4	4
72	3.35528	0.0348299	0	0	0	0	1	4	4
72	3.39011	0.0812697	0	0	0	0	1	4	4
72	3.47138	0.0522449	0	0	0	0	1	4	4
72	3.52363	0.08127	0	0	0	0	1	4	4
72	3.6049	0.0232198	0	0	0	0	1	4	4
72	3.62812	0.08127	0	0	0	0	1	4	4
70	3.77324	0.0696599	0	0	0	0	1	4	4
70	3.8429	0.0812697	0	0	0	0	1	4	4
70	3.92417	0.0232201	0	0	0	0	1	4	4
70	3.94739	0.0290248	0	0	0	0	1	4	4
70	3.97642	0.0348301	0	0	0	0	1	4	4
70	4.01125	0.0406346	0	0	0	0	1	4	4
70	4.05188	0.0290251	0	0	0	0	1	4	4
70	4.08091	0.0232201	0	0	0	0	1	4	4
70	4.10413	0.0348301	0	0	0	0	1	4	4
70	4.15637	0.110295	0	0	0	0	1	4	4
70	4.26667	0.0406351	0	0	0	0	1	4	4
70	4.3073	0.249615	0	0	0	0	1	4	4
70	4.55692	0.0348296	0	0	0	0	1	4	4
70	4.59175	0.0290251	0	0	0	0	1	4	4
70	4.62077	0.0232201	0	0	0	0	1	4	4
70	4.64399	0.452789	0	0	0	0	1	4	4
67	5.59601	0.238005	0	0	0	0	1	4	4
66	6.03719	0.168344	0	0	0	0	1	4	4
70	6.46676	0.307664	0	0	0	0	1	4	4
68	6.88472	0.0986848	0	0	0	0	1	4	4
67	6.9834	0.0580497	0	0	0	0	1	4	4
67	7.04145	0.0928798	0	0	0	0	1	4	4
64	7.27946	0.203175	0	0	0	0	1	4	4
62	7.77288	0.19737	0	0	0	0	1	4	4
65	8.18503	0.365714	0	0	0	0	1	4	4
63	9.10222	0.238004	0	0	0	0	1	4	4
67	9.49696	0.261224	0	0	0	0	1	4	4
65	9.92073	0.249614	0	0	0	0	1	4	4
63	10.3735	0.238005	0	0	0	0	1	4	4
62	10.7915	0.789479	0	0	0	0	1	4	4
62	11.9351	0.0696592	0	0	0	0	1	4	4
62	12.3182	0.156734	0	0	0	0	1	4	4
62	13.038	0.17415	0	0	0	0	1	4	4
65	13.4618	0.168345	0	0	0	0	1	4	4
67	13.8913	0.20898	0	0	0	0	1	4	4
69	14.3499	0.325079	0	0	0	0	1	4	4
69	14.855	0.0580492	0	0	0	0	1	4	4
69	14.913	0.12771	0	0	0	0	1	4	4
69	15.1394	0.452789	0	0	0	0	1	4	4
70	16.2366	0.255419	0	0	0	0	1	4	4
70	16.6835	0.232201	0	0	0	0	1	4	4
69	17.1421	0.249615	0	0	0	0	1	4	4
67	17.5659	0.255421	0	0	0	0	1	4	4
65	18.0593	0.290251	0	0	0	0	1	4	4
63	18.4947	0.243809	0	0	0	0	1	4	4
60	18.9301	0.307665	0	0	0	0	1	4	4
65	19.9111	0.0464401	0	0	0	0	1	4	4
64	20.1201	0.0232201	0	0	0	0	1	4	4
67	20.1607	0.365715	0	0	0	0	1	4	4
64	20.6367	0.0696602	0	0	0	0	1	4	4
70	21.1998	0.0580502	0	0	0	0	1	4	4
71	21.2579	0.0406361	0	0	0	0	1	4	4
70	21.2985	0.0638542	0	0	0	0	1	4	4
70	21.3972	0.214785	0	0	0	0	1	4	4
67	21.6526	0.029026	0	0	0	0	1	4	4
67	21.6874	0.203175	0	0	0	0	1	4	4
65	22.1112	0.104488	0	0	0	0	1	4	4
67	22.4015	0.0406342	0	0	0	0	1	4	4
65	22.5176	0.191565	0	0	0	0	1	4	4
64	23.3883	0.0580502	0	0	0	0	1	4	4
65	23.4463	0.0638561	0	0	0	0	1	4	4
68	23.6553	0.10449	0	0	0	0	1	4	4
65	23.8237	0.284445	0	0	0	0	1	4	4
67	24.1081	0.133514	0	0	0	0	1	4	4
65	24.2532	0.156734	0	0	0	0	1	4	4
65	24.4332	0.174149	0	0	0	0	1	4	4
70	24.7234	0.267031	0	0	0	0	1	4	4
69	25.1124	0.133514	0	0	0	0	1	4	4
69	25.2459	0.342495	0	0	0	0	1	4	4
69	25.6058	0.145124	0	0	0	0	1	4	4
69	25.7509	0.0638561	0	0	0	0	1	4	4
69	25.8148	0.0348282	0	0	0	0	1	4	4
69	25.8496	0.0870762	0	0	0	0	1	4	4
69	25.9367	0.0406342	0	0	0	0	1	4	4
69	25.9773	0.0754642	0	0	0	0	1	4	4
69	26.0528	0.0522461	0	0	0	0	1	4	4
69	26.105	0.179955	0	0	0	0	1	4	4
70	26.285	0.0522442	0	0	0	0	1	4	4
70	26.3372	0.0986862	0	0	0	0	1	4	4
63	26.7552	0.1161	0	0	0	0	1	4	4
66	27.179	0.296053	0	0	0	0	1	4	4
64	27.6259	0.0812702	0	0	0	0	1	4	4
64	27.7885	0.0870743	0	0	0	0	1	4	4
60	27.8756	0.197371	0	0	0	0	1	4	4
69	28.2239	0.284445	0	0	0	0	1	4	4
65	29.1585	0.290251	0	0	0	0	1	4	4
