midiPitch 	 onsetSec 	 durationSec 	 onsetBeats 	 onsetBarIndex 	 onsetBar 	 durationBeats 	 velocity  	 numerator 	 denominator 
68	0.22059	0.446984	0	0	0	0	1	4	4
65	0.766258	0.348299	0	0	0	0	1	4	4
70	1.25388	0.10449	0	0	0	0	1	4	4
67	1.36417	0.307664	0	0	0	0	1	4	4
63	1.93306	0.0986847	0	0	0	0	1	4	4
63	2.03175	0.214785	0	0	0	0	1	4	4
63	2.4381	0.255419	0	0	0	0	1	4	4
64	4.70204	0.0348301	0	0	0	0	1	4	4
64	4.82975	0.162539	0	0	0	0	1	4	4
65	4.99229	0.121905	0	0	0	0	1	4	4
72	5.4741	0.0928798	0	0	0	0	1	4	4
70	5.64245	0.0348301	0	0	0	0	1	4	4
72	5.68308	0.238004	0	0	0	0	1	4	4
70	5.92109	0.922993	0	0	0	0	1	4	4
63	12.4865	0.156734	0	0	0	0	1	4	4
63	12.6433	0.0870752	0	0	0	0	1	4	4
63	12.8	0.179955	0	0	0	0	1	4	4
62	12.98	0.127709	0	0	0	0	1	4	4
63	13.1077	0.0986853	0	0	0	0	1	4	4
63	15.1742	0.301859	0	0	0	0	1	4	4
61	15.627	0.127709	0	0	0	0	1	4	4
63	15.8476	0.226394	0	0	0	0	1	4	4
61	16.3062	0.208979	0	0	0	0	1	4	4
57	17.3627	0.348299	0	0	0	0	1	4	4
60	17.8561	0.208981	0	0	0	0	1	4	4
60	18.1638	0.15093	0	0	0	0	1	4	4
64	18.3612	0.127708	0	0	0	0	1	4	4
64	18.6863	0.272835	0	0	0	0	1	4	4
65	19.0288	0.911383	0	0	0	0	1	4	4
65	19.9401	1.36417	0	0	0	0	1	4	4
53	22.2389	0.597914	0	0	0	0	1	4	4
53	22.8368	0.296055	0	0	0	0	1	4	4
53	23.1329	0.0406342	0	0	0	0	1	4	4
53	23.1793	0.0580502	0	0	0	0	1	4	4
53	23.2374	0.203175	0	0	0	0	1	4	4
53	23.4405	0.487619	0	0	0	0	1	4	4
53	23.9282	0.0522442	0	0	0	0	1	4	4
53	24.0617	0.267029	0	0	0	0	1	4	4
53	24.3287	0.16254	0	0	0	0	1	4	4
53	24.4912	0.197369	0	0	0	0	1	4	4
65	24.5667	0.359909	0	0	0	0	1	4	4
65	24.9498	0.0696602	0	0	0	0	1	4	4
68	25.1066	0.0232201	0	0	0	0	1	4	4
69	25.1356	0.0290241	0	0	0	0	1	4	4
68	25.1704	0.203175	0	0	0	0	1	4	4
72	25.5129	0.18576	0	0	0	0	1	4	4
70	25.6987	0.0348301	0	0	0	0	1	4	4
69	25.78	0.0290241	0	0	0	0	1	4	4
70	25.8322	0.371519	0	0	0	0	1	4	4
70	26.2037	0.522449	0	0	0	0	1	4	4
68	26.8597	0.17415	0	0	0	0	1	4	4
