midiPitch 	 onsetSec 	 durationSec 	 onsetBeats 	 onsetBarIndex 	 onsetBar 	 durationBeats 	 velocity  	 numerator 	 denominator 
59	0.13932	0.02322	0	0	0	0	1	4	4
60	0.226395	0.02322	0	0	0	0	1	4	4
61	0.267029	0.226395	0	0	0	0	1	4	4
60	0.493424	0.0464399	0	0	0	0	1	4	4
60	0.539864	0.029025	0	0	0	0	1	4	4
60	0.586304	0.13932	0	0	0	0	1	4	4
60	0.725624	0.0638549	0	0	0	0	1	4	4
60	0.806893	0.0522449	0	0	0	0	1	4	4
59	1.23646	0.10449	0	0	0	0	1	4	4
59	1.34095	0.121905	0	0	0	0	1	4	4
61	1.5093	0.19737	0	0	0	0	1	4	4
62	3.00118	0.545669	0	0	0	0	1	4	4
63	3.721	0.15093	0	0	0	0	1	4	4
62	4.15637	0.0870752	0	0	0	0	1	4	4
62	4.24345	0.342494	0	0	0	0	1	4	4
62	5.74113	0.325079	0	0	0	0	1	4	4
62	6.06621	0.139319	0	0	0	0	1	4	4
63	6.20553	0.783674	0	0	0	0	1	4	4
59	6.98921	0.191565	0	0	0	0	1	4	4
57	7.18077	0.0928798	0	0	0	0	1	4	4
63	7.30848	0.150929	0	0	0	0	1	4	4
62	7.68	0.110295	0	0	0	0	1	4	4
61	7.93542	1.31773	0	0	0	0	1	4	4
59	9.25315	0.24381	0	0	0	0	1	4	4
59	9.49696	0.458593	0	0	0	0	1	4	4
69	11.8073	0.19737	0	0	0	0	1	4	4
70	12.115	0.441179	0	0	0	0	1	4	4
69	12.5562	1.31773	0	0	0	0	1	4	4
66	14.7679	0.191565	0	0	0	0	1	4	4
67	14.9595	0.905579	0	0	0	0	1	4	4
69	15.865	0.580498	0	0	0	0	1	4	4
67	16.7068	0.290251	0	0	0	0	1	4	4
68	16.997	0.174149	0	0	0	0	1	4	4
69	17.1712	0.969433	0	0	0	0	1	4	4
69	18.1406	0.0754662	0	0	0	0	1	4	4
67	18.2161	0.0812683	0	0	0	0	1	4	4
65	18.2973	0.53406	0	0	0	0	1	4	4
65	18.8314	0.12771	0	0	0	0	1	4	4
67	20.4916	0.179955	0	0	0	0	1	4	4
64	20.7238	0.16254	0	0	0	0	1	4	4
65	20.8863	0.1161	0	0	0	0	1	4	4
67	21.0024	0.296055	0	0	0	0	1	4	4
64	21.2985	1.19002	0	0	0	0	1	4	4
63	22.4885	0.226395	0	0	0	0	1	4	4
61	23.2722	0.0406342	0	0	0	0	1	4	4
67	23.3477	0.760454	0	0	0	0	1	4	4
0	24.1081	0.406349	0	0	0	0	1	4	4
64	24.5145	0.174149	0	0	0	0	1	4	4
62	24.6886	1.22485	0	0	0	0	1	4	4
63	25.9135	0.121904	0	0	0	0	1	4	4
64	26.3895	1.23066	0	0	0	0	1	4	4
65	29.1004	0.667572	0	0	0	0	1	4	4
