midiPitch 	 onsetSec 	 durationSec 	 onsetBeats 	 onsetBarIndex 	 onsetBar 	 durationBeats 	 velocity  	 numerator 	 denominator 
58	0.0580499	0.133515	0	0	0	0	1	4	4
55	0.20898	0.16254	0	0	0	0	1	4	4
57	0.417959	0.179955	0	0	0	0	1	4	4
56	0.696599	0.249614	0	0	0	0	1	4	4
59	1.14358	0.0870749	0	0	0	0	1	4	4
56	1.23066	0.0696598	0	0	0	0	1	4	4
56	1.30032	0.17415	0	0	0	0	1	4	4
56	1.83438	0.22059	0	0	0	0	1	4	4
57	2.54258	0.0464399	0	0	0	0	1	4	4
56	2.58902	0.145125	0	0	0	0	1	4	4
57	2.88508	0.0638547	0	0	0	0	1	4	4
56	2.94893	0.09288	0	0	0	0	1	4	4
57	3.08825	0.255419	0	0	0	0	1	4	4
56	3.44236	0.284444	0	0	0	0	1	4	4
58	3.7268	0.179955	0	0	0	0	1	4	4
57	3.94159	0.0406349	0	0	0	0	1	4	4
57	4.01125	0.0232201	0	0	0	0	1	4	4
58	4.28989	0.0522451	0	0	0	0	1	4	4
55	4.92844	0.0232201	0	0	0	0	1	4	4
56	4.95746	0.168344	0	0	0	0	1	4	4
56	5.47991	0.127709	0	0	0	0	1	4	4
56	5.63084	0.0870748	0	0	0	0	1	4	4
55	5.90367	0.0986848	0	0	0	0	1	4	4
56	6.50159	0.0290246	0	0	0	0	1	4	4
56	6.53642	0.0290251	0	0	0	0	1	4	4
55	6.60608	0.0928798	0	0	0	0	1	4	4
56	6.70476	0.17415	0	0	0	0	1	4	4
56	6.87891	0.13932	0	0	0	0	1	4	4
56	7.01823	0.156734	0	0	0	0	1	4	4
56	8.32435	0.156735	0	0	0	0	1	4	4
57	8.48109	0.0638542	0	0	0	0	1	4	4
58	8.841	0.139319	0	0	0	0	1	4	4
58	9.1893	0.394739	0	0	0	0	1	4	4
55	9.69433	0.150929	0	0	0	0	1	4	4
56	9.84526	0.400544	0	0	0	0	1	4	4
57	10.269	0.0812702	0	0	0	0	1	4	4
56	10.6173	0.156734	0	0	0	0	1	4	4
56	10.7741	0.0406351	0	0	0	0	1	4	4
56	10.8147	0.110295	0	0	0	0	1	4	4
54	12.3704	0.110294	0	0	0	0	1	4	4
53	12.7245	0.150929	0	0	0	0	1	4	4
53	12.8929	0.203175	0	0	0	0	1	4	4
53	13.0961	0.18576	0	0	0	0	1	4	4
50	13.2818	0.133515	0	0	0	0	1	4	4
51	13.4153	0.127709	0	0	0	0	1	4	4
56	13.9726	0.0522451	0	0	0	0	1	4	4
55	14.1293	0.0638552	0	0	0	0	1	4	4
56	14.5531	0.458594	0	0	0	0	1	4	4
56	15.0117	0.121904	0	0	0	0	1	4	4
59	15.4471	0.0638542	0	0	0	0	1	4	4
56	16.4107	0.110296	0	0	0	0	1	4	4
57	16.521	0.226395	0	0	0	0	1	4	4
57	16.9273	0.214785	0	0	0	0	1	4	4
57	17.3221	0.174149	0	0	0	0	1	4	4
57	17.6646	0.214785	0	0	0	0	1	4	4
61	17.9781	0.0290241	0	0	0	0	1	4	4
64	18.0883	0.0986843	0	0	0	0	1	4	4
59	18.187	0.0348301	0	0	0	0	1	4	4
57	19.586	0.029026	0	0	0	0	1	4	4
56	19.7312	0.179955	0	0	0	0	1	4	4
55	19.9227	0.156736	0	0	0	0	1	4	4
60	20.5322	0.121906	0	0	0	0	1	4	4
57	20.8457	0.121904	0	0	0	0	1	4	4
56	20.9676	0.255419	0	0	0	0	1	4	4
56	21.223	0.197371	0	0	0	0	1	4	4
56	21.5946	0.029026	0	0	0	0	1	4	4
56	23.5334	0.104488	0	0	0	0	1	4	4
58	23.6379	0.12771	0	0	0	0	1	4	4
58	24.381	0.121904	0	0	0	0	1	4	4
55	24.5551	0.0812702	0	0	0	0	1	4	4
57	24.6364	0.0812702	0	0	0	0	1	4	4
61	24.7873	0.116098	0	0	0	0	1	4	4
57	25.0137	0.17415	0	0	0	0	1	4	4
0	25.1878	0.220591	0	0	0	0	1	4	4
58	25.42	0.12771	0	0	0	0	1	4	4
58	26.1224	0.16254	0	0	0	0	1	4	4
59	26.4998	0.133514	0	0	0	0	1	4	4
58	26.8539	0.10449	0	0	0	0	1	4	4
57	27.028	0.336689	0	0	0	0	1	4	4
59	27.3647	0.17415	0	0	0	0	1	4	4
