midiPitch 	 onsetSec 	 durationSec 	 onsetBeats 	 onsetBarIndex 	 onsetBar 	 durationBeats 	 velocity  	 numerator 	 denominator 
77	0.325079	0.10449	0	0	3.79861e-035	0	1	4	4
76	0.429569	0.0290249	0	0	3.79861e-035	0	1	4	4
79	0.574694	0.0638549	0	0	3.79861e-035	0	1	4	4
79	0.638549	0.0928798	0	0	3.79861e-035	0	1	4	4
60	0.557279	0.191565	0	0	3.79861e-035	0	1	4	4
58	0.766258	0.0522449	0	0	3.79861e-035	0	1	4	4
61	1.17261	0.040635	0	0	3.79861e-035	0	1	4	4
60	1.30032	0.26703	0	0	3.79861e-035	0	1	4	4
61	1.64862	0.0464399	0	0	3.79861e-035	0	1	4	4
61	1.69506	0.0232199	0	0	3.79861e-035	0	1	4	4
60	1.75311	0.0696598	0	0	3.79861e-035	0	1	4	4
59	1.82277	0.0406349	0	0	3.79861e-035	0	1	4	4
60	1.99111	0.121905	0	0	3.79861e-035	0	1	4	4
60	2.26395	0.110295	0	0	3.79861e-035	0	1	4	4
61	2.62966	0.0290248	0	0	3.79861e-035	0	1	4	4
60	2.66449	0.133515	0	0	3.79861e-035	0	1	4	4
61	3.03601	0.0580499	0	0	3.79861e-035	0	1	4	4
61	3.09406	0.0290248	0	0	3.79861e-035	0	1	4	4
61	3.16952	0.110295	0	0	3.79861e-035	0	1	4	4
64	3.79646	0.0406349	0	0	3.79861e-035	0	1	4	4
62	3.86032	0.0348299	0	0	3.79861e-035	0	1	4	4
61	4.37116	0.0464401	0	0	3.79861e-035	0	1	4	4
60	4.89941	0.0928798	0	0	3.79861e-035	0	1	4	4
62	5.06195	0.0348296	0	0	3.79861e-035	0	1	4	4
60	5.14902	0.0870748	0	0	3.79861e-035	0	1	4	4
60	5.2361	0.0928798	0	0	3.79861e-035	0	1	4	4
63	5.47991	0.18576	0	0	3.79861e-035	0	1	4	4
62	5.66567	0.0522447	0	0	3.79861e-035	0	1	4	4
62	5.71791	0.24381	0	0	3.79861e-035	0	1	4	4
62	6.40871	0.0348301	0	0	3.79861e-035	0	1	4	4
63	6.5132	0.0986848	0	0	3.79861e-035	0	1	4	4
62	6.61188	0.110295	0	0	3.79861e-035	0	1	4	4
62	6.91374	0.127709	0	0	3.79861e-035	0	1	4	4
62	7.30848	0.0522447	0	0	3.79861e-035	0	1	4	4
55	7.50585	0.0348296	0	0	3.79861e-035	0	1	4	4
63	7.58712	0.0232201	0	0	3.79861e-035	0	1	4	4
60	7.61034	0.0580497	0	0	3.79861e-035	0	1	4	4
59	7.66839	0.0406351	0	0	3.79861e-035	0	1	4	4
60	7.72644	0.0348296	0	0	3.79861e-035	0	1	4	4
60	7.85995	0.0522451	0	0	3.79861e-035	0	1	4	4
59	7.97025	0.0580502	0	0	3.79861e-035	0	1	4	4
58	8.0283	0.0348301	0	0	3.79861e-035	0	1	4	4
62	8.83519	0.0696602	0	0	3.79861e-035	0	1	4	4
62	8.90485	0.0290241	0	0	3.79861e-035	0	1	4	4
62	8.97451	0.0406351	0	0	3.79861e-035	0	1	4	4
62	9.02095	0.0464401	0	0	3.79861e-035	0	1	4	4
62	9.09642	0.0406342	0	0	3.79861e-035	0	1	4	4
62	9.29959	0.0348291	0	0	3.79861e-035	0	1	4	4
62	9.35184	0.0232201	0	0	3.79861e-035	0	1	4	4
62	9.38086	0.0348301	0	0	3.79861e-035	0	1	4	4
62	9.57823	0.13932	0	0	3.79861e-035	0	1	4	4
60	9.7698	0.12771	0	0	3.79861e-035	0	1	4	4
60	9.89751	0.249614	0	0	3.79861e-035	0	1	4	4
60	10.1471	0.0290251	0	0	3.79861e-035	0	1	4	4
60	10.24	0.0406351	0	0	3.79861e-035	0	1	4	4
58	10.3677	0.0580502	0	0	3.79861e-035	0	1	4	4
58	10.4316	0.0464401	0	0	3.79861e-035	0	1	4	4
62	11.163	0.0290241	0	0	3.79861e-035	0	1	4	4
63	11.192	0.0232201	0	0	3.79861e-035	0	1	4	4
81	11.1746	0.0928802	0	0	3.79861e-035	0	1	4	4
81	11.3429	0.0290251	0	0	3.79861e-035	0	1	4	4
80	11.4126	0.0232201	0	0	3.79861e-035	0	1	4	4
81	11.4358	0.0580502	0	0	3.79861e-035	0	1	4	4
74	11.6854	0.116099	0	0	3.79861e-035	0	1	4	4
82	11.9351	0.0406351	0	0	3.79861e-035	0	1	4	4
80	12.0454	0.0232201	0	0	3.79861e-035	0	1	4	4
74	12.1615	0.0696592	0	0	3.79861e-035	0	1	4	4
77	12.2311	0.0232201	0	0	3.79861e-035	0	1	4	4
81	12.2601	0.0870752	0	0	3.79861e-035	0	1	4	4
81	12.3472	0.0406351	0	0	3.79861e-035	0	1	4	4
82	12.6955	0.0580502	0	0	3.79861e-035	0	1	4	4
82	12.7536	0.0754642	0	0	3.79861e-035	0	1	4	4
75	12.8871	0.179955	0	0	3.79861e-035	0	1	4	4
75	13.067	0.162539	0	0	3.79861e-035	0	1	4	4
83	13.4327	0.0754652	0	0	3.79861e-035	0	1	4	4
82	13.5663	0.0290251	0	0	3.79861e-035	0	1	4	4
78	14.408	0.0232201	0	0	3.79861e-035	0	1	4	4
84	14.4312	0.0928793	0	0	3.79861e-035	0	1	4	4
83	15.4703	0.0696592	0	0	3.79861e-035	0	1	4	4
81	17.7749	0.0290241	0	0	3.79861e-035	0	1	4	4
82	17.8097	0.0464382	0	0	3.79861e-035	0	1	4	4
79	17.9374	0.0232201	0	0	3.79861e-035	0	1	4	4
60	17.9316	0.0696602	0	0	3.79861e-035	0	1	4	4
61	18.1812	0.0928783	0	0	3.79861e-035	0	1	4	4
60	18.2973	0.0986862	0	0	3.79861e-035	0	1	4	4
60	18.9939	0.0464401	0	0	3.79861e-035	0	1	4	4
60	19.0404	0.0464382	0	0	3.79861e-035	0	1	4	4
60	19.3945	0.0464401	0	0	3.79861e-035	0	1	4	4
60	19.4409	0.133514	0	0	3.79861e-035	0	1	4	4
60	19.8182	0.238005	0	0	3.79861e-035	0	1	4	4
60	20.7296	0.406349	0	0	3.79861e-035	0	1	4	4
60	21.3043	0.121904	0	0	3.79861e-035	0	1	4	4
60	21.4262	0.18576	0	0	3.79861e-035	0	1	4	4
60	21.6352	0.110294	0	0	3.79861e-035	0	1	4	4
60	21.7745	0.191565	0	0	3.79861e-035	0	1	4	4
60	22.8775	0.162539	0	0	3.79861e-035	0	1	4	4
61	24.9731	0.0232201	0	0	3.79861e-035	0	1	4	4
60	25.0021	0.0290241	0	0	3.79861e-035	0	1	4	4
59	25.2517	0.0696602	0	0	3.79861e-035	0	1	4	4
60	25.42	0.0986862	0	0	3.79861e-035	0	1	4	4
62	26.4998	0.0522442	0	0	3.79861e-035	0	1	4	4
61	26.6217	0.249615	0	0	3.79861e-035	0	1	4	4
61	28.1658	0.0232201	0	0	3.79861e-035	0	1	4	4
62	28.2122	0.13932	0	0	3.79861e-035	0	1	4	4
62	28.4154	0.0406361	0	0	3.79861e-035	0	1	4	4
62	28.4677	0.0580482	0	0	3.79861e-035	0	1	4	4
61	28.5257	0.0232201	0	0	3.79861e-035	0	1	4	4
62	28.7405	0.0696602	0	0	3.79861e-035	0	1	4	4
61	28.8334	0.0232201	0	0	3.79861e-035	0	1	4	4
60	29.0482	0.261225	0	0	3.79861e-035	0	1	4	4
60	29.3442	0.0232201	0	0	3.79861e-035	0	1	4	4
