midiPitch 	 onsetSec 	 durationSec 	 onsetBeats 	 onsetBarIndex 	 onsetBar 	 durationBeats 	 velocity  	 numerator 	 denominator 
67	0.0406349	0.238005	0	0	0	0	1	4	4
68	0.278639	0.12771	0	0	0	0	1	4	4
68	0.429569	0.0348299	0	0	0	0	1	4	4
69	0.470204	0.0290249	0	0	0	0	1	4	4
68	0.499229	0.029025	0	0	0	0	1	4	4
67	0.534059	0.156735	0	0	0	0	1	4	4
62	0.690794	0.145125	0	0	0	0	1	4	4
66	0.859138	0.191565	0	0	0	0	1	4	4
65	1.0507	0.0406349	0	0	0	0	1	4	4
63	1.24807	0.10449	0	0	0	0	1	4	4
0	1.35256	0.10449	0	0	0	0	1	4	4
60	1.45705	0.0464399	0	0	0	0	1	4	4
60	1.6312	0.487619	0	0	0	0	1	4	4
62	2.42068	0.1161	0	0	0	0	1	4	4
65	2.71093	0.156735	0	0	0	0	1	4	4
65	2.86766	0.0348299	0	0	0	0	1	4	4
60	2.96054	0.22059	0	0	0	0	1	4	4
60	3.36689	0.12771	0	0	0	0	1	4	4
63	3.4946	0.156735	0	0	0	0	1	4	4
58	3.84871	0.15093	0	0	0	0	1	4	4
58	3.99964	0.0232201	0	0	0	0	1	4	4
58	4.24345	0.133514	0	0	0	0	1	4	4
59	4.37696	0.1161	0	0	0	0	1	4	4
55	4.74848	0.127709	0	0	0	0	1	4	4
58	5.19546	0.179955	0	0	0	0	1	4	4
55	5.64825	0.162539	0	0	0	0	1	4	4
57	6.10685	0.17415	0	0	0	0	1	4	4
60	6.42612	0.238005	0	0	0	0	1	4	4
60	6.66413	0.13932	0	0	0	0	1	4	4
61	6.80345	0.19737	0	0	0	0	1	4	4
65	7.12853	0.121905	0	0	0	0	1	4	4
62	7.25043	0.0290251	0	0	0	0	1	4	4
65	7.48263	0.2322	0	0	0	0	1	4	4
57	7.92381	0.12771	0	0	0	0	1	4	4
58	8.3766	0.0928802	0	0	0	0	1	4	4
59	8.46948	0.20898	0	0	0	0	1	4	4
59	8.67846	0.0522442	0	0	0	0	1	4	4
57	8.7307	0.0232201	0	0	0	0	1	4	4
60	8.87002	0.510839	0	0	0	0	1	4	4
58	9.5376	0.0290251	0	0	0	0	1	4	4
62	9.88009	0.104489	0	0	0	0	1	4	4
60	10.1936	0.0696602	0	0	0	0	1	4	4
62	10.4548	0.0580502	0	0	0	0	1	4	4
63	10.6638	0.0464401	0	0	0	0	1	4	4
62	10.8379	0.0348301	0	0	0	0	1	4	4
62	10.8902	0.0348301	0	0	0	0	1	4	4
62	10.9482	0.0290241	0	0	0	0	1	4	4
63	11.1688	0.0464392	0	0	0	0	1	4	4
65	11.2327	0.10449	0	0	0	0	1	4	4
62	11.9873	1.02168	0	0	0	0	1	4	4
61	13.0612	0.296055	0	0	0	0	1	4	4
62	13.3863	0.168344	0	0	0	0	1	4	4
60	13.5546	0.476009	0	0	0	0	1	4	4
58	14.0307	0.243809	0	0	0	0	1	4	4
58	14.2745	0.26703	0	0	0	0	1	4	4
59	14.6286	0.145124	0	0	0	0	1	4	4
58	15.3019	0.0696602	0	0	0	0	1	4	4
71	15.4529	0.0522442	0	0	0	0	1	4	4
83353960	15.5051	0.19737	0	0	0	0	1	4	4
60	15.7025	0.0870752	0	0	0	0	1	4	4
61	15.807	0.18576	0	0	0	0	1	4	4
62	15.9927	0.0580492	0	0	0	0	1	4	4
62	16.0508	0.029026	0	0	0	0	1	4	4
69	16.5616	0.156734	0	0	0	0	1	4	4
71	16.7184	0.0696602	0	0	0	0	1	4	4
57	17.0318	0.121906	0	0	0	0	1	4	4
58	17.1537	0.261225	0	0	0	0	1	4	4
60	17.4904	0.284445	0	0	0	0	1	4	4
62	17.7749	0.0928783	0	0	0	0	1	4	4
62	17.8678	0.0522461	0	0	0	0	1	4	4
62	17.9316	0.307665	0	0	0	0	1	4	4
62	18.2393	0.267029	0	0	0	0	1	4	4
62	18.5063	0.10449	0	0	0	0	1	4	4
58	18.6805	0.0812702	0	0	0	0	1	4	4
59	19.0404	0.0986843	0	0	0	0	1	4	4
59	19.1449	0.238005	0	0	0	0	1	4	4
60	19.3945	0.110294	0	0	0	0	1	4	4
54	20.1549	0.203175	0	0	0	0	1	4	4
54	20.4161	0.179955	0	0	0	0	1	4	4
55	20.5961	0.0870743	0	0	0	0	1	4	4
54	20.6832	0.110294	0	0	0	0	1	4	4
55	20.7935	0.0348301	0	0	0	0	1	4	4
64	20.8863	0.208981	0	0	0	0	1	4	4
62	21.0953	0.145124	0	0	0	0	1	4	4
62	21.2405	0.307663	0	0	0	0	1	4	4
60	21.5481	0.371521	0	0	0	0	1	4	4
64	21.9196	0.0522442	0	0	0	0	1	4	4
58	21.9719	0.0406342	0	0	0	0	1	4	4
57	22.0473	0.0580502	0	0	0	0	1	4	4
57	22.1054	0.0986843	0	0	0	0	1	4	4
58	22.2041	0.261225	0	0	0	0	1	4	4
58	22.4885	0.0986843	0	0	0	0	1	4	4
58	22.6162	0.261225	0	0	0	0	1	4	4
60	22.8891	0.150928	0	0	0	0	1	4	4
60	23.04	0.0696602	0	0	0	0	1	4	4
62	23.1097	0.220591	0	0	0	0	1	4	4
65	23.3709	0.417959	0	0	0	0	1	4	4
62	23.8527	0.191565	0	0	0	0	1	4	4
62	24.0443	0.371519	0	0	0	0	1	4	4
60	24.4158	0.16254	0	0	0	0	1	4	4
69	25.8844	0.290251	0	0	0	0	1	4	4
65	26.1747	0.545668	0	0	0	0	1	4	4
65	26.761	0.0986843	0	0	0	0	1	4	4
0	26.8597	0.17415	0	0	0	0	1	4	4
65	27.0338	0.0812683	0	0	0	0	1	4	4
60	27.1151	0.0928802	0	0	0	0	1	4	4
61	27.208	0.145124	0	0	0	0	1	4	4
60	27.3531	0.16254	0	0	0	0	1	4	4
61	27.5156	0.197369	0	0	0	0	1	4	4
62	27.713	0.197371	0	0	0	0	1	4	4
60	28.2239	0.330885	0	0	0	0	1	4	4
57	28.5547	0.220589	0	0	0	0	1	4	4
58	28.7753	0.319275	0	0	0	0	1	4	4
60	29.0946	0.16254	0	0	0	0	1	4	4
57	29.2571	0.0406342	0	0	0	0	1	4	4
