midiPitch 	 onsetSec 	 durationSec 	 onsetBeats 	 onsetBarIndex 	 onsetBar 	 durationBeats 	 velocity  	 numerator 	 denominator 
67	4.1854	0.0348301	0	0	0	0	1	4	4
69	4.22023	0.0232201	0	0	0	0	1	4	4
75	5.07936	0.0232201	0	0	0	0	1	4	4
78	12.1556	0.0232201	0	0	0	0	1	4	4
77	23.6785	0.0232201	0	0	0	0	1	4	4
77	23.9978	0.029026	0	0	0	0	1	4	4
74	24.2358	0.029026	0	0	0	0	1	4	4
77	26.8945	0.0290241	0	0	0	0	1	4	4
77	27.1267	0.029026	0	0	0	0	1	4	4
75	27.179	0.0232201	0	0	0	0	1	4	4
84	27.3125	0.0986843	0	0	0	0	1	4	4
78	27.5505	0.0232201	0	0	0	0	1	4	4
79	27.6376	0.0348301	0	0	0	0	1	4	4
69	27.7478	0.0232201	0	0	0	0	1	4	4
67	27.9858	0.029026	0	0	0	0	1	4	4
64	28.1078	0.0348301	0	0	0	0	1	4	4
73	28.3109	0.0348301	0	0	0	0	1	4	4
73	28.3458	0.029026	0	0	0	0	1	4	4
69	28.7115	0.0290241	0	0	0	0	1	4	4
63	29.2165	0.0232201	0	0	0	0	1	4	4
