midiPitch 	 onsetSec 	 durationSec 	 onsetBeats 	 onsetBarIndex 	 onsetBar 	 durationBeats 	 velocity  	 numerator 	 denominator 
81	4.16798	0.0232201	0	0	0	0	1	4	4
81	4.22603	0.0348296	0	0	0	0	1	4	4
71	6.33905	0.655964	0	0	0	0	1	4	4
71	6.99501	0.22059	0	0	0	0	1	4	4
71	7.2156	0.702404	0	0	0	0	1	4	4
71	7.918	1.00426	0	0	0	0	1	4	4
74	8.94549	0.29025	0	0	0	0	1	4	4
74	9.23574	0.168344	0	0	0	0	1	4	4
74	9.40408	0.522449	0	0	0	0	1	4	4
67	10.0252	0.336689	0	0	0	0	1	4	4
67	10.3619	0.214785	0	0	0	0	1	4	4
67	10.5767	0.13932	0	0	0	0	1	4	4
67	10.716	0.168344	0	0	0	0	1	4	4
67	10.9018	0.156734	0	0	0	0	1	4	4
67	11.0585	0.191565	0	0	0	0	1	4	4
67	11.2501	0.156734	0	0	0	0	1	4	4
67	11.4068	0.203175	0	0	0	0	1	4	4
67	11.61	0.0638552	0	0	0	0	1	4	4
67	11.6738	0.0928802	0	0	0	0	1	4	4
67	11.7667	0.0870743	0	0	0	0	1	4	4
71	12.115	0.249615	0	0	0	0	1	4	4
71	12.3646	0.162539	0	0	0	0	1	4	4
71	12.5678	0.133514	0	0	0	0	1	4	4
71	12.7013	0.179955	0	0	0	0	1	4	4
64	12.9741	0.522449	0	0	0	0	1	4	4
64	13.4966	0.27864	0	0	0	0	1	4	4
64	13.7752	0.0290251	0	0	0	0	1	4	4
76	14.3209	0.272835	0	0	0	0	1	4	4
76	14.5937	0.25542	0	0	0	0	1	4	4
74	14.8492	0.133514	0	0	0	0	1	4	4
74	14.9827	0.290249	0	0	0	0	1	4	4
72	15.3368	0.133515	0	0	0	0	1	4	4
72	15.4703	0.145124	0	0	0	0	1	4	4
72	15.6154	0.133514	0	0	0	0	1	4	4
72	15.7489	0.145124	0	0	0	0	1	4	4
67	16.1088	0.267031	0	0	0	0	1	4	4
71	16.4978	0.412153	0	0	0	0	1	4	4
71	16.9099	0.15093	0	0	0	0	1	4	4
71	17.0609	0.10449	0	0	0	0	1	4	4
70	17.1654	0.179955	0	0	0	0	1	4	4
71	17.3453	0.191565	0	0	0	0	1	4	4
71	17.5369	0.179955	0	0	0	0	1	4	4
71	17.7168	0.185759	0	0	0	0	1	4	4
71	17.9026	0.208981	0	0	0	0	1	4	4
71	18.1116	0.156734	0	0	0	0	1	4	4
71	18.2683	0.516644	0	0	0	0	1	4	4
69	18.8546	0.272835	0	0	0	0	1	4	4
69	19.1274	0.174149	0	0	0	0	1	4	4
69	19.3016	0.12771	0	0	0	0	1	4	4
69	20.1085	0.197369	0	0	0	0	1	4	4
72	20.3058	0.197371	0	0	0	0	1	4	4
72	20.5032	0.354105	0	0	0	0	1	4	4
72	20.8573	0.185759	0	0	0	0	1	4	4
72	21.0431	0.168344	0	0	0	0	1	4	4
72	21.2114	0.156734	0	0	0	0	1	4	4
72	21.432	0.377323	0	0	0	0	1	4	4
78111080	22.3318	0.371519	0	0	0	0	1	4	4
64	22.7033	0.203175	0	0	0	0	1	4	4
65	22.9065	0.1161	0	0	0	0	1	4	4
69	23.0574	0.121904	0	0	0	0	1	4	4
71	23.1793	0.359909	0	0	0	0	1	4	4
71	23.5392	0.18576	0	0	0	0	1	4	4
71	23.725	0.185759	0	0	0	0	1	4	4
71	23.9107	0.179955	0	0	0	0	1	4	4
74	24.0907	0.191565	0	0	0	0	1	4	4
74	24.2823	0.156734	0	0	0	0	1	4	4
74	24.439	0.156736	0	0	0	0	1	4	4
74	24.5957	0.162539	0	0	0	0	1	4	4
75	24.7583	0.168344	0	0	0	0	1	4	4
67	25.0717	0.203175	0	0	0	0	1	4	4
67	25.2749	0.121906	0	0	0	0	1	4	4
67	25.3968	0.162539	0	0	0	0	1	4	4
67	25.5768	0.150928	0	0	0	0	1	4	4
67	25.7277	0.13932	0	0	0	0	1	4	4
67	25.867	0.208979	0	0	0	0	1	4	4
71	26.1689	0.319275	0	0	0	0	1	4	4
70	26.4882	0.0232201	0	0	0	0	1	4	4
71	26.5172	0.15093	0	0	0	0	1	4	4
71	26.6681	0.145124	0	0	0	0	1	4	4
71	26.8132	0.342495	0	0	0	0	1	4	4
71	27.1557	0.0696602	0	0	0	0	1	4	4
71	27.2254	0.162539	0	0	0	0	1	4	4
71	27.3879	0.197371	0	0	0	0	1	4	4
71	27.5853	0.104488	0	0	0	0	1	4	4
71	27.6898	0.499229	0	0	0	0	1	4	4
69	28.189	0.278641	0	0	0	0	1	4	4
68	28.4677	0.255419	0	0	0	0	1	4	4
68	28.7231	0.0232201	0	0	0	0	1	4	4
