midiPitch 	 onsetSec 	 durationSec 	 onsetBeats 	 onsetBarIndex 	 onsetBar 	 durationBeats 	 velocity  	 numerator 	 denominator 
78	0.1161	0.0232199	0	0	0	0	1	4	4
78	0.16254	0.0464399	0	0	0	0	1	4	4
87	1.02748	0.156735	0	0	0	0	1	4	4
87	1.18422	0.10449	0	0	0	0	1	4	4
87	1.75891	0.121905	0	0	0	0	1	4	4
87	1.88082	0.0638548	0	0	0	0	1	4	4
86	5.42766	0.0870748	0	0	0	0	1	4	4
75	7.37234	0.168344	0	0	0	0	1	4	4
82	7.57551	0.110295	0	0	0	0	1	4	4
70	7.78449	0.0812697	0	0	0	0	1	4	4
82	7.87156	0.16254	0	0	0	0	1	4	4
82	8.0341	0.22059	0	0	0	0	1	4	4
82	8.25469	0.0754642	0	0	0	0	1	4	4
82	8.33016	0.0870752	0	0	0	0	1	4	4
82	8.41723	0.121904	0	0	0	0	1	4	4
82	8.53914	0.133515	0	0	0	0	1	4	4
82	8.67265	0.0348301	0	0	0	0	1	4	4
82	8.71909	0.121905	0	0	0	0	1	4	4
82	8.85261	0.168344	0	0	0	0	1	4	4
82	9.02095	0.150929	0	0	0	0	1	4	4
82	9.17188	0.179955	0	0	0	0	1	4	4
82	9.35184	0.0754652	0	0	0	0	1	4	4
82	9.4273	0.168344	0	0	0	0	1	4	4
82	9.59565	0.17415	0	0	0	0	1	4	4
82	9.7698	0.214785	0	0	0	0	1	4	4
87	11.8712	0.0696602	0	0	0	0	1	4	4
80	12.8116	0.197371	0	0	0	0	1	4	4
80	13.0786	0.0638552	0	0	0	0	1	4	4
80	13.8217	0.232199	0	0	0	0	1	4	4
80	14.0713	0.18576	0	0	0	0	1	4	4
80	14.2571	0.121905	0	0	0	0	1	4	4
80	14.379	0.139319	0	0	0	0	1	4	4
80	14.5763	0.0638552	0	0	0	0	1	4	4
80	14.6402	0.0928793	0	0	0	0	1	4	4
80	14.7853	0.0522451	0	0	0	0	1	4	4
80	15.0117	0.0406351	0	0	0	0	1	4	4
80	15.0523	0.121904	0	0	0	0	1	4	4
80	15.1742	0.0812702	0	0	0	0	1	4	4
80	15.2555	0.145124	0	0	0	0	1	4	4
80	15.4006	0.150929	0	0	0	0	1	4	4
80	15.6909	0.15093	0	0	0	0	1	4	4
80	15.8418	0.0696592	0	0	0	0	1	4	4
80	15.9115	0.214786	0	0	0	0	1	4	4
80	16.1437	0.13932	0	0	0	0	1	4	4
80	16.283	0.319275	0	0	0	0	1	4	4
80	16.6023	0.0986843	0	0	0	0	1	4	4
80	16.7358	0.0986843	0	0	0	0	1	4	4
80	16.8345	0.145124	0	0	0	0	1	4	4
80	16.9796	0.0638542	0	0	0	0	1	4	4
80	17.0551	0.18576	0	0	0	0	1	4	4
80	17.2408	0.133514	0	0	0	0	1	4	4
80	17.3743	0.13932	0	0	0	0	1	4	4
80	17.5137	0.0812702	0	0	0	0	1	4	4
80	17.5949	0.0870743	0	0	0	0	1	4	4
82	18.5353	0.156734	0	0	0	0	1	4	4
82	18.7966	0.12771	0	0	0	0	1	4	4
82	18.9243	0.156734	0	0	0	0	1	4	4
82	19.081	0.12771	0	0	0	0	1	4	4
82	19.2087	0.133514	0	0	0	0	1	4	4
82	19.3422	0.0406342	0	0	0	0	1	4	4
82	19.3887	0.0928783	0	0	0	0	1	4	4
82	19.4815	0.208981	0	0	0	0	1	4	4
82	19.8531	0.168344	0	0	0	0	1	4	4
82	20.0446	0.139318	0	0	0	0	1	4	4
82	20.1839	0.0406361	0	0	0	0	1	4	4
82	20.2246	0.0348301	0	0	0	0	1	4	4
82	20.2594	0.174149	0	0	0	0	1	4	4
82	20.4336	0.342495	0	0	0	0	1	4	4
75	21.5829	0.313471	0	0	0	0	1	4	4
82	21.8964	0.139318	0	0	0	0	1	4	4
82	22.059	0.243811	0	0	0	0	1	4	4
80	23.9514	0.226395	0	0	0	0	1	4	4
80	24.201	0.214785	0	0	0	0	1	4	4
80	24.4158	0.0696602	0	0	0	0	1	4	4
80	24.4854	0.0928802	0	0	0	0	1	4	4
80	24.5783	0.0870743	0	0	0	0	1	4	4
80	24.6654	0.0638561	0	0	0	0	1	4	4
80	24.7293	0.0870743	0	0	0	0	1	4	4
80	24.8163	0.0580502	0	0	0	0	1	4	4
80	24.8744	0.0522442	0	0	0	0	1	4	4
80	24.9266	0.145124	0	0	0	0	1	4	4
80	25.0717	0.10449	0	0	0	0	1	4	4
80	25.1762	0.12771	0	0	0	0	1	4	4
80	25.3039	0.139318	0	0	0	0	1	4	4
80	25.4433	0.203175	0	0	0	0	1	4	4
80	25.6464	0.0754662	0	0	0	0	1	4	4
80	25.7219	0.133514	0	0	0	0	1	4	4
80	25.9251	0.150928	0	0	0	0	1	4	4
80	26.076	0.029026	0	0	0	0	1	4	4
80	26.105	0.0696602	0	0	0	0	1	4	4
80	26.1747	0.0986843	0	0	0	0	1	4	4
80	26.3605	0.145124	0	0	0	0	1	4	4
80	26.5056	0.0696602	0	0	0	0	1	4	4
80	26.5985	0.156734	0	0	0	0	1	4	4
80	26.7552	0.0464401	0	0	0	0	1	4	4
80	26.8539	0.0928802	0	0	0	0	1	4	4
80	26.9468	0.12771	0	0	0	0	1	4	4
80	27.0745	0.0754642	0	0	0	0	1	4	4
80	27.1499	0.0696602	0	0	0	0	1	4	4
80	27.2196	0.133514	0	0	0	0	1	4	4
80	27.3531	0.16254	0	0	0	0	1	4	4
80	27.5156	0.197369	0	0	0	0	1	4	4
80	27.713	0.133516	0	0	0	0	1	4	4
80	27.8465	0.0638542	0	0	0	0	1	4	4
80	27.9104	0.121904	0	0	0	0	1	4	4
80	28.0323	0.13932	0	0	0	0	1	4	4
80	28.1716	0.0870743	0	0	0	0	1	4	4
80	28.2587	0.0986843	0	0	0	0	1	4	4
