midiPitch 	 onsetSec 	 durationSec 	 onsetBeats 	 onsetBarIndex 	 onsetBar 	 durationBeats 	 velocity  	 numerator 	 denominator 
55	0.272834	0.25542	0	0	0	0	1	4	4
54	0.528254	0.19737	0	0	0	0	1	4	4
54	0.725624	0.191565	0	0	0	0	1	4	4
54	0.917188	0.02322	0	0	0	0	1	4	4
54	0.952018	0.15093	0	0	0	0	1	4	4
55	3.08245	0.557279	0	0	0	0	1	4	4
55	3.63973	0.354104	0	0	0	0	1	4	4
54	4.33633	0.203175	0	0	0	0	1	4	4
55	6.21134	0.0986848	0	0	0	0	1	4	4
57	6.35066	0.12771	0	0	0	0	1	4	4
57	6.47837	0.388934	0	0	0	0	1	4	4
57	6.89633	0.476009	0	0	0	0	1	4	4
54	9.71175	0.104489	0	0	0	0	1	4	4
57	9.93234	0.0638542	0	0	0	0	1	4	4
57	9.93234	0.0696592	0	0	0	0	1	4	4
54	9.99039	0.01161	0	0	0	0	1	4	4
57	9.93234	0.0754642	0	0	0	0	1	4	4
54	9.99039	0.110295	0	0	0	0	1	4	4
57	10.1007	0.203175	0	0	0	0	1	4	4
57	10.3039	0.0406351	0	0	0	0	1	4	4
54	10.3445	0.0928793	0	0	0	0	1	4	4
57	10.4432	0.121904	0	0	0	0	1	4	4
55	10.6928	0.18576	0	0	0	0	1	4	4
55	10.9946	0.0696602	0	0	0	0	1	4	4
55	11.0643	0.0232201	0	0	0	0	1	4	4
55	11.3836	0.179955	0	0	0	0	1	4	4
54	12.8755	0.17415	0	0	0	0	1	4	4
55	13.0728	0.156734	0	0	0	0	1	4	4
55	13.2296	0.0580502	0	0	0	0	1	4	4
55	13.2876	0.133515	0	0	0	0	1	4	4
59	13.4037	0.0580492	0	0	0	0	1	4	4
55	13.456	0.0290251	0	0	0	0	1	4	4
55	13.6475	0.26703	0	0	0	0	1	4	4
54	13.9494	0.238005	0	0	0	0	1	4	4
54	14.2629	0.272835	0	0	0	0	1	4	4
57	16.5036	0.0928802	0	0	0	0	1	4	4
54	16.6719	0.0638561	0	0	0	0	1	4	4
54	16.7358	0.0928783	0	0	0	0	1	4	4
55	16.8287	0.121906	0	0	0	0	1	4	4
55	17.0434	0.0696602	0	0	0	0	1	4	4
55	17.1131	0.0232201	0	0	0	0	1	4	4
59	17.1131	0.0580502	0	0	0	0	1	4	4
54	17.2002	0.150928	0	0	0	0	1	4	4
57	17.7633	0.104488	0	0	0	0	1	4	4
55	17.9955	0.0986843	0	0	0	0	1	4	4
55	18.0941	0.145126	0	0	0	0	1	4	4
60	19.528	0.029026	0	0	0	0	1	4	4
60	19.5686	0.0522442	0	0	0	0	1	4	4
54	19.6209	0.0812702	0	0	0	0	1	4	4
58	19.7254	0.10449	0	0	0	0	1	4	4
57	19.9227	0.290251	0	0	0	0	1	4	4
56	20.4161	0.313469	0	0	0	0	1	4	4
62	20.8457	0.0870743	0	0	0	0	1	4	4
54	23.2896	0.1161	0	0	0	0	1	4	4
54	23.5218	0.104488	0	0	0	0	1	4	4
54	23.6263	0.243811	0	0	0	0	1	4	4
52	23.8701	0.655964	0	0	0	0	1	4	4
52	24.5667	0.249615	0	0	0	0	1	4	4
50	24.8454	0.319275	0	0	0	0	1	4	4
49	25.1646	0.0232201	0	0	0	0	1	4	4
49	25.1937	0.185759	0	0	0	0	1	4	4
51	25.3794	0.208981	0	0	0	0	1	4	4
55	26.6159	0.249613	0	0	0	0	1	4	4
55	27.028	0.667574	0	0	0	0	1	4	4
54	27.6956	0.348299	0	0	0	0	1	4	4
