midiPitch 	 onsetSec 	 durationSec 	 onsetBeats 	 onsetBarIndex 	 onsetBar 	 durationBeats 	 velocity  	 numerator 	 denominator 
55	1.20163	0.0870749	0	0	2.04994e-035	0	1	4	4
51	1.43383	0.121905	0	0	2.04994e-035	0	1	4	4
54	1.55574	0.446984	0	0	2.04994e-035	0	1	4	4
50	2.3278	0.359909	0	0	2.04994e-035	0	1	4	4
52	6.0546	0.354104	0	0	2.04994e-035	0	1	4	4
53	8.18503	0.354104	0	0	2.04994e-035	0	1	4	4
54	8.53914	1.01587	0	0	2.04994e-035	0	1	4	4
52	9.55501	0.0348301	0	0	2.04994e-035	0	1	4	4
52	9.59565	0.168344	0	0	2.04994e-035	0	1	4	4
50	9.76399	0.464399	0	0	2.04994e-035	0	1	4	4
46	10.4548	0.17415	0	0	2.04994e-035	0	1	4	4
51	10.6696	0.24381	0	0	2.04994e-035	0	1	4	4
49	10.9134	0.336689	0	0	2.04994e-035	0	1	4	4
52	15.1684	0.145124	0	0	2.04994e-035	0	1	4	4
46	16.9273	0.0986843	0	0	2.04994e-035	0	1	4	4
49	17.026	0.714014	0	0	2.04994e-035	0	1	4	4
47	17.8968	0.203175	0	0	2.04994e-035	0	1	4	4
45	18.1	0.243809	0	0	2.04994e-035	0	1	4	4
44	24.1197	0.0928783	0	0	2.04994e-035	0	1	4	4
47	24.2358	0.0986862	0	0	2.04994e-035	0	1	4	4
44	24.3345	0.168344	0	0	2.04994e-035	0	1	4	4
66	26.3314	0.10449	0	0	2.04994e-035	0	1	4	4
