midiPitch 	 onsetSec 	 durationSec 	 onsetBeats 	 onsetBarIndex 	 onsetBar 	 durationBeats 	 velocity  	 numerator 	 denominator 
86	0.0986848	0.02322	0	0	3.89295e-035	0	1	4	4
77	3.3727	0.0348301	0	0	3.89295e-035	0	1	4	4
77	3.41914	0.0232201	0	0	3.89295e-035	0	1	4	4
80	5.21288	0.0232201	0	0	3.89295e-035	0	1	4	4
78	5.25351	0.0348296	0	0	3.89295e-035	0	1	4	4
79	5.29415	0.0232201	0	0	3.89295e-035	0	1	4	4
79	5.37542	0.0290246	0	0	3.89295e-035	0	1	4	4
78	5.41605	0.0232201	0	0	3.89295e-035	0	1	4	4
78	5.43927	0.0290251	0	0	3.89295e-035	0	1	4	4
74	5.47991	0.10449	0	0	3.89295e-035	0	1	4	4
79	5.63664	0.0232201	0	0	3.89295e-035	0	1	4	4
78	5.69469	0.0232201	0	0	3.89295e-035	0	1	4	4
77	5.71791	0.0406351	0	0	3.89295e-035	0	1	4	4
77	6.43193	0.0232201	0	0	3.89295e-035	0	1	4	4
4294967295	6.54222	0.017415	0	0	3.89295e-035	0	1	4	4
67	6.54803	0.0348301	0	0	3.89295e-035	0	1	4	4
68	7.15175	0.0464401	0	0	3.89295e-035	0	1	4	4
67	7.2156	0.0812697	0	0	3.89295e-035	0	1	4	4
68	7.34331	0.133515	0	0	3.89295e-035	0	1	4	4
81	7.50585	0.0464396	0	0	3.89295e-035	0	1	4	4
78	7.94122	0.0290246	0	0	3.89295e-035	0	1	4	4
77	7.97025	0.0754652	0	0	3.89295e-035	0	1	4	4
77	8.05732	0.0232201	0	0	3.89295e-035	0	1	4	4
80	8.69587	0.0696592	0	0	3.89295e-035	0	1	4	4
79	8.76553	0.0232201	0	0	3.89295e-035	0	1	4	4
79	8.98032	0.0348301	0	0	3.89295e-035	0	1	4	4
68	9.03256	0.0348301	0	0	3.89295e-035	0	1	4	4
80	10.7624	0.0290251	0	0	3.89295e-035	0	1	4	4
79	11.1224	0.0232201	0	0	3.89295e-035	0	1	4	4
78	11.1746	0.0348301	0	0	3.89295e-035	0	1	4	4
81	11.2733	0.0696602	0	0	3.89295e-035	0	1	4	4
79	11.3778	0.0348301	0	0	3.89295e-035	0	1	4	4
80	11.4358	0.0348301	0	0	3.89295e-035	0	1	4	4
79	11.4765	0.0348301	0	0	3.89295e-035	0	1	4	4
68	12.0686	0.0290251	0	0	3.89295e-035	0	1	4	4
81	12.2776	0.0290251	0	0	3.89295e-035	0	1	4	4
82	12.4343	0.0232201	0	0	3.89295e-035	0	1	4	4
70	13.4618	0.0638552	0	0	3.89295e-035	0	1	4	4
80	13.5256	0.0290251	0	0	3.89295e-035	0	1	4	4
79	13.5663	0.0348301	0	0	3.89295e-035	0	1	4	4
80	14.2048	0.0754642	0	0	3.89295e-035	0	1	4	4
80	14.3557	0.0290251	0	0	3.89295e-035	0	1	4	4
80	14.6228	0.0232201	0	0	3.89295e-035	0	1	4	4
80	14.6634	0.0406351	0	0	3.89295e-035	0	1	4	4
80	14.8724	0.0754652	0	0	3.89295e-035	0	1	4	4
80	14.9478	0.0232201	0	0	3.89295e-035	0	1	4	4
80	14.9711	0.0406351	0	0	3.89295e-035	0	1	4	4
80	15.0117	0.0406351	0	0	3.89295e-035	0	1	4	4
81	15.0523	0.0928793	0	0	3.89295e-035	0	1	4	4
77	15.3194	0.156734	0	0	3.89295e-035	0	1	4	4
81	15.5458	0.0406351	0	0	3.89295e-035	0	1	4	4
81	15.6038	0.0348301	0	0	3.89295e-035	0	1	4	4
81	15.9231	0.0290251	0	0	3.89295e-035	0	1	4	4
81	16.045	0.0290241	0	0	3.89295e-035	0	1	4	4
80	16.1088	0.0232201	0	0	3.89295e-035	0	1	4	4
80	16.1843	0.0232182	0	0	3.89295e-035	0	1	4	4
81	16.2191	0.029026	0	0	3.89295e-035	0	1	4	4
80	16.3759	0.0406342	0	0	3.89295e-035	0	1	4	4
77	16.5384	0.0406361	0	0	3.89295e-035	0	1	4	4
80	17.2176	0.0232201	0	0	3.89295e-035	0	1	4	4
78	17.2524	0.0232201	0	0	3.89295e-035	0	1	4	4
81	17.3279	0.0348301	0	0	3.89295e-035	0	1	4	4
71	18.3263	0.0580502	0	0	3.89295e-035	0	1	4	4
80	18.4831	0.0232201	0	0	3.89295e-035	0	1	4	4
80	18.5121	0.0348301	0	0	3.89295e-035	0	1	4	4
80	18.5876	0.0232201	0	0	3.89295e-035	0	1	4	4
80	18.6398	0.0290241	0	0	3.89295e-035	0	1	4	4
82	18.7037	0.0232201	0	0	3.89295e-035	0	1	4	4
81	18.872	0.0406361	0	0	3.89295e-035	0	1	4	4
77	19.0171	0.0348301	0	0	3.89295e-035	0	1	4	4
70	19.5396	0.121906	0	0	3.89295e-035	0	1	4	4
78	19.7254	0.0232201	0	0	3.89295e-035	0	1	4	4
78	19.8182	0.0232201	0	0	3.89295e-035	0	1	4	4
76	19.8879	0.0232201	0	0	3.89295e-035	0	1	4	4
74	25.5071	0.0464401	0	0	3.89295e-035	0	1	4	4
75	25.5652	0.0290241	0	0	3.89295e-035	0	1	4	4
74	25.6929	0.029026	0	0	3.89295e-035	0	1	4	4
