midiPitch 	 onsetSec 	 durationSec 	 onsetBeats 	 onsetBarIndex 	 onsetBar 	 durationBeats 	 velocity  	 numerator 	 denominator 
47	1.73569	0.029025	0	0	0	0	1	4	4
50	1.78794	0.110295	0	0	0	0	1	4	4
52	1.89823	0.133515	0	0	0	0	1	4	4
52	2.07238	0.0464399	0	0	0	0	1	4	4
52	2.15365	0.22059	0	0	0	0	1	4	4
54	2.37424	0.214784	0	0	0	0	1	4	4
57	2.76898	0.0406349	0	0	0	0	1	4	4
57	3.03601	0.203175	0	0	0	0	1	4	4
58	3.23918	0.0232198	0	0	0	0	1	4	4
58	3.32045	0.296054	0	0	0	0	1	4	4
57	4.35374	0.249614	0	0	0	0	1	4	4
57	4.60336	0.18576	0	0	0	0	1	4	4
57	4.97487	0.336689	0	0	0	0	1	4	4
51	7.22721	0.133515	0	0	0	0	1	4	4
56	7.36073	0.330884	0	0	0	0	1	4	4
52	8.20245	0.30186	0	0	0	0	1	4	4
53	8.51592	0.39474	0	0	0	0	1	4	4
54	8.91066	0.220589	0	0	0	0	1	4	4
51	9.1893	0.0986853	0	0	0	0	1	4	4
52	9.28798	0.319274	0	0	0	0	1	4	4
53	9.75238	0.12771	0	0	0	0	1	4	4
54	9.88009	0.203175	0	0	0	0	1	4	4
52	10.0833	0.371519	0	0	0	0	1	4	4
53	10.4548	0.0928802	0	0	0	0	1	4	4
53	11.3952	0.330885	0	0	0	0	1	4	4
53	11.7261	0.290249	0	0	0	0	1	4	4
55	18.7907	0.238005	0	0	0	0	1	4	4
54	19.1216	0.238005	0	0	0	0	1	4	4
56	19.3596	0.313471	0	0	0	0	1	4	4
57	19.737	0.162539	0	0	0	0	1	4	4
53	20.0853	0.0986843	0	0	0	0	1	4	4
55	20.7296	0.632744	0	0	0	0	1	4	4
56	22.6859	0.0348301	0	0	0	0	1	4	4
57	22.7265	0.179955	0	0	0	0	1	4	4
56	23.3535	0.423763	0	0	0	0	1	4	4
56	23.7772	0.12771	0	0	0	0	1	4	4
56	23.934	0.342495	0	0	0	0	1	4	4
54	24.2997	0.272835	0	0	0	0	1	4	4
53	25.2749	0.476009	0	0	0	0	1	4	4
56	27.2486	0.261223	0	0	0	0	1	4	4
55	27.5098	0.179955	0	0	0	0	1	4	4
56	28.6592	0.249613	0	0	0	0	1	4	4
56	28.9088	0.272835	0	0	0	0	1	4	4
55	29.53	0.325081	0	0	0	0	1	4	4
