midiPitch 	 onsetSec 	 durationSec 	 onsetBeats 	 onsetBarIndex 	 onsetBar 	 durationBeats 	 velocity  	 numerator 	 denominator 
68	0.957823	0.0696599	0	0	1.86173e-035	0	1	4	4
67	1.02748	0.145125	0	0	1.86173e-035	0	1	4	4
71	1.26549	0.0290248	0	0	1.86173e-035	0	1	4	4
71	1.40481	0.18576	0	0	1.86173e-035	0	1	4	4
54	1.56154	0.133515	0	0	1.86173e-035	0	1	4	4
55	1.75311	0.19737	0	0	1.86173e-035	0	1	4	4
51	2.24073	0.203175	0	0	1.86173e-035	0	1	4	4
52	2.4439	0.145125	0	0	1.86173e-035	0	1	4	4
52	2.85025	0.16254	0	0	1.86173e-035	0	1	4	4
54	3.01279	0.2322	0	0	1.86173e-035	0	1	4	4
55	3.24499	0.10449	0	0	1.86173e-035	0	1	4	4
57	3.65714	0.203175	0	0	1.86173e-035	0	1	4	4
52	4.02866	0.121905	0	0	1.86173e-035	0	1	4	4
52	4.24925	0.232199	0	0	1.86173e-035	0	1	4	4
55	4.5337	0.133514	0	0	1.86173e-035	0	1	4	4
57	4.95166	0.0928798	0	0	1.86173e-035	0	1	4	4
51	5.31156	0.307664	0	0	1.86173e-035	0	1	4	4
52	5.61923	0.261225	0	0	1.86173e-035	0	1	4	4
54	7.2098	0.0232196	0	0	1.86173e-035	0	1	4	4
57	7.37234	0.0754647	0	0	1.86173e-035	0	1	4	4
60	7.5639	0.16254	0	0	1.86173e-035	0	1	4	4
60	7.95283	0.145124	0	0	1.86173e-035	0	1	4	4
60	8.12118	0.0870752	0	0	1.86173e-035	0	1	4	4
57	8.20825	0.597914	0	0	1.86173e-035	0	1	4	4
57	8.80617	0.0580502	0	0	1.86173e-035	0	1	4	4
57	8.86422	0.0232201	0	0	1.86173e-035	0	1	4	4
57	8.92807	0.226395	0	0	1.86173e-035	0	1	4	4
57	9.15447	0.32508	0	0	1.86173e-035	0	1	4	4
60	9.54921	0.238005	0	0	1.86173e-035	0	1	4	4
60	10.6638	0.226395	0	0	1.86173e-035	0	1	4	4
57	11.1049	0.278639	0	0	1.86173e-035	0	1	4	4
60	11.7667	0.0870743	0	0	1.86173e-035	0	1	4	4
62	11.8538	0.429569	0	0	1.86173e-035	0	1	4	4
57	12.6375	0.1161	0	0	1.86173e-035	0	1	4	4
60	13.4444	0.214785	0	0	1.86173e-035	0	1	4	4
60	14.0771	0.400544	0	0	1.86173e-035	0	1	4	4
57	14.4951	0.133515	0	0	1.86173e-035	0	1	4	4
57	14.855	0.243809	0	0	1.86173e-035	0	1	4	4
57	15.1859	0.191565	0	0	1.86173e-035	0	1	4	4
60	15.5806	0.261225	0	0	1.86173e-035	0	1	4	4
60	16.6603	0.15093	0	0	1.86173e-035	0	1	4	4
57	17.0841	0.197369	0	0	1.86173e-035	0	1	4	4
60	17.7807	0.0986843	0	0	1.86173e-035	0	1	4	4
62	17.8794	0.412155	0	0	1.86173e-035	0	1	4	4
60	20.062	0.319275	0	0	1.86173e-035	0	1	4	4
57	20.4394	0.214785	0	0	1.86173e-035	0	1	4	4
57	20.6542	0.0986843	0	0	1.86173e-035	0	1	4	4
57	20.8805	0.214785	0	0	1.86173e-035	0	1	4	4
77914472	21.1998	0.359909	0	0	1.86173e-035	0	1	4	4
60	21.5597	0.203175	0	0	1.86173e-035	0	1	4	4
60	22.6278	0.272835	0	0	1.86173e-035	0	1	4	4
57	23.0342	0.10449	0	0	1.86173e-035	0	1	4	4
57	23.1387	0.0986843	0	0	1.86173e-035	0	1	4	4
62	23.7482	0.226395	0	0	1.86173e-035	0	1	4	4
62	23.9746	0.261223	0	0	1.86173e-035	0	1	4	4
57	24.4854	0.203175	0	0	1.86173e-035	0	1	4	4
55	24.7699	0.429569	0	0	1.86173e-035	0	1	4	4
