midiPitch 	 onsetSec 	 durationSec 	 onsetBeats 	 onsetBarIndex 	 onsetBar 	 durationBeats 	 velocity  	 numerator 	 denominator 
61	0.110295	0.0348299	0	0	2.1345e-035	0	1	4	4
62	0.145125	0.0406349	0	0	2.1345e-035	0	1	4	4
62	0.18576	0.0522449	0	0	2.1345e-035	0	1	4	4
62	0.278639	0.0812699	0	0	2.1345e-035	0	1	4	4
63	0.359909	0.0406349	0	0	2.1345e-035	0	1	4	4
60	0.522449	0.121905	0	0	2.1345e-035	0	1	4	4
60	0.743039	0.278639	0	0	2.1345e-035	0	1	4	4
67	1.03329	0.156735	0	0	2.1345e-035	0	1	4	4
65	1.34095	0.0580498	0	0	2.1345e-035	0	1	4	4
64	1.399	0.290249	0	0	2.1345e-035	0	1	4	4
61	1.89243	0.0522449	0	0	2.1345e-035	0	1	4	4
65	2.16526	0.133515	0	0	2.1345e-035	0	1	4	4
56	2.40907	0.0406349	0	0	2.1345e-035	0	1	4	4
55	2.44971	0.0464399	0	0	2.1345e-035	0	1	4	4
57	3.51202	0.0232201	0	0	2.1345e-035	0	1	4	4
61	3.54685	0.0290248	0	0	2.1345e-035	0	1	4	4
61	3.57587	0.0290251	0	0	2.1345e-035	0	1	4	4
60	4.00544	0.0232201	0	0	2.1345e-035	0	1	4	4
60	4.0751	0.0232201	0	0	2.1345e-035	0	1	4	4
60	4.13315	0.0812697	0	0	2.1345e-035	0	1	4	4
60	4.21442	0.10449	0	0	2.1345e-035	0	1	4	4
60	4.4234	0.0232201	0	0	2.1345e-035	0	1	4	4
61	4.44662	0.0522447	0	0	2.1345e-035	0	1	4	4
60	4.49887	0.168344	0	0	2.1345e-035	0	1	4	4
60	4.66721	0.0406351	0	0	2.1345e-035	0	1	4	4
60	6.12426	0.296054	0	0	2.1345e-035	0	1	4	4
62	6.42032	0.25542	0	0	2.1345e-035	0	1	4	4
62	6.67574	0.0638547	0	0	2.1345e-035	0	1	4	4
64	6.73959	0.272835	0	0	2.1345e-035	0	1	4	4
59	8.66685	0.0696592	0	0	2.1345e-035	0	1	4	4
62	8.73651	0.249615	0	0	2.1345e-035	0	1	4	4
60	9.04998	0.388934	0	0	2.1345e-035	0	1	4	4
57	10.5767	0.168345	0	0	2.1345e-035	0	1	4	4
57	10.745	0.249614	0	0	2.1345e-035	0	1	4	4
57	11.0643	0.191565	0	0	2.1345e-035	0	1	4	4
57	11.4532	0.0754652	0	0	2.1345e-035	0	1	4	4
58	11.7957	0.0812702	0	0	2.1345e-035	0	1	4	4
57	11.877	0.0638552	0	0	2.1345e-035	0	1	4	4
60	11.9757	0.0232191	0	0	2.1345e-035	0	1	4	4
61	12.0279	0.0406351	0	0	2.1345e-035	0	1	4	4
60	12.0744	0.0522451	0	0	2.1345e-035	0	1	4	4
60	12.1266	0.0290251	0	0	2.1345e-035	0	1	4	4
63	13.9842	0.278639	0	0	2.1345e-035	0	1	4	4
64	14.2629	0.12771	0	0	2.1345e-035	0	1	4	4
67	14.4428	0.133514	0	0	2.1345e-035	0	1	4	4
60	14.7505	0.191565	0	0	2.1345e-035	0	1	4	4
61	14.942	0.1161	0	0	2.1345e-035	0	1	4	4
63	15.0581	0.191565	0	0	2.1345e-035	0	1	4	4
63	15.2497	0.0580492	0	0	2.1345e-035	0	1	4	4
64	15.4006	0.406349	0	0	2.1345e-035	0	1	4	4
65	16.1088	0.10449	0	0	2.1345e-035	0	1	4	4
62	16.4746	0.191565	0	0	2.1345e-035	0	1	4	4
57	18.605	0.0986843	0	0	2.1345e-035	0	1	4	4
57	19.0462	0.15093	0	0	2.1345e-035	0	1	4	4
60	19.5222	0.12771	0	0	2.1345e-035	0	1	4	4
67	20.0156	0.10449	0	0	2.1345e-035	0	1	4	4
66	20.1956	0.15093	0	0	2.1345e-035	0	1	4	4
63	20.7761	0.0696602	0	0	2.1345e-035	0	1	4	4
63	21.3682	0.0232201	0	0	2.1345e-035	0	1	4	4
65	21.9371	0.0464401	0	0	2.1345e-035	0	1	4	4
64	22.0415	0.0348301	0	0	2.1345e-035	0	1	4	4
64	22.117	0.156734	0	0	2.1345e-035	0	1	4	4
62	22.9471	0.208979	0	0	2.1345e-035	0	1	4	4
62	23.1735	0.145126	0	0	2.1345e-035	0	1	4	4
60	23.3535	0.0348282	0	0	2.1345e-035	0	1	4	4
60	23.3941	0.214785	0	0	2.1345e-035	0	1	4	4
65	26.8365	0.0986843	0	0	2.1345e-035	0	1	4	4
64	26.9584	0.0464401	0	0	2.1345e-035	0	1	4	4
64	27.0048	0.0928802	0	0	2.1345e-035	0	1	4	4
62	27.0977	0.12771	0	0	2.1345e-035	0	1	4	4
64	27.2254	0.0812683	0	0	2.1345e-035	0	1	4	4
64	27.3125	0.0522442	0	0	2.1345e-035	0	1	4	4
64	27.3647	0.0232201	0	0	2.1345e-035	0	1	4	4
64	27.3879	0.145124	0	0	2.1345e-035	0	1	4	4
62	27.7362	0.0580502	0	0	2.1345e-035	0	1	4	4
60	28.1252	0.0464401	0	0	2.1345e-035	0	1	4	4
60	28.2645	0.0232182	0	0	2.1345e-035	0	1	4	4
62	28.4386	0.156734	0	0	2.1345e-035	0	1	4	4
61	28.7463	0.0696602	0	0	2.1345e-035	0	1	4	4
60	28.874	0.0348282	0	0	2.1345e-035	0	1	4	4
69	29.3849	0.110296	0	0	2.1345e-035	0	1	4	4
69	29.4951	0.249613	0	0	2.1345e-035	0	1	4	4
