midiPitch 	 onsetSec 	 durationSec 	 onsetBeats 	 onsetBarIndex 	 onsetBar 	 durationBeats 	 velocity  	 numerator 	 denominator 
65	6.43773	0.0290251	0	0	2.87695e-035	0	1	4	4
81	10.1587	0.145125	0	0	2.87695e-035	0	1	4	4
81	10.3039	0.0232201	0	0	2.87695e-035	0	1	4	4
24437096	10.3329	0.203175	0	0	2.87695e-035	0	1	4	4
81	10.6057	0.110295	0	0	2.87695e-035	0	1	4	4
82	10.7276	0.116099	0	0	2.87695e-035	0	1	4	4
81	10.8437	0.18576	0	0	2.87695e-035	0	1	4	4
81	11.0295	0.110295	0	0	2.87695e-035	0	1	4	4
81	11.1398	0.0406342	0	0	2.87695e-035	0	1	4	4
81	11.1804	0.0522451	0	0	2.87695e-035	0	1	4	4
69	11.8596	0.0348301	0	0	2.87695e-035	0	1	4	4
79	11.9002	0.0348301	0	0	2.87695e-035	0	1	4	4
72	12.2543	0.0406351	0	0	2.87695e-035	0	1	4	4
70	12.3588	0.0348301	0	0	2.87695e-035	0	1	4	4
71	13.8449	0.0406351	0	0	2.87695e-035	0	1	4	4
80	14.0597	0.0348301	0	0	2.87695e-035	0	1	4	4
80	14.0945	0.0290251	0	0	2.87695e-035	0	1	4	4
84	16.4107	0.0754662	0	0	2.87695e-035	0	1	4	4
84	16.4862	0.0928802	0	0	2.87695e-035	0	1	4	4
85	16.8809	0.0464401	0	0	2.87695e-035	0	1	4	4
85	16.9273	0.179955	0	0	2.87695e-035	0	1	4	4
85	17.177	0.0580482	0	0	2.87695e-035	0	1	4	4
86	17.2931	0.0232201	0	0	2.87695e-035	0	1	4	4
71	19.2958	0.0290241	0	0	2.87695e-035	0	1	4	4
67	23.7134	0.0290241	0	0	2.87695e-035	0	1	4	4
70	23.7482	0.0232201	0	0	2.87695e-035	0	1	4	4
72	23.7772	0.0928802	0	0	2.87695e-035	0	1	4	4
69	23.8701	0.0928802	0	0	2.87695e-035	0	1	4	4
71	23.9746	0.0696583	0	0	2.87695e-035	0	1	4	4
68	24.0791	0.0812702	0	0	2.87695e-035	0	1	4	4
71	24.1604	0.121904	0	0	2.87695e-035	0	1	4	4
66	24.7351	0.179955	0	0	2.87695e-035	0	1	4	4
67	24.915	0.0522461	0	0	2.87695e-035	0	1	4	4
69	25.0717	0.12771	0	0	2.87695e-035	0	1	4	4
72	25.1995	0.0696602	0	0	2.87695e-035	0	1	4	4
68	25.2865	0.0232201	0	0	2.87695e-035	0	1	4	4
68	25.3156	0.0522442	0	0	2.87695e-035	0	1	4	4
71	25.3736	0.0232201	0	0	2.87695e-035	0	1	4	4
73	25.6813	0.0464401	0	0	2.87695e-035	0	1	4	4
60	25.8206	0.0754642	0	0	2.87695e-035	0	1	4	4
68	26.3082	0.0986843	0	0	2.87695e-035	0	1	4	4
67	26.5636	0.0232201	0	0	2.87695e-035	0	1	4	4
69	26.6449	0.0812702	0	0	2.87695e-035	0	1	4	4
66	26.761	0.0580502	0	0	2.87695e-035	0	1	4	4
70	27.5969	0.0696602	0	0	2.87695e-035	0	1	4	4
68	27.6666	0.0464382	0	0	2.87695e-035	0	1	4	4
70	27.7246	0.0464401	0	0	2.87695e-035	0	1	4	4
71	27.8407	0.0464401	0	0	2.87695e-035	0	1	4	4
68	27.8872	0.0754642	0	0	2.87695e-035	0	1	4	4
68	27.9858	0.0232201	0	0	2.87695e-035	0	1	4	4
71	28.0265	0.104488	0	0	2.87695e-035	0	1	4	4
73	28.16	0.174149	0	0	2.87695e-035	0	1	4	4
73	28.4328	0.0870743	0	0	2.87695e-035	0	1	4	4
72	28.5199	0.0464401	0	0	2.87695e-035	0	1	4	4
72	28.5663	0.0348301	0	0	2.87695e-035	0	1	4	4
72	28.6012	0.0638542	0	0	2.87695e-035	0	1	4	4
73	28.665	0.0348301	0	0	2.87695e-035	0	1	4	4
72	28.8624	0.0464382	0	0	2.87695e-035	0	1	4	4
73	28.9727	0.0348301	0	0	2.87695e-035	0	1	4	4
73	29.0133	0.0232201	0	0	2.87695e-035	0	1	4	4
71	29.1178	0.0580502	0	0	2.87695e-035	0	1	4	4
70	29.1759	0.0290241	0	0	2.87695e-035	0	1	4	4
72	29.2397	0.029026	0	0	2.87695e-035	0	1	4	4
