midiPitch 	 onsetSec 	 durationSec 	 onsetBeats 	 onsetBarIndex 	 onsetBar 	 durationBeats 	 velocity  	 numerator 	 denominator 
61	0.0522449	0.354104	0	0	3.47887e-035	0	1	4	4
59	0.621134	0.0986848	0	0	3.47887e-035	0	1	4	4
61	0.719819	0.133515	0	0	3.47887e-035	0	1	4	4
61	0.853333	0.446984	0	0	3.47887e-035	0	1	4	4
60	1.30032	0.17415	0	0	3.47887e-035	0	1	4	4
58	1.52671	0.290249	0	0	3.47887e-035	0	1	4	4
58	1.81696	0.301859	0	0	3.47887e-035	0	1	4	4
58	2.11882	0.505034	0	0	3.47887e-035	0	1	4	4
61	6.98921	0.156734	0	0	3.47887e-035	0	1	4	4
62	7.14594	0.510839	0	0	3.47887e-035	0	1	4	4
62	7.65678	0.534059	0	0	3.47887e-035	0	1	4	4
62	8.19084	0.238005	0	0	3.47887e-035	0	1	4	4
66	8.88744	0.284444	0	0	3.47887e-035	0	1	4	4
62	9.23574	0.249615	0	0	3.47887e-035	0	1	4	4
62	9.48535	0.156734	0	0	3.47887e-035	0	1	4	4
61	9.79882	0.470204	0	0	3.47887e-035	0	1	4	4
61	10.269	0.168344	0	0	3.47887e-035	0	1	4	4
61	11.0469	0.505034	0	0	3.47887e-035	0	1	4	4
61	11.5519	0.638549	0	0	3.47887e-035	0	1	4	4
60	12.3414	0.557279	0	0	3.47887e-035	0	1	4	4
58	13.009	0.394739	0	0	3.47887e-035	0	1	4	4
55	13.4037	0.150929	0	0	3.47887e-035	0	1	4	4
60	13.99	0.319274	0	0	3.47887e-035	0	1	4	4
58	14.4776	0.37152	0	0	3.47887e-035	0	1	4	4
58	14.8492	0.481813	0	0	3.47887e-035	0	1	4	4
55	15.331	0.0232201	0	0	3.47887e-035	0	1	4	4
62	17.7807	0.481813	0	0	3.47887e-035	0	1	4	4
62	18.3438	0.15093	0	0	3.47887e-035	0	1	4	4
62	18.4947	0.696598	0	0	3.47887e-035	0	1	4	4
61	20.2884	0.417959	0	0	3.47887e-035	0	1	4	4
61	20.8805	0.830112	0	0	3.47887e-035	0	1	4	4
58	21.8035	0.284445	0	0	3.47887e-035	0	1	4	4
58	22.088	0.319273	0	0	3.47887e-035	0	1	4	4
58	22.4073	0.412155	0	0	3.47887e-035	0	1	4	4
58	22.8194	0.0464401	0	0	3.47887e-035	0	1	4	4
