midiPitch 	 onsetSec 	 durationSec 	 onsetBeats 	 onsetBarIndex 	 onsetBar 	 durationBeats 	 velocity  	 numerator 	 denominator 
65	3.66875	0.0290251	0	0	0	0	1	4	4
67	4.64399	0.0406346	0	0	0	0	1	4	4
60	4.83556	0.0406346	0	0	0	0	1	4	4
66	4.882	0.0638552	0	0	0	0	1	4	4
63	5.05034	0.0290246	0	0	0	0	1	4	4
62	5.09678	0.133515	0	0	0	0	1	4	4
62	5.23029	0.24381	0	0	0	0	1	4	4
60	7.02404	0.0522451	0	0	0	0	1	4	4
61	7.07628	0.1161	0	0	0	0	1	4	4
67	7.23882	0.0986848	0	0	0	0	1	4	4
64	7.34912	0.0928798	0	0	0	0	1	4	4
67	7.442	0.13932	0	0	0	0	1	4	4
65	7.74385	0.0580502	0	0	0	0	1	4	4
62	8.4927	0.0870743	0	0	0	0	1	4	4
60	8.67846	0.162539	0	0	0	0	1	4	4
62	8.9629	0.0928802	0	0	0	0	1	4	4
63	12.3356	0.139319	0	0	0	0	1	4	4
60	12.591	0.0580492	0	0	0	0	1	4	4
60	12.6491	0.0986853	0	0	0	0	1	4	4
63	12.7826	0.0986843	0	0	0	0	1	4	4
63	12.8813	0.0522451	0	0	0	0	1	4	4
62	13.0496	0.0580502	0	0	0	0	1	4	4
64	14.8666	0.0928802	0	0	0	0	1	4	4
67	15.0639	0.296054	0	0	0	0	1	4	4
69	15.36	0.145124	0	0	0	0	1	4	4
62	15.5051	0.16254	0	0	0	0	1	4	4
57	16.0392	0.0928802	0	0	0	0	1	4	4
69	16.1321	0.0406361	0	0	0	0	1	4	4
62	16.3062	0.0696602	0	0	0	0	1	4	4
60	16.4804	0.0638561	0	0	0	0	1	4	4
60	16.5442	0.116098	0	0	0	0	1	4	4
62	16.7184	0.0754662	0	0	0	0	1	4	4
62	16.7938	0.0232182	0	0	0	0	1	4	4
61	16.9738	0.0754642	0	0	0	0	1	4	4
59	17.0493	0.0580502	0	0	0	0	1	4	4
55	18.7966	0.243811	0	0	0	0	1	4	4
57	19.0636	0.272835	0	0	0	0	1	4	4
