midiPitch 	 onsetSec 	 durationSec 	 onsetBeats 	 onsetBarIndex 	 onsetBar 	 durationBeats 	 velocity  	 numerator 	 denominator 
56	1.79374	0.0928798	0	0	0	0	1	4	4
55	1.88662	0.040635	0	0	0	0	1	4	4
56	1.92726	0.179955	0	0	0	0	1	4	4
60	2.10721	0.214785	0	0	0	0	1	4	4
60	2.38585	0.26703	0	0	0	0	1	4	4
69	2.77478	1.10875	0	0	0	0	1	4	4
67	3.88354	0.603719	0	0	0	0	1	4	4
67	4.48726	0.487619	0	0	0	0	1	4	4
67	4.97487	0.203175	0	0	0	0	1	4	4
88990056	6.56544	0.249615	0	0	0	0	1	4	4
63	6.81506	0.0986848	0	0	0	0	1	4	4
60	6.91374	0.650158	0	0	0	0	1	4	4
60	7.5639	0.191565	0	0	0	0	1	4	4
67	11.0875	0.452789	0	0	0	0	1	4	4
67	11.5403	0.278639	0	0	0	0	1	4	4
67	11.819	0.516644	0	0	0	0	1	4	4
67	12.3356	0.0928793	0	0	0	0	1	4	4
58	12.9277	0.0638552	0	0	0	0	1	4	4
66	12.9974	0.0290241	0	0	0	0	1	4	4
60	13.0264	0.1161	0	0	0	0	1	4	4
60	13.2586	0.0290251	0	0	0	0	1	4	4
65	13.2876	0.261225	0	0	0	0	1	4	4
64	13.7346	0.203175	0	0	0	0	1	4	4
64	14.0655	0.13932	0	0	0	0	1	4	4
64	14.2048	0.0870743	0	0	0	0	1	4	4
64	14.2919	0.0232201	0	0	0	0	1	4	4
64	14.3209	0.249615	0	0	0	0	1	4	4
64	14.7969	0.0928793	0	0	0	0	1	4	4
65	15.0117	0.110294	0	0	0	0	1	4	4
57	15.122	0.121905	0	0	0	0	1	4	4
57	15.2439	0.0290241	0	0	0	0	1	4	4
60	15.6677	0.139319	0	0	0	0	1	4	4
61	15.807	0.104489	0	0	0	0	1	4	4
60	15.9115	0.26703	0	0	0	0	1	4	4
67	18.9939	0.238005	0	0	0	0	1	4	4
60	19.2319	0.0928783	0	0	0	0	1	4	4
60	19.3248	0.0812702	0	0	0	0	1	4	4
67	20.0214	0.272833	0	0	0	0	1	4	4
67	20.2942	0.0522461	0	0	0	0	1	4	4
60	20.3465	0.226395	0	0	0	0	1	4	4
62	20.8283	0.0406361	0	0	0	0	1	4	4
64	20.8747	0.400545	0	0	0	0	1	4	4
64	21.2753	0.185759	0	0	0	0	1	4	4
64	21.5307	0.290249	0	0	0	0	1	4	4
64	21.821	0.029026	0	0	0	0	1	4	4
66	21.9603	0.0232201	0	0	0	0	1	4	4
67	22.059	0.15093	0	0	0	0	1	4	4
66	22.2273	0.301861	0	0	0	0	1	4	4
67	22.5292	0.162539	0	0	0	0	1	4	4
60	22.8484	0.446985	0	0	0	0	1	4	4
61	23.2954	0.0406342	0	0	0	0	1	4	4
60	23.8875	0.249615	0	0	0	0	1	4	4
60	24.1371	0.179955	0	0	0	0	1	4	4
65	26.4359	0.278639	0	0	0	0	1	4	4
64	26.7146	0.214785	0	0	0	0	1	4	4
64	26.9293	0.249615	0	0	0	0	1	4	4
64	27.9104	0.354105	0	0	0	0	1	4	4
62	28.6824	0.238003	0	0	0	0	1	4	4
64	28.9205	0.220591	0	0	0	0	1	4	4
64	29.141	0.243809	0	0	0	0	1	4	4
62	29.3849	0.452789	0	0	0	0	1	4	4
