midiPitch 	 onsetSec 	 durationSec 	 onsetBeats 	 onsetBarIndex 	 onsetBar 	 durationBeats 	 velocity  	 numerator 	 denominator 
87	5.17805	0.342494	0	0	1.97466e-035	0	1	4	4
75	6.1649	0.0870748	0	0	1.97466e-035	0	1	4	4
81	7.95864	0.0290251	0	0	1.97466e-035	0	1	4	4
80	7.99347	0.19737	0	0	1.97466e-035	0	1	4	4
81	8.19084	0.0232201	0	0	1.97466e-035	0	1	4	4
76	9.6537	0.110294	0	0	1.97466e-035	0	1	4	4
82	10.0717	0.365714	0	0	1.97466e-035	0	1	4	4
78	10.4374	0.162539	0	0	1.97466e-035	0	1	4	4
81	10.687	0.0812693	0	0	1.97466e-035	0	1	4	4
80	10.7683	0.203175	0	0	1.97466e-035	0	1	4	4
80	10.9714	0.0580502	0	0	1.97466e-035	0	1	4	4
86	18.6805	0.0464401	0	0	1.97466e-035	0	1	4	4
86	18.7269	0.0348301	0	0	1.97466e-035	0	1	4	4
81	18.7617	0.121904	0	0	1.97466e-035	0	1	4	4
81	19.1797	0.1161	0	0	1.97466e-035	0	1	4	4
81	19.2958	0.0348301	0	0	1.97466e-035	0	1	4	4
87	19.6383	0.383129	0	0	1.97466e-035	0	1	4	4
86	20.1549	0.121904	0	0	1.97466e-035	0	1	4	4
71	21.8151	0.0812702	0	0	1.97466e-035	0	1	4	4
76	22.1112	0.0348282	0	0	1.97466e-035	0	1	4	4
76	22.1518	0.0812702	0	0	1.97466e-035	0	1	4	4
87	22.2505	0.0696602	0	0	1.97466e-035	0	1	4	4
79	22.3202	0.0986843	0	0	1.97466e-035	0	1	4	4
86	22.4363	0.133514	0	0	1.97466e-035	0	1	4	4
79	22.5698	0.0754642	0	0	1.97466e-035	0	1	4	4
67	22.5756	0.168346	0	0	1.97466e-035	0	1	4	4
63	22.7556	0.133516	0	0	1.97466e-035	0	1	4	4
61	23.278	0.272835	0	0	1.97466e-035	0	1	4	4
66	23.6379	0.110296	0	0	1.97466e-035	0	1	4	4
62	25.7567	0.0348301	0	0	1.97466e-035	0	1	4	4
