midiPitch 	 onsetSec 	 durationSec 	 onsetBeats 	 onsetBarIndex 	 onsetBar 	 durationBeats 	 velocity  	 numerator 	 denominator 
64	3.96481	0.0406349	0	0	0	0	1	4	4
67	4.01125	0.2322	0	0	0	0	1	4	4
66	4.33052	0.388934	0	0	0	0	1	4	4
70	4.85297	0.20898	0	0	0	0	1	4	4
68	5.17225	0.10449	0	0	0	0	1	4	4
66	5.27673	0.232199	0	0	0	0	1	4	4
66	5.66567	0.0986848	0	0	0	0	1	4	4
66	5.90367	0.0580502	0	0	0	0	1	4	4
67	6.11846	0.12771	0	0	0	0	1	4	4
64	6.36227	0.203175	0	0	0	0	1	4	4
62	6.56544	0.2322	0	0	0	0	1	4	4
64	6.79764	0.10449	0	0	0	0	1	4	4
62	6.93696	0.0870748	0	0	0	0	1	4	4
63	7.02404	0.17415	0	0	0	0	1	4	4
62	7.5639	0.16254	0	0	0	0	1	4	4
62	7.72644	0.145124	0	0	0	0	1	4	4
61	7.99927	0.203175	0	0	0	0	1	4	4
54	8.20245	0.435374	0	0	0	0	1	4	4
56	8.7307	0.133515	0	0	0	0	1	4	4
55	8.88744	0.18576	0	0	0	0	1	4	4
58	9.23574	0.0812702	0	0	0	0	1	4	4
61	9.47374	0.18576	0	0	0	0	1	4	4
61	9.6595	0.121904	0	0	0	0	1	4	4
63	9.96716	0.0406351	0	0	0	0	1	4	4
62	10.0136	0.145124	0	0	0	0	1	4	4
54	10.1994	0.3483	0	0	0	0	1	4	4
55	10.6405	0.191565	0	0	0	0	1	4	4
55	11.2443	0.145124	0	0	0	0	1	4	4
55	11.3894	0.10449	0	0	0	0	1	4	4
55	11.4939	0.0696602	0	0	0	0	1	4	4
55	11.5635	0.0348291	0	0	0	0	1	4	4
57	11.6274	0.0232201	0	0	0	0	1	4	4
64	11.877	0.0928802	0	0	0	0	1	4	4
62	11.9699	0.133514	0	0	0	0	1	4	4
55	12.1382	0.336689	0	0	0	0	1	4	4
56	12.5794	0.145124	0	0	0	0	1	4	4
57	12.7536	0.22059	0	0	0	0	1	4	4
58	13.067	0.0870752	0	0	0	0	1	4	4
61	13.3457	0.0986843	0	0	0	0	1	4	4
64	13.8043	0.179955	0	0	0	0	1	4	4
54	14.0016	0.319274	0	0	0	0	1	4	4
56	14.4893	0.191565	0	0	0	0	1	4	4
57	14.7156	0.17415	0	0	0	0	1	4	4
54	14.9943	0.191565	0	0	0	0	1	4	4
55	15.2091	0.348299	0	0	0	0	1	4	4
58	19.1507	0.0928802	0	0	0	0	1	4	4
67	19.4177	0.133514	0	0	0	0	1	4	4
66	19.6093	0.290249	0	0	0	0	1	4	4
66	19.8995	0.168346	0	0	0	0	1	4	4
68	20.1781	0.0986843	0	0	0	0	1	4	4
68	20.3291	0.319275	0	0	0	0	1	4	4
66	20.689	0.203175	0	0	0	0	1	4	4
66	20.8922	0.365713	0	0	0	0	1	4	4
68	21.3972	0.0870743	0	0	0	0	1	4	4
66	21.4843	0.0638542	0	0	0	0	1	4	4
66	21.6236	0.197369	0	0	0	0	1	4	4
65	22.1286	0.145124	0	0	0	0	1	4	4
28828008	22.2737	0.220591	0	0	0	0	1	4	4
62	22.6162	0.400543	0	0	0	0	1	4	4
60	23.0168	0.0638561	0	0	0	0	1	4	4
61	23.0806	0.162539	0	0	0	0	1	4	4
64	23.3186	0.203175	0	0	0	0	1	4	4
55	23.5624	0.336689	0	0	0	0	1	4	4
55	23.8991	0.0638561	0	0	0	0	1	4	4
56	24.0268	0.12771	0	0	0	0	1	4	4
56	24.1778	0.203175	0	0	0	0	1	4	4
62	24.7641	0.179955	0	0	0	0	1	4	4
64	25.2517	0.0754662	0	0	0	0	1	4	4
61	25.3272	0.110294	0	0	0	0	1	4	4
54	25.5129	0.342495	0	0	0	0	1	4	4
57	25.9657	0.13932	0	0	0	0	1	4	4
54	26.4417	0.476009	0	0	0	0	1	4	4
60	26.9351	0.0638561	0	0	0	0	1	4	4
62	27.2312	0.133514	0	0	0	0	1	4	4
62	27.3647	0.0696602	0	0	0	0	1	4	4
55	27.4402	0.359909	0	0	0	0	1	4	4
56	27.8001	0.232199	0	0	0	0	1	4	4
57	28.1368	0.0986843	0	0	0	0	1	4	4
55	28.2355	0.0348301	0	0	0	0	1	4	4
61	28.6244	0.179955	0	0	0	0	1	4	4
61	28.8044	0.110294	0	0	0	0	1	4	4
64	29.0946	0.0580502	0	0	0	0	1	4	4
