midiPitch 	 onsetSec 	 durationSec 	 onsetBeats 	 onsetBarIndex 	 onsetBar 	 durationBeats 	 velocity  	 numerator 	 denominator 
76	0.0464399	0.12771	0	0	3.94907e-035	0	1	4	4
78	0.17415	0.383129	0	0	3.94907e-035	0	1	4	4
72	0.557279	0.307664	0	0	3.94907e-035	0	1	4	4
71	0.864943	0.296054	0	0	3.94907e-035	0	1	4	4
74	1.30032	0.290249	0	0	3.94907e-035	0	1	4	4
71	1.82277	0.783673	0	0	3.94907e-035	0	1	4	4
73	3.90095	0.441179	0	0	3.94907e-035	0	1	4	4
55	3.88354	0.870749	0	0	3.94907e-035	0	1	4	4
55	4.99229	0.597914	0	0	3.94907e-035	0	1	4	4
57	6.11846	0.191565	0	0	3.94907e-035	0	1	4	4
56	6.31002	0.922993	0	0	3.94907e-035	0	1	4	4
52	9.4215	0.0870752	0	0	3.94907e-035	0	1	4	4
67	9.59565	0.0290251	0	0	3.94907e-035	0	1	4	4
55	9.75819	0.110295	0	0	3.94907e-035	0	1	4	4
57	10.0833	0.145124	0	0	3.94907e-035	0	1	4	4
55	10.2284	0.621134	0	0	3.94907e-035	0	1	4	4
57	11.4184	0.29025	0	0	3.94907e-035	0	1	4	4
58	11.9293	0.0928793	0	0	3.94907e-035	0	1	4	4
59	12.0221	0.319275	0	0	3.94907e-035	0	1	4	4
59	12.533	0.22059	0	0	3.94907e-035	0	1	4	4
59	12.9683	0.690793	0	0	3.94907e-035	0	1	4	4
51	13.7462	0.899774	0	0	3.94907e-035	0	1	4	4
55	15.8012	0.632743	0	0	3.94907e-035	0	1	4	4
56	16.7764	0.319275	0	0	3.94907e-035	0	1	4	4
55	17.1828	0.383129	0	0	3.94907e-035	0	1	4	4
56	18.3786	1.22485	0	0	3.94907e-035	0	1	4	4
55	19.6383	1.45705	0	0	3.94907e-035	0	1	4	4
80	27.3589	1.21905	0	0	3.94907e-035	0	1	4	4
80	28.578	0.261225	0	0	3.94907e-035	0	1	4	4
