midiPitch 	 onsetSec 	 durationSec 	 onsetBeats 	 onsetBarIndex 	 onsetBar 	 durationBeats 	 velocity  	 numerator 	 denominator 
69	0.975238	0.278639	0	0	3.12156e-035	0	1	4	4
69	1.25388	0.870748	0	0	3.12156e-035	0	1	4	4
66	2.22912	0.168345	0	0	3.12156e-035	0	1	4	4
65	2.39746	0.133515	0	0	3.12156e-035	0	1	4	4
65	2.65868	0.18576	0	0	3.12156e-035	0	1	4	4
67	2.84444	0.359909	0	0	3.12156e-035	0	1	4	4
67	4.58594	0.0928798	0	0	3.12156e-035	0	1	4	4
66	4.67882	0.121905	0	0	3.12156e-035	0	1	4	4
65	4.80073	0.22059	0	0	3.12156e-035	0	1	4	4
67	5.05034	0.0870748	0	0	3.12156e-035	0	1	4	4
66	5.13741	0.534059	0	0	3.12156e-035	0	1	4	4
67	5.75274	0.359909	0	0	3.12156e-035	0	1	4	4
67	6.11265	0.179955	0	0	3.12156e-035	0	1	4	4
69	6.519	0.179955	0	0	3.12156e-035	0	1	4	4
73	6.70476	0.690794	0	0	3.12156e-035	0	1	4	4
72	7.47102	0.272834	0	0	3.12156e-035	0	1	4	4
70	9.62467	0.22059	0	0	3.12156e-035	0	1	4	4
74	9.89751	0.24381	0	0	3.12156e-035	0	1	4	4
74	10.1413	0.220589	0	0	3.12156e-035	0	1	4	4
70	10.3619	0.29025	0	0	3.12156e-035	0	1	4	4
73	13.2586	0.0754652	0	0	3.12156e-035	0	1	4	4
61	13.2934	0.133514	0	0	3.12156e-035	0	1	4	4
60	13.5895	0.162539	0	0	3.12156e-035	0	1	4	4
57	14.0016	0.2322	0	0	3.12156e-035	0	1	4	4
60	15.1104	0.261225	0	0	3.12156e-035	0	1	4	4
65	15.6328	0.278639	0	0	3.12156e-035	0	1	4	4
69	15.9463	0.0928793	0	0	3.12156e-035	0	1	4	4
61	16.0508	0.197371	0	0	3.12156e-035	0	1	4	4
62	16.2482	0.249615	0	0	3.12156e-035	0	1	4	4
67	20.3697	1.25968	0	0	3.12156e-035	0	1	4	4
67	21.6294	0.18576	0	0	3.12156e-035	0	1	4	4
67	21.8151	0.371519	0	0	3.12156e-035	0	1	4	4
69	22.355	0.16254	0	0	3.12156e-035	0	1	4	4
65	22.6627	0.145124	0	0	3.12156e-035	0	1	4	4
67	22.8078	0.301859	0	0	3.12156e-035	0	1	4	4
69	24.0268	1.14358	0	0	3.12156e-035	0	1	4	4
66	25.1704	0.208979	0	0	3.12156e-035	0	1	4	4
65	25.3794	0.249615	0	0	3.12156e-035	0	1	4	4
64	25.629	0.214785	0	0	3.12156e-035	0	1	4	4
67	25.8438	0.255419	0	0	3.12156e-035	0	1	4	4
0	26.0992	0.156734	0	0	3.12156e-035	0	1	4	4
66	26.256	0.249615	0	0	3.12156e-035	0	1	4	4
66	27.5853	0.261225	0	0	3.12156e-035	0	1	4	4
67	28.0787	0.249615	0	0	3.12156e-035	0	1	4	4
67	28.4502	0.249615	0	0	3.12156e-035	0	1	4	4
67	28.8392	0.249615	0	0	3.12156e-035	0	1	4	4
