midiPitch 	 onsetSec 	 durationSec 	 onsetBeats 	 onsetBarIndex 	 onsetBar 	 durationBeats 	 velocity  	 numerator 	 denominator 
58	0.278639	0.168345	0	0	0	0	1	4	4
54	0.481814	0.0290249	0	0	0	0	1	4	4
57	0.661769	0.12771	0	0	0	0	1	4	4
60	0.812698	0.365714	0	0	0	0	1	4	4
59	1.64862	0.359909	0	0	0	0	1	4	4
62	2.11302	0.179955	0	0	0	0	1	4	4
60	2.29297	0.15093	0	0	0	0	1	4	4
59	2.4439	0.301859	0	0	0	0	1	4	4
59	2.74576	0.307664	0	0	0	0	1	4	4
56	3.17533	0.226395	0	0	0	0	1	4	4
57	3.40172	0.121905	0	0	0	0	1	4	4
60	8.17342	0.20898	0	0	0	0	1	4	4
62	8.3824	0.139319	0	0	0	0	1	4	4
60	8.52172	0.238005	0	0	0	0	1	4	4
60	8.80617	0.2322	0	0	0	0	1	4	4
63	9.03837	0.354104	0	0	0	0	1	4	4
60	9.39247	0.33669	0	0	0	0	1	4	4
59	9.82785	0.284445	0	0	0	0	1	4	4
54	10.6115	0.574694	0	0	0	0	1	4	4
58	12.0918	0.145124	0	0	0	0	1	4	4
60	12.2369	0.238005	0	0	0	0	1	4	4
61	12.4749	0.24381	0	0	0	0	1	4	4
60	12.7187	0.24381	0	0	0	0	1	4	4
60	12.9625	0.238005	0	0	0	0	1	4	4
60	13.2412	0.26703	0	0	0	0	1	4	4
57	13.6301	0.261224	0	0	0	0	1	4	4
56	14.0655	0.156735	0	0	0	0	1	4	4
54	14.2222	0.179955	0	0	0	0	1	4	4
60	18.6166	0.452789	0	0	0	0	1	4	4
60	19.0694	0.13932	0	0	0	0	1	4	4
60	19.2087	0.214785	0	0	0	0	1	4	4
60	19.4235	0.243809	0	0	0	0	1	4	4
60	19.6673	0.377325	0	0	0	0	1	4	4
60	20.0446	0.249613	0	0	0	0	1	4	4
60	20.2942	0.13932	0	0	0	0	1	4	4
60	20.4916	0.255419	0	0	0	0	1	4	4
61	20.747	0.394739	0	0	0	0	1	4	4
55	22.4537	0.400545	0	0	0	0	1	4	4
57	22.9181	0.16254	0	0	0	0	1	4	4
57	23.0806	0.156734	0	0	0	0	1	4	4
60	23.3535	0.301859	0	0	0	0	1	4	4
55	23.6553	0.272835	0	0	0	0	1	4	4
57	23.992	0.191565	0	0	0	0	1	4	4
57	24.1836	0.168344	0	0	0	0	1	4	4
56	24.3984	0.220589	0	0	0	0	1	4	4
57	24.9731	0.394739	0	0	0	0	1	4	4
