midiPitch 	 onsetSec 	 durationSec 	 onsetBeats 	 onsetBarIndex 	 onsetBar 	 durationBeats 	 velocity  	 numerator 	 denominator 
64	1.58476	0.03483	0	0	0	0	1	4	4
67	1.61959	0.029025	0	0	0	0	1	4	4
62	1.66023	0.0232199	0	0	0	0	1	4	4
59	1.76472	0.029025	0	0	0	0	1	4	4
66	2.00853	0.232199	0	0	0	0	1	4	4
63	2.24073	0.203175	0	0	0	0	1	4	4
66	2.76317	0.249614	0	0	0	0	1	4	4
63	3.01279	0.348299	0	0	0	0	1	4	4
66	3.74422	0.156735	0	0	0	0	1	4	4
63	3.90095	0.307664	0	0	0	0	1	4	4
63	4.20862	0.290249	0	0	0	0	1	4	4
66	4.72526	0.226395	0	0	0	0	1	4	4
66	4.95166	0.243809	0	0	0	0	1	4	4
63	5.19546	0.272835	0	0	0	0	1	4	4
63	5.4683	0.145124	0	0	0	0	1	4	4
66	5.95011	0.267029	0	0	0	0	1	4	4
63	6.21714	0.238005	0	0	0	0	1	4	4
63	6.45515	0.19737	0	0	0	0	1	4	4
65	6.65252	0.145125	0	0	0	0	1	4	4
66	6.79764	0.0638547	0	0	0	0	1	4	4
63	6.8615	0.22059	0	0	0	0	1	4	4
63	7.2098	0.168344	0	0	0	0	1	4	4
66	7.66839	0.26703	0	0	0	0	1	4	4
63	7.93542	0.249614	0	0	0	0	1	4	4
63	8.18503	0.19737	0	0	0	0	1	4	4
66	8.70168	0.359909	0	0	0	0	1	4	4
63	9.06159	0.290249	0	0	0	0	1	4	4
66	9.93814	0.319274	0	0	0	0	1	4	4
66	10.7392	0.301859	0	0	0	0	1	4	4
63	11.1804	0.25542	0	0	0	0	1	4	4
66	11.6971	0.18576	0	0	0	0	1	4	4
63	12.1731	0.20898	0	0	0	0	1	4	4
66	12.6491	0.1161	0	0	0	0	1	4	4
66	12.8929	0.191565	0	0	0	0	1	4	4
63	13.4269	0.15093	0	0	0	0	1	4	4
66	13.961	0.249615	0	0	0	0	1	4	4
63	14.2164	0.19737	0	0	0	0	1	4	4
63	14.4138	0.110294	0	0	0	0	1	4	4
66	14.704	0.0754652	0	0	0	0	1	4	4
0	14.7795	0.156734	0	0	0	0	1	4	4
64	14.9362	0.0696602	0	0	0	0	1	4	4
63	15.1684	0.179955	0	0	0	0	1	4	4
66	15.6909	0.307665	0	0	0	0	1	4	4
63	16.1437	0.208981	0	0	0	0	1	4	4
66	16.6197	0.179955	0	0	0	0	1	4	4
66	16.9041	0.185759	0	0	0	0	1	4	4
63	17.0899	0.0986862	0	0	0	0	1	4	4
63	17.1886	0.377323	0	0	0	0	1	4	4
66	17.9258	0.238005	0	0	0	0	1	4	4
63	18.1638	0.191565	0	0	0	0	1	4	4
63	18.3554	0.12771	0	0	0	0	1	4	4
66	18.6746	0.191565	0	0	0	0	1	4	4
63	18.8952	0.377325	0	0	0	0	1	4	4
66	19.6673	0.203175	0	0	0	0	1	4	4
63	20.1433	0.197369	0	0	0	0	1	4	4
66	20.6542	0.156734	0	0	0	0	1	4	4
66	20.9212	0.197369	0	0	0	0	1	4	4
63	21.165	0.330885	0	0	0	0	1	4	4
66	21.7745	0.319275	0	0	0	0	1	4	4
63	22.0938	0.261225	0	0	0	0	1	4	4
63	22.355	0.121904	0	0	0	0	1	4	4
66	22.622	0.197371	0	0	0	0	1	4	4
63	22.8194	0.121904	0	0	0	0	1	4	4
66	23.6205	0.267029	0	0	0	0	1	4	4
63	23.8875	0.383129	0	0	0	0	1	4	4
66	24.8454	0.342495	0	0	0	0	1	4	4
68	25.3388	0.313469	0	0	0	0	1	4	4
66	25.7451	0.342493	0	0	0	0	1	4	4
63	26.0876	0.214785	0	0	0	0	1	4	4
63	26.3024	0.220591	0	0	0	0	1	4	4
66	26.6159	0.313469	0	0	0	0	1	4	4
63	27.1151	0.179955	0	0	0	0	1	4	4
66	27.5911	0.156734	0	0	0	0	1	4	4
63	27.8349	0.0580482	0	0	0	0	1	4	4
63	27.893	0.179956	0	0	0	0	1	4	4
63	28.0729	0.203175	0	0	0	0	1	4	4
66	28.8334	0.330885	0	0	0	0	1	4	4
