midiPitch 	 onsetSec 	 durationSec 	 onsetBeats 	 onsetBarIndex 	 onsetBar 	 durationBeats 	 velocity  	 numerator 	 denominator 
62	4.04027	0.0696597	0	0	0	0	1	4	4
64	4.10993	0.168344	0	0	0	0	1	4	4
67	4.45823	0.0406351	0	0	0	0	1	4	4
79	4.6556	0.0464396	0	0	0	0	1	4	4
79	4.70204	0.121905	0	0	0	0	1	4	4
79	4.82395	0.133515	0	0	0	0	1	4	4
60	8.45206	0.116099	0	0	0	0	1	4	4
55	8.66685	0.179955	0	0	0	0	1	4	4
55	8.8468	0.0928793	0	0	0	0	1	4	4
62	8.93968	0.0696602	0	0	0	0	1	4	4
74	11.2327	0.168344	0	0	0	0	1	4	4
74	11.8306	0.12771	0	0	0	0	1	4	4
76	11.9815	0.0232191	0	0	0	0	1	4	4
69	12.0047	0.226395	0	0	0	0	1	4	4
69	12.2543	0.179955	0	0	0	0	1	4	4
70	12.4343	0.214785	0	0	0	0	1	4	4
69	12.6491	0.162539	0	0	0	0	1	4	4
71	12.8116	0.238005	0	0	0	0	1	4	4
70	13.218	0.116099	0	0	0	0	1	4	4
69	13.5605	0.0696602	0	0	0	0	1	4	4
69	13.694	0.377324	0	0	0	0	1	4	4
63	14.1816	0.162539	0	0	0	0	1	4	4
63	17.7749	0.0870743	0	0	0	0	1	4	4
64	17.9432	0.0812702	0	0	0	0	1	4	4
66	18.129	0.0696602	0	0	0	0	1	4	4
64	18.1986	0.0928802	0	0	0	0	1	4	4
67	18.2915	0.0812702	0	0	0	0	1	4	4
64	18.3728	0.139318	0	0	0	0	1	4	4
64	18.576	0.0812683	0	0	0	0	1	4	4
72	25.7974	0.232201	0	0	0	0	1	4	4
65	26.4824	0.214785	0	0	0	0	1	4	4
69	26.6971	0.133516	0	0	0	0	1	4	4
68	26.8481	0.255419	0	0	0	0	1	4	4
64	27.1035	0.319275	0	0	0	0	1	4	4
64	27.4228	0.10449	0	0	0	0	1	4	4
64	27.5273	0.325079	0	0	0	0	1	4	4
64	27.8523	0.290249	0	0	0	0	1	4	4
