midiPitch 	 onsetSec 	 durationSec 	 onsetBeats 	 onsetBarIndex 	 onsetBar 	 durationBeats 	 velocity  	 numerator 	 denominator 
77	0.957823	0.18576	0	0	2.87728e-035	0	1	4	4
61	2.07819	0.412154	0	0	2.87728e-035	0	1	4	4
61	2.78059	0.16254	0	0	2.87728e-035	0	1	4	4
60	2.95474	0.08127	0	0	2.87728e-035	0	1	4	4
61	3.05342	0.0406351	0	0	2.87728e-035	0	1	4	4
60	3.11728	0.0580499	0	0	2.87728e-035	0	1	4	4
60	3.17533	0.0870748	0	0	2.87728e-035	0	1	4	4
56	4.05769	0.377325	0	0	2.87728e-035	0	1	4	4
69	4.7717	0.0232201	0	0	2.87728e-035	0	1	4	4
49	6.03138	0.325079	0	0	2.87728e-035	0	1	4	4
59	6.49578	0.0232196	0	0	2.87728e-035	0	1	4	4
68	8.90485	0.139319	0	0	2.87728e-035	0	1	4	4
68	9.04417	0.0232201	0	0	2.87728e-035	0	1	4	4
68	9.06739	0.121904	0	0	2.87728e-035	0	1	4	4
68	9.1893	0.150929	0	0	2.87728e-035	0	1	4	4
68	9.34023	0.0348301	0	0	2.87728e-035	0	1	4	4
68	9.38086	0.226395	0	0	2.87728e-035	0	1	4	4
68	9.87429	0.325079	0	0	2.87728e-035	0	1	4	4
72	11.2907	0.580499	0	0	2.87728e-035	0	1	4	4
60	12.4111	0.13932	0	0	2.87728e-035	0	1	4	4
60	12.5504	0.383129	0	0	2.87728e-035	0	1	4	4
61	12.9625	0.226395	0	0	2.87728e-035	0	1	4	4
61	13.1889	0.168344	0	0	2.87728e-035	0	1	4	4
61	13.4502	0.191565	0	0	2.87728e-035	0	1	4	4
63	13.6417	0.0348301	0	0	2.87728e-035	0	1	4	4
63	13.6766	0.0348301	0	0	2.87728e-035	0	1	4	4
63	14.0016	0.156734	0	0	2.87728e-035	0	1	4	4
61	14.1758	0.214785	0	0	2.87728e-035	0	1	4	4
60	14.4138	0.179955	0	0	2.87728e-035	0	1	4	4
60	14.5937	0.26703	0	0	2.87728e-035	0	1	4	4
60	14.8782	0.0696602	0	0	2.87728e-035	0	1	4	4
60	14.9478	0.191565	0	0	2.87728e-035	0	1	4	4
60	15.1394	0.0812702	0	0	2.87728e-035	0	1	4	4
60	15.2207	0.325079	0	0	2.87728e-035	0	1	4	4
60	15.5458	0.133515	0	0	2.87728e-035	0	1	4	4
60	15.6793	0.127709	0	0	2.87728e-035	0	1	4	4
61	19.557	0.133514	0	0	2.87728e-035	0	1	4	4
68	19.6905	0.772064	0	0	2.87728e-035	0	1	4	4
68	20.4626	0.116098	0	0	2.87728e-035	0	1	4	4
60	22.1634	0.203175	0	0	2.87728e-035	0	1	4	4
60	22.4711	0.545668	0	0	2.87728e-035	0	1	4	4
60	23.0168	0.13932	0	0	2.87728e-035	0	1	4	4
61	23.1561	0.0290241	0	0	2.87728e-035	0	1	4	4
60	23.1851	0.133516	0	0	2.87728e-035	0	1	4	4
60	23.516	0.179955	0	0	2.87728e-035	0	1	4	4
60	23.696	0.893969	0	0	2.87728e-035	0	1	4	4
61	24.5957	0.516644	0	0	2.87728e-035	0	1	4	4
61	25.1762	0.10449	0	0	2.87728e-035	0	1	4	4
61	25.2807	0.0232201	0	0	2.87728e-035	0	1	4	4
61	25.4549	0.145126	0	0	2.87728e-035	0	1	4	4
61	25.6174	0.0986843	0	0	2.87728e-035	0	1	4	4
61	25.7161	0.505035	0	0	2.87728e-035	0	1	4	4
60	26.2211	0.319273	0	0	2.87728e-035	0	1	4	4
60	26.5404	0.15093	0	0	2.87728e-035	0	1	4	4
60	26.6913	0.10449	0	0	2.87728e-035	0	1	4	4
60	26.7958	0.127708	0	0	2.87728e-035	0	1	4	4
