midiPitch 	 onsetSec 	 durationSec 	 onsetBeats 	 onsetBarIndex 	 onsetBar 	 durationBeats 	 velocity  	 numerator 	 denominator 
55	0.2322	0.0232199	0	0	2.3602e-035	0	1	4	4
58	0.313469	0.029025	0	0	2.3602e-035	0	1	4	4
58	0.348299	0.226395	0	0	2.3602e-035	0	1	4	4
58	0.644354	0.0290249	0	0	2.3602e-035	0	1	4	4
58	0.690794	0.145125	0	0	2.3602e-035	0	1	4	4
58	0.928798	0.0696598	0	0	2.3602e-035	0	1	4	4
56	2.57741	0.0522449	0	0	2.3602e-035	0	1	4	4
60	2.76317	0.243809	0	0	2.3602e-035	0	1	4	4
63	3.16372	0.644354	0	0	2.3602e-035	0	1	4	4
62	4.09832	0.226395	0	0	2.3602e-035	0	1	4	4
63	4.32472	0.313469	0	0	2.3602e-035	0	1	4	4
52	4.85878	0.516644	0	0	2.3602e-035	0	1	4	4
56	5.60181	0.191565	0	0	2.3602e-035	0	1	4	4
55	5.79338	0.203175	0	0	2.3602e-035	0	1	4	4
52	8.99773	0.32508	0	0	2.3602e-035	0	1	4	4
60	11.7783	0.0638542	0	0	2.3602e-035	0	1	4	4
61	11.8422	0.0464401	0	0	2.3602e-035	0	1	4	4
61	12.295	0.191565	0	0	2.3602e-035	0	1	4	4
62	12.4865	0.29025	0	0	2.3602e-035	0	1	4	4
62	12.7768	0.226395	0	0	2.3602e-035	0	1	4	4
73	14.1177	0.0870752	0	0	2.3602e-035	0	1	4	4
70	14.646	0.0580492	0	0	2.3602e-035	0	1	4	4
72	14.704	0.0986853	0	0	2.3602e-035	0	1	4	4
74	14.855	0.0870743	0	0	2.3602e-035	0	1	4	4
60	15.0175	0.0754642	0	0	2.3602e-035	0	1	4	4
72	15.0988	0.179955	0	0	2.3602e-035	0	1	4	4
72	15.2787	0.0696602	0	0	2.3602e-035	0	1	4	4
75	15.4239	0.0232201	0	0	2.3602e-035	0	1	4	4
78	15.4529	0.104489	0	0	2.3602e-035	0	1	4	4
69	15.598	0.156734	0	0	2.3602e-035	0	1	4	4
70	15.7838	0.18576	0	0	2.3602e-035	0	1	4	4
69	16.1379	0.267029	0	0	2.3602e-035	0	1	4	4
71	16.4049	0.0638542	0	0	2.3602e-035	0	1	4	4
67	16.4688	0.0580502	0	0	2.3602e-035	0	1	4	4
67	16.5268	0.17415	0	0	2.3602e-035	0	1	4	4
60	17.6878	0.278641	0	0	2.3602e-035	0	1	4	4
61	18.3031	0.1161	0	0	2.3602e-035	0	1	4	4
61	18.4192	0.0232201	0	0	2.3602e-035	0	1	4	4
61	18.5295	0.0754642	0	0	2.3602e-035	0	1	4	4
62	18.605	0.429569	0	0	2.3602e-035	0	1	4	4
61	19.0636	0.0696602	0	0	2.3602e-035	0	1	4	4
59	19.2261	0.029026	0	0	2.3602e-035	0	1	4	4
60	19.261	0.0638542	0	0	2.3602e-035	0	1	4	4
60	19.3248	0.0870762	0	0	2.3602e-035	0	1	4	4
61	19.4119	0.0638542	0	0	2.3602e-035	0	1	4	4
60	19.6267	0.156734	0	0	2.3602e-035	0	1	4	4
61	19.7834	0.267029	0	0	2.3602e-035	0	1	4	4
62	20.0504	0.267029	0	0	2.3602e-035	0	1	4	4
54	20.7528	0.168344	0	0	2.3602e-035	0	1	4	4
54	20.9212	0.313469	0	0	2.3602e-035	0	1	4	4
56	21.2346	0.18576	0	0	2.3602e-035	0	1	4	4
0	21.4204	0.238005	0	0	2.3602e-035	0	1	4	4
56	21.7455	0.10449	0	0	2.3602e-035	0	1	4	4
57	21.85	0.179955	0	0	2.3602e-035	0	1	4	4
57	22.326	0.0580482	0	0	2.3602e-035	0	1	4	4
56	22.384	0.365715	0	0	2.3602e-035	0	1	4	4
52	22.86	0.15093	0	0	2.3602e-035	0	1	4	4
54	23.8063	0.18576	0	0	2.3602e-035	0	1	4	4
57	24.4274	0.493425	0	0	2.3602e-035	0	1	4	4
57	24.9208	0.342493	0	0	2.3602e-035	0	1	4	4
69	25.867	0.946213	0	0	2.3602e-035	0	1	4	4
68	26.8132	0.0754642	0	0	2.3602e-035	0	1	4	4
56	26.8771	0.168346	0	0	2.3602e-035	0	1	4	4
57	27.0571	0.168346	0	0	2.3602e-035	0	1	4	4
57	27.2254	0.0522442	0	0	2.3602e-035	0	1	4	4
57	27.2776	0.0754642	0	0	2.3602e-035	0	1	4	4
62	27.4344	0.307665	0	0	2.3602e-035	0	1	4	4
62	27.8581	0.261223	0	0	2.3602e-035	0	1	4	4
62	28.3225	0.423765	0	0	2.3602e-035	0	1	4	4
