midiPitch 	 onsetSec 	 durationSec 	 onsetBeats 	 onsetBarIndex 	 onsetBar 	 durationBeats 	 velocity  	 numerator 	 denominator 
55	0.15093	0.330884	0	0	4.13759e-035	0	1	4	4
60	1.98531	0.0232199	0	0	4.13759e-035	0	1	4	4
53	2.02594	0.0464401	0	0	4.13759e-035	0	1	4	4
53	2.24653	0.179955	0	0	4.13759e-035	0	1	4	4
50	2.69351	0.075465	0	0	4.13759e-035	0	1	4	4
53	2.92571	0.406349	0	0	4.13759e-035	0	1	4	4
49	3.33206	0.156735	0	0	4.13759e-035	0	1	4	4
53	3.59909	0.330884	0	0	4.13759e-035	0	1	4	4
53	4.06349	0.551474	0	0	4.13759e-035	0	1	4	4
62	6.47256	0.261224	0	0	4.13759e-035	0	1	4	4
65	7.18077	0.214785	0	0	4.13759e-035	0	1	4	4
65	7.8019	0.29025	0	0	4.13759e-035	0	1	4	4
62	8.24308	0.214785	0	0	4.13759e-035	0	1	4	4
65	8.52753	0.24381	0	0	4.13759e-035	0	1	4	4
67	8.77134	0.26703	0	0	4.13759e-035	0	1	4	4
65	9.15447	0.406349	0	0	4.13759e-035	0	1	4	4
57	10.3039	0.0638542	0	0	4.13759e-035	0	1	4	4
67	10.6057	0.365714	0	0	4.13759e-035	0	1	4	4
69	11.6506	0.191565	0	0	4.13759e-035	0	1	4	4
69	11.9176	0.2322	0	0	4.13759e-035	0	1	4	4
68	12.2079	0.0986853	0	0	4.13759e-035	0	1	4	4
66	12.4053	0.1161	0	0	4.13759e-035	0	1	4	4
69	12.7071	0.29025	0	0	4.13759e-035	0	1	4	4
68	12.9974	0.0754642	0	0	4.13759e-035	0	1	4	4
67	13.0728	0.371519	0	0	4.13759e-035	0	1	4	4
67	13.4444	0.0928802	0	0	4.13759e-035	0	1	4	4
69	14.9827	0.18576	0	0	4.13759e-035	0	1	4	4
59	17.0144	0.0580502	0	0	4.13759e-035	0	1	4	4
60	17.0899	0.0986862	0	0	4.13759e-035	0	1	4	4
62	17.9142	0.232201	0	0	4.13759e-035	0	1	4	4
56	18.2683	0.632744	0	0	4.13759e-035	0	1	4	4
56	19.1739	0.470203	0	0	4.13759e-035	0	1	4	4
55	19.6441	0.243809	0	0	4.13759e-035	0	1	4	4
54	19.8879	0.0812702	0	0	4.13759e-035	0	1	4	4
55	19.9808	0.493425	0	0	4.13759e-035	0	1	4	4
55	20.4742	0.116098	0	0	4.13759e-035	0	1	4	4
55	20.5903	0.255421	0	0	4.13759e-035	0	1	4	4
58	22.5466	0.0522442	0	0	4.13759e-035	0	1	4	4
58	22.5466	0.0580502	0	0	4.13759e-035	0	1	4	4
55	22.593	0.01161	0	0	4.13759e-035	0	1	4	4
58	22.5466	0.0638542	0	0	4.13759e-035	0	1	4	4
55	22.593	0.0174141	0	0	4.13759e-035	0	1	4	4
58	22.5466	0.0696602	0	0	4.13759e-035	0	1	4	4
55	22.593	0.0870743	0	0	4.13759e-035	0	1	4	4
55	22.593	0.0928802	0	0	4.13759e-035	0	1	4	4
59	22.6743	0.01161	0	0	4.13759e-035	0	1	4	4
55	22.593	0.0986843	0	0	4.13759e-035	0	1	4	4
59	22.6743	0.0174141	0	0	4.13759e-035	0	1	4	4
55	22.593	0.10449	0	0	4.13759e-035	0	1	4	4
59	22.6743	0.0696602	0	0	4.13759e-035	0	1	4	4
60	22.7439	0.191565	0	0	4.13759e-035	0	1	4	4
56	22.9355	0.174149	0	0	4.13759e-035	0	1	4	4
56	22.9355	0.179955	0	0	4.13759e-035	0	1	4	4
62	23.1039	1.20744	0	0	4.13759e-035	0	1	4	4
62	24.3113	0.0348301	0	0	4.13759e-035	0	1	4	4
58	24.3461	0.383129	0	0	4.13759e-035	0	1	4	4
62	24.7293	0.638548	0	0	4.13759e-035	0	1	4	4
57	25.3678	0.481813	0	0	4.13759e-035	0	1	4	4
57	26.0644	0.15093	0	0	4.13759e-035	0	1	4	4
56	27.3067	0.15093	0	0	4.13759e-035	0	1	4	4
59	27.4576	0.0812702	0	0	4.13759e-035	0	1	4	4
56	27.5853	0.464399	0	0	4.13759e-035	0	1	4	4
