midiPitch 	 onsetSec 	 durationSec 	 onsetBeats 	 onsetBarIndex 	 onsetBar 	 durationBeats 	 velocity  	 numerator 	 denominator 
51	1.09134	0.029025	0	0	2.72687e-035	0	1	4	4
51	1.12617	0.0580499	0	0	2.72687e-035	0	1	4	4
52	1.18422	0.0522449	0	0	2.72687e-035	0	1	4	4
51	1.23646	0.0638548	0	0	2.72687e-035	0	1	4	4
54	1.42803	0.179955	0	0	2.72687e-035	0	1	4	4
50	2.22912	0.423764	0	0	2.72687e-035	0	1	4	4
50	2.68771	0.0580497	0	0	2.72687e-035	0	1	4	4
53	2.9141	0.145125	0	0	2.72687e-035	0	1	4	4
51	3.20435	0.1161	0	0	2.72687e-035	0	1	4	4
52	3.34948	0.191565	0	0	2.72687e-035	0	1	4	4
59	4.0693	0.238005	0	0	2.72687e-035	0	1	4	4
62	4.38857	0.278639	0	0	2.72687e-035	0	1	4	4
52	4.99229	0.476009	0	0	2.72687e-035	0	1	4	4
54	5.4683	0.400544	0	0	2.72687e-035	0	1	4	4
50	6.15329	0.0754647	0	0	2.72687e-035	0	1	4	4
52	6.54222	0.0812697	0	0	2.72687e-035	0	1	4	4
50	6.62349	0.0232201	0	0	2.72687e-035	0	1	4	4
50	6.96599	0.261224	0	0	2.72687e-035	0	1	4	4
50	7.26204	0.168345	0	0	2.72687e-035	0	1	4	4
50	7.43039	0.330884	0	0	2.72687e-035	0	1	4	4
56	7.90059	0.0812697	0	0	2.72687e-035	0	1	4	4
56	8.24308	0.272834	0	0	2.72687e-035	0	1	4	4
56	8.51592	0.145125	0	0	2.72687e-035	0	1	4	4
52	8.77714	0.25542	0	0	2.72687e-035	0	1	4	4
54	9.03256	0.0870752	0	0	2.72687e-035	0	1	4	4
65	10.269	0.0812702	0	0	2.72687e-035	0	1	4	4
73	10.3677	0.13932	0	0	2.72687e-035	0	1	4	4
74	10.507	0.0522442	0	0	2.72687e-035	0	1	4	4
66	11.5171	0.133514	0	0	2.72687e-035	0	1	4	4
47	12.6897	0.371519	0	0	2.72687e-035	0	1	4	4
50	13.1309	0.19737	0	0	2.72687e-035	0	1	4	4
53	13.4618	0.33669	0	0	2.72687e-035	0	1	4	4
54	14.0423	0.0522451	0	0	2.72687e-035	0	1	4	4
62	14.1758	0.116099	0	0	2.72687e-035	0	1	4	4
62	14.2919	0.0986853	0	0	2.72687e-035	0	1	4	4
54	15.9985	0.191565	0	0	2.72687e-035	0	1	4	4
50	16.6197	0.0406342	0	0	2.72687e-035	0	1	4	4
74	17.0028	0.145124	0	0	2.72687e-035	0	1	4	4
69	17.1479	0.307665	0	0	2.72687e-035	0	1	4	4
72	28.131	0.13932	0	0	2.72687e-035	0	1	4	4
71	28.2703	0.0522442	0	0	2.72687e-035	0	1	4	4
70	28.4386	0.10449	0	0	2.72687e-035	0	1	4	4
60	28.9321	0.0232201	0	0	2.72687e-035	0	1	4	4
60	28.9553	0.0580502	0	0	2.72687e-035	0	1	4	4
60	29.0133	0.168344	0	0	2.72687e-035	0	1	4	4
60	29.1817	0.029026	0	0	2.72687e-035	0	1	4	4
