midiPitch 	 onsetSec 	 durationSec 	 onsetBeats 	 onsetBarIndex 	 onsetBar 	 durationBeats 	 velocity  	 numerator 	 denominator 
65	0.168345	0.214785	0	0	1.9275e-035	0	1	4	4
69	0.510839	0.22059	0	0	1.9275e-035	0	1	4	4
63	0.731429	0.0232199	0	0	1.9275e-035	0	1	4	4
61	0.760454	0.0986848	0	0	1.9275e-035	0	1	4	4
61	0.859138	0.249615	0	0	1.9275e-035	0	1	4	4
61	1.10875	0.354104	0	0	1.9275e-035	0	1	4	4
65	3.73841	0.325079	0	0	1.9275e-035	0	1	4	4
63	4.06349	0.325079	0	0	1.9275e-035	0	1	4	4
63	4.44082	0.330884	0	0	1.9275e-035	0	1	4	4
63	4.7717	0.39474	0	0	1.9275e-035	0	1	4	4
65	5.16644	0.505034	0	0	1.9275e-035	0	1	4	4
65	5.67147	0.110295	0	0	1.9275e-035	0	1	4	4
65	5.78177	0.127709	0	0	1.9275e-035	0	1	4	4
63	6.19392	0.203175	0	0	1.9275e-035	0	1	4	4
60	6.50739	0.679183	0	0	1.9275e-035	0	1	4	4
61	9.47374	0.574694	0	0	1.9275e-035	0	1	4	4
55	10.3387	0.336689	0	0	1.9275e-035	0	1	4	4
55	10.7566	0.313469	0	0	1.9275e-035	0	1	4	4
55	11.0701	0.307664	0	0	1.9275e-035	0	1	4	4
61	11.3894	0.19737	0	0	1.9275e-035	0	1	4	4
63	11.7667	0.0232191	0	0	1.9275e-035	0	1	4	4
61	11.7957	0.145125	0	0	1.9275e-035	0	1	4	4
56	12.086	0.557279	0	0	1.9275e-035	0	1	4	4
55	13.8275	0.20898	0	0	1.9275e-035	0	1	4	4
56	14.17	0.203175	0	0	1.9275e-035	0	1	4	4
53	14.5937	0.25542	0	0	1.9275e-035	0	1	4	4
58	14.8956	0.522449	0	0	1.9275e-035	0	1	4	4
58	15.418	0.0348301	0	0	1.9275e-035	0	1	4	4
58	15.6154	0.203175	0	0	1.9275e-035	0	1	4	4
56	15.9231	0.156735	0	0	1.9275e-035	0	1	4	4
55	16.0798	0.179955	0	0	1.9275e-035	0	1	4	4
55	16.2598	0.371519	0	0	1.9275e-035	0	1	4	4
58	16.6313	0.336689	0	0	1.9275e-035	0	1	4	4
58	16.968	0.226395	0	0	1.9275e-035	0	1	4	4
53	17.7168	0.470203	0	0	1.9275e-035	0	1	4	4
62	20.6425	0.510838	0	0	1.9275e-035	0	1	4	4
62	21.5307	0.296055	0	0	1.9275e-035	0	1	4	4
60	21.8268	0.696598	0	0	1.9275e-035	0	1	4	4
61	22.5234	0.249615	0	0	1.9275e-035	0	1	4	4
62	22.9065	0.191565	0	0	1.9275e-035	0	1	4	4
56	23.2722	0.493423	0	0	1.9275e-035	0	1	4	4
55	25.0543	0.197369	0	0	1.9275e-035	0	1	4	4
56	25.3562	0.226395	0	0	1.9275e-035	0	1	4	4
54	25.7741	0.249615	0	0	1.9275e-035	0	1	4	4
54	26.0238	0.0348301	0	0	1.9275e-035	0	1	4	4
58	26.0876	0.632744	0	0	1.9275e-035	0	1	4	4
58	26.7958	0.191565	0	0	1.9275e-035	0	1	4	4
57	27.1267	0.249615	0	0	1.9275e-035	0	1	4	4
55	27.3763	0.423765	0	0	1.9275e-035	0	1	4	4
58	27.8001	0.359909	0	0	1.9275e-035	0	1	4	4
58	28.16	0.232199	0	0	1.9275e-035	0	1	4	4
