midiPitch 	 onsetSec 	 durationSec 	 onsetBeats 	 onsetBarIndex 	 onsetBar 	 durationBeats 	 velocity  	 numerator 	 denominator 
58	0.336689	0.446984	0	0	3.66741e-035	0	1	4	4
58	0.783673	0.783673	0	0	3.66741e-035	0	1	4	4
61	1.56735	0.313469	0	0	3.66741e-035	0	1	4	4
57	5.78177	0.110295	0	0	3.66741e-035	0	1	4	4
56	5.89206	0.377324	0	0	3.66741e-035	0	1	4	4
61	6.37388	0.150929	0	0	3.66741e-035	0	1	4	4
63	6.52481	0.917188	0	0	3.66741e-035	0	1	4	4
61	7.81932	0.359909	0	0	3.66741e-035	0	1	4	4
58	8.17923	0.342494	0	0	3.66741e-035	0	1	4	4
56	8.52172	0.261225	0	0	3.66741e-035	0	1	4	4
60	10.6463	1.09134	0	0	3.66741e-035	0	1	4	4
58	11.8654	0.226395	0	0	3.66741e-035	0	1	4	4
53	12.0976	0.371519	0	0	3.66741e-035	0	1	4	4
58	12.4691	1.17261	0	0	3.66741e-035	0	1	4	4
58	13.6417	1.01007	0	0	3.66741e-035	0	1	4	4
58	18.3902	0.452789	0	0	3.66741e-035	0	1	4	4
56	18.843	0.864943	0	0	3.66741e-035	0	1	4	4
53	19.7195	0.301861	0	0	3.66741e-035	0	1	4	4
56	20.0214	0.638548	0	0	3.66741e-035	0	1	4	4
60	22.3086	0.301859	0	0	3.66741e-035	0	1	4	4
61	22.831	0.220589	0	0	3.66741e-035	0	1	4	4
61	23.2025	1.69506	0	0	3.66741e-035	0	1	4	4
58	25.1298	0.0696602	0	0	3.66741e-035	0	1	4	4
65	25.333	0.232201	0	0	3.66741e-035	0	1	4	4
58	25.5652	1.3932	0	0	3.66741e-035	0	1	4	4
