midiPitch 	 onsetSec 	 durationSec 	 onsetBeats 	 onsetBarIndex 	 onsetBar 	 durationBeats 	 velocity  	 numerator 	 denominator 
64	0.429569	0.0580499	0	0	0	0	1	4	4
64	0.487619	0.029025	0	0	0	0	1	4	4
64	0.516644	0.0638549	0	0	0	0	1	4	4
67	0.766258	0.26703	0	0	0	0	1	4	4
67	1.06812	0.168345	0	0	0	0	1	4	4
65	1.23646	0.301859	0	0	0	0	1	4	4
70	1.70667	0.24381	0	0	0	0	1	4	4
65	1.95048	0.272835	0	0	0	0	1	4	4
67	2.22331	0.400544	0	0	0	0	1	4	4
68	2.93732	0.168344	0	0	0	0	1	4	4
63	3.83129	0.168345	0	0	0	0	1	4	4
63	5.16644	0.220589	0	0	0	0	1	4	4
64	5.38703	0.16254	0	0	0	0	1	4	4
63	7.55229	0.1161	0	0	0	0	1	4	4
66	7.66839	0.22059	0	0	0	0	1	4	4
70	8.15601	0.168344	0	0	0	0	1	4	4
69	8.4927	0.0870743	0	0	0	0	1	4	4
67	8.63782	0.0754642	0	0	0	0	1	4	4
69	8.71329	0.296055	0	0	0	0	1	4	4
71	9.06159	0.150929	0	0	0	0	1	4	4
63	10.3735	0.226395	0	0	0	0	1	4	4
67	10.5999	0.2322	0	0	0	0	1	4	4
0	10.8321	0.110295	0	0	0	0	1	4	4
67	10.9424	0.284444	0	0	0	0	1	4	4
71	11.6738	0.133514	0	0	0	0	1	4	4
68	11.8073	0.0464401	0	0	0	0	1	4	4
66	11.8538	0.0290251	0	0	0	0	1	4	4
64	11.8828	0.226395	0	0	0	0	1	4	4
64	12.1092	0.150929	0	0	0	0	1	4	4
64	12.2601	0.145124	0	0	0	0	1	4	4
67	12.5039	0.354104	0	0	0	0	1	4	4
70	12.858	0.354105	0	0	0	0	1	4	4
63	13.2122	0.232199	0	0	0	0	1	4	4
71	13.514	0.31347	0	0	0	0	1	4	4
63	13.8565	0.17415	0	0	0	0	1	4	4
61	15.5283	0.261225	0	0	0	0	1	4	4
68	16.0508	0.0696602	0	0	0	0	1	4	4
62	16.341	0.0406342	0	0	0	0	1	4	4
64	16.4049	0.0290241	0	0	0	0	1	4	4
63	16.4513	0.10449	0	0	0	0	1	4	4
64	16.5558	0.104488	0	0	0	0	1	4	4
64	16.6603	0.0928802	0	0	0	0	1	4	4
65	18.0941	0.18576	0	0	0	0	1	4	4
65	18.2799	0.0290241	0	0	0	0	1	4	4
64	18.3089	0.0870762	0	0	0	0	1	4	4
67	18.4134	0.261225	0	0	0	0	1	4	4
66	18.7037	0.0406361	0	0	0	0	1	4	4
67	18.7501	0.191565	0	0	0	0	1	4	4
66	19.052	0.0986843	0	0	0	0	1	4	4
69	19.1507	0.0580502	0	0	0	0	1	4	4
69	19.2087	0.371519	0	0	0	0	1	4	4
64	20.2652	0.0464401	0	0	0	0	1	4	4
64	20.3117	0.0696602	0	0	0	0	1	4	4
66	20.6019	0.16254	0	0	0	0	1	4	4
66	20.9328	0.110294	0	0	0	0	1	4	4
66	21.223	0.0348301	0	0	0	0	1	4	4
66	21.2637	0.203175	0	0	0	0	1	4	4
64	21.8558	0.330885	0	0	0	0	1	4	4
64	22.1867	0.563084	0	0	0	0	1	4	4
70	23.1793	0.441179	0	0	0	0	1	4	4
69	23.7598	0.0348282	0	0	0	0	1	4	4
71	24.2707	0.307665	0	0	0	0	1	4	4
68	24.7118	0.307665	0	0	0	0	1	4	4
70	25.5594	0.249615	0	0	0	0	1	4	4
67	25.9657	0.110294	0	0	0	0	1	4	4
67	26.2676	0.17415	0	0	0	0	1	4	4
70	26.7378	0.0986843	0	0	0	0	1	4	4
70	27.3995	0.1161	0	0	0	0	1	4	4
68	27.5156	0.10449	0	0	0	0	1	4	4
64	28.0613	0.261223	0	0	0	0	1	4	4
66	28.3516	0.284445	0	0	0	0	1	4	4
66	28.636	0.272833	0	0	0	0	1	4	4
72	29.1701	0.0464401	0	0	0	0	1	4	4
71	29.3732	0.208981	0	0	0	0	1	4	4
70	29.5822	0.110294	0	0	0	0	1	4	4
