midiPitch 	 onsetSec 	 durationSec 	 onsetBeats 	 onsetBarIndex 	 onsetBar 	 durationBeats 	 velocity  	 numerator 	 denominator 
58	0.0406349	0.470204	0	0	0	0	1	4	4
60	0.592109	0.319274	0	0	0	0	1	4	4
58	0.911383	0.563084	0	0	0	0	1	4	4
55	1.7415	0.342494	0	0	0	0	1	4	4
55	2.08399	0.876553	0	0	0	0	1	4	4
55	2.96054	0.1161	0	0	0	0	1	4	4
60	3.76163	0.801088	0	0	0	0	1	4	4
60	4.56272	0.493424	0	0	0	0	1	4	4
60	5.06195	0.667573	0	0	0	0	1	4	4
63	5.72952	0.296054	0	0	0	0	1	4	4
63	6.02558	0.690794	0	0	0	0	1	4	4
61	6.96018	0.191565	0	0	0	0	1	4	4
60	7.27946	0.597914	0	0	0	0	1	4	4
58	8.06313	0.394739	0	0	0	0	1	4	4
58	8.45787	0.528254	0	0	0	0	1	4	4
60	9.03256	0.354104	0	0	0	0	1	4	4
58	9.38667	0.551475	0	0	0	0	1	4	4
55	10.1181	0.725623	0	0	0	0	1	4	4
56	10.8437	0.371519	0	0	0	0	1	4	4
65	12.3646	1.41061	0	0	0	0	1	4	4
65	13.7752	0.801088	0	0	0	0	1	4	4
68	14.7273	0.812698	0	0	0	0	1	4	4
65	15.6561	0.325079	0	0	0	0	1	4	4
62	16.0044	0.574696	0	0	0	0	1	4	4
63	16.6835	2.15946	0	0	0	0	1	4	4
67	18.843	2.51356	0	0	0	0	1	4	4
63	22.117	0.55728	0	0	0	0	1	4	4
58	22.6743	0.568888	0	0	0	0	1	4	4
67	23.3419	0.412153	0	0	0	0	1	4	4
67	23.754	0.0870743	0	0	0	0	1	4	4
58	24.0501	0.801088	0	0	0	0	1	4	4
56	24.8512	0.377323	0	0	0	0	1	4	4
63	26.4185	0.354105	0	0	0	0	1	4	4
63	26.7726	0.185759	0	0	0	0	1	4	4
63	26.9584	0.67338	0	0	0	0	1	4	4
63	27.655	0.121904	0	0	0	0	1	4	4
63	27.7769	0.214785	0	0	0	0	1	4	4
63	27.9917	0.168344	0	0	0	0	1	4	4
