midiPitch 	 onsetSec 	 durationSec 	 onsetBeats 	 onsetBarIndex 	 onsetBar 	 durationBeats 	 velocity  	 numerator 	 denominator 
77	1.77052	0.03483	0	0	2.06875e-035	0	1	4	4
77	1.82277	0.0406349	0	0	2.06875e-035	0	1	4	4
78	1.8634	0.0522449	0	0	2.06875e-035	0	1	4	4
79	2.04916	0.0696599	0	0	2.06875e-035	0	1	4	4
81	2.11882	0.1161	0	0	2.06875e-035	0	1	4	4
83	2.28717	0.0986848	0	0	2.06875e-035	0	1	4	4
82	2.38585	0.087075	0	0	2.06875e-035	0	1	4	4
80	2.82122	0.0754647	0	0	2.06875e-035	0	1	4	4
68	3.16372	0.075465	0	0	2.06875e-035	0	1	4	4
73	3.34948	0.0232198	0	0	2.06875e-035	0	1	4	4
80	3.38431	0.0290248	0	0	2.06875e-035	0	1	4	4
82	4.5395	0.110295	0	0	2.06875e-035	0	1	4	4
77	4.79492	0.0638552	0	0	2.06875e-035	0	1	4	4
74	5.16063	0.0406346	0	0	2.06875e-035	0	1	4	4
72	5.22449	0.0406351	0	0	2.06875e-035	0	1	4	4
86	5.59601	0.0580502	0	0	2.06875e-035	0	1	4	4
86	5.65406	0.0522447	0	0	2.06875e-035	0	1	4	4
79	5.7063	0.0290251	0	0	2.06875e-035	0	1	4	4
79	5.79338	0.0638552	0	0	2.06875e-035	0	1	4	4
84	5.85723	0.0580497	0	0	2.06875e-035	0	1	4	4
86	5.97914	0.0928798	0	0	2.06875e-035	0	1	4	4
86	6.13007	0.0522451	0	0	2.06875e-035	0	1	4	4
86	6.19973	0.0870748	0	0	2.06875e-035	0	1	4	4
87	6.31002	0.168345	0	0	2.06875e-035	0	1	4	4
87	6.47837	0.0290251	0	0	2.06875e-035	0	1	4	4
87	6.50739	0.0290246	0	0	2.06875e-035	0	1	4	4
87	6.53642	0.0522451	0	0	2.06875e-035	0	1	4	4
63	6.43193	0.690794	0	0	2.06875e-035	0	1	4	4
63	8.19084	0.284445	0	0	2.06875e-035	0	1	4	4
61	8.55075	0.10449	0	0	2.06875e-035	0	1	4	4
67	8.96871	0.110295	0	0	2.06875e-035	0	1	4	4
60	9.79302	0.0870752	0	0	2.06875e-035	0	1	4	4
70	10.983	0.156735	0	0	2.06875e-035	0	1	4	4
77	11.1688	0.139319	0	0	2.06875e-035	0	1	4	4
86	11.4474	0.12771	0	0	2.06875e-035	0	1	4	4
76	11.5751	0.179955	0	0	2.06875e-035	0	1	4	4
78	11.9002	0.133514	0	0	2.06875e-035	0	1	4	4
82	15.0407	0.110294	0	0	2.06875e-035	0	1	4	4
76	15.2091	0.0638542	0	0	2.06875e-035	0	1	4	4
82	15.6793	0.104489	0	0	2.06875e-035	0	1	4	4
79	15.9347	0.0812693	0	0	2.06875e-035	0	1	4	4
75	16.016	0.0928802	0	0	2.06875e-035	0	1	4	4
76	16.1088	0.0232201	0	0	2.06875e-035	0	1	4	4
75	16.1379	0.0348301	0	0	2.06875e-035	0	1	4	4
80	16.1843	0.0406342	0	0	2.06875e-035	0	1	4	4
82	16.521	0.0754642	0	0	2.06875e-035	0	1	4	4
83	16.6719	0.0812702	0	0	2.06875e-035	0	1	4	4
81	16.7938	0.0290241	0	0	2.06875e-035	0	1	4	4
82	16.8867	0.0812702	0	0	2.06875e-035	0	1	4	4
80	17.0667	0.0406361	0	0	2.06875e-035	0	1	4	4
83	17.1305	0.0696602	0	0	2.06875e-035	0	1	4	4
81	17.2002	0.0638542	0	0	2.06875e-035	0	1	4	4
82	17.2931	0.0580502	0	0	2.06875e-035	0	1	4	4
79	17.3511	0.0580502	0	0	2.06875e-035	0	1	4	4
78	17.4846	0.0348301	0	0	2.06875e-035	0	1	4	4
79	17.5253	0.0696602	0	0	2.06875e-035	0	1	4	4
77	17.5949	0.0754642	0	0	2.06875e-035	0	1	4	4
75	17.74	0.0464401	0	0	2.06875e-035	0	1	4	4
78	18.0767	0.185759	0	0	2.06875e-035	0	1	4	4
76	18.2973	0.0754662	0	0	2.06875e-035	0	1	4	4
74	18.425	0.0638542	0	0	2.06875e-035	0	1	4	4
74	18.4889	0.0406361	0	0	2.06875e-035	0	1	4	4
79	18.6746	0.145124	0	0	2.06875e-035	0	1	4	4
78	18.8198	0.0928802	0	0	2.06875e-035	0	1	4	4
76	18.9185	0.0638561	0	0	2.06875e-035	0	1	4	4
75	19.0404	0.145124	0	0	2.06875e-035	0	1	4	4
79	19.3132	0.0580502	0	0	2.06875e-035	0	1	4	4
79	19.4061	0.0928802	0	0	2.06875e-035	0	1	4	4
76	19.528	0.0986862	0	0	2.06875e-035	0	1	4	4
86	19.7195	0.0696602	0	0	2.06875e-035	0	1	4	4
77	20.4219	0.0928802	0	0	2.06875e-035	0	1	4	4
77	21.0257	0.0812702	0	0	2.06875e-035	0	1	4	4
84	21.5888	0.0522442	0	0	2.06875e-035	0	1	4	4
84	21.641	0.029026	0	0	2.06875e-035	0	1	4	4
84	22.5059	0.0406342	0	0	2.06875e-035	0	1	4	4
85	22.5466	0.0522442	0	0	2.06875e-035	0	1	4	4
86	22.622	0.232201	0	0	2.06875e-035	0	1	4	4
87	22.8891	0.110294	0	0	2.06875e-035	0	1	4	4
85	23.0632	0.0348301	0	0	2.06875e-035	0	1	4	4
63	24.0907	0.0232201	0	0	2.06875e-035	0	1	4	4
67	24.23	0.0232201	0	0	2.06875e-035	0	1	4	4
66	24.5377	0.0232201	0	0	2.06875e-035	0	1	4	4
68	24.5609	0.0638542	0	0	2.06875e-035	0	1	4	4
67	24.6248	0.0638542	0	0	2.06875e-035	0	1	4	4
65	24.6886	0.0522461	0	0	2.06875e-035	0	1	4	4
65	25.2111	0.0464401	0	0	2.06875e-035	0	1	4	4
67	25.2575	0.0696602	0	0	2.06875e-035	0	1	4	4
67	25.3272	0.0522442	0	0	2.06875e-035	0	1	4	4
67	25.542	0.0290241	0	0	2.06875e-035	0	1	4	4
67	25.5768	0.0812683	0	0	2.06875e-035	0	1	4	4
67	25.7858	0.0754642	0	0	2.06875e-035	0	1	4	4
67	25.8844	0.0406361	0	0	2.06875e-035	0	1	4	4
67	26.6797	0.0464401	0	0	2.06875e-035	0	1	4	4
79	26.8655	0.145126	0	0	2.06875e-035	0	1	4	4
68	27.7304	0.0406342	0	0	2.06875e-035	0	1	4	4
69	27.7711	0.10449	0	0	2.06875e-035	0	1	4	4
67	27.8756	0.0754642	0	0	2.06875e-035	0	1	4	4
66	27.951	0.0870762	0	0	2.06875e-035	0	1	4	4
64	28.1484	0.0406342	0	0	2.06875e-035	0	1	4	4
65	28.2239	0.16254	0	0	2.06875e-035	0	1	4	4
