midiPitch 	 onsetSec 	 durationSec 	 onsetBeats 	 onsetBarIndex 	 onsetBar 	 durationBeats 	 velocity  	 numerator 	 denominator 
79	2.15365	0.0928798	0	0	3.93069e-035	0	1	4	4
79	2.26975	0.179955	0	0	3.93069e-035	0	1	4	4
74	2.58322	0.388934	0	0	3.93069e-035	0	1	4	4
75	2.97215	0.0928798	0	0	3.93069e-035	0	1	4	4
68	3.30304	0.417959	0	0	3.93069e-035	0	1	4	4
70	4.83556	0.0522447	0	0	3.93069e-035	0	1	4	4
69	4.8878	0.0812702	0	0	3.93069e-035	0	1	4	4
80	5.10258	0.0638552	0	0	3.93069e-035	0	1	4	4
80	5.72952	0.0754647	0	0	3.93069e-035	0	1	4	4
79	5.88045	0.0928798	0	0	3.93069e-035	0	1	4	4
79	6.18231	0.267029	0	0	3.93069e-035	0	1	4	4
77	6.65252	0.0870748	0	0	3.93069e-035	0	1	4	4
76	6.80925	0.0870748	0	0	3.93069e-035	0	1	4	4
79	7.0995	0.0232201	0	0	3.93069e-035	0	1	4	4
79	7.12853	0.0348301	0	0	3.93069e-035	0	1	4	4
77	7.34912	0.0754652	0	0	3.93069e-035	0	1	4	4
77	7.42458	0.0522447	0	0	3.93069e-035	0	1	4	4
77	7.47683	0.0348301	0	0	3.93069e-035	0	1	4	4
77	7.51166	0.121905	0	0	3.93069e-035	0	1	4	4
79	7.83093	0.19737	0	0	3.93069e-035	0	1	4	4
79	8.0283	0.0348301	0	0	3.93069e-035	0	1	4	4
75	8.29533	0.0464392	0	0	3.93069e-035	0	1	4	4
82	8.44045	0.0406351	0	0	3.93069e-035	0	1	4	4
82	8.54494	0.0348301	0	0	3.93069e-035	0	1	4	4
79	9.20091	0.0406351	0	0	3.93069e-035	0	1	4	4
78	9.26476	0.0870743	0	0	3.93069e-035	0	1	4	4
62	9.52599	0.0812693	0	0	3.93069e-035	0	1	4	4
62	9.60726	0.150929	0	0	3.93069e-035	0	1	4	4
66	9.75819	0.110295	0	0	3.93069e-035	0	1	4	4
62	9.87429	0.0406351	0	0	3.93069e-035	0	1	4	4
62	9.92073	0.319274	0	0	3.93069e-035	0	1	4	4
61	10.24	0.0638552	0	0	3.93069e-035	0	1	4	4
63	13.5372	0.0232201	0	0	3.93069e-035	0	1	4	4
53	13.5837	0.156734	0	0	3.93069e-035	0	1	4	4
54	13.7404	0.27864	0	0	3.93069e-035	0	1	4	4
54	14.4602	0.19737	0	0	3.93069e-035	0	1	4	4
55	14.675	0.0290251	0	0	3.93069e-035	0	1	4	4
54	14.704	0.0928802	0	0	3.93069e-035	0	1	4	4
63	15.2091	0.423764	0	0	3.93069e-035	0	1	4	4
49	17.235	0.0696602	0	0	3.93069e-035	0	1	4	4
63	17.6239	0.1161	0	0	3.93069e-035	0	1	4	4
62	17.9664	0.243809	0	0	3.93069e-035	0	1	4	4
62	19.5048	0.208981	0	0	3.93069e-035	0	1	4	4
62	19.7137	0.0406342	0	0	3.93069e-035	0	1	4	4
62	19.9459	0.342495	0	0	3.93069e-035	0	1	4	4
52	21.4204	0.313469	0	0	3.93069e-035	0	1	4	4
67	21.7803	0.13932	0	0	3.93069e-035	0	1	4	4
58	22.0532	0.0232201	0	0	3.93069e-035	0	1	4	4
58	22.0822	0.197371	0	0	3.93069e-035	0	1	4	4
63	22.4943	0.0696583	0	0	3.93069e-035	0	1	4	4
62	22.564	0.133516	0	0	3.93069e-035	0	1	4	4
62	24.9963	0.15093	0	0	3.93069e-035	0	1	4	4
62	25.1472	0.185759	0	0	3.93069e-035	0	1	4	4
62	25.3388	0.278639	0	0	3.93069e-035	0	1	4	4
62	25.6174	0.168344	0	0	3.93069e-035	0	1	4	4
62	25.7858	0.0812702	0	0	3.93069e-035	0	1	4	4
63	26.6159	0.0696583	0	0	3.93069e-035	0	1	4	4
62	26.7436	0.220591	0	0	3.93069e-035	0	1	4	4
62	26.9642	0.191565	0	0	3.93069e-035	0	1	4	4
63	27.266	0.278639	0	0	3.93069e-035	0	1	4	4
61	27.5795	0.168344	0	0	3.93069e-035	0	1	4	4
62	27.7478	0.110296	0	0	3.93069e-035	0	1	4	4
61	27.8581	0.116098	0	0	3.93069e-035	0	1	4	4
61	27.9742	0.12771	0	0	3.93069e-035	0	1	4	4
55	28.7637	0.0580502	0	0	3.93069e-035	0	1	4	4
66	29.1817	0.16254	0	0	3.93069e-035	0	1	4	4
