midiPitch 	 onsetSec 	 durationSec 	 onsetBeats 	 onsetBarIndex 	 onsetBar 	 durationBeats 	 velocity  	 numerator 	 denominator 
84	0.377324	0.0928798	0	0	1.77722e-035	0	1	4	4
84	0.470204	0.0406349	0	0	1.77722e-035	0	1	4	4
84	0.737234	0.0406349	0	0	1.77722e-035	0	1	4	4
86	0.795283	0.0232199	0	0	1.77722e-035	0	1	4	4
84	0.824308	0.0928798	0	0	1.77722e-035	0	1	4	4
83	0.957823	0.0754649	0	0	1.77722e-035	0	1	4	4
71	1.72989	0.0870749	0	0	1.77722e-035	0	1	4	4
83	2.54839	0.1161	0	0	1.77722e-035	0	1	4	4
83	3.63392	0.145125	0	0	1.77722e-035	0	1	4	4
78	4.12154	0.0870748	0	0	1.77722e-035	0	1	4	4
85	4.89941	0.0406351	0	0	1.77722e-035	0	1	4	4
85	4.95166	0.0232196	0	0	1.77722e-035	0	1	4	4
72	5.20707	0.0638552	0	0	1.77722e-035	0	1	4	4
81	5.33478	0.0986848	0	0	1.77722e-035	0	1	4	4
83	6.02558	0.0754647	0	0	1.77722e-035	0	1	4	4
84	6.24617	0.0812697	0	0	1.77722e-035	0	1	4	4
83	6.32744	0.0232201	0	0	1.77722e-035	0	1	4	4
82	6.35646	0.0232201	0	0	1.77722e-035	0	1	4	4
83	6.4029	0.0696597	0	0	1.77722e-035	0	1	4	4
82	6.47256	0.0406346	0	0	1.77722e-035	0	1	4	4
82	6.519	0.0406351	0	0	1.77722e-035	0	1	4	4
74	7.02404	0.15093	0	0	1.77722e-035	0	1	4	4
77	7.22141	0.139319	0	0	1.77722e-035	0	1	4	4
72	7.88317	0.0290251	0	0	1.77722e-035	0	1	4	4
73	7.92381	0.168345	0	0	1.77722e-035	0	1	4	4
83	8.2605	0.0232201	0	0	1.77722e-035	0	1	4	4
84	8.28372	0.0290241	0	0	1.77722e-035	0	1	4	4
84	8.35338	0.0290251	0	0	1.77722e-035	0	1	4	4
83	8.41723	0.0580502	0	0	1.77722e-035	0	1	4	4
83	8.47528	0.0522442	0	0	1.77722e-035	0	1	4	4
83	8.64943	0.20898	0	0	1.77722e-035	0	1	4	4
76	9.35764	0.0232201	0	0	1.77722e-035	0	1	4	4
83	9.43311	0.139319	0	0	1.77722e-035	0	1	4	4
83	9.6537	0.0754652	0	0	1.77722e-035	0	1	4	4
83	9.73497	0.110294	0	0	1.77722e-035	0	1	4	4
83	9.84526	0.127709	0	0	1.77722e-035	0	1	4	4
83	10.0078	0.0986853	0	0	1.77722e-035	0	1	4	4
81	18.1986	0.0522442	0	0	1.77722e-035	0	1	4	4
83	18.2509	0.156736	0	0	1.77722e-035	0	1	4	4
82	18.4076	0.179955	0	0	1.77722e-035	0	1	4	4
82	19.0636	0.0406361	0	0	1.77722e-035	0	1	4	4
82	19.1042	0.0812702	0	0	1.77722e-035	0	1	4	4
82	19.1855	0.156734	0	0	1.77722e-035	0	1	4	4
82	19.3538	0.110294	0	0	1.77722e-035	0	1	4	4
82	19.4641	0.168344	0	0	1.77722e-035	0	1	4	4
82	19.6731	0.133514	0	0	1.77722e-035	0	1	4	4
80	22.3666	0.0812702	0	0	1.77722e-035	0	1	4	4
83	22.5524	0.0232201	0	0	1.77722e-035	0	1	4	4
83	22.5814	0.0290241	0	0	1.77722e-035	0	1	4	4
83	22.6162	0.0232201	0	0	1.77722e-035	0	1	4	4
84	22.6801	0.0348301	0	0	1.77722e-035	0	1	4	4
84	22.7381	0.145124	0	0	1.77722e-035	0	1	4	4
86	23.2664	0.0464401	0	0	1.77722e-035	0	1	4	4
83	23.3186	0.0348301	0	0	1.77722e-035	0	1	4	4
83	23.3593	0.0812702	0	0	1.77722e-035	0	1	4	4
83	23.4405	0.0348301	0	0	1.77722e-035	0	1	4	4
83	23.5915	0.0870762	0	0	1.77722e-035	0	1	4	4
84	23.6785	0.0232201	0	0	1.77722e-035	0	1	4	4
83	23.7076	0.1161	0	0	1.77722e-035	0	1	4	4
83	23.8237	0.0406342	0	0	1.77722e-035	0	1	4	4
83	23.8701	0.185759	0	0	1.77722e-035	0	1	4	4
83	24.0675	0.0522461	0	0	1.77722e-035	0	1	4	4
83	24.1197	0.0870743	0	0	1.77722e-035	0	1	4	4
83	26.8539	0.0232201	0	0	1.77722e-035	0	1	4	4
84	26.8771	0.0232201	0	0	1.77722e-035	0	1	4	4
83	26.9061	0.0232201	0	0	1.77722e-035	0	1	4	4
83	27.2428	0.0290241	0	0	1.77722e-035	0	1	4	4
85	27.2718	0.029026	0	0	1.77722e-035	0	1	4	4
83	27.3705	0.0232201	0	0	1.77722e-035	0	1	4	4
83	27.4808	0.0290241	0	0	1.77722e-035	0	1	4	4
83	27.5156	0.0986843	0	0	1.77722e-035	0	1	4	4
82	27.6259	0.029026	0	0	1.77722e-035	0	1	4	4
83	27.655	0.0232182	0	0	1.77722e-035	0	1	4	4
83	27.6956	0.0290241	0	0	1.77722e-035	0	1	4	4
82	27.7362	0.0406361	0	0	1.77722e-035	0	1	4	4
83	27.8233	0.0812683	0	0	1.77722e-035	0	1	4	4
82	27.9046	0.0812702	0	0	1.77722e-035	0	1	4	4
83	28.0265	0.0812683	0	0	1.77722e-035	0	1	4	4
83	28.131	0.0928802	0	0	1.77722e-035	0	1	4	4
