midiPitch 	 onsetSec 	 durationSec 	 onsetBeats 	 onsetBarIndex 	 onsetBar 	 durationBeats 	 velocity  	 numerator 	 denominator 
76	1.7415	0.17415	0	0	0	0	1	4	4
87	2.60063	0.0986848	0	0	0	0	1	4	4
77	3.81968	0.087075	0	0	0	0	1	4	4
77	3.91837	0.0232198	0	0	0	0	1	4	4
77	4.26667	0.0522451	0	0	0	0	1	4	4
65	4.52789	0.0348296	0	0	0	0	1	4	4
64	4.70785	0.0986848	0	0	0	0	1	4	4
64	4.80653	0.0696597	0	0	0	0	1	4	4
64	4.87619	0.25542	0	0	0	0	1	4	4
70	5.86884	0.0522447	0	0	0	0	1	4	4
63	6.11846	0.133515	0	0	0	0	1	4	4
64	6.25197	0.203175	0	0	0	0	1	4	4
61	6.45515	0.0754647	0	0	0	0	1	4	4
73	6.72218	0.13932	0	0	0	0	1	4	4
60	8.77714	0.296055	0	0	0	0	1	4	4
63	10.24	0.191565	0	0	0	0	1	4	4
64	10.4316	0.17415	0	0	0	0	1	4	4
64	10.6057	0.0812702	0	0	0	0	1	4	4
63	10.687	0.27864	0	0	0	0	1	4	4
65	12.2892	0.133514	0	0	0	0	1	4	4
66	14.3441	0.121904	0	0	0	0	1	4	4
66	14.466	0.1161	0	0	0	0	1	4	4
65	14.5821	0.238005	0	0	0	0	1	4	4
65	14.8201	0.307664	0	0	0	0	1	4	4
62	15.8186	0.139319	0	0	0	0	1	4	4
61	15.9579	0.0464392	0	0	0	0	1	4	4
62	16.0044	0.10449	0	0	0	0	1	4	4
82	17.0318	0.15093	0	0	0	0	1	4	4
82	17.1828	0.0638542	0	0	0	0	1	4	4
82	17.4498	0.10449	0	0	0	0	1	4	4
81	17.5601	0.290249	0	0	0	0	1	4	4
81	17.949	0.13932	0	0	0	0	1	4	4
83	18.1406	0.0928802	0	0	0	0	1	4	4
75	18.4018	0.110294	0	0	0	0	1	4	4
78	18.5121	0.110296	0	0	0	0	1	4	4
78	18.7559	0.162539	0	0	0	0	1	4	4
78	18.9359	0.1161	0	0	0	0	1	4	4
73	19.052	0.0522442	0	0	0	0	1	4	4
73	19.1042	0.156734	0	0	0	0	1	4	4
71	19.261	0.156734	0	0	0	0	1	4	4
65	21.8093	0.0522461	0	0	0	0	1	4	4
64	21.8616	0.0290241	0	0	0	0	1	4	4
