midiPitch 	 onsetSec 	 durationSec 	 onsetBeats 	 onsetBarIndex 	 onsetBar 	 durationBeats 	 velocity  	 numerator 	 denominator 
45	1.27129	0.17415	0	0	2.85826e-035	0	1	4	4
43	1.44544	0.15093	0	0	2.85826e-035	0	1	4	4
51	2.49034	0.238005	0	0	2.85826e-035	0	1	4	4
51	2.72834	0.17415	0	0	2.85826e-035	0	1	4	4
50	2.90249	0.08127	0	0	2.85826e-035	0	1	4	4
50	2.98376	0.133515	0	0	2.85826e-035	0	1	4	4
48	3.38431	0.383129	0	0	2.85826e-035	0	1	4	4
44	4.11574	0.348299	0	0	2.85826e-035	0	1	4	4
70	8.48109	0.18576	0	0	2.85826e-035	0	1	4	4
70	8.66685	0.191565	0	0	2.85826e-035	0	1	4	4
69	8.85841	0.336689	0	0	2.85826e-035	0	1	4	4
70	9.1951	0.516644	0	0	2.85826e-035	0	1	4	4
70	9.71175	0.783673	0	0	2.85826e-035	0	1	4	4
70	10.5941	0.406349	0	0	2.85826e-035	0	1	4	4
65	11.5403	0.0754642	0	0	2.85826e-035	0	1	4	4
69	19.528	0.10449	0	0	2.85826e-035	0	1	4	4
70	19.6499	0.168344	0	0	2.85826e-035	0	1	4	4
67	20.0388	0.121904	0	0	2.85826e-035	0	1	4	4
65	20.718	0.574694	0	0	2.85826e-035	0	1	4	4
64	21.2927	0.249615	0	0	2.85826e-035	0	1	4	4
64	21.5423	0.290249	0	0	2.85826e-035	0	1	4	4
54	25.3504	0.0696583	0	0	2.85826e-035	0	1	4	4
55	25.5071	0.133514	0	0	2.85826e-035	0	1	4	4
56	25.8264	0.278639	0	0	2.85826e-035	0	1	4	4
56	26.105	0.342493	0	0	2.85826e-035	0	1	4	4
55	26.4475	0.267031	0	0	2.85826e-035	0	1	4	4
