midiPitch 	 onsetSec 	 durationSec 	 onsetBeats 	 onsetBarIndex 	 onsetBar 	 durationBeats 	 velocity  	 numerator 	 denominator 
64	0.423764	0.121905	0	0	0	0	1	4	4
65	0.545669	0.10449	0	0	0	0	1	4	4
68	0.754649	0.0580499	0	0	0	0	1	4	4
66	0.812698	0.0406349	0	0	0	0	1	4	4
65	0.853333	0.307664	0	0	0	0	1	4	4
82	5.78177	0.0638547	0	0	0	0	1	4	4
78	6.03719	0.0696597	0	0	0	0	1	4	4
78	6.32744	0.12771	0	0	0	0	1	4	4
76	7.04145	0.121905	0	0	0	0	1	4	4
80	7.38395	0.0638547	0	0	0	0	1	4	4
82	7.4478	0.0290251	0	0	0	0	1	4	4
80	7.47683	0.0406351	0	0	0	0	1	4	4
82	7.85415	0.0464401	0	0	0	0	1	4	4
77	7.97605	0.0348301	0	0	0	0	1	4	4
79	8.04571	0.110294	0	0	0	0	1	4	4
78	8.19084	0.0870752	0	0	0	0	1	4	4
77	8.34177	0.0290251	0	0	0	0	1	4	4
80	8.39401	0.0696602	0	0	0	0	1	4	4
78	8.62621	0.133514	0	0	0	0	1	4	4
79	9.16027	0.0348301	0	0	0	0	1	4	4
73	9.40989	0.121904	0	0	0	0	1	4	4
82	9.91492	0.133514	0	0	0	0	1	4	4
78	10.2168	0.139319	0	0	0	0	1	4	4
79	10.4141	0.110295	0	0	0	0	1	4	4
78	10.6812	0.116099	0	0	0	0	1	4	4
75	11.0817	0.0696602	0	0	0	0	1	4	4
75	11.163	0.104489	0	0	0	0	1	4	4
80	11.4881	0.168344	0	0	0	0	1	4	4
82	11.9989	0.0812702	0	0	0	0	1	4	4
78	12.2717	0.19737	0	0	0	0	1	4	4
77	12.9974	0.203175	0	0	0	0	1	4	4
76	13.2238	0.0986853	0	0	0	0	1	4	4
78	13.3224	0.0348301	0	0	0	0	1	4	4
75	13.4502	0.203175	0	0	0	0	1	4	4
81	14.0481	0.0870752	0	0	0	0	1	4	4
76	14.3209	0.0638552	0	0	0	0	1	4	4
77	14.3848	0.0232201	0	0	0	0	1	4	4
80	14.4428	0.0464392	0	0	0	0	1	4	4
81	14.5357	0.0406351	0	0	0	0	1	4	4
85	14.8492	0.0580492	0	0	0	0	1	4	4
84	14.9072	0.0406351	0	0	0	0	1	4	4
78	15.0407	0.0406342	0	0	0	0	1	4	4
78	15.0872	0.0928802	0	0	0	0	1	4	4
77	15.2323	0.0754642	0	0	0	0	1	4	4
81	15.6561	0.0812693	0	0	0	0	1	4	4
80	16.1321	0.029026	0	0	0	0	1	4	4
76	16.3352	0.203175	0	0	0	0	1	4	4
77	16.788	0.0580502	0	0	0	0	1	4	4
79	17.0202	0.12771	0	0	0	0	1	4	4
76	17.2466	0.145126	0	0	0	0	1	4	4
77	17.6181	0.168344	0	0	0	0	1	4	4
71	19.0404	0.267029	0	0	0	0	1	4	4
66	19.3074	0.0232201	0	0	0	0	1	4	4
81	19.7079	0.220591	0	0	0	0	1	4	4
80	20.2014	0.139318	0	0	0	0	1	4	4
77	20.4278	0.0522442	0	0	0	0	1	4	4
80	20.48	0.0348301	0	0	0	0	1	4	4
80	20.5148	0.110294	0	0	0	0	1	4	4
69	20.9792	0.0464401	0	0	0	0	1	4	4
68	21.0257	0.0522442	0	0	0	0	1	4	4
78	21.0721	0.0232201	0	0	0	0	1	4	4
79	21.2579	0.0812702	0	0	0	0	1	4	4
81	21.6062	0.354105	0	0	0	0	1	4	4
78	26.9468	0.0522461	0	0	0	0	1	4	4
78	27.0164	0.156734	0	0	0	0	1	4	4
77	27.3879	0.10449	0	0	0	0	1	4	4
75	27.8581	0.121904	0	0	0	0	1	4	4
79	28.1136	0.226395	0	0	0	0	1	4	4
84	28.8798	0.0696602	0	0	0	0	1	4	4
77	29.1817	0.110296	0	0	0	0	1	4	4
77	29.4139	0.0580502	0	0	0	0	1	4	4
79	29.4719	0.0522442	0	0	0	0	1	4	4
