midiPitch 	 onsetSec 	 durationSec 	 onsetBeats 	 onsetBarIndex 	 onsetBar 	 durationBeats 	 velocity  	 numerator 	 denominator 
51	0.0638549	0.226395	0	0	0	0	1	4	4
49	0.417959	0.214785	0	0	0	0	1	4	4
51	0.748844	0.441179	0	0	0	0	1	4	4
51	1.25968	0.20898	0	0	0	0	1	4	4
52	1.59057	0.17415	0	0	0	0	1	4	4
53	1.78213	0.19737	0	0	0	0	1	4	4
50	2.13043	0.249615	0	0	0	0	1	4	4
49	2.38005	0.255419	0	0	0	0	1	4	4
49	2.63546	0.673378	0	0	0	0	1	4	4
51	6.48417	0.446984	0	0	0	0	1	4	4
63	6.72218	0.284445	0	0	0	0	1	4	4
56	9.92073	0.0986843	0	0	0	0	1	4	4
56	10.0194	0.330885	0	0	0	0	1	4	4
56	10.3503	0.272834	0	0	0	0	1	4	4
56	10.7392	0.441178	0	0	0	0	1	4	4
59	11.1804	0.179955	0	0	0	0	1	4	4
58	11.4126	0.307665	0	0	0	0	1	4	4
55	11.7609	0.203175	0	0	0	0	1	4	4
52	12.0918	0.150929	0	0	0	0	1	4	4
53	12.2427	0.319275	0	0	0	0	1	4	4
61	12.6955	0.139319	0	0	0	0	1	4	4
60	12.8348	0.0290251	0	0	0	0	1	4	4
48	12.8639	0.238005	0	0	0	0	1	4	4
4294967295	13.1019	0.19737	0	0	0	0	1	4	4
51	13.2876	0.01161	0	0	0	0	1	4	4
4294967295	13.1019	0.203175	0	0	0	0	1	4	4
51	13.2876	0.017415	0	0	0	0	1	4	4
4294967295	13.1019	0.20898	0	0	0	0	1	4	4
51	13.2876	0.0870752	0	0	0	0	1	4	4
49	13.8217	0.220589	0	0	0	0	1	4	4
49	14.1119	0.342494	0	0	0	0	1	4	4
49	15.5458	0.2322	0	0	0	0	1	4	4
49	15.778	0.127709	0	0	0	0	1	4	4
52	15.9057	0.232201	0	0	0	0	1	4	4
51	16.2656	0.0870762	0	0	0	0	1	4	4
53	16.5094	0.191565	0	0	0	0	1	4	4
56	16.8054	0.278639	0	0	0	0	1	4	4
56	17.1828	0.278639	0	0	0	0	1	4	4
56	17.5253	0.238005	0	0	0	0	1	4	4
56	17.9781	0.168344	0	0	0	0	1	4	4
53	18.2915	0.0928802	0	0	0	0	1	4	4
51	18.4773	0.551476	0	0	0	0	1	4	4
56	20.9908	0.168344	0	0	0	0	1	4	4
56	21.2521	0.510838	0	0	0	0	1	4	4
58	21.9312	0.249613	0	0	0	0	1	4	4
56	22.1809	0.261225	0	0	0	0	1	4	4
56	22.593	0.220589	0	0	0	0	1	4	4
50	23.6437	0.296055	0	0	0	0	1	4	4
52	24.1371	0.0638542	0	0	0	0	1	4	4
14672232	24.3519	0.255419	0	0	0	0	1	4	4
49	24.6073	0.458595	0	0	0	0	1	4	4
52	26.3314	0.284445	0	0	0	0	1	4	4
54	26.8655	0.16254	0	0	0	0	1	4	4
57	27.028	0.238005	0	0	0	0	1	4	4
54	27.3705	0.261225	0	0	0	0	1	4	4
49	27.6317	0.522448	0	0	0	0	1	4	4
52	28.1774	0.301861	0	0	0	0	1	4	4
