midiPitch 	 onsetSec 	 durationSec 	 onsetBeats 	 onsetBarIndex 	 onsetBar 	 durationBeats 	 velocity  	 numerator 	 denominator 
68	0.458594	0.0522449	0	0	2.91499e-035	0	1	4	4
68	0.551474	0.0580499	0	0	2.91499e-035	0	1	4	4
67	0.696599	0.121905	0	0	2.91499e-035	0	1	4	4
67	0.818503	0.16254	0	0	2.91499e-035	0	1	4	4
62	1.54413	0.0812699	0	0	2.91499e-035	0	1	4	4
66	1.88662	0.0232199	0	0	2.91499e-035	0	1	4	4
64	2.25234	0.0290248	0	0	2.91499e-035	0	1	4	4
65	2.3278	0.0406349	0	0	2.91499e-035	0	1	4	4
65	2.37424	0.0290248	0	0	2.91499e-035	0	1	4	4
64	2.40327	0.0870748	0	0	2.91499e-035	0	1	4	4
63	2.73415	0.0232198	0	0	2.91499e-035	0	1	4	4
64	2.77478	0.0290248	0	0	2.91499e-035	0	1	4	4
66	2.90249	0.08127	0	0	2.91499e-035	0	1	4	4
68	3.23918	0.10449	0	0	2.91499e-035	0	1	4	4
69	3.46558	0.08127	0	0	2.91499e-035	0	1	4	4
64	3.75583	0.0406349	0	0	2.91499e-035	0	1	4	4
64	3.80227	0.0696597	0	0	2.91499e-035	0	1	4	4
64	3.99383	0.0522451	0	0	2.91499e-035	0	1	4	4
64	4.04608	0.19737	0	0	2.91499e-035	0	1	4	4
61	4.29569	0.0696597	0	0	2.91499e-035	0	1	4	4
63	4.47565	0.0232201	0	0	2.91499e-035	0	1	4	4
64	4.50467	0.0696597	0	0	2.91499e-035	0	1	4	4
63	4.57433	0.0928798	0	0	2.91499e-035	0	1	4	4
63	4.74848	0.156734	0	0	2.91499e-035	0	1	4	4
64	4.98068	0.0754652	0	0	2.91499e-035	0	1	4	4
63	5.05615	0.0232196	0	0	2.91499e-035	0	1	4	4
62	5.08517	0.1161	0	0	2.91499e-035	0	1	4	4
65	5.20127	0.133515	0	0	2.91499e-035	0	1	4	4
63	5.36381	0.0870748	0	0	2.91499e-035	0	1	4	4
62	5.76435	0.0638547	0	0	2.91499e-035	0	1	4	4
63	5.82821	0.1161	0	0	2.91499e-035	0	1	4	4
63	6.02558	0.17415	0	0	2.91499e-035	0	1	4	4
63	6.26939	0.121905	0	0	2.91499e-035	0	1	4	4
63	6.47837	0.0696597	0	0	2.91499e-035	0	1	4	4
64	6.64091	0.0696602	0	0	2.91499e-035	0	1	4	4
63	6.78023	0.110295	0	0	2.91499e-035	0	1	4	4
63	6.89052	0.18576	0	0	2.91499e-035	0	1	4	4
62	7.15755	0.0522451	0	0	2.91499e-035	0	1	4	4
64	7.33751	0.0290251	0	0	2.91499e-035	0	1	4	4
60	7.43039	0.0638547	0	0	2.91499e-035	0	1	4	4
60	7.77868	0.0812697	0	0	2.91499e-035	0	1	4	4
60	7.85995	0.145125	0	0	2.91499e-035	0	1	4	4
69	8.47528	0.0464392	0	0	2.91499e-035	0	1	4	4
69	8.57397	0.0754652	0	0	2.91499e-035	0	1	4	4
68	8.64943	0.0812693	0	0	2.91499e-035	0	1	4	4
62	8.76553	0.162539	0	0	2.91499e-035	0	1	4	4
62	8.92807	0.12771	0	0	2.91499e-035	0	1	4	4
63	9.34603	0.0870752	0	0	2.91499e-035	0	1	4	4
61	9.43311	0.0986843	0	0	2.91499e-035	0	1	4	4
61	9.80463	0.156734	0	0	2.91499e-035	0	1	4	4
63	10.0426	0.0348301	0	0	2.91499e-035	0	1	4	4
63	10.0775	0.0464401	0	0	2.91499e-035	0	1	4	4
63	10.1819	0.0464401	0	0	2.91499e-035	0	1	4	4
67	10.5593	0.197371	0	0	2.91499e-035	0	1	4	4
60	11.372	0.110294	0	0	2.91499e-035	0	1	4	4
61	11.4823	0.0290251	0	0	2.91499e-035	0	1	4	4
62	11.8073	0.0406351	0	0	2.91499e-035	0	1	4	4
63	11.8538	0.1161	0	0	2.91499e-035	0	1	4	4
64	12.0744	0.0232201	0	0	2.91499e-035	0	1	4	4
64	12.1034	0.0986843	0	0	2.91499e-035	0	1	4	4
63	12.3646	0.0290251	0	0	2.91499e-035	0	1	4	4
64	12.5678	0.0464392	0	0	2.91499e-035	0	1	4	4
64	12.6549	0.0928802	0	0	2.91499e-035	0	1	4	4
62	12.7478	0.0348301	0	0	2.91499e-035	0	1	4	4
63	12.7884	0.121904	0	0	2.91499e-035	0	1	4	4
63	13.1367	0.0928793	0	0	2.91499e-035	0	1	4	4
62	13.2354	0.121905	0	0	2.91499e-035	0	1	4	4
63	13.3573	0.0696592	0	0	2.91499e-035	0	1	4	4
60	13.7694	0.0754642	0	0	2.91499e-035	0	1	4	4
63	13.9494	0.0290251	0	0	2.91499e-035	0	1	4	4
63	13.99	0.104489	0	0	2.91499e-035	0	1	4	4
63	14.1584	0.127709	0	0	2.91499e-035	0	1	4	4
62	14.3557	0.0232201	0	0	2.91499e-035	0	1	4	4
62	14.6924	0.0406351	0	0	2.91499e-035	0	1	4	4
63	14.7331	0.0464401	0	0	2.91499e-035	0	1	4	4
63	14.9478	0.0638552	0	0	2.91499e-035	0	1	4	4
63	15.0117	0.0522451	0	0	2.91499e-035	0	1	4	4
63	15.0639	0.0522442	0	0	2.91499e-035	0	1	4	4
61	15.2439	0.0464392	0	0	2.91499e-035	0	1	4	4
60	15.3484	0.0406351	0	0	2.91499e-035	0	1	4	4
61	15.389	0.0232201	0	0	2.91499e-035	0	1	4	4
63	15.4645	0.0638542	0	0	2.91499e-035	0	1	4	4
61	15.9173	0.0638552	0	0	2.91499e-035	0	1	4	4
60	15.9927	0.0696592	0	0	2.91499e-035	0	1	4	4
66	16.1379	0.0290241	0	0	2.91499e-035	0	1	4	4
67	16.2017	0.0754642	0	0	2.91499e-035	0	1	4	4
61	16.6313	0.1161	0	0	2.91499e-035	0	1	4	4
60	16.7474	0.0406342	0	0	2.91499e-035	0	1	4	4
62	16.8693	0.0928802	0	0	2.91499e-035	0	1	4	4
64	17.3279	0.0928802	0	0	2.91499e-035	0	1	4	4
64	17.4208	0.0754642	0	0	2.91499e-035	0	1	4	4
60	17.4962	0.029026	0	0	2.91499e-035	0	1	4	4
58	17.8736	0.0232201	0	0	2.91499e-035	0	1	4	4
59	17.8968	0.0348301	0	0	2.91499e-035	0	1	4	4
59	17.9374	0.029026	0	0	2.91499e-035	0	1	4	4
64	18.1696	0.0290241	0	0	2.91499e-035	0	1	4	4
59	18.2973	0.029026	0	0	2.91499e-035	0	1	4	4
63	18.396	0.110294	0	0	2.91499e-035	0	1	4	4
64	18.5063	0.0464401	0	0	2.91499e-035	0	1	4	4
64	18.6224	0.156734	0	0	2.91499e-035	0	1	4	4
65	19.0171	0.110294	0	0	2.91499e-035	0	1	4	4
63	19.3364	0.0812702	0	0	2.91499e-035	0	1	4	4
62	19.4177	0.0348301	0	0	2.91499e-035	0	1	4	4
61	19.5048	0.0812702	0	0	2.91499e-035	0	1	4	4
69	19.795	0.0232201	0	0	2.91499e-035	0	1	4	4
63	19.8531	0.0464382	0	0	2.91499e-035	0	1	4	4
63	20.0562	0.0232201	0	0	2.91499e-035	0	1	4	4
64	20.1143	0.0348301	0	0	2.91499e-035	0	1	4	4
66	20.6483	0.0638542	0	0	2.91499e-035	0	1	4	4
65	20.7122	0.0348301	0	0	2.91499e-035	0	1	4	4
66	20.9966	0.0812702	0	0	2.91499e-035	0	1	4	4
67	21.0779	0.0348301	0	0	2.91499e-035	0	1	4	4
66	21.1127	0.0348301	0	0	2.91499e-035	0	1	4	4
67	21.2985	0.0754642	0	0	2.91499e-035	0	1	4	4
66	21.5133	0.0406342	0	0	2.91499e-035	0	1	4	4
66	21.6236	0.0348301	0	0	2.91499e-035	0	1	4	4
67	21.6642	0.0580502	0	0	2.91499e-035	0	1	4	4
66	21.7455	0.0232201	0	0	2.91499e-035	0	1	4	4
67	22.6685	0.0812702	0	0	2.91499e-035	0	1	4	4
68	22.7556	0.029026	0	0	2.91499e-035	0	1	4	4
66	22.8542	0.267029	0	0	2.91499e-035	0	1	4	4
66	23.2664	0.0348301	0	0	2.91499e-035	0	1	4	4
67	23.4522	0.0522442	0	0	2.91499e-035	0	1	4	4
66	23.6089	0.0522442	0	0	2.91499e-035	0	1	4	4
67	23.6611	0.0522461	0	0	2.91499e-035	0	1	4	4
67	23.8063	0.0522461	0	0	2.91499e-035	0	1	4	4
63	24.1371	0.0232201	0	0	2.91499e-035	0	1	4	4
63	24.1778	0.0290241	0	0	2.91499e-035	0	1	4	4
68	24.5725	0.110294	0	0	2.91499e-035	0	1	4	4
67	24.6828	0.0928802	0	0	2.91499e-035	0	1	4	4
67	24.7757	0.0406342	0	0	2.91499e-035	0	1	4	4
66	24.8279	0.0290241	0	0	2.91499e-035	0	1	4	4
69	25.0195	0.0406342	0	0	2.91499e-035	0	1	4	4
65	25.1646	0.0580502	0	0	2.91499e-035	0	1	4	4
66	25.4142	0.0232201	0	0	2.91499e-035	0	1	4	4
67	25.4375	0.0348301	0	0	2.91499e-035	0	1	4	4
65	25.5652	0.0348301	0	0	2.91499e-035	0	1	4	4
64	25.6813	0.0812702	0	0	2.91499e-035	0	1	4	4
66	25.7858	0.0696602	0	0	2.91499e-035	0	1	4	4
67	25.9947	0.0638542	0	0	2.91499e-035	0	1	4	4
64	26.6739	0.0348301	0	0	2.91499e-035	0	1	4	4
67	26.7262	0.0232201	0	0	2.91499e-035	0	1	4	4
68	26.7494	0.0522442	0	0	2.91499e-035	0	1	4	4
68	26.8016	0.029026	0	0	2.91499e-035	0	1	4	4
68	26.8365	0.0348301	0	0	2.91499e-035	0	1	4	4
66	27.446	0.0986843	0	0	2.91499e-035	0	1	4	4
67	27.8001	0.0290241	0	0	2.91499e-035	0	1	4	4
67	27.8349	0.0232201	0	0	2.91499e-035	0	1	4	4
