midiPitch 	 onsetSec 	 durationSec 	 onsetBeats 	 onsetBarIndex 	 onsetBar 	 durationBeats 	 velocity  	 numerator 	 denominator 
72	2.48454	0.0290248	0	0	3.19696e-035	0	1	4	4
80	3.16372	0.412154	0	0	3.19696e-035	0	1	4	4
80	3.70939	0.133515	0	0	3.19696e-035	0	1	4	4
80	3.8429	0.075465	0	0	3.19696e-035	0	1	4	4
67	5.13741	0.0232201	0	0	3.19696e-035	0	1	4	4
69	5.47991	0.0348296	0	0	3.19696e-035	0	1	4	4
68	5.59601	0.0696602	0	0	3.19696e-035	0	1	4	4
67	6.26939	0.0348296	0	0	3.19696e-035	0	1	4	4
67	6.33905	0.0290251	0	0	3.19696e-035	0	1	4	4
67	6.38549	0.0464396	0	0	3.19696e-035	0	1	4	4
68	6.65252	0.0406351	0	0	3.19696e-035	0	1	4	4
66	7.12272	0.359909	0	0	3.19696e-035	0	1	4	4
66	8.50431	0.0928793	0	0	3.19696e-035	0	1	4	4
69	9.00934	0.0812702	0	0	3.19696e-035	0	1	4	4
66	9.26476	0.0638542	0	0	3.19696e-035	0	1	4	4
67	9.32862	0.13932	0	0	3.19696e-035	0	1	4	4
81	10.3445	0.226394	0	0	3.19696e-035	0	1	4	4
82	10.7508	0.0870743	0	0	3.19696e-035	0	1	4	4
78	10.8379	0.27864	0	0	3.19696e-035	0	1	4	4
84	11.6564	0.226395	0	0	3.19696e-035	0	1	4	4
85	11.9002	0.0348301	0	0	3.19696e-035	0	1	4	4
85	11.9525	0.156734	0	0	3.19696e-035	0	1	4	4
67	14.7331	0.0348301	0	0	3.19696e-035	0	1	4	4
69	14.9827	0.0870743	0	0	3.19696e-035	0	1	4	4
67	15.4761	0.110295	0	0	3.19696e-035	0	1	4	4
67	15.8534	0.127709	0	0	3.19696e-035	0	1	4	4
68	16.103	0.0348301	0	0	3.19696e-035	0	1	4	4
67	16.1437	0.0580502	0	0	3.19696e-035	0	1	4	4
66	16.701	0.179955	0	0	3.19696e-035	0	1	4	4
65	16.8983	0.16254	0	0	3.19696e-035	0	1	4	4
67	17.1363	0.10449	0	0	3.19696e-035	0	1	4	4
67	17.8968	0.150928	0	0	3.19696e-035	0	1	4	4
66	18.0941	0.13932	0	0	3.19696e-035	0	1	4	4
66	18.2509	0.0638561	0	0	3.19696e-035	0	1	4	4
67	18.4657	0.0406361	0	0	3.19696e-035	0	1	4	4
67	18.6514	0.0580502	0	0	3.19696e-035	0	1	4	4
68	18.8256	0.255419	0	0	3.19696e-035	0	1	4	4
68	19.1216	0.197371	0	0	3.19696e-035	0	1	4	4
69	19.4003	0.116098	0	0	3.19696e-035	0	1	4	4
69	19.7486	0.150928	0	0	3.19696e-035	0	1	4	4
66	20.271	0.0696583	0	0	3.19696e-035	0	1	4	4
68	20.3407	0.0348301	0	0	3.19696e-035	0	1	4	4
68	20.8631	0.029026	0	0	3.19696e-035	0	1	4	4
69	21.0141	0.0290241	0	0	3.19696e-035	0	1	4	4
86	26.6739	0.029026	0	0	3.19696e-035	0	1	4	4
70	28.2761	0.104488	0	0	3.19696e-035	0	1	4	4
69	28.5489	0.203175	0	0	3.19696e-035	0	1	4	4
69	28.7637	0.133516	0	0	3.19696e-035	0	1	4	4
69	28.8972	0.0406342	0	0	3.19696e-035	0	1	4	4
