midiPitch 	 onsetSec 	 durationSec 	 onsetBeats 	 onsetBarIndex 	 onsetBar 	 durationBeats 	 velocity  	 numerator 	 denominator 
82	0.0754649	0.0638549	0	0	0	0	1	4	4
81	0.13932	0.0290249	0	0	0	0	1	4	4
81	0.191565	0.0290249	0	0	0	0	1	4	4
82	0.255419	0.029025	0	0	0	0	1	4	4
83	0.359909	0.0290249	0	0	0	0	1	4	4
82	0.400544	0.0348299	0	0	0	0	1	4	4
81	0.435374	0.0232199	0	0	0	0	1	4	4
83	0.592109	0.029025	0	0	0	0	1	4	4
81	0.655964	0.0406349	0	0	0	0	1	4	4
78	0.754649	0.0580499	0	0	0	0	1	4	4
79	1.07973	0.0638548	0	0	0	0	1	4	4
81	1.14358	0.0232199	0	0	0	0	1	4	4
81	1.17261	0.040635	0	0	0	0	1	4	4
80	1.21905	0.0232201	0	0	0	0	1	4	4
81	1.26549	0.0232199	0	0	0	0	1	4	4
81	1.32354	0.0232199	0	0	0	0	1	4	4
77	1.34676	0.0986849	0	0	0	0	1	4	4
76	1.44544	0.0696598	0	0	0	0	1	4	4
76	1.5151	0.0580499	0	0	0	0	1	4	4
75	1.57315	0.17415	0	0	0	0	1	4	4
72	1.7473	0.0406349	0	0	0	0	1	4	4
76	4.51048	0.0406351	0	0	0	0	1	4	4
77	4.77751	0.0348301	0	0	0	0	1	4	4
76	4.83556	0.0232201	0	0	0	0	1	4	4
75	4.94585	0.0232201	0	0	0	0	1	4	4
76	4.96907	0.0406346	0	0	0	0	1	4	4
77	5.25351	0.0290246	0	0	0	0	1	4	4
76	5.31737	0.0580502	0	0	0	0	1	4	4
77	5.81079	0.0232201	0	0	0	0	1	4	4
80	5.87465	0.0580497	0	0	0	0	1	4	4
80	5.99655	0.0290251	0	0	0	0	1	4	4
79	6.04299	0.0290251	0	0	0	0	1	4	4
79	6.08363	0.0232196	0	0	0	0	1	4	4
78	6.11265	0.0232201	0	0	0	0	1	4	4
78	6.14168	0.0348301	0	0	0	0	1	4	4
73	6.281	0.0406346	0	0	0	0	1	4	4
74	6.32163	0.0638552	0	0	0	0	1	4	4
69	9.079	0.0348301	0	0	0	0	1	4	4
81	9.24735	0.0232201	0	0	0	0	1	4	4
82	9.3054	0.116099	0	0	0	0	1	4	4
82	9.4215	0.0754652	0	0	0	0	1	4	4
82	9.58404	0.1161	0	0	0	0	1	4	4
82	9.70014	0.156734	0	0	0	0	1	4	4
82	10.5477	0.0290241	0	0	0	0	1	4	4
81	10.7566	0.0348291	0	0	0	0	1	4	4
81	10.8205	0.0812702	0	0	0	0	1	4	4
81	10.9018	0.0348301	0	0	0	0	1	4	4
82	10.9366	0.0522442	0	0	0	0	1	4	4
82	10.9946	0.1161	0	0	0	0	1	4	4
82	11.1398	0.0290251	0	0	0	0	1	4	4
82	11.1688	0.0522442	0	0	0	0	1	4	4
80	13.6417	0.0290251	0	0	0	0	1	4	4
80	13.7346	0.0986853	0	0	0	0	1	4	4
84	14.0249	0.0406342	0	0	0	0	1	4	4
83	14.0771	0.0232201	0	0	0	0	1	4	4
73	14.3441	0.0232201	0	0	0	0	1	4	4
81	14.646	0.0754642	0	0	0	0	1	4	4
82	14.7215	0.0232201	0	0	0	0	1	4	4
77	14.8956	0.0580502	0	0	0	0	1	4	4
82	15.1917	0.0290251	0	0	0	0	1	4	4
85	15.5748	0.0232201	0	0	0	0	1	4	4
82	19.8415	0.0580482	0	0	0	0	1	4	4
83	20.1549	0.0812702	0	0	0	0	1	4	4
83	20.2594	0.0232201	0	0	0	0	1	4	4
79	20.3117	0.0232201	0	0	0	0	1	4	4
82	20.3465	0.0406342	0	0	0	0	1	4	4
81	20.3987	0.0522461	0	0	0	0	1	4	4
76	20.8747	0.029026	0	0	0	0	1	4	4
79	20.927	0.0580502	0	0	0	0	1	4	4
81	20.985	0.029026	0	0	0	0	1	4	4
81	21.0315	0.0232201	0	0	0	0	1	4	4
80	21.1534	0.029026	0	0	0	0	1	4	4
80	21.1882	0.0406361	0	0	0	0	1	4	4
72	21.4959	0.336689	0	0	0	0	1	4	4
69	21.8326	0.145124	0	0	0	0	1	4	4
73	22.0648	0.0232201	0	0	0	0	1	4	4
81	22.6104	0.0348301	0	0	0	0	1	4	4
80	22.9471	0.0348282	0	0	0	0	1	4	4
83	23.0052	0.0406361	0	0	0	0	1	4	4
79	23.22	0.0928802	0	0	0	0	1	4	4
78	23.3128	0.029026	0	0	0	0	1	4	4
76	23.9282	0.0232201	0	0	0	0	1	4	4
76	24.0501	0.0290241	0	0	0	0	1	4	4
80	24.172	0.0348301	0	0	0	0	1	4	4
75	24.9266	0.220591	0	0	0	0	1	4	4
75	25.1646	0.365715	0	0	0	0	1	4	4
69	27.0048	0.133514	0	0	0	0	1	4	4
75	27.3067	0.1161	0	0	0	0	1	4	4
75	27.4634	0.0290241	0	0	0	0	1	4	4
75	27.5215	0.0696602	0	0	0	0	1	4	4
75	27.5911	0.0696602	0	0	0	0	1	4	4
74	27.6608	0.249615	0	0	0	0	1	4	4
72	27.9104	0.0348301	0	0	0	0	1	4	4
69	27.9975	0.12771	0	0	0	0	1	4	4
