midiPitch 	 onsetSec 	 durationSec 	 onsetBeats 	 onsetBarIndex 	 onsetBar 	 durationBeats 	 velocity  	 numerator 	 denominator 
66	0.429569	0.313469	0	0	3.23454e-035	0	1	4	4
66	0.743039	0.0754648	0	0	3.23454e-035	0	1	4	4
66	0.818503	0.255419	0	0	3.23454e-035	0	1	4	4
65	1.40481	0.13932	0	0	3.23454e-035	0	1	4	4
62	1.79374	0.0928798	0	0	3.23454e-035	0	1	4	4
60	1.88662	0.26703	0	0	3.23454e-035	0	1	4	4
62	2.2117	0.13932	0	0	3.23454e-035	0	1	4	4
66	2.35102	0.464399	0	0	3.23454e-035	0	1	4	4
66	2.81542	0.214785	0	0	3.23454e-035	0	1	4	4
59	3.23338	0.487619	0	0	3.23454e-035	0	1	4	4
60	3.721	0.0232201	0	0	3.23454e-035	0	1	4	4
61	3.74422	0.0232198	0	0	3.23454e-035	0	1	4	4
60	3.76744	0.0232201	0	0	3.23454e-035	0	1	4	4
59	3.79066	0.0928798	0	0	3.23454e-035	0	1	4	4
60	4.27828	0.37152	0	0	3.23454e-035	0	1	4	4
62	4.6498	0.121904	0	0	3.23454e-035	0	1	4	4
63	4.7717	0.307664	0	0	3.23454e-035	0	1	4	4
63	5.07936	0.15093	0	0	3.23454e-035	0	1	4	4
65	5.23029	0.325079	0	0	3.23454e-035	0	1	4	4
65	5.61923	0.2322	0	0	3.23454e-035	0	1	4	4
65	5.98494	0.946213	0	0	3.23454e-035	0	1	4	4
65	7.43039	0.238004	0	0	3.23454e-035	0	1	4	4
62	7.66839	0.26703	0	0	3.23454e-035	0	1	4	4
65	7.94703	0.644354	0	0	3.23454e-035	0	1	4	4
62	8.96871	0.29025	0	0	3.23454e-035	0	1	4	4
61	9.25896	0.0522451	0	0	3.23454e-035	0	1	4	4
65	9.3112	0.19737	0	0	3.23454e-035	0	1	4	4
60	9.5434	0.30186	0	0	3.23454e-035	0	1	4	4
61	9.84526	0.319274	0	0	3.23454e-035	0	1	4	4
63	10.1645	0.19737	0	0	3.23454e-035	0	1	4	4
66	10.3619	0.423764	0	0	3.23454e-035	0	1	4	4
64	10.7857	0.400544	0	0	3.23454e-035	0	1	4	4
55	12.1382	0.325079	0	0	3.23454e-035	0	1	4	4
55	12.6084	0.30186	0	0	3.23454e-035	0	1	4	4
53	13.0264	0.1161	0	0	3.23454e-035	0	1	4	4
55	13.1425	0.110294	0	0	3.23454e-035	0	1	4	4
56	13.2528	0.145125	0	0	3.23454e-035	0	1	4	4
55	13.6649	0.2322	0	0	3.23454e-035	0	1	4	4
49	14.6402	0.313469	0	0	3.23454e-035	0	1	4	4
58	15.0175	0.238005	0	0	3.23454e-035	0	1	4	4
50	16.939	0.232199	0	0	3.23454e-035	0	1	4	4
55	17.2234	0.1161	0	0	3.23454e-035	0	1	4	4
58	17.3453	0.940407	0	0	3.23454e-035	0	1	4	4
56	18.3205	0.278641	0	0	3.23454e-035	0	1	4	4
54	18.5992	0.168344	0	0	3.23454e-035	0	1	4	4
54	18.8024	0.301859	0	0	3.23454e-035	0	1	4	4
51	19.1042	0.55728	0	0	3.23454e-035	0	1	4	4
47	19.9808	0.220591	0	0	3.23454e-035	0	1	4	4
50	20.4568	0.10449	0	0	3.23454e-035	0	1	4	4
50	20.6135	0.18576	0	0	3.23454e-035	0	1	4	4
50	20.9966	0.226395	0	0	3.23454e-035	0	1	4	4
50	21.3449	0.0406361	0	0	3.23454e-035	0	1	4	4
50	21.3914	0.121906	0	0	3.23454e-035	0	1	4	4
49	21.5655	0.179955	0	0	3.23454e-035	0	1	4	4
54	21.7455	0.528254	0	0	3.23454e-035	0	1	4	4
54	22.2737	0.0986843	0	0	3.23454e-035	0	1	4	4
55	22.3724	0.412155	0	0	3.23454e-035	0	1	4	4
54	22.7846	0.0290241	0	0	3.23454e-035	0	1	4	4
54	23.3535	0.313469	0	0	3.23454e-035	0	1	4	4
54	23.6669	0.0696602	0	0	3.23454e-035	0	1	4	4
51	23.7366	0.208979	0	0	3.23454e-035	0	1	4	4
50	23.9456	0.145124	0	0	3.23454e-035	0	1	4	4
75	26.6043	0.0232201	0	0	3.23454e-035	0	1	4	4
75	26.9235	0.0638561	0	0	3.23454e-035	0	1	4	4
75	27.1093	0.0290241	0	0	3.23454e-035	0	1	4	4
75	27.2428	0.0638542	0	0	3.23454e-035	0	1	4	4
78	27.6492	0.0754642	0	0	3.23454e-035	0	1	4	4
78	27.7304	0.0406342	0	0	3.23454e-035	0	1	4	4
78	27.7885	0.0232201	0	0	3.23454e-035	0	1	4	4
75	27.8349	0.0348301	0	0	3.23454e-035	0	1	4	4
78	27.8872	0.0986843	0	0	3.23454e-035	0	1	4	4
78	28.131	0.0464401	0	0	3.23454e-035	0	1	4	4
77	28.1774	0.0580502	0	0	3.23454e-035	0	1	4	4
78	28.2355	0.0522442	0	0	3.23454e-035	0	1	4	4
78	28.2877	0.029026	0	0	3.23454e-035	0	1	4	4
78	28.3167	0.0406342	0	0	3.23454e-035	0	1	4	4
78	28.3574	0.110296	0	0	3.23454e-035	0	1	4	4
66	28.4619	0.16254	0	0	3.23454e-035	0	1	4	4
67	28.6244	0.0580502	0	0	3.23454e-035	0	1	4	4
79	28.6883	0.0290241	0	0	3.23454e-035	0	1	4	4
79	28.7173	0.0522461	0	0	3.23454e-035	0	1	4	4
79	28.7695	0.0812702	0	0	3.23454e-035	0	1	4	4
79	28.8508	0.0638542	0	0	3.23454e-035	0	1	4	4
79	28.9263	0.0580502	0	0	3.23454e-035	0	1	4	4
78	29.0482	0.0522461	0	0	3.23454e-035	0	1	4	4
79	29.1004	0.0406342	0	0	3.23454e-035	0	1	4	4
79	29.141	0.0464401	0	0	3.23454e-035	0	1	4	4
79	29.1875	0.0348301	0	0	3.23454e-035	0	1	4	4
79	29.2223	0.0522442	0	0	3.23454e-035	0	1	4	4
79	29.2746	0.0348301	0	0	3.23454e-035	0	1	4	4
