midiPitch 	 onsetSec 	 durationSec 	 onsetBeats 	 onsetBarIndex 	 onsetBar 	 durationBeats 	 velocity  	 numerator 	 denominator 
48	0.0406349	0.249615	0	0	3.25359e-035	0	1	4	4
47	0.290249	0.16254	0	0	3.25359e-035	0	1	4	4
47	0.545669	0.20898	0	0	3.25359e-035	0	1	4	4
49	0.754649	0.261224	0	0	3.25359e-035	0	1	4	4
48	1.71828	0.133515	0	0	3.25359e-035	0	1	4	4
48	1.85179	0.1161	0	0	3.25359e-035	0	1	4	4
49	2.0898	0.075465	0	0	3.25359e-035	0	1	4	4
47	2.3278	0.313469	0	0	3.25359e-035	0	1	4	4
47	2.64127	0.319274	0	0	3.25359e-035	0	1	4	4
50	4.82395	0.0986848	0	0	3.25359e-035	0	1	4	4
53	4.92263	0.10449	0	0	3.25359e-035	0	1	4	4
50	5.07936	0.0754652	0	0	3.25359e-035	0	1	4	4
52	5.27093	0.499229	0	0	3.25359e-035	0	1	4	4
53	6.13007	0.394739	0	0	3.25359e-035	0	1	4	4
52	6.66413	0.510839	0	0	3.25359e-035	0	1	4	4
51	7.35492	0.0986848	0	0	3.25359e-035	0	1	4	4
52	7.51746	0.359909	0	0	3.25359e-035	0	1	4	4
50	7.87737	0.319274	0	0	3.25359e-035	0	1	4	4
47	10.4606	0.203175	0	0	3.25359e-035	0	1	4	4
49	10.6638	0.313469	0	0	3.25359e-035	0	1	4	4
48	11.3894	0.406349	0	0	3.25359e-035	0	1	4	4
50	11.9176	0.2322	0	0	3.25359e-035	0	1	4	4
45	12.2427	0.30186	0	0	3.25359e-035	0	1	4	4
48	13.6824	0.0638552	0	0	3.25359e-035	0	1	4	4
49	13.7462	0.0522451	0	0	3.25359e-035	0	1	4	4
49	13.7985	0.0696592	0	0	3.25359e-035	0	1	4	4
50	14.0016	0.290249	0	0	3.25359e-035	0	1	4	4
45	17.9897	0.0406342	0	0	3.25359e-035	0	1	4	4
48	18.0767	0.0580502	0	0	3.25359e-035	0	1	4	4
51	18.1348	0.185759	0	0	3.25359e-035	0	1	4	4
45	18.4715	0.313469	0	0	3.25359e-035	0	1	4	4
45	18.7849	0.10449	0	0	3.25359e-035	0	1	4	4
45	20.1143	0.191565	0	0	3.25359e-035	0	1	4	4
47	23.098	0.197371	0	0	3.25359e-035	0	1	4	4
49	23.2954	0.214785	0	0	3.25359e-035	0	1	4	4
49	23.5102	0.272833	0	0	3.25359e-035	0	1	4	4
47	23.783	0.406349	0	0	3.25359e-035	0	1	4	4
49	24.5609	0.406349	0	0	3.25359e-035	0	1	4	4
86040936	24.9673	0.226395	0	0	3.25359e-035	0	1	4	4
48	25.1937	0.626938	0	0	3.25359e-035	0	1	4	4
47	25.9077	0.359909	0	0	3.25359e-035	0	1	4	4
43	26.6217	0.110294	0	0	3.25359e-035	0	1	4	4
46	26.732	0.15093	0	0	3.25359e-035	0	1	4	4
47	26.8829	0.354105	0	0	3.25359e-035	0	1	4	4
47	27.3473	0.243809	0	0	3.25359e-035	0	1	4	4
46	29.0191	0.0290241	0	0	3.25359e-035	0	1	4	4
53	29.1817	0.0348301	0	0	3.25359e-035	0	1	4	4
55	29.2223	0.127708	0	0	3.25359e-035	0	1	4	4
54	29.4893	0.12771	0	0	3.25359e-035	0	1	4	4
