midiPitch 	 onsetSec 	 durationSec 	 onsetBeats 	 onsetBarIndex 	 onsetBar 	 durationBeats 	 velocity  	 numerator 	 denominator 
65	0.789478	0.0580499	0	0	3.83626e-035	0	1	4	4
65	0.847528	0.0232199	0	0	3.83626e-035	0	1	4	4
65	0.922993	0.0464399	0	0	3.83626e-035	0	1	4	4
65	1.09134	0.1161	0	0	3.83626e-035	0	1	4	4
65	1.20744	0.029025	0	0	3.83626e-035	0	1	4	4
65	2.0898	0.0580499	0	0	3.83626e-035	0	1	4	4
65	2.37424	0.0522449	0	0	3.83626e-035	0	1	4	4
66	2.47293	0.0406349	0	0	3.83626e-035	0	1	4	4
66	2.51356	0.0986848	0	0	3.83626e-035	0	1	4	4
65	2.64127	0.145125	0	0	3.83626e-035	0	1	4	4
65	2.78639	0.0986848	0	0	3.83626e-035	0	1	4	4
65	2.88508	0.179955	0	0	3.83626e-035	0	1	4	4
66	3.80227	0.0522449	0	0	3.83626e-035	0	1	4	4
65	3.85451	0.0232198	0	0	3.83626e-035	0	1	4	4
63	4.02286	0.0406346	0	0	3.83626e-035	0	1	4	4
65	4.46984	0.13932	0	0	3.83626e-035	0	1	4	4
65	4.66141	0.0754647	0	0	3.83626e-035	0	1	4	4
62	4.73687	0.0232201	0	0	3.83626e-035	0	1	4	4
63	4.7659	0.110295	0	0	3.83626e-035	0	1	4	4
63	4.93424	0.18576	0	0	3.83626e-035	0	1	4	4
63	5.19546	0.16254	0	0	3.83626e-035	0	1	4	4
65	6.07782	0.0406346	0	0	3.83626e-035	0	1	4	4
66	6.65252	0.110295	0	0	3.83626e-035	0	1	4	4
65	6.76281	0.179955	0	0	3.83626e-035	0	1	4	4
65	6.98921	0.0290251	0	0	3.83626e-035	0	1	4	4
66	7.02404	0.0580502	0	0	3.83626e-035	0	1	4	4
65	7.08209	0.0232201	0	0	3.83626e-035	0	1	4	4
65	7.18077	0.0232201	0	0	3.83626e-035	0	1	4	4
65	7.2098	0.0696597	0	0	3.83626e-035	0	1	4	4
65	7.34331	0.17415	0	0	3.83626e-035	0	1	4	4
65	7.51746	0.0754647	0	0	3.83626e-035	0	1	4	4
63	8.22567	0.139319	0	0	3.83626e-035	0	1	4	4
65	8.52753	0.342495	0	0	3.83626e-035	0	1	4	4
63	8.87002	0.377324	0	0	3.83626e-035	0	1	4	4
63	9.24735	0.359909	0	0	3.83626e-035	0	1	4	4
66	10.269	0.121904	0	0	3.83626e-035	0	1	4	4
66	10.3909	0.0812702	0	0	3.83626e-035	0	1	4	4
63	10.7392	0.139319	0	0	3.83626e-035	0	1	4	4
63	10.9946	0.226395	0	0	3.83626e-035	0	1	4	4
63	11.3429	0.121904	0	0	3.83626e-035	0	1	4	4
63	11.4649	0.0580502	0	0	3.83626e-035	0	1	4	4
63	11.5229	0.0638542	0	0	3.83626e-035	0	1	4	4
61	12.3937	0.110294	0	0	3.83626e-035	0	1	4	4
61	12.7768	0.0232201	0	0	3.83626e-035	0	1	4	4
61	12.8	0.0348291	0	0	3.83626e-035	0	1	4	4
61	12.8697	0.10449	0	0	3.83626e-035	0	1	4	4
61	12.9974	0.150929	0	0	3.83626e-035	0	1	4	4
63	13.2586	0.0638552	0	0	3.83626e-035	0	1	4	4
63	13.4676	0.296055	0	0	3.83626e-035	0	1	4	4
63	13.7636	0.110294	0	0	3.83626e-035	0	1	4	4
63	13.8739	0.0290251	0	0	3.83626e-035	0	1	4	4
65	14.4718	0.0580502	0	0	3.83626e-035	0	1	4	4
66	14.5299	0.0406351	0	0	3.83626e-035	0	1	4	4
66	14.5705	0.0348301	0	0	3.83626e-035	0	1	4	4
65	14.7273	0.0348301	0	0	3.83626e-035	0	1	4	4
65	14.7621	0.0290251	0	0	3.83626e-035	0	1	4	4
63	14.9014	0.20898	0	0	3.83626e-035	0	1	4	4
61	15.1104	0.0232201	0	0	3.83626e-035	0	1	4	4
61	15.1394	0.214785	0	0	3.83626e-035	0	1	4	4
61	15.5864	0.0290251	0	0	3.83626e-035	0	1	4	4
63	15.6735	0.0232191	0	0	3.83626e-035	0	1	4	4
63	15.7257	0.0348301	0	0	3.83626e-035	0	1	4	4
63	15.7663	0.284444	0	0	3.83626e-035	0	1	4	4
61	16.1553	0.0928802	0	0	3.83626e-035	0	1	4	4
61	16.2482	0.0812702	0	0	3.83626e-035	0	1	4	4
61	16.3294	0.0406342	0	0	3.83626e-035	0	1	4	4
61	16.3817	0.0986843	0	0	3.83626e-035	0	1	4	4
61	16.6603	0.0232201	0	0	3.83626e-035	0	1	4	4
63	16.6951	0.0696602	0	0	3.83626e-035	0	1	4	4
63	16.7648	0.0754642	0	0	3.83626e-035	0	1	4	4
62	16.8751	0.0638561	0	0	3.83626e-035	0	1	4	4
61	16.939	0.110294	0	0	3.83626e-035	0	1	4	4
61	17.0899	0.0928802	0	0	3.83626e-035	0	1	4	4
61	17.3105	0.0696602	0	0	3.83626e-035	0	1	4	4
65	20.538	0.156734	0	0	3.83626e-035	0	1	4	4
65	20.7238	0.121906	0	0	3.83626e-035	0	1	4	4
66	20.8805	0.0986843	0	0	3.83626e-035	0	1	4	4
65	21.0547	0.232201	0	0	3.83626e-035	0	1	4	4
61	21.7571	0.487619	0	0	3.83626e-035	0	1	4	4
65	22.6569	0.121904	0	0	3.83626e-035	0	1	4	4
67	22.8949	0.110294	0	0	3.83626e-035	0	1	4	4
68	23.0052	0.0812702	0	0	3.83626e-035	0	1	4	4
67	23.0864	0.029026	0	0	3.83626e-035	0	1	4	4
66	23.1619	0.179955	0	0	3.83626e-035	0	1	4	4
65	23.4638	0.139318	0	0	3.83626e-035	0	1	4	4
61	23.8411	0.551474	0	0	3.83626e-035	0	1	4	4
70	25.153	0.16254	0	0	3.83626e-035	0	1	4	4
68	25.3156	0.255419	0	0	3.83626e-035	0	1	4	4
66	25.6464	0.208981	0	0	3.83626e-035	0	1	4	4
70	25.9541	0.145124	0	0	3.83626e-035	0	1	4	4
68	26.1573	0.16254	0	0	3.83626e-035	0	1	4	4
66	26.3198	0.272835	0	0	3.83626e-035	0	1	4	4
63234408	26.5927	0.127708	0	0	3.83626e-035	0	1	4	4
68	26.7204	0.313471	0	0	3.83626e-035	0	1	4	4
68	27.0512	0.238005	0	0	3.83626e-035	0	1	4	4
68	27.2893	0.336689	0	0	3.83626e-035	0	1	4	4
65	28.9379	0.121904	0	0	3.83626e-035	0	1	4	4
