midiPitch 	 onsetSec 	 durationSec 	 onsetBeats 	 onsetBarIndex 	 onsetBar 	 durationBeats 	 velocity  	 numerator 	 denominator 
62	0.441179	0.0522449	0	0	0	0	1	4	4
63	0.493424	0.214785	0	0	0	0	1	4	4
60	0.708209	0.0870748	0	0	0	0	1	4	4
62	0.969433	0.255419	0	0	0	0	1	4	4
62	1.22485	0.145125	0	0	0	0	1	4	4
62	1.36998	0.0290248	0	0	0	0	1	4	4
62	1.40481	0.10449	0	0	0	0	1	4	4
60	1.66603	0.301859	0	0	0	0	1	4	4
62	2.08399	0.16254	0	0	0	0	1	4	4
62	2.69351	0.24381	0	0	0	0	1	4	4
60	3.08245	0.336689	0	0	0	0	1	4	4
62	3.68617	0.19737	0	0	0	0	1	4	4
62	4.11574	0.162539	0	0	0	0	1	4	4
60	4.52209	0.214785	0	0	0	0	1	4	4
63	6.75701	0.284444	0	0	0	0	1	4	4
62	7.22721	0.20898	0	0	0	0	1	4	4
62	7.43619	0.0406351	0	0	0	0	1	4	4
63	7.51166	0.0290246	0	0	0	0	1	4	4
62	7.62776	0.0406346	0	0	0	0	1	4	4
62	7.67419	0.26703	0	0	0	0	1	4	4
62	8.46367	0.116099	0	0	0	0	1	4	4
60	8.69007	0.0232191	0	0	0	0	1	4	4
58	8.81197	0.22059	0	0	0	0	1	4	4
63	9.24735	0.0812693	0	0	0	0	1	4	4
60	9.59565	0.19737	0	0	0	0	1	4	4
60	9.79302	0.0406351	0	0	0	0	1	4	4
58	10.06	0.203175	0	0	0	0	1	4	4
49	13.6882	0.284445	0	0	0	0	1	4	4
50	14.0655	0.133515	0	0	0	0	1	4	4
51	14.199	0.139319	0	0	0	0	1	4	4
71	15.8941	0.220591	0	0	0	0	1	4	4
58	16.9622	0.0986843	0	0	0	0	1	4	4
46	17.0609	0.145124	0	0	0	0	1	4	4
51	17.3337	0.255419	0	0	0	0	1	4	4
53	17.5891	0.284445	0	0	0	0	1	4	4
60	19.4583	0.0348282	0	0	0	0	1	4	4
61	19.499	0.185759	0	0	0	0	1	4	4
62	19.6847	0.272835	0	0	0	0	1	4	4
61	20.1027	0.0464401	0	0	0	0	1	4	4
61	20.1491	0.0406361	0	0	0	0	1	4	4
62	20.2362	0.139318	0	0	0	0	1	4	4
60	20.5148	0.0406342	0	0	0	0	1	4	4
60	20.5613	0.10449	0	0	0	0	1	4	4
57	22.7556	0.0812702	0	0	0	0	1	4	4
58	22.8368	0.301861	0	0	0	0	1	4	4
55	23.3244	0.0580502	0	0	0	0	1	4	4
62	25.9077	0.197371	0	0	0	0	1	4	4
62	26.5636	0.12771	0	0	0	0	1	4	4
61	26.8132	0.238005	0	0	0	0	1	4	4
60	27.2602	0.139318	0	0	0	0	1	4	4
61	27.6259	0.220591	0	0	0	0	1	4	4
60	27.8465	0.0580482	0	0	0	0	1	4	4
56	28.0207	0.10449	0	0	0	0	1	4	4
57	28.1252	0.0232201	0	0	0	0	1	4	4
57	28.1542	0.16254	0	0	0	0	1	4	4
61	28.4096	0.0232201	0	0	0	0	1	4	4
63	28.5373	0.0406361	0	0	0	0	1	4	4
