midiPitch 	 onsetSec 	 durationSec 	 onsetBeats 	 onsetBarIndex 	 onsetBar 	 durationBeats 	 velocity  	 numerator 	 denominator 
63	0.0464399	0.731429	0	0	3.42275e-035	0	1	4	4
61	1.22485	0.261225	0	0	3.42275e-035	0	1	4	4
56	1.59637	0.121905	0	0	3.42275e-035	0	1	4	4
57	1.71828	0.261225	0	0	3.42275e-035	0	1	4	4
58	1.9795	0.0986847	0	0	3.42275e-035	0	1	4	4
57	2.07819	0.08127	0	0	3.42275e-035	0	1	4	4
53	2.24653	0.0522449	0	0	3.42275e-035	0	1	4	4
54	2.29878	0.0406349	0	0	3.42275e-035	0	1	4	4
54	2.33941	0.1161	0	0	3.42275e-035	0	1	4	4
62	4.20862	0.20898	0	0	3.42275e-035	0	1	4	4
61	4.4176	0.0986848	0	0	3.42275e-035	0	1	4	4
63	4.70204	0.0580502	0	0	3.42275e-035	0	1	4	4
62	4.76009	0.168344	0	0	3.42275e-035	0	1	4	4
61	5.04454	0.0580497	0	0	3.42275e-035	0	1	4	4
63	5.10258	0.19737	0	0	3.42275e-035	0	1	4	4
57	5.48571	0.0696602	0	0	3.42275e-035	0	1	4	4
63	5.68308	0.325079	0	0	3.42275e-035	0	1	4	4
61	6.08363	0.243809	0	0	3.42275e-035	0	1	4	4
58	7.0937	0.110295	0	0	3.42275e-035	0	1	4	4
61	7.20399	0.1161	0	0	3.42275e-035	0	1	4	4
62	7.36073	0.0754647	0	0	3.42275e-035	0	1	4	4
61	7.43619	0.16254	0	0	3.42275e-035	0	1	4	4
62	7.59873	0.145124	0	0	3.42275e-035	0	1	4	4
62	7.89478	0.226394	0	0	3.42275e-035	0	1	4	4
62	8.12118	0.145125	0	0	3.42275e-035	0	1	4	4
62	8.40562	0.0580502	0	0	3.42275e-035	0	1	4	4
62	8.55075	0.10449	0	0	3.42275e-035	0	1	4	4
58	8.75973	0.121905	0	0	3.42275e-035	0	1	4	4
63	9.06159	0.0464401	0	0	3.42275e-035	0	1	4	4
60	9.17188	0.0580502	0	0	3.42275e-035	0	1	4	4
58	9.45052	0.116099	0	0	3.42275e-035	0	1	4	4
62	9.56662	0.406349	0	0	3.42275e-035	0	1	4	4
61	9.97297	0.121905	0	0	3.42275e-035	0	1	4	4
62	10.2806	0.0986843	0	0	3.42275e-035	0	1	4	4
63	10.3793	0.17415	0	0	3.42275e-035	0	1	4	4
61	10.6986	0.25542	0	0	3.42275e-035	0	1	4	4
59	11.9176	0.133514	0	0	3.42275e-035	0	1	4	4
62	12.0686	0.133514	0	0	3.42275e-035	0	1	4	4
63	12.2021	0.0696602	0	0	3.42275e-035	0	1	4	4
62	12.2717	0.0986853	0	0	3.42275e-035	0	1	4	4
61	12.4865	0.0580502	0	0	3.42275e-035	0	1	4	4
62	12.5446	0.25542	0	0	3.42275e-035	0	1	4	4
62	12.9277	0.0754652	0	0	3.42275e-035	0	1	4	4
63	13.0032	0.0812693	0	0	3.42275e-035	0	1	4	4
61	13.2063	0.0986843	0	0	3.42275e-035	0	1	4	4
63	14.7969	0.0870743	0	0	3.42275e-035	0	1	4	4
62	14.9072	0.12771	0	0	3.42275e-035	0	1	4	4
62	15.1742	0.179955	0	0	3.42275e-035	0	1	4	4
62	15.3542	0.133514	0	0	3.42275e-035	0	1	4	4
62	15.598	0.336689	0	0	3.42275e-035	0	1	4	4
62	16.0508	0.226395	0	0	3.42275e-035	0	1	4	4
62	16.2772	1.46286	0	0	3.42275e-035	0	1	4	4
61	18.1464	0.267029	0	0	3.42275e-035	0	1	4	4
56	18.5237	0.10449	0	0	3.42275e-035	0	1	4	4
57	18.6282	0.0464401	0	0	3.42275e-035	0	1	4	4
57	18.6746	0.0580502	0	0	3.42275e-035	0	1	4	4
57	18.7327	0.0464401	0	0	3.42275e-035	0	1	4	4
57	18.7791	0.267029	0	0	3.42275e-035	0	1	4	4
58	25.1762	0.0406342	0	0	3.42275e-035	0	1	4	4
62	25.2169	0.197371	0	0	3.42275e-035	0	1	4	4
62	25.4142	0.16254	0	0	3.42275e-035	0	1	4	4
62	25.7045	0.16254	0	0	3.42275e-035	0	1	4	4
62	25.867	0.168344	0	0	3.42275e-035	0	1	4	4
62	26.0354	0.423763	0	0	3.42275e-035	0	1	4	4
62	26.5288	0.243811	0	0	3.42275e-035	0	1	4	4
62	26.7726	1.0507	0	0	3.42275e-035	0	1	4	4
63	28.5722	0.0754662	0	0	3.42275e-035	0	1	4	4
64	28.6476	0.174149	0	0	3.42275e-035	0	1	4	4
64	28.9146	0.563084	0	0	3.42275e-035	0	1	4	4
