midiPitch 	 onsetSec 	 durationSec 	 onsetBeats 	 onsetBarIndex 	 onsetBar 	 durationBeats 	 velocity  	 numerator 	 denominator 
63	0.12771	0.487619	0	0	4.8898e-035	0	1	4	4
63	0.626939	0.168345	0	0	4.8898e-035	0	1	4	4
60	0.847528	0.16254	0	0	4.8898e-035	0	1	4	4
61	1.01007	0.0290248	0	0	4.8898e-035	0	1	4	4
62	1.0449	0.0232199	0	0	4.8898e-035	0	1	4	4
63	1.07392	0.957823	0	0	4.8898e-035	0	1	4	4
61	2.04916	0.22059	0	0	4.8898e-035	0	1	4	4
62	2.26975	0.110295	0	0	4.8898e-035	0	1	4	4
63	2.38005	0.313469	0	0	4.8898e-035	0	1	4	4
62	2.83864	0.0696597	0	0	4.8898e-035	0	1	4	4
63	2.9083	0.226395	0	0	4.8898e-035	0	1	4	4
61	3.13469	0.121905	0	0	4.8898e-035	0	1	4	4
61	3.40753	0.121905	0	0	4.8898e-035	0	1	4	4
63	3.52943	0.284445	0	0	4.8898e-035	0	1	4	4
61	3.88934	0.296054	0	0	4.8898e-035	0	1	4	4
59	4.1854	0.0348301	0	0	4.8898e-035	0	1	4	4
58	4.22603	0.226395	0	0	4.8898e-035	0	1	4	4
60	4.45243	0.127709	0	0	4.8898e-035	0	1	4	4
61	4.58014	0.336689	0	0	4.8898e-035	0	1	4	4
58	4.91683	0.325079	0	0	4.8898e-035	0	1	4	4
57	5.28834	0.325079	0	0	4.8898e-035	0	1	4	4
57	5.61342	0.12771	0	0	4.8898e-035	0	1	4	4
57	5.74113	0.255419	0	0	4.8898e-035	0	1	4	4
60	5.99655	0.388935	0	0	4.8898e-035	0	1	4	4
70	7.43039	0.603719	0	0	4.8898e-035	0	1	4	4
73	8.09796	0.29025	0	0	4.8898e-035	0	1	4	4
71	8.41723	0.162539	0	0	4.8898e-035	0	1	4	4
73	8.66104	0.801088	0	0	4.8898e-035	0	1	4	4
70	9.47374	0.359909	0	0	4.8898e-035	0	1	4	4
65	9.83365	0.325079	0	0	4.8898e-035	0	1	4	4
72	11.668	0.615329	0	0	4.8898e-035	0	1	4	4
69	12.353	0.284444	0	0	4.8898e-035	0	1	4	4
68	12.6375	0.24381	0	0	4.8898e-035	0	1	4	4
69	12.8813	0.522449	0	0	4.8898e-035	0	1	4	4
67	13.4095	0.383129	0	0	4.8898e-035	0	1	4	4
62	14.0016	0.563084	0	0	4.8898e-035	0	1	4	4
60	14.6518	0.348299	0	0	4.8898e-035	0	1	4	4
62	15.0001	0.0348301	0	0	4.8898e-035	0	1	4	4
58	17.3221	0.116098	0	0	4.8898e-035	0	1	4	4
72	17.4498	0.16254	0	0	4.8898e-035	0	1	4	4
73	17.6123	0.0348301	0	0	4.8898e-035	0	1	4	4
63	17.6646	0.313471	0	0	4.8898e-035	0	1	4	4
63	18.0013	1.03329	0	0	4.8898e-035	0	1	4	4
62	19.0346	0.13932	0	0	4.8898e-035	0	1	4	4
61	19.261	0.0870743	0	0	4.8898e-035	0	1	4	4
62	19.348	0.278641	0	0	4.8898e-035	0	1	4	4
61	20.3639	0.441179	0	0	4.8898e-035	0	1	4	4
57	20.8051	0.0348301	0	0	4.8898e-035	0	1	4	4
58	20.9444	0.330885	0	0	4.8898e-035	0	1	4	4
61	21.2753	0.0812683	0	0	4.8898e-035	0	1	4	4
63	21.3566	0.238005	0	0	4.8898e-035	0	1	4	4
64	21.5946	0.12771	0	0	4.8898e-035	0	1	4	4
64	21.7223	0.714014	0	0	4.8898e-035	0	1	4	4
58	24.0094	0.284445	0	0	4.8898e-035	0	1	4	4
61	24.3693	0.197369	0	0	4.8898e-035	0	1	4	4
61	24.7757	0.162539	0	0	4.8898e-035	0	1	4	4
63	25.1066	0.365715	0	0	4.8898e-035	0	1	4	4
62	25.5942	0.1161	0	0	4.8898e-035	0	1	4	4
63	25.7103	0.238005	0	0	4.8898e-035	0	1	4	4
61	26.1399	0.313469	0	0	4.8898e-035	0	1	4	4
63	26.4533	0.243809	0	0	4.8898e-035	0	1	4	4
68	28.6244	0.110294	0	0	4.8898e-035	0	1	4	4
70	28.7347	0.354105	0	0	4.8898e-035	0	1	4	4
68	29.0888	0.203175	0	0	4.8898e-035	0	1	4	4
