midiPitch 	 onsetSec 	 durationSec 	 onsetBeats 	 onsetBarIndex 	 onsetBar 	 durationBeats 	 velocity  	 numerator 	 denominator 
60	0.13932	0.0464399	0	0	3.4979e-035	0	1	4	4
62	0.191565	0.145125	0	0	3.4979e-035	0	1	4	4
58	0.557279	0.15093	0	0	3.4979e-035	0	1	4	4
60	0.708209	0.377324	0	0	3.4979e-035	0	1	4	4
86827368	1.08553	0.0696598	0	0	3.4979e-035	0	1	4	4
62	1.15519	0.0870749	0	0	3.4979e-035	0	1	4	4
60	1.30612	0.499229	0	0	3.4979e-035	0	1	4	4
60	1.80535	0.0812697	0	0	3.4979e-035	0	1	4	4
60	1.91565	0.0812699	0	0	3.4979e-035	0	1	4	4
62	1.99692	0.325079	0	0	3.4979e-035	0	1	4	4
62	2.97796	0.203175	0	0	3.4979e-035	0	1	4	4
61	3.55846	0.19737	0	0	3.4979e-035	0	1	4	4
65	4.94005	0.22059	0	0	3.4979e-035	0	1	4	4
67	5.3522	0.145124	0	0	3.4979e-035	0	1	4	4
70	5.71791	0.673379	0	0	3.4979e-035	0	1	4	4
68	6.57125	0.150929	0	0	3.4979e-035	0	1	4	4
67	7.0995	0.336689	0	0	3.4979e-035	0	1	4	4
67	7.43619	0.336689	0	0	3.4979e-035	0	1	4	4
65	8.19664	0.22059	0	0	3.4979e-035	0	1	4	4
67	8.45206	0.127709	0	0	3.4979e-035	0	1	4	4
68	8.74231	0.952019	0	0	3.4979e-035	0	1	4	4
60	10.1703	0.203175	0	0	3.4979e-035	0	1	4	4
62	10.3735	0.696599	0	0	3.4979e-035	0	1	4	4
62	11.0701	0.191565	0	0	3.4979e-035	0	1	4	4
60	12.0512	0.319275	0	0	3.4979e-035	0	1	4	4
62	12.5852	0.284444	0	0	3.4979e-035	0	1	4	4
62	12.8697	0.19737	0	0	3.4979e-035	0	1	4	4
60	13.305	0.0638552	0	0	3.4979e-035	0	1	4	4
58	13.723	0.342494	0	0	3.4979e-035	0	1	4	4
62	15.2149	0.168344	0	0	3.4979e-035	0	1	4	4
62	15.5864	0.27864	0	0	3.4979e-035	0	1	4	4
59	15.865	0.452789	0	0	3.4979e-035	0	1	4	4
58	16.3178	0.684988	0	0	3.4979e-035	0	1	4	4
0	17.0028	0.0986843	0	0	3.4979e-035	0	1	4	4
60	17.1015	0.0928802	0	0	3.4979e-035	0	1	4	4
62	18.4192	0.162539	0	0	3.4979e-035	0	1	4	4
65	18.814	0.621134	0	0	3.4979e-035	0	1	4	4
67	19.6151	0.174149	0	0	3.4979e-035	0	1	4	4
69	20.004	0.12771	0	0	3.4979e-035	0	1	4	4
69	20.3639	0.597914	0	0	3.4979e-035	0	1	4	4
67	20.9676	0.232199	0	0	3.4979e-035	0	1	4	4
62	21.4378	0.261225	0	0	3.4979e-035	0	1	4	4
65	21.7281	0.313471	0	0	3.4979e-035	0	1	4	4
65	22.0415	0.760452	0	0	3.4979e-035	0	1	4	4
65	22.802	0.394739	0	0	3.4979e-035	0	1	4	4
54	24.3926	0.220591	0	0	3.4979e-035	0	1	4	4
59	24.9556	0.261223	0	0	3.4979e-035	0	1	4	4
58	25.2169	1.21324	0	0	3.4979e-035	0	1	4	4
57	26.4301	0.0290241	0	0	3.4979e-035	0	1	4	4
