midiPitch 	 onsetSec 	 durationSec 	 onsetBeats 	 onsetBarIndex 	 onsetBar 	 durationBeats 	 velocity  	 numerator 	 denominator 
55	0.110295	0.145125	0	0	0	0	1	4	4
51	0.354104	0.0754648	0	0	0	0	1	4	4
53	0.429569	0.0928798	0	0	0	0	1	4	4
53	0.522449	0.17415	0	0	0	0	1	4	4
54	0.696599	0.278639	0	0	0	0	1	4	4
55	1.09134	0.179955	0	0	0	0	1	4	4
53	1.399	0.0580499	0	0	0	0	1	4	4
51	1.45705	0.0870749	0	0	0	0	1	4	4
48	1.54413	0.0522449	0	0	0	0	1	4	4
55	1.64281	0.20898	0	0	0	0	1	4	4
57	2.05497	0.0580499	0	0	0	0	1	4	4
55	2.11302	0.0696597	0	0	0	0	1	4	4
53	2.18268	0.1161	0	0	0	0	1	4	4
53	2.36844	0.110295	0	0	0	0	1	4	4
59	2.85605	0.087075	0	0	0	0	1	4	4
51	3.06503	0.203175	0	0	0	0	1	4	4
52	3.36109	0.18576	0	0	0	0	1	4	4
58	4.36535	0.156735	0	0	0	0	1	4	4
56	4.58594	0.0464401	0	0	0	0	1	4	4
55	4.63238	0.0232201	0	0	0	0	1	4	4
52	5.34059	0.0986848	0	0	0	0	1	4	4
51	5.79338	0.284445	0	0	0	0	1	4	4
54	6.23456	0.0406351	0	0	0	0	1	4	4
56	6.31583	0.0406351	0	0	0	0	1	4	4
53	6.37968	0.1161	0	0	0	0	1	4	4
51	7.22141	0.0522447	0	0	0	0	1	4	4
71	7.23882	0.0696602	0	0	0	0	1	4	4
71	7.3259	0.0522447	0	0	0	0	1	4	4
75	7.52907	0.0348296	0	0	0	0	1	4	4
74	7.918	0.0696597	0	0	0	0	1	4	4
71	8.1502	0.0696602	0	0	0	0	1	4	4
54	8.7249	0.179955	0	0	0	0	1	4	4
52	9.13705	0.22059	0	0	0	0	1	4	4
51	9.7698	0.121905	0	0	0	0	1	4	4
51	10.1297	0.110294	0	0	0	0	1	4	4
55	10.6289	0.133514	0	0	0	0	1	4	4
56	10.9076	0.278639	0	0	0	0	1	4	4
56	11.3604	0.0986843	0	0	0	0	1	4	4
53	11.5113	0.284444	0	0	0	0	1	4	4
60	13.3108	0.20898	0	0	0	0	1	4	4
53	13.99	0.22059	0	0	0	0	1	4	4
53	14.5299	0.18576	0	0	0	0	1	4	4
50	15.1742	0.104489	0	0	0	0	1	4	4
53	15.54	0.10449	0	0	0	0	1	4	4
54	16.3178	0.139318	0	0	0	0	1	4	4
50	17.264	0.197369	0	0	0	0	1	4	4
69	17.3627	0.179955	0	0	0	0	1	4	4
51	17.8852	0.13932	0	0	0	0	1	4	4
52	18.0767	0.0870743	0	0	0	0	1	4	4
53	18.3205	0.13932	0	0	0	0	1	4	4
52	18.4599	0.0290241	0	0	0	0	1	4	4
52	18.663	0.168344	0	0	0	0	1	4	4
51	18.8546	0.0812702	0	0	0	0	1	4	4
53	19.0578	0.249615	0	0	0	0	1	4	4
54	19.824	0.156734	0	0	0	0	1	4	4
51	20.1898	0.0696602	0	0	0	0	1	4	4
53	20.5671	0.301861	0	0	0	0	1	4	4
52	20.9966	0.179955	0	0	0	0	1	4	4
54	21.461	0.17415	0	0	0	0	1	4	4
52	21.6352	0.104488	0	0	0	0	1	4	4
47	21.7397	0.0232201	0	0	0	0	1	4	4
49	21.8848	0.116098	0	0	0	0	1	4	4
52	22.0009	0.336691	0	0	0	0	1	4	4
52	22.3434	0.13932	0	0	0	0	1	4	4
53	23.2838	0.133514	0	0	0	0	1	4	4
53	24.1778	0.110294	0	0	0	0	1	4	4
53	24.619	0.121906	0	0	0	0	1	4	4
52	25.0195	0.208979	0	0	0	0	1	4	4
54	25.4839	0.278639	0	0	0	0	1	4	4
51	25.7683	0.116098	0	0	0	0	1	4	4
51	26.1108	0.145124	0	0	0	0	1	4	4
53	26.3837	0.197371	0	0	0	0	1	4	4
51	27.0919	0.307665	0	0	0	0	1	4	4
57	28.0845	0.255421	0	0	0	0	1	4	4
