midiPitch 	 onsetSec 	 durationSec 	 onsetBeats 	 onsetBarIndex 	 onsetBar 	 durationBeats 	 velocity  	 numerator 	 denominator 
61	0.121905	0.0290249	0	0	0	0	1	4	4
62	0.16254	0.0464399	0	0	0	0	1	4	4
62	0.20898	0.0290249	0	0	0	0	1	4	4
62	0.272834	0.0638549	0	0	0	0	1	4	4
58	0.557279	0.0928798	0	0	0	0	1	4	4
60	0.714014	0.22059	0	0	0	0	1	4	4
58	1.18422	0.0406349	0	0	0	0	1	4	4
60	1.2771	0.029025	0	0	0	0	1	4	4
60	1.30612	0.464399	0	0	0	0	1	4	4
64	2.93152	0.0232198	0	0	0	0	1	4	4
63	3.11728	0.0696599	0	0	0	0	1	4	4
62	3.21596	0.0290251	0	0	0	0	1	4	4
63	3.47719	0.12771	0	0	0	0	1	4	4
62	3.73261	0.0232201	0	0	0	0	1	4	4
62	3.75583	0.0290248	0	0	0	0	1	4	4
62	3.80807	0.0406349	0	0	0	0	1	4	4
62	3.99964	0.121905	0	0	0	0	1	4	4
58	4.61497	0.0696597	0	0	0	0	1	4	4
60	4.68463	0.12771	0	0	0	0	1	4	4
60	4.81234	0.0754647	0	0	0	0	1	4	4
60	4.90522	0.301859	0	0	0	0	1	4	4
58	5.38122	0.1161	0	0	0	0	1	4	4
60	5.51474	0.0928798	0	0	0	0	1	4	4
60	5.71211	0.0580502	0	0	0	0	1	4	4
59	5.82821	0.0232201	0	0	0	0	1	4	4
60	5.87465	0.0696597	0	0	0	0	1	4	4
59	6.00816	0.0290251	0	0	0	0	1	4	4
60	6.0488	0.0290251	0	0	0	0	1	4	4
60	6.08363	0.0406346	0	0	0	0	1	4	4
60	6.12426	0.0232201	0	0	0	0	1	4	4
60	6.15329	0.12771	0	0	0	0	1	4	4
59	7.43039	0.0870748	0	0	0	0	1	4	4
62	7.62776	0.10449	0	0	0	0	1	4	4
62	7.89478	0.133515	0	0	0	0	1	4	4
62	8.0283	0.116099	0	0	0	0	1	4	4
62	8.20825	0.0406351	0	0	0	0	1	4	4
62	8.27211	0.121904	0	0	0	0	1	4	4
62	8.53333	0.249615	0	0	0	0	1	4	4
58	9.08481	0.0986843	0	0	0	0	1	4	4
60	9.18349	0.272835	0	0	0	0	1	4	4
60	9.45633	0.2322	0	0	0	0	1	4	4
63	9.86848	0.139319	0	0	0	0	1	4	4
62	10.0078	0.0232201	0	0	0	0	1	4	4
62	10.0368	0.139319	0	0	0	0	1	4	4
62	10.1761	0.121905	0	0	0	0	1	4	4
62	10.298	0.267029	0	0	0	0	1	4	4
62	10.6405	0.0464401	0	0	0	0	1	4	4
62	12.4517	0.0870752	0	0	0	0	1	4	4
63	12.9625	0.0464401	0	0	0	0	1	4	4
62	13.009	0.17415	0	0	0	0	1	4	4
60	13.7288	0.10449	0	0	0	0	1	4	4
60	13.8333	0.0928793	0	0	0	0	1	4	4
60	13.9262	0.145124	0	0	0	0	1	4	4
59	14.5705	0.0406351	0	0	0	0	1	4	4
59	14.6112	0.0406351	0	0	0	0	1	4	4
63	15.1568	0.25542	0	0	0	0	1	4	4
62	15.4122	0.18576	0	0	0	0	1	4	4
64	15.7431	0.29025	0	0	0	0	1	4	4
65	16.0392	0.0754662	0	0	0	0	1	4	4
64	16.4107	0.029026	0	0	0	0	1	4	4
64	16.4455	0.0812702	0	0	0	0	1	4	4
63	17.0028	0.0348301	0	0	0	0	1	4	4
62	17.0841	0.0522442	0	0	0	0	1	4	4
61	17.2408	0.0754642	0	0	0	0	1	4	4
62	17.3163	0.110294	0	0	0	0	1	4	4
62	17.473	0.179955	0	0	0	0	1	4	4
62	17.7633	0.0580502	0	0	0	0	1	4	4
65	17.9839	0.377325	0	0	0	0	1	4	4
65	18.396	0.139318	0	0	0	0	1	4	4
64	18.5353	0.255421	0	0	0	0	1	4	4
61	19.2377	0.029026	0	0	0	0	1	4	4
63	19.2726	0.0928802	0	0	0	0	1	4	4
63	19.3654	0.0406342	0	0	0	0	1	4	4
71	23.725	0.0928783	0	0	0	0	1	4	4
65	24.3519	0.1161	0	0	0	0	1	4	4
65	24.468	0.156734	0	0	0	0	1	4	4
66	24.6538	0.377325	0	0	0	0	1	4	4
62	25.0311	0.16254	0	0	0	0	1	4	4
62	25.1937	0.110294	0	0	0	0	1	4	4
66	25.3039	0.655964	0	0	0	0	1	4	4
