midiPitch 	 onsetSec 	 durationSec 	 onsetBeats 	 onsetBarIndex 	 onsetBar 	 durationBeats 	 velocity  	 numerator 	 denominator 
69	0.981043	0.02322	0	0	0	0	1	4	4
69	1.1668	0.029025	0	0	0	0	1	4	4
69	1.20744	0.0232199	0	0	0	0	1	4	4
69	1.28871	0.0232199	0	0	0	0	1	4	4
67	1.32934	0.03483	0	0	0	0	1	4	4
73	1.68345	0.040635	0	0	0	0	1	4	4
68	2.12463	0.0348299	0	0	0	0	1	4	4
68	2.19429	0.0232201	0	0	0	0	1	4	4
68	2.27556	0.0464399	0	0	0	0	1	4	4
82	2.48454	0.0870748	0	0	0	0	1	4	4
82	2.95474	0.075465	0	0	0	0	1	4	4
82	3.0302	0.0870748	0	0	0	0	1	4	4
63	3.48299	0.0870748	0	0	0	0	1	4	4
61	3.57007	0.08127	0	0	0	0	1	4	4
60	3.65134	0.13932	0	0	0	0	1	4	4
58	3.79646	0.0696599	0	0	0	0	1	4	4
58	3.97061	0.191564	0	0	0	0	1	4	4
61	4.16218	0.0928798	0	0	0	0	1	4	4
80	7.33751	0.0580502	0	0	0	0	1	4	4
87	7.39556	0.0986848	0	0	0	0	1	4	4
87	7.49424	0.22059	0	0	0	0	1	4	4
87	7.7961	0.20898	0	0	0	0	1	4	4
87	8.00508	0.17415	0	0	0	0	1	4	4
87	8.17923	0.0928802	0	0	0	0	1	4	4
87	8.27211	0.0986843	0	0	0	0	1	4	4
87	8.37079	0.0638552	0	0	0	0	1	4	4
87	8.43465	0.0696602	0	0	0	0	1	4	4
86	8.51592	0.0464401	0	0	0	0	1	4	4
70	8.52172	0.12771	0	0	0	0	1	4	4
68	8.64943	0.365714	0	0	0	0	1	4	4
71	9.0732	0.20898	0	0	0	0	1	4	4
61	9.6537	0.0928793	0	0	0	0	1	4	4
60	9.74658	0.12771	0	0	0	0	1	4	4
68	9.94975	0.10449	0	0	0	0	1	4	4
70	10.0542	0.156734	0	0	0	0	1	4	4
61	10.2284	0.0928802	0	0	0	0	1	4	4
