midiPitch 	 onsetSec 	 durationSec 	 onsetBeats 	 onsetBarIndex 	 onsetBar 	 durationBeats 	 velocity  	 numerator 	 denominator 
79	0.0522449	0.0928798	0	0	2.27542e-035	0	1	4	4
79	0.22059	0.0696599	0	0	2.27542e-035	0	1	4	4
78	0.290249	0.0290249	0	0	2.27542e-035	0	1	4	4
79	0.446984	0.133515	0	0	2.27542e-035	0	1	4	4
79	0.580499	0.0348299	0	0	2.27542e-035	0	1	4	4
79	1.53252	0.0464399	0	0	2.27542e-035	0	1	4	4
79	2.15946	0.179955	0	0	2.27542e-035	0	1	4	4
77	3.33206	0.0232201	0	0	2.27542e-035	0	1	4	4
79	3.36109	0.0290251	0	0	2.27542e-035	0	1	4	4
79	3.51782	0.0522449	0	0	2.27542e-035	0	1	4	4
86	3.959	0.0348299	0	0	2.27542e-035	0	1	4	4
78	3.99383	0.0522451	0	0	2.27542e-035	0	1	4	4
78	4.0693	0.0232201	0	0	2.27542e-035	0	1	4	4
67	5.13161	0.0232201	0	0	2.27542e-035	0	1	4	4
68	5.15483	0.0290246	0	0	2.27542e-035	0	1	4	4
79	5.18385	0.0522451	0	0	2.27542e-035	0	1	4	4
78	5.29415	0.0348301	0	0	2.27542e-035	0	1	4	4
77	5.34059	0.0406346	0	0	2.27542e-035	0	1	4	4
86	5.43347	0.0348301	0	0	2.27542e-035	0	1	4	4
77	5.65986	0.0232201	0	0	2.27542e-035	0	1	4	4
79	5.8224	0.0406351	0	0	2.27542e-035	0	1	4	4
79	5.86304	0.0348296	0	0	2.27542e-035	0	1	4	4
78	5.92689	0.0232201	0	0	2.27542e-035	0	1	4	4
78	6.75701	0.0406351	0	0	2.27542e-035	0	1	4	4
80	7.05887	0.0348301	0	0	2.27542e-035	0	1	4	4
79	7.10531	0.0290246	0	0	2.27542e-035	0	1	4	4
79	7.25043	0.0638552	0	0	2.27542e-035	0	1	4	4
78	7.31429	0.127709	0	0	2.27542e-035	0	1	4	4
80	7.54648	0.0232201	0	0	2.27542e-035	0	1	4	4
79	7.61034	0.0290246	0	0	2.27542e-035	0	1	4	4
77	7.63936	0.0232201	0	0	2.27542e-035	0	1	4	4
79	8.4985	0.0464392	0	0	2.27542e-035	0	1	4	4
78	8.57397	0.0696602	0	0	2.27542e-035	0	1	4	4
79	8.75973	0.0754652	0	0	2.27542e-035	0	1	4	4
79	9.09061	0.162539	0	0	2.27542e-035	0	1	4	4
78	9.27057	0.104489	0	0	2.27542e-035	0	1	4	4
79	10.4838	0.0348301	0	0	2.27542e-035	0	1	4	4
79	10.5244	0.0406342	0	0	2.27542e-035	0	1	4	4
78	10.9482	0.133514	0	0	2.27542e-035	0	1	4	4
78	11.0817	0.110294	0	0	2.27542e-035	0	1	4	4
79	12.1615	0.0348291	0	0	2.27542e-035	0	1	4	4
80	12.2485	0.0348301	0	0	2.27542e-035	0	1	4	4
80	12.2892	0.0290251	0	0	2.27542e-035	0	1	4	4
79	12.3937	0.0232191	0	0	2.27542e-035	0	1	4	4
80	12.4285	0.0406351	0	0	2.27542e-035	0	1	4	4
79	12.4691	0.0232201	0	0	2.27542e-035	0	1	4	4
79	12.8058	0.0290241	0	0	2.27542e-035	0	1	4	4
80	12.8406	0.0522451	0	0	2.27542e-035	0	1	4	4
78	12.9219	0.0348301	0	0	2.27542e-035	0	1	4	4
78	12.9567	0.0232201	0	0	2.27542e-035	0	1	4	4
79	13.3283	0.0812702	0	0	2.27542e-035	0	1	4	4
79	13.4095	0.0406342	0	0	2.27542e-035	0	1	4	4
78	13.4734	0.0290251	0	0	2.27542e-035	0	1	4	4
82	13.5372	0.0232201	0	0	2.27542e-035	0	1	4	4
79	13.9552	0.0406351	0	0	2.27542e-035	0	1	4	4
79	14.1468	0.0638552	0	0	2.27542e-035	0	1	4	4
80	14.2106	0.0464392	0	0	2.27542e-035	0	1	4	4
79	14.2861	0.0232201	0	0	2.27542e-035	0	1	4	4
79	14.3209	0.0870752	0	0	2.27542e-035	0	1	4	4
80	14.5821	0.0464401	0	0	2.27542e-035	0	1	4	4
78	14.6402	0.0580492	0	0	2.27542e-035	0	1	4	4
80	15.0233	0.0406351	0	0	2.27542e-035	0	1	4	4
79	15.0697	0.0348301	0	0	2.27542e-035	0	1	4	4
79	15.1104	0.0870752	0	0	2.27542e-035	0	1	4	4
79	15.2265	0.0348301	0	0	2.27542e-035	0	1	4	4
79	15.2845	0.0232201	0	0	2.27542e-035	0	1	4	4
79	15.6386	0.261224	0	0	2.27542e-035	0	1	4	4
79	15.9115	0.0580502	0	0	2.27542e-035	0	1	4	4
78	15.9753	0.0348301	0	0	2.27542e-035	0	1	4	4
78	16.016	0.0348301	0	0	2.27542e-035	0	1	4	4
79	16.254	0.0406361	0	0	2.27542e-035	0	1	4	4
79	16.312	0.0928802	0	0	2.27542e-035	0	1	4	4
78	16.73	0.0754662	0	0	2.27542e-035	0	1	4	4
78	16.8229	0.0812702	0	0	2.27542e-035	0	1	4	4
79	16.9041	0.0348301	0	0	2.27542e-035	0	1	4	4
78	17.3163	0.029026	0	0	2.27542e-035	0	1	4	4
78	17.3859	0.0232201	0	0	2.27542e-035	0	1	4	4
78	17.6007	0.0348301	0	0	2.27542e-035	0	1	4	4
78	17.6414	0.0232201	0	0	2.27542e-035	0	1	4	4
79	17.7458	0.029026	0	0	2.27542e-035	0	1	4	4
78	17.7807	0.0232201	0	0	2.27542e-035	0	1	4	4
79	17.9084	0.12771	0	0	2.27542e-035	0	1	4	4
77	18.1696	0.0754642	0	0	2.27542e-035	0	1	4	4
78	18.4424	0.0232182	0	0	2.27542e-035	0	1	4	4
82	18.4657	0.029026	0	0	2.27542e-035	0	1	4	4
79	18.5876	0.104488	0	0	2.27542e-035	0	1	4	4
75	25.3272	0.116098	0	0	2.27542e-035	0	1	4	4
77	25.4491	0.0232201	0	0	2.27542e-035	0	1	4	4
69	25.5652	0.0290241	0	0	2.27542e-035	0	1	4	4
68	25.6	0.0232182	0	0	2.27542e-035	0	1	4	4
68	25.629	0.0232201	0	0	2.27542e-035	0	1	4	4
67	25.6522	0.17415	0	0	2.27542e-035	0	1	4	4
67	25.9889	0.528254	0	0	2.27542e-035	0	1	4	4
67	29.083	0.0928802	0	0	2.27542e-035	0	1	4	4
67	29.1759	0.0290241	0	0	2.27542e-035	0	1	4	4
79	29.1875	0.0696602	0	0	2.27542e-035	0	1	4	4
79	29.4139	0.0638542	0	0	2.27542e-035	0	1	4	4
79	29.501	0.377325	0	0	2.27542e-035	0	1	4	4
