midiPitch 	 onsetSec 	 durationSec 	 onsetBeats 	 onsetBarIndex 	 onsetBar 	 durationBeats 	 velocity  	 numerator 	 denominator 
77	2.5658	0.0928798	0	0	1.73007e-035	0	1	4	4
73	2.65868	0.0580499	0	0	1.73007e-035	0	1	4	4
73	2.86186	0.08127	0	0	1.73007e-035	0	1	4	4
74	3.01279	0.0464399	0	0	1.73007e-035	0	1	4	4
69	3.08825	0.0406349	0	0	1.73007e-035	0	1	4	4
68	3.19855	0.0986848	0	0	1.73007e-035	0	1	4	4
69	3.29723	0.0580499	0	0	1.73007e-035	0	1	4	4
74	3.35528	0.0928798	0	0	1.73007e-035	0	1	4	4
74	3.57007	0.0406351	0	0	1.73007e-035	0	1	4	4
46	5.23029	0.0696597	0	0	1.73007e-035	0	1	4	4
47	5.29995	0.0406351	0	0	1.73007e-035	0	1	4	4
47	5.38703	0.10449	0	0	1.73007e-035	0	1	4	4
48	5.71211	0.22059	0	0	1.73007e-035	0	1	4	4
48	6.02558	0.203175	0	0	1.73007e-035	0	1	4	4
45	6.61188	0.25542	0	0	1.73007e-035	0	1	4	4
44	7.01243	0.238004	0	0	1.73007e-035	0	1	4	4
50	8.13279	0.24381	0	0	1.73007e-035	0	1	4	4
49	8.63782	0.116099	0	0	1.73007e-035	0	1	4	4
55	8.88744	0.203175	0	0	1.73007e-035	0	1	4	4
54	9.29379	0.168344	0	0	1.73007e-035	0	1	4	4
51	9.63628	0.25542	0	0	1.73007e-035	0	1	4	4
54	10.8089	0.0870752	0	0	1.73007e-035	0	1	4	4
54	11.0527	0.127709	0	0	1.73007e-035	0	1	4	4
54	11.2617	0.191565	0	0	1.73007e-035	0	1	4	4
52	11.5519	0.476008	0	0	1.73007e-035	0	1	4	4
53	12.1731	0.249614	0	0	1.73007e-035	0	1	4	4
51	13.2412	0.0986853	0	0	1.73007e-035	0	1	4	4
54	13.4502	0.0522451	0	0	1.73007e-035	0	1	4	4
53	13.6243	0.0696592	0	0	1.73007e-035	0	1	4	4
54	14.0016	0.150929	0	0	1.73007e-035	0	1	4	4
53	14.2396	0.284444	0	0	1.73007e-035	0	1	4	4
52	14.5241	0.24381	0	0	1.73007e-035	0	1	4	4
52	14.8492	0.476008	0	0	1.73007e-035	0	1	4	4
51	15.9115	0.214786	0	0	1.73007e-035	0	1	4	4
52	16.3527	0.127708	0	0	1.73007e-035	0	1	4	4
55	16.579	0.249613	0	0	1.73007e-035	0	1	4	4
49	16.8287	0.0812702	0	0	1.73007e-035	0	1	4	4
51	17.1073	0.307665	0	0	1.73007e-035	0	1	4	4
51	17.6239	0.400545	0	0	1.73007e-035	0	1	4	4
62	19.3596	0.481815	0	0	1.73007e-035	0	1	4	4
57	20.1665	0.0986843	0	0	1.73007e-035	0	1	4	4
60	21.5481	0.232201	0	0	1.73007e-035	0	1	4	4
60	21.7803	0.359909	0	0	1.73007e-035	0	1	4	4
59	22.1402	0.499229	0	0	1.73007e-035	0	1	4	4
59	23.1619	0.243809	0	0	1.73007e-035	0	1	4	4
50	24.2358	0.232201	0	0	1.73007e-035	0	1	4	4
50	24.468	0.168344	0	0	1.73007e-035	0	1	4	4
50	24.7931	0.0812702	0	0	1.73007e-035	0	1	4	4
51	24.8744	0.0232201	0	0	1.73007e-035	0	1	4	4
52	24.9092	0.0348301	0	0	1.73007e-035	0	1	4	4
53	24.9615	0.0406361	0	0	1.73007e-035	0	1	4	4
55	25.0021	0.673378	0	0	1.73007e-035	0	1	4	4
52	26.2269	0.110294	0	0	1.73007e-035	0	1	4	4
50	27.0454	0.0754642	0	0	1.73007e-035	0	1	4	4
61	27.1964	0.179955	0	0	1.73007e-035	0	1	4	4
47	27.5737	0.185759	0	0	1.73007e-035	0	1	4	4
