midiPitch 	 onsetSec 	 durationSec 	 onsetBeats 	 onsetBarIndex 	 onsetBar 	 durationBeats 	 velocity  	 numerator 	 denominator 
58	1.24807	0.510839	0	0	4.66392e-035	0	1	4	4
61	1.75311	0.255419	0	0	4.66392e-035	0	1	4	4
61	2.00853	0.0870748	0	0	4.66392e-035	0	1	4	4
56	2.0956	0.563084	0	0	4.66392e-035	0	1	4	4
65	3.35528	0.121905	0	0	4.66392e-035	0	1	4	4
63627624	3.82549	0.371519	0	0	4.66392e-035	0	1	4	4
49	4.19701	0.534059	0	0	4.66392e-035	0	1	4	4
71	6.3971	0.226394	0	0	4.66392e-035	0	1	4	4
70	6.62349	0.0232201	0	0	4.66392e-035	0	1	4	4
76	10.0949	0.127709	0	0	4.66392e-035	0	1	4	4
77	10.2226	0.24381	0	0	4.66392e-035	0	1	4	4
77	10.4664	0.319274	0	0	4.66392e-035	0	1	4	4
77	10.7857	0.0522451	0	0	4.66392e-035	0	1	4	4
77	10.8379	0.110295	0	0	4.66392e-035	0	1	4	4
77	10.9482	0.0464392	0	0	4.66392e-035	0	1	4	4
66	11.3778	0.15093	0	0	4.66392e-035	0	1	4	4
78	11.5751	0.539864	0	0	4.66392e-035	0	1	4	4
78	12.115	0.168344	0	0	4.66392e-035	0	1	4	4
77	12.2834	0.0928802	0	0	4.66392e-035	0	1	4	4
86	13.3805	0.0812693	0	0	4.66392e-035	0	1	4	4
83	13.5372	0.0870752	0	0	4.66392e-035	0	1	4	4
64	13.3863	0.603719	0	0	4.66392e-035	0	1	4	4
64	14.0249	0.0754642	0	0	4.66392e-035	0	1	4	4
64	14.1003	0.0696602	0	0	4.66392e-035	0	1	4	4
64	14.17	0.203175	0	0	4.66392e-035	0	1	4	4
66	14.3732	0.452789	0	0	4.66392e-035	0	1	4	4
66	14.8259	0.156734	0	0	4.66392e-035	0	1	4	4
64	15.0001	0.17415	0	0	4.66392e-035	0	1	4	4
64	15.8418	0.116099	0	0	4.66392e-035	0	1	4	4
66	16.0392	0.377325	0	0	4.66392e-035	0	1	4	4
66	16.4165	0.12771	0	0	4.66392e-035	0	1	4	4
65	16.5442	0.0580502	0	0	4.66392e-035	0	1	4	4
66	16.6023	0.0812683	0	0	4.66392e-035	0	1	4	4
64	16.7068	0.208981	0	0	4.66392e-035	0	1	4	4
67	16.9273	0.249615	0	0	4.66392e-035	0	1	4	4
67	17.177	0.0290241	0	0	4.66392e-035	0	1	4	4
67	17.206	0.0464401	0	0	4.66392e-035	0	1	4	4
64	17.2524	0.0638542	0	0	4.66392e-035	0	1	4	4
64	17.3163	0.110294	0	0	4.66392e-035	0	1	4	4
67	17.415	0.0464382	0	0	4.66392e-035	0	1	4	4
62	17.4614	0.77787	0	0	4.66392e-035	0	1	4	4
62	18.2567	0.290249	0	0	4.66392e-035	0	1	4	4
63	18.7907	0.179955	0	0	4.66392e-035	0	1	4	4
54	19.2203	0.0406342	0	0	4.66392e-035	0	1	4	4
67	19.6093	0.18576	0	0	4.66392e-035	0	1	4	4
58	19.8473	0.191565	0	0	4.66392e-035	0	1	4	4
61	20.0388	0.255419	0	0	4.66392e-035	0	1	4	4
62	20.2942	0.423765	0	0	4.66392e-035	0	1	4	4
65	25.2575	0.539864	0	0	4.66392e-035	0	1	4	4
66	25.7974	0.0464401	0	0	4.66392e-035	0	1	4	4
64	25.8496	0.0406361	0	0	4.66392e-035	0	1	4	4
63	25.8961	0.16254	0	0	4.66392e-035	0	1	4	4
61	26.0586	0.394739	0	0	4.66392e-035	0	1	4	4
61	26.4766	0.319275	0	0	4.66392e-035	0	1	4	4
61	26.9003	0.74304	0	0	4.66392e-035	0	1	4	4
61	28.9553	0.354105	0	0	4.66392e-035	0	1	4	4
61	29.321	0.121904	0	0	4.66392e-035	0	1	4	4
64	29.4429	0.296055	0	0	4.66392e-035	0	1	4	4
