midiPitch 	 onsetSec 	 durationSec 	 onsetBeats 	 onsetBarIndex 	 onsetBar 	 durationBeats 	 velocity  	 numerator 	 denominator 
62	0.22059	0.13932	0	0	3.27203e-035	0	1	4	4
62	0.406349	0.121905	0	0	3.27203e-035	0	1	4	4
62	0.551474	0.121905	0	0	3.27203e-035	0	1	4	4
55	0.673379	0.121905	0	0	3.27203e-035	0	1	4	4
55	0.806893	0.145125	0	0	3.27203e-035	0	1	4	4
60	1.37578	0.0522449	0	0	3.27203e-035	0	1	4	4
61	1.45125	0.110295	0	0	3.27203e-035	0	1	4	4
54	1.56735	0.0232199	0	0	3.27203e-035	0	1	4	4
61	1.59637	0.0464399	0	0	3.27203e-035	0	1	4	4
52	1.78794	0.0232199	0	0	3.27203e-035	0	1	4	4
57	1.82277	0.0406349	0	0	3.27203e-035	0	1	4	4
57	1.86921	0.0232199	0	0	3.27203e-035	0	1	4	4
59	1.89243	0.0928799	0	0	3.27203e-035	0	1	4	4
60	2.02014	0.0754647	0	0	3.27203e-035	0	1	4	4
57	2.17107	0.133515	0	0	3.27203e-035	0	1	4	4
56	2.30458	0.17415	0	0	3.27203e-035	0	1	4	4
56	2.47873	0.330884	0	0	3.27203e-035	0	1	4	4
55	2.85025	0.0986848	0	0	3.27203e-035	0	1	4	4
54	2.94893	0.2322	0	0	3.27203e-035	0	1	4	4
59	7.58132	0.267029	0	0	3.27203e-035	0	1	4	4
59	8.03991	0.25542	0	0	3.27203e-035	0	1	4	4
58	8.29533	0.0812693	0	0	3.27203e-035	0	1	4	4
60	8.3766	0.168344	0	0	3.27203e-035	0	1	4	4
57	9.7698	0.0290251	0	0	3.27203e-035	0	1	4	4
58	9.82785	0.0638552	0	0	3.27203e-035	0	1	4	4
59	9.97878	0.0928802	0	0	3.27203e-035	0	1	4	4
58	10.1587	0.0870752	0	0	3.27203e-035	0	1	4	4
59	10.5128	0.0754642	0	0	3.27203e-035	0	1	4	4
57	10.6638	0.121904	0	0	3.27203e-035	0	1	4	4
57	11.0121	0.27864	0	0	3.27203e-035	0	1	4	4
59	11.3952	0.0754652	0	0	3.27203e-035	0	1	4	4
56	11.5287	0.2322	0	0	3.27203e-035	0	1	4	4
55	11.7609	0.0290241	0	0	3.27203e-035	0	1	4	4
54	11.7957	0.110295	0	0	3.27203e-035	0	1	4	4
86172008	11.906	0.104489	0	0	3.27203e-035	0	1	4	4
56	12.0105	0.0696602	0	0	3.27203e-035	0	1	4	4
54	12.1498	0.20898	0	0	3.27203e-035	0	1	4	4
55	12.3588	0.0406351	0	0	3.27203e-035	0	1	4	4
55	12.4401	0.32508	0	0	3.27203e-035	0	1	4	4
55	12.7652	0.301859	0	0	3.27203e-035	0	1	4	4
54	14.5357	0.145124	0	0	3.27203e-035	0	1	4	4
55	15.0465	0.0406342	0	0	3.27203e-035	0	1	4	4
59	15.0872	0.0464401	0	0	3.27203e-035	0	1	4	4
57	15.2729	0.0464401	0	0	3.27203e-035	0	1	4	4
57	15.3194	0.0232201	0	0	3.27203e-035	0	1	4	4
57	15.4122	0.0406351	0	0	3.27203e-035	0	1	4	4
60	15.4935	0.0464401	0	0	3.27203e-035	0	1	4	4
60	15.54	0.110295	0	0	3.27203e-035	0	1	4	4
58	15.9579	0.0638552	0	0	3.27203e-035	0	1	4	4
59	16.0334	0.208979	0	0	3.27203e-035	0	1	4	4
55	16.2482	0.0522442	0	0	3.27203e-035	0	1	4	4
59	16.3004	0.0696602	0	0	3.27203e-035	0	1	4	4
57	16.3701	0.121904	0	0	3.27203e-035	0	1	4	4
55	16.492	0.029026	0	0	3.27203e-035	0	1	4	4
55	16.5268	0.110294	0	0	3.27203e-035	0	1	4	4
57	16.6371	0.145126	0	0	3.27203e-035	0	1	4	4
57	16.7822	0.197369	0	0	3.27203e-035	0	1	4	4
54	17.9606	0.0754662	0	0	3.27203e-035	0	1	4	4
54	18.0361	0.0232182	0	0	3.27203e-035	0	1	4	4
55	18.0651	0.0928802	0	0	3.27203e-035	0	1	4	4
55	18.1812	0.104488	0	0	3.27203e-035	0	1	4	4
55	18.6746	0.0696602	0	0	3.27203e-035	0	1	4	4
55	18.7443	0.0696602	0	0	3.27203e-035	0	1	4	4
57	18.8546	0.16254	0	0	3.27203e-035	0	1	4	4
56	19.0171	0.0580482	0	0	3.27203e-035	0	1	4	4
57	19.0752	0.15093	0	0	3.27203e-035	0	1	4	4
53	19.6034	0.110294	0	0	3.27203e-035	0	1	4	4
53	20.3175	0.203175	0	0	3.27203e-035	0	1	4	4
53	20.5497	0.12771	0	0	3.27203e-035	0	1	4	4
53	20.7354	0.0812702	0	0	3.27203e-035	0	1	4	4
53	21.2346	0.0696602	0	0	3.27203e-035	0	1	4	4
51	21.3043	0.0290241	0	0	3.27203e-035	0	1	4	4
57	23.7888	0.0464401	0	0	3.27203e-035	0	1	4	4
60	23.8527	0.1161	0	0	3.27203e-035	0	1	4	4
60	23.9688	0.0290241	0	0	3.27203e-035	0	1	4	4
60	24.0791	0.0986862	0	0	3.27203e-035	0	1	4	4
60	24.1778	0.0522442	0	0	3.27203e-035	0	1	4	4
61	24.23	0.0580502	0	0	3.27203e-035	0	1	4	4
60	24.5261	0.0638542	0	0	3.27203e-035	0	1	4	4
59	24.6015	0.10449	0	0	3.27203e-035	0	1	4	4
86172008	24.8105	0.18576	0	0	3.27203e-035	0	1	4	4
60	24.9963	0.0348301	0	0	3.27203e-035	0	1	4	4
60	25.0311	0.17415	0	0	3.27203e-035	0	1	4	4
59	25.2285	0.0754662	0	0	3.27203e-035	0	1	4	4
60	25.3678	0.10449	0	0	3.27203e-035	0	1	4	4
61	25.4723	0.0754642	0	0	3.27203e-035	0	1	4	4
60	25.9077	0.220591	0	0	3.27203e-035	0	1	4	4
60	26.7088	0.16254	0	0	3.27203e-035	0	1	4	4
60	27.0338	0.255419	0	0	3.27203e-035	0	1	4	4
60	27.417	0.0696583	0	0	3.27203e-035	0	1	4	4
59	27.4866	0.17415	0	0	3.27203e-035	0	1	4	4
60	27.8698	0.139318	0	0	3.27203e-035	0	1	4	4
60	28.1136	0.0464401	0	0	3.27203e-035	0	1	4	4
61	28.3051	0.0522442	0	0	3.27203e-035	0	1	4	4
61	28.3574	0.0348301	0	0	3.27203e-035	0	1	4	4
62	28.3922	0.0522461	0	0	3.27203e-035	0	1	4	4
63	28.4444	0.0928783	0	0	3.27203e-035	0	1	4	4
63	28.5373	0.133516	0	0	3.27203e-035	0	1	4	4
62	28.6708	0.0232201	0	0	3.27203e-035	0	1	4	4
63	28.7347	0.0812702	0	0	3.27203e-035	0	1	4	4
63	28.8798	0.0870743	0	0	3.27203e-035	0	1	4	4
61	28.9959	0.0232201	0	0	3.27203e-035	0	1	4	4
63	29.0424	0.0812683	0	0	3.27203e-035	0	1	4	4
62	29.1352	0.168346	0	0	3.27203e-035	0	1	4	4
59	29.4023	0.0696602	0	0	3.27203e-035	0	1	4	4
60	29.4719	0.0580482	0	0	3.27203e-035	0	1	4	4
59	29.53	0.0638561	0	0	3.27203e-035	0	1	4	4
