midiPitch 	 onsetSec 	 durationSec 	 onsetBeats 	 onsetBarIndex 	 onsetBar 	 durationBeats 	 velocity  	 numerator 	 denominator 
59	0.0928798	0.0406349	0	0	3.55406e-035	0	1	4	4
59	0.133515	0.12771	0	0	3.55406e-035	0	1	4	4
58	0.261224	0.0928798	0	0	3.55406e-035	0	1	4	4
57	0.354104	0.0870748	0	0	3.55406e-035	0	1	4	4
59	0.539864	0.179955	0	0	3.55406e-035	0	1	4	4
59	0.719819	0.145125	0	0	3.55406e-035	0	1	4	4
55	1.14939	0.0638549	0	0	3.55406e-035	0	1	4	4
56	1.21324	0.0232199	0	0	3.55406e-035	0	1	4	4
59	1.38739	0.13932	0	0	3.55406e-035	0	1	4	4
59	1.56154	0.214785	0	0	3.55406e-035	0	1	4	4
59	1.78213	0.17415	0	0	3.55406e-035	0	1	4	4
57	2.04916	0.0348299	0	0	3.55406e-035	0	1	4	4
59	2.24653	0.0638549	0	0	3.55406e-035	0	1	4	4
57	2.98957	0.0580499	0	0	3.55406e-035	0	1	4	4
57	3.04762	0.0986848	0	0	3.55406e-035	0	1	4	4
55	3.1463	0.0232198	0	0	3.55406e-035	0	1	4	4
57	3.17533	0.458594	0	0	3.55406e-035	0	1	4	4
57	3.68036	0.0638549	0	0	3.55406e-035	0	1	4	4
55	3.74422	0.0754647	0	0	3.55406e-035	0	1	4	4
55	3.81968	0.31347	0	0	3.55406e-035	0	1	4	4
61	6.82086	0.13932	0	0	3.55406e-035	0	1	4	4
61	7.88317	0.0406351	0	0	3.55406e-035	0	1	4	4
59	7.92381	0.0406346	0	0	3.55406e-035	0	1	4	4
64	8.13859	0.110295	0	0	3.55406e-035	0	1	4	4
64	9.20671	0.0406351	0	0	3.55406e-035	0	1	4	4
71	9.35184	0.0986853	0	0	3.55406e-035	0	1	4	4
59	9.57243	0.0232201	0	0	3.55406e-035	0	1	4	4
56	9.68853	0.0348301	0	0	3.55406e-035	0	1	4	4
59	9.88009	0.0638542	0	0	3.55406e-035	0	1	4	4
60	10.3271	0.0580492	0	0	3.55406e-035	0	1	4	4
59	10.3851	0.203175	0	0	3.55406e-035	0	1	4	4
60	10.687	0.0348301	0	0	3.55406e-035	0	1	4	4
63	10.7218	0.0928793	0	0	3.55406e-035	0	1	4	4
63	10.8147	0.0464401	0	0	3.55406e-035	0	1	4	4
60	11.459	0.0406351	0	0	3.55406e-035	0	1	4	4
59	11.5229	0.0348301	0	0	3.55406e-035	0	1	4	4
60	11.7261	0.17415	0	0	3.55406e-035	0	1	4	4
63	12.0802	0.133514	0	0	3.55406e-035	0	1	4	4
63	12.2776	0.110295	0	0	3.55406e-035	0	1	4	4
62	12.3878	0.0406342	0	0	3.55406e-035	0	1	4	4
61	12.4343	0.0580502	0	0	3.55406e-035	0	1	4	4
56	12.5388	0.0638552	0	0	3.55406e-035	0	1	4	4
61	12.8813	0.12771	0	0	3.55406e-035	0	1	4	4
63	13.1947	0.139319	0	0	3.55406e-035	0	1	4	4
63	13.3921	0.156734	0	0	3.55406e-035	0	1	4	4
62	13.5488	0.0232201	0	0	3.55406e-035	0	1	4	4
59	13.5895	0.145124	0	0	3.55406e-035	0	1	4	4
63	13.9726	0.0522451	0	0	3.55406e-035	0	1	4	4
64	14.2687	0.0348301	0	0	3.55406e-035	0	1	4	4
61	14.3267	0.0406351	0	0	3.55406e-035	0	1	4	4
60	14.5589	0.238005	0	0	3.55406e-035	0	1	4	4
62	15.0872	0.203175	0	0	3.55406e-035	0	1	4	4
64	15.598	0.0986843	0	0	3.55406e-035	0	1	4	4
60	15.6967	0.0522451	0	0	3.55406e-035	0	1	4	4
64	16.0334	0.0696602	0	0	3.55406e-035	0	1	4	4
61	16.103	0.0348301	0	0	3.55406e-035	0	1	4	4
66	16.5268	0.029026	0	0	3.55406e-035	0	1	4	4
63	17.1247	0.16254	0	0	3.55406e-035	0	1	4	4
56	17.2873	0.0232201	0	0	3.55406e-035	0	1	4	4
63	17.9258	0.0348301	0	0	3.55406e-035	0	1	4	4
64	17.9606	0.179955	0	0	3.55406e-035	0	1	4	4
58	19.4409	0.0986843	0	0	3.55406e-035	0	1	4	4
59	19.6557	0.0232201	0	0	3.55406e-035	0	1	4	4
59	19.6847	0.197371	0	0	3.55406e-035	0	1	4	4
59	20.1607	0.0232201	0	0	3.55406e-035	0	1	4	4
65	20.5787	0.145124	0	0	3.55406e-035	0	1	4	4
59	20.7354	0.16254	0	0	3.55406e-035	0	1	4	4
63	21.1302	0.0348301	0	0	3.55406e-035	0	1	4	4
66	21.5481	0.0232201	0	0	3.55406e-035	0	1	4	4
66	21.8732	0.0580502	0	0	3.55406e-035	0	1	4	4
58	21.9661	0.0986862	0	0	3.55406e-035	0	1	4	4
62	22.1576	0.0986862	0	0	3.55406e-035	0	1	4	4
63	22.4769	0.0348301	0	0	3.55406e-035	0	1	4	4
62	22.5408	0.150928	0	0	3.55406e-035	0	1	4	4
66	23.04	0.0522461	0	0	3.55406e-035	0	1	4	4
62	23.2606	0.10449	0	0	3.55406e-035	0	1	4	4
60	23.7714	0.133514	0	0	3.55406e-035	0	1	4	4
52	24.4332	0.0812702	0	0	3.55406e-035	0	1	4	4
52	24.5145	0.0638542	0	0	3.55406e-035	0	1	4	4
53	24.5783	0.0290241	0	0	3.55406e-035	0	1	4	4
50	25.3272	0.127708	0	0	3.55406e-035	0	1	4	4
86	26.8365	0.0638542	0	0	3.55406e-035	0	1	4	4
78	26.9003	0.029026	0	0	3.55406e-035	0	1	4	4
81	26.97	0.0232201	0	0	3.55406e-035	0	1	4	4
81	27.3415	0.0696602	0	0	3.55406e-035	0	1	4	4
84	28.1716	0.208979	0	0	3.55406e-035	0	1	4	4
