midiPitch 	 onsetSec 	 durationSec 	 onsetBeats 	 onsetBarIndex 	 onsetBar 	 durationBeats 	 velocity  	 numerator 	 denominator 
62	0.214785	0.17415	0	0	0	0	1	4	4
59	0.493424	0.0928798	0	0	0	0	1	4	4
59	0.586304	0.0754648	0	0	0	0	1	4	4
63	0.824308	0.0348299	0	0	0	0	1	4	4
61	0.864943	0.1161	0	0	0	0	1	4	4
61	1.12036	0.10449	0	0	0	0	1	4	4
58	1.23646	0.029025	0	0	0	0	1	4	4
59	1.26549	0.0232199	0	0	0	0	1	4	4
67	1.399	0.121905	0	0	0	0	1	4	4
64	1.55574	0.0754648	0	0	0	0	1	4	4
65	1.6312	0.121905	0	0	0	0	1	4	4
63	1.88082	0.0348299	0	0	0	0	1	4	4
66	2.10721	0.0580499	0	0	0	0	1	4	4
65	2.16526	0.0638547	0	0	0	0	1	4	4
68	2.42649	0.12771	0	0	0	0	1	4	4
65	3.15791	0.0464399	0	0	0	0	1	4	4
66	3.3785	0.0986848	0	0	0	0	1	4	4
67	3.6049	0.110295	0	0	0	0	1	4	4
65	3.71519	0.0406349	0	0	0	0	1	4	4
67	3.9532	0.0464399	0	0	0	0	1	4	4
57	4.34794	0.0290246	0	0	0	0	1	4	4
58	4.60916	0.13932	0	0	0	0	1	4	4
59	4.74848	0.0638547	0	0	0	0	1	4	4
58	4.95746	0.272834	0	0	0	0	1	4	4
61	5.52054	0.0812697	0	0	0	0	1	4	4
58	5.60762	0.0638552	0	0	0	0	1	4	4
57	5.67147	0.0348296	0	0	0	0	1	4	4
58	5.74694	0.0812697	0	0	0	0	1	4	4
58	6.02558	0.0348301	0	0	0	0	1	4	4
59	6.281	0.1161	0	0	0	0	1	4	4
58	6.42032	0.0812702	0	0	0	0	1	4	4
59	6.52481	0.0232201	0	0	0	0	1	4	4
55	6.56544	0.0986848	0	0	0	0	1	4	4
54	6.91374	0.145124	0	0	0	0	1	4	4
55	7.30268	0.0232201	0	0	0	0	1	4	4
56	7.34331	0.0696602	0	0	0	0	1	4	4
56	7.61615	0.0232196	0	0	0	0	1	4	4
55	7.63936	0.0812702	0	0	0	0	1	4	4
56	8.03991	0.296054	0	0	0	0	1	4	4
56	8.7307	0.16254	0	0	0	0	1	4	4
55	8.89324	0.0232191	0	0	0	0	1	4	4
55	9.17188	0.0870752	0	0	0	0	1	4	4
55	9.4215	0.139319	0	0	0	0	1	4	4
55	9.56082	0.0696602	0	0	0	0	1	4	4
56	9.7698	0.0638552	0	0	0	0	1	4	4
55	9.8917	0.116099	0	0	0	0	1	4	4
57	10.211	0.0696602	0	0	0	0	1	4	4
56	10.2806	0.0754642	0	0	0	0	1	4	4
54	10.3561	0.0522451	0	0	0	0	1	4	4
54	10.4083	0.0232201	0	0	0	0	1	4	4
57	10.4374	0.0290251	0	0	0	0	1	4	4
57	10.4722	0.0348301	0	0	0	0	1	4	4
56	10.5128	0.0232201	0	0	0	0	1	4	4
56	10.5361	0.0232191	0	0	0	0	1	4	4
55	10.5593	0.0406351	0	0	0	0	1	4	4
56	10.8205	0.133515	0	0	0	0	1	4	4
57	11.1224	0.0348301	0	0	0	0	1	4	4
56	11.2094	0.0928802	0	0	0	0	1	4	4
56	11.6622	0.0464401	0	0	0	0	1	4	4
56	11.7725	0.0290241	0	0	0	0	1	4	4
56	11.8073	0.0638552	0	0	0	0	1	4	4
56	12.0163	0.0928802	0	0	0	0	1	4	4
56	12.1324	0.0348301	0	0	0	0	1	4	4
56	12.1731	0.0406342	0	0	0	0	1	4	4
54	12.4981	0.0406351	0	0	0	0	1	4	4
55	12.6781	0.0464401	0	0	0	0	1	4	4
56	12.7652	0.0290251	0	0	0	0	1	4	4
56	12.7942	0.0232191	0	0	0	0	1	4	4
57	13.038	0.0522451	0	0	0	0	1	4	4
58	13.0961	0.0232201	0	0	0	0	1	4	4
55	13.3108	0.0232201	0	0	0	0	1	4	4
56	13.3399	0.0348301	0	0	0	0	1	4	4
56	13.3979	0.0232201	0	0	0	0	1	4	4
57	13.4211	0.0580492	0	0	0	0	1	4	4
58	13.4792	0.0406351	0	0	0	0	1	4	4
58	13.5488	0.0290251	0	0	0	0	1	4	4
57	13.6069	0.0464392	0	0	0	0	1	4	4
56	13.6533	0.0348301	0	0	0	0	1	4	4
57	13.8565	0.0522451	0	0	0	0	1	4	4
57	13.9088	0.150929	0	0	0	0	1	4	4
57	14.0597	0.0232201	0	0	0	0	1	4	4
57	14.0887	0.0522451	0	0	0	0	1	4	4
57	14.1874	0.0348301	0	0	0	0	1	4	4
57	14.2338	0.0290241	0	0	0	0	1	4	4
56	14.2861	0.0348301	0	0	0	0	1	4	4
57	14.6286	0.0232201	0	0	0	0	1	4	4
57	14.7331	0.0406351	0	0	0	0	1	4	4
54	14.9711	0.0638552	0	0	0	0	1	4	4
57	15.36	0.0348301	0	0	0	0	1	4	4
54	15.6212	0.0290251	0	0	0	0	1	4	4
53	15.6502	0.0812693	0	0	0	0	1	4	4
54	15.8999	0.0348301	0	0	0	0	1	4	4
56	15.9347	0.0348301	0	0	0	0	1	4	4
58	16.2191	0.17415	0	0	0	0	1	4	4
57	16.4339	0.0348301	0	0	0	0	1	4	4
54	16.6255	0.0638561	0	0	0	0	1	4	4
60	17.0318	0.13932	0	0	0	0	1	4	4
59	17.1712	0.0232201	0	0	0	0	1	4	4
60	17.2002	0.174149	0	0	0	0	1	4	4
61	17.6762	0.0406361	0	0	0	0	1	4	4
60	18.7501	0.029026	0	0	0	0	1	4	4
62	18.7907	0.168344	0	0	0	0	1	4	4
57	19.4119	0.238005	0	0	0	0	1	4	4
60	19.9227	0.0870762	0	0	0	0	1	4	4
57	20.0446	0.0812683	0	0	0	0	1	4	4
57	20.0446	0.0870743	0	0	0	0	1	4	4
59	20.1201	0.01161	0	0	0	0	1	4	4
57	20.0446	0.0928783	0	0	0	0	1	4	4
59	20.1201	0.0174141	0	0	0	0	1	4	4
57	20.0446	0.0986843	0	0	0	0	1	4	4
59	20.1201	0.0870743	0	0	0	0	1	4	4
59	20.5148	0.0928802	0	0	0	0	1	4	4
60	20.7238	0.238005	0	0	0	0	1	4	4
87744872	21.2405	0.116098	0	0	0	0	1	4	4
60	21.3566	0.13932	0	0	0	0	1	4	4
59	22.0125	0.12771	0	0	0	0	1	4	4
59	22.1402	0.0406342	0	0	0	0	1	4	4
61	22.326	0.0928783	0	0	0	0	1	4	4
60	22.4189	0.12771	0	0	0	0	1	4	4
59	22.5466	0.0348301	0	0	0	0	1	4	4
59	22.9703	0.220591	0	0	0	0	1	4	4
55	23.307	0.156734	0	0	0	0	1	4	4
55	24.1197	0.255419	0	0	0	0	1	4	4
55	24.4042	0.0812702	0	0	0	0	1	4	4
56	24.5725	0.162539	0	0	0	0	1	4	4
55	25.1008	0.10449	0	0	0	0	1	4	4
55	25.2053	0.0348282	0	0	0	0	1	4	4
55	25.2401	0.121906	0	0	0	0	1	4	4
56	25.362	0.133514	0	0	0	0	1	4	4
56	26.1573	0.214785	0	0	0	0	1	4	4
55	26.3721	0.0696602	0	0	0	0	1	4	4
57	26.5694	0.179955	0	0	0	0	1	4	4
60	27.3241	0.0348301	0	0	0	0	1	4	4
60	27.3589	0.0290241	0	0	0	0	1	4	4
59	27.4228	0.0232201	0	0	0	0	1	4	4
58	27.4518	0.0464382	0	0	0	0	1	4	4
58	27.4982	0.029026	0	0	0	0	1	4	4
60	27.5273	0.174149	0	0	0	0	1	4	4
61	27.8814	0.0812702	0	0	0	0	1	4	4
59	27.9626	0.0986862	0	0	0	0	1	4	4
59	28.1252	0.156734	0	0	0	0	1	4	4
59	28.4212	0.133514	0	0	0	0	1	4	4
58	28.5547	0.179955	0	0	0	0	1	4	4
60	28.7347	0.197369	0	0	0	0	1	4	4
60	29.112	0.13932	0	0	0	0	1	4	4
59	29.2513	0.10449	0	0	0	0	1	4	4
59	29.4139	0.145124	0	0	0	0	1	4	4
