midiPitch 	 onsetSec 	 durationSec 	 onsetBeats 	 onsetBarIndex 	 onsetBar 	 durationBeats 	 velocity  	 numerator 	 denominator 
60	5.49732	0.313469	0	0	0	0	1	4	4
62	5.81079	0.20898	0	0	0	0	1	4	4
62	6.11265	0.145125	0	0	0	0	1	4	4
61	6.48417	0.412154	0	0	0	0	1	4	4
62	6.89633	0.261224	0	0	0	0	1	4	4
61	8.4927	0.545669	0	0	0	0	1	4	4
61	9.12544	0.17415	0	0	0	0	1	4	4
62	9.32862	0.0986853	0	0	0	0	1	4	4
59	9.52018	0.127709	0	0	0	0	1	4	4
60	9.71755	0.296054	0	0	0	0	1	4	4
61	16.1611	0.510838	0	0	0	0	1	4	4
62	16.7532	0.17415	0	0	0	0	1	4	4
61	17.1595	0.400545	0	0	0	0	1	4	4
62	17.5601	0.255419	0	0	0	0	1	4	4
62	19.1913	0.417959	0	0	0	0	1	4	4
61	19.6905	0.16254	0	0	0	0	1	4	4
62	19.8937	0.110294	0	0	0	0	1	4	4
60	20.2942	0.307665	0	0	0	0	1	4	4
59	25.9657	0.214785	0	0	0	0	1	4	4
58	26.2211	0.394739	0	0	0	0	1	4	4
58	26.6159	0.992653	0	0	0	0	1	4	4
55	27.684	0.16254	0	0	0	0	1	4	4
55	27.9568	0.1161	0	0	0	0	1	4	4
54	28.0729	0.0812683	0	0	0	0	1	4	4
54	28.1542	0.243811	0	0	0	0	1	4	4
