midiPitch 	 onsetSec 	 durationSec 	 onsetBeats 	 onsetBarIndex 	 onsetBar 	 durationBeats 	 velocity  	 numerator 	 denominator 
62	0.0406349	0.394739	0	0	2.04998e-035	0	1	4	4
61	0.621134	0.301859	0	0	2.04998e-035	0	1	4	4
55	0.922993	0.284444	0	0	2.04998e-035	0	1	4	4
55	1.23646	0.0870748	0	0	2.04998e-035	0	1	4	4
56	1.32354	0.0986848	0	0	2.04998e-035	0	1	4	4
56	1.43964	0.795283	0	0	2.04998e-035	0	1	4	4
57	3.65134	0.325079	0	0	2.04998e-035	0	1	4	4
55	3.97642	0.0580502	0	0	2.04998e-035	0	1	4	4
55	4.03447	0.0348296	0	0	2.04998e-035	0	1	4	4
53	4.13315	0.342494	0	0	2.04998e-035	0	1	4	4
62	4.64399	0.650158	0	0	2.04998e-035	0	1	4	4
62	5.29415	0.27864	0	0	2.04998e-035	0	1	4	4
60	5.7005	0.19737	0	0	2.04998e-035	0	1	4	4
64	6.0488	0.470204	0	0	2.04998e-035	0	1	4	4
63	6.519	0.15093	0	0	2.04998e-035	0	1	4	4
64	6.66993	0.296054	0	0	2.04998e-035	0	1	4	4
60	8.85261	0.150929	0	0	2.04998e-035	0	1	4	4
60	9.12544	0.0870752	0	0	2.04998e-035	0	1	4	4
60	9.21252	0.383129	0	0	2.04998e-035	0	1	4	4
60	9.85107	0.284445	0	0	2.04998e-035	0	1	4	4
60	10.1355	0.238004	0	0	2.04998e-035	0	1	4	4
58	10.5593	0.110295	0	0	2.04998e-035	0	1	4	4
57	10.8379	0.261225	0	0	2.04998e-035	0	1	4	4
55	11.4068	0.156735	0	0	2.04998e-035	0	1	4	4
53	11.7029	0.470204	0	0	2.04998e-035	0	1	4	4
65	13.961	0.551474	0	0	2.04998e-035	0	1	4	4
62	14.6228	0.17415	0	0	2.04998e-035	0	1	4	4
60	14.9478	0.446984	0	0	2.04998e-035	0	1	4	4
52	15.9811	0.0406351	0	0	2.04998e-035	0	1	4	4
51	16.1205	0.0696602	0	0	2.04998e-035	0	1	4	4
64	18.0883	0.232199	0	0	2.04998e-035	0	1	4	4
62	18.3205	0.284445	0	0	2.04998e-035	0	1	4	4
60	18.605	0.272835	0	0	2.04998e-035	0	1	4	4
60	19.0462	0.609524	0	0	2.04998e-035	0	1	4	4
65	20.1723	0.220591	0	0	2.04998e-035	0	1	4	4
62	22.0938	0.510839	0	0	2.04998e-035	0	1	4	4
62	22.6046	0.307665	0	0	2.04998e-035	0	1	4	4
58	23.0342	0.232199	0	0	2.04998e-035	0	1	4	4
58	23.4057	0.156734	0	0	2.04998e-035	0	1	4	4
58	23.7076	0.0696602	0	0	2.04998e-035	0	1	4	4
59	23.7772	0.0290241	0	0	2.04998e-035	0	1	4	4
55	24.0385	0.830112	0	0	2.04998e-035	0	1	4	4
58	25.0892	0.185759	0	0	2.04998e-035	0	1	4	4
57	26.0876	0.835918	0	0	2.04998e-035	0	1	4	4
55	27.0687	0.029026	0	0	2.04998e-035	0	1	4	4
57	27.1209	0.0290241	0	0	2.04998e-035	0	1	4	4
57	27.1557	0.174149	0	0	2.04998e-035	0	1	4	4
57	27.3299	0.0464401	0	0	2.04998e-035	0	1	4	4
57	27.3763	0.1161	0	0	2.04998e-035	0	1	4	4
56	27.4924	0.0348301	0	0	2.04998e-035	0	1	4	4
55	27.5389	0.0406342	0	0	2.04998e-035	0	1	4	4
53	28.1484	0.0406342	0	0	2.04998e-035	0	1	4	4
