midiPitch 	 onsetSec 	 durationSec 	 onsetBeats 	 onsetBarIndex 	 onsetBar 	 durationBeats 	 velocity  	 numerator 	 denominator 
58	0.272834	0.145125	0	0	0	0	1	4	4
59	0.417959	0.203175	0	0	0	0	1	4	4
57	0.621134	0.13932	0	0	0	0	1	4	4
57	0.760454	0.10449	0	0	0	0	1	4	4
56	0.864943	0.249614	0	0	0	0	1	4	4
58	1.17841	0.0928798	0	0	0	0	1	4	4
59	1.27129	0.24381	0	0	0	0	1	4	4
58	1.5151	0.0638548	0	0	0	0	1	4	4
51	1.59057	0.203175	0	0	0	0	1	4	4
57	2.55419	0.2322	0	0	0	0	1	4	4
55	2.88508	0.145125	0	0	0	0	1	4	4
53	3.09986	0.261224	0	0	0	0	1	4	4
57	3.50041	0.267029	0	0	0	0	1	4	4
51	4.22603	0.226395	0	0	0	0	1	4	4
53	4.45243	0.238004	0	0	0	0	1	4	4
48	4.882	0.25542	0	0	0	0	1	4	4
54	5.63664	0.156734	0	0	0	0	1	4	4
48	7.27946	0.0812697	0	0	0	0	1	4	4
50	7.36073	0.307664	0	0	0	0	1	4	4
53	7.66839	0.795284	0	0	0	0	1	4	4
52	8.51592	0.0580502	0	0	0	0	1	4	4
53	9.75238	0.191565	0	0	0	0	1	4	4
