midiPitch 	 onsetSec 	 durationSec 	 onsetBeats 	 onsetBarIndex 	 onsetBar 	 durationBeats 	 velocity  	 numerator 	 denominator 
58	0.0812698	0.574694	0	0	2.40708e-035	0	1	4	4
60	0.714014	0.284444	0	0	2.40708e-035	0	1	4	4
62	1.21905	0.10449	0	0	2.40708e-035	0	1	4	4
62	1.32354	1.41061	0	0	2.40708e-035	0	1	4	4
63	3.29723	0.551474	0	0	2.40708e-035	0	1	4	4
63	3.84871	0.30186	0	0	2.40708e-035	0	1	4	4
65	4.15057	0.626938	0	0	2.40708e-035	0	1	4	4
67	4.85878	0.336689	0	0	2.40708e-035	0	1	4	4
67	5.31737	2.53678	0	0	2.40708e-035	0	1	4	4
67	7.85415	0.12771	0	0	2.40708e-035	0	1	4	4
68	7.98186	0.110295	0	0	2.40708e-035	0	1	4	4
69	8.69007	2.72834	0	0	2.40708e-035	0	1	4	4
65	11.9467	0.377324	0	0	2.40708e-035	0	1	4	4
55	12.324	0.795283	0	0	2.40708e-035	0	1	4	4
56	13.2702	0.226395	0	0	2.40708e-035	0	1	4	4
57	13.6824	0.342495	0	0	2.40708e-035	0	1	4	4
52	14.2629	0.3483	0	0	2.40708e-035	0	1	4	4
53	14.6112	0.2322	0	0	2.40708e-035	0	1	4	4
54	14.8434	0.150929	0	0	2.40708e-035	0	1	4	4
53	15.54	0.0986853	0	0	2.40708e-035	0	1	4	4
55	15.9347	0.33669	0	0	2.40708e-035	0	1	4	4
53	16.2714	0.203175	0	0	2.40708e-035	0	1	4	4
56	16.4746	0.330885	0	0	2.40708e-035	0	1	4	4
53	16.8054	0.249613	0	0	2.40708e-035	0	1	4	4
57	17.4208	0.272835	0	0	2.40708e-035	0	1	4	4
53	17.8387	0.208979	0	0	2.40708e-035	0	1	4	4
0	18.0477	0.0986862	0	0	2.40708e-035	0	1	4	4
53	18.1464	0.261225	0	0	2.40708e-035	0	1	4	4
53	19.1274	0.185759	0	0	2.40708e-035	0	1	4	4
55	19.4525	0.446983	0	0	2.40708e-035	0	1	4	4
56	20.538	0.232199	0	0	2.40708e-035	0	1	4	4
57	20.8399	0.406349	0	0	2.40708e-035	0	1	4	4
54	21.2869	0.377323	0	0	2.40708e-035	0	1	4	4
53	21.6642	0.15093	0	0	2.40708e-035	0	1	4	4
53	21.8151	0.145124	0	0	2.40708e-035	0	1	4	4
54	21.9603	0.110294	0	0	2.40708e-035	0	1	4	4
65	22.6685	0.17415	0	0	2.40708e-035	0	1	4	4
61	22.8426	0.0812702	0	0	2.40708e-035	0	1	4	4
54	22.9239	0.522448	0	0	2.40708e-035	0	1	4	4
64	23.516	0.348299	0	0	2.40708e-035	0	1	4	4
64	24.4738	0.255421	0	0	2.40708e-035	0	1	4	4
55	24.886	0.197369	0	0	2.40708e-035	0	1	4	4
57	25.0834	0.255421	0	0	2.40708e-035	0	1	4	4
53	25.391	0.330885	0	0	2.40708e-035	0	1	4	4
53	25.7219	0.139318	0	0	2.40708e-035	0	1	4	4
53	25.8612	0.15093	0	0	2.40708e-035	0	1	4	4
53	26.0122	0.17415	0	0	2.40708e-035	0	1	4	4
62	27.0687	0.539865	0	0	2.40708e-035	0	1	4	4
62	27.8698	0.255419	0	0	2.40708e-035	0	1	4	4
66	28.3516	0.0986843	0	0	2.40708e-035	0	1	4	4
65	28.4502	0.232201	0	0	2.40708e-035	0	1	4	4
62	28.6824	0.116098	0	0	2.40708e-035	0	1	4	4
0	28.7985	0.220591	0	0	2.40708e-035	0	1	4	4
58	29.0191	0.232199	0	0	2.40708e-035	0	1	4	4
0	29.2513	0.0812702	0	0	2.40708e-035	0	1	4	4
57	29.3326	0.325079	0	0	2.40708e-035	0	1	4	4
