midiPitch 	 onsetSec 	 durationSec 	 onsetBeats 	 onsetBarIndex 	 onsetBar 	 durationBeats 	 velocity  	 numerator 	 denominator 
68	1.59637	0.0638548	0	0	4.1939e-035	0	1	4	4
66	6.25197	0.0638547	0	0	4.1939e-035	0	1	4	4
66	6.31583	0.0580502	0	0	4.1939e-035	0	1	4	4
66	6.37388	0.0580497	0	0	4.1939e-035	0	1	4	4
72	6.83828	0.26703	0	0	4.1939e-035	0	1	4	4
65	10.7276	0.0464392	0	0	4.1939e-035	0	1	4	4
65	10.8031	0.19737	0	0	4.1939e-035	0	1	4	4
65	11.3081	0.0464401	0	0	4.1939e-035	0	1	4	4
66	11.3546	0.104489	0	0	4.1939e-035	0	1	4	4
65	11.459	0.0986853	0	0	4.1939e-035	0	1	4	4
65	11.8248	0.12771	0	0	4.1939e-035	0	1	4	4
65	14.0365	0.18576	0	0	4.1939e-035	0	1	4	4
65	14.2222	0.110294	0	0	4.1939e-035	0	1	4	4
65	14.3325	0.0522451	0	0	4.1939e-035	0	1	4	4
82	14.466	0.0464401	0	0	4.1939e-035	0	1	4	4
83	14.5125	0.0812702	0	0	4.1939e-035	0	1	4	4
81	14.9827	0.150929	0	0	4.1939e-035	0	1	4	4
78	15.151	0.0232201	0	0	4.1939e-035	0	1	4	4
78	15.18	0.0638552	0	0	4.1939e-035	0	1	4	4
78	15.2729	0.0754652	0	0	4.1939e-035	0	1	4	4
78	18.6746	0.0522442	0	0	4.1939e-035	0	1	4	4
80	18.7269	0.0348301	0	0	4.1939e-035	0	1	4	4
83	18.7675	0.121904	0	0	4.1939e-035	0	1	4	4
84	19.1449	0.0522461	0	0	4.1939e-035	0	1	4	4
65	19.1274	0.296055	0	0	4.1939e-035	0	1	4	4
67	19.4757	0.0870743	0	0	4.1939e-035	0	1	4	4
67	19.5628	0.296055	0	0	4.1939e-035	0	1	4	4
66	21.1882	0.0522461	0	0	4.1939e-035	0	1	4	4
66	21.2405	0.168344	0	0	4.1939e-035	0	1	4	4
65	21.6004	0.0986843	0	0	4.1939e-035	0	1	4	4
65	21.699	0.0522442	0	0	4.1939e-035	0	1	4	4
65	21.7861	0.290251	0	0	4.1939e-035	0	1	4	4
65	22.0764	0.0290241	0	0	4.1939e-035	0	1	4	4
65	22.1286	0.17415	0	0	4.1939e-035	0	1	4	4
64	22.7033	0.214785	0	0	4.1939e-035	0	1	4	4
84	23.8875	0.55728	0	0	4.1939e-035	0	1	4	4
60	25.0776	0.330885	0	0	4.1939e-035	0	1	4	4
60	25.542	0.232199	0	0	4.1939e-035	0	1	4	4
60	25.7741	0.0406361	0	0	4.1939e-035	0	1	4	4
