midiPitch 	 onsetSec 	 durationSec 	 onsetBeats 	 onsetBarIndex 	 onsetBar 	 durationBeats 	 velocity  	 numerator 	 denominator 
70	0.17415	0.15093	0	0	1.95571e-035	0	1	4	4
72	0.325079	0.13932	0	0	1.95571e-035	0	1	4	4
72	0.464399	0.24381	0	0	1.95571e-035	0	1	4	4
72	0.708209	0.446984	0	0	1.95571e-035	0	1	4	4
68	1.26549	0.15093	0	0	1.95571e-035	0	1	4	4
74	1.43964	0.145125	0	0	1.95571e-035	0	1	4	4
74	1.64862	0.226395	0	0	1.95571e-035	0	1	4	4
57	1.83438	0.975238	0	0	1.95571e-035	0	1	4	4
57	4.17959	0.0812697	0	0	1.95571e-035	0	1	4	4
55	4.41179	0.121905	0	0	1.95571e-035	0	1	4	4
55	4.5337	0.121905	0	0	1.95571e-035	0	1	4	4
57	4.6556	0.267029	0	0	1.95571e-035	0	1	4	4
57	4.92263	0.290249	0	0	1.95571e-035	0	1	4	4
57	5.21288	0.290249	0	0	1.95571e-035	0	1	4	4
57	5.50313	0.0406351	0	0	1.95571e-035	0	1	4	4
57	7.81351	0.168344	0	0	1.95571e-035	0	1	4	4
57	8.21406	0.26703	0	0	1.95571e-035	0	1	4	4
57	8.55655	0.25542	0	0	1.95571e-035	0	1	4	4
55	8.92227	0.16254	0	0	1.95571e-035	0	1	4	4
57	9.08481	0.191565	0	0	1.95571e-035	0	1	4	4
57	9.27637	0.0812693	0	0	1.95571e-035	0	1	4	4
57	9.71755	0.162539	0	0	1.95571e-035	0	1	4	4
55	9.88009	0.191565	0	0	1.95571e-035	0	1	4	4
57	10.6289	0.0638552	0	0	1.95571e-035	0	1	4	4
57	10.6928	0.139319	0	0	1.95571e-035	0	1	4	4
55	10.9192	0.22059	0	0	1.95571e-035	0	1	4	4
57	11.1688	0.0232191	0	0	1.95571e-035	0	1	4	4
57	11.1978	0.110295	0	0	1.95571e-035	0	1	4	4
57	11.372	0.0812693	0	0	1.95571e-035	0	1	4	4
57	11.4765	0.330884	0	0	1.95571e-035	0	1	4	4
57	12.0163	0.24381	0	0	1.95571e-035	0	1	4	4
57	12.2601	0.133515	0	0	1.95571e-035	0	1	4	4
57	12.6317	0.342495	0	0	1.95571e-035	0	1	4	4
57	13.514	0.145124	0	0	1.95571e-035	0	1	4	4
57	13.6591	0.249615	0	0	1.95571e-035	0	1	4	4
57	14.0365	0.220589	0	0	1.95571e-035	0	1	4	4
57	14.2571	0.133515	0	0	1.95571e-035	0	1	4	4
57	14.3906	0.0522451	0	0	1.95571e-035	0	1	4	4
57	14.4428	0.290249	0	0	1.95571e-035	0	1	4	4
57	14.9943	0.0986843	0	0	1.95571e-035	0	1	4	4
57	15.093	0.249615	0	0	1.95571e-035	0	1	4	4
57	15.5167	0.17415	0	0	1.95571e-035	0	1	4	4
57	16.4165	0.156734	0	0	1.95571e-035	0	1	4	4
57	16.5732	0.179955	0	0	1.95571e-035	0	1	4	4
57	16.9854	0.278639	0	0	1.95571e-035	0	1	4	4
57	17.3047	0.278641	0	0	1.95571e-035	0	1	4	4
58	17.8736	0.0290241	0	0	1.95571e-035	0	1	4	4
57	17.9084	0.12771	0	0	1.95571e-035	0	1	4	4
57	18.0361	0.139318	0	0	1.95571e-035	0	1	4	4
57	18.4541	0.191566	0	0	1.95571e-035	0	1	4	4
57	18.6456	0.150928	0	0	1.95571e-035	0	1	4	4
57	18.7966	0.0986843	0	0	1.95571e-035	0	1	4	4
56	19.1739	0.104488	0	0	1.95571e-035	0	1	4	4
58	19.3016	0.121906	0	0	1.95571e-035	0	1	4	4
57	19.4235	0.255419	0	0	1.95571e-035	0	1	4	4
56	19.9053	0.13932	0	0	1.95571e-035	0	1	4	4
57	20.0446	0.400543	0	0	1.95571e-035	0	1	4	4
57	23.516	0.029026	0	0	1.95571e-035	0	1	4	4
58	23.6031	0.110296	0	0	1.95571e-035	0	1	4	4
60	23.7946	0.74304	0	0	1.95571e-035	0	1	4	4
58	24.6828	0.127708	0	0	1.95571e-035	0	1	4	4
55	24.8976	0.0348301	0	0	1.95571e-035	0	1	4	4
55	24.9324	0.0232201	0	0	1.95571e-035	0	1	4	4
55	25.0659	0.13932	0	0	1.95571e-035	0	1	4	4
56	25.2053	0.864943	0	0	1.95571e-035	0	1	4	4
55	26.0702	0.174149	0	0	1.95571e-035	0	1	4	4
55	27.7885	0.179955	0	0	1.95571e-035	0	1	4	4
55	27.9684	0.174149	0	0	1.95571e-035	0	1	4	4
57	28.1426	0.400545	0	0	1.95571e-035	0	1	4	4
