midiPitch 	 onsetSec 	 durationSec 	 onsetBeats 	 onsetBarIndex 	 onsetBar 	 durationBeats 	 velocity  	 numerator 	 denominator 
79	6.32744	0.493424	0	0	5.15226e-035	0	1	4	4
79	6.82086	0.2322	0	0	5.15226e-035	0	1	4	4
77	9.67692	0.0348301	0	0	5.15226e-035	0	1	4	4
83	9.71755	0.0348291	0	0	5.15226e-035	0	1	4	4
80	9.7756	0.0580502	0	0	5.15226e-035	0	1	4	4
87	9.8859	0.0232201	0	0	5.15226e-035	0	1	4	4
4294967295	9.90331	0.0464392	0	0	5.15226e-035	0	1	4	4
87	10.002	0.0348301	0	0	5.15226e-035	0	1	4	4
84	10.0775	0.0232201	0	0	5.15226e-035	0	1	4	4
85	10.1065	0.0232201	0	0	5.15226e-035	0	1	4	4
81	10.1761	0.0348301	0	0	5.15226e-035	0	1	4	4
84	10.211	0.0232201	0	0	5.15226e-035	0	1	4	4
80	10.24	0.0290251	0	0	5.15226e-035	0	1	4	4
84	10.3155	0.0406342	0	0	5.15226e-035	0	1	4	4
81	10.3561	0.0986853	0	0	5.15226e-035	0	1	4	4
85	10.478	0.0348301	0	0	5.15226e-035	0	1	4	4
81	10.5128	0.0406351	0	0	5.15226e-035	0	1	4	4
81	10.5941	0.0812702	0	0	5.15226e-035	0	1	4	4
85	10.6754	0.0928793	0	0	5.15226e-035	0	1	4	4
85	10.8031	0.0638552	0	0	5.15226e-035	0	1	4	4
81	10.8669	0.0348301	0	0	5.15226e-035	0	1	4	4
81	11.0237	0.0522451	0	0	5.15226e-035	0	1	4	4
81	11.0875	0.0580502	0	0	5.15226e-035	0	1	4	4
81	11.3371	0.0290251	0	0	5.15226e-035	0	1	4	4
85	11.3662	0.0522442	0	0	5.15226e-035	0	1	4	4
85	11.5751	0.0522442	0	0	5.15226e-035	0	1	4	4
71	11.8306	0.330885	0	0	5.15226e-035	0	1	4	4
83	12.1615	0.150929	0	0	5.15226e-035	0	1	4	4
83	12.3124	0.0406351	0	0	5.15226e-035	0	1	4	4
83	12.353	0.0870743	0	0	5.15226e-035	0	1	4	4
83	12.4575	0.168344	0	0	5.15226e-035	0	1	4	4
83	12.6258	0.26703	0	0	5.15226e-035	0	1	4	4
78	12.8929	0.150929	0	0	5.15226e-035	0	1	4	4
78	13.0438	0.0812702	0	0	5.15226e-035	0	1	4	4
83	13.276	0.429569	0	0	5.15226e-035	0	1	4	4
83	13.7056	0.25542	0	0	5.15226e-035	0	1	4	4
83	13.961	0.104489	0	0	5.15226e-035	0	1	4	4
81	14.3151	0.156734	0	0	5.15226e-035	0	1	4	4
81	14.4718	0.0754652	0	0	5.15226e-035	0	1	4	4
81	14.5473	0.0812702	0	0	5.15226e-035	0	1	4	4
81	14.6286	0.104489	0	0	5.15226e-035	0	1	4	4
81	14.7331	0.330885	0	0	5.15226e-035	0	1	4	4
81	15.0639	0.0406342	0	0	5.15226e-035	0	1	4	4
82	16.1611	0.0406342	0	0	5.15226e-035	0	1	4	4
82	16.2075	0.0522461	0	0	5.15226e-035	0	1	4	4
83	16.2598	0.110294	0	0	5.15226e-035	0	1	4	4
83	16.3701	0.10449	0	0	5.15226e-035	0	1	4	4
83	16.4746	0.0696602	0	0	5.15226e-035	0	1	4	4
83	16.5442	0.0928783	0	0	5.15226e-035	0	1	4	4
83	16.6371	0.0348301	0	0	5.15226e-035	0	1	4	4
83	16.6719	0.284445	0	0	5.15226e-035	0	1	4	4
83	16.9564	0.0580502	0	0	5.15226e-035	0	1	4	4
83	17.0144	0.10449	0	0	5.15226e-035	0	1	4	4
83	17.1189	0.0348301	0	0	5.15226e-035	0	1	4	4
78	17.3337	0.313469	0	0	5.15226e-035	0	1	4	4
81	18.4889	0.15093	0	0	5.15226e-035	0	1	4	4
85	18.6398	0.0522442	0	0	5.15226e-035	0	1	4	4
85	18.6921	0.0580502	0	0	5.15226e-035	0	1	4	4
81	18.7501	0.121904	0	0	5.15226e-035	0	1	4	4
81	18.872	0.15093	0	0	5.15226e-035	0	1	4	4
81	19.0229	0.0232201	0	0	5.15226e-035	0	1	4	4
81	19.1216	0.0464401	0	0	5.15226e-035	0	1	4	4
81	19.1681	0.0464401	0	0	5.15226e-035	0	1	4	4
81	19.2145	0.0348301	0	0	5.15226e-035	0	1	4	4
81	19.3712	0.029026	0	0	5.15226e-035	0	1	4	4
81	19.5048	0.10449	0	0	5.15226e-035	0	1	4	4
83	19.766	0.0754662	0	0	5.15226e-035	0	1	4	4
83	19.8415	0.0290241	0	0	5.15226e-035	0	1	4	4
83	19.8763	0.0928783	0	0	5.15226e-035	0	1	4	4
83	19.9692	0.0754662	0	0	5.15226e-035	0	1	4	4
83	20.0446	0.0522442	0	0	5.15226e-035	0	1	4	4
78	20.2826	0.145124	0	0	5.15226e-035	0	1	4	4
78	20.4278	0.104488	0	0	5.15226e-035	0	1	4	4
78	20.5322	0.261225	0	0	5.15226e-035	0	1	4	4
85	20.8747	0.121904	0	0	5.15226e-035	0	1	4	4
85	20.9966	0.0754662	0	0	5.15226e-035	0	1	4	4
85	21.0721	0.116098	0	0	5.15226e-035	0	1	4	4
85	21.2346	0.0696602	0	0	5.15226e-035	0	1	4	4
86	21.3043	0.0638542	0	0	5.15226e-035	0	1	4	4
85	21.3682	0.0986862	0	0	5.15226e-035	0	1	4	4
85	21.4668	0.110294	0	0	5.15226e-035	0	1	4	4
85	21.5771	0.0696602	0	0	5.15226e-035	0	1	4	4
85	21.6468	0.197369	0	0	5.15226e-035	0	1	4	4
85	21.8442	0.0754662	0	0	5.15226e-035	0	1	4	4
85	21.9196	0.0812683	0	0	5.15226e-035	0	1	4	4
85	22.0009	0.0696602	0	0	5.15226e-035	0	1	4	4
85	22.0706	0.1161	0	0	5.15226e-035	0	1	4	4
85	22.1867	0.0812702	0	0	5.15226e-035	0	1	4	4
85	23.8237	0.1161	0	0	5.15226e-035	0	1	4	4
85	23.992	0.0464401	0	0	5.15226e-035	0	1	4	4
81	24.0733	0.145124	0	0	5.15226e-035	0	1	4	4
85	24.3519	0.0232201	0	0	5.15226e-035	0	1	4	4
82	24.4448	0.0232201	0	0	5.15226e-035	0	1	4	4
81	24.5261	0.0580502	0	0	5.15226e-035	0	1	4	4
85	24.7989	0.0232182	0	0	5.15226e-035	0	1	4	4
82	24.8221	0.0232201	0	0	5.15226e-035	0	1	4	4
81	24.8744	0.0348301	0	0	5.15226e-035	0	1	4	4
81	24.9324	0.0290241	0	0	5.15226e-035	0	1	4	4
81	24.9673	0.0812683	0	0	5.15226e-035	0	1	4	4
81	25.095	0.0348301	0	0	5.15226e-035	0	1	4	4
81	25.1414	0.16254	0	0	5.15226e-035	0	1	4	4
81	25.4839	0.0290241	0	0	5.15226e-035	0	1	4	4
81	25.542	0.0754642	0	0	5.15226e-035	0	1	4	4
81	26.0296	0.0580482	0	0	5.15226e-035	0	1	4	4
81	26.0876	0.220591	0	0	5.15226e-035	0	1	4	4
