midiPitch 	 onsetSec 	 durationSec 	 onsetBeats 	 onsetBarIndex 	 onsetBar 	 durationBeats 	 velocity  	 numerator 	 denominator 
70	2.33361	0.458594	0	0	3.987e-035	0	1	4	4
70	2.7922	0.307664	0	0	3.987e-035	0	1	4	4
70	3.34948	0.232199	0	0	3.987e-035	0	1	4	4
70	3.69197	0.19737	0	0	3.987e-035	0	1	4	4
72	4.14476	0.824308	0	0	3.987e-035	0	1	4	4
72	5.06195	0.226394	0	0	3.987e-035	0	1	4	4
68	5.52635	0.267029	0	0	3.987e-035	0	1	4	4
68	5.88626	1.64862	0	0	3.987e-035	0	1	4	4
66	7.53487	0.0522451	0	0	3.987e-035	0	1	4	4
66	7.58712	0.278639	0	0	3.987e-035	0	1	4	4
66	7.96444	0.150929	0	0	3.987e-035	0	1	4	4
66	8.68426	0.18576	0	0	3.987e-035	0	1	4	4
68	8.98612	0.203175	0	0	3.987e-035	0	1	4	4
68	9.35184	0.249615	0	0	3.987e-035	0	1	4	4
68	9.70594	0.296054	0	0	3.987e-035	0	1	4	4
68	10.002	0.145124	0	0	3.987e-035	0	1	4	4
65	10.42	1.45125	0	0	3.987e-035	0	1	4	4
63	12.5214	0.290249	0	0	3.987e-035	0	1	4	4
63	12.8987	0.296055	0	0	3.987e-035	0	1	4	4
63	13.3921	0.342494	0	0	3.987e-035	0	1	4	4
63	13.7346	0.116099	0	0	3.987e-035	0	1	4	4
65	13.8507	0.737234	0	0	3.987e-035	0	1	4	4
65	14.675	0.179955	0	0	3.987e-035	0	1	4	4
64	14.855	0.226394	0	0	3.987e-035	0	1	4	4
61	15.0814	0.3483	0	0	3.987e-035	0	1	4	4
61	15.569	1.14358	0	0	3.987e-035	0	1	4	4
60	17.3801	0.220589	0	0	3.987e-035	0	1	4	4
60	17.7865	0.238005	0	0	3.987e-035	0	1	4	4
60	18.0709	0.371521	0	0	3.987e-035	0	1	4	4
61	18.6863	0.197369	0	0	3.987e-035	0	1	4	4
61	18.8836	0.197371	0	0	3.987e-035	0	1	4	4
58	19.081	0.243809	0	0	3.987e-035	0	1	4	4
65	19.7312	0.65016	0	0	3.987e-035	0	1	4	4
65	20.3813	1.24227	0	0	3.987e-035	0	1	4	4
65	21.7165	0.174149	0	0	3.987e-035	0	1	4	4
63	22.0706	0.365715	0	0	3.987e-035	0	1	4	4
60	22.4363	0.348299	0	0	3.987e-035	0	1	4	4
58	22.7846	0.325079	0	0	3.987e-035	0	1	4	4
57	23.1097	0.18576	0	0	3.987e-035	0	1	4	4
61	23.2954	0.563084	0	0	3.987e-035	0	1	4	4
61	25.2169	0.232201	0	0	3.987e-035	0	1	4	4
60	25.5245	0.15093	0	0	3.987e-035	0	1	4	4
63	25.867	0.394739	0	0	3.987e-035	0	1	4	4
66	26.3663	0.197369	0	0	3.987e-035	0	1	4	4
69	26.5694	0.296053	0	0	3.987e-035	0	1	4	4
72	26.9874	0.255419	0	0	3.987e-035	0	1	4	4
70	27.3531	0.121904	0	0	3.987e-035	0	1	4	4
70	27.475	0.59211	0	0	3.987e-035	0	1	4	4
70	28.0671	0.400545	0	0	3.987e-035	0	1	4	4
69	28.4677	0.0812683	0	0	3.987e-035	0	1	4	4
68	28.5489	0.371519	0	0	3.987e-035	0	1	4	4
