midiPitch 	 onsetSec 	 durationSec 	 onsetBeats 	 onsetBarIndex 	 onsetBar 	 durationBeats 	 velocity  	 numerator 	 denominator 
60	2.38585	0.191565	0	0	1.84305e-035	0	1	4	4
60	2.57741	0.0870748	0	0	1.84305e-035	0	1	4	4
60	2.82703	0.12771	0	0	1.84305e-035	0	1	4	4
60	3.00698	0.0464399	0	0	1.84305e-035	0	1	4	4
60	3.05342	0.249615	0	0	1.84305e-035	0	1	4	4
57	9.56662	0.24381	0	0	1.84305e-035	0	1	4	4
53	10.1297	0.330884	0	0	1.84305e-035	0	1	4	4
53	12.3472	0.325079	0	0	1.84305e-035	0	1	4	4
53	12.6723	0.145124	0	0	1.84305e-035	0	1	4	4
53	12.8755	0.31347	0	0	1.84305e-035	0	1	4	4
54	15.18	0.214785	0	0	1.84305e-035	0	1	4	4
53	15.7257	0.0754652	0	0	1.84305e-035	0	1	4	4
53	15.8012	0.0928793	0	0	1.84305e-035	0	1	4	4
56	16.1843	0.0406342	0	0	1.84305e-035	0	1	4	4
60	16.2482	0.354105	0	0	1.84305e-035	0	1	4	4
56	17.9897	0.133514	0	0	1.84305e-035	0	1	4	4
56	20.7586	0.284445	0	0	1.84305e-035	0	1	4	4
58	21.0431	0.203175	0	0	1.84305e-035	0	1	4	4
50	21.6468	0.307663	0	0	1.84305e-035	0	1	4	4
53	23.5741	0.0754642	0	0	1.84305e-035	0	1	4	4
53	23.6902	0.0696602	0	0	1.84305e-035	0	1	4	4
53	26.8771	0.243811	0	0	1.84305e-035	0	1	4	4
