midiPitch 	 onsetSec 	 durationSec 	 onsetBeats 	 onsetBarIndex 	 onsetBar 	 durationBeats 	 velocity  	 numerator 	 denominator 
81	1.36417	0.319274	0	0	1.84306e-035	0	1	4	4
81	1.68345	0.179955	0	0	1.84306e-035	0	1	4	4
81	1.8634	0.12771	0	0	1.84306e-035	0	1	4	4
81	1.99111	0.16254	0	0	1.84306e-035	0	1	4	4
81	2.15365	0.0812697	0	0	1.84306e-035	0	1	4	4
81	2.23492	0.255419	0	0	1.84306e-035	0	1	4	4
81	2.49034	0.0696599	0	0	1.84306e-035	0	1	4	4
81	2.68771	0.15093	0	0	1.84306e-035	0	1	4	4
81	2.83864	0.17415	0	0	1.84306e-035	0	1	4	4
81	3.08825	0.15093	0	0	1.84306e-035	0	1	4	4
81	3.23918	0.423764	0	0	1.84306e-035	0	1	4	4
81	3.66295	0.179955	0	0	1.84306e-035	0	1	4	4
81	3.8429	0.296055	0	0	1.84306e-035	0	1	4	4
60	14.9072	0.0232201	0	0	1.84306e-035	0	1	4	4
64	14.9537	0.2322	0	0	1.84306e-035	0	1	4	4
61	15.4064	0.0928793	0	0	1.84306e-035	0	1	4	4
64	15.4993	0.25542	0	0	1.84306e-035	0	1	4	4
64	15.7547	0.133514	0	0	1.84306e-035	0	1	4	4
59	15.9869	0.197371	0	0	1.84306e-035	0	1	4	4
61	16.1843	0.348299	0	0	1.84306e-035	0	1	4	4
56	17.0318	0.238005	0	0	1.84306e-035	0	1	4	4
56	17.2698	0.18576	0	0	1.84306e-035	0	1	4	4
56	17.4556	0.371519	0	0	1.84306e-035	0	1	4	4
59	18.6979	0.319275	0	0	1.84306e-035	0	1	4	4
61	19.0171	0.232199	0	0	1.84306e-035	0	1	4	4
64	19.3887	0.261225	0	0	1.84306e-035	0	1	4	4
59	19.6557	0.354105	0	0	1.84306e-035	0	1	4	4
61	20.0098	0.435373	0	0	1.84306e-035	0	1	4	4
60	20.4452	0.17415	0	0	1.84306e-035	0	1	4	4
56	20.6193	0.232199	0	0	1.84306e-035	0	1	4	4
59	20.8515	0.679184	0	0	1.84306e-035	0	1	4	4
64	22.4073	0.377325	0	0	1.84306e-035	0	1	4	4
66	22.7846	0.16254	0	0	1.84306e-035	0	1	4	4
56	22.9471	0.394739	0	0	1.84306e-035	0	1	4	4
59	23.3419	0.394739	0	0	1.84306e-035	0	1	4	4
57	23.7366	0.116098	0	0	1.84306e-035	0	1	4	4
57	23.8527	0.16254	0	0	1.84306e-035	0	1	4	4
59	24.0152	0.493423	0	0	1.84306e-035	0	1	4	4
54	24.8221	0.307665	0	0	1.84306e-035	0	1	4	4
56	27.3705	0.330883	0	0	1.84306e-035	0	1	4	4
54	27.7014	0.191565	0	0	1.84306e-035	0	1	4	4
52	27.893	0.029026	0	0	1.84306e-035	0	1	4	4
52	27.9742	0.400545	0	0	1.84306e-035	0	1	4	4
51	28.3748	0.0348301	0	0	1.84306e-035	0	1	4	4
