midiPitch 	 onsetSec 	 durationSec 	 onsetBeats 	 onsetBarIndex 	 onsetBar 	 durationBeats 	 velocity  	 numerator 	 denominator 
67	9.40989	0.0696602	0	0	1.8807e-035	0	1	4	4
55	9.71755	0.232199	0	0	1.8807e-035	0	1	4	4
55	10.1065	0.18576	0	0	1.8807e-035	0	1	4	4
59	10.3097	0.0464392	0	0	1.8807e-035	0	1	4	4
78	12.7361	0.20898	0	0	1.8807e-035	0	1	4	4
78	12.9451	0.388934	0	0	1.8807e-035	0	1	4	4
78	13.3341	0.458594	0	0	1.8807e-035	0	1	4	4
78	13.7927	0.267029	0	0	1.8807e-035	0	1	4	4
78	14.1758	0.238005	0	0	1.8807e-035	0	1	4	4
79	14.5067	0.0580502	0	0	1.8807e-035	0	1	4	4
79	14.9014	0.0290251	0	0	1.8807e-035	0	1	4	4
79	14.9362	0.0522451	0	0	1.8807e-035	0	1	4	4
79	15.1917	0.0232201	0	0	1.8807e-035	0	1	4	4
78	15.4006	0.0928793	0	0	1.8807e-035	0	1	4	4
74	15.5922	0.179955	0	0	1.8807e-035	0	1	4	4
78	15.7722	0.0348301	0	0	1.8807e-035	0	1	4	4
74	15.8186	0.139319	0	0	1.8807e-035	0	1	4	4
79	15.9579	0.133515	0	0	1.8807e-035	0	1	4	4
74	16.0914	0.191565	0	0	1.8807e-035	0	1	4	4
55	15.5632	4.49887	0	0	1.8807e-035	0	1	4	4
55	20.062	0.261225	0	0	1.8807e-035	0	1	4	4
55	20.3233	0.13932	0	0	1.8807e-035	0	1	4	4
55	20.4626	0.232199	0	0	1.8807e-035	0	1	4	4
55	20.6948	0.0870743	0	0	1.8807e-035	0	1	4	4
76	20.7702	0.15093	0	0	1.8807e-035	0	1	4	4
76	20.9212	0.464399	0	0	1.8807e-035	0	1	4	4
76	21.3856	0.818502	0	0	1.8807e-035	0	1	4	4
78	22.2737	0.296055	0	0	1.8807e-035	0	1	4	4
74	22.5698	0.725624	0	0	1.8807e-035	0	1	4	4
78	23.2954	0.301859	0	0	1.8807e-035	0	1	4	4
74	23.5973	0.0928802	0	0	1.8807e-035	0	1	4	4
78	23.6902	0.0638542	0	0	1.8807e-035	0	1	4	4
74	25.153	1.2771	0	0	1.8807e-035	0	1	4	4
74	26.6101	0.255419	0	0	1.8807e-035	0	1	4	4
83	27.1557	0.168344	0	0	1.8807e-035	0	1	4	4
76	27.3241	0.174149	0	0	1.8807e-035	0	1	4	4
74	27.5098	0.66177	0	0	1.8807e-035	0	1	4	4
76	28.1774	0.0348301	0	0	1.8807e-035	0	1	4	4
76	28.2181	0.0232201	0	0	1.8807e-035	0	1	4	4
76	28.2471	0.0232201	0	0	1.8807e-035	0	1	4	4
76	28.2761	0.0232182	0	0	1.8807e-035	0	1	4	4
76	28.3051	0.0348301	0	0	1.8807e-035	0	1	4	4
76	28.3458	0.17415	0	0	1.8807e-035	0	1	4	4
76	28.6883	0.522449	0	0	1.8807e-035	0	1	4	4
76	29.2107	0.714014	0	0	1.8807e-035	0	1	4	4
