midiPitch 	 onsetSec 	 durationSec 	 onsetBeats 	 onsetBarIndex 	 onsetBar 	 durationBeats 	 velocity  	 numerator 	 denominator 
53	0.638549	0.0232199	0	0	3.72353e-035	0	1	4	4
48	2.12463	0.13932	0	0	3.72353e-035	0	1	4	4
53	2.49615	0.145125	0	0	3.72353e-035	0	1	4	4
56	2.81542	0.15093	0	0	3.72353e-035	0	1	4	4
60	3.1463	0.121905	0	0	3.72353e-035	0	1	4	4
57	3.36689	0.319274	0	0	3.72353e-035	0	1	4	4
57	3.68617	0.156735	0	0	3.72353e-035	0	1	4	4
55	3.94739	0.272835	0	0	3.72353e-035	0	1	4	4
52	5.39864	0.133515	0	0	3.72353e-035	0	1	4	4
60	6.04299	0.0870748	0	0	3.72353e-035	0	1	4	4
56	6.30422	0.133515	0	0	3.72353e-035	0	1	4	4
56	6.59447	0.191565	0	0	3.72353e-035	0	1	4	4
58	6.78603	0.20898	0	0	3.72353e-035	0	1	4	4
60	6.99501	0.17415	0	0	3.72353e-035	0	1	4	4
61	7.95283	0.0406351	0	0	3.72353e-035	0	1	4	4
62	7.99927	0.22059	0	0	3.72353e-035	0	1	4	4
62	8.21986	0.162539	0	0	3.72353e-035	0	1	4	4
60	8.4927	0.17415	0	0	3.72353e-035	0	1	4	4
59	8.66685	0.150929	0	0	3.72353e-035	0	1	4	4
60	8.81778	0.150929	0	0	3.72353e-035	0	1	4	4
59	9.21832	0.127709	0	0	3.72353e-035	0	1	4	4
62	9.50857	0.145124	0	0	3.72353e-035	0	1	4	4
63	9.81043	0.19737	0	0	3.72353e-035	0	1	4	4
58	10.3677	0.191565	0	0	3.72353e-035	0	1	4	4
61	10.6812	0.0464401	0	0	3.72353e-035	0	1	4	4
59	10.7276	0.0696592	0	0	3.72353e-035	0	1	4	4
61	10.9482	0.156734	0	0	3.72353e-035	0	1	4	4
63	11.1049	0.116099	0	0	3.72353e-035	0	1	4	4
63	11.221	0.168344	0	0	3.72353e-035	0	1	4	4
64	11.3894	0.203175	0	0	3.72353e-035	0	1	4	4
57	11.8538	0.249615	0	0	3.72353e-035	0	1	4	4
58	12.1034	0.214785	0	0	3.72353e-035	0	1	4	4
62	12.4227	0.249615	0	0	3.72353e-035	0	1	4	4
60	12.6723	0.342495	0	0	3.72353e-035	0	1	4	4
62	13.6359	0.121905	0	0	3.72353e-035	0	1	4	4
64	13.7578	1.03909	0	0	3.72353e-035	0	1	4	4
62	15.0175	0.0464401	0	0	3.72353e-035	0	1	4	4
60	15.1859	0.179955	0	0	3.72353e-035	0	1	4	4
58	15.54	0.150929	0	0	3.72353e-035	0	1	4	4
57	15.6909	0.26703	0	0	3.72353e-035	0	1	4	4
61	16.8983	0.267031	0	0	3.72353e-035	0	1	4	4
62	17.1654	0.272833	0	0	3.72353e-035	0	1	4	4
64	17.5485	0.191565	0	0	3.72353e-035	0	1	4	4
62	17.74	0.0406342	0	0	3.72353e-035	0	1	4	4
62	17.7865	0.208979	0	0	3.72353e-035	0	1	4	4
59	18.1406	0.15093	0	0	3.72353e-035	0	1	4	4
57	18.5063	0.203175	0	0	3.72353e-035	0	1	4	4
60	19.8531	0.203175	0	0	3.72353e-035	0	1	4	4
60	20.1898	0.0812702	0	0	3.72353e-035	0	1	4	4
59	20.5729	0.133514	0	0	3.72353e-035	0	1	4	4
60	20.7064	0.179955	0	0	3.72353e-035	0	1	4	4
60	20.9328	0.0928802	0	0	3.72353e-035	0	1	4	4
60	21.1069	0.174149	0	0	3.72353e-035	0	1	4	4
60	21.2811	0.145124	0	0	3.72353e-035	0	1	4	4
66	21.8732	0.238005	0	0	3.72353e-035	0	1	4	4
54	22.1112	0.0406342	0	0	3.72353e-035	0	1	4	4
51	22.6917	0.145124	0	0	3.72353e-035	0	1	4	4
50	22.8368	0.0812702	0	0	3.72353e-035	0	1	4	4
52	22.9181	0.17415	0	0	3.72353e-035	0	1	4	4
52	23.4057	0.1161	0	0	3.72353e-035	0	1	4	4
52	23.5218	0.145124	0	0	3.72353e-035	0	1	4	4
51	23.7308	0.156734	0	0	3.72353e-035	0	1	4	4
51	23.8875	0.133514	0	0	3.72353e-035	0	1	4	4
53	24.0791	0.203175	0	0	3.72353e-035	0	1	4	4
53	24.2823	0.16254	0	0	3.72353e-035	0	1	4	4
