midiPitch 	 onsetSec 	 durationSec 	 onsetBeats 	 onsetBarIndex 	 onsetBar 	 durationBeats 	 velocity  	 numerator 	 denominator 
80	0.19737	0.0580499	0	0	1.89954e-035	0	1	4	4
80	0.255419	0.0696599	0	0	1.89954e-035	0	1	4	4
87	0.446984	0.0754648	0	0	1.89954e-035	0	1	4	4
87	0.568889	0.0580499	0	0	1.89954e-035	0	1	4	4
65	0.725624	0.0812699	0	0	1.89954e-035	0	1	4	4
65	0.806893	0.145125	0	0	1.89954e-035	0	1	4	4
68	1.01587	0.0812699	0	0	1.89954e-035	0	1	4	4
68	1.09714	0.145125	0	0	1.89954e-035	0	1	4	4
68	1.24227	0.12771	0	0	1.89954e-035	0	1	4	4
80	1.71247	0.03483	0	0	1.89954e-035	0	1	4	4
68	1.89243	0.15093	0	0	1.89954e-035	0	1	4	4
65	2.19429	0.0696599	0	0	1.89954e-035	0	1	4	4
65	2.26395	0.0870748	0	0	1.89954e-035	0	1	4	4
69	2.35102	0.26703	0	0	1.89954e-035	0	1	4	4
68	2.61805	0.0290248	0	0	1.89954e-035	0	1	4	4
68	2.65288	0.17415	0	0	1.89954e-035	0	1	4	4
66	2.82703	0.13932	0	0	1.89954e-035	0	1	4	4
61	3.20435	0.1161	0	0	1.89954e-035	0	1	4	4
68	3.43655	0.0290248	0	0	1.89954e-035	0	1	4	4
68	3.57007	0.0232201	0	0	1.89954e-035	0	1	4	4
68	3.79646	0.0348299	0	0	1.89954e-035	0	1	4	4
68	3.91256	0.0812697	0	0	1.89954e-035	0	1	4	4
68	4.15637	0.10449	0	0	1.89954e-035	0	1	4	4
69	4.26086	0.0812702	0	0	1.89954e-035	0	1	4	4
67	4.44662	0.110295	0	0	1.89954e-035	0	1	4	4
68	4.69043	0.145125	0	0	1.89954e-035	0	1	4	4
68	4.83556	0.139319	0	0	1.89954e-035	0	1	4	4
65	5.18966	0.15093	0	0	1.89954e-035	0	1	4	4
64	5.3522	0.0928798	0	0	1.89954e-035	0	1	4	4
68	5.45669	0.313469	0	0	1.89954e-035	0	1	4	4
68	5.77016	0.121905	0	0	1.89954e-035	0	1	4	4
68	6.15909	0.0348301	0	0	1.89954e-035	0	1	4	4
68	6.19973	0.191565	0	0	1.89954e-035	0	1	4	4
68	6.4029	0.116099	0	0	1.89954e-035	0	1	4	4
68	7.01823	0.255419	0	0	1.89954e-035	0	1	4	4
68	7.27365	0.0464401	0	0	1.89954e-035	0	1	4	4
68	7.69741	0.150929	0	0	1.89954e-035	0	1	4	4
68	7.84834	0.145125	0	0	1.89954e-035	0	1	4	4
68	7.99347	0.0406351	0	0	1.89954e-035	0	1	4	4
66	8.27211	0.255419	0	0	1.89954e-035	0	1	4	4
69	8.52753	0.0812702	0	0	1.89954e-035	0	1	4	4
69	8.6088	0.24381	0	0	1.89954e-035	0	1	4	4
68	9.49696	0.0754642	0	0	1.89954e-035	0	1	4	4
69	9.74658	0.0232201	0	0	1.89954e-035	0	1	4	4
69	9.8917	0.2322	0	0	1.89954e-035	0	1	4	4
69	10.1355	0.104489	0	0	1.89954e-035	0	1	4	4
68	10.4664	0.0986843	0	0	1.89954e-035	0	1	4	4
68	10.5651	0.214785	0	0	1.89954e-035	0	1	4	4
68	10.7799	0.0232201	0	0	1.89954e-035	0	1	4	4
68	10.8785	0.0812702	0	0	1.89954e-035	0	1	4	4
68	11.3546	0.255419	0	0	1.89954e-035	0	1	4	4
68	11.61	0.214785	0	0	1.89954e-035	0	1	4	4
68	11.8248	0.0348301	0	0	1.89954e-035	0	1	4	4
69	12.1847	0.0986843	0	0	1.89954e-035	0	1	4	4
68	12.3124	0.0522451	0	0	1.89954e-035	0	1	4	4
68	12.382	0.0986843	0	0	1.89954e-035	0	1	4	4
64	12.7361	0.203175	0	0	1.89954e-035	0	1	4	4
68	13.0148	0.0812693	0	0	1.89954e-035	0	1	4	4
68	13.0961	0.133514	0	0	1.89954e-035	0	1	4	4
69	13.2296	0.0348301	0	0	1.89954e-035	0	1	4	4
69	13.8855	0.10449	0	0	1.89954e-035	0	1	4	4
68	13.99	0.0754642	0	0	1.89954e-035	0	1	4	4
79552872	14.199	0.261224	0	0	1.89954e-035	0	1	4	4
69	14.4602	0.16254	0	0	1.89954e-035	0	1	4	4
69	14.6228	0.226395	0	0	1.89954e-035	0	1	4	4
68	16.7648	0.0754642	0	0	1.89954e-035	0	1	4	4
68	16.8403	0.10449	0	0	1.89954e-035	0	1	4	4
71	17.0376	0.121904	0	0	1.89954e-035	0	1	4	4
72	17.1595	0.0696602	0	0	1.89954e-035	0	1	4	4
71	17.2292	0.18576	0	0	1.89954e-035	0	1	4	4
63	17.9664	0.0638542	0	0	1.89954e-035	0	1	4	4
63	18.0303	0.0348301	0	0	1.89954e-035	0	1	4	4
63	18.0651	0.0348301	0	0	1.89954e-035	0	1	4	4
64	18.1928	0.116098	0	0	1.89954e-035	0	1	4	4
63	18.338	0.0696602	0	0	1.89954e-035	0	1	4	4
63	18.5353	0.029026	0	0	1.89954e-035	0	1	4	4
63	18.6108	0.0928783	0	0	1.89954e-035	0	1	4	4
63	18.9939	0.139318	0	0	1.89954e-035	0	1	4	4
63	19.3712	0.10449	0	0	1.89954e-035	0	1	4	4
60	20.0911	0.0870762	0	0	1.89954e-035	0	1	4	4
59	20.1781	0.0348301	0	0	1.89954e-035	0	1	4	4
60	20.2188	0.0232201	0	0	1.89954e-035	0	1	4	4
64	20.9966	0.0580502	0	0	1.89954e-035	0	1	4	4
63	21.0547	0.0928802	0	0	1.89954e-035	0	1	4	4
63	21.1476	0.12771	0	0	1.89954e-035	0	1	4	4
63	21.2753	0.0406342	0	0	1.89954e-035	0	1	4	4
63	21.3217	0.0580502	0	0	1.89954e-035	0	1	4	4
63	21.5946	0.0870762	0	0	1.89954e-035	0	1	4	4
63	21.6816	0.0812683	0	0	1.89954e-035	0	1	4	4
63	21.8326	0.133514	0	0	1.89954e-035	0	1	4	4
63	21.9661	0.0232201	0	0	1.89954e-035	0	1	4	4
63	21.9951	0.0696602	0	0	1.89954e-035	0	1	4	4
63	22.0648	0.0986843	0	0	1.89954e-035	0	1	4	4
63	22.1634	0.0754642	0	0	1.89954e-035	0	1	4	4
63	22.2447	0.0812702	0	0	1.89954e-035	0	1	4	4
64	22.3724	0.0522461	0	0	1.89954e-035	0	1	4	4
63	22.4247	0.0232201	0	0	1.89954e-035	0	1	4	4
79552872	22.9123	0.168344	0	0	1.89954e-035	0	1	4	4
59	23.0806	0.208979	0	0	1.89954e-035	0	1	4	4
64	23.9804	0.0928802	0	0	1.89954e-035	0	1	4	4
64	24.0733	0.0232201	0	0	1.89954e-035	0	1	4	4
64	24.172	0.0406342	0	0	1.89954e-035	0	1	4	4
64	24.2416	0.0348301	0	0	1.89954e-035	0	1	4	4
63	24.3171	0.0812702	0	0	1.89954e-035	0	1	4	4
63	24.5435	0.0232201	0	0	1.89954e-035	0	1	4	4
64	24.6073	0.0928802	0	0	1.89954e-035	0	1	4	4
63	24.8221	0.0522461	0	0	1.89954e-035	0	1	4	4
63	24.8744	0.0232201	0	0	1.89954e-035	0	1	4	4
63	25.1472	0.0986843	0	0	1.89954e-035	0	1	4	4
70	26.2385	0.0232201	0	0	1.89954e-035	0	1	4	4
61	26.6565	0.110294	0	0	1.89954e-035	0	1	4	4
59	26.8423	0.0522442	0	0	1.89954e-035	0	1	4	4
57	27.0222	0.0812683	0	0	1.89954e-035	0	1	4	4
59	27.6085	0.0348301	0	0	1.89954e-035	0	1	4	4
59	27.6898	0.0464401	0	0	1.89954e-035	0	1	4	4
68	27.951	0.243811	0	0	1.89954e-035	0	1	4	4
69	28.1948	0.267029	0	0	1.89954e-035	0	1	4	4
68	28.6592	0.249613	0	0	1.89954e-035	0	1	4	4
