midiPitch 	 onsetSec 	 durationSec 	 onsetBeats 	 onsetBarIndex 	 onsetBar 	 durationBeats 	 velocity  	 numerator 	 denominator 
62	2.34522	0.0580499	0	0	3.96782e-035	0	1	4	4
64	2.5658	0.371519	0	0	3.96782e-035	0	1	4	4
64	3.04762	0.220589	0	0	3.96782e-035	0	1	4	4
65	3.26821	0.191565	0	0	3.96782e-035	0	1	4	4
65	3.45977	1.49188	0	0	3.96782e-035	0	1	4	4
64	6.48417	0.162539	0	0	3.96782e-035	0	1	4	4
64	6.64671	0.2322	0	0	3.96782e-035	0	1	4	4
65	6.94857	0.168345	0	0	3.96782e-035	0	1	4	4
65	7.40717	0.121905	0	0	3.96782e-035	0	1	4	4
67	7.52907	0.232199	0	0	3.96782e-035	0	1	4	4
65	7.84834	0.35991	0	0	3.96782e-035	0	1	4	4
60	8.20825	0.516644	0	0	3.96782e-035	0	1	4	4
63	8.841	0.104489	0	0	3.96782e-035	0	1	4	4
65	8.94549	0.377325	0	0	3.96782e-035	0	1	4	4
65	9.32281	0.255419	0	0	3.96782e-035	0	1	4	4
65	9.57823	0.0870752	0	0	3.96782e-035	0	1	4	4
65	9.66531	0.0232201	0	0	3.96782e-035	0	1	4	4
65	10.0775	0.818503	0	0	3.96782e-035	0	1	4	4
65	10.896	0.203175	0	0	3.96782e-035	0	1	4	4
64	11.3255	0.226395	0	0	3.96782e-035	0	1	4	4
64	11.7609	0.0870743	0	0	3.96782e-035	0	1	4	4
65	11.848	0.162539	0	0	3.96782e-035	0	1	4	4
65	12.0105	0.0696602	0	0	3.96782e-035	0	1	4	4
63	12.3008	0.20898	0	0	3.96782e-035	0	1	4	4
64	12.5098	0.156734	0	0	3.96782e-035	0	1	4	4
60	12.829	0.272835	0	0	3.96782e-035	0	1	4	4
60	13.218	0.238004	0	0	3.96782e-035	0	1	4	4
62	13.456	0.0928802	0	0	3.96782e-035	0	1	4	4
60	13.5488	0.272835	0	0	3.96782e-035	0	1	4	4
62	13.8217	0.179955	0	0	3.96782e-035	0	1	4	4
62	14.0016	0.168344	0	0	3.96782e-035	0	1	4	4
62	14.17	0.249615	0	0	3.96782e-035	0	1	4	4
62	14.4196	0.261224	0	0	3.96782e-035	0	1	4	4
62	14.6808	0.603719	0	0	3.96782e-035	0	1	4	4
60	16.8983	0.208981	0	0	3.96782e-035	0	1	4	4
68	17.4498	0.1161	0	0	3.96782e-035	0	1	4	4
69	17.5659	0.313469	0	0	3.96782e-035	0	1	4	4
69	17.8794	0.348301	0	0	3.96782e-035	0	1	4	4
69	18.2277	0.278639	0	0	3.96782e-035	0	1	4	4
70	18.5063	0.168344	0	0	3.96782e-035	0	1	4	4
69	18.6746	0.133514	0	0	3.96782e-035	0	1	4	4
69	19.0113	0.12771	0	0	3.96782e-035	0	1	4	4
69	19.139	0.191565	0	0	3.96782e-035	0	1	4	4
69	19.3306	0.208979	0	0	3.96782e-035	0	1	4	4
69	19.5396	0.197371	0	0	3.96782e-035	0	1	4	4
69	19.737	0.388933	0	0	3.96782e-035	0	1	4	4
60	20.6251	0.400545	0	0	3.96782e-035	0	1	4	4
67	21.0257	0.168344	0	0	3.96782e-035	0	1	4	4
69	21.194	0.208979	0	0	3.96782e-035	0	1	4	4
69	21.432	0.325079	0	0	3.96782e-035	0	1	4	4
69	22.2041	0.133516	0	0	3.96782e-035	0	1	4	4
70	22.3376	0.359909	0	0	3.96782e-035	0	1	4	4
69	22.6975	0.330883	0	0	3.96782e-035	0	1	4	4
67	23.0284	0.208981	0	0	3.96782e-035	0	1	4	4
67	23.545	0.609524	0	0	3.96782e-035	0	1	4	4
64	24.8918	0.110296	0	0	3.96782e-035	0	1	4	4
65	25.0021	0.220589	0	0	3.96782e-035	0	1	4	4
65	25.3446	0.342495	0	0	3.96782e-035	0	1	4	4
