midiPitch 	 onsetSec 	 durationSec 	 onsetBeats 	 onsetBarIndex 	 onsetBar 	 durationBeats 	 velocity  	 numerator 	 denominator 
71	0.388934	0.02322	0	0	3.83637e-035	0	1	4	4
78	1.27129	0.03483	0	0	3.83637e-035	0	1	4	4
70	1.30612	0.029025	0	0	3.83637e-035	0	1	4	4
63	1.67184	0.029025	0	0	3.83637e-035	0	1	4	4
60	4.95746	0.330884	0	0	3.83637e-035	0	1	4	4
58	5.358	0.22059	0	0	3.83637e-035	0	1	4	4
57	5.79918	0.301859	0	0	3.83637e-035	0	1	4	4
59	6.22295	0.168345	0	0	3.83637e-035	0	1	4	4
60	6.39129	0.238004	0	0	3.83637e-035	0	1	4	4
59	6.91374	0.19737	0	0	3.83637e-035	0	1	4	4
57	7.30268	0.22059	0	0	3.83637e-035	0	1	4	4
57	7.52327	0.441179	0	0	3.83637e-035	0	1	4	4
57	8.43465	0.313469	0	0	3.83637e-035	0	1	4	4
59	8.74812	0.272835	0	0	3.83637e-035	0	1	4	4
62	9.02095	0.179955	0	0	3.83637e-035	0	1	4	4
64	9.26476	0.203175	0	0	3.83637e-035	0	1	4	4
62	9.46794	0.214785	0	0	3.83637e-035	0	1	4	4
64	9.68272	0.464398	0	0	3.83637e-035	0	1	4	4
64	10.1471	0.0348301	0	0	3.83637e-035	0	1	4	4
64	10.1878	0.26703	0	0	3.83637e-035	0	1	4	4
53	11.6854	0.121904	0	0	3.83637e-035	0	1	4	4
59	11.8538	0.179955	0	0	3.83637e-035	0	1	4	4
60	12.0337	0.214785	0	0	3.83637e-035	0	1	4	4
59	12.2485	0.168344	0	0	3.83637e-035	0	1	4	4
58	12.4169	0.226395	0	0	3.83637e-035	0	1	4	4
57	12.7361	0.330884	0	0	3.83637e-035	0	1	4	4
59	13.1193	0.2322	0	0	3.83637e-035	0	1	4	4
60	13.3515	0.127709	0	0	3.83637e-035	0	1	4	4
59	13.4792	0.0290251	0	0	3.83637e-035	0	1	4	4
59	13.723	0.25542	0	0	3.83637e-035	0	1	4	4
57	14.0481	0.795284	0	0	3.83637e-035	0	1	4	4
56	14.8434	0.0696592	0	0	3.83637e-035	0	1	4	4
60	15.7896	0.127709	0	0	3.83637e-035	0	1	4	4
64	16.1437	0.121904	0	0	3.83637e-035	0	1	4	4
62	16.3991	0.232201	0	0	3.83637e-035	0	1	4	4
64	16.6313	0.0870743	0	0	3.83637e-035	0	1	4	4
64	16.7184	0.191565	0	0	3.83637e-035	0	1	4	4
62	16.9099	0.446985	0	0	3.83637e-035	0	1	4	4
63	17.3569	0.127708	0	0	3.83637e-035	0	1	4	4
64	18.7617	0.406349	0	0	3.83637e-035	0	1	4	4
64	19.1681	0.191565	0	0	3.83637e-035	0	1	4	4
62	19.3596	0.255421	0	0	3.83637e-035	0	1	4	4
62	19.6151	0.238005	0	0	3.83637e-035	0	1	4	4
65	20.1143	0.330885	0	0	3.83637e-035	0	1	4	4
65	20.4452	0.133514	0	0	3.83637e-035	0	1	4	4
65	20.5787	0.0870762	0	0	3.83637e-035	0	1	4	4
65	20.6658	0.261223	0	0	3.83637e-035	0	1	4	4
62	21.1185	0.470205	0	0	3.83637e-035	0	1	4	4
57	22.0938	0.220591	0	0	3.83637e-035	0	1	4	4
57	22.326	0.162539	0	0	3.83637e-035	0	1	4	4
59	22.6801	0.17415	0	0	3.83637e-035	0	1	4	4
62	22.8542	0.145124	0	0	3.83637e-035	0	1	4	4
60	22.9994	0.243809	0	0	3.83637e-035	0	1	4	4
60	23.2432	0.406349	0	0	3.83637e-035	0	1	4	4
58	23.6495	0.0406361	0	0	3.83637e-035	0	1	4	4
60	26.0992	0.110296	0	0	3.83637e-035	0	1	4	4
62	26.2908	0.232201	0	0	3.83637e-035	0	1	4	4
64	26.523	0.203175	0	0	3.83637e-035	0	1	4	4
64	26.7262	0.481813	0	0	3.83637e-035	0	1	4	4
68	27.8117	0.296053	0	0	3.83637e-035	0	1	4	4
56	28.1078	0.284445	0	0	3.83637e-035	0	1	4	4
57	28.4677	0.325079	0	0	3.83637e-035	0	1	4	4
