midiPitch 	 onsetSec 	 durationSec 	 onsetBeats 	 onsetBarIndex 	 onsetBar 	 durationBeats 	 velocity  	 numerator 	 denominator 
59	0.19737	0.02322	0	0	4.06202e-035	0	1	4	4
67	0.528254	0.0290249	0	0	4.06202e-035	0	1	4	4
68	0.557279	0.03483	0	0	4.06202e-035	0	1	4	4
57	0.609524	0.15093	0	0	4.06202e-035	0	1	4	4
55	0.876553	0.191565	0	0	4.06202e-035	0	1	4	4
55	1.34095	0.19737	0	0	4.06202e-035	0	1	4	4
54	1.7473	0.0232199	0	0	4.06202e-035	0	1	4	4
55	1.78794	0.145125	0	0	4.06202e-035	0	1	4	4
52	2.14204	0.08127	0	0	4.06202e-035	0	1	4	4
53	2.39166	0.371519	0	0	4.06202e-035	0	1	4	4
53	2.76317	0.412154	0	0	4.06202e-035	0	1	4	4
51	3.30304	0.18576	0	0	4.06202e-035	0	1	4	4
52	3.4888	0.261225	0	0	4.06202e-035	0	1	4	4
51	3.97061	0.0348299	0	0	4.06202e-035	0	1	4	4
52	4.01125	0.0290251	0	0	4.06202e-035	0	1	4	4
53	4.04027	0.162539	0	0	4.06202e-035	0	1	4	4
52	5.03293	0.0348301	0	0	4.06202e-035	0	1	4	4
52	5.07356	0.17415	0	0	4.06202e-035	0	1	4	4
52	5.24771	0.179955	0	0	4.06202e-035	0	1	4	4
52	5.67728	0.267029	0	0	4.06202e-035	0	1	4	4
51	5.99655	0.238005	0	0	4.06202e-035	0	1	4	4
53	6.23456	0.249615	0	0	4.06202e-035	0	1	4	4
54	6.48417	0.0986848	0	0	4.06202e-035	0	1	4	4
53	6.58286	0.243809	0	0	4.06202e-035	0	1	4	4
52	7.00662	0.307664	0	0	4.06202e-035	0	1	4	4
57	8.85841	0.0232201	0	0	4.06202e-035	0	1	4	4
59	8.90485	0.116099	0	0	4.06202e-035	0	1	4	4
59	9.24735	0.19737	0	0	4.06202e-035	0	1	4	4
58	9.69433	0.116099	0	0	4.06202e-035	0	1	4	4
55	10.1587	0.0290251	0	0	4.06202e-035	0	1	4	4
56	10.1936	0.121905	0	0	4.06202e-035	0	1	4	4
57	10.449	0.20898	0	0	4.06202e-035	0	1	4	4
54	10.658	0.0928802	0	0	4.06202e-035	0	1	4	4
57	10.8553	0.10449	0	0	4.06202e-035	0	1	4	4
56	11.3255	0.133514	0	0	4.06202e-035	0	1	4	4
55	11.5461	0.203175	0	0	4.06202e-035	0	1	4	4
54	11.7493	0.348299	0	0	4.06202e-035	0	1	4	4
55	12.0976	0.0812702	0	0	4.06202e-035	0	1	4	4
52	12.2079	0.191566	0	0	4.06202e-035	0	1	4	4
55	12.533	0.121904	0	0	4.06202e-035	0	1	4	4
55	12.9567	0.20898	0	0	4.06202e-035	0	1	4	4
51	13.1715	0.150929	0	0	4.06202e-035	0	1	4	4
50	13.3224	0.0638552	0	0	4.06202e-035	0	1	4	4
54	13.4908	0.191565	0	0	4.06202e-035	0	1	4	4
53	14.2396	0.139319	0	0	4.06202e-035	0	1	4	4
53	14.379	0.25542	0	0	4.06202e-035	0	1	4	4
53	14.7331	0.145124	0	0	4.06202e-035	0	1	4	4
50	15.3832	0.25542	0	0	4.06202e-035	0	1	4	4
75	15.7663	0.0232201	0	0	4.06202e-035	0	1	4	4
74	18.0187	0.0580502	0	0	4.06202e-035	0	1	4	4
75	18.0767	0.0406342	0	0	4.06202e-035	0	1	4	4
75	18.1232	0.0290241	0	0	4.06202e-035	0	1	4	4
68	18.1522	0.110294	0	0	4.06202e-035	0	1	4	4
69	18.2915	0.0348301	0	0	4.06202e-035	0	1	4	4
70	18.3263	0.0928802	0	0	4.06202e-035	0	1	4	4
58	18.396	0.127708	0	0	4.06202e-035	0	1	4	4
58	18.7675	0.0928783	0	0	4.06202e-035	0	1	4	4
54	18.9591	0.226395	0	0	4.06202e-035	0	1	4	4
55	19.3829	0.400545	0	0	4.06202e-035	0	1	4	4
55	19.8066	0.104488	0	0	4.06202e-035	0	1	4	4
56	19.9111	0.0406361	0	0	4.06202e-035	0	1	4	4
55	19.9576	0.238005	0	0	4.06202e-035	0	1	4	4
55	20.1956	0.029026	0	0	4.06202e-035	0	1	4	4
55	20.3697	0.110294	0	0	4.06202e-035	0	1	4	4
53	20.6542	0.162539	0	0	4.06202e-035	0	1	4	4
53	20.8515	0.371519	0	0	4.06202e-035	0	1	4	4
50	21.2927	0.278639	0	0	4.06202e-035	0	1	4	4
52	21.7455	0.0348301	0	0	4.06202e-035	0	1	4	4
53	21.7861	0.110296	0	0	4.06202e-035	0	1	4	4
53	22.0822	0.325079	0	0	4.06202e-035	0	1	4	4
52	22.7846	0.208979	0	0	4.06202e-035	0	1	4	4
51	22.9936	0.0232201	0	0	4.06202e-035	0	1	4	4
52	23.0226	0.197369	0	0	4.06202e-035	0	1	4	4
52	23.2954	0.359909	0	0	4.06202e-035	0	1	4	4
52	23.7714	0.342493	0	0	4.06202e-035	0	1	4	4
52	24.1139	0.15093	0	0	4.06202e-035	0	1	4	4
54	24.3345	0.214785	0	0	4.06202e-035	0	1	4	4
54	24.5493	0.0232201	0	0	4.06202e-035	0	1	4	4
54	24.6538	0.261225	0	0	4.06202e-035	0	1	4	4
51	25.0834	0.0870762	0	0	4.06202e-035	0	1	4	4
52	25.1704	0.133514	0	0	4.06202e-035	0	1	4	4
57	26.9526	0.0522442	0	0	4.06202e-035	0	1	4	4
57	27.0454	0.104488	0	0	4.06202e-035	0	1	4	4
59	27.1906	0.203175	0	0	4.06202e-035	0	1	4	4
58	27.4634	0.0754642	0	0	4.06202e-035	0	1	4	4
57	27.5563	0.029026	0	0	4.06202e-035	0	1	4	4
56	27.713	0.255421	0	0	4.06202e-035	0	1	4	4
55	28.1948	0.232199	0	0	4.06202e-035	0	1	4	4
55	28.427	0.0348301	0	0	4.06202e-035	0	1	4	4
54	28.4619	0.0696602	0	0	4.06202e-035	0	1	4	4
53	28.8392	0.133514	0	0	4.06202e-035	0	1	4	4
