midiPitch 	 onsetSec 	 durationSec 	 onsetBeats 	 onsetBarIndex 	 onsetBar 	 durationBeats 	 velocity  	 numerator 	 denominator 
57	0.0522449	0.168345	0	0	1.74885e-035	0	1	4	4
55	0.24381	0.12771	0	0	1.74885e-035	0	1	4	4
57	0.516644	0.0290249	0	0	1.74885e-035	0	1	4	4
66	0.615329	0.505034	0	0	1.74885e-035	0	1	4	4
66	1.24807	0.156735	0	0	1.74885e-035	0	1	4	4
66	1.40481	0.0986848	0	0	1.74885e-035	0	1	4	4
64	1.50349	0.476009	0	0	1.74885e-035	0	1	4	4
66	1.9795	0.278639	0	0	1.74885e-035	0	1	4	4
67	2.25814	0.249614	0	0	1.74885e-035	0	1	4	4
66	2.50776	0.238004	0	0	1.74885e-035	0	1	4	4
64	2.83864	0.249614	0	0	1.74885e-035	0	1	4	4
59	3.39592	0.17415	0	0	1.74885e-035	0	1	4	4
56	3.57007	0.226395	0	0	1.74885e-035	0	1	4	4
57	4.92844	0.17415	0	0	1.74885e-035	0	1	4	4
57	5.10258	0.168345	0	0	1.74885e-035	0	1	4	4
59	5.43347	0.400544	0	0	1.74885e-035	0	1	4	4
60	6.49578	0.127709	0	0	1.74885e-035	0	1	4	4
60	6.62349	0.330884	0	0	1.74885e-035	0	1	4	4
62	6.95438	0.2322	0	0	1.74885e-035	0	1	4	4
60	7.18658	0.168344	0	0	1.74885e-035	0	1	4	4
59	7.55229	0.25542	0	0	1.74885e-035	0	1	4	4
57	7.81932	0.383129	0	0	1.74885e-035	0	1	4	4
53	9.6595	0.0638552	0	0	1.74885e-035	0	1	4	4
55	9.72336	0.383129	0	0	1.74885e-035	0	1	4	4
57	10.1994	0.121905	0	0	1.74885e-035	0	1	4	4
55	10.3619	0.238005	0	0	1.74885e-035	0	1	4	4
54	10.7799	0.377325	0	0	1.74885e-035	0	1	4	4
54	11.1572	0.18576	0	0	1.74885e-035	0	1	4	4
52	12.2253	0.12771	0	0	1.74885e-035	0	1	4	4
51	12.3704	0.296054	0	0	1.74885e-035	0	1	4	4
52	12.6665	0.307665	0	0	1.74885e-035	0	1	4	4
51	13.3224	0.24381	0	0	1.74885e-035	0	1	4	4
52	13.5663	0.423764	0	0	1.74885e-035	0	1	4	4
