midiPitch 	 onsetSec 	 durationSec 	 onsetBeats 	 onsetBarIndex 	 onsetBar 	 durationBeats 	 velocity  	 numerator 	 denominator 
82	0.0986848	0.0638549	0	0	0	0	1	4	4
86	0.226395	0.0406349	0	0	0	0	1	4	4
86	0.307664	0.0232199	0	0	0	0	1	4	4
82	0.330884	0.029025	0	0	0	0	1	4	4
77	0.493424	0.0464399	0	0	0	0	1	4	4
77	0.563084	0.0232199	0	0	0	0	1	4	4
77	0.592109	0.0232199	0	0	0	0	1	4	4
76	0.621134	0.0348299	0	0	0	0	1	4	4
84	1.46866	0.029025	0	0	0	0	1	4	4
80	1.55574	0.0232199	0	0	0	0	1	4	4
85	1.60798	0.0232199	0	0	0	0	1	4	4
80	1.6312	0.029025	0	0	0	0	1	4	4
78	1.68345	0.0232199	0	0	0	0	1	4	4
84	3.46558	0.0232201	0	0	0	0	1	4	4
81	3.74422	0.0232198	0	0	0	0	1	4	4
82	3.77324	0.09288	0	0	0	0	1	4	4
73	4.84136	0.0754647	0	0	0	0	1	4	4
81	5.56118	0.0232201	0	0	0	0	1	4	4
78	5.61342	0.0464401	0	0	0	0	1	4	4
82	5.95592	0.110295	0	0	0	0	1	4	4
83	6.23456	0.0348301	0	0	0	0	1	4	4
83	6.27519	0.0232201	0	0	0	0	1	4	4
85	6.59447	0.0348296	0	0	0	0	1	4	4
82	6.66413	0.0290251	0	0	0	0	1	4	4
80	6.72218	0.0232201	0	0	0	0	1	4	4
74	8.25469	0.168344	0	0	0	0	1	4	4
87	18.9359	0.0522442	0	0	0	0	1	4	4
86	19.0752	0.029026	0	0	0	0	1	4	4
87	19.1216	0.0580502	0	0	0	0	1	4	4
87	19.1855	0.0406342	0	0	0	0	1	4	4
87	19.261	0.0580502	0	0	0	0	1	4	4
87	19.3248	0.0696602	0	0	0	0	1	4	4
87	19.3945	0.0232201	0	0	0	0	1	4	4
87	19.4235	0.0348301	0	0	0	0	1	4	4
87	19.5222	0.0406342	0	0	0	0	1	4	4
87	19.6557	0.0348301	0	0	0	0	1	4	4
87	19.7137	0.0348301	0	0	0	0	1	4	4
85	19.7486	0.0232201	0	0	0	0	1	4	4
85	19.7776	0.0522461	0	0	0	0	1	4	4
85	19.8298	0.0464401	0	0	0	0	1	4	4
85	19.8763	0.0464382	0	0	0	0	1	4	4
87	19.9808	0.0580502	0	0	0	0	1	4	4
85	20.1259	0.029026	0	0	0	0	1	4	4
87	20.1607	0.029026	0	0	0	0	1	4	4
87	20.2014	0.0232201	0	0	0	0	1	4	4
85	20.242	0.0464401	0	0	0	0	1	4	4
84	20.451	0.110294	0	0	0	0	1	4	4
84	20.5613	0.0464401	0	0	0	0	1	4	4
85	21.6932	0.0290241	0	0	0	0	1	4	4
86	22.0357	0.0348301	0	0	0	0	1	4	4
84	22.1228	0.0232182	0	0	0	0	1	4	4
84	22.2505	0.1161	0	0	0	0	1	4	4
88	22.802	0.0754662	0	0	0	0	1	4	4
88	22.8775	0.0464401	0	0	0	0	1	4	4
86	22.9645	0.0232201	0	0	0	0	1	4	4
87	23.0226	0.0232201	0	0	0	0	1	4	4
86	23.307	0.0290241	0	0	0	0	1	4	4
86	23.3477	0.0638542	0	0	0	0	1	4	4
85	23.516	0.0580502	0	0	0	0	1	4	4
86	23.6263	0.0522461	0	0	0	0	1	4	4
83	23.7598	0.0232182	0	0	0	0	1	4	4
85	23.783	0.0406361	0	0	0	0	1	4	4
85	23.8237	0.0232201	0	0	0	0	1	4	4
85	23.8527	0.0232201	0	0	0	0	1	4	4
85	23.8759	0.0812702	0	0	0	0	1	4	4
87	24.9905	0.0406342	0	0	0	0	1	4	4
71	25.9367	0.0406342	0	0	0	0	1	4	4
82	26.0528	0.0406361	0	0	0	0	1	4	4
83	26.9874	0.0290241	0	0	0	0	1	4	4
77	27.0629	0.0232201	0	0	0	0	1	4	4
85	27.4228	0.0754642	0	0	0	0	1	4	4
85	27.5215	0.029026	0	0	0	0	1	4	4
86	27.5563	0.0870762	0	0	0	0	1	4	4
85	27.6492	0.0406342	0	0	0	0	1	4	4
85	27.7362	0.0522461	0	0	0	0	1	4	4
83	27.8814	0.0232201	0	0	0	0	1	4	4
84	27.9394	0.0348301	0	0	0	0	1	4	4
86	28.2413	0.104488	0	0	0	0	1	4	4
72	28.8798	0.0232201	0	0	0	0	1	4	4
85	29.0075	0.0406342	0	0	0	0	1	4	4
87	29.0598	0.0696602	0	0	0	0	1	4	4
