midiPitch 	 onsetSec 	 durationSec 	 onsetBeats 	 onsetBarIndex 	 onsetBar 	 durationBeats 	 velocity  	 numerator 	 denominator 
85	3.97642	0.0696602	0	0	4.68283e-035	0	1	4	4
85	4.44082	0.0464396	0	0	4.68283e-035	0	1	4	4
86	4.78331	0.0464401	0	0	4.68283e-035	0	1	4	4
84	5.43927	0.0754647	0	0	4.68283e-035	0	1	4	4
84	5.64825	0.0232201	0	0	4.68283e-035	0	1	4	4
82	5.67147	0.0290246	0	0	4.68283e-035	0	1	4	4
82	5.7063	0.0232201	0	0	4.68283e-035	0	1	4	4
65	5.71211	0.0870748	0	0	4.68283e-035	0	1	4	4
65	5.79918	0.0870752	0	0	4.68283e-035	0	1	4	4
82	16.6545	0.0290241	0	0	4.68283e-035	0	1	4	4
86	17.1944	0.0348301	0	0	4.68283e-035	0	1	4	4
75	17.2466	0.0464401	0	0	4.68283e-035	0	1	4	4
81	17.3511	0.0928802	0	0	4.68283e-035	0	1	4	4
80	17.4614	0.0464401	0	0	4.68283e-035	0	1	4	4
76	17.8503	0.0928802	0	0	4.68283e-035	0	1	4	4
80	17.9432	0.0348301	0	0	4.68283e-035	0	1	4	4
79	17.9839	0.0928802	0	0	4.68283e-035	0	1	4	4
78	18.0767	0.214785	0	0	4.68283e-035	0	1	4	4
78	18.2973	0.0348301	0	0	4.68283e-035	0	1	4	4
77	18.3554	0.029026	0	0	4.68283e-035	0	1	4	4
76	18.4192	0.145124	0	0	4.68283e-035	0	1	4	4
74	18.5644	0.0638542	0	0	4.68283e-035	0	1	4	4
80	18.7211	0.0232201	0	0	4.68283e-035	0	1	4	4
81	18.7617	0.0464401	0	0	4.68283e-035	0	1	4	4
79	19.1971	0.0406342	0	0	4.68283e-035	0	1	4	4
79	19.3945	0.0986843	0	0	4.68283e-035	0	1	4	4
79	19.7137	0.0928802	0	0	4.68283e-035	0	1	4	4
80	19.8066	0.156734	0	0	4.68283e-035	0	1	4	4
80	20.0156	0.0406361	0	0	4.68283e-035	0	1	4	4
80	20.1839	0.0232201	0	0	4.68283e-035	0	1	4	4
80	20.2072	0.029026	0	0	4.68283e-035	0	1	4	4
80	20.2536	0.0232201	0	0	4.68283e-035	0	1	4	4
80	20.3	0.0290241	0	0	4.68283e-035	0	1	4	4
79	20.3987	0.0348301	0	0	4.68283e-035	0	1	4	4
76	20.509	0.0232201	0	0	4.68283e-035	0	1	4	4
76	20.538	0.0406342	0	0	4.68283e-035	0	1	4	4
76	20.5787	0.0870762	0	0	4.68283e-035	0	1	4	4
84	24.7409	0.0580502	0	0	4.68283e-035	0	1	4	4
85	24.7989	0.0580482	0	0	4.68283e-035	0	1	4	4
