midiPitch 	 onsetSec 	 durationSec 	 onsetBeats 	 onsetBarIndex 	 onsetBar 	 durationBeats 	 velocity  	 numerator 	 denominator 
80	0.24381	0.0812698	0	0	2.48222e-035	0	1	4	4
82	0.325079	0.0348299	0	0	2.48222e-035	0	1	4	4
81	0.417959	0.12771	0	0	2.48222e-035	0	1	4	4
81	0.574694	0.203175	0	0	2.48222e-035	0	1	4	4
81	0.777868	0.03483	0	0	2.48222e-035	0	1	4	4
81	0.812698	0.0348299	0	0	2.48222e-035	0	1	4	4
76	0.876553	0.0580499	0	0	2.48222e-035	0	1	4	4
64	1.05651	0.20898	0	0	2.48222e-035	0	1	4	4
64	1.45125	0.0232199	0	0	2.48222e-035	0	1	4	4
64	1.48027	0.0522449	0	0	2.48222e-035	0	1	4	4
62	1.7415	0.26703	0	0	2.48222e-035	0	1	4	4
62	2.08399	0.2322	0	0	2.48222e-035	0	1	4	4
62	2.31619	0.1161	0	0	2.48222e-035	0	1	4	4
62	2.46132	0.19737	0	0	2.48222e-035	0	1	4	4
59	2.75156	0.179955	0	0	2.48222e-035	0	1	4	4
62	3.08245	0.278639	0	0	2.48222e-035	0	1	4	4
66	3.47719	0.0406349	0	0	2.48222e-035	0	1	4	4
65	3.51782	0.0696599	0	0	2.48222e-035	0	1	4	4
63	3.76163	0.203175	0	0	2.48222e-035	0	1	4	4
67	7.23882	0.16254	0	0	2.48222e-035	0	1	4	4
67	7.40136	0.0928798	0	0	2.48222e-035	0	1	4	4
67	7.49424	0.10449	0	0	2.48222e-035	0	1	4	4
67	7.59873	0.0464396	0	0	2.48222e-035	0	1	4	4
67	7.64517	0.0928798	0	0	2.48222e-035	0	1	4	4
66	7.85995	0.0696602	0	0	2.48222e-035	0	1	4	4
66	7.92961	0.243809	0	0	2.48222e-035	0	1	4	4
62	8.34177	0.133515	0	0	2.48222e-035	0	1	4	4
61	8.47528	0.0406342	0	0	2.48222e-035	0	1	4	4
64	8.57397	0.354104	0	0	2.48222e-035	0	1	4	4
64	8.92807	0.0928802	0	0	2.48222e-035	0	1	4	4
62	9.17188	0.26703	0	0	2.48222e-035	0	1	4	4
67	10.5361	0.0406342	0	0	2.48222e-035	0	1	4	4
57	12.6723	0.0348301	0	0	2.48222e-035	0	1	4	4
59	12.7129	0.226395	0	0	2.48222e-035	0	1	4	4
59	12.9393	0.0406351	0	0	2.48222e-035	0	1	4	4
57	13.2992	0.249615	0	0	2.48222e-035	0	1	4	4
59	13.5953	0.296054	0	0	2.48222e-035	0	1	4	4
59	13.8913	0.0406351	0	0	2.48222e-035	0	1	4	4
59	14.1119	0.26703	0	0	2.48222e-035	0	1	4	4
60	14.379	0.0406351	0	0	2.48222e-035	0	1	4	4
58	14.6344	0.313469	0	0	2.48222e-035	0	1	4	4
67	16.7938	0.0232182	0	0	2.48222e-035	0	1	4	4
68	16.8171	0.0348301	0	0	2.48222e-035	0	1	4	4
67	18.3496	0.110294	0	0	2.48222e-035	0	1	4	4
67	18.4599	0.10449	0	0	2.48222e-035	0	1	4	4
67	18.6398	0.0406342	0	0	2.48222e-035	0	1	4	4
66	18.6979	0.185759	0	0	2.48222e-035	0	1	4	4
66	19.0636	0.10449	0	0	2.48222e-035	0	1	4	4
66	19.1681	0.191565	0	0	2.48222e-035	0	1	4	4
66	19.3887	0.0638542	0	0	2.48222e-035	0	1	4	4
64	19.6673	0.342495	0	0	2.48222e-035	0	1	4	4
64	20.0098	0.139318	0	0	2.48222e-035	0	1	4	4
64	20.1491	0.1161	0	0	2.48222e-035	0	1	4	4
61	20.2652	0.17415	0	0	2.48222e-035	0	1	4	4
63	22.2854	0.12771	0	0	2.48222e-035	0	1	4	4
64	22.4131	0.110294	0	0	2.48222e-035	0	1	4	4
64	23.1155	0.208979	0	0	2.48222e-035	0	1	4	4
64	23.5044	0.0638561	0	0	2.48222e-035	0	1	4	4
64	23.5683	0.145124	0	0	2.48222e-035	0	1	4	4
64	23.7134	0.110294	0	0	2.48222e-035	0	1	4	4
62	23.8411	0.220591	0	0	2.48222e-035	0	1	4	4
62	24.1197	0.232199	0	0	2.48222e-035	0	1	4	4
62	24.5203	0.0406361	0	0	2.48222e-035	0	1	4	4
59	24.7989	0.255419	0	0	2.48222e-035	0	1	4	4
62	25.1298	0.179955	0	0	2.48222e-035	0	1	4	4
62	25.3097	0.029026	0	0	2.48222e-035	0	1	4	4
62	25.4955	0.145124	0	0	2.48222e-035	0	1	4	4
63	25.6639	0.220589	0	0	2.48222e-035	0	1	4	4
71	27.7537	0.10449	0	0	2.48222e-035	0	1	4	4
63	27.9684	0.0522442	0	0	2.48222e-035	0	1	4	4
64	28.1194	0.10449	0	0	2.48222e-035	0	1	4	4
63	28.6186	0.0986843	0	0	2.48222e-035	0	1	4	4
63	28.7231	0.0464401	0	0	2.48222e-035	0	1	4	4
64	28.7869	0.0696602	0	0	2.48222e-035	0	1	4	4
63	29.0191	0.0754642	0	0	2.48222e-035	0	1	4	4
64	29.0946	0.0870743	0	0	2.48222e-035	0	1	4	4
62	29.3268	0.1161	0	0	2.48222e-035	0	1	4	4
62	29.5474	0.185759	0	0	2.48222e-035	0	1	4	4
