midiPitch 	 onsetSec 	 durationSec 	 onsetBeats 	 onsetBarIndex 	 onsetBar 	 durationBeats 	 velocity  	 numerator 	 denominator 
56	0.864943	0.0928798	0	0	3.72331e-035	0	1	4	4
55	1.30032	0.0638549	0	0	3.72331e-035	0	1	4	4
53	1.36417	0.0522449	0	0	3.72331e-035	0	1	4	4
58	1.56735	0.0754648	0	0	3.72331e-035	0	1	4	4
58	1.79374	0.0638549	0	0	3.72331e-035	0	1	4	4
55	2.25234	0.22059	0	0	3.72331e-035	0	1	4	4
51	2.69932	0.110295	0	0	3.72331e-035	0	1	4	4
51	2.80961	0.0928798	0	0	3.72331e-035	0	1	4	4
52	3.88934	0.0290251	0	0	3.72331e-035	0	1	4	4
54	4.37116	0.284445	0	0	3.72331e-035	0	1	4	4
50	5.16063	0.0232196	0	0	3.72331e-035	0	1	4	4
52	5.28254	0.261225	0	0	3.72331e-035	0	1	4	4
51	5.60181	0.18576	0	0	3.72331e-035	0	1	4	4
52	5.90367	0.121905	0	0	3.72331e-035	0	1	4	4
52	6.20553	0.145125	0	0	3.72331e-035	0	1	4	4
53	6.87311	0.121905	0	0	3.72331e-035	0	1	4	4
55	7.49424	0.0232201	0	0	3.72331e-035	0	1	4	4
54	7.51746	0.179955	0	0	3.72331e-035	0	1	4	4
51	7.74966	0.1161	0	0	3.72331e-035	0	1	4	4
52	7.97025	0.0928802	0	0	3.72331e-035	0	1	4	4
50	8.17923	0.133514	0	0	3.72331e-035	0	1	4	4
52	8.40562	0.0928802	0	0	3.72331e-035	0	1	4	4
54	8.68426	0.127709	0	0	3.72331e-035	0	1	4	4
53	9.00354	0.226395	0	0	3.72331e-035	0	1	4	4
52	9.94394	0.0928802	0	0	3.72331e-035	0	1	4	4
54	10.3561	0.0290251	0	0	3.72331e-035	0	1	4	4
54	10.4258	0.0928802	0	0	3.72331e-035	0	1	4	4
52	10.5419	0.0812693	0	0	3.72331e-035	0	1	4	4
54	10.8205	0.0290251	0	0	3.72331e-035	0	1	4	4
53	11.1572	0.0696592	0	0	3.72331e-035	0	1	4	4
76	11.2036	0.0290251	0	0	3.72331e-035	0	1	4	4
68	11.4474	0.156734	0	0	3.72331e-035	0	1	4	4
65	11.7783	0.0928793	0	0	3.72331e-035	0	1	4	4
74	11.8712	0.214785	0	0	3.72331e-035	0	1	4	4
55	12.0744	0.10449	0	0	3.72331e-035	0	1	4	4
54	12.6781	0.0812702	0	0	3.72331e-035	0	1	4	4
52	12.7594	0.110294	0	0	3.72331e-035	0	1	4	4
52	13.2702	0.0696602	0	0	3.72331e-035	0	1	4	4
53	13.6185	0.0290241	0	0	3.72331e-035	0	1	4	4
53	13.9088	0.0986853	0	0	3.72331e-035	0	1	4	4
55	14.4138	0.0348301	0	0	3.72331e-035	0	1	4	4
54	14.4486	0.0638542	0	0	3.72331e-035	0	1	4	4
52	14.9304	0.0406351	0	0	3.72331e-035	0	1	4	4
55	15.1336	0.0232201	0	0	3.72331e-035	0	1	4	4
53	15.1568	0.0812702	0	0	3.72331e-035	0	1	4	4
49	15.4819	0.179955	0	0	3.72331e-035	0	1	4	4
54	15.7605	0.0348301	0	0	3.72331e-035	0	1	4	4
56	16.045	0.0464401	0	0	3.72331e-035	0	1	4	4
54	16.0914	0.0232201	0	0	3.72331e-035	0	1	4	4
55	16.6023	0.0580482	0	0	3.72331e-035	0	1	4	4
72	17.8619	0.0754642	0	0	3.72331e-035	0	1	4	4
70	17.9374	0.0696602	0	0	3.72331e-035	0	1	4	4
71	18.0071	0.18576	0	0	3.72331e-035	0	1	4	4
77	18.1928	0.0406342	0	0	3.72331e-035	0	1	4	4
82	18.4134	0.0754642	0	0	3.72331e-035	0	1	4	4
70	18.5121	0.226395	0	0	3.72331e-035	0	1	4	4
72	18.8952	0.313471	0	0	3.72331e-035	0	1	4	4
66	19.2087	0.121904	0	0	3.72331e-035	0	1	4	4
76	19.5338	0.0638542	0	0	3.72331e-035	0	1	4	4
72	20.0156	0.1161	0	0	3.72331e-035	0	1	4	4
71	20.3058	0.10449	0	0	3.72331e-035	0	1	4	4
76	20.6309	0.0812683	0	0	3.72331e-035	0	1	4	4
71	20.7761	0.168344	0	0	3.72331e-035	0	1	4	4
66	21.461	0.0580502	0	0	3.72331e-035	0	1	4	4
72	21.7049	0.156734	0	0	3.72331e-035	0	1	4	4
76	22.5292	0.0290241	0	0	3.72331e-035	0	1	4	4
78	22.5582	0.0406342	0	0	3.72331e-035	0	1	4	4
72	22.6975	0.116098	0	0	3.72331e-035	0	1	4	4
69	23.1619	0.0522442	0	0	3.72331e-035	0	1	4	4
69	23.3302	0.121904	0	0	3.72331e-035	0	1	4	4
74	23.4522	0.0754642	0	0	3.72331e-035	0	1	4	4
70	24.2242	0.0638561	0	0	3.72331e-035	0	1	4	4
78	24.6944	0.0696602	0	0	3.72331e-035	0	1	4	4
76	24.9556	0.0290241	0	0	3.72331e-035	0	1	4	4
70	25.3156	0.214785	0	0	3.72331e-035	0	1	4	4
71	25.8902	0.150928	0	0	3.72331e-035	0	1	4	4
73	27.4808	0.168344	0	0	3.72331e-035	0	1	4	4
79	27.7769	0.104488	0	0	3.72331e-035	0	1	4	4
