midiPitch 	 onsetSec 	 durationSec 	 onsetBeats 	 onsetBarIndex 	 onsetBar 	 durationBeats 	 velocity  	 numerator 	 denominator 
60	2.42068	0.12771	0	0	3.23486e-035	0	1	4	4
63	2.55419	0.10449	0	0	3.23486e-035	0	1	4	4
62	2.73995	0.249614	0	0	3.23486e-035	0	1	4	4
61	3.00698	0.214785	0	0	3.23486e-035	0	1	4	4
62	3.22177	0.725624	0	0	3.23486e-035	0	1	4	4
62	3.94739	0.342494	0	0	3.23486e-035	0	1	4	4
60	4.28989	0.191565	0	0	3.23486e-035	0	1	4	4
62	4.48145	0.446984	0	0	3.23486e-035	0	1	4	4
62	4.92844	0.162539	0	0	3.23486e-035	0	1	4	4
63	5.09097	0.110295	0	0	3.23486e-035	0	1	4	4
54	6.22295	0.0406351	0	0	3.23486e-035	0	1	4	4
62	6.36807	0.0638547	0	0	3.23486e-035	0	1	4	4
62	6.53061	0.435374	0	0	3.23486e-035	0	1	4	4
60	7.03565	0.156735	0	0	3.23486e-035	0	1	4	4
56	7.34331	0.0928798	0	0	3.23486e-035	0	1	4	4
58	7.45361	0.0986848	0	0	3.23486e-035	0	1	4	4
53	7.65097	0.12771	0	0	3.23486e-035	0	1	4	4
55	7.77868	0.156735	0	0	3.23486e-035	0	1	4	4
55	7.93542	0.284444	0	0	3.23486e-035	0	1	4	4
56	8.27211	0.249614	0	0	3.23486e-035	0	1	4	4
54	8.52172	0.0696602	0	0	3.23486e-035	0	1	4	4
53	8.59719	0.2322	0	0	3.23486e-035	0	1	4	4
53	11.2036	0.133515	0	0	3.23486e-035	0	1	4	4
56	11.5635	0.0464392	0	0	3.23486e-035	0	1	4	4
56	11.61	0.17415	0	0	3.23486e-035	0	1	4	4
55	11.9002	0.121904	0	0	3.23486e-035	0	1	4	4
55	12.1673	0.214785	0	0	3.23486e-035	0	1	4	4
53	12.382	0.150929	0	0	3.23486e-035	0	1	4	4
55	12.829	0.18576	0	0	3.23486e-035	0	1	4	4
55	13.0612	0.18576	0	0	3.23486e-035	0	1	4	4
55	13.3573	0.145124	0	0	3.23486e-035	0	1	4	4
0	13.5024	0.214785	0	0	3.23486e-035	0	1	4	4
50	14.704	0.18576	0	0	3.23486e-035	0	1	4	4
53	15.0175	0.330884	0	0	3.23486e-035	0	1	4	4
50	15.4761	0.1161	0	0	3.23486e-035	0	1	4	4
85975400	15.8592	0.145123	0	0	3.23486e-035	0	1	4	4
69	15.9463	0.19737	0	0	3.23486e-035	0	1	4	4
60	19.29	0.13932	0	0	3.23486e-035	0	1	4	4
62	19.4293	0.133514	0	0	3.23486e-035	0	1	4	4
62	19.5628	0.238005	0	0	3.23486e-035	0	1	4	4
61	19.8647	0.197369	0	0	3.23486e-035	0	1	4	4
62	20.062	0.179955	0	0	3.23486e-035	0	1	4	4
62	20.2652	0.290249	0	0	3.23486e-035	0	1	4	4
60	23.5624	0.243809	0	0	3.23486e-035	0	1	4	4
62	23.8411	0.145124	0	0	3.23486e-035	0	1	4	4
62	23.9862	0.10449	0	0	3.23486e-035	0	1	4	4
62	24.0907	0.18576	0	0	3.23486e-035	0	1	4	4
62	24.2765	0.145124	0	0	3.23486e-035	0	1	4	4
62	24.4332	0.371519	0	0	3.23486e-035	0	1	4	4
62	24.8047	0.429569	0	0	3.23486e-035	0	1	4	4
60	27.6666	0.127708	0	0	3.23486e-035	0	1	4	4
63	27.7943	0.197371	0	0	3.23486e-035	0	1	4	4
61	28.0149	0.162539	0	0	3.23486e-035	0	1	4	4
61	28.0149	0.168344	0	0	3.23486e-035	0	1	4	4
64	28.1716	0.01161	0	0	3.23486e-035	0	1	4	4
61	28.0149	0.174149	0	0	3.23486e-035	0	1	4	4
64	28.1716	0.0174141	0	0	3.23486e-035	0	1	4	4
61	28.0149	0.179955	0	0	3.23486e-035	0	1	4	4
64	28.1716	0.0232201	0	0	3.23486e-035	0	1	4	4
61	28.0149	0.185759	0	0	3.23486e-035	0	1	4	4
64	28.1716	0.0290241	0	0	3.23486e-035	0	1	4	4
61	28.0149	0.191565	0	0	3.23486e-035	0	1	4	4
64	28.1716	0.0348301	0	0	3.23486e-035	0	1	4	4
61	28.0149	0.197369	0	0	3.23486e-035	0	1	4	4
64	28.1716	0.0406342	0	0	3.23486e-035	0	1	4	4
61	28.0149	0.203175	0	0	3.23486e-035	0	1	4	4
64	28.1716	0.0464401	0	0	3.23486e-035	0	1	4	4
61	28.0149	0.208979	0	0	3.23486e-035	0	1	4	4
64	28.1716	0.0522442	0	0	3.23486e-035	0	1	4	4
61	28.0149	0.214785	0	0	3.23486e-035	0	1	4	4
64	28.1716	0.0580502	0	0	3.23486e-035	0	1	4	4
61	28.0149	0.220589	0	0	3.23486e-035	0	1	4	4
64	28.1716	0.127708	0	0	3.23486e-035	0	1	4	4
65	28.2993	0.0348301	0	0	3.23486e-035	0	1	4	4
62	28.3341	0.441179	0	0	3.23486e-035	0	1	4	4
64	28.7753	0.261225	0	0	3.23486e-035	0	1	4	4
64	29.0366	0.801088	0	0	3.23486e-035	0	1	4	4
