midiPitch 	 onsetSec 	 durationSec 	 onsetBeats 	 onsetBarIndex 	 onsetBar 	 durationBeats 	 velocity  	 numerator 	 denominator 
59	0.690794	0.0812699	0	0	0	0	1	4	4
58	0.772063	0.0406349	0	0	0	0	1	4	4
57	0.818503	0.0928798	0	0	0	0	1	4	4
53	1.05651	0.0232199	0	0	0	0	1	4	4
55	1.08553	0.481814	0	0	0	0	1	4	4
53	3.07084	0.0406349	0	0	0	0	1	4	4
55	3.11147	0.301859	0	0	0	0	1	4	4
52	3.41333	0.249615	0	0	0	0	1	4	4
55	3.70358	0.0348299	0	0	0	0	1	4	4
55	3.73841	0.296055	0	0	0	0	1	4	4
52	4.15057	0.179955	0	0	0	0	1	4	4
56	4.33052	0.162539	0	0	0	0	1	4	4
57	4.49306	0.528254	0	0	0	0	1	4	4
55	5.9327	0.406349	0	0	0	0	1	4	4
57	6.37968	0.255419	0	0	0	0	1	4	4
57	6.6351	0.0696602	0	0	0	0	1	4	4
55	7.80771	0.26703	0	0	0	0	1	4	4
58	9.37506	0.191565	0	0	0	0	1	4	4
55	9.57243	0.13932	0	0	0	0	1	4	4
55	9.71175	0.0754642	0	0	0	0	1	4	4
57	9.85107	0.19737	0	0	0	0	1	4	4
56	10.0484	0.0696602	0	0	0	0	1	4	4
54	14.4486	0.0232191	0	0	0	0	1	4	4
55	14.5183	0.0406351	0	0	0	0	1	4	4
56	15.2381	0.0638542	0	0	0	0	1	4	4
55	15.3019	0.0348301	0	0	0	0	1	4	4
54	15.3368	0.24381	0	0	0	0	1	4	4
51	15.5806	0.0290251	0	0	0	0	1	4	4
53	15.6096	0.179955	0	0	0	0	1	4	4
58	15.9637	0.0812702	0	0	0	0	1	4	4
50	16.0566	0.0522442	0	0	0	0	1	4	4
54	16.1379	0.255419	0	0	0	0	1	4	4
56	17.2931	0.0232201	0	0	0	0	1	4	4
60	17.3395	0.12771	0	0	0	0	1	4	4
59	17.4672	0.0232201	0	0	0	0	1	4	4
60	17.502	0.0638542	0	0	0	0	1	4	4
60	17.5659	0.336689	0	0	0	0	1	4	4
60	18.0245	0.429567	0	0	0	0	1	4	4
60	18.4541	0.191566	0	0	0	0	1	4	4
55	18.7211	0.238005	0	0	0	0	1	4	4
55	19.1855	0.539864	0	0	0	0	1	4	4
60	20.538	0.16254	0	0	0	0	1	4	4
60	20.9502	0.261225	0	0	0	0	1	4	4
60	21.2114	0.191565	0	0	0	0	1	4	4
60	21.6062	0.446985	0	0	0	0	1	4	4
60	22.6162	0.179955	0	0	0	0	1	4	4
60	22.9936	0.255421	0	0	0	0	1	4	4
50	24.4738	0.15093	0	0	0	0	1	4	4
50	24.648	0.325079	0	0	0	0	1	4	4
59	25.1066	0.0696602	0	0	0	0	1	4	4
58	25.2749	0.197371	0	0	0	0	1	4	4
55	25.6987	0.179955	0	0	0	0	1	4	4
55	26.0063	0.121904	0	0	0	0	1	4	4
55	26.1283	0.203175	0	0	0	0	1	4	4
54	27.1732	0.226395	0	0	0	0	1	4	4
50	27.3995	0.110294	0	0	0	0	1	4	4
55	27.5447	0.13932	0	0	0	0	1	4	4
52	27.7537	0.150928	0	0	0	0	1	4	4
55	27.9336	0.179955	0	0	0	0	1	4	4
55	28.1136	0.0754642	0	0	0	0	1	4	4
55	28.3748	0.226395	0	0	0	0	1	4	4
