midiPitch 	 onsetSec 	 durationSec 	 onsetBeats 	 onsetBarIndex 	 onsetBar 	 durationBeats 	 velocity  	 numerator 	 denominator 
72	6.07202	0.110295	0	0	2.10624e-035	0	1	4	4
72	6.18231	0.238004	0	0	2.10624e-035	0	1	4	4
72	6.42032	0.15093	0	0	2.10624e-035	0	1	4	4
71	6.65252	0.1161	0	0	2.10624e-035	0	1	4	4
71	6.8673	0.0464401	0	0	2.10624e-035	0	1	4	4
62	6.9834	0.0464396	0	0	2.10624e-035	0	1	4	4
62	7.12853	0.0870752	0	0	2.10624e-035	0	1	4	4
64	7.25043	0.0754652	0	0	2.10624e-035	0	1	4	4
64	7.3259	0.0812697	0	0	2.10624e-035	0	1	4	4
62	7.40717	0.255419	0	0	2.10624e-035	0	1	4	4
62	7.66258	0.121905	0	0	2.10624e-035	0	1	4	4
64	11.2036	0.12771	0	0	2.10624e-035	0	1	4	4
64	11.3488	0.0464392	0	0	2.10624e-035	0	1	4	4
64	11.4126	0.18576	0	0	2.10624e-035	0	1	4	4
64	11.5984	0.24381	0	0	2.10624e-035	0	1	4	4
64	13.9029	0.133515	0	0	2.10624e-035	0	1	4	4
76	14.0074	0.214785	0	0	2.10624e-035	0	1	4	4
76	14.2222	0.272834	0	0	2.10624e-035	0	1	4	4
77	14.4951	0.261225	0	0	2.10624e-035	0	1	4	4
72	14.9478	0.31347	0	0	2.10624e-035	0	1	4	4
72	15.2729	0.261225	0	0	2.10624e-035	0	1	4	4
72	15.5341	0.441179	0	0	2.10624e-035	0	1	4	4
72	15.9753	0.394739	0	0	2.10624e-035	0	1	4	4
72	16.3701	0.10449	0	0	2.10624e-035	0	1	4	4
72	16.4746	0.359909	0	0	2.10624e-035	0	1	4	4
72	16.8345	0.0580502	0	0	2.10624e-035	0	1	4	4
72	16.8925	0.336689	0	0	2.10624e-035	0	1	4	4
65	23.516	0.238005	0	0	2.10624e-035	0	1	4	4
