midiPitch 	 onsetSec 	 durationSec 	 onsetBeats 	 onsetBarIndex 	 onsetBar 	 durationBeats 	 velocity  	 numerator 	 denominator 
54	0.539864	0.0754648	0	0	4.64513e-035	0	1	4	4
51	0.632744	0.0290249	0	0	4.64513e-035	0	1	4	4
53	0.667574	0.13932	0	0	4.64513e-035	0	1	4	4
50	1.10875	0.0580498	0	0	4.64513e-035	0	1	4	4
52	1.5151	0.110295	0	0	4.64513e-035	0	1	4	4
63	1.78213	0.040635	0	0	4.64513e-035	0	1	4	4
70	2.13624	0.0522449	0	0	4.64513e-035	0	1	4	4
64	2.15365	0.0812697	0	0	4.64513e-035	0	1	4	4
73	2.23492	0.121905	0	0	4.64513e-035	0	1	4	4
53	2.21751	0.19737	0	0	4.64513e-035	0	1	4	4
51	2.51937	0.406349	0	0	4.64513e-035	0	1	4	4
52	3.04181	0.493424	0	0	4.64513e-035	0	1	4	4
52	3.97061	0.371519	0	0	4.64513e-035	0	1	4	4
64	5.03873	0.0522447	0	0	4.64513e-035	0	1	4	4
72	5.31156	0.0986848	0	0	4.64513e-035	0	1	4	4
72	5.41025	0.0290251	0	0	4.64513e-035	0	1	4	4
80	6.06621	0.0522447	0	0	4.64513e-035	0	1	4	4
80	6.11846	0.0348301	0	0	4.64513e-035	0	1	4	4
65	6.25778	0.0638547	0	0	4.64513e-035	0	1	4	4
64	6.42612	0.0522451	0	0	4.64513e-035	0	1	4	4
69	6.49578	0.162539	0	0	4.64513e-035	0	1	4	4
50	6.47837	0.238004	0	0	4.64513e-035	0	1	4	4
52	6.84408	0.15093	0	0	4.64513e-035	0	1	4	4
52	6.99501	0.0812697	0	0	4.64513e-035	0	1	4	4
52	7.43039	0.121904	0	0	4.64513e-035	0	1	4	4
55	8.80036	0.0870752	0	0	4.64513e-035	0	1	4	4
57	9.35184	0.0406351	0	0	4.64513e-035	0	1	4	4
55	9.60145	0.0638552	0	0	4.64513e-035	0	1	4	4
55	9.72916	0.0406342	0	0	4.64513e-035	0	1	4	4
55	9.7756	0.133515	0	0	4.64513e-035	0	1	4	4
54	10.06	0.0986843	0	0	4.64513e-035	0	1	4	4
53	10.1587	0.226395	0	0	4.64513e-035	0	1	4	4
53	10.5709	0.145125	0	0	4.64513e-035	0	1	4	4
51	10.7857	0.17415	0	0	4.64513e-035	0	1	4	4
52	11.0063	0.12771	0	0	4.64513e-035	0	1	4	4
50	11.163	0.214784	0	0	4.64513e-035	0	1	4	4
52	11.581	0.133514	0	0	4.64513e-035	0	1	4	4
51	11.7145	0.0406351	0	0	4.64513e-035	0	1	4	4
51	11.9989	0.0638552	0	0	4.64513e-035	0	1	4	4
54	12.0628	0.17415	0	0	4.64513e-035	0	1	4	4
53	12.6258	0.12771	0	0	4.64513e-035	0	1	4	4
56	12.7536	0.0812693	0	0	4.64513e-035	0	1	4	4
53	13.2644	0.0522451	0	0	4.64513e-035	0	1	4	4
53	13.9958	0.313469	0	0	4.64513e-035	0	1	4	4
51	14.3093	0.0406351	0	0	4.64513e-035	0	1	4	4
54	14.3557	0.0580502	0	0	4.64513e-035	0	1	4	4
55	14.5415	0.0986853	0	0	4.64513e-035	0	1	4	4
51	15.1684	0.0348301	0	0	4.64513e-035	0	1	4	4
54	15.2091	0.18576	0	0	4.64513e-035	0	1	4	4
61	15.8128	0.116099	0	0	4.64513e-035	0	1	4	4
52	15.9289	0.1161	0	0	4.64513e-035	0	1	4	4
54	16.3236	0.313469	0	0	4.64513e-035	0	1	4	4
51	16.6719	0.029026	0	0	4.64513e-035	0	1	4	4
55	16.7126	0.0522442	0	0	4.64513e-035	0	1	4	4
57	16.8751	0.1161	0	0	4.64513e-035	0	1	4	4
56	16.9912	0.0986843	0	0	4.64513e-035	0	1	4	4
55	17.0899	0.12771	0	0	4.64513e-035	0	1	4	4
55	17.2176	0.208979	0	0	4.64513e-035	0	1	4	4
55	17.4266	0.133516	0	0	4.64513e-035	0	1	4	4
55	17.5659	0.0870743	0	0	4.64513e-035	0	1	4	4
53	17.9142	0.0812702	0	0	4.64513e-035	0	1	4	4
55	18.0187	0.0986843	0	0	4.64513e-035	0	1	4	4
54	18.2857	0.0870762	0	0	4.64513e-035	0	1	4	4
54	18.6979	0.0232201	0	0	4.64513e-035	0	1	4	4
55	18.7269	0.249615	0	0	4.64513e-035	0	1	4	4
54	19.11	0.0754662	0	0	4.64513e-035	0	1	4	4
55	19.4003	0.150928	0	0	4.64513e-035	0	1	4	4
55	19.6499	0.0928783	0	0	4.64513e-035	0	1	4	4
56	19.7428	0.156734	0	0	4.64513e-035	0	1	4	4
56	19.8995	0.0928802	0	0	4.64513e-035	0	1	4	4
54	20.0969	0.0986843	0	0	4.64513e-035	0	1	4	4
54	20.3	0.0928802	0	0	4.64513e-035	0	1	4	4
52	20.4626	0.145124	0	0	4.64513e-035	0	1	4	4
53	20.7412	0.307665	0	0	4.64513e-035	0	1	4	4
0	21.0489	0.104488	0	0	4.64513e-035	0	1	4	4
56	21.1998	0.0870762	0	0	4.64513e-035	0	1	4	4
56	21.2869	0.0754642	0	0	4.64513e-035	0	1	4	4
53	21.4378	0.110294	0	0	4.64513e-035	0	1	4	4
54	21.5771	0.156734	0	0	4.64513e-035	0	1	4	4
51	22.0415	0.162539	0	0	4.64513e-035	0	1	4	4
52	22.2041	0.0348301	0	0	4.64513e-035	0	1	4	4
56	22.2679	0.284443	0	0	4.64513e-035	0	1	4	4
56	22.6278	0.10449	0	0	4.64513e-035	0	1	4	4
58	22.7323	0.104488	0	0	4.64513e-035	0	1	4	4
58	22.8368	0.0406361	0	0	4.64513e-035	0	1	4	4
60	23.1793	0.168344	0	0	4.64513e-035	0	1	4	4
57	23.5915	0.0522461	0	0	4.64513e-035	0	1	4	4
58	24.3751	0.0986843	0	0	4.64513e-035	0	1	4	4
58	24.6596	0.162539	0	0	4.64513e-035	0	1	4	4
57	25.0659	0.0522442	0	0	4.64513e-035	0	1	4	4
58	25.2401	0.0348301	0	0	4.64513e-035	0	1	4	4
59	25.2749	0.10449	0	0	4.64513e-035	0	1	4	4
55	25.4026	0.10449	0	0	4.64513e-035	0	1	4	4
55	25.78	0.313469	0	0	4.64513e-035	0	1	4	4
55	26.2734	0.10449	0	0	4.64513e-035	0	1	4	4
54	26.4649	0.17415	0	0	4.64513e-035	0	1	4	4
56	26.6391	0.0638542	0	0	4.64513e-035	0	1	4	4
54	26.7552	0.0232201	0	0	4.64513e-035	0	1	4	4
54	27.1151	0.133516	0	0	4.64513e-035	0	1	4	4
55	27.504	0.0928802	0	0	4.64513e-035	0	1	4	4
54	27.7304	0.0522442	0	0	4.64513e-035	0	1	4	4
57	28.2064	0.0290241	0	0	4.64513e-035	0	1	4	4
55	28.3458	0.121906	0	0	4.64513e-035	0	1	4	4
51	28.5896	0.249615	0	0	4.64513e-035	0	1	4	4
52	28.9146	0.0232201	0	0	4.64513e-035	0	1	4	4
