midiPitch 	 onsetSec 	 durationSec 	 onsetBeats 	 onsetBarIndex 	 onsetBar 	 durationBeats 	 velocity  	 numerator 	 denominator 
53	0.406349	0.0928798	0	0	3.06526e-035	0	1	4	4
55	0.626939	0.0406349	0	0	3.06526e-035	0	1	4	4
55	0.667574	0.029025	0	0	3.06526e-035	0	1	4	4
55	0.714014	0.12771	0	0	3.06526e-035	0	1	4	4
60	1.12036	0.040635	0	0	3.06526e-035	0	1	4	4
60	1.1668	0.24381	0	0	3.06526e-035	0	1	4	4
58	1.54993	0.267029	0	0	3.06526e-035	0	1	4	4
55	1.81696	0.2322	0	0	3.06526e-035	0	1	4	4
58	2.26975	0.145125	0	0	3.06526e-035	0	1	4	4
57	2.42068	0.179955	0	0	3.06526e-035	0	1	4	4
58	18.5469	0.0232201	0	0	3.06526e-035	0	1	4	4
55	18.6572	0.0406361	0	0	3.06526e-035	0	1	4	4
52	19.0462	0.0348301	0	0	3.06526e-035	0	1	4	4
54	19.2087	0.0580502	0	0	3.06526e-035	0	1	4	4
52	19.2842	0.0464401	0	0	3.06526e-035	0	1	4	4
53	19.3306	0.0754642	0	0	3.06526e-035	0	1	4	4
59	19.9924	0.0638561	0	0	3.06526e-035	0	1	4	4
59	20.0562	0.127708	0	0	3.06526e-035	0	1	4	4
55	21.3275	0.290249	0	0	3.06526e-035	0	1	4	4
52	23.1155	0.197369	0	0	3.06526e-035	0	1	4	4
57	24.2707	0.220591	0	0	3.06526e-035	0	1	4	4
58	25.0427	0.168344	0	0	3.06526e-035	0	1	4	4
58	26.4011	0.0290241	0	0	3.06526e-035	0	1	4	4
58	26.4359	0.0232182	0	0	3.06526e-035	0	1	4	4
57	26.4882	0.0232201	0	0	3.06526e-035	0	1	4	4
56	26.9061	0.0522442	0	0	3.06526e-035	0	1	4	4
55	26.9758	0.0406342	0	0	3.06526e-035	0	1	4	4
54	27.0338	0.116098	0	0	3.06526e-035	0	1	4	4
58	27.5505	0.0232201	0	0	3.06526e-035	0	1	4	4
60	27.8349	0.0638542	0	0	3.06526e-035	0	1	4	4
56	28.1658	0.1161	0	0	3.06526e-035	0	1	4	4
