midiPitch 	 onsetSec 	 durationSec 	 onsetBeats 	 onsetBarIndex 	 onsetBar 	 durationBeats 	 velocity  	 numerator 	 denominator 
69	0.0464399	0.179955	0	0	0	0	1	4	4
67	0.255419	0.110295	0	0	0	0	1	4	4
64	0.650159	0.0232199	0	0	0	0	1	4	4
64	0.673379	0.029025	0	0	0	0	1	4	4
64	0.702404	0.16254	0	0	0	0	1	4	4
67	0.893968	0.0522449	0	0	0	0	1	4	4
67	0.946213	0.0406349	0	0	0	0	1	4	4
69	1.03329	0.17415	0	0	0	0	1	4	4
65	1.26549	0.10449	0	0	0	0	1	4	4
65	1.36998	0.0812697	0	0	0	0	1	4	4
65	1.45125	0.0754648	0	0	0	0	1	4	4
69	1.68345	0.0928799	0	0	0	0	1	4	4
66	1.92726	0.0348299	0	0	0	0	1	4	4
66	1.96209	0.0232201	0	0	0	0	1	4	4
65	2.06658	0.0928798	0	0	0	0	1	4	4
68	2.2117	0.0928798	0	0	0	0	1	4	4
68	2.35102	0.1161	0	0	0	0	1	4	4
65	2.66449	0.0348299	0	0	0	0	1	4	4
65	2.72254	0.0580499	0	0	0	0	1	4	4
64	3.19855	0.0928798	0	0	0	0	1	4	4
65	3.29143	0.0580499	0	0	0	0	1	4	4
64	3.34948	0.0290248	0	0	0	0	1	4	4
65	3.39592	0.0348299	0	0	0	0	1	4	4
65	3.43655	0.10449	0	0	0	0	1	4	4
65	3.54104	0.0522449	0	0	0	0	1	4	4
68	3.71519	0.179955	0	0	0	0	1	4	4
68	3.94739	0.0406349	0	0	0	0	1	4	4
65	3.98803	0.0406351	0	0	0	0	1	4	4
66	4.26667	0.0406351	0	0	0	0	1	4	4
67	4.31311	0.0638547	0	0	0	0	1	4	4
69	4.37696	0.0348301	0	0	0	0	1	4	4
68	4.41179	0.0348301	0	0	0	0	1	4	4
67	4.46984	0.0348301	0	0	0	0	1	4	4
68	4.70204	0.1161	0	0	0	0	1	4	4
66	4.92263	0.121905	0	0	0	0	1	4	4
68	5.09097	0.0812702	0	0	0	0	1	4	4
68	5.17225	0.0348296	0	0	0	0	1	4	4
68	5.20707	0.0232201	0	0	0	0	1	4	4
70	5.67147	0.0348296	0	0	0	0	1	4	4
68	5.78757	0.0812697	0	0	0	0	1	4	4
64	5.97333	0.0290246	0	0	0	0	1	4	4
68	6.02558	0.0290251	0	0	0	0	1	4	4
63	6.13587	0.145125	0	0	0	0	1	4	4
62	6.33324	0.0406351	0	0	0	0	1	4	4
62	6.4029	0.0406346	0	0	0	0	1	4	4
69	6.57125	0.0406346	0	0	0	0	1	4	4
68	6.87311	0.0638547	0	0	0	0	1	4	4
69	7.18077	0.0464396	0	0	0	0	1	4	4
68	7.22721	0.0464401	0	0	0	0	1	4	4
68	7.33751	0.191565	0	0	0	0	1	4	4
69	7.65097	0.0232201	0	0	0	0	1	4	4
69	7.70322	0.0696597	0	0	0	0	1	4	4
69	7.77288	0.0754647	0	0	0	0	1	4	4
66	8.28952	0.0986843	0	0	0	0	1	4	4
85	8.36499	0.0870752	0	0	0	0	1	4	4
76	9.14286	0.0754652	0	0	0	0	1	4	4
80	9.67111	0.0232201	0	0	0	0	1	4	4
80	9.72916	0.0290241	0	0	0	0	1	4	4
78	9.93234	0.0406342	0	0	0	0	1	4	4
78	9.97878	0.0406351	0	0	0	0	1	4	4
79	10.0542	0.0232201	0	0	0	0	1	4	4
79	10.0891	0.0406351	0	0	0	0	1	4	4
78	10.1587	0.0406351	0	0	0	0	1	4	4
78	10.1994	0.0812702	0	0	0	0	1	4	4
75	10.3445	0.20898	0	0	0	0	1	4	4
77	10.6173	0.0290251	0	0	0	0	1	4	4
78	10.7044	0.0870743	0	0	0	0	1	4	4
77	11.134	0.0290251	0	0	0	0	1	4	4
77	11.3139	0.0232201	0	0	0	0	1	4	4
78	11.3778	0.0348301	0	0	0	0	1	4	4
76	11.6158	0.191565	0	0	0	0	1	4	4
76	11.848	0.0406351	0	0	0	0	1	4	4
76	11.8944	0.0812702	0	0	0	0	1	4	4
79	12.3472	0.0464401	0	0	0	0	1	4	4
77	12.6026	0.267029	0	0	0	0	1	4	4
78	13.694	0.0348301	0	0	0	0	1	4	4
78	13.7346	0.0406351	0	0	0	0	1	4	4
77	13.8043	0.0290251	0	0	0	0	1	4	4
76	14.3035	0.0406351	0	0	0	0	1	4	4
76	14.3499	0.0232201	0	0	0	0	1	4	4
76	14.3732	0.0348301	0	0	0	0	1	4	4
78	14.9827	0.139319	0	0	0	0	1	4	4
78	15.1684	0.0290251	0	0	0	0	1	4	4
78	15.2381	0.0290251	0	0	0	0	1	4	4
77	15.2729	0.0232201	0	0	0	0	1	4	4
78	15.3019	0.0928802	0	0	0	0	1	4	4
77	15.4006	0.0290251	0	0	0	0	1	4	4
77	15.4587	0.0406342	0	0	0	0	1	4	4
77	15.5109	0.0232201	0	0	0	0	1	4	4
77	15.54	0.0812702	0	0	0	0	1	4	4
75	15.6212	0.0638542	0	0	0	0	1	4	4
74	15.6851	0.13932	0	0	0	0	1	4	4
75	15.8244	0.0348301	0	0	0	0	1	4	4
76	15.8708	0.0348291	0	0	0	0	1	4	4
76	15.9057	0.0348301	0	0	0	0	1	4	4
76	16.0392	0.0696602	0	0	0	0	1	4	4
74	16.1959	0.0638561	0	0	0	0	1	4	4
77	16.2772	0.029026	0	0	0	0	1	4	4
77	16.312	0.0232201	0	0	0	0	1	4	4
77	16.341	0.0986843	0	0	0	0	1	4	4
77	16.5849	0.197371	0	0	0	0	1	4	4
75	16.9448	0.0406361	0	0	0	0	1	4	4
63	16.9622	0.0754642	0	0	0	0	1	4	4
63	17.1305	0.0870743	0	0	0	0	1	4	4
64	17.3105	0.0348301	0	0	0	0	1	4	4
63	17.3859	0.0522442	0	0	0	0	1	4	4
67	17.6356	0.0870743	0	0	0	0	1	4	4
66	17.92	0.0406342	0	0	0	0	1	4	4
66	17.9722	0.029026	0	0	0	0	1	4	4
67	19.0868	0.0812702	0	0	0	0	1	4	4
67	19.1913	0.0464401	0	0	0	0	1	4	4
67	19.2377	0.0522442	0	0	0	0	1	4	4
67	19.4293	0.0580502	0	0	0	0	1	4	4
67	19.4873	0.0348301	0	0	0	0	1	4	4
67	19.528	0.0522461	0	0	0	0	1	4	4
66	19.5802	0.0754642	0	0	0	0	1	4	4
67	19.7602	0.127708	0	0	0	0	1	4	4
64	19.9517	0.110294	0	0	0	0	1	4	4
53	20.3697	0.0986843	0	0	0	0	1	4	4
53	20.4684	0.0522442	0	0	0	0	1	4	4
55	20.6948	0.0928802	0	0	0	0	1	4	4
69	21.3624	0.0580502	0	0	0	0	1	4	4
68	21.4959	0.0348301	0	0	0	0	1	4	4
68	21.5365	0.029026	0	0	0	0	1	4	4
68	21.8848	0.0522442	0	0	0	0	1	4	4
67	22.0183	0.208979	0	0	0	0	1	4	4
69	22.3608	0.0754662	0	0	0	0	1	4	4
68	22.8078	0.13932	0	0	0	0	1	4	4
67	22.9703	0.0812702	0	0	0	0	1	4	4
65	23.1909	0.0580502	0	0	0	0	1	4	4
69	23.5508	0.0580502	0	0	0	0	1	4	4
65	25.1995	0.0290241	0	0	0	0	1	4	4
66	25.9889	0.0754642	0	0	0	0	1	4	4
65	26.0644	0.0348301	0	0	0	0	1	4	4
66	26.5752	0.029026	0	0	0	0	1	4	4
67	26.9816	0.0406361	0	0	0	0	1	4	4
63	27.1848	0.0232201	0	0	0	0	1	4	4
66	27.266	0.1161	0	0	0	0	1	4	4
65	27.4982	0.0638561	0	0	0	0	1	4	4
65	27.5853	0.0348301	0	0	0	0	1	4	4
68	27.9917	0.0290241	0	0	0	0	1	4	4
67	28.0207	0.0348301	0	0	0	0	1	4	4
64	28.4851	0.0638542	0	0	0	0	1	4	4
