midiPitch 	 onsetSec 	 durationSec 	 onsetBeats 	 onsetBarIndex 	 onsetBar 	 durationBeats 	 velocity  	 numerator 	 denominator 
72	0.574694	0.400544	0	0	0	0	1	4	4
69	0.975238	0.0812699	0	0	0	0	1	4	4
70	1.25968	0.18576	0	0	0	0	1	4	4
70	1.44544	0.0290248	0	0	0	0	1	4	4
70	1.57315	0.168345	0	0	0	0	1	4	4
68	1.7415	0.179955	0	0	0	0	1	4	4
70	1.92145	0.0638549	0	0	0	0	1	4	4
70	1.98531	0.383129	0	0	0	0	1	4	4
70	2.36844	0.272834	0	0	0	0	1	4	4
68	2.64127	0.214785	0	0	0	0	1	4	4
68	2.85605	0.0580499	0	0	0	0	1	4	4
68	2.9141	0.075465	0	0	0	0	1	4	4
70	2.98957	0.301859	0	0	0	0	1	4	4
68	3.29143	0.296054	0	0	0	0	1	4	4
70	3.58748	0.0406349	0	0	0	0	1	4	4
70	3.64553	0.365714	0	0	0	0	1	4	4
69	4.01125	0.0348301	0	0	0	0	1	4	4
68	4.05188	0.24381	0	0	0	0	1	4	4
70	4.29569	0.226395	0	0	0	0	1	4	4
68	4.52209	0.13932	0	0	0	0	1	4	4
65	4.78331	0.272835	0	0	0	0	1	4	4
65	5.06195	0.156734	0	0	0	0	1	4	4
64	5.21868	0.0290251	0	0	0	0	1	4	4
65	5.24771	0.505034	0	0	0	0	1	4	4
65	5.75274	0.0232201	0	0	0	0	1	4	4
68	5.77596	0.110295	0	0	0	0	1	4	4
65	5.88626	0.0522447	0	0	0	0	1	4	4
65	5.9385	0.261225	0	0	0	0	1	4	4
64	6.22875	0.16254	0	0	0	0	1	4	4
64	6.22875	0.168345	0	0	0	0	1	4	4
60	6.38549	0.464399	0	0	0	0	1	4	4
70	6.84989	0.179955	0	0	0	0	1	4	4
72	7.02984	0.156735	0	0	0	0	1	4	4
65	7.18658	0.203175	0	0	0	0	1	4	4
65	7.38975	0.0522447	0	0	0	0	1	4	4
64	7.442	0.10449	0	0	0	0	1	4	4
72	8.0341	0.168344	0	0	0	0	1	4	4
72	8.20245	0.0638552	0	0	0	0	1	4	4
72	8.2663	0.0290251	0	0	0	0	1	4	4
59	8.32435	0.1161	0	0	0	0	1	4	4
60	8.44045	0.348299	0	0	0	0	1	4	4
59	8.96871	0.2322	0	0	0	0	1	4	4
59	9.20091	0.22059	0	0	0	0	1	4	4
59	9.4215	0.249615	0	0	0	0	1	4	4
60	9.67111	0.133514	0	0	0	0	1	4	4
59	9.91492	0.156734	0	0	0	0	1	4	4
58	10.3967	0.145125	0	0	0	0	1	4	4
58	10.658	0.272835	0	0	0	0	1	4	4
58	11.0875	0.383129	0	0	0	0	1	4	4
68	11.5287	0.22059	0	0	0	0	1	4	4
58	11.7609	0.150929	0	0	0	0	1	4	4
58	12.2717	0.354104	0	0	0	0	1	4	4
58	12.7884	0.179955	0	0	0	0	1	4	4
56	12.9683	0.17415	0	0	0	0	1	4	4
60	13.2354	0.19737	0	0	0	0	1	4	4
65	14.0132	0.121904	0	0	0	0	1	4	4
71	14.3848	0.0638552	0	0	0	0	1	4	4
71	15.0988	0.18576	0	0	0	0	1	4	4
64	15.6212	0.133514	0	0	0	0	1	4	4
65	15.7547	0.249614	0	0	0	0	1	4	4
66	16.0044	0.145126	0	0	0	0	1	4	4
65	16.1495	0.0928783	0	0	0	0	1	4	4
65	16.2424	0.17415	0	0	0	0	1	4	4
65	16.4165	0.18576	0	0	0	0	1	4	4
65	16.6023	0.121904	0	0	0	0	1	4	4
68	16.7242	0.272835	0	0	0	0	1	4	4
68	16.997	0.412153	0	0	0	0	1	4	4
65	17.5601	0.0812683	0	0	0	0	1	4	4
64	17.6414	0.255421	0	0	0	0	1	4	4
65	17.8968	0.307665	0	0	0	0	1	4	4
65	18.2044	0.388933	0	0	0	0	1	4	4
68	18.5934	0.510839	0	0	0	0	1	4	4
70	19.1042	0.168344	0	0	0	0	1	4	4
72	19.2726	0.13932	0	0	0	0	1	4	4
70	19.4119	0.191565	0	0	0	0	1	4	4
70	19.6034	0.214785	0	0	0	0	1	4	4
71	19.9808	0.0348301	0	0	0	0	1	4	4
72	20.0272	0.505033	0	0	0	0	1	4	4
72	20.5555	0.272835	0	0	0	0	1	4	4
71	20.8283	0.168344	0	0	0	0	1	4	4
70	20.9966	0.261225	0	0	0	0	1	4	4
68	21.2579	0.226395	0	0	0	0	1	4	4
64	21.4843	0.0348301	0	0	0	0	1	4	4
65	21.5249	0.191566	0	0	0	0	1	4	4
65	21.7165	0.238003	0	0	0	0	1	4	4
71	21.9603	0.0754642	0	0	0	0	1	4	4
72	22.0357	0.388935	0	0	0	0	1	4	4
65	22.4769	0.214785	0	0	0	0	1	4	4
70	22.6917	0.232201	0	0	0	0	1	4	4
63	23.4405	0.168344	0	0	0	0	1	4	4
65	23.6089	0.301859	0	0	0	0	1	4	4
64	23.9107	0.197371	0	0	0	0	1	4	4
64	24.1081	0.0290241	0	0	0	0	1	4	4
65	24.1429	0.110294	0	0	0	0	1	4	4
64	24.259	0.243811	0	0	0	0	1	4	4
67	24.5029	0.110294	0	0	0	0	1	4	4
68	24.6132	0.0870743	0	0	0	0	1	4	4
56	24.6306	0.261225	0	0	0	0	1	4	4
68	24.8918	0.0812702	0	0	0	0	1	4	4
65	24.9731	0.290249	0	0	0	0	1	4	4
65	25.4839	0.417959	0	0	0	0	1	4	4
65	25.9367	0.336689	0	0	0	0	1	4	4
68	26.2734	0.0464401	0	0	0	0	1	4	4
68	26.3198	0.0696602	0	0	0	0	1	4	4
67	26.3895	0.0406342	0	0	0	0	1	4	4
68	26.4707	0.238005	0	0	0	0	1	4	4
58	26.6913	0.0928802	0	0	0	0	1	4	4
70	26.7842	0.116098	0	0	0	0	1	4	4
72	26.9003	0.0870762	0	0	0	0	1	4	4
70	26.9874	0.208979	0	0	0	0	1	4	4
71	27.1964	0.15093	0	0	0	0	1	4	4
72	27.3473	0.267029	0	0	0	0	1	4	4
72	27.6782	0.63855	0	0	0	0	1	4	4
70	28.3167	0.0232201	0	0	0	0	1	4	4
72	28.4328	0.121904	0	0	0	0	1	4	4
70	28.5547	0.0928802	0	0	0	0	1	4	4
70	28.6476	0.162539	0	0	0	0	1	4	4
68	28.8102	0.0232201	0	0	0	0	1	4	4
68	28.8334	0.110294	0	0	0	0	1	4	4
68	28.9437	0.0406361	0	0	0	0	1	4	4
65	28.9843	0.110294	0	0	0	0	1	4	4
66	29.0946	0.0290241	0	0	0	0	1	4	4
66	29.1236	0.168346	0	0	0	0	1	4	4
