midiPitch 	 onsetSec 	 durationSec 	 onsetBeats 	 onsetBarIndex 	 onsetBar 	 durationBeats 	 velocity  	 numerator 	 denominator 
59	0.0696599	0.255419	0	0	0	0	1	4	4
60	0.325079	1.0449	0	0	0	0	1	4	4
60	1.36998	0.586304	0	0	0	0	1	4	4
62	1.95628	0.0928798	0	0	0	0	1	4	4
60	2.04916	0.0232201	0	0	0	0	1	4	4
56090984	2.13043	0.249615	0	0	0	0	1	4	4
60	3.01859	0.0870748	0	0	0	0	1	4	4
62	3.10567	0.156735	0	0	0	0	1	4	4
63	3.2624	0.22059	0	0	0	0	1	4	4
63	3.48299	0.10449	0	0	0	0	1	4	4
63	3.58748	0.191565	0	0	0	0	1	4	4
60	3.77905	0.214785	0	0	0	0	1	4	4
63	3.99383	0.551474	0	0	0	0	1	4	4
63	4.54531	0.179955	0	0	0	0	1	4	4
63	4.83556	0.191565	0	0	0	0	1	4	4
63	5.05034	0.313469	0	0	0	0	1	4	4
63	5.52054	0.203175	0	0	0	0	1	4	4
61	5.76435	0.110295	0	0	0	0	1	4	4
63	5.87465	0.621134	0	0	0	0	1	4	4
64	6.49578	0.0812697	0	0	0	0	1	4	4
61	7.442	0.481814	0	0	0	0	1	4	4
60	7.94122	0.232199	0	0	0	0	1	4	4
59	8.23728	0.17415	0	0	0	0	1	4	4
60	8.64363	2.00272	0	0	0	0	1	4	4
60	11.1514	0.446983	0	0	0	0	1	4	4
60	11.6796	0.191565	0	0	0	0	1	4	4
59	12.0395	0.0812702	0	0	0	0	1	4	4
60	12.1208	0.296054	0	0	0	0	1	4	4
60	12.4169	0.476009	0	0	0	0	1	4	4
60	13.3108	0.29025	0	0	0	0	1	4	4
56	13.6011	0.110294	0	0	0	0	1	4	4
56	13.7114	0.0580502	0	0	0	0	1	4	4
56090984	13.7752	0.20898	0	0	0	0	1	4	4
60	13.9842	0.156734	0	0	0	0	1	4	4
59	14.3151	0.429569	0	0	0	0	1	4	4
58	14.7447	0.0290251	0	0	0	0	1	4	4
58	15.7025	0.17415	0	0	0	0	1	4	4
58	16.1088	0.313469	0	0	0	0	1	4	4
58	16.5965	0.313469	0	0	0	0	1	4	4
58	16.9738	0.162539	0	0	0	0	1	4	4
58	17.3627	0.435375	0	0	0	0	1	4	4
58	17.7981	0.325079	0	0	0	0	1	4	4
63	18.1232	0.557278	0	0	0	0	1	4	4
63	18.6805	0.121906	0	0	0	0	1	4	4
59	18.901	0.365715	0	0	0	0	1	4	4
58	19.2668	0.162539	0	0	0	0	1	4	4
56	19.4293	0.13932	0	0	0	0	1	4	4
0	19.5686	0.139318	0	0	0	0	1	4	4
57	19.7079	0.133516	0	0	0	0	1	4	4
65	20.3291	0.406349	0	0	0	0	1	4	4
64	20.9386	0.110296	0	0	0	0	1	4	4
65	21.0489	0.238005	0	0	0	0	1	4	4
63	21.3159	0.208979	0	0	0	0	1	4	4
63	21.5249	0.835918	0	0	0	0	1	4	4
63	22.5872	0.232201	0	0	0	0	1	4	4
63	22.8484	0.13932	0	0	0	0	1	4	4
63	23.4522	0.568888	0	0	0	0	1	4	4
63	24.021	0.267031	0	0	0	0	1	4	4
61	24.3868	0.145124	0	0	0	0	1	4	4
63	24.5319	1.23646	0	0	0	0	1	4	4
63	25.7683	0.0870743	0	0	0	0	1	4	4
63	25.8554	0.655964	0	0	0	0	1	4	4
62	26.5114	0.0348301	0	0	0	0	1	4	4
63	26.8074	0.388933	0	0	0	0	1	4	4
63	27.6956	0.255419	0	0	0	0	1	4	4
61	27.951	0.301861	0	0	0	0	1	4	4
59	28.2529	0.476007	0	0	0	0	1	4	4
61	28.7637	0.278641	0	0	0	0	1	4	4
61	29.0424	0.168344	0	0	0	0	1	4	4
62	29.2107	0.772062	0	0	0	0	1	4	4
