midiPitch 	 onsetSec 	 durationSec 	 onsetBeats 	 onsetBarIndex 	 onsetBar 	 durationBeats 	 velocity  	 numerator 	 denominator 
57	0.0406349	0.156735	0	0	0	0	1	4	4
56	0.238005	0.179955	0	0	0	0	1	4	4
57	0.417959	0.249615	0	0	0	0	1	4	4
51	0.859138	0.226395	0	0	0	0	1	4	4
52	1.24807	0.371519	0	0	0	0	1	4	4
62	6.83828	0.238005	0	0	0	0	1	4	4
62	7.12272	0.19737	0	0	0	0	1	4	4
62	7.63356	1.2829	0	0	0	0	1	4	4
62	8.91646	0.20898	0	0	0	0	1	4	4
62	9.12544	0.0928802	0	0	0	0	1	4	4
59	9.21832	0.150929	0	0	0	0	1	4	4
56	9.52018	0.232199	0	0	0	0	1	4	4
55	12.6026	0.139319	0	0	0	0	1	4	4
57	12.8871	0.19737	0	0	0	0	1	4	4
58	13.0844	0.563084	0	0	0	0	1	4	4
57	13.7114	0.24381	0	0	0	0	1	4	4
55	13.9552	0.179955	0	0	0	0	1	4	4
55	14.1351	0.2322	0	0	0	0	1	4	4
52	14.3732	0.417959	0	0	0	0	1	4	4
55	14.7911	0.278639	0	0	0	0	1	4	4
52	15.1104	0.10449	0	0	0	0	1	4	4
52	15.2497	0.516644	0	0	0	0	1	4	4
52	15.7663	0.377324	0	0	0	0	1	4	4
55	21.2579	0.0348301	0	0	0	0	1	4	4
62	21.3217	0.307665	0	0	0	0	1	4	4
62	21.6352	0.226395	0	0	0	0	1	4	4
59	21.8848	0.354103	0	0	0	0	1	4	4
64	22.2389	0.261225	0	0	0	0	1	4	4
65	22.5001	0.789478	0	0	0	0	1	4	4
69	23.6147	0.168344	0	0	0	0	1	4	4
69	23.6147	0.17415	0	0	0	0	1	4	4
56	23.7772	0.249615	0	0	0	0	1	4	4
29090152	24.677	0.261225	0	0	0	0	1	4	4
0	24.9382	0.15093	0	0	0	0	1	4	4
68	26.9584	0.203175	0	0	0	0	1	4	4
68	27.1615	0.0870762	0	0	0	0	1	4	4
68	27.2486	0.0522442	0	0	0	0	1	4	4
58	27.475	0.66177	0	0	0	0	1	4	4
57	28.1368	0.10449	0	0	0	0	1	4	4
57	28.2413	0.150928	0	0	0	0	1	4	4
56	28.3922	0.214785	0	0	0	0	1	4	4
55	29.2107	0.208979	0	0	0	0	1	4	4
