midiPitch 	 onsetSec 	 durationSec 	 onsetBeats 	 onsetBarIndex 	 onsetBar 	 durationBeats 	 velocity  	 numerator 	 denominator 
50	0.499229	0.145125	0	0	4.73947e-035	0	1	4	4
48	0.644354	0.168345	0	0	4.73947e-035	0	1	4	4
52	4.92263	0.0754647	0	0	4.73947e-035	0	1	4	4
50	4.9981	0.0580502	0	0	4.73947e-035	0	1	4	4
51	5.13741	0.0290251	0	0	4.73947e-035	0	1	4	4
51	5.17225	0.110294	0	0	4.73947e-035	0	1	4	4
50	5.28254	0.16254	0	0	4.73947e-035	0	1	4	4
49	5.44508	0.110295	0	0	4.73947e-035	0	1	4	4
53	5.71211	0.238005	0	0	4.73947e-035	0	1	4	4
49	5.95011	0.226395	0	0	4.73947e-035	0	1	4	4
53	6.30422	0.168345	0	0	4.73947e-035	0	1	4	4
48	9.60145	0.406349	0	0	4.73947e-035	0	1	4	4
67	9.92073	0.20898	0	0	4.73947e-035	0	1	4	4
62	10.1355	0.220589	0	0	4.73947e-035	0	1	4	4
62	10.4025	0.563085	0	0	4.73947e-035	0	1	4	4
53	16.939	0.0754642	0	0	4.73947e-035	0	1	4	4
52	17.0144	0.0638542	0	0	4.73947e-035	0	1	4	4
52	17.1189	0.150928	0	0	4.73947e-035	0	1	4	4
54	17.4266	0.18576	0	0	4.73947e-035	0	1	4	4
48	18.0129	0.110294	0	0	4.73947e-035	0	1	4	4
51	20.1201	0.278639	0	0	4.73947e-035	0	1	4	4
52	20.3987	0.0232201	0	0	4.73947e-035	0	1	4	4
53	20.4858	0.156734	0	0	4.73947e-035	0	1	4	4
49	21.0315	0.208981	0	0	4.73947e-035	0	1	4	4
50	27.0861	0.551474	0	0	4.73947e-035	0	1	4	4
62	28.1484	0.0580502	0	0	4.73947e-035	0	1	4	4
62	28.2064	0.940407	0	0	4.73947e-035	0	1	4	4
62	29.1468	0.516645	0	0	4.73947e-035	0	1	4	4
62	29.6635	0.290249	0	0	4.73947e-035	0	1	4	4
