midiPitch 	 onsetSec 	 durationSec 	 onsetBeats 	 onsetBarIndex 	 onsetBar 	 durationBeats 	 velocity  	 numerator 	 denominator 
70	0.0754649	0.0290249	0	0	0	0	1	4	4
67	1.98531	0.0406348	0	0	0	0	1	4	4
68	2.04336	0.0580499	0	0	0	0	1	4	4
68	2.10141	0.13932	0	0	0	0	1	4	4
69	2.24073	0.087075	0	0	0	0	1	4	4
69	2.3278	0.191565	0	0	0	0	1	4	4
69	2.53678	0.133515	0	0	0	0	1	4	4
69	2.67029	0.0986848	0	0	0	0	1	4	4
69	2.76898	0.0928798	0	0	0	0	1	4	4
70	2.86186	0.168345	0	0	0	0	1	4	4
70	3.0302	0.278639	0	0	0	0	1	4	4
8511848	3.30884	0.17415	0	0	0	0	1	4	4
71	3.48299	0.0348299	0	0	0	0	1	4	4
71	3.52363	0.249614	0	0	0	0	1	4	4
68	3.77324	0.394739	0	0	0	0	1	4	4
73	4.20281	0.226395	0	0	0	0	1	4	4
71	4.42921	0.179955	0	0	0	0	1	4	4
71	4.60916	0.0870748	0	0	0	0	1	4	4
70	4.69624	0.0638552	0	0	0	0	1	4	4
70	4.96327	0.238004	0	0	0	0	1	4	4
69	5.20127	0.214785	0	0	0	0	1	4	4
83	7.62776	0.0580497	0	0	0	0	1	4	4
86	7.6858	0.156734	0	0	0	0	1	4	4
83	7.85415	0.0580502	0	0	0	0	1	4	4
86	8.05732	0.0870743	0	0	0	0	1	4	4
77	10.002	0.150929	0	0	0	0	1	4	4
70	10.3677	0.0232201	0	0	0	0	1	4	4
72	10.3909	0.0348301	0	0	0	0	1	4	4
72	10.4258	0.0870752	0	0	0	0	1	4	4
72	10.9192	0.139319	0	0	0	0	1	4	4
72	11.0585	0.0348301	0	0	0	0	1	4	4
72	12.3124	0.20898	0	0	0	0	1	4	4
69	12.8755	0.121905	0	0	0	0	1	4	4
69	12.9974	0.20898	0	0	0	0	1	4	4
69	13.2063	0.0580492	0	0	0	0	1	4	4
74	17.206	0.0696602	0	0	0	0	1	4	4
73	17.2756	0.12771	0	0	0	0	1	4	4
72	17.4034	0.0290241	0	0	0	0	1	4	4
72	19.0752	0.203175	0	0	0	0	1	4	4
72	19.2784	0.029026	0	0	0	0	1	4	4
69	19.795	0.208979	0	0	0	0	1	4	4
69	20.004	0.319275	0	0	0	0	1	4	4
77	22.8426	0.10449	0	0	0	0	1	4	4
77	22.9471	0.150928	0	0	0	0	1	4	4
85	26.8249	0.0986843	0	0	0	0	1	4	4
