midiPitch 	 onsetSec 	 durationSec 	 onsetBeats 	 onsetBarIndex 	 onsetBar 	 durationBeats 	 velocity  	 numerator 	 denominator 
72	0.534059	0.0232199	0	0	4.0432e-035	0	1	4	4
62	2.19429	0.0406349	0	0	4.0432e-035	0	1	4	4
62	2.41488	0.0290248	0	0	4.0432e-035	0	1	4	4
67	2.4381	0.156735	0	0	4.0432e-035	0	1	4	4
60	2.61224	0.0638549	0	0	4.0432e-035	0	1	4	4
62	2.87927	0.354104	0	0	4.0432e-035	0	1	4	4
60	3.27982	0.191565	0	0	4.0432e-035	0	1	4	4
59	3.47138	0.24381	0	0	4.0432e-035	0	1	4	4
59	3.71519	0.0464399	0	0	4.0432e-035	0	1	4	4
59	3.76163	0.0580497	0	0	4.0432e-035	0	1	4	4
59	3.97642	0.0464401	0	0	4.0432e-035	0	1	4	4
60	4.04027	0.0232196	0	0	4.0432e-035	0	1	4	4
60	4.0693	0.0290251	0	0	4.0432e-035	0	1	4	4
68	4.09832	0.0406351	0	0	4.0432e-035	0	1	4	4
68	4.15637	0.568889	0	0	4.0432e-035	0	1	4	4
67	5.39283	0.179955	0	0	4.0432e-035	0	1	4	4
60	5.60762	0.417959	0	0	4.0432e-035	0	1	4	4
60	6.02558	0.0232201	0	0	4.0432e-035	0	1	4	4
61	6.0546	0.284444	0	0	4.0432e-035	0	1	4	4
62	6.46095	0.20898	0	0	4.0432e-035	0	1	4	4
62	6.66993	0.0928798	0	0	4.0432e-035	0	1	4	4
63	6.80345	0.0870748	0	0	4.0432e-035	0	1	4	4
60	7.25043	0.325079	0	0	4.0432e-035	0	1	4	4
62	7.78449	0.145125	0	0	4.0432e-035	0	1	4	4
62	7.92961	0.220589	0	0	4.0432e-035	0	1	4	4
61	9.24735	0.191565	0	0	4.0432e-035	0	1	4	4
59	9.49696	0.116099	0	0	4.0432e-035	0	1	4	4
61	9.72916	0.423763	0	0	4.0432e-035	0	1	4	4
59	10.7334	0.261224	0	0	4.0432e-035	0	1	4	4
61	11.0005	0.476009	0	0	4.0432e-035	0	1	4	4
63	11.4765	0.116099	0	0	4.0432e-035	0	1	4	4
74	11.4765	0.319274	0	0	4.0432e-035	0	1	4	4
69	13.0902	0.168344	0	0	4.0432e-035	0	1	4	4
69	13.2586	0.0754652	0	0	4.0432e-035	0	1	4	4
74	14.3325	0.162539	0	0	4.0432e-035	0	1	4	4
75	14.5705	0.139319	0	0	4.0432e-035	0	1	4	4
80	15.8186	0.0348301	0	0	4.0432e-035	0	1	4	4
68	15.8302	0.603718	0	0	4.0432e-035	0	1	4	4
63	16.579	0.232199	0	0	4.0432e-035	0	1	4	4
71	17.0318	0.208981	0	0	4.0432e-035	0	1	4	4
58	17.2408	0.0290241	0	0	4.0432e-035	0	1	4	4
60	17.4208	0.272835	0	0	4.0432e-035	0	1	4	4
62	17.8852	0.174149	0	0	4.0432e-035	0	1	4	4
61	18.0593	0.145126	0	0	4.0432e-035	0	1	4	4
58	18.2102	0.145124	0	0	4.0432e-035	0	1	4	4
59	18.576	0.377323	0	0	4.0432e-035	0	1	4	4
58	18.9533	0.0406361	0	0	4.0432e-035	0	1	4	4
59	18.9997	0.15093	0	0	4.0432e-035	0	1	4	4
62	20.956	0.0348301	0	0	4.0432e-035	0	1	4	4
62	21.0141	0.168344	0	0	4.0432e-035	0	1	4	4
61	21.1824	0.168344	0	0	4.0432e-035	0	1	4	4
62	21.4668	0.243809	0	0	4.0432e-035	0	1	4	4
62	21.7107	0.12771	0	0	4.0432e-035	0	1	4	4
60	22.2679	0.0464401	0	0	4.0432e-035	0	1	4	4
58	22.4827	0.226395	0	0	4.0432e-035	0	1	4	4
86434152	23.963	0.383129	0	0	4.0432e-035	0	1	4	4
62	24.41	0.191565	0	0	4.0432e-035	0	1	4	4
61	24.6248	0.226395	0	0	4.0432e-035	0	1	4	4
61	24.8512	0.220589	0	0	4.0432e-035	0	1	4	4
60	25.0717	0.17415	0	0	4.0432e-035	0	1	4	4
60	25.2459	0.168344	0	0	4.0432e-035	0	1	4	4
0	25.4142	0.15093	0	0	4.0432e-035	0	1	4	4
59	25.5652	0.191565	0	0	4.0432e-035	0	1	4	4
59	25.7567	0.296053	0	0	4.0432e-035	0	1	4	4
60	27.4866	0.249615	0	0	4.0432e-035	0	1	4	4
60	27.7769	0.365713	0	0	4.0432e-035	0	1	4	4
58	28.1426	0.156734	0	0	4.0432e-035	0	1	4	4
61	28.2993	0.319275	0	0	4.0432e-035	0	1	4	4
59	28.7463	0.417959	0	0	4.0432e-035	0	1	4	4
