midiPitch 	 onsetSec 	 durationSec 	 onsetBeats 	 onsetBarIndex 	 onsetBar 	 durationBeats 	 velocity  	 numerator 	 denominator 
81	3.87193	0.0290251	0	0	2.14378e-035	0	1	4	4
83	3.92998	0.0580499	0	0	2.14378e-035	0	1	4	4
81	4.00544	0.179955	0	0	2.14378e-035	0	1	4	4
77	4.24345	0.168344	0	0	2.14378e-035	0	1	4	4
81	4.41179	0.133515	0	0	2.14378e-035	0	1	4	4
81	4.71365	0.162539	0	0	2.14378e-035	0	1	4	4
66	4.77751	1.10295	0	0	2.14378e-035	0	1	4	4
66	5.88045	0.476009	0	0	2.14378e-035	0	1	4	4
66	6.35646	0.255419	0	0	2.14378e-035	0	1	4	4
66	6.61188	0.15093	0	0	2.14378e-035	0	1	4	4
66	6.76281	0.307664	0	0	2.14378e-035	0	1	4	4
68	7.14594	0.354105	0	0	2.14378e-035	0	1	4	4
65	7.50005	0.2322	0	0	2.14378e-035	0	1	4	4
64	7.73224	0.35991	0	0	2.14378e-035	0	1	4	4
64	8.09215	0.673378	0	0	2.14378e-035	0	1	4	4
68	8.76553	0.435374	0	0	2.14378e-035	0	1	4	4
68	9.83946	0.127709	0	0	2.14378e-035	0	1	4	4
64	9.96716	0.272835	0	0	2.14378e-035	0	1	4	4
62	10.24	0.127709	0	0	2.14378e-035	0	1	4	4
66	10.5477	0.922993	0	0	2.14378e-035	0	1	4	4
60	16.0798	0.0406342	0	0	2.14378e-035	0	1	4	4
63	16.1263	0.116098	0	0	2.14378e-035	0	1	4	4
61	16.2424	0.0522461	0	0	2.14378e-035	0	1	4	4
64	16.3236	0.0812702	0	0	2.14378e-035	0	1	4	4
60	16.4049	0.145124	0	0	2.14378e-035	0	1	4	4
64	16.5384	0.0986843	0	0	2.14378e-035	0	1	4	4
61	16.6371	0.0406361	0	0	2.14378e-035	0	1	4	4
64	16.8287	0.0348301	0	0	2.14378e-035	0	1	4	4
61	16.8635	0.1161	0	0	2.14378e-035	0	1	4	4
61	16.9796	0.307665	0	0	2.14378e-035	0	1	4	4
61	17.2873	0.156734	0	0	2.14378e-035	0	1	4	4
61	17.444	0.0638542	0	0	2.14378e-035	0	1	4	4
61	17.5427	0.336689	0	0	2.14378e-035	0	1	4	4
61	17.949	0.029026	0	0	2.14378e-035	0	1	4	4
61	18.0361	0.0522442	0	0	2.14378e-035	0	1	4	4
63	18.0883	0.0290241	0	0	2.14378e-035	0	1	4	4
61	18.1406	0.0870762	0	0	2.14378e-035	0	1	4	4
63	18.2973	0.0406361	0	0	2.14378e-035	0	1	4	4
64	18.4424	0.0754642	0	0	2.14378e-035	0	1	4	4
63	18.5179	0.0638542	0	0	2.14378e-035	0	1	4	4
61	18.5818	0.197371	0	0	2.14378e-035	0	1	4	4
61	18.843	0.0754642	0	0	2.14378e-035	0	1	4	4
62	18.9185	0.0986862	0	0	2.14378e-035	0	1	4	4
59	19.0171	0.290249	0	0	2.14378e-035	0	1	4	4
60	19.3074	0.0696602	0	0	2.14378e-035	0	1	4	4
58	19.3771	0.0812702	0	0	2.14378e-035	0	1	4	4
59	19.4583	0.208979	0	0	2.14378e-035	0	1	4	4
59	19.6673	0.220589	0	0	2.14378e-035	0	1	4	4
59	19.8879	0.435375	0	0	2.14378e-035	0	1	4	4
60	20.3233	0.0464401	0	0	2.14378e-035	0	1	4	4
60	20.3871	0.156734	0	0	2.14378e-035	0	1	4	4
62	21.5713	0.0986862	0	0	2.14378e-035	0	1	4	4
60	21.7571	0.145124	0	0	2.14378e-035	0	1	4	4
62	21.9371	0.145124	0	0	2.14378e-035	0	1	4	4
62	22.2854	0.0870743	0	0	2.14378e-035	0	1	4	4
75	27.475	0.0406361	0	0	2.14378e-035	0	1	4	4
72	27.5156	0.0290241	0	0	2.14378e-035	0	1	4	4
75	27.5447	0.0580502	0	0	2.14378e-035	0	1	4	4
69	27.6027	0.0348301	0	0	2.14378e-035	0	1	4	4
72	27.6492	0.17415	0	0	2.14378e-035	0	1	4	4
73	27.9742	0.0696602	0	0	2.14378e-035	0	1	4	4
73	28.0613	0.0580482	0	0	2.14378e-035	0	1	4	4
76	28.1484	0.0348301	0	0	2.14378e-035	0	1	4	4
73	28.1832	0.0638542	0	0	2.14378e-035	0	1	4	4
76	28.2761	0.0464382	0	0	2.14378e-035	0	1	4	4
73	28.3341	0.133516	0	0	2.14378e-035	0	1	4	4
76	28.4851	0.0580502	0	0	2.14378e-035	0	1	4	4
73	28.5431	0.208979	0	0	2.14378e-035	0	1	4	4
73	28.8566	0.226395	0	0	2.14378e-035	0	1	4	4
76	29.083	0.0290241	0	0	2.14378e-035	0	1	4	4
73	29.112	0.168346	0	0	2.14378e-035	0	1	4	4
73	29.2804	0.325079	0	0	2.14378e-035	0	1	4	4
73	29.6054	0.0812702	0	0	2.14378e-035	0	1	4	4
72	29.6867	0.0406342	0	0	2.14378e-035	0	1	4	4
