midiPitch 	 onsetSec 	 durationSec 	 onsetBeats 	 onsetBarIndex 	 onsetBar 	 durationBeats 	 velocity  	 numerator 	 denominator 
78	4.02286	0.0290246	0	0	3.53549e-035	0	1	4	4
74	4.38857	0.0290251	0	0	3.53549e-035	0	1	4	4
72	4.42921	0.110295	0	0	3.53549e-035	0	1	4	4
67	4.95166	0.0348296	0	0	3.53549e-035	0	1	4	4
69	4.98649	0.0232201	0	0	3.53549e-035	0	1	4	4
67	5.03873	0.0754647	0	0	3.53549e-035	0	1	4	4
67	5.25932	0.139319	0	0	3.53549e-035	0	1	4	4
67	5.39864	0.0406351	0	0	3.53549e-035	0	1	4	4
67	5.44508	0.13932	0	0	3.53549e-035	0	1	4	4
62	7.34912	0.0348301	0	0	3.53549e-035	0	1	4	4
62	7.38975	0.214785	0	0	3.53549e-035	0	1	4	4
62	7.60454	0.342494	0	0	3.53549e-035	0	1	4	4
62	7.94703	0.110295	0	0	3.53549e-035	0	1	4	4
62	8.05732	0.0812693	0	0	3.53549e-035	0	1	4	4
62	8.15601	0.121905	0	0	3.53549e-035	0	1	4	4
62	8.30694	0.197371	0	0	3.53549e-035	0	1	4	4
72	22.9181	0.0696602	0	0	3.53549e-035	0	1	4	4
72	23.098	0.0522461	0	0	3.53549e-035	0	1	4	4
72	23.1503	0.0232182	0	0	3.53549e-035	0	1	4	4
72	23.1909	0.0638542	0	0	3.53549e-035	0	1	4	4
72	23.2548	0.0406361	0	0	3.53549e-035	0	1	4	4
72	23.3128	0.110294	0	0	3.53549e-035	0	1	4	4
72	23.4231	0.0232201	0	0	3.53549e-035	0	1	4	4
72	23.4463	0.0986862	0	0	3.53549e-035	0	1	4	4
72	23.545	0.116098	0	0	3.53549e-035	0	1	4	4
72	23.6902	0.0522442	0	0	3.53549e-035	0	1	4	4
70	23.8005	0.0696602	0	0	3.53549e-035	0	1	4	4
70	23.9049	0.0812683	0	0	3.53549e-035	0	1	4	4
81	24.9789	0.0522442	0	0	3.53549e-035	0	1	4	4
81	25.0311	0.0348301	0	0	3.53549e-035	0	1	4	4
81	25.0776	0.0464401	0	0	3.53549e-035	0	1	4	4
81	25.124	0.0232201	0	0	3.53549e-035	0	1	4	4
81	25.153	0.0696602	0	0	3.53549e-035	0	1	4	4
69	25.2401	0.0406361	0	0	3.53549e-035	0	1	4	4
69	25.3097	0.0580502	0	0	3.53549e-035	0	1	4	4
69	25.3678	0.0348301	0	0	3.53549e-035	0	1	4	4
69	25.4084	0.0870743	0	0	3.53549e-035	0	1	4	4
69	25.5536	0.0812683	0	0	3.53549e-035	0	1	4	4
69	25.6348	0.0406361	0	0	3.53549e-035	0	1	4	4
69	25.6813	0.179955	0	0	3.53549e-035	0	1	4	4
69	25.8612	0.0696602	0	0	3.53549e-035	0	1	4	4
69	25.9309	0.0348301	0	0	3.53549e-035	0	1	4	4
69	25.9657	0.145124	0	0	3.53549e-035	0	1	4	4
69	26.1108	0.145124	0	0	3.53549e-035	0	1	4	4
69	26.256	0.029026	0	0	3.53549e-035	0	1	4	4
69	26.2908	0.0986862	0	0	3.53549e-035	0	1	4	4
69	26.3895	0.139318	0	0	3.53549e-035	0	1	4	4
69	26.5288	0.220591	0	0	3.53549e-035	0	1	4	4
69	26.7494	0.0638542	0	0	3.53549e-035	0	1	4	4
69	26.8132	0.0928802	0	0	3.53549e-035	0	1	4	4
67	26.9526	0.0522442	0	0	3.53549e-035	0	1	4	4
67	27.0803	0.0522461	0	0	3.53549e-035	0	1	4	4
67	27.1848	0.0812702	0	0	3.53549e-035	0	1	4	4
69	27.6782	0.168346	0	0	3.53549e-035	0	1	4	4
69	28.2993	0.17415	0	0	3.53549e-035	0	1	4	4
69	28.4735	0.0406342	0	0	3.53549e-035	0	1	4	4
69	28.5141	0.0986862	0	0	3.53549e-035	0	1	4	4
69	28.6128	0.0464401	0	0	3.53549e-035	0	1	4	4
