midiPitch 	 onsetSec 	 durationSec 	 onsetBeats 	 onsetBarIndex 	 onsetBar 	 durationBeats 	 velocity  	 numerator 	 denominator 
57	0.0464399	0.307664	0	0	0	0	1	4	4
57	0.441179	0.0638549	0	0	0	0	1	4	4
57	0.505034	0.238005	0	0	0	0	1	4	4
57	0.812698	0.690794	0	0	0	0	1	4	4
59	1.61959	0.249614	0	0	0	0	1	4	4
60	1.86921	0.168345	0	0	0	0	1	4	4
59	2.13043	0.15093	0	0	0	0	1	4	4
57	2.37424	0.19737	0	0	0	0	1	4	4
55	2.87927	0.481814	0	0	0	0	1	4	4
59	3.76163	0.243809	0	0	0	0	1	4	4
57	4.10413	0.0870748	0	0	0	0	1	4	4
55	4.34794	0.20898	0	0	0	0	1	4	4
54	4.84136	0.534059	0	0	0	0	1	4	4
57	5.72952	0.24381	0	0	0	0	1	4	4
55	6.08363	0.168344	0	0	0	0	1	4	4
54	6.35066	0.226395	0	0	0	0	1	4	4
52	6.99501	1.68345	0	0	0	0	1	4	4
49	9.79302	0.203175	0	0	0	0	1	4	4
50	9.99619	1.09134	0	0	0	0	1	4	4
51	11.2675	0.145124	0	0	0	0	1	4	4
52	11.4126	0.203175	0	0	0	0	1	4	4
52	11.6158	0.19737	0	0	0	0	1	4	4
54	11.8132	0.37152	0	0	0	0	1	4	4
54	12.2485	0.354105	0	0	0	0	1	4	4
54	12.7187	0.597914	0	0	0	0	1	4	4
54	13.4618	0.20898	0	0	0	0	1	4	4
55	13.6707	0.203175	0	0	0	0	1	4	4
54	13.9668	0.145124	0	0	0	0	1	4	4
55	14.1758	0.19737	0	0	0	0	1	4	4
54	14.6692	1.30032	0	0	0	0	1	4	4
54	15.9695	0.661769	0	0	0	0	1	4	4
52	17.6297	0.214785	0	0	0	0	1	4	4
29679976	17.9432	0.354103	0	0	0	0	1	4	4
52	18.2973	0.197371	0	0	0	0	1	4	4
50	18.9127	2.40907	0	0	0	0	1	4	4
50	21.3217	0.847528	0	0	0	0	1	4	4
48	26.9816	0.121904	0	0	0	0	1	4	4
50	27.1035	0.301861	0	0	0	0	1	4	4
49	27.4054	0.0232201	0	0	0	0	1	4	4
50	27.4344	0.406349	0	0	0	0	1	4	4
52	28.0091	0.336689	0	0	0	0	1	4	4
51	28.4735	0.10449	0	0	0	0	1	4	4
54	28.578	0.667574	0	0	0	0	1	4	4
