midiPitch 	 onsetSec 	 durationSec 	 onsetBeats 	 onsetBarIndex 	 onsetBar 	 durationBeats 	 velocity  	 numerator 	 denominator 
63	2.06077	0.481814	0	0	2.26624e-035	0	1	4	4
66	2.54258	0.650159	0	0	2.26624e-035	0	1	4	4
66	3.19274	0.946213	0	0	2.26624e-035	0	1	4	4
65	4.13896	0.150929	0	0	2.26624e-035	0	1	4	4
65	4.28989	0.0290251	0	0	2.26624e-035	0	1	4	4
65	4.32472	0.0464396	0	0	2.26624e-035	0	1	4	4
68	4.37116	0.121905	0	0	2.26624e-035	0	1	4	4
63	4.49306	0.110295	0	0	2.26624e-035	0	1	4	4
65	4.60336	0.0812697	0	0	2.26624e-035	0	1	4	4
62	4.68463	0.0986848	0	0	2.26624e-035	0	1	4	4
66	4.78331	0.0928798	0	0	2.26624e-035	0	1	4	4
63	4.87619	0.19737	0	0	2.26624e-035	0	1	4	4
62	5.07356	0.10449	0	0	2.26624e-035	0	1	4	4
66	5.17805	0.19737	0	0	2.26624e-035	0	1	4	4
63	5.37542	0.232199	0	0	2.26624e-035	0	1	4	4
56	5.60762	0.743039	0	0	2.26624e-035	0	1	4	4
61	6.35066	0.249615	0	0	2.26624e-035	0	1	4	4
61	6.71637	0.400545	0	0	2.26624e-035	0	1	4	4
61	7.11692	0.249614	0	0	2.26624e-035	0	1	4	4
69	7.43039	0.0406346	0	0	2.26624e-035	0	1	4	4
61	7.47102	0.557279	0	0	2.26624e-035	0	1	4	4
61	8.0283	1.20744	0	0	2.26624e-035	0	1	4	4
61	9.23574	0.156734	0	0	2.26624e-035	0	1	4	4
65	9.69433	0.156734	0	0	2.26624e-035	0	1	4	4
65	9.85107	0.313469	0	0	2.26624e-035	0	1	4	4
66	10.1645	0.743039	0	0	2.26624e-035	0	1	4	4
65	10.9424	0.917188	0	0	2.26624e-035	0	1	4	4
63	11.9989	0.563085	0	0	2.26624e-035	0	1	4	4
61	12.562	0.272834	0	0	2.26624e-035	0	1	4	4
63	12.8348	1.09714	0	0	2.26624e-035	0	1	4	4
65	13.932	0.476009	0	0	2.26624e-035	0	1	4	4
65	14.408	1.82857	0	0	2.26624e-035	0	1	4	4
61	18.1058	0.121906	0	0	2.26624e-035	0	1	4	4
63	18.2277	0.139318	0	0	2.26624e-035	0	1	4	4
65	18.367	0.818504	0	0	2.26624e-035	0	1	4	4
66	19.1855	0.911383	0	0	2.26624e-035	0	1	4	4
66	20.0969	0.16254	0	0	2.26624e-035	0	1	4	4
68	20.2594	0.905577	0	0	2.26624e-035	0	1	4	4
65	21.2927	1.32934	0	0	2.26624e-035	0	1	4	4
65	22.622	0.61533	0	0	2.26624e-035	0	1	4	4
65	23.2374	1.57896	0	0	2.26624e-035	0	1	4	4
65	24.8163	0.0696602	0	0	2.26624e-035	0	1	4	4
65	25.6	1.13197	0	0	2.26624e-035	0	1	4	4
66	26.732	1.13197	0	0	2.26624e-035	0	1	4	4
68	27.8639	0.847528	0	0	2.26624e-035	0	1	4	4
