midiPitch 	 onsetSec 	 durationSec 	 onsetBeats 	 onsetBarIndex 	 onsetBar 	 durationBeats 	 velocity  	 numerator 	 denominator 
84	4.12154	0.22059	0	0	0	0	1	4	4
83	4.34213	0.110295	0	0	0	0	1	4	4
83	4.59175	0.13932	0	0	0	0	1	4	4
83	5.30576	0.423764	0	0	0	0	1	4	4
83	5.72952	0.0348301	0	0	0	0	1	4	4
84	5.85143	0.0290251	0	0	0	0	1	4	4
83	5.88045	0.0986848	0	0	0	0	1	4	4
84	6.09524	0.0522447	0	0	0	0	1	4	4
84	6.14748	0.0754647	0	0	0	0	1	4	4
83	6.22295	0.0348301	0	0	0	0	1	4	4
83	6.61769	0.0406351	0	0	0	0	1	4	4
84	6.65832	0.0348301	0	0	0	0	1	4	4
85	6.69315	0.0406346	0	0	0	0	1	4	4
84	6.73379	0.0522451	0	0	0	0	1	4	4
84	6.78603	0.0580497	0	0	0	0	1	4	4
72	6.94277	0.12771	0	0	0	0	1	4	4
83	7.10531	0.278639	0	0	0	0	1	4	4
84	7.38395	0.574694	0	0	0	0	1	4	4
83	8.06313	0.156734	0	0	0	0	1	4	4
83	8.23147	0.133514	0	0	0	0	1	4	4
83	8.36499	0.25542	0	0	0	0	1	4	4
83	8.62041	0.0986843	0	0	0	0	1	4	4
83	8.71909	0.19737	0	0	0	0	1	4	4
83	8.91646	0.261225	0	0	0	0	1	4	4
83	9.20671	0.139319	0	0	0	0	1	4	4
83	9.34603	0.13932	0	0	0	0	1	4	4
83	9.48535	0.0812693	0	0	0	0	1	4	4
83	9.61887	0.0812702	0	0	0	0	1	4	4
83	9.70014	0.0928793	0	0	0	0	1	4	4
83	9.85687	0.0464401	0	0	0	0	1	4	4
83	9.90331	0.0290251	0	0	0	0	1	4	4
83	9.93814	0.0986843	0	0	0	0	1	4	4
83	10.0368	0.0290251	0	0	0	0	1	4	4
83	10.1065	0.0290251	0	0	0	0	1	4	4
83	10.1703	0.15093	0	0	0	0	1	4	4
83	10.3213	0.139319	0	0	0	0	1	4	4
83	10.4606	0.0870752	0	0	0	0	1	4	4
83	10.5477	0.0522442	0	0	0	0	1	4	4
83	10.5999	0.0870752	0	0	0	0	1	4	4
83	10.7392	0.0232191	0	0	0	0	1	4	4
83	10.7683	0.0522451	0	0	0	0	1	4	4
83	10.954	0.17415	0	0	0	0	1	4	4
83	11.221	0.0696602	0	0	0	0	1	4	4
82	11.5635	0.116099	0	0	0	0	1	4	4
81	11.6912	0.116099	0	0	0	0	1	4	4
79	11.9757	0.168344	0	0	0	0	1	4	4
77	12.144	0.0522442	0	0	0	0	1	4	4
86	13.6417	0.0580502	0	0	0	0	1	4	4
77	13.7172	0.0696602	0	0	0	0	1	4	4
80	13.8101	0.0290241	0	0	0	0	1	4	4
84	13.8391	0.0406351	0	0	0	0	1	4	4
83	14.0481	0.0348301	0	0	0	0	1	4	4
84	14.1061	0.0232201	0	0	0	0	1	4	4
71	14.3035	0.0406351	0	0	0	0	1	4	4
75	14.3499	0.0464401	0	0	0	0	1	4	4
79	14.4196	0.0406342	0	0	0	0	1	4	4
83	14.5299	0.330885	0	0	0	0	1	4	4
83	15.2497	0.0986843	0	0	0	0	1	4	4
83	15.6502	0.121904	0	0	0	0	1	4	4
84	16.1669	0.0406342	0	0	0	0	1	4	4
83	16.2075	0.10449	0	0	0	0	1	4	4
83	16.521	0.0464401	0	0	0	0	1	4	4
82	16.5674	0.493423	0	0	0	0	1	4	4
84	17.711	0.0928802	0	0	0	0	1	4	4
80	18.2393	0.0406342	0	0	0	0	1	4	4
83	18.425	0.0812702	0	0	0	0	1	4	4
84	18.5353	0.0522461	0	0	0	0	1	4	4
84	18.8952	0.0754662	0	0	0	0	1	4	4
84	18.9707	0.0232201	0	0	0	0	1	4	4
85	18.9997	0.0522461	0	0	0	0	1	4	4
86	19.052	0.0406342	0	0	0	0	1	4	4
86	19.0926	0.0290241	0	0	0	0	1	4	4
83	19.1565	0.0406361	0	0	0	0	1	4	4
81	19.1971	0.0348301	0	0	0	0	1	4	4
84	19.8821	0.0232201	0	0	0	0	1	4	4
84	19.9111	0.0232201	0	0	0	0	1	4	4
84	19.9401	0.0348301	0	0	0	0	1	4	4
71	20.1433	0.0696602	0	0	0	0	1	4	4
71	20.213	0.0232201	0	0	0	0	1	4	4
83	20.2362	0.0348301	0	0	0	0	1	4	4
84	20.7644	0.0580502	0	0	0	0	1	4	4
84	20.8225	0.0406342	0	0	0	0	1	4	4
83	20.8631	0.0522442	0	0	0	0	1	4	4
82	20.9212	0.0348301	0	0	0	0	1	4	4
82	20.956	0.162539	0	0	0	0	1	4	4
82	21.1592	0.0232201	0	0	0	0	1	4	4
83	21.1882	0.0232201	0	0	0	0	1	4	4
83	21.2114	0.0348301	0	0	0	0	1	4	4
83	21.3914	0.0406361	0	0	0	0	1	4	4
83	21.4901	0.0522442	0	0	0	0	1	4	4
71	21.7977	0.10449	0	0	0	0	1	4	4
72	21.9022	0.0348301	0	0	0	0	1	4	4
83	21.9371	0.16254	0	0	0	0	1	4	4
84	22.4247	0.0406342	0	0	0	0	1	4	4
82	22.5176	0.179955	0	0	0	0	1	4	4
71	22.8833	0.0638561	0	0	0	0	1	4	4
71	22.9471	0.208979	0	0	0	0	1	4	4
71	23.4173	0.1161	0	0	0	0	1	4	4
84	23.5566	0.0522442	0	0	0	0	1	4	4
84	23.6089	0.0232201	0	0	0	0	1	4	4
84	23.6379	0.0638561	0	0	0	0	1	4	4
82	23.9398	0.0232201	0	0	0	0	1	4	4
83	24.0327	0.029026	0	0	0	0	1	4	4
83	24.0675	0.0812702	0	0	0	0	1	4	4
83	24.1778	0.0348282	0	0	0	0	1	4	4
83	24.2358	0.029026	0	0	0	0	1	4	4
83	24.2881	0.0406342	0	0	0	0	1	4	4
83	24.3519	0.0232201	0	0	0	0	1	4	4
83	24.41	0.0986843	0	0	0	0	1	4	4
81	24.5667	0.133514	0	0	0	0	1	4	4
69	25.2865	0.0406361	0	0	0	0	1	4	4
71	25.3678	0.121904	0	0	0	0	1	4	4
83	25.4897	0.0406361	0	0	0	0	1	4	4
83	25.542	0.0348301	0	0	0	0	1	4	4
83	25.5826	0.13932	0	0	0	0	1	4	4
80	25.9889	0.0232201	0	0	0	0	1	4	4
81	26.018	0.0580482	0	0	0	0	1	4	4
81	26.076	0.133516	0	0	0	0	1	4	4
79	26.4301	0.0928802	0	0	0	0	1	4	4
80	26.523	0.0290241	0	0	0	0	1	4	4
79	26.6565	0.15093	0	0	0	0	1	4	4
78	26.8423	0.0348282	0	0	0	0	1	4	4
78	26.8771	0.377325	0	0	0	0	1	4	4
70	28.2181	0.0812683	0	0	0	0	1	4	4
84	28.2993	0.0870762	0	0	0	0	1	4	4
83	28.7927	0.220589	0	0	0	0	1	4	4
