midiPitch 	 onsetSec 	 durationSec 	 onsetBeats 	 onsetBarIndex 	 onsetBar 	 durationBeats 	 velocity  	 numerator 	 denominator 
81	3.76163	0.10449	0	0	4.70175e-035	0	1	4	4
81	3.86612	0.0406349	0	0	4.70175e-035	0	1	4	4
78	3.90676	0.0696597	0	0	4.70175e-035	0	1	4	4
78	3.97642	0.0638552	0	0	4.70175e-035	0	1	4	4
78	4.46404	0.0290251	0	0	4.70175e-035	0	1	4	4
78	4.66141	0.0638547	0	0	4.70175e-035	0	1	4	4
82	5.03293	0.0464396	0	0	4.70175e-035	0	1	4	4
85	5.07936	0.0290251	0	0	4.70175e-035	0	1	4	4
84	5.32898	0.0290251	0	0	4.70175e-035	0	1	4	4
78	6.0488	0.0348301	0	0	4.70175e-035	0	1	4	4
74	13.723	0.0232201	0	0	4.70175e-035	0	1	4	4
81	13.7752	0.0232201	0	0	4.70175e-035	0	1	4	4
81	13.7985	0.0232201	0	0	4.70175e-035	0	1	4	4
81	13.8449	0.16254	0	0	4.70175e-035	0	1	4	4
81	14.2687	0.0232201	0	0	4.70175e-035	0	1	4	4
81	14.3151	0.0696602	0	0	4.70175e-035	0	1	4	4
78	14.3848	0.0812693	0	0	4.70175e-035	0	1	4	4
76	14.617	0.0406342	0	0	4.70175e-035	0	1	4	4
81	14.6924	0.0638552	0	0	4.70175e-035	0	1	4	4
81	14.7563	0.168344	0	0	4.70175e-035	0	1	4	4
78	15.0581	0.0348291	0	0	4.70175e-035	0	1	4	4
82	15.1046	0.0522451	0	0	4.70175e-035	0	1	4	4
81	15.1568	0.150929	0	0	4.70175e-035	0	1	4	4
82	15.5632	0.0290251	0	0	4.70175e-035	0	1	4	4
81	15.598	0.110294	0	0	4.70175e-035	0	1	4	4
82	15.7083	0.0696602	0	0	4.70175e-035	0	1	4	4
77	15.8883	0.0928802	0	0	4.70175e-035	0	1	4	4
82	15.9811	0.0290251	0	0	4.70175e-035	0	1	4	4
81	16.2482	0.0696602	0	0	4.70175e-035	0	1	4	4
81	16.3178	0.0232201	0	0	4.70175e-035	0	1	4	4
80	16.3817	0.12771	0	0	4.70175e-035	0	1	4	4
80	16.5094	0.0928802	0	0	4.70175e-035	0	1	4	4
81	16.6023	0.0696583	0	0	4.70175e-035	0	1	4	4
85	17.1363	0.0348301	0	0	4.70175e-035	0	1	4	4
81	17.3047	0.232201	0	0	4.70175e-035	0	1	4	4
81	17.7807	0.0928802	0	0	4.70175e-035	0	1	4	4
81	18.0071	0.0638542	0	0	4.70175e-035	0	1	4	4
78	18.2277	0.0464382	0	0	4.70175e-035	0	1	4	4
81	18.2741	0.0870762	0	0	4.70175e-035	0	1	4	4
80	18.3612	0.116098	0	0	4.70175e-035	0	1	4	4
80	18.4773	0.0812702	0	0	4.70175e-035	0	1	4	4
77	18.6688	0.0406361	0	0	4.70175e-035	0	1	4	4
81	18.7095	0.0754642	0	0	4.70175e-035	0	1	4	4
81	18.7849	0.1161	0	0	4.70175e-035	0	1	4	4
77	19.139	0.0348301	0	0	4.70175e-035	0	1	4	4
81	19.2203	0.0406342	0	0	4.70175e-035	0	1	4	4
80	19.2668	0.116098	0	0	4.70175e-035	0	1	4	4
81	19.3829	0.121904	0	0	4.70175e-035	0	1	4	4
81	19.5048	0.232201	0	0	4.70175e-035	0	1	4	4
81	19.737	0.0754642	0	0	4.70175e-035	0	1	4	4
81	19.8124	0.1161	0	0	4.70175e-035	0	1	4	4
81	20.004	0.0812702	0	0	4.70175e-035	0	1	4	4
81	20.0853	0.121904	0	0	4.70175e-035	0	1	4	4
81	20.2072	0.516644	0	0	4.70175e-035	0	1	4	4
81	20.7238	0.133516	0	0	4.70175e-035	0	1	4	4
81	20.8573	0.284443	0	0	4.70175e-035	0	1	4	4
81	21.1418	0.145126	0	0	4.70175e-035	0	1	4	4
81	21.3043	0.121904	0	0	4.70175e-035	0	1	4	4
81	21.4262	0.249615	0	0	4.70175e-035	0	1	4	4
81	21.6758	0.0870743	0	0	4.70175e-035	0	1	4	4
81	21.8035	0.150928	0	0	4.70175e-035	0	1	4	4
81	21.9603	0.0348301	0	0	4.70175e-035	0	1	4	4
81	22.0067	0.121904	0	0	4.70175e-035	0	1	4	4
81	22.1344	0.0406342	0	0	4.70175e-035	0	1	4	4
81	22.1809	0.029026	0	0	4.70175e-035	0	1	4	4
81	22.2215	0.0232201	0	0	4.70175e-035	0	1	4	4
81	22.2505	0.0348301	0	0	4.70175e-035	0	1	4	4
81	22.2912	0.0406342	0	0	4.70175e-035	0	1	4	4
81	22.3376	0.0232182	0	0	4.70175e-035	0	1	4	4
81	22.3666	0.0870743	0	0	4.70175e-035	0	1	4	4
89645416	22.4537	0.1161	0	0	4.70175e-035	0	1	4	4
81	22.5698	0.0870743	0	0	4.70175e-035	0	1	4	4
81	22.6569	0.17415	0	0	4.70175e-035	0	1	4	4
80	22.831	0.0754642	0	0	4.70175e-035	0	1	4	4
71	24.1604	0.168344	0	0	4.70175e-035	0	1	4	4
82	24.8105	0.0348301	0	0	4.70175e-035	0	1	4	4
86	24.8454	0.13932	0	0	4.70175e-035	0	1	4	4
74	24.9847	0.133514	0	0	4.70175e-035	0	1	4	4
74	25.1182	0.203175	0	0	4.70175e-035	0	1	4	4
74	25.3214	0.168344	0	0	4.70175e-035	0	1	4	4
74	25.4897	0.203175	0	0	4.70175e-035	0	1	4	4
74	25.9309	0.342495	0	0	4.70175e-035	0	1	4	4
74	26.2734	0.15093	0	0	4.70175e-035	0	1	4	4
72	26.4243	0.127708	0	0	4.70175e-035	0	1	4	4
72	26.552	0.029026	0	0	4.70175e-035	0	1	4	4
72	26.581	0.0754642	0	0	4.70175e-035	0	1	4	4
