midiPitch 	 onsetSec 	 durationSec 	 onsetBeats 	 onsetBarIndex 	 onsetBar 	 durationBeats 	 velocity  	 numerator 	 denominator 
65	0.0406349	0.0928798	0	0	3.94917e-035	0	1	4	4
65	0.133515	0.394739	0	0	3.94917e-035	0	1	4	4
70	0.644354	0.110295	0	0	3.94917e-035	0	1	4	4
72	0.754649	0.0348299	0	0	3.94917e-035	0	1	4	4
61	0.789478	0.203175	0	0	3.94917e-035	0	1	4	4
64	1.0449	0.20898	0	0	3.94917e-035	0	1	4	4
62	1.32934	0.16254	0	0	3.94917e-035	0	1	4	4
64	1.64281	0.539864	0	0	3.94917e-035	0	1	4	4
64	2.18268	0.133515	0	0	3.94917e-035	0	1	4	4
63	2.71093	0.10449	0	0	3.94917e-035	0	1	4	4
61	2.81542	0.708209	0	0	3.94917e-035	0	1	4	4
66	3.97642	0.110295	0	0	3.94917e-035	0	1	4	4
64	4.09252	0.284444	0	0	3.94917e-035	0	1	4	4
64	4.49887	0.1161	0	0	3.94917e-035	0	1	4	4
64	5.13161	0.342494	0	0	3.94917e-035	0	1	4	4
61	5.4741	0.0406346	0	0	3.94917e-035	0	1	4	4
61	5.51474	0.25542	0	0	3.94917e-035	0	1	4	4
65	5.84562	0.20898	0	0	3.94917e-035	0	1	4	4
62	6.13007	0.17415	0	0	3.94917e-035	0	1	4	4
65	6.4029	0.162539	0	0	3.94917e-035	0	1	4	4
62	6.61188	0.18576	0	0	3.94917e-035	0	1	4	4
64	7.03565	0.301859	0	0	3.94917e-035	0	1	4	4
64	7.442	0.17415	0	0	3.94917e-035	0	1	4	4
62	7.70902	0.731429	0	0	3.94917e-035	0	1	4	4
64	9.09642	0.116099	0	0	3.94917e-035	0	1	4	4
66	9.55501	0.3483	0	0	3.94917e-035	0	1	4	4
67	9.90331	0.17415	0	0	3.94917e-035	0	1	4	4
64	10.0775	0.24381	0	0	3.94917e-035	0	1	4	4
66	10.3213	0.278639	0	0	3.94917e-035	0	1	4	4
67	10.8205	0.110295	0	0	3.94917e-035	0	1	4	4
66	10.9308	0.429569	0	0	3.94917e-035	0	1	4	4
67	11.9873	0.162539	0	0	3.94917e-035	0	1	4	4
64	12.3008	0.272835	0	0	3.94917e-035	0	1	4	4
66	12.5736	0.214785	0	0	3.94917e-035	0	1	4	4
67	12.7884	0.406349	0	0	3.94917e-035	0	1	4	4
65	13.1947	0.284444	0	0	3.94917e-035	0	1	4	4
67	13.4792	0.487619	0	0	3.94917e-035	0	1	4	4
70	14.3615	0.104489	0	0	3.94917e-035	0	1	4	4
69	14.466	0.0638552	0	0	3.94917e-035	0	1	4	4
69	14.5299	0.0986853	0	0	3.94917e-035	0	1	4	4
67	14.6576	0.179955	0	0	3.94917e-035	0	1	4	4
63	14.8492	0.0522442	0	0	3.94917e-035	0	1	4	4
64	14.9537	0.150929	0	0	3.94917e-035	0	1	4	4
65	15.3136	0.12771	0	0	3.94917e-035	0	1	4	4
64	15.7605	0.191565	0	0	3.94917e-035	0	1	4	4
64	16.3875	0.232199	0	0	3.94917e-035	0	1	4	4
64	16.6197	0.214785	0	0	3.94917e-035	0	1	4	4
64	16.9796	0.290249	0	0	3.94917e-035	0	1	4	4
64	17.8445	0.17415	0	0	3.94917e-035	0	1	4	4
64	18.0187	0.261225	0	0	3.94917e-035	0	1	4	4
64	18.3263	0.510839	0	0	3.94917e-035	0	1	4	4
63	18.8372	0.371519	0	0	3.94917e-035	0	1	4	4
62	20.1665	0.296055	0	0	3.94917e-035	0	1	4	4
67	20.5787	0.551474	0	0	3.94917e-035	0	1	4	4
67	21.1476	0.16254	0	0	3.94917e-035	0	1	4	4
66	21.3101	0.226393	0	0	3.94917e-035	0	1	4	4
64	21.5888	0.301859	0	0	3.94917e-035	0	1	4	4
66	21.9545	0.232201	0	0	3.94917e-035	0	1	4	4
65	22.1867	0.197369	0	0	3.94917e-035	0	1	4	4
64	22.384	0.539865	0	0	3.94917e-035	0	1	4	4
58	23.3709	0.708208	0	0	3.94917e-035	0	1	4	4
60	24.1371	0.290249	0	0	3.94917e-035	0	1	4	4
61	24.5261	0.220589	0	0	3.94917e-035	0	1	4	4
61	24.7757	0.899773	0	0	3.94917e-035	0	1	4	4
58	25.7974	0.249615	0	0	3.94917e-035	0	1	4	4
64	27.1151	0.417959	0	0	3.94917e-035	0	1	4	4
63	28.2703	0.238005	0	0	3.94917e-035	0	1	4	4
66	29.2339	0.377323	0	0	3.94917e-035	0	1	4	4
