midiPitch 	 onsetSec 	 durationSec 	 onsetBeats 	 onsetBarIndex 	 onsetBar 	 durationBeats 	 velocity  	 numerator 	 denominator 
68	5.61342	0.0232201	0	0	0	0	1	4	4
61	10.1181	0.104489	0	0	0	0	1	4	4
61	10.2806	0.24381	0	0	0	0	1	4	4
64	10.6231	0.18576	0	0	0	0	1	4	4
64	10.8089	0.272835	0	0	0	0	1	4	4
60	11.0817	0.261225	0	0	0	0	1	4	4
62	11.4649	0.191565	0	0	0	0	1	4	4
66	11.7783	0.191565	0	0	0	0	1	4	4
60	11.9699	0.232199	0	0	0	0	1	4	4
57	12.2717	0.760453	0	0	0	0	1	4	4
57	13.0322	0.441179	0	0	0	0	1	4	4
56	13.4734	0.10449	0	0	0	0	1	4	4
57	13.5779	0.0522451	0	0	0	0	1	4	4
56	13.6301	0.0580492	0	0	0	0	1	4	4
57	13.6882	0.481814	0	0	0	0	1	4	4
54	14.6518	0.116099	0	0	0	0	1	4	4
53	14.8608	0.19737	0	0	0	0	1	4	4
57	15.1278	0.238005	0	0	0	0	1	4	4
57	15.4587	0.145124	0	0	0	0	1	4	4
53	15.9869	0.16254	0	0	0	0	1	4	4
58	16.3062	0.104488	0	0	0	0	1	4	4
46	16.8693	0.185759	0	0	0	0	1	4	4
47	17.0551	0.191565	0	0	0	0	1	4	4
56	19.0578	0.261225	0	0	0	0	1	4	4
56	19.4003	0.145124	0	0	0	0	1	4	4
58	19.6325	0.0348301	0	0	0	0	1	4	4
59	19.6731	0.510838	0	0	0	0	1	4	4
54	20.6135	0.17415	0	0	0	0	1	4	4
57	20.8689	0.238005	0	0	0	0	1	4	4
60	23.7482	0.168344	0	0	0	0	1	4	4
61	23.9166	0.214785	0	0	0	0	1	4	4
64	24.1371	0.684988	0	0	0	0	1	4	4
59	24.8512	0.214785	0	0	0	0	1	4	4
60	25.1588	0.203175	0	0	0	0	1	4	4
65	25.4839	0.121904	0	0	0	0	1	4	4
60	25.6929	0.179955	0	0	0	0	1	4	4
57	25.9367	0.928797	0	0	0	0	1	4	4
57	27.5911	0.696598	0	0	0	0	1	4	4
54	28.6476	0.116098	0	0	0	0	1	4	4
57	28.7753	0.278641	0	0	0	0	1	4	4
53	29.5068	0.0754642	0	0	0	0	1	4	4
54	29.6693	0.156734	0	0	0	0	1	4	4
