midiPitch 	 onsetSec 	 durationSec 	 onsetBeats 	 onsetBarIndex 	 onsetBar 	 durationBeats 	 velocity  	 numerator 	 denominator 
63	0.0406349	0.406349	0	0	2.13464e-035	0	1	4	4
63	0.446984	0.661769	0	0	2.13464e-035	0	1	4	4
63	1.10875	0.359909	0	0	2.13464e-035	0	1	4	4
63	1.46866	0.423764	0	0	2.13464e-035	0	1	4	4
63	1.89243	0.348299	0	0	2.13464e-035	0	1	4	4
61	5.60762	0.191565	0	0	2.13464e-035	0	1	4	4
61	5.79918	0.38313	0	0	2.13464e-035	0	1	4	4
66	6.18231	0.470204	0	0	2.13464e-035	0	1	4	4
66	6.65252	0.458594	0	0	2.13464e-035	0	1	4	4
66	7.11111	0.0348296	0	0	2.13464e-035	0	1	4	4
66	7.15175	0.481814	0	0	2.13464e-035	0	1	4	4
61	7.63356	0.168344	0	0	2.13464e-035	0	1	4	4
66	7.84254	0.458595	0	0	2.13464e-035	0	1	4	4
66	8.30113	0.0290241	0	0	2.13464e-035	0	1	4	4
66	8.33596	0.505034	0	0	2.13464e-035	0	1	4	4
61	8.8468	0.0812693	0	0	2.13464e-035	0	1	4	4
63	8.92807	0.377325	0	0	2.13464e-035	0	1	4	4
63	9.72336	0.116099	0	0	2.13464e-035	0	1	4	4
63	9.83946	0.319274	0	0	2.13464e-035	0	1	4	4
66	10.1587	0.452789	0	0	2.13464e-035	0	1	4	4
66	10.6115	0.487619	0	0	2.13464e-035	0	1	4	4
66	11.0991	0.505033	0	0	2.13464e-035	0	1	4	4
63	11.6042	0.22059	0	0	2.13464e-035	0	1	4	4
66	11.8248	0.446984	0	0	2.13464e-035	0	1	4	4
66	12.2717	0.319275	0	0	2.13464e-035	0	1	4	4
66	12.591	0.214785	0	0	2.13464e-035	0	1	4	4
63	12.8058	0.116099	0	0	2.13464e-035	0	1	4	4
65	12.9219	0.336689	0	0	2.13464e-035	0	1	4	4
62	13.2586	0.847528	0	0	2.13464e-035	0	1	4	4
60	14.1061	0.702404	0	0	2.13464e-035	0	1	4	4
63	14.855	0.139319	0	0	2.13464e-035	0	1	4	4
65	14.9943	0.435374	0	0	2.13464e-035	0	1	4	4
65	15.4297	0.0580492	0	0	2.13464e-035	0	1	4	4
65	15.4935	1.33515	0	0	2.13464e-035	0	1	4	4
63	16.8577	0.203175	0	0	2.13464e-035	0	1	4	4
67	19.824	0.12771	0	0	2.13464e-035	0	1	4	4
69	19.9517	0.603718	0	0	2.13464e-035	0	1	4	4
70	20.5555	0.255421	0	0	2.13464e-035	0	1	4	4
70	20.5555	0.261225	0	0	2.13464e-035	0	1	4	4
68	20.8051	0.01161	0	0	2.13464e-035	0	1	4	4
70	20.5555	0.267031	0	0	2.13464e-035	0	1	4	4
68	20.8051	0.13932	0	0	2.13464e-035	0	1	4	4
70	20.9444	0.592108	0	0	2.13464e-035	0	1	4	4
68	21.5365	0.17415	0	0	2.13464e-035	0	1	4	4
68	21.7107	0.0580502	0	0	2.13464e-035	0	1	4	4
66	21.7687	0.0522442	0	0	2.13464e-035	0	1	4	4
65	21.821	0.272835	0	0	2.13464e-035	0	1	4	4
68	22.1054	0.441179	0	0	2.13464e-035	0	1	4	4
68	22.5466	0.458593	0	0	2.13464e-035	0	1	4	4
68	23.0226	0.470203	0	0	2.13464e-035	0	1	4	4
65	23.4928	0.145124	0	0	2.13464e-035	0	1	4	4
68	23.696	0.458595	0	0	2.13464e-035	0	1	4	4
68	24.1546	0.464397	0	0	2.13464e-035	0	1	4	4
65	24.619	0.56889	0	0	2.13464e-035	0	1	4	4
65	25.4955	0.476009	0	0	2.13464e-035	0	1	4	4
68	25.9773	0.458595	0	0	2.13464e-035	0	1	4	4
68	26.4766	0.481813	0	0	2.13464e-035	0	1	4	4
68	26.9584	0.464399	0	0	2.13464e-035	0	1	4	4
65	27.4228	0.197371	0	0	2.13464e-035	0	1	4	4
68	27.6201	0.493423	0	0	2.13464e-035	0	1	4	4
68	28.1136	0.313469	0	0	2.13464e-035	0	1	4	4
68	28.427	0.238005	0	0	2.13464e-035	0	1	4	4
66	28.665	0.121904	0	0	2.13464e-035	0	1	4	4
65	28.7869	0.359909	0	0	2.13464e-035	0	1	4	4
66	29.1643	0.162539	0	0	2.13464e-035	0	1	4	4
63	29.3268	0.690794	0	0	2.13464e-035	0	1	4	4
