midiPitch 	 onsetSec 	 durationSec 	 onsetBeats 	 onsetBarIndex 	 onsetBar 	 durationBeats 	 velocity  	 numerator 	 denominator 
65	0.0406349	0.226395	0	0	0	0	1	4	4
67	0.267029	0.18576	0	0	0	0	1	4	4
67	0.452789	0.377324	0	0	0	0	1	4	4
65	0.835918	0.499229	0	0	0	0	1	4	4
84	3.77905	0.365715	0	0	0	0	1	4	4
84	5.08517	0.191565	0	0	0	0	1	4	4
84	5.29995	0.388934	0	0	0	0	1	4	4
84	5.68889	0.2322	0	0	0	0	1	4	4
84	5.92109	0.412154	0	0	0	0	1	4	4
84	7.36653	0.406349	0	0	0	0	1	4	4
84	7.77288	0.10449	0	0	0	0	1	4	4
84	7.87737	0.0812697	0	0	0	0	1	4	4
84	7.95864	0.0754652	0	0	0	0	1	4	4
74	11.7551	0.110294	0	0	0	0	1	4	4
86	25.0834	0.284445	0	0	0	0	1	4	4
86	25.3678	0.156734	0	0	0	0	1	4	4
67	25.4897	0.301861	0	0	0	0	1	4	4
67	25.7916	0.684988	0	0	0	0	1	4	4
67	26.4766	0.12771	0	0	0	0	1	4	4
67	26.6043	0.0928783	0	0	0	0	1	4	4
60	28.2877	0.359911	0	0	0	0	1	4	4
