midiPitch 	 onsetSec 	 durationSec 	 onsetBeats 	 onsetBarIndex 	 onsetBar 	 durationBeats 	 velocity  	 numerator 	 denominator 
81	2.64127	0.0290251	0	0	4.25e-035	0	1	4	4
81	2.69932	0.0348301	0	0	4.25e-035	0	1	4	4
80	2.73995	0.0754647	0	0	4.25e-035	0	1	4	4
79	3.2624	0.0406351	0	0	4.25e-035	0	1	4	4
77	3.34367	0.0406349	0	0	4.25e-035	0	1	4	4
76	3.39011	0.0580499	0	0	4.25e-035	0	1	4	4
78	3.66875	0.0522449	0	0	4.25e-035	0	1	4	4
79	3.73841	0.0232201	0	0	4.25e-035	0	1	4	4
80	4.02866	0.0232196	0	0	4.25e-035	0	1	4	4
86	4.0693	0.0348301	0	0	4.25e-035	0	1	4	4
66	4.14476	0.0232196	0	0	4.25e-035	0	1	4	4
65	4.17379	0.0754652	0	0	4.25e-035	0	1	4	4
65	4.26086	0.0522451	0	0	4.25e-035	0	1	4	4
65	4.31311	0.0580497	0	0	4.25e-035	0	1	4	4
65	4.37116	0.0348301	0	0	4.25e-035	0	1	4	4
65	4.41179	0.0290251	0	0	4.25e-035	0	1	4	4
65	4.46404	0.0406351	0	0	4.25e-035	0	1	4	4
64	4.59755	0.0348301	0	0	4.25e-035	0	1	4	4
64	4.6556	0.0638547	0	0	4.25e-035	0	1	4	4
61	4.80073	0.203175	0	0	4.25e-035	0	1	4	4
67	5.31156	0.0638552	0	0	4.25e-035	0	1	4	4
66	5.37542	0.0232196	0	0	4.25e-035	0	1	4	4
65	5.46249	0.226394	0	0	4.25e-035	0	1	4	4
64	5.73533	0.226395	0	0	4.25e-035	0	1	4	4
64	5.96172	0.0290251	0	0	4.25e-035	0	1	4	4
65	6.00816	0.0638552	0	0	4.25e-035	0	1	4	4
65	6.11265	0.110295	0	0	4.25e-035	0	1	4	4
64	6.71057	0.0406346	0	0	4.25e-035	0	1	4	4
63	7.23882	0.0290251	0	0	4.25e-035	0	1	4	4
61	7.98186	0.18576	0	0	4.25e-035	0	1	4	4
62	8.66685	0.0580492	0	0	4.25e-035	0	1	4	4
61	8.82358	0.0812702	0	0	4.25e-035	0	1	4	4
61	9.14866	0.0522451	0	0	4.25e-035	0	1	4	4
64	9.29959	0.127709	0	0	4.25e-035	0	1	4	4
63	9.4273	0.0812702	0	0	4.25e-035	0	1	4	4
66	9.83365	0.0870752	0	0	4.25e-035	0	1	4	4
63	10.1239	0.0406342	0	0	4.25e-035	0	1	4	4
61	10.1645	0.0232201	0	0	4.25e-035	0	1	4	4
62	10.6347	0.0696602	0	0	4.25e-035	0	1	4	4
62	10.7392	0.0290241	0	0	4.25e-035	0	1	4	4
61	10.7683	0.0348301	0	0	4.25e-035	0	1	4	4
61	10.8089	0.0348301	0	0	4.25e-035	0	1	4	4
62	10.8611	0.30186	0	0	4.25e-035	0	1	4	4
62	11.2965	0.133514	0	0	4.25e-035	0	1	4	4
60	11.8828	0.168344	0	0	4.25e-035	0	1	4	4
64	12.3298	0.626939	0	0	4.25e-035	0	1	4	4
66	13.2934	0.20898	0	0	4.25e-035	0	1	4	4
65	13.5837	0.0928793	0	0	4.25e-035	0	1	4	4
66	13.6766	0.13932	0	0	4.25e-035	0	1	4	4
65	13.9146	0.110295	0	0	4.25e-035	0	1	4	4
66	14.2396	0.0580492	0	0	4.25e-035	0	1	4	4
66	14.2977	0.0522451	0	0	4.25e-035	0	1	4	4
66	14.3499	0.110294	0	0	4.25e-035	0	1	4	4
66	14.6344	0.133514	0	0	4.25e-035	0	1	4	4
65	14.7679	0.0406351	0	0	4.25e-035	0	1	4	4
63	15.151	0.20898	0	0	4.25e-035	0	1	4	4
63	15.36	0.0928802	0	0	4.25e-035	0	1	4	4
65	15.5109	0.121905	0	0	4.25e-035	0	1	4	4
67	15.9521	0.156734	0	0	4.25e-035	0	1	4	4
67	16.2946	0.185759	0	0	4.25e-035	0	1	4	4
67	16.6313	0.110294	0	0	4.25e-035	0	1	4	4
67	16.939	0.116098	0	0	4.25e-035	0	1	4	4
61	17.3047	0.0870762	0	0	4.25e-035	0	1	4	4
60	17.444	0.10449	0	0	4.25e-035	0	1	4	4
60	17.5485	0.0696602	0	0	4.25e-035	0	1	4	4
60	17.7923	0.0522442	0	0	4.25e-035	0	1	4	4
61	18.0651	0.301859	0	0	4.25e-035	0	1	4	4
58	18.367	0.0522461	0	0	4.25e-035	0	1	4	4
66	18.6514	0.197371	0	0	4.25e-035	0	1	4	4
66	18.9939	0.179955	0	0	4.25e-035	0	1	4	4
67	19.3074	0.168344	0	0	4.25e-035	0	1	4	4
66	19.6673	0.0928802	0	0	4.25e-035	0	1	4	4
60	20.5322	0.16254	0	0	4.25e-035	0	1	4	4
59	20.6948	0.301859	0	0	4.25e-035	0	1	4	4
67	21.3101	0.208979	0	0	4.25e-035	0	1	4	4
67	21.699	0.156734	0	0	4.25e-035	0	1	4	4
66	22.0648	0.127708	0	0	4.25e-035	0	1	4	4
66	22.3318	0.12771	0	0	4.25e-035	0	1	4	4
62	23.5218	0.0754642	0	0	4.25e-035	0	1	4	4
62	23.6321	0.783672	0	0	4.25e-035	0	1	4	4
58	24.4158	0.0348301	0	0	4.25e-035	0	1	4	4
59	26.9177	0.0232201	0	0	4.25e-035	0	1	4	4
58	27.2312	0.214785	0	0	4.25e-035	0	1	4	4
