midiPitch 	 onsetSec 	 durationSec 	 onsetBeats 	 onsetBarIndex 	 onsetBar 	 durationBeats 	 velocity  	 numerator 	 denominator 
56	1.89823	0.029025	0	0	2.78332e-035	0	1	4	4
56	1.92726	0.0348299	0	0	2.78332e-035	0	1	4	4
58	2.07819	0.087075	0	0	2.78332e-035	0	1	4	4
59	2.18268	0.0290251	0	0	2.78332e-035	0	1	4	4
58	2.25814	0.0464399	0	0	2.78332e-035	0	1	4	4
61	3.73841	0.0696599	0	0	2.78332e-035	0	1	4	4
62	3.99383	0.0986848	0	0	2.78332e-035	0	1	4	4
63	4.09252	0.272834	0	0	2.78332e-035	0	1	4	4
63	4.36535	0.0290251	0	0	2.78332e-035	0	1	4	4
59	5.8224	0.24381	0	0	2.78332e-035	0	1	4	4
62	7.74966	0.0638552	0	0	2.78332e-035	0	1	4	4
64	7.90639	0.325079	0	0	2.78332e-035	0	1	4	4
64	8.23147	0.0638552	0	0	2.78332e-035	0	1	4	4
64	8.29533	0.0928793	0	0	2.78332e-035	0	1	4	4
64	8.41143	0.29025	0	0	2.78332e-035	0	1	4	4
64	8.70168	0.121904	0	0	2.78332e-035	0	1	4	4
66	8.93388	0.27864	0	0	2.78332e-035	0	1	4	4
66	9.21252	0.168344	0	0	2.78332e-035	0	1	4	4
66	9.38086	0.0232201	0	0	2.78332e-035	0	1	4	4
65	9.67111	0.133514	0	0	2.78332e-035	0	1	4	4
65	9.80463	0.0290251	0	0	2.78332e-035	0	1	4	4
61	12.2543	0.0580502	0	0	2.78332e-035	0	1	4	4
64	12.5214	0.0232201	0	0	2.78332e-035	0	1	4	4
64	12.5504	0.0580492	0	0	2.78332e-035	0	1	4	4
64	12.6084	0.12771	0	0	2.78332e-035	0	1	4	4
61	12.9625	0.156734	0	0	2.78332e-035	0	1	4	4
62	13.2296	0.0290251	0	0	2.78332e-035	0	1	4	4
61	13.4502	0.12771	0	0	2.78332e-035	0	1	4	4
61	13.5953	0.0290251	0	0	2.78332e-035	0	1	4	4
66	16.7938	0.110294	0	0	2.78332e-035	0	1	4	4
59	17.1247	0.0696602	0	0	2.78332e-035	0	1	4	4
60	17.1944	0.10449	0	0	2.78332e-035	0	1	4	4
66	17.3163	0.0928802	0	0	2.78332e-035	0	1	4	4
71	17.7633	0.0696583	0	0	2.78332e-035	0	1	4	4
64	19.824	0.121904	0	0	2.78332e-035	0	1	4	4
64	20.2362	0.359909	0	0	2.78332e-035	0	1	4	4
65	20.7006	0.0812683	0	0	2.78332e-035	0	1	4	4
62	20.956	0.185759	0	0	2.78332e-035	0	1	4	4
70	22.1344	0.185759	0	0	2.78332e-035	0	1	4	4
71	22.3202	0.0232201	0	0	2.78332e-035	0	1	4	4
69	24.6132	0.16254	0	0	2.78332e-035	0	1	4	4
71	24.7757	0.203175	0	0	2.78332e-035	0	1	4	4
71	24.9789	0.0928783	0	0	2.78332e-035	0	1	4	4
71	25.0717	0.0696602	0	0	2.78332e-035	0	1	4	4
71	25.1414	0.029026	0	0	2.78332e-035	0	1	4	4
61	26.2676	0.168346	0	0	2.78332e-035	0	1	4	4
63	26.5578	0.412153	0	0	2.78332e-035	0	1	4	4
59	28.427	0.0638561	0	0	2.78332e-035	0	1	4	4
60	28.5838	0.10449	0	0	2.78332e-035	0	1	4	4
