midiPitch 	 onsetSec 	 durationSec 	 onsetBeats 	 onsetBarIndex 	 onsetBar 	 durationBeats 	 velocity  	 numerator 	 denominator 
54	2.14785	0.19737	0	0	0	0	1	4	4
54	2.34522	0.243809	0	0	0	0	1	4	4
51	3.4946	0.12771	0	0	0	0	1	4	4
51	4.23184	0.0986848	0	0	0	0	1	4	4
78	4.93424	0.336689	0	0	0	0	1	4	4
77	5.27093	0.0928798	0	0	0	0	1	4	4
72	5.68889	0.0348301	0	0	0	0	1	4	4
67	5.83401	0.0870748	0	0	0	0	1	4	4
67	5.92109	0.0232201	0	0	0	0	1	4	4
67	5.94431	0.1161	0	0	0	0	1	4	4
60	6.03138	0.278639	0	0	0	0	1	4	4
71	6.99501	0.0232201	0	0	0	0	1	4	4
63	7.19238	0.0406346	0	0	0	0	1	4	4
71	7.23302	0.0812702	0	0	0	0	1	4	4
75	7.34331	0.12771	0	0	0	0	1	4	4
70	7.50585	0.191565	0	0	0	0	1	4	4
71	7.86576	0.10449	0	0	0	0	1	4	4
62	8.25469	0.0928793	0	0	0	0	1	4	4
62	8.34757	0.179955	0	0	0	0	1	4	4
62	8.52753	0.0464401	0	0	0	0	1	4	4
62	8.57397	0.0870752	0	0	0	0	1	4	4
60	8.75973	0.0638552	0	0	0	0	1	4	4
67	8.82358	0.336689	0	0	0	0	1	4	4
67	9.16027	0.16254	0	0	0	0	1	4	4
67	9.32281	0.133514	0	0	0	0	1	4	4
73	11.0643	0.0290251	0	0	0	0	1	4	4
63	11.3429	0.203175	0	0	0	0	1	4	4
64	11.5461	0.325079	0	0	0	0	1	4	4
64	11.9293	0.0348301	0	0	0	0	1	4	4
65	12.0628	0.0348301	0	0	0	0	1	4	4
53	11.8132	0.603719	0	0	0	0	1	4	4
49	12.9858	0.0986843	0	0	0	0	1	4	4
52	13.2238	0.191566	0	0	0	0	1	4	4
52	13.4153	0.139319	0	0	0	0	1	4	4
65	13.4734	0.319275	0	0	0	0	1	4	4
65	13.7985	0.319274	0	0	0	0	1	4	4
67	14.1526	0.133514	0	0	0	0	1	4	4
62	14.4022	0.19737	0	0	0	0	1	4	4
62	14.6112	0.458593	0	0	0	0	1	4	4
62	15.0697	0.12771	0	0	0	0	1	4	4
65	17.7168	0.0232201	0	0	0	0	1	4	4
63	17.9955	0.0638542	0	0	0	0	1	4	4
70	18.0593	0.0870762	0	0	0	0	1	4	4
70	18.1464	0.0638542	0	0	0	0	1	4	4
70	18.2102	0.0754642	0	0	0	0	1	4	4
64	18.4483	0.156734	0	0	0	0	1	4	4
64	18.605	0.0754642	0	0	0	0	1	4	4
71	18.6805	0.0522461	0	0	0	0	1	4	4
71	18.7327	0.0348301	0	0	0	0	1	4	4
71	18.7675	0.0638542	0	0	0	0	1	4	4
74	18.8314	0.232199	0	0	0	0	1	4	4
74	19.0636	0.0464401	0	0	0	0	1	4	4
74	19.11	0.0696602	0	0	0	0	1	4	4
74	19.1797	0.0464401	0	0	0	0	1	4	4
67	19.2319	0.0638542	0	0	0	0	1	4	4
72	19.2958	0.185759	0	0	0	0	1	4	4
72	19.4815	0.0348301	0	0	0	0	1	4	4
73	19.5396	0.0580502	0	0	0	0	1	4	4
67	19.5976	0.168344	0	0	0	0	1	4	4
70	21.1069	0.0928783	0	0	0	0	1	4	4
76	21.1998	0.0986862	0	0	0	0	1	4	4
76	21.3101	0.0812683	0	0	0	0	1	4	4
72	21.3914	0.0232201	0	0	0	0	1	4	4
71	21.6178	0.0464401	0	0	0	0	1	4	4
51	21.6352	0.290249	0	0	0	0	1	4	4
53	22.0764	0.116098	0	0	0	0	1	4	4
51	22.3956	0.214785	0	0	0	0	1	4	4
75	22.4189	0.243811	0	0	0	0	1	4	4
75	22.6627	0.0290241	0	0	0	0	1	4	4
48	22.802	0.365715	0	0	0	0	1	4	4
48	23.1677	0.371519	0	0	0	0	1	4	4
55	24.7525	0.0406342	0	0	0	0	1	4	4
52	24.8105	0.388935	0	0	0	0	1	4	4
53	25.2807	0.110294	0	0	0	0	1	4	4
52	25.391	0.435375	0	0	0	0	1	4	4
52	25.8264	0.179955	0	0	0	0	1	4	4
52	26.0063	0.104488	0	0	0	0	1	4	4
53	26.1108	0.156734	0	0	0	0	1	4	4
53	26.2676	0.464399	0	0	0	0	1	4	4
53	26.732	0.17415	0	0	0	0	1	4	4
52	27.6376	0.226395	0	0	0	0	1	4	4
52	28.0787	0.441179	0	0	0	0	1	4	4
48	28.6418	0.243811	0	0	0	0	1	4	4
50	28.8856	0.179955	0	0	0	0	1	4	4
