midiPitch 	 onsetSec 	 durationSec 	 onsetBeats 	 onsetBarIndex 	 onsetBar 	 durationBeats 	 velocity  	 numerator 	 denominator 
56	0.0638549	0.203175	0	0	1.98396e-035	0	1	4	4
55	0.267029	0.15093	0	0	1.98396e-035	0	1	4	4
54	0.545669	0.2322	0	0	1.98396e-035	0	1	4	4
66	1.19002	0.0928798	0	0	1.98396e-035	0	1	4	4
66	1.32354	0.15093	0	0	1.98396e-035	0	1	4	4
63	1.47447	0.04644	0	0	1.98396e-035	0	1	4	4
70	1.52091	0.0464399	0	0	1.98396e-035	0	1	4	4
63	3.0302	0.17415	0	0	1.98396e-035	0	1	4	4
56	3.64553	0.214785	0	0	1.98396e-035	0	1	4	4
54	4.95746	0.0870748	0	0	1.98396e-035	0	1	4	4
55	5.04454	0.354104	0	0	1.98396e-035	0	1	4	4
56	5.39864	0.476009	0	0	1.98396e-035	0	1	4	4
53	6.89052	0.0580497	0	0	1.98396e-035	0	1	4	4
53	7.20399	0.278639	0	0	1.98396e-035	0	1	4	4
50	7.48263	0.191565	0	0	1.98396e-035	0	1	4	4
53	7.81351	0.203175	0	0	1.98396e-035	0	1	4	4
55	8.07474	0.20898	0	0	1.98396e-035	0	1	4	4
56	8.79456	0.127709	0	0	1.98396e-035	0	1	4	4
53	8.92227	0.35991	0	0	1.98396e-035	0	1	4	4
53	9.45633	0.342494	0	0	1.98396e-035	0	1	4	4
53	9.79882	0.214785	0	0	1.98396e-035	0	1	4	4
53	10.211	0.20898	0	0	1.98396e-035	0	1	4	4
53	10.42	0.33669	0	0	1.98396e-035	0	1	4	4
60	10.7566	0.992653	0	0	1.98396e-035	0	1	4	4
62	11.7493	0.342494	0	0	1.98396e-035	0	1	4	4
60	12.2369	0.307665	0	0	1.98396e-035	0	1	4	4
55	12.5446	0.499228	0	0	1.98396e-035	0	1	4	4
61	13.0438	0.0464401	0	0	1.98396e-035	0	1	4	4
56	13.6417	0.121905	0	0	1.98396e-035	0	1	4	4
54	13.7636	0.336689	0	0	1.98396e-035	0	1	4	4
56	14.1003	0.493424	0	0	1.98396e-035	0	1	4	4
56	14.5937	0.179955	0	0	1.98396e-035	0	1	4	4
53	14.9304	0.214785	0	0	1.98396e-035	0	1	4	4
50	15.2439	0.214785	0	0	1.98396e-035	0	1	4	4
53	15.7199	0.133515	0	0	1.98396e-035	0	1	4	4
53	15.9637	0.220591	0	0	1.98396e-035	0	1	4	4
53	16.2598	0.481813	0	0	1.98396e-035	0	1	4	4
52	18.5353	0.145124	0	0	1.98396e-035	0	1	4	4
50	18.7907	0.185759	0	0	1.98396e-035	0	1	4	4
53	19.0926	0.290249	0	0	1.98396e-035	0	1	4	4
55	19.4757	0.197371	0	0	1.98396e-035	0	1	4	4
53	19.7254	0.371519	0	0	1.98396e-035	0	1	4	4
53	20.3349	0.214785	0	0	1.98396e-035	0	1	4	4
53	20.747	0.476009	0	0	1.98396e-035	0	1	4	4
52	22.4015	0.197369	0	0	1.98396e-035	0	1	4	4
56	22.7207	0.267029	0	0	1.98396e-035	0	1	4	4
53	23.0574	0.203175	0	0	1.98396e-035	0	1	4	4
55	23.307	0.220589	0	0	1.98396e-035	0	1	4	4
53	23.5276	0.272835	0	0	1.98396e-035	0	1	4	4
53	24.2707	0.400545	0	0	1.98396e-035	0	1	4	4
53	24.6712	0.446983	0	0	1.98396e-035	0	1	4	4
53	26.2676	0.15093	0	0	1.98396e-035	0	1	4	4
53	26.7029	0.272835	0	0	1.98396e-035	0	1	4	4
55	27.0106	0.145124	0	0	1.98396e-035	0	1	4	4
53	27.3589	0.179955	0	0	1.98396e-035	0	1	4	4
50	27.7304	0.272835	0	0	1.98396e-035	0	1	4	4
53	28.0033	0.290249	0	0	1.98396e-035	0	1	4	4
53	28.6302	0.464399	0	0	1.98396e-035	0	1	4	4
