midiPitch 	 onsetSec 	 durationSec 	 onsetBeats 	 onsetBarIndex 	 onsetBar 	 durationBeats 	 velocity  	 numerator 	 denominator 
64	0.307664	0.1161	0	0	3.76146e-035	0	1	4	4
64	0.673379	0.0464399	0	0	3.76146e-035	0	1	4	4
57	0.824308	0.0696598	0	0	3.76146e-035	0	1	4	4
57	1.02168	0.121905	0	0	3.76146e-035	0	1	4	4
58	1.73569	0.0580499	0	0	3.76146e-035	0	1	4	4
59	2.25234	0.0638549	0	0	3.76146e-035	0	1	4	4
70	4.4176	0.0638547	0	0	3.76146e-035	0	1	4	4
58	4.85878	0.0348296	0	0	3.76146e-035	0	1	4	4
65	5.59601	0.0928798	0	0	3.76146e-035	0	1	4	4
65	5.68889	0.168345	0	0	3.76146e-035	0	1	4	4
65	5.89206	0.0580497	0	0	3.76146e-035	0	1	4	4
66	5.95011	0.191565	0	0	3.76146e-035	0	1	4	4
65	6.44934	0.0290251	0	0	3.76146e-035	0	1	4	4
66	6.61188	0.0232201	0	0	3.76146e-035	0	1	4	4
66	6.64091	0.0464401	0	0	3.76146e-035	0	1	4	4
66	6.80345	0.156734	0	0	3.76146e-035	0	1	4	4
67	6.97179	0.145125	0	0	3.76146e-035	0	1	4	4
55	7.9122	0.0290251	0	0	3.76146e-035	0	1	4	4
64	8.41723	0.0638552	0	0	3.76146e-035	0	1	4	4
62	8.98612	0.0812702	0	0	3.76146e-035	0	1	4	4
61	9.41569	0.0986853	0	0	3.76146e-035	0	1	4	4
63	10.002	0.0232201	0	0	3.76146e-035	0	1	4	4
59	10.8785	0.139319	0	0	3.76146e-035	0	1	4	4
55	11.1107	0.162539	0	0	3.76146e-035	0	1	4	4
55	11.2733	0.214785	0	0	3.76146e-035	0	1	4	4
55	11.668	0.0696602	0	0	3.76146e-035	0	1	4	4
53	11.8364	0.0754652	0	0	3.76146e-035	0	1	4	4
53	11.9118	0.0232201	0	0	3.76146e-035	0	1	4	4
57	12.3066	0.0464401	0	0	3.76146e-035	0	1	4	4
54	12.5446	0.0348301	0	0	3.76146e-035	0	1	4	4
53	12.5968	0.156734	0	0	3.76146e-035	0	1	4	4
54	12.7652	0.133514	0	0	3.76146e-035	0	1	4	4
54	13.0612	0.156735	0	0	3.76146e-035	0	1	4	4
53	13.2586	0.0812702	0	0	3.76146e-035	0	1	4	4
53	13.3399	0.0812702	0	0	3.76146e-035	0	1	4	4
58	13.7462	0.0406351	0	0	3.76146e-035	0	1	4	4
57	13.7927	0.116099	0	0	3.76146e-035	0	1	4	4
56	14.0016	0.2322	0	0	3.76146e-035	0	1	4	4
52	14.3093	0.0580502	0	0	3.76146e-035	0	1	4	4
52	14.5821	0.150929	0	0	3.76146e-035	0	1	4	4
53	16.4746	0.110294	0	0	3.76146e-035	0	1	4	4
56	16.7126	0.162539	0	0	3.76146e-035	0	1	4	4
56	16.8751	0.0406361	0	0	3.76146e-035	0	1	4	4
61	18.4831	0.0754642	0	0	3.76146e-035	0	1	4	4
60	18.7733	0.0928802	0	0	3.76146e-035	0	1	4	4
58	18.9765	0.10449	0	0	3.76146e-035	0	1	4	4
60	19.2029	0.110294	0	0	3.76146e-035	0	1	4	4
57	19.3829	0.0232201	0	0	3.76146e-035	0	1	4	4
58	19.5106	0.0348301	0	0	3.76146e-035	0	1	4	4
64	22.2621	0.133514	0	0	3.76146e-035	0	1	4	4
62	22.3956	0.0406361	0	0	3.76146e-035	0	1	4	4
61	22.4421	0.0406361	0	0	3.76146e-035	0	1	4	4
62	22.5698	0.0870743	0	0	3.76146e-035	0	1	4	4
63	22.8949	0.0812702	0	0	3.76146e-035	0	1	4	4
54	26.2734	0.110294	0	0	3.76146e-035	0	1	4	4
87	26.6333	0.377325	0	0	3.76146e-035	0	1	4	4
85	28.4502	0.10449	0	0	3.76146e-035	0	1	4	4
85	28.5547	0.0870743	0	0	3.76146e-035	0	1	4	4
