midiPitch 	 onsetSec 	 durationSec 	 onsetBeats 	 onsetBarIndex 	 onsetBar 	 durationBeats 	 velocity  	 numerator 	 denominator 
64	1.81116	0.226395	0	0	0	0	1	4	4
64	2.11882	0.168344	0	0	0	0	1	4	4
65	2.65288	0.20898	0	0	0	0	1	4	4
67	2.86186	0.12771	0	0	0	0	1	4	4
66	3.23918	0.301859	0	0	0	0	1	4	4
66	3.54104	0.0928798	0	0	0	0	1	4	4
67	4.34794	0.0638547	0	0	0	0	1	4	4
66	4.63238	0.179955	0	0	0	0	1	4	4
66	5.08517	0.145125	0	0	0	0	1	4	4
66	5.23029	0.0406351	0	0	0	0	1	4	4
4294967295	5.29995	0.017415	0	0	0	0	1	4	4
66	5.33478	0.0696597	0	0	0	0	1	4	4
63	5.49732	0.0638552	0	0	0	0	1	4	4
66	5.86304	0.0348296	0	0	0	0	1	4	4
66	6.00816	0.15093	0	0	0	0	1	4	4
66	6.15909	0.319274	0	0	0	0	1	4	4
66	6.47837	0.423764	0	0	0	0	1	4	4
63	6.92535	0.0928802	0	0	0	0	1	4	4
63	7.47683	0.110295	0	0	0	0	1	4	4
64	7.71483	0.232199	0	0	0	0	1	4	4
64	7.94703	1.81696	0	0	0	0	1	4	4
67	13.9378	0.156734	0	0	0	0	1	4	4
67	14.0945	0.0928802	0	0	0	0	1	4	4
66	14.1874	0.272834	0	0	0	0	1	4	4
62	14.675	0.16254	0	0	0	0	1	4	4
68	15.6038	0.0580502	0	0	0	0	1	4	4
79	15.5922	0.20898	0	0	0	0	1	4	4
77	15.9579	0.0870752	0	0	0	0	1	4	4
81	16.3004	0.121904	0	0	0	0	1	4	4
79	16.579	0.0290241	0	0	0	0	1	4	4
79	16.6893	0.0348301	0	0	0	0	1	4	4
80	16.968	0.0232201	0	0	0	0	1	4	4
79	17.2118	0.0232182	0	0	0	0	1	4	4
81	17.2524	0.0232201	0	0	0	0	1	4	4
83	17.4266	0.0638561	0	0	0	0	1	4	4
84	18.3322	0.0348301	0	0	0	0	1	4	4
84	18.3728	0.0348301	0	0	0	0	1	4	4
78	18.4192	0.0232201	0	0	0	0	1	4	4
79	18.4424	0.0290241	0	0	0	0	1	4	4
78	18.5876	0.133514	0	0	0	0	1	4	4
83	18.9359	0.232199	0	0	0	0	1	4	4
83	19.1681	0.13932	0	0	0	0	1	4	4
81	19.3074	0.174149	0	0	0	0	1	4	4
77	20.4684	0.238005	0	0	0	0	1	4	4
80	20.8689	0.0580482	0	0	0	0	1	4	4
79	20.927	0.0928802	0	0	0	0	1	4	4
79	21.2463	0.168344	0	0	0	0	1	4	4
79	21.4146	0.0638561	0	0	0	0	1	4	4
79	21.4785	0.162539	0	0	0	0	1	4	4
80	21.641	0.0232201	0	0	0	0	1	4	4
79	21.67	0.156734	0	0	0	0	1	4	4
78	21.8906	0.029026	0	0	0	0	1	4	4
75	22.2099	0.0522442	0	0	0	0	1	4	4
75	22.2621	0.133514	0	0	0	0	1	4	4
76	22.3956	0.0870762	0	0	0	0	1	4	4
75	22.4827	0.0580502	0	0	0	0	1	4	4
82	22.5408	0.179955	0	0	0	0	1	4	4
63	22.6801	0.0754642	0	0	0	0	1	4	4
64	23.725	0.0812683	0	0	0	0	1	4	4
63	23.9107	0.029026	0	0	0	0	1	4	4
67	24.1604	0.0290241	0	0	0	0	1	4	4
66	24.2068	0.185759	0	0	0	0	1	4	4
67	24.5493	0.0580482	0	0	0	0	1	4	4
66	24.6712	0.0348301	0	0	0	0	1	4	4
66	24.7118	0.0580502	0	0	0	0	1	4	4
65	24.7931	0.145124	0	0	0	0	1	4	4
67	24.9731	0.029026	0	0	0	0	1	4	4
68	25.0892	0.0290241	0	0	0	0	1	4	4
66	25.1356	0.0638542	0	0	0	0	1	4	4
66	25.3736	0.0290241	0	0	0	0	1	4	4
65	25.4258	0.203175	0	0	0	0	1	4	4
65	25.6406	0.0232201	0	0	0	0	1	4	4
64	25.7741	0.0348301	0	0	0	0	1	4	4
64	25.8148	0.0406342	0	0	0	0	1	4	4
64	25.9135	0.0348301	0	0	0	0	1	4	4
64	25.9541	0.0406361	0	0	0	0	1	4	4
63	27.0803	0.10449	0	0	0	0	1	4	4
63	27.1848	0.0986843	0	0	0	0	1	4	4
63	27.2834	0.0406361	0	0	0	0	1	4	4
65	27.3531	0.156734	0	0	0	0	1	4	4
66	27.5098	0.029026	0	0	0	0	1	4	4
67	27.7188	0.110294	0	0	0	0	1	4	4
66	28.1368	0.203175	0	0	0	0	1	4	4
65	28.4038	0.168344	0	0	0	0	1	4	4
62	28.5722	0.330885	0	0	0	0	1	4	4
