midiPitch 	 onsetSec 	 durationSec 	 onsetBeats 	 onsetBarIndex 	 onsetBar 	 durationBeats 	 velocity  	 numerator 	 denominator 
79	0.969433	0.02322	0	0	0	0	1	4	4
78	0.998458	0.0522449	0	0	0	0	1	4	4
73	1.0507	0.0870749	0	0	0	0	1	4	4
70	1.13778	0.0406349	0	0	0	0	1	4	4
70	1.17841	0.0232199	0	0	0	0	1	4	4
75	1.33515	0.0986848	0	0	0	0	1	4	4
69	1.66023	0.0232199	0	0	0	0	1	4	4
69	1.71247	0.029025	0	0	0	0	1	4	4
70	1.79374	0.0754648	0	0	0	0	1	4	4
78	2.50195	0.0986848	0	0	0	0	1	4	4
75	2.91991	0.0290248	0	0	0	0	1	4	4
74	2.94893	0.0406351	0	0	0	0	1	4	4
70	3.17533	0.0232201	0	0	0	0	1	4	4
70	3.33206	0.0580499	0	0	0	0	1	4	4
69	3.39011	0.0406349	0	0	0	0	1	4	4
78	4.0751	0.0870748	0	0	0	0	1	4	4
64	4.55692	0.0464396	0	0	0	0	1	4	4
69	4.79492	0.0348301	0	0	0	0	1	4	4
72	4.83556	0.0522447	0	0	0	0	1	4	4
69	4.8878	0.0348301	0	0	0	0	1	4	4
78	5.61923	0.0290251	0	0	0	0	1	4	4
77	5.65406	0.0638547	0	0	0	0	1	4	4
70	5.73533	0.0870748	0	0	0	0	1	4	4
69	5.83982	0.0232201	0	0	0	0	1	4	4
68	5.96172	0.0406346	0	0	0	0	1	4	4
65	6.00236	0.121905	0	0	0	0	1	4	4
69	6.33324	0.0464401	0	0	0	0	1	4	4
72	6.37968	0.0522447	0	0	0	0	1	4	4
69	6.43193	0.0232201	0	0	0	0	1	4	4
76	7.13433	0.0290251	0	0	0	0	1	4	4
78	7.16336	0.0522451	0	0	0	0	1	4	4
77	7.2156	0.0290246	0	0	0	0	1	4	4
67	7.52327	0.18576	0	0	0	0	1	4	4
71	7.82512	0.0232196	0	0	0	0	1	4	4
78	8.70168	0.104489	0	0	0	0	1	4	4
73	8.95129	0.0348301	0	0	0	0	1	4	4
69	9.43311	0.0348301	0	0	0	0	1	4	4
72	9.46794	0.0696592	0	0	0	0	1	4	4
78	10.269	0.0812702	0	0	0	0	1	4	4
72	10.5302	0.0232201	0	0	0	0	1	4	4
72	10.8785	0.0232201	0	0	0	0	1	4	4
72	11.0063	0.0696602	0	0	0	0	1	4	4
77	11.819	0.0870752	0	0	0	0	1	4	4
74	12.0454	0.0232201	0	0	0	0	1	4	4
72	12.1731	0.0580492	0	0	0	0	1	4	4
72	12.5504	0.0696592	0	0	0	0	1	4	4
75	13.3747	0.0232201	0	0	0	0	1	4	4
77	13.3979	0.0464392	0	0	0	0	1	4	4
75	13.5779	0.0290251	0	0	0	0	1	4	4
67	13.6475	0.0232201	0	0	0	0	1	4	4
72	13.7172	0.0580502	0	0	0	0	1	4	4
69	13.781	0.0348301	0	0	0	0	1	4	4
72	14.0945	0.0696602	0	0	0	0	1	4	4
75	14.8898	0.1161	0	0	0	0	1	4	4
72	15.2381	0.0812693	0	0	0	0	1	4	4
69	15.3194	0.121905	0	0	0	0	1	4	4
72	15.6386	0.104489	0	0	0	0	1	4	4
75	16.4571	0.0870762	0	0	0	0	1	4	4
73	16.788	0.0812702	0	0	0	0	1	4	4
66	16.9273	0.0406342	0	0	0	0	1	4	4
72	17.177	0.0464382	0	0	0	0	1	4	4
58	17.2931	0.0406361	0	0	0	0	1	4	4
72	17.9955	0.0232201	0	0	0	0	1	4	4
74	18.0477	0.0348301	0	0	0	0	1	4	4
73	18.0825	0.0638561	0	0	0	0	1	4	4
72	18.338	0.0812702	0	0	0	0	1	4	4
73	18.6514	0.0232201	0	0	0	0	1	4	4
72	18.7269	0.0348301	0	0	0	0	1	4	4
71	19.5454	0.0232201	0	0	0	0	1	4	4
74	19.6034	0.0464401	0	0	0	0	1	4	4
72	19.8821	0.0812702	0	0	0	0	1	4	4
67	20.0156	0.0406361	0	0	0	0	1	4	4
74	20.242	0.029026	0	0	0	0	1	4	4
72	20.271	0.0928783	0	0	0	0	1	4	4
73	21.1476	0.0986843	0	0	0	0	1	4	4
76	21.3391	0.0290241	0	0	0	0	1	4	4
72	21.4378	0.0464401	0	0	0	0	1	4	4
75	21.4843	0.0464401	0	0	0	0	1	4	4
75	21.7629	0.0406361	0	0	0	0	1	4	4
74	21.8035	0.0232201	0	0	0	0	1	4	4
72	21.8268	0.116098	0	0	0	0	1	4	4
71	22.6627	0.0406342	0	0	0	0	1	4	4
72	22.9819	0.0232201	0	0	0	0	1	4	4
76	23.0052	0.0870762	0	0	0	0	1	4	4
72	23.3477	0.0986843	0	0	0	0	1	4	4
