midiPitch 	 onsetSec 	 durationSec 	 onsetBeats 	 onsetBarIndex 	 onsetBar 	 durationBeats 	 velocity  	 numerator 	 denominator 
70	1.03329	0.0406349	0	0	0	0	1	4	4
74	1.10295	0.0638548	0	0	0	0	1	4	4
68	1.27129	0.040635	0	0	0	0	1	4	4
69	1.34095	0.0232199	0	0	0	0	1	4	4
70	1.36998	0.133515	0	0	0	0	1	4	4
68	1.82857	0.0522449	0	0	0	0	1	4	4
68	1.88082	0.0348299	0	0	0	0	1	4	4
72	1.96789	0.029025	0	0	0	0	1	4	4
68	2.54258	0.0348301	0	0	0	0	1	4	4
69	2.57741	0.0464399	0	0	0	0	1	4	4
69	2.78059	0.0986848	0	0	0	0	1	4	4
65	2.93152	0.0348299	0	0	0	0	1	4	4
68	2.98376	0.0406349	0	0	0	0	1	4	4
67	3.0302	0.0348299	0	0	0	0	1	4	4
66	3.07664	0.10449	0	0	0	0	1	4	4
67	3.22177	0.0290251	0	0	0	0	1	4	4
66	3.32045	0.0406349	0	0	0	0	1	4	4
66	3.44816	0.0406349	0	0	0	0	1	4	4
67	3.52943	0.0290251	0	0	0	0	1	4	4
67	3.56426	0.0232201	0	0	0	0	1	4	4
69	3.69778	0.0754647	0	0	0	0	1	4	4
71	4.06349	0.0348301	0	0	0	0	1	4	4
69	4.09832	0.0290251	0	0	0	0	1	4	4
69	4.13315	0.0348296	0	0	0	0	1	4	4
69	4.37116	0.0232201	0	0	0	0	1	4	4
73	4.52789	0.10449	0	0	0	0	1	4	4
72	4.63238	0.0290251	0	0	0	0	1	4	4
74	4.77751	0.0232201	0	0	0	0	1	4	4
74	4.87619	0.0290251	0	0	0	0	1	4	4
74	4.91683	0.0348301	0	0	0	0	1	4	4
79	5.03873	0.0290251	0	0	0	0	1	4	4
79	5.07356	0.1161	0	0	0	0	1	4	4
81	5.31156	0.1161	0	0	0	0	1	4	4
81	5.42766	0.0290251	0	0	0	0	1	4	4
81	5.51474	0.0754647	0	0	0	0	1	4	4
79	5.88045	0.0696597	0	0	0	0	1	4	4
68	6.08363	0.0406346	0	0	0	0	1	4	4
85	6.33905	0.0464401	0	0	0	0	1	4	4
75	6.38549	0.0638547	0	0	0	0	1	4	4
76	6.95438	0.0232201	0	0	0	0	1	4	4
75	7.01243	0.0406346	0	0	0	0	1	4	4
75	7.05887	0.0232201	0	0	0	0	1	4	4
76	7.45361	0.10449	0	0	0	0	1	4	4
77	7.55809	0.0522451	0	0	0	0	1	4	4
75	7.65678	0.0290251	0	0	0	0	1	4	4
78	7.92961	0.0464396	0	0	0	0	1	4	4
75	8.01669	0.0754652	0	0	0	0	1	4	4
74	8.09215	0.0232191	0	0	0	0	1	4	4
80	8.43465	0.0638552	0	0	0	0	1	4	4
69	8.63202	0.0406351	0	0	0	0	1	4	4
68	8.69007	0.0696592	0	0	0	0	1	4	4
68	8.75973	0.0348301	0	0	0	0	1	4	4
69	8.85841	0.0348301	0	0	0	0	1	4	4
70	8.89324	0.0232191	0	0	0	0	1	4	4
56	8.92227	0.284445	0	0	0	0	1	4	4
56	9.45052	0.0638552	0	0	0	0	1	4	4
55	10.5302	0.214785	0	0	0	0	1	4	4
53	10.745	0.0406342	0	0	0	0	1	4	4
54	10.9134	0.0870743	0	0	0	0	1	4	4
77	10.9946	0.0406351	0	0	0	0	1	4	4
76	11.0701	0.0232201	0	0	0	0	1	4	4
74	11.1862	0.16254	0	0	0	0	1	4	4
72	11.3488	0.0290241	0	0	0	0	1	4	4
67	11.9234	0.150929	0	0	0	0	1	4	4
78	12.3008	0.0928802	0	0	0	0	1	4	4
72	12.829	0.0464401	0	0	0	0	1	4	4
74	12.9974	0.127709	0	0	0	0	1	4	4
71	13.3108	0.0696602	0	0	0	0	1	4	4
69	13.3863	0.0232201	0	0	0	0	1	4	4
78	13.6127	0.0870743	0	0	0	0	1	4	4
69	13.6998	0.0986853	0	0	0	0	1	4	4
71	13.7985	0.0406342	0	0	0	0	1	4	4
70	14.0597	0.0696602	0	0	0	0	1	4	4
72	15.8476	0.0986843	0	0	0	0	1	4	4
77	15.9463	0.0290251	0	0	0	0	1	4	4
70	16.0044	0.0464401	0	0	0	0	1	4	4
73	16.283	0.0522442	0	0	0	0	1	4	4
70	16.4165	0.0290241	0	0	0	0	1	4	4
75	16.4455	0.0406361	0	0	0	0	1	4	4
73	16.5907	0.0754642	0	0	0	0	1	4	4
72	16.7532	0.0986843	0	0	0	0	1	4	4
72	16.8519	0.0232201	0	0	0	0	1	4	4
74	16.8809	0.0232201	0	0	0	0	1	4	4
68	16.9622	0.0290241	0	0	0	0	1	4	4
75	16.9912	0.0464401	0	0	0	0	1	4	4
77	17.0434	0.029026	0	0	0	0	1	4	4
73	17.6123	0.110294	0	0	0	0	1	4	4
71	17.7226	0.0522461	0	0	0	0	1	4	4
71	17.7749	0.0232201	0	0	0	0	1	4	4
69	17.8213	0.0754642	0	0	0	0	1	4	4
70	17.9839	0.0696602	0	0	0	0	1	4	4
65	18.1522	0.0406361	0	0	0	0	1	4	4
69	18.1928	0.0812683	0	0	0	0	1	4	4
73	18.3728	0.0232201	0	0	0	0	1	4	4
68	18.5005	0.0464401	0	0	0	0	1	4	4
75	18.7037	0.0406361	0	0	0	0	1	4	4
73	18.8836	0.0522461	0	0	0	0	1	4	4
72	19.0694	0.0290241	0	0	0	0	1	4	4
72	19.1449	0.0232201	0	0	0	0	1	4	4
68	19.2726	0.0290241	0	0	0	0	1	4	4
72	19.4351	0.0522442	0	0	0	0	1	4	4
68	19.6383	0.0580482	0	0	0	0	1	4	4
75	19.6963	0.0348301	0	0	0	0	1	4	4
63	19.795	0.162539	0	0	0	0	1	4	4
70	19.9576	0.0638561	0	0	0	0	1	4	4
66	20.4278	0.121904	0	0	0	0	1	4	4
68	20.6542	0.0696583	0	0	0	0	1	4	4
74	20.7238	0.0754662	0	0	0	0	1	4	4
72	21.0373	0.0348301	0	0	0	0	1	4	4
72	21.1069	0.0232182	0	0	0	0	1	4	4
74	21.2579	0.0406361	0	0	0	0	1	4	4
62	21.2985	0.0464382	0	0	0	0	1	4	4
69	21.4843	0.0638542	0	0	0	0	1	4	4
68	21.5481	0.0348301	0	0	0	0	1	4	4
69	21.7049	0.0290241	0	0	0	0	1	4	4
74	21.7339	0.156734	0	0	0	0	1	4	4
68	21.9603	0.0522442	0	0	0	0	1	4	4
72	22.535	0.0348301	0	0	0	0	1	4	4
70	22.593	0.0638542	0	0	0	0	1	4	4
74	22.7614	0.0232201	0	0	0	0	1	4	4
67	22.7846	0.0348301	0	0	0	0	1	4	4
64	22.9065	0.0232201	0	0	0	0	1	4	4
69	23.0284	0.0522461	0	0	0	0	1	4	4
72	23.1735	0.0580502	0	0	0	0	1	4	4
67	23.7888	0.18576	0	0	0	0	1	4	4
63	23.9746	0.0232182	0	0	0	0	1	4	4
69	24.0617	0.0290241	0	0	0	0	1	4	4
71	24.1604	0.0522442	0	0	0	0	1	4	4
72	24.3229	0.0290241	0	0	0	0	1	4	4
69	24.3635	0.0348301	0	0	0	0	1	4	4
69	24.5319	0.029026	0	0	0	0	1	4	4
72	24.6596	0.0232201	0	0	0	0	1	4	4
71	24.7176	0.0580502	0	0	0	0	1	4	4
73	24.8337	0.0348301	0	0	0	0	1	4	4
72	24.9034	0.0754662	0	0	0	0	1	4	4
74	25.2169	0.0464401	0	0	0	0	1	4	4
69	25.3039	0.0232201	0	0	0	0	1	4	4
72	25.4317	0.029026	0	0	0	0	1	4	4
79	25.8554	0.0522442	0	0	0	0	1	4	4
72	26.2037	0.0406342	0	0	0	0	1	4	4
72	26.4301	0.0290241	0	0	0	0	1	4	4
76	26.5404	0.0406361	0	0	0	0	1	4	4
68	26.7146	0.0406342	0	0	0	0	1	4	4
74	27.2776	0.0290241	0	0	0	0	1	4	4
72	27.9104	0.0928802	0	0	0	0	1	4	4
70	28.0033	0.0464401	0	0	0	0	1	4	4
73	28.2064	0.0232201	0	0	0	0	1	4	4
54	28.2006	0.0464401	0	0	0	0	1	4	4
54	28.5605	0.0754662	0	0	0	0	1	4	4
