midiPitch 	 onsetSec 	 durationSec 	 onsetBeats 	 onsetBarIndex 	 onsetBar 	 durationBeats 	 velocity  	 numerator 	 denominator 
77	1.84599	0.0406349	0	0	4.88971e-035	0	1	4	4
70	2.63546	0.0986848	0	0	4.88971e-035	0	1	4	4
73	2.73415	0.0928798	0	0	4.88971e-035	0	1	4	4
74	2.82703	0.0580499	0	0	4.88971e-035	0	1	4	4
75	2.89669	0.0580499	0	0	4.88971e-035	0	1	4	4
73	3.08825	0.121905	0	0	4.88971e-035	0	1	4	4
73	3.21016	0.0348301	0	0	4.88971e-035	0	1	4	4
71	3.55265	0.0348299	0	0	4.88971e-035	0	1	4	4
74	3.58748	0.0290248	0	0	4.88971e-035	0	1	4	4
72	3.63392	0.0464399	0	0	4.88971e-035	0	1	4	4
74	3.68036	0.0464399	0	0	4.88971e-035	0	1	4	4
71	3.81968	0.0232201	0	0	4.88971e-035	0	1	4	4
73	3.8429	0.0986848	0	0	4.88971e-035	0	1	4	4
71	4.02286	0.0348296	0	0	4.88971e-035	0	1	4	4
70	4.11574	0.0754647	0	0	4.88971e-035	0	1	4	4
69	4.29569	0.0290251	0	0	4.88971e-035	0	1	4	4
73	4.32472	0.0580497	0	0	4.88971e-035	0	1	4	4
73	4.43501	0.0812697	0	0	4.88971e-035	0	1	4	4
68	4.75429	0.0348296	0	0	4.88971e-035	0	1	4	4
75	4.89361	0.0406351	0	0	4.88971e-035	0	1	4	4
78	5.358	0.0290246	0	0	4.88971e-035	0	1	4	4
74	5.38703	0.0290251	0	0	4.88971e-035	0	1	4	4
73	5.42766	0.0290251	0	0	4.88971e-035	0	1	4	4
73	5.61923	0.0290251	0	0	4.88971e-035	0	1	4	4
71	5.64825	0.0406346	0	0	4.88971e-035	0	1	4	4
74	5.72372	0.0696597	0	0	4.88971e-035	0	1	4	4
72	5.9385	0.121905	0	0	4.88971e-035	0	1	4	4
71	6.09524	0.0696597	0	0	4.88971e-035	0	1	4	4
74	6.18812	0.0406346	0	0	4.88971e-035	0	1	4	4
74	6.23456	0.0232201	0	0	4.88971e-035	0	1	4	4
74	6.46676	0.0812697	0	0	4.88971e-035	0	1	4	4
70	6.61188	0.0406351	0	0	4.88971e-035	0	1	4	4
73	6.69896	0.0232196	0	0	4.88971e-035	0	1	4	4
71	6.72218	0.0348301	0	0	4.88971e-035	0	1	4	4
72	6.99501	0.0580497	0	0	4.88971e-035	0	1	4	4
74	7.05306	0.0348301	0	0	4.88971e-035	0	1	4	4
73	7.08789	0.0232201	0	0	4.88971e-035	0	1	4	4
73	7.14014	0.10449	0	0	4.88971e-035	0	1	4	4
71	7.41297	0.0348296	0	0	4.88971e-035	0	1	4	4
72	7.50585	0.0348296	0	0	4.88971e-035	0	1	4	4
70	7.81351	0.0696597	0	0	4.88971e-035	0	1	4	4
76	7.93542	0.0754647	0	0	4.88971e-035	0	1	4	4
71	8.31855	0.0232201	0	0	4.88971e-035	0	1	4	4
73	8.78295	0.0290251	0	0	4.88971e-035	0	1	4	4
72	8.81778	0.0696602	0	0	4.88971e-035	0	1	4	4
73	8.92227	0.0348301	0	0	4.88971e-035	0	1	4	4
74	8.9571	0.0754652	0	0	4.88971e-035	0	1	4	4
72	9.24154	0.133514	0	0	4.88971e-035	0	1	4	4
66	9.97878	0.0580502	0	0	4.88971e-035	0	1	4	4
87	10.0252	0.0290251	0	0	4.88971e-035	0	1	4	4
87	10.0833	0.0290251	0	0	4.88971e-035	0	1	4	4
87	10.1645	0.0232201	0	0	4.88971e-035	0	1	4	4
86	10.2052	0.0232201	0	0	4.88971e-035	0	1	4	4
87	10.2284	0.0348301	0	0	4.88971e-035	0	1	4	4
86	10.2632	0.0638552	0	0	4.88971e-035	0	1	4	4
87	10.3271	0.0290241	0	0	4.88971e-035	0	1	4	4
87	10.4432	0.0348301	0	0	4.88971e-035	0	1	4	4
87	10.4838	0.0290251	0	0	4.88971e-035	0	1	4	4
87	10.5361	0.0348291	0	0	4.88971e-035	0	1	4	4
87	10.5767	0.0348301	0	0	4.88971e-035	0	1	4	4
87	10.6231	0.0232201	0	0	4.88971e-035	0	1	4	4
87	10.6696	0.0290251	0	0	4.88971e-035	0	1	4	4
87	10.7044	0.0406351	0	0	4.88971e-035	0	1	4	4
87	10.7857	0.0986853	0	0	4.88971e-035	0	1	4	4
86	11.4358	0.0522451	0	0	4.88971e-035	0	1	4	4
86	11.4881	0.0232201	0	0	4.88971e-035	0	1	4	4
87	11.5171	0.0232201	0	0	4.88971e-035	0	1	4	4
87	11.6448	0.0232201	0	0	4.88971e-035	0	1	4	4
86	11.6738	0.0232201	0	0	4.88971e-035	0	1	4	4
86	11.7551	0.0406342	0	0	4.88971e-035	0	1	4	4
87	11.8422	0.0348301	0	0	4.88971e-035	0	1	4	4
86	11.9176	0.0406351	0	0	4.88971e-035	0	1	4	4
87	11.9641	0.0812693	0	0	4.88971e-035	0	1	4	4
87	12.115	0.0928793	0	0	4.88971e-035	0	1	4	4
86	12.295	0.0290251	0	0	4.88971e-035	0	1	4	4
86	12.4401	0.0348301	0	0	4.88971e-035	0	1	4	4
86	12.5388	0.0232201	0	0	4.88971e-035	0	1	4	4
87	12.5968	0.0348291	0	0	4.88971e-035	0	1	4	4
87	12.6665	0.0232201	0	0	4.88971e-035	0	1	4	4
86	13.1077	0.0232201	0	0	4.88971e-035	0	1	4	4
87	13.1309	0.0232201	0	0	4.88971e-035	0	1	4	4
86	13.1657	0.0232201	0	0	4.88971e-035	0	1	4	4
87	13.2122	0.0348291	0	0	4.88971e-035	0	1	4	4
86	13.2644	0.0290251	0	0	4.88971e-035	0	1	4	4
84	13.305	0.0464401	0	0	4.88971e-035	0	1	4	4
84	13.4444	0.0348301	0	0	4.88971e-035	0	1	4	4
85	13.5837	0.0348301	0	0	4.88971e-035	0	1	4	4
87	13.723	0.0232201	0	0	4.88971e-035	0	1	4	4
87	13.8507	0.0232201	0	0	4.88971e-035	0	1	4	4
87	13.9378	0.0464401	0	0	4.88971e-035	0	1	4	4
87	14.0016	0.0232201	0	0	4.88971e-035	0	1	4	4
87	14.0539	0.0290251	0	0	4.88971e-035	0	1	4	4
87	14.2687	0.0348301	0	0	4.88971e-035	0	1	4	4
87	14.3673	0.0290251	0	0	4.88971e-035	0	1	4	4
87	14.4602	0.0580502	0	0	4.88971e-035	0	1	4	4
87	14.5763	0.0464401	0	0	4.88971e-035	0	1	4	4
86	14.6228	0.0348291	0	0	4.88971e-035	0	1	4	4
85	14.6924	0.191565	0	0	4.88971e-035	0	1	4	4
85	14.884	0.0290251	0	0	4.88971e-035	0	1	4	4
85	14.9595	0.0348301	0	0	4.88971e-035	0	1	4	4
85	15.0001	0.0348301	0	0	4.88971e-035	0	1	4	4
84	15.0697	0.0232201	0	0	4.88971e-035	0	1	4	4
83	15.093	0.0232201	0	0	4.88971e-035	0	1	4	4
84	15.1162	0.0406351	0	0	4.88971e-035	0	1	4	4
83	15.2033	0.0232201	0	0	4.88971e-035	0	1	4	4
84	15.2497	0.0464392	0	0	4.88971e-035	0	1	4	4
83	15.3136	0.0696602	0	0	4.88971e-035	0	1	4	4
84	15.3832	0.0812702	0	0	4.88971e-035	0	1	4	4
84	15.4645	0.0290241	0	0	4.88971e-035	0	1	4	4
