midiPitch 	 onsetSec 	 durationSec 	 onsetBeats 	 onsetBarIndex 	 onsetBar 	 durationBeats 	 velocity  	 numerator 	 denominator 
63	0.0638549	0.0348299	0	0	3.9679e-035	0	1	4	4
63	0.0986848	0.110295	0	0	3.9679e-035	0	1	4	4
60	0.342494	0.0290249	0	0	3.9679e-035	0	1	4	4
62	0.470204	0.0464399	0	0	3.9679e-035	0	1	4	4
65	0.644354	0.0522449	0	0	3.9679e-035	0	1	4	4
64	0.760454	0.18576	0	0	3.9679e-035	0	1	4	4
62	1.07973	0.214785	0	0	3.9679e-035	0	1	4	4
60	1.35256	0.0464399	0	0	3.9679e-035	0	1	4	4
60	1.5093	0.0522449	0	0	3.9679e-035	0	1	4	4
59	1.64862	0.0928798	0	0	3.9679e-035	0	1	4	4
60	1.78794	0.10449	0	0	3.9679e-035	0	1	4	4
60	1.89243	0.0696598	0	0	3.9679e-035	0	1	4	4
58	1.96789	0.191565	0	0	3.9679e-035	0	1	4	4
62	2.23492	0.179955	0	0	3.9679e-035	0	1	4	4
63	2.73415	0.0232198	0	0	3.9679e-035	0	1	4	4
64	2.82703	0.0580499	0	0	3.9679e-035	0	1	4	4
63	2.88508	0.0812697	0	0	3.9679e-035	0	1	4	4
64	2.99537	0.121905	0	0	3.9679e-035	0	1	4	4
63	3.15791	0.0696599	0	0	3.9679e-035	0	1	4	4
63	3.22757	0.0696599	0	0	3.9679e-035	0	1	4	4
65	3.44816	0.0522449	0	0	3.9679e-035	0	1	4	4
63	3.55846	0.0232198	0	0	3.9679e-035	0	1	4	4
62	3.79646	0.0406349	0	0	3.9679e-035	0	1	4	4
62	3.8371	0.0232201	0	0	3.9679e-035	0	1	4	4
62	3.86612	0.12771	0	0	3.9679e-035	0	1	4	4
62	3.99964	0.0928798	0	0	3.9679e-035	0	1	4	4
65	4.1854	0.0812697	0	0	3.9679e-035	0	1	4	4
63	4.26667	0.0638552	0	0	3.9679e-035	0	1	4	4
63	4.48145	0.0232201	0	0	3.9679e-035	0	1	4	4
64	4.50467	0.133515	0	0	3.9679e-035	0	1	4	4
65	4.78912	0.0522451	0	0	3.9679e-035	0	1	4	4
64	4.84136	0.0290246	0	0	3.9679e-035	0	1	4	4
64	5.42766	0.1161	0	0	3.9679e-035	0	1	4	4
62	5.83982	0.110295	0	0	3.9679e-035	0	1	4	4
60	5.99075	0.0928798	0	0	3.9679e-035	0	1	4	4
61	6.15909	0.133515	0	0	3.9679e-035	0	1	4	4
60	6.3971	0.0754647	0	0	3.9679e-035	0	1	4	4
63	6.54803	0.0406351	0	0	3.9679e-035	0	1	4	4
61	6.58866	0.0348296	0	0	3.9679e-035	0	1	4	4
60	6.6293	0.0638552	0	0	3.9679e-035	0	1	4	4
61	6.85569	0.284444	0	0	3.9679e-035	0	1	4	4
61	7.14014	0.17415	0	0	3.9679e-035	0	1	4	4
60	7.43619	0.156735	0	0	3.9679e-035	0	1	4	4
64	7.76707	0.168345	0	0	3.9679e-035	0	1	4	4
61	8.0341	0.0638542	0	0	3.9679e-035	0	1	4	4
63	8.21406	0.156734	0	0	3.9679e-035	0	1	4	4
59	8.46948	0.0928793	0	0	3.9679e-035	0	1	4	4
59	8.64363	0.127709	0	0	3.9679e-035	0	1	4	4
59	8.77134	0.0870752	0	0	3.9679e-035	0	1	4	4
62	8.93968	0.0870752	0	0	3.9679e-035	0	1	4	4
59	9.02676	0.133514	0	0	3.9679e-035	0	1	4	4
58	9.16027	0.191565	0	0	3.9679e-035	0	1	4	4
58	9.35184	0.13932	0	0	3.9679e-035	0	1	4	4
61	9.56662	0.18576	0	0	3.9679e-035	0	1	4	4
60	9.83365	0.0638552	0	0	3.9679e-035	0	1	4	4
62	9.96716	0.0754652	0	0	3.9679e-035	0	1	4	4
65	10.0949	0.0928793	0	0	3.9679e-035	0	1	4	4
62	10.1936	0.0870752	0	0	3.9679e-035	0	1	4	4
62	10.2806	0.150929	0	0	3.9679e-035	0	1	4	4
64	10.5535	0.0348291	0	0	3.9679e-035	0	1	4	4
62	10.5883	0.0986853	0	0	3.9679e-035	0	1	4	4
61	10.8379	0.0870752	0	0	3.9679e-035	0	1	4	4
60	11.134	0.0986843	0	0	3.9679e-035	0	1	4	4
60	11.3197	0.168344	0	0	3.9679e-035	0	1	4	4
59	11.5751	0.19737	0	0	3.9679e-035	0	1	4	4
61	11.8712	0.0406351	0	0	3.9679e-035	0	1	4	4
61	11.9176	0.0754642	0	0	3.9679e-035	0	1	4	4
59	12.1556	0.0812693	0	0	3.9679e-035	0	1	4	4
58	12.3008	0.0696602	0	0	3.9679e-035	0	1	4	4
61	12.4517	0.0406351	0	0	3.9679e-035	0	1	4	4
62	12.4981	0.226395	0	0	3.9679e-035	0	1	4	4
61	12.7245	0.0580502	0	0	3.9679e-035	0	1	4	4
58	13.218	0.0580492	0	0	3.9679e-035	0	1	4	4
61	13.3631	0.0232201	0	0	3.9679e-035	0	1	4	4
62	13.3921	0.0406342	0	0	3.9679e-035	0	1	4	4
59	13.5024	0.0464401	0	0	3.9679e-035	0	1	4	4
62	13.6533	0.226395	0	0	3.9679e-035	0	1	4	4
60	14.5415	0.0522451	0	0	3.9679e-035	0	1	4	4
60	14.5937	0.0232201	0	0	3.9679e-035	0	1	4	4
60	14.6576	0.0754652	0	0	3.9679e-035	0	1	4	4
63	14.9014	0.168344	0	0	3.9679e-035	0	1	4	4
61	15.2729	0.0580502	0	0	3.9679e-035	0	1	4	4
61	15.5516	0.0348301	0	0	3.9679e-035	0	1	4	4
61	15.7431	0.0232201	0	0	3.9679e-035	0	1	4	4
62	15.8708	0.0638542	0	0	3.9679e-035	0	1	4	4
64	15.9985	0.0580502	0	0	3.9679e-035	0	1	4	4
61	16.2075	0.133516	0	0	3.9679e-035	0	1	4	4
62	16.341	0.104488	0	0	3.9679e-035	0	1	4	4
62	16.4455	0.0464401	0	0	3.9679e-035	0	1	4	4
63	16.5094	0.168344	0	0	3.9679e-035	0	1	4	4
60	16.7184	0.133514	0	0	3.9679e-035	0	1	4	4
60	16.9099	0.0406361	0	0	3.9679e-035	0	1	4	4
61	17.0376	0.0754642	0	0	3.9679e-035	0	1	4	4
62	17.1712	0.0812702	0	0	3.9679e-035	0	1	4	4
61	17.3453	0.0812683	0	0	3.9679e-035	0	1	4	4
60	17.473	0.0754662	0	0	3.9679e-035	0	1	4	4
59	17.6239	0.0986843	0	0	3.9679e-035	0	1	4	4
60	17.8039	0.168344	0	0	3.9679e-035	0	1	4	4
58	18.0825	0.10449	0	0	3.9679e-035	0	1	4	4
59	18.187	0.0348301	0	0	3.9679e-035	0	1	4	4
60	18.2277	0.0928783	0	0	3.9679e-035	0	1	4	4
60	18.396	0.0928783	0	0	3.9679e-035	0	1	4	4
60	18.4889	0.238005	0	0	3.9679e-035	0	1	4	4
61	18.8256	0.0696583	0	0	3.9679e-035	0	1	4	4
61	18.8952	0.0870762	0	0	3.9679e-035	0	1	4	4
59	18.9823	0.0464401	0	0	3.9679e-035	0	1	4	4
59	19.0926	0.1161	0	0	3.9679e-035	0	1	4	4
58	19.2493	0.10449	0	0	3.9679e-035	0	1	4	4
57	19.3538	0.1161	0	0	3.9679e-035	0	1	4	4
61	19.5744	0.0348301	0	0	3.9679e-035	0	1	4	4
61	19.6151	0.133514	0	0	3.9679e-035	0	1	4	4
60	19.8589	0.179955	0	0	3.9679e-035	0	1	4	4
61	20.1549	0.0638542	0	0	3.9679e-035	0	1	4	4
59	20.2188	0.0638561	0	0	3.9679e-035	0	1	4	4
65	20.7296	0.168344	0	0	3.9679e-035	0	1	4	4
62	20.985	0.272835	0	0	3.9679e-035	0	1	4	4
69	21.3566	0.156736	0	0	3.9679e-035	0	1	4	4
68	21.821	0.0812702	0	0	3.9679e-035	0	1	4	4
67	21.9022	0.0812702	0	0	3.9679e-035	0	1	4	4
64	21.9835	0.214785	0	0	3.9679e-035	0	1	4	4
63	22.3028	0.156734	0	0	3.9679e-035	0	1	4	4
67	22.4943	0.133514	0	0	3.9679e-035	0	1	4	4
66	22.6278	0.0290241	0	0	3.9679e-035	0	1	4	4
65	22.6569	0.0232201	0	0	3.9679e-035	0	1	4	4
65	23.1213	0.13932	0	0	3.9679e-035	0	1	4	4
61	23.3709	0.0406342	0	0	3.9679e-035	0	1	4	4
63	23.4173	0.214785	0	0	3.9679e-035	0	1	4	4
68	23.6844	0.17415	0	0	3.9679e-035	0	1	4	4
63	24.1197	0.127708	0	0	3.9679e-035	0	1	4	4
65	24.259	0.203175	0	0	3.9679e-035	0	1	4	4
62	24.5667	0.0406342	0	0	3.9679e-035	0	1	4	4
62	24.6944	0.0986843	0	0	3.9679e-035	0	1	4	4
61	24.857	0.179955	0	0	3.9679e-035	0	1	4	4
58	25.1472	0.162539	0	0	3.9679e-035	0	1	4	4
63	25.6	0.0290241	0	0	3.9679e-035	0	1	4	4
63	25.629	0.0290241	0	0	3.9679e-035	0	1	4	4
64	25.7277	0.0696602	0	0	3.9679e-035	0	1	4	4
61	25.867	0.10449	0	0	3.9679e-035	0	1	4	4
61	26.0586	0.168344	0	0	3.9679e-035	0	1	4	4
63	26.4591	0.0348301	0	0	3.9679e-035	0	1	4	4
65	26.5752	0.0522461	0	0	3.9679e-035	0	1	4	4
63	26.6275	0.0754642	0	0	3.9679e-035	0	1	4	4
62	26.7029	0.0522442	0	0	3.9679e-035	0	1	4	4
63	26.8423	0.0406342	0	0	3.9679e-035	0	1	4	4
63	26.8887	0.0348301	0	0	3.9679e-035	0	1	4	4
62	26.999	0.0580482	0	0	3.9679e-035	0	1	4	4
64	27.179	0.0696602	0	0	3.9679e-035	0	1	4	4
61	27.3241	0.0638542	0	0	3.9679e-035	0	1	4	4
62	27.475	0.0812702	0	0	3.9679e-035	0	1	4	4
