midiPitch 	 onsetSec 	 durationSec 	 onsetBeats 	 onsetBarIndex 	 onsetBar 	 durationBeats 	 velocity  	 numerator 	 denominator 
59	1.12036	0.121905	0	0	4.17484e-035	0	1	4	4
60	1.24227	0.10449	0	0	4.17484e-035	0	1	4	4
61	1.68925	0.179955	0	0	4.17484e-035	0	1	4	4
60	1.86921	0.133515	0	0	4.17484e-035	0	1	4	4
62	2.0898	0.168345	0	0	4.17484e-035	0	1	4	4
62	2.25814	0.1161	0	0	4.17484e-035	0	1	4	4
62	2.6761	0.179955	0	0	4.17484e-035	0	1	4	4
63	2.85605	0.1161	0	0	4.17484e-035	0	1	4	4
62	3.47138	0.0986848	0	0	4.17484e-035	0	1	4	4
64	3.59329	0.121905	0	0	4.17484e-035	0	1	4	4
63	3.71519	0.0232198	0	0	4.17484e-035	0	1	4	4
62	4.37696	0.110295	0	0	4.17484e-035	0	1	4	4
64	4.48726	0.17415	0	0	4.17484e-035	0	1	4	4
68	5.25932	0.296054	0	0	4.17484e-035	0	1	4	4
70	6.29841	0.0696597	0	0	4.17484e-035	0	1	4	4
65	6.55383	0.133515	0	0	4.17484e-035	0	1	4	4
62	6.68154	0.145124	0	0	4.17484e-035	0	1	4	4
63	6.82667	0.20898	0	0	4.17484e-035	0	1	4	4
63	7.61034	0.272834	0	0	4.17484e-035	0	1	4	4
68	8.47528	0.255419	0	0	4.17484e-035	0	1	4	4
68	9.39247	0.0290251	0	0	4.17484e-035	0	1	4	4
61	9.93234	0.116099	0	0	4.17484e-035	0	1	4	4
62	10.0484	0.0348301	0	0	4.17484e-035	0	1	4	4
63	10.1007	0.0406351	0	0	4.17484e-035	0	1	4	4
63	10.1703	0.0812702	0	0	4.17484e-035	0	1	4	4
58	10.4141	0.0464401	0	0	4.17484e-035	0	1	4	4
58	10.4606	0.0696602	0	0	4.17484e-035	0	1	4	4
70	10.5999	0.0638552	0	0	4.17484e-035	0	1	4	4
64	10.7508	0.150929	0	0	4.17484e-035	0	1	4	4
62	10.9018	0.191565	0	0	4.17484e-035	0	1	4	4
68	12.1092	0.203175	0	0	4.17484e-035	0	1	4	4
58	12.9335	0.0290251	0	0	4.17484e-035	0	1	4	4
56	14.5125	0.121905	0	0	4.17484e-035	0	1	4	4
56	14.6982	0.0754652	0	0	4.17484e-035	0	1	4	4
58	14.7737	0.0870752	0	0	4.17484e-035	0	1	4	4
57	14.8608	0.208979	0	0	4.17484e-035	0	1	4	4
58	15.0697	0.179955	0	0	4.17484e-035	0	1	4	4
58	15.2497	0.354104	0	0	4.17484e-035	0	1	4	4
63	16.0566	0.0464401	0	0	4.17484e-035	0	1	4	4
63	16.4397	0.319275	0	0	4.17484e-035	0	1	4	4
63	16.759	0.0464401	0	0	4.17484e-035	0	1	4	4
63	16.8054	0.104488	0	0	4.17484e-035	0	1	4	4
64	17.2408	0.0696602	0	0	4.17484e-035	0	1	4	4
57	17.653	0.110296	0	0	4.17484e-035	0	1	4	4
61	18.0825	0.145126	0	0	4.17484e-035	0	1	4	4
60	18.2277	0.185759	0	0	4.17484e-035	0	1	4	4
60	18.4134	0.121904	0	0	4.17484e-035	0	1	4	4
60	18.5353	0.16254	0	0	4.17484e-035	0	1	4	4
58	18.7443	0.133514	0	0	4.17484e-035	0	1	4	4
59	19.3945	0.0696602	0	0	4.17484e-035	0	1	4	4
57	19.4932	0.16254	0	0	4.17484e-035	0	1	4	4
57	19.6557	0.0232201	0	0	4.17484e-035	0	1	4	4
66	20.8631	0.12771	0	0	4.17484e-035	0	1	4	4
62	20.9908	0.0232201	0	0	4.17484e-035	0	1	4	4
54	21.1882	0.0812702	0	0	4.17484e-035	0	1	4	4
53	21.3507	0.1161	0	0	4.17484e-035	0	1	4	4
60	22.4015	0.0232201	0	0	4.17484e-035	0	1	4	4
59	22.4595	0.0348301	0	0	4.17484e-035	0	1	4	4
60	22.5872	0.16254	0	0	4.17484e-035	0	1	4	4
63	23.0226	0.145124	0	0	4.17484e-035	0	1	4	4
63	23.3825	0.197369	0	0	4.17484e-035	0	1	4	4
62	23.5973	0.133514	0	0	4.17484e-035	0	1	4	4
69	24.201	0.145126	0	0	4.17484e-035	0	1	4	4
58	24.3577	0.179955	0	0	4.17484e-035	0	1	4	4
59	24.5377	0.0754642	0	0	4.17484e-035	0	1	4	4
61	24.7815	0.191565	0	0	4.17484e-035	0	1	4	4
60	24.9731	0.16254	0	0	4.17484e-035	0	1	4	4
58	25.1937	0.0986843	0	0	4.17484e-035	0	1	4	4
56	26.5927	0.104488	0	0	4.17484e-035	0	1	4	4
56	27.3357	0.162539	0	0	4.17484e-035	0	1	4	4
56	27.4982	0.214785	0	0	4.17484e-035	0	1	4	4
58	27.713	0.208981	0	0	4.17484e-035	0	1	4	4
