midiPitch 	 onsetSec 	 durationSec 	 onsetBeats 	 onsetBarIndex 	 onsetBar 	 durationBeats 	 velocity  	 numerator 	 denominator 
70	3.59909	0.0232198	0	0	4.96426e-035	0	1	4	4
83	3.66875	0.0406351	0	0	4.96426e-035	0	1	4	4
83	3.70939	0.0986848	0	0	4.96426e-035	0	1	4	4
83	3.80807	0.0870748	0	0	4.96426e-035	0	1	4	4
83	4.21442	0.0232201	0	0	4.96426e-035	0	1	4	4
83	4.26086	0.0232201	0	0	4.96426e-035	0	1	4	4
83	4.29569	0.0348301	0	0	4.96426e-035	0	1	4	4
83	4.40018	0.0406351	0	0	4.96426e-035	0	1	4	4
75	8.99193	0.0232201	0	0	4.96426e-035	0	1	4	4
85	10.7973	0.0232201	0	0	4.96426e-035	0	1	4	4
84	10.9192	0.145124	0	0	4.96426e-035	0	1	4	4
86	11.6448	0.0232201	0	0	4.96426e-035	0	1	4	4
86	11.7319	0.0348301	0	0	4.96426e-035	0	1	4	4
86	11.7667	0.0232191	0	0	4.96426e-035	0	1	4	4
84	11.7899	0.0580502	0	0	4.96426e-035	0	1	4	4
66	11.8364	0.0348301	0	0	4.96426e-035	0	1	4	4
66	11.9002	0.156734	0	0	4.96426e-035	0	1	4	4
66	12.057	0.18576	0	0	4.96426e-035	0	1	4	4
66	12.5968	0.104489	0	0	4.96426e-035	0	1	4	4
65	12.7129	0.0638552	0	0	4.96426e-035	0	1	4	4
66	12.8058	0.110294	0	0	4.96426e-035	0	1	4	4
65	12.9161	0.0232201	0	0	4.96426e-035	0	1	4	4
64	12.9625	0.0406351	0	0	4.96426e-035	0	1	4	4
65	13.0786	0.0290251	0	0	4.96426e-035	0	1	4	4
69	13.1077	0.0754652	0	0	4.96426e-035	0	1	4	4
65	13.6359	0.0290251	0	0	4.96426e-035	0	1	4	4
66	13.6649	0.0348301	0	0	4.96426e-035	0	1	4	4
68	13.6998	0.0696602	0	0	4.96426e-035	0	1	4	4
66	13.7694	0.0290251	0	0	4.96426e-035	0	1	4	4
65	13.8043	0.0812693	0	0	4.96426e-035	0	1	4	4
65	13.9029	0.0406351	0	0	4.96426e-035	0	1	4	4
65	13.9436	0.150929	0	0	4.96426e-035	0	1	4	4
64	14.379	0.0406351	0	0	4.96426e-035	0	1	4	4
64	14.4893	0.0348301	0	0	4.96426e-035	0	1	4	4
64	14.5299	0.0406351	0	0	4.96426e-035	0	1	4	4
64	14.5763	0.0290251	0	0	4.96426e-035	0	1	4	4
64	14.6228	0.0232201	0	0	4.96426e-035	0	1	4	4
67	14.7273	0.0232201	0	0	4.96426e-035	0	1	4	4
68	14.7621	0.0290251	0	0	4.96426e-035	0	1	4	4
66	14.7911	0.0348301	0	0	4.96426e-035	0	1	4	4
65	14.8608	0.0232191	0	0	4.96426e-035	0	1	4	4
65	14.9246	0.0348301	0	0	4.96426e-035	0	1	4	4
66	15.0175	0.0928793	0	0	4.96426e-035	0	1	4	4
67	15.1394	0.0580502	0	0	4.96426e-035	0	1	4	4
66	15.2381	0.150929	0	0	4.96426e-035	0	1	4	4
63	16.4862	0.0580502	0	0	4.96426e-035	0	1	4	4
65	25.5884	0.0232201	0	0	4.96426e-035	0	1	4	4
73	26.8713	0.0464401	0	0	4.96426e-035	0	1	4	4
74	26.941	0.0406342	0	0	4.96426e-035	0	1	4	4
76	26.9816	0.029026	0	0	4.96426e-035	0	1	4	4
78	27.0106	0.0232201	0	0	4.96426e-035	0	1	4	4
77	27.0396	0.0522442	0	0	4.96426e-035	0	1	4	4
66	28.1774	0.0696602	0	0	4.96426e-035	0	1	4	4
