midiPitch 	 onsetSec 	 durationSec 	 onsetBeats 	 onsetBarIndex 	 onsetBar 	 durationBeats 	 velocity  	 numerator 	 denominator 
71	0.487619	0.029025	0	0	4.06199e-035	0	1	4	4
71	0.528254	0.0232199	0	0	4.06199e-035	0	1	4	4
73	0.574694	0.0232199	0	0	4.06199e-035	0	1	4	4
67	0.626939	0.0986848	0	0	4.06199e-035	0	1	4	4
67	0.725624	0.0580499	0	0	4.06199e-035	0	1	4	4
64	1.32354	0.040635	0	0	4.06199e-035	0	1	4	4
64	1.36998	0.18576	0	0	4.06199e-035	0	1	4	4
64	1.69506	0.145125	0	0	4.06199e-035	0	1	4	4
62	1.88662	0.226395	0	0	4.06199e-035	0	1	4	4
57	2.38005	0.145125	0	0	4.06199e-035	0	1	4	4
57	2.55419	0.13932	0	0	4.06199e-035	0	1	4	4
68	4.40018	0.15093	0	0	4.06199e-035	0	1	4	4
68	4.63238	0.0232201	0	0	4.06199e-035	0	1	4	4
69	4.95746	0.0522447	0	0	4.06199e-035	0	1	4	4
64	5.00971	0.0754647	0	0	4.06199e-035	0	1	4	4
61	6.80345	0.0406346	0	0	4.06199e-035	0	1	4	4
59	6.84989	0.145125	0	0	4.06199e-035	0	1	4	4
59	6.99501	0.168344	0	0	4.06199e-035	0	1	4	4
61	7.16336	0.0348301	0	0	4.06199e-035	0	1	4	4
59	9.3054	0.121904	0	0	4.06199e-035	0	1	4	4
51	10.5825	0.191565	0	0	4.06199e-035	0	1	4	4
56	10.9888	0.16254	0	0	4.06199e-035	0	1	4	4
57	11.1514	0.354104	0	0	4.06199e-035	0	1	4	4
57	11.5055	0.0986843	0	0	4.06199e-035	0	1	4	4
57	11.7087	0.19737	0	0	4.06199e-035	0	1	4	4
58	12.0163	0.0986853	0	0	4.06199e-035	0	1	4	4
56	12.115	0.307664	0	0	4.06199e-035	0	1	4	4
56	12.4227	0.17415	0	0	4.06199e-035	0	1	4	4
51	12.742	0.18576	0	0	4.06199e-035	0	1	4	4
50	12.9277	0.22059	0	0	4.06199e-035	0	1	4	4
48	13.1483	0.19737	0	0	4.06199e-035	0	1	4	4
50	13.3457	0.621134	0	0	4.06199e-035	0	1	4	4
56	14.1235	0.0580502	0	0	4.06199e-035	0	1	4	4
53	14.1874	0.139319	0	0	4.06199e-035	0	1	4	4
55	14.3267	0.0986853	0	0	4.06199e-035	0	1	4	4
59	14.4254	0.0348291	0	0	4.06199e-035	0	1	4	4
61	14.4776	0.1161	0	0	4.06199e-035	0	1	4	4
62	14.5937	0.150929	0	0	4.06199e-035	0	1	4	4
63	14.7447	0.354104	0	0	4.06199e-035	0	1	4	4
64	15.0988	0.27864	0	0	4.06199e-035	0	1	4	4
62	15.5109	0.22059	0	0	4.06199e-035	0	1	4	4
64	15.8766	0.563084	0	0	4.06199e-035	0	1	4	4
65	16.4397	0.13932	0	0	4.06199e-035	0	1	4	4
71	16.939	0.226395	0	0	4.06199e-035	0	1	4	4
69	17.3163	0.499229	0	0	4.06199e-035	0	1	4	4
65	17.8155	0.0580502	0	0	4.06199e-035	0	1	4	4
64	17.9839	0.290249	0	0	4.06199e-035	0	1	4	4
67	18.4947	0.499229	0	0	4.06199e-035	0	1	4	4
65	19.1274	0.179955	0	0	4.06199e-035	0	1	4	4
64	19.4815	0.272835	0	0	4.06199e-035	0	1	4	4
62	19.9808	0.348299	0	0	4.06199e-035	0	1	4	4
70	22.2389	0.133514	0	0	4.06199e-035	0	1	4	4
57	22.6336	0.0812702	0	0	4.06199e-035	0	1	4	4
68	22.7149	0.0986843	0	0	4.06199e-035	0	1	4	4
57	22.8194	0.156734	0	0	4.06199e-035	0	1	4	4
63	23.5566	0.278639	0	0	4.06199e-035	0	1	4	4
63	23.8933	0.232199	0	0	4.06199e-035	0	1	4	4
62	24.1255	0.203175	0	0	4.06199e-035	0	1	4	4
60	24.7351	0.0928802	0	0	4.06199e-035	0	1	4	4
57	24.9208	0.452789	0	0	4.06199e-035	0	1	4	4
58	25.3736	0.150928	0	0	4.06199e-035	0	1	4	4
55	26.552	0.133514	0	0	4.06199e-035	0	1	4	4
57	27.0803	0.0406361	0	0	4.06199e-035	0	1	4	4
57	27.1267	0.0986862	0	0	4.06199e-035	0	1	4	4
57	27.2254	0.145124	0	0	4.06199e-035	0	1	4	4
55	27.6085	0.0986843	0	0	4.06199e-035	0	1	4	4
57	27.7478	0.133514	0	0	4.06199e-035	0	1	4	4
53	27.9626	0.121904	0	0	4.06199e-035	0	1	4	4
56	28.1368	0.0348301	0	0	4.06199e-035	0	1	4	4
57	28.2761	0.0696583	0	0	4.06199e-035	0	1	4	4
61	29.0075	0.0580502	0	0	4.06199e-035	0	1	4	4
60	29.0656	0.0522442	0	0	4.06199e-035	0	1	4	4
