midiPitch 	 onsetSec 	 durationSec 	 onsetBeats 	 onsetBarIndex 	 onsetBar 	 durationBeats 	 velocity  	 numerator 	 denominator 
62	0.133515	0.0580499	0	0	4.77701e-035	0	1	4	4
70	0.313469	0.0348299	0	0	4.77701e-035	0	1	4	4
62	0.348299	0.0348299	0	0	4.77701e-035	0	1	4	4
68	0.383129	0.02322	0	0	4.77701e-035	0	1	4	4
70	0.423764	0.1161	0	0	4.77701e-035	0	1	4	4
68	0.789478	0.029025	0	0	4.77701e-035	0	1	4	4
62	1.36417	0.0986848	0	0	4.77701e-035	0	1	4	4
62	1.48608	0.03483	0	0	4.77701e-035	0	1	4	4
62	1.52091	0.0638548	0	0	4.77701e-035	0	1	4	4
62	1.58476	0.10449	0	0	4.77701e-035	0	1	4	4
62	1.95048	0.0232199	0	0	4.77701e-035	0	1	4	4
62	2.04916	0.0290248	0	0	4.77701e-035	0	1	4	4
62	2.21751	0.0638547	0	0	4.77701e-035	0	1	4	4
62	2.28136	0.0290251	0	0	4.77701e-035	0	1	4	4
58	2.38585	0.0290251	0	0	4.77701e-035	0	1	4	4
58	2.42068	0.0232198	0	0	4.77701e-035	0	1	4	4
62	2.4439	0.075465	0	0	4.77701e-035	0	1	4	4
62	2.72834	0.0580499	0	0	4.77701e-035	0	1	4	4
62	3.04762	0.0638547	0	0	4.77701e-035	0	1	4	4
62	3.11147	0.0290251	0	0	4.77701e-035	0	1	4	4
62	3.18113	0.0696599	0	0	4.77701e-035	0	1	4	4
62	3.27401	0.0580499	0	0	4.77701e-035	0	1	4	4
62	3.69197	0.0754647	0	0	4.77701e-035	0	1	4	4
58	4.05188	0.0348301	0	0	4.77701e-035	0	1	4	4
58	4.08671	0.0232201	0	0	4.77701e-035	0	1	4	4
62	4.12154	0.0406346	0	0	4.77701e-035	0	1	4	4
62	4.44662	0.0290246	0	0	4.77701e-035	0	1	4	4
62	4.55692	0.0348296	0	0	4.77701e-035	0	1	4	4
62	4.7659	0.26703	0	0	4.77701e-035	0	1	4	4
55	5.50893	0.0754652	0	0	4.77701e-035	0	1	4	4
58	5.5844	0.0522447	0	0	4.77701e-035	0	1	4	4
62	5.68889	0.0754652	0	0	4.77701e-035	0	1	4	4
62	5.79918	0.10449	0	0	4.77701e-035	0	1	4	4
62	6.41451	0.0580502	0	0	4.77701e-035	0	1	4	4
62	6.50159	0.10449	0	0	4.77701e-035	0	1	4	4
62	6.62349	0.0754652	0	0	4.77701e-035	0	1	4	4
62	6.84989	0.0754647	0	0	4.77701e-035	0	1	4	4
62	6.95438	0.0812697	0	0	4.77701e-035	0	1	4	4
62	7.06467	0.0638547	0	0	4.77701e-035	0	1	4	4
58	7.27365	0.0464401	0	0	4.77701e-035	0	1	4	4
62	7.99347	0.18576	0	0	4.77701e-035	0	1	4	4
62	8.17923	0.110295	0	0	4.77701e-035	0	1	4	4
62	8.31855	0.0522451	0	0	4.77701e-035	0	1	4	4
60	8.70168	0.0290241	0	0	4.77701e-035	0	1	4	4
62	8.81778	0.20898	0	0	4.77701e-035	0	1	4	4
62	9.02676	0.0986843	0	0	4.77701e-035	0	1	4	4
62	9.12544	0.0580502	0	0	4.77701e-035	0	1	4	4
59	9.35184	0.0522451	0	0	4.77701e-035	0	1	4	4
55	9.72916	0.0638542	0	0	4.77701e-035	0	1	4	4
62	9.79302	0.17415	0	0	4.77701e-035	0	1	4	4
62	10.0252	0.0348301	0	0	4.77701e-035	0	1	4	4
62	10.0659	0.121904	0	0	4.77701e-035	0	1	4	4
62	10.1878	0.0696602	0	0	4.77701e-035	0	1	4	4
62	10.2864	0.0348301	0	0	4.77701e-035	0	1	4	4
62	10.3213	0.0638542	0	0	4.77701e-035	0	1	4	4
62	10.4025	0.168344	0	0	4.77701e-035	0	1	4	4
62	10.5709	0.12771	0	0	4.77701e-035	0	1	4	4
62	10.6986	0.0580502	0	0	4.77701e-035	0	1	4	4
62	10.7566	0.0406342	0	0	4.77701e-035	0	1	4	4
62	10.8263	0.121905	0	0	4.77701e-035	0	1	4	4
62	11.2733	0.0290251	0	0	4.77701e-035	0	1	4	4
62	11.5693	0.0754642	0	0	4.77701e-035	0	1	4	4
62	11.668	0.0638552	0	0	4.77701e-035	0	1	4	4
62	11.9699	0.110294	0	0	4.77701e-035	0	1	4	4
62	12.0802	0.0696602	0	0	4.77701e-035	0	1	4	4
62	12.1498	0.104489	0	0	4.77701e-035	0	1	4	4
62	12.2892	0.0406351	0	0	4.77701e-035	0	1	4	4
62	12.4227	0.0522451	0	0	4.77701e-035	0	1	4	4
62	12.5098	0.0812702	0	0	4.77701e-035	0	1	4	4
62	12.8174	0.0464401	0	0	4.77701e-035	0	1	4	4
60	12.8697	0.0290251	0	0	4.77701e-035	0	1	4	4
62	13.0032	0.191565	0	0	4.77701e-035	0	1	4	4
62	13.247	0.0638552	0	0	4.77701e-035	0	1	4	4
62	13.3399	0.0232201	0	0	4.77701e-035	0	1	4	4
62	13.5372	0.0928802	0	0	4.77701e-035	0	1	4	4
62	13.6301	0.110294	0	0	4.77701e-035	0	1	4	4
54	13.723	0.0522451	0	0	4.77701e-035	0	1	4	4
62	13.7985	0.0464392	0	0	4.77701e-035	0	1	4	4
62	13.99	0.0522442	0	0	4.77701e-035	0	1	4	4
62	14.1061	0.0464401	0	0	4.77701e-035	0	1	4	4
62	14.1932	0.0638542	0	0	4.77701e-035	0	1	4	4
62	14.4951	0.0406351	0	0	4.77701e-035	0	1	4	4
62	14.8085	0.0696592	0	0	4.77701e-035	0	1	4	4
62	14.8782	0.0348301	0	0	4.77701e-035	0	1	4	4
62	14.9595	0.0464401	0	0	4.77701e-035	0	1	4	4
62	15.0465	0.0522442	0	0	4.77701e-035	0	1	4	4
62	15.331	0.0406351	0	0	4.77701e-035	0	1	4	4
62	15.6735	0.0522442	0	0	4.77701e-035	0	1	4	4
62	15.865	0.0696592	0	0	4.77701e-035	0	1	4	4
62	16.0856	0.12771	0	0	4.77701e-035	0	1	4	4
62	16.2133	0.0348301	0	0	4.77701e-035	0	1	4	4
62	16.3759	0.179955	0	0	4.77701e-035	0	1	4	4
62	16.5965	0.0754642	0	0	4.77701e-035	0	1	4	4
62	16.6719	0.10449	0	0	4.77701e-035	0	1	4	4
62	17.0376	0.0522442	0	0	4.77701e-035	0	1	4	4
62	17.0899	0.0986862	0	0	4.77701e-035	0	1	4	4
62	17.5659	0.0406361	0	0	4.77701e-035	0	1	4	4
62	17.8445	0.0638561	0	0	4.77701e-035	0	1	4	4
62	18.3844	0.0754642	0	0	4.77701e-035	0	1	4	4
58	18.9765	0.313469	0	0	4.77701e-035	0	1	4	4
62	19.824	0.18576	0	0	4.77701e-035	0	1	4	4
62	20.0098	0.0232201	0	0	4.77701e-035	0	1	4	4
62	20.0446	0.0754642	0	0	4.77701e-035	0	1	4	4
62	20.1433	0.481813	0	0	4.77701e-035	0	1	4	4
84	27.2776	0.0290241	0	0	4.77701e-035	0	1	4	4
87	27.3183	0.0464401	0	0	4.77701e-035	0	1	4	4
87	27.3763	0.12771	0	0	4.77701e-035	0	1	4	4
84	27.8291	0.121904	0	0	4.77701e-035	0	1	4	4
