midiPitch 	 onsetSec 	 durationSec 	 onsetBeats 	 onsetBarIndex 	 onsetBar 	 durationBeats 	 velocity  	 numerator 	 denominator 
85	0.2322	0.0290249	0	0	3.15911e-035	0	1	4	4
81	0.261224	0.0986848	0	0	3.15911e-035	0	1	4	4
69	0.505034	0.0464399	0	0	3.15911e-035	0	1	4	4
68	0.801088	0.0522449	0	0	3.15911e-035	0	1	4	4
69	1.42803	0.0522449	0	0	3.15911e-035	0	1	4	4
68	1.7473	0.0348299	0	0	3.15911e-035	0	1	4	4
68	1.78794	0.0232199	0	0	3.15911e-035	0	1	4	4
65	1.92145	0.0696598	0	0	3.15911e-035	0	1	4	4
67	1.99111	0.156735	0	0	3.15911e-035	0	1	4	4
66	2.51937	0.0986848	0	0	3.15911e-035	0	1	4	4
61	2.78059	0.0232198	0	0	3.15911e-035	0	1	4	4
68	2.96635	0.0986848	0	0	3.15911e-035	0	1	4	4
68	3.27401	0.10449	0	0	3.15911e-035	0	1	4	4
69	3.56426	0.121905	0	0	3.15911e-035	0	1	4	4
68	3.8371	0.13932	0	0	3.15911e-035	0	1	4	4
68	4.24925	0.0406346	0	0	3.15911e-035	0	1	4	4
67	4.58014	0.12771	0	0	3.15911e-035	0	1	4	4
67	5.05615	0.139319	0	0	3.15911e-035	0	1	4	4
68	5.49152	0.0870752	0	0	3.15911e-035	0	1	4	4
69	5.83982	0.0522451	0	0	3.15911e-035	0	1	4	4
69	6.13007	0.0580502	0	0	3.15911e-035	0	1	4	4
67	6.30422	0.121905	0	0	3.15911e-035	0	1	4	4
68	6.42612	0.110295	0	0	3.15911e-035	0	1	4	4
68	6.75701	0.0406351	0	0	3.15911e-035	0	1	4	4
68	6.80345	0.0638547	0	0	3.15911e-035	0	1	4	4
68	7.12272	0.104489	0	0	3.15911e-035	0	1	4	4
67	7.22721	0.0870752	0	0	3.15911e-035	0	1	4	4
68	7.66258	0.121905	0	0	3.15911e-035	0	1	4	4
68	8.02249	0.116099	0	0	3.15911e-035	0	1	4	4
68	8.35918	0.0638552	0	0	3.15911e-035	0	1	4	4
68	8.93968	0.0290251	0	0	3.15911e-035	0	1	4	4
68	8.97451	0.0580502	0	0	3.15911e-035	0	1	4	4
67	9.26476	0.0638542	0	0	3.15911e-035	0	1	4	4
68	9.4215	0.0754652	0	0	3.15911e-035	0	1	4	4
67	9.56082	0.12771	0	0	3.15911e-035	0	1	4	4
67	9.85107	0.150929	0	0	3.15911e-035	0	1	4	4
67	10.002	0.0232201	0	0	3.15911e-035	0	1	4	4
68	10.0252	0.377324	0	0	3.15911e-035	0	1	4	4
68	10.4258	0.12771	0	0	3.15911e-035	0	1	4	4
68	10.5535	0.232199	0	0	3.15911e-035	0	1	4	4
68	10.9134	0.0522451	0	0	3.15911e-035	0	1	4	4
68	10.9656	0.17415	0	0	3.15911e-035	0	1	4	4
68	11.1398	0.0290251	0	0	3.15911e-035	0	1	4	4
68	11.1746	0.29025	0	0	3.15911e-035	0	1	4	4
68	11.5055	0.104489	0	0	3.15911e-035	0	1	4	4
68	11.6332	0.179955	0	0	3.15911e-035	0	1	4	4
68	11.819	0.452789	0	0	3.15911e-035	0	1	4	4
68	12.2717	1.12036	0	0	3.15911e-035	0	1	4	4
54	13.5024	0.214785	0	0	3.15911e-035	0	1	4	4
78	13.6824	0.226395	0	0	3.15911e-035	0	1	4	4
84	17.7807	0.0754642	0	0	3.15911e-035	0	1	4	4
85	17.8561	0.12771	0	0	3.15911e-035	0	1	4	4
84	17.9839	0.0232201	0	0	3.15911e-035	0	1	4	4
82	18.367	0.0232201	0	0	3.15911e-035	0	1	4	4
85	18.4018	0.0348301	0	0	3.15911e-035	0	1	4	4
84	18.5295	0.0348301	0	0	3.15911e-035	0	1	4	4
79	18.7269	0.0580502	0	0	3.15911e-035	0	1	4	4
86	18.7907	0.104488	0	0	3.15911e-035	0	1	4	4
79	19.1274	0.150928	0	0	3.15911e-035	0	1	4	4
79	19.586	0.0232201	0	0	3.15911e-035	0	1	4	4
86	19.7602	0.0754642	0	0	3.15911e-035	0	1	4	4
79	20.0795	0.110294	0	0	3.15911e-035	0	1	4	4
83	20.271	0.0522442	0	0	3.15911e-035	0	1	4	4
80	20.5845	0.0348301	0	0	3.15911e-035	0	1	4	4
83	20.6542	0.150928	0	0	3.15911e-035	0	1	4	4
83	20.8051	0.0754662	0	0	3.15911e-035	0	1	4	4
79	20.9212	0.0232201	0	0	3.15911e-035	0	1	4	4
79	20.9502	0.0348301	0	0	3.15911e-035	0	1	4	4
79	20.9908	0.307665	0	0	3.15911e-035	0	1	4	4
79	21.3217	0.10449	0	0	3.15911e-035	0	1	4	4
79	21.4262	0.029026	0	0	3.15911e-035	0	1	4	4
77	21.5597	0.0696602	0	0	3.15911e-035	0	1	4	4
77	21.5597	0.238005	0	0	3.15911e-035	0	1	4	4
82	22.2621	0.0348301	0	0	3.15911e-035	0	1	4	4
82	22.3086	0.029026	0	0	3.15911e-035	0	1	4	4
82	22.3492	0.0986862	0	0	3.15911e-035	0	1	4	4
79	22.5524	0.0232201	0	0	3.15911e-035	0	1	4	4
81	22.593	0.0754642	0	0	3.15911e-035	0	1	4	4
82	22.8194	0.145124	0	0	3.15911e-035	0	1	4	4
82	22.9645	0.0464401	0	0	3.15911e-035	0	1	4	4
82	23.011	0.0290241	0	0	3.15911e-035	0	1	4	4
83	23.069	1.01007	0	0	3.15911e-035	0	1	4	4
79	24.1255	0.0696602	0	0	3.15911e-035	0	1	4	4
85	25.3794	0.0348301	0	0	3.15911e-035	0	1	4	4
84	25.4955	0.156734	0	0	3.15911e-035	0	1	4	4
87	26.3256	0.0464401	0	0	3.15911e-035	0	1	4	4
78	26.3721	0.110294	0	0	3.15911e-035	0	1	4	4
78	26.6797	0.0580502	0	0	3.15911e-035	0	1	4	4
79	26.7378	0.0986843	0	0	3.15911e-035	0	1	4	4
79	26.8887	0.0522461	0	0	3.15911e-035	0	1	4	4
79	26.9584	0.156734	0	0	3.15911e-035	0	1	4	4
78	27.1499	0.0406361	0	0	3.15911e-035	0	1	4	4
82	27.237	0.0638542	0	0	3.15911e-035	0	1	4	4
86	27.3995	0.0580502	0	0	3.15911e-035	0	1	4	4
80	27.7653	0.0812702	0	0	3.15911e-035	0	1	4	4
80	28.2645	0.110294	0	0	3.15911e-035	0	1	4	4
80	28.4096	0.307663	0	0	3.15911e-035	0	1	4	4
80	28.7173	0.423765	0	0	3.15911e-035	0	1	4	4
