midiPitch 	 onsetSec 	 durationSec 	 onsetBeats 	 onsetBarIndex 	 onsetBar 	 durationBeats 	 velocity  	 numerator 	 denominator 
63	11.8712	0.261225	0	0	2.26611e-035	0	1	4	4
62	12.1324	0.301859	0	0	2.26611e-035	0	1	4	4
60	12.4343	0.446984	0	0	2.26611e-035	0	1	4	4
63	13.0264	0.238005	0	0	2.26611e-035	0	1	4	4
58	13.5082	0.423764	0	0	2.26611e-035	0	1	4	4
56	14.2338	0.156734	0	0	2.26611e-035	0	1	4	4
57	14.3906	0.0696592	0	0	2.26611e-035	0	1	4	4
62	17.4672	0.812698	0	0	2.26611e-035	0	1	4	4
60	18.3438	0.0812702	0	0	2.26611e-035	0	1	4	4
61	18.425	0.18576	0	0	2.26611e-035	0	1	4	4
63	18.6108	0.197369	0	0	2.26611e-035	0	1	4	4
62	18.8952	0.59211	0	0	2.26611e-035	0	1	4	4
60	19.5222	0.145124	0	0	2.26611e-035	0	1	4	4
63	19.6673	0.168344	0	0	2.26611e-035	0	1	4	4
55	19.8356	0.789478	0	0	2.26611e-035	0	1	4	4
55	20.6251	0.325079	0	0	2.26611e-035	0	1	4	4
53	20.9502	0.981045	0	0	2.26611e-035	0	1	4	4
62	25.6522	2.15946	0	0	2.26611e-035	0	1	4	4
59	28.0671	0.261225	0	0	2.26611e-035	0	1	4	4
59	28.4502	0.301859	0	0	2.26611e-035	0	1	4	4
58	28.8972	0.371519	0	0	2.26611e-035	0	1	4	4
56	29.5706	0.174149	0	0	2.26611e-035	0	1	4	4
58	29.7448	0.10449	0	0	2.26611e-035	0	1	4	4
