midiPitch 	 onsetSec 	 durationSec 	 onsetBeats 	 onsetBarIndex 	 onsetBar 	 durationBeats 	 velocity  	 numerator 	 denominator 
82	0.626939	0.0522449	0	0	2.13436e-035	0	1	4	4
86	0.859138	0.0406349	0	0	2.13436e-035	0	1	4	4
77	1.03329	0.0464399	0	0	2.13436e-035	0	1	4	4
77	1.07973	0.0232199	0	0	2.13436e-035	0	1	4	4
77	1.13778	0.0290248	0	0	2.13436e-035	0	1	4	4
75	1.25968	0.0232199	0	0	2.13436e-035	0	1	4	4
88	2.18268	0.0580499	0	0	2.13436e-035	0	1	4	4
69	2.21751	0.203175	0	0	2.13436e-035	0	1	4	4
70	2.46712	0.22059	0	0	2.13436e-035	0	1	4	4
71	2.75156	0.0928798	0	0	2.13436e-035	0	1	4	4
71	2.84444	0.133515	0	0	2.13436e-035	0	1	4	4
67	3.01859	0.26703	0	0	2.13436e-035	0	1	4	4
68	3.52363	0.214785	0	0	2.13436e-035	0	1	4	4
69	3.73841	0.156735	0	0	2.13436e-035	0	1	4	4
68	4.04027	0.220589	0	0	2.13436e-035	0	1	4	4
65	4.27828	0.20898	0	0	2.13436e-035	0	1	4	4
69	4.48726	0.25542	0	0	2.13436e-035	0	1	4	4
70	4.74268	0.261224	0	0	2.13436e-035	0	1	4	4
69	5.28834	0.17415	0	0	2.13436e-035	0	1	4	4
67	5.46249	0.156734	0	0	2.13436e-035	0	1	4	4
67	8.53333	0.0348301	0	0	2.13436e-035	0	1	4	4
68	8.56816	0.10449	0	0	2.13436e-035	0	1	4	4
71	8.67265	0.290249	0	0	2.13436e-035	0	1	4	4
71	8.9629	0.18576	0	0	2.13436e-035	0	1	4	4
68	9.34023	0.16254	0	0	2.13436e-035	0	1	4	4
68	9.50277	0.0232201	0	0	2.13436e-035	0	1	4	4
67	9.52599	0.0406342	0	0	2.13436e-035	0	1	4	4
66	9.56662	0.0232201	0	0	2.13436e-035	0	1	4	4
68	9.82204	0.26703	0	0	2.13436e-035	0	1	4	4
68	10.3329	0.278639	0	0	2.13436e-035	0	1	4	4
68	11.1862	0.156735	0	0	2.13436e-035	0	1	4	4
67	11.3429	0.0580492	0	0	2.13436e-035	0	1	4	4
68	14.8143	0.127709	0	0	2.13436e-035	0	1	4	4
66	14.942	0.145124	0	0	2.13436e-035	0	1	4	4
71	15.0872	0.284445	0	0	2.13436e-035	0	1	4	4
70	15.3716	0.30186	0	0	2.13436e-035	0	1	4	4
72	16.6603	0.1161	0	0	2.13436e-035	0	1	4	4
67	16.9912	0.417959	0	0	2.13436e-035	0	1	4	4
70	17.9316	0.0928802	0	0	2.13436e-035	0	1	4	4
82	17.949	0.110294	0	0	2.13436e-035	0	1	4	4
81	18.2741	0.0348301	0	0	2.13436e-035	0	1	4	4
80	18.3902	0.121904	0	0	2.13436e-035	0	1	4	4
80	18.5121	0.1161	0	0	2.13436e-035	0	1	4	4
72	22.5524	0.0348301	0	0	2.13436e-035	0	1	4	4
73	22.593	0.13932	0	0	2.13436e-035	0	1	4	4
75	22.7323	0.139318	0	0	2.13436e-035	0	1	4	4
75	22.8717	0.0348301	0	0	2.13436e-035	0	1	4	4
82	23.0516	0.203175	0	0	2.13436e-035	0	1	4	4
69	23.9978	0.168346	0	0	2.13436e-035	0	1	4	4
82	24.3171	0.0638561	0	0	2.13436e-035	0	1	4	4
81	24.381	0.116098	0	0	2.13436e-035	0	1	4	4
81	24.4971	0.400545	0	0	2.13436e-035	0	1	4	4
81	24.8976	0.238005	0	0	2.13436e-035	0	1	4	4
81	25.1356	0.307663	0	0	2.13436e-035	0	1	4	4
81	25.4433	0.1161	0	0	2.13436e-035	0	1	4	4
73	28.5025	0.0812702	0	0	2.13436e-035	0	1	4	4
73	28.5838	0.110296	0	0	2.13436e-035	0	1	4	4
73	28.6941	0.127708	0	0	2.13436e-035	0	1	4	4
73	28.8218	0.0986843	0	0	2.13436e-035	0	1	4	4
84	28.9205	0.476009	0	0	2.13436e-035	0	1	4	4
