midiPitch 	 onsetSec 	 durationSec 	 onsetBeats 	 onsetBarIndex 	 onsetBar 	 durationBeats 	 velocity  	 numerator 	 denominator 
54	0.13932	0.0290249	0	0	4.55139e-035	0	1	4	4
54	0.18576	0.0406349	0	0	4.55139e-035	0	1	4	4
54	0.261224	0.10449	0	0	4.55139e-035	0	1	4	4
54	0.365714	0.0928798	0	0	4.55139e-035	0	1	4	4
54	0.522449	0.029025	0	0	4.55139e-035	0	1	4	4
54	0.557279	0.0580499	0	0	4.55139e-035	0	1	4	4
54	0.632744	0.110295	0	0	4.55139e-035	0	1	4	4
56	1.05651	0.17415	0	0	4.55139e-035	0	1	4	4
56	1.30612	0.168345	0	0	4.55139e-035	0	1	4	4
57	1.48608	0.0580499	0	0	4.55139e-035	0	1	4	4
56	1.6254	0.0580498	0	0	4.55139e-035	0	1	4	4
55	1.75891	0.156735	0	0	4.55139e-035	0	1	4	4
54	2.01433	0.0870748	0	0	4.55139e-035	0	1	4	4
54	2.11302	0.0522449	0	0	4.55139e-035	0	1	4	4
55	2.20009	0.0580499	0	0	4.55139e-035	0	1	4	4
56	2.54258	0.0348301	0	0	4.55139e-035	0	1	4	4
56	2.58322	0.0638547	0	0	4.55139e-035	0	1	4	4
56	2.64707	0.0232201	0	0	4.55139e-035	0	1	4	4
56	2.6761	0.0290248	0	0	4.55139e-035	0	1	4	4
56	2.75737	0.0986848	0	0	4.55139e-035	0	1	4	4
58	2.96054	0.156735	0	0	4.55139e-035	0	1	4	4
57	3.30304	0.133515	0	0	4.55139e-035	0	1	4	4
56	3.43655	0.0290248	0	0	4.55139e-035	0	1	4	4
56	3.47138	0.0290251	0	0	4.55139e-035	0	1	4	4
55	3.66875	0.17415	0	0	4.55139e-035	0	1	4	4
55	3.91837	0.0812697	0	0	4.55139e-035	0	1	4	4
55	4.08671	0.121905	0	0	4.55139e-035	0	1	4	4
53	4.20862	0.0348301	0	0	4.55139e-035	0	1	4	4
53	4.26086	0.15093	0	0	4.55139e-035	0	1	4	4
54	4.51628	0.22059	0	0	4.55139e-035	0	1	4	4
56	4.93424	0.0290251	0	0	4.55139e-035	0	1	4	4
57	5.06776	0.0986848	0	0	4.55139e-035	0	1	4	4
56	5.27673	0.121904	0	0	4.55139e-035	0	1	4	4
55	5.60762	0.0754652	0	0	4.55139e-035	0	1	4	4
54	5.81079	0.0464401	0	0	4.55139e-035	0	1	4	4
54	6.03138	0.0986848	0	0	4.55139e-035	0	1	4	4
54	6.13007	0.10449	0	0	4.55139e-035	0	1	4	4
56	6.83828	0.12771	0	0	4.55139e-035	0	1	4	4
54	6.96599	0.0348301	0	0	4.55139e-035	0	1	4	4
56	7.02984	0.18576	0	0	4.55139e-035	0	1	4	4
56	7.25624	0.17415	0	0	4.55139e-035	0	1	4	4
56	7.51746	0.168344	0	0	4.55139e-035	0	1	4	4
56	7.74966	0.16254	0	0	4.55139e-035	0	1	4	4
55	7.96444	0.249615	0	0	4.55139e-035	0	1	4	4
55	8.55655	0.0580502	0	0	4.55139e-035	0	1	4	4
54	8.68426	0.0812693	0	0	4.55139e-035	0	1	4	4
56	9.06159	0.267029	0	0	4.55139e-035	0	1	4	4
56	9.34023	0.133515	0	0	4.55139e-035	0	1	4	4
57	9.50857	0.0406342	0	0	4.55139e-035	0	1	4	4
54	9.64789	0.0290251	0	0	4.55139e-035	0	1	4	4
52	9.80463	0.0870752	0	0	4.55139e-035	0	1	4	4
54	10.0136	0.20898	0	0	4.55139e-035	0	1	4	4
54	10.2226	0.0290251	0	0	4.55139e-035	0	1	4	4
54	10.5012	0.0348301	0	0	4.55139e-035	0	1	4	4
52	10.5419	0.0638542	0	0	4.55139e-035	0	1	4	4
52	11.0237	0.156734	0	0	4.55139e-035	0	1	4	4
56	11.2559	0.0348301	0	0	4.55139e-035	0	1	4	4
55	11.2965	0.0232201	0	0	4.55139e-035	0	1	4	4
54	11.3255	0.116099	0	0	4.55139e-035	0	1	4	4
54	11.4416	0.284445	0	0	4.55139e-035	0	1	4	4
53	12.6839	0.0580502	0	0	4.55139e-035	0	1	4	4
53	12.8058	0.0580492	0	0	4.55139e-035	0	1	4	4
54	12.9393	0.0406351	0	0	4.55139e-035	0	1	4	4
53	13.0786	0.12771	0	0	4.55139e-035	0	1	4	4
53	13.2122	0.19737	0	0	4.55139e-035	0	1	4	4
54	13.781	0.0232201	0	0	4.55139e-035	0	1	4	4
54	13.8275	0.0232191	0	0	4.55139e-035	0	1	4	4
53	13.8913	0.0464401	0	0	4.55139e-035	0	1	4	4
52	14.3441	0.0812702	0	0	4.55139e-035	0	1	4	4
53	14.4312	0.0232191	0	0	4.55139e-035	0	1	4	4
53	14.4602	0.0406351	0	0	4.55139e-035	0	1	4	4
53	14.6286	0.17415	0	0	4.55139e-035	0	1	4	4
53	14.8027	0.0290251	0	0	4.55139e-035	0	1	4	4
54	14.8956	0.0348301	0	0	4.55139e-035	0	1	4	4
56	15.0349	0.127709	0	0	4.55139e-035	0	1	4	4
59	15.5225	0.0290251	0	0	4.55139e-035	0	1	4	4
61	15.7838	0.0870752	0	0	4.55139e-035	0	1	4	4
61	15.8708	0.0232191	0	0	4.55139e-035	0	1	4	4
59	16.045	0.0232201	0	0	4.55139e-035	0	1	4	4
66	16.1146	0.116098	0	0	4.55139e-035	0	1	4	4
61	16.3585	0.145124	0	0	4.55139e-035	0	1	4	4
54	16.6893	0.0348301	0	0	4.55139e-035	0	1	4	4
54	16.8403	0.12771	0	0	4.55139e-035	0	1	4	4
49	16.968	0.0580502	0	0	4.55139e-035	0	1	4	4
53	17.0841	0.133514	0	0	4.55139e-035	0	1	4	4
54	17.3279	0.145124	0	0	4.55139e-035	0	1	4	4
56	17.5717	0.0870743	0	0	4.55139e-035	0	1	4	4
54	17.6762	0.10449	0	0	4.55139e-035	0	1	4	4
55	17.8213	0.0290241	0	0	4.55139e-035	0	1	4	4
54	17.8678	0.10449	0	0	4.55139e-035	0	1	4	4
61	18.3728	0.0870743	0	0	4.55139e-035	0	1	4	4
60	18.5702	0.0232201	0	0	4.55139e-035	0	1	4	4
60	18.6572	0.0986862	0	0	4.55139e-035	0	1	4	4
56	18.8198	0.0406342	0	0	4.55139e-035	0	1	4	4
57	18.8778	0.0696602	0	0	4.55139e-035	0	1	4	4
61	19.0462	0.12771	0	0	4.55139e-035	0	1	4	4
54	19.2726	0.0232201	0	0	4.55139e-035	0	1	4	4
52	19.3016	0.0754662	0	0	4.55139e-035	0	1	4	4
54	19.5164	0.156736	0	0	4.55139e-035	0	1	4	4
61	20.1607	0.0406361	0	0	4.55139e-035	0	1	4	4
56	20.2652	0.0348301	0	0	4.55139e-035	0	1	4	4
54	20.3523	0.0464401	0	0	4.55139e-035	0	1	4	4
54	20.3987	0.0406361	0	0	4.55139e-035	0	1	4	4
53	20.8631	0.1161	0	0	4.55139e-035	0	1	4	4
54	20.9792	0.0232201	0	0	4.55139e-035	0	1	4	4
53	21.0257	0.179955	0	0	4.55139e-035	0	1	4	4
53	21.2056	0.10449	0	0	4.55139e-035	0	1	4	4
53	21.3101	0.162539	0	0	4.55139e-035	0	1	4	4
55	21.5133	0.0580482	0	0	4.55139e-035	0	1	4	4
54	21.5713	0.029026	0	0	4.55139e-035	0	1	4	4
51	21.9429	0.029026	0	0	4.55139e-035	0	1	4	4
53	22.4073	0.110296	0	0	4.55139e-035	0	1	4	4
53	22.622	0.0232201	0	0	4.55139e-035	0	1	4	4
53	22.6511	0.139318	0	0	4.55139e-035	0	1	4	4
54	22.8078	0.0870743	0	0	4.55139e-035	0	1	4	4
54	22.8949	0.1161	0	0	4.55139e-035	0	1	4	4
57	23.011	0.0812702	0	0	4.55139e-035	0	1	4	4
51	23.3593	0.0406342	0	0	4.55139e-035	0	1	4	4
61	23.545	0.0522442	0	0	4.55139e-035	0	1	4	4
64	23.5973	0.110294	0	0	4.55139e-035	0	1	4	4
64	23.8121	0.0232201	0	0	4.55139e-035	0	1	4	4
63	23.8353	0.0290241	0	0	4.55139e-035	0	1	4	4
63	23.8701	0.0928802	0	0	4.55139e-035	0	1	4	4
61	24.021	0.0870762	0	0	4.55139e-035	0	1	4	4
64	24.1081	0.127708	0	0	4.55139e-035	0	1	4	4
63	24.2649	0.0812702	0	0	4.55139e-035	0	1	4	4
62	24.3461	0.139318	0	0	4.55139e-035	0	1	4	4
62	24.5609	0.0464382	0	0	4.55139e-035	0	1	4	4
59	24.6248	0.0522442	0	0	4.55139e-035	0	1	4	4
63	25.0543	0.0464401	0	0	4.55139e-035	0	1	4	4
63	25.1008	0.0406342	0	0	4.55139e-035	0	1	4	4
53	25.6	0.0348282	0	0	4.55139e-035	0	1	4	4
52	25.6406	0.0348301	0	0	4.55139e-035	0	1	4	4
58	26.0005	0.029026	0	0	4.55139e-035	0	1	4	4
58	26.4533	0.0580502	0	0	4.55139e-035	0	1	4	4
62	26.5114	0.0870743	0	0	4.55139e-035	0	1	4	4
61	26.5985	0.0928802	0	0	4.55139e-035	0	1	4	4
62	27.0454	0.162539	0	0	4.55139e-035	0	1	4	4
