midiPitch 	 onsetSec 	 durationSec 	 onsetBeats 	 onsetBarIndex 	 onsetBar 	 durationBeats 	 velocity  	 numerator 	 denominator 
48	0.992653	0.10449	0	0	2.70791e-035	0	1	4	4
53	1.24227	0.191565	0	0	2.70791e-035	0	1	4	4
48	4.4176	0.0290251	0	0	2.70791e-035	0	1	4	4
50	4.45243	0.0348296	0	0	2.70791e-035	0	1	4	4
51	4.51628	0.179955	0	0	2.70791e-035	0	1	4	4
52	4.69624	0.238005	0	0	2.70791e-035	0	1	4	4
55	5.05615	0.412154	0	0	2.70791e-035	0	1	4	4
53	5.89206	0.278639	0	0	2.70791e-035	0	1	4	4
55	8.841	0.18576	0	0	2.70791e-035	0	1	4	4
53	9.3054	0.22059	0	0	2.70791e-035	0	1	4	4
51	9.88009	0.20898	0	0	2.70791e-035	0	1	4	4
49	12.533	0.0638552	0	0	2.70791e-035	0	1	4	4
49	12.7826	0.0870743	0	0	2.70791e-035	0	1	4	4
50	13.0961	0.284445	0	0	2.70791e-035	0	1	4	4
45	14.0481	0.10449	0	0	2.70791e-035	0	1	4	4
49	14.2512	0.197371	0	0	2.70791e-035	0	1	4	4
53	16.4455	0.10449	0	0	2.70791e-035	0	1	4	4
51	16.55	0.18576	0	0	2.70791e-035	0	1	4	4
49	16.7358	0.307663	0	0	2.70791e-035	0	1	4	4
53	20.1898	0.191565	0	0	2.70791e-035	0	1	4	4
55	20.4394	0.487617	0	0	2.70791e-035	0	1	4	4
55	21.1069	0.116098	0	0	2.70791e-035	0	1	4	4
55	21.223	0.458595	0	0	2.70791e-035	0	1	4	4
51	24.6422	0.0870762	0	0	2.70791e-035	0	1	4	4
51	24.7293	0.0290241	0	0	2.70791e-035	0	1	4	4
53	24.7815	0.121904	0	0	2.70791e-035	0	1	4	4
55	24.9034	0.342495	0	0	2.70791e-035	0	1	4	4
55	25.4549	0.313471	0	0	2.70791e-035	0	1	4	4
54	28.1368	0.12771	0	0	2.70791e-035	0	1	4	4
54	28.5431	0.162539	0	0	2.70791e-035	0	1	4	4
55	28.7057	0.0406361	0	0	2.70791e-035	0	1	4	4
56	28.7463	0.0696602	0	0	2.70791e-035	0	1	4	4
55	28.816	0.0638542	0	0	2.70791e-035	0	1	4	4
55	29.054	0.238005	0	0	2.70791e-035	0	1	4	4
