midiPitch 	 onsetSec 	 durationSec 	 onsetBeats 	 onsetBarIndex 	 onsetBar 	 durationBeats 	 velocity  	 numerator 	 denominator 
46	1.0507	0.226395	0	0	0	0	1	4	4
50	1.33515	0.0232199	0	0	0	0	1	4	4
49	1.36417	0.307664	0	0	0	0	1	4	4
51	1.67764	0.284444	0	0	0	0	1	4	4
54	1.96209	0.325079	0	0	0	0	1	4	4
52	2.34522	0.16254	0	0	0	0	1	4	4
53	2.50776	0.13932	0	0	0	0	1	4	4
52	2.64707	0.24381	0	0	0	0	1	4	4
51	2.97215	0.371519	0	0	0	0	1	4	4
50	5.27673	0.539864	0	0	0	0	1	4	4
52	5.92109	0.290249	0	0	0	0	1	4	4
55	6.26358	0.568889	0	0	0	0	1	4	4
54	6.83247	0.435374	0	0	0	0	1	4	4
51	7.27946	0.261224	0	0	0	0	1	4	4
54	7.54068	0.27864	0	0	0	0	1	4	4
52	7.87156	0.22059	0	0	0	0	1	4	4
54	8.09215	0.214784	0	0	0	0	1	4	4
47	8.87002	0.284444	0	0	0	0	1	4	4
47	9.15447	0.0986853	0	0	0	0	1	4	4
49	9.26476	0.25542	0	0	0	0	1	4	4
52	9.52599	0.214784	0	0	0	0	1	4	4
54	9.80463	0.261225	0	0	0	0	1	4	4
51	10.2168	0.27864	0	0	0	0	1	4	4
55	10.4954	0.0812693	0	0	0	0	1	4	4
52	10.5825	0.26703	0	0	0	0	1	4	4
54	10.8495	0.319275	0	0	0	0	1	4	4
51	11.1688	0.19737	0	0	0	0	1	4	4
50	13.1889	0.499228	0	0	0	0	1	4	4
52	13.8159	0.214785	0	0	0	0	1	4	4
55	14.1932	0.777868	0	0	0	0	1	4	4
55	15.1452	0.336689	0	0	0	0	1	4	4
55	15.7315	0.400544	0	0	0	0	1	4	4
53	16.1495	0.226395	0	0	0	0	1	4	4
52	16.4862	0.238005	0	0	0	0	1	4	4
48	16.9041	0.150928	0	0	0	0	1	4	4
48	17.0551	0.0348301	0	0	0	0	1	4	4
50	17.0899	0.336689	0	0	0	0	1	4	4
52	17.4266	0.18576	0	0	0	0	1	4	4
54	17.6123	0.388935	0	0	0	0	1	4	4
52	18.1232	0.0696602	0	0	0	0	1	4	4
54	18.1928	0.267029	0	0	0	0	1	4	4
52	18.4773	0.296055	0	0	0	0	1	4	4
52	18.7733	0.313469	0	0	0	0	1	4	4
54	22.0299	0.394739	0	0	0	0	1	4	4
55	22.4247	0.179955	0	0	0	0	1	4	4
52	22.6336	0.330885	0	0	0	0	1	4	4
54	23.04	0.481815	0	0	0	0	1	4	4
54	23.6902	0.325079	0	0	0	0	1	4	4
51	24.0501	0.301859	0	0	0	0	1	4	4
52	24.3577	0.336689	0	0	0	0	1	4	4
47	24.7176	0.290249	0	0	0	0	1	4	4
49	25.0543	0.220589	0	0	0	0	1	4	4
52	25.2749	0.330885	0	0	0	0	1	4	4
54	25.6348	0.336691	0	0	0	0	1	4	4
52	26.0063	0.0812683	0	0	0	0	1	4	4
53	26.0876	0.15093	0	0	0	0	1	4	4
51	26.3546	0.278639	0	0	0	0	1	4	4
54	26.6333	0.388935	0	0	0	0	1	4	4
49	27.0222	0.191565	0	0	0	0	1	4	4
47	28.5954	0.232201	0	0	0	0	1	4	4
49	28.9437	0.563086	0	0	0	0	1	4	4
51	29.5706	0.377323	0	0	0	0	1	4	4
54	29.9479	0.0812702	0	0	0	0	1	4	4
