midiPitch 	 onsetSec 	 durationSec 	 onsetBeats 	 onsetBarIndex 	 onsetBar 	 durationBeats 	 velocity  	 numerator 	 denominator 
84	16.283	0.0290241	0	0	0	0	1	4	4
84	16.3294	0.0348301	0	0	0	0	1	4	4
84	16.3875	0.0348282	0	0	0	0	1	4	4
84	16.5326	0.0696602	0	0	0	0	1	4	4
84	16.6023	0.0522442	0	0	0	0	1	4	4
84	16.6719	0.0812702	0	0	0	0	1	4	4
86	16.9738	0.174149	0	0	0	0	1	4	4
86	17.1479	0.168344	0	0	0	0	1	4	4
86	17.3163	0.12771	0	0	0	0	1	4	4
86	17.444	0.17415	0	0	0	0	1	4	4
86	17.6181	0.0638542	0	0	0	0	1	4	4
86	17.682	0.243809	0	0	0	0	1	4	4
86	17.9258	0.121904	0	0	0	0	1	4	4
86	18.0477	0.0464401	0	0	0	0	1	4	4
86	18.0941	0.249615	0	0	0	0	1	4	4
86	18.3438	0.0638561	0	0	0	0	1	4	4
86	18.4076	0.0754642	0	0	0	0	1	4	4
86	25.4723	0.12771	0	0	0	0	1	4	4
86	25.6	0.0522442	0	0	0	0	1	4	4
86	25.6522	0.0638542	0	0	0	0	1	4	4
86	25.7161	0.0696602	0	0	0	0	1	4	4
86	25.7858	0.16254	0	0	0	0	1	4	4
86	25.9483	0.0464401	0	0	0	0	1	4	4
86	25.9947	0.0986843	0	0	0	0	1	4	4
86	26.0934	0.0928802	0	0	0	0	1	4	4
86	26.1863	0.0812683	0	0	0	0	1	4	4
