midiPitch 	 onsetSec 	 durationSec 	 onsetBeats 	 onsetBarIndex 	 onsetBar 	 durationBeats 	 velocity  	 numerator 	 denominator 
58	2.28136	0.0696599	0	0	2.36946e-035	0	1	4	4
60	2.51356	0.156735	0	0	2.36946e-035	0	1	4	4
57	2.67029	0.232199	0	0	2.36946e-035	0	1	4	4
57	2.90249	0.087075	0	0	2.36946e-035	0	1	4	4
57	3.00698	0.18576	0	0	2.36946e-035	0	1	4	4
56	6.19973	0.145124	0	0	2.36946e-035	0	1	4	4
60	6.44934	0.145125	0	0	2.36946e-035	0	1	4	4
57	6.59447	0.441179	0	0	2.36946e-035	0	1	4	4
57	7.03565	0.0580502	0	0	2.36946e-035	0	1	4	4
58	10.1936	0.10449	0	0	2.36946e-035	0	1	4	4
60	10.4374	0.0928802	0	0	2.36946e-035	0	1	4	4
57	10.5302	0.377324	0	0	2.36946e-035	0	1	4	4
57	10.9134	0.24381	0	0	2.36946e-035	0	1	4	4
59	11.8596	0.0638552	0	0	2.36946e-035	0	1	4	4
62	22.5408	0.0348282	0	0	2.36946e-035	0	1	4	4
60	22.8078	0.121904	0	0	2.36946e-035	0	1	4	4
59	23.1967	0.16254	0	0	2.36946e-035	0	1	4	4
59	23.3593	0.156734	0	0	2.36946e-035	0	1	4	4
61	23.8121	0.0406342	0	0	2.36946e-035	0	1	4	4
60	23.8585	0.0232201	0	0	2.36946e-035	0	1	4	4
59	23.8875	0.179955	0	0	2.36946e-035	0	1	4	4
60	24.3635	0.0696602	0	0	2.36946e-035	0	1	4	4
59	24.4332	0.226395	0	0	2.36946e-035	0	1	4	4
59	24.6596	0.0638542	0	0	2.36946e-035	0	1	4	4
62	24.9498	0.0464401	0	0	2.36946e-035	0	1	4	4
61	25.2053	0.702402	0	0	2.36946e-035	0	1	4	4
60	26.9526	0.104488	0	0	2.36946e-035	0	1	4	4
59	27.2254	0.0928783	0	0	2.36946e-035	0	1	4	4
59	27.5389	0.388933	0	0	2.36946e-035	0	1	4	4
58	28.0787	0.0696602	0	0	2.36946e-035	0	1	4	4
58	28.1484	0.249615	0	0	2.36946e-035	0	1	4	4
60	28.8102	0.0580502	0	0	2.36946e-035	0	1	4	4
59	28.8682	0.12771	0	0	2.36946e-035	0	1	4	4
59	28.9959	0.243809	0	0	2.36946e-035	0	1	4	4
62	29.3268	0.0754662	0	0	2.36946e-035	0	1	4	4
62	29.4023	0.214785	0	0	2.36946e-035	0	1	4	4
59	29.6171	0.313469	0	0	2.36946e-035	0	1	4	4
