midiPitch 	 onsetSec 	 durationSec 	 onsetBeats 	 onsetBarIndex 	 onsetBar 	 durationBeats 	 velocity  	 numerator 	 denominator 
66	2.25814	0.0986848	0	0	2.37894e-035	0	1	4	4
67	2.35683	0.18576	0	0	2.37894e-035	0	1	4	4
68	2.54258	0.255419	0	0	2.37894e-035	0	1	4	4
67	2.798	0.452789	0	0	2.37894e-035	0	1	4	4
62	3.38431	0.19737	0	0	2.37894e-035	0	1	4	4
50	6.84408	0.0522451	0	0	2.37894e-035	0	1	4	4
51	7.18658	0.226395	0	0	2.37894e-035	0	1	4	4
49	7.87737	0.168345	0	0	2.37894e-035	0	1	4	4
50	8.41723	0.0754652	0	0	2.37894e-035	0	1	4	4
48	8.91066	0.179955	0	0	2.37894e-035	0	1	4	4
49	9.26476	0.121904	0	0	2.37894e-035	0	1	4	4
51	10.0078	0.156734	0	0	2.37894e-035	0	1	4	4
48	10.1645	0.0928802	0	0	2.37894e-035	0	1	4	4
50	10.4258	0.191565	0	0	2.37894e-035	0	1	4	4
51	10.896	0.0986843	0	0	2.37894e-035	0	1	4	4
48	11.2443	0.0696602	0	0	2.37894e-035	0	1	4	4
50	11.4532	0.0580502	0	0	2.37894e-035	0	1	4	4
73	11.9409	0.0348301	0	0	2.37894e-035	0	1	4	4
77	12.6723	0.0754652	0	0	2.37894e-035	0	1	4	4
70	12.8929	0.121905	0	0	2.37894e-035	0	1	4	4
69	13.2296	0.0754652	0	0	2.37894e-035	0	1	4	4
76	13.3573	0.0638552	0	0	2.37894e-035	0	1	4	4
70	13.6069	0.0406342	0	0	2.37894e-035	0	1	4	4
70	13.6069	0.17415	0	0	2.37894e-035	0	1	4	4
74	14.2571	0.1161	0	0	2.37894e-035	0	1	4	4
50	14.7505	0.162539	0	0	2.37894e-035	0	1	4	4
49	15.3484	0.0464401	0	0	2.37894e-035	0	1	4	4
50	15.7025	0.261225	0	0	2.37894e-035	0	1	4	4
49	15.9637	0.17415	0	0	2.37894e-035	0	1	4	4
49	16.1379	0.104488	0	0	2.37894e-035	0	1	4	4
50	16.3585	0.145124	0	0	2.37894e-035	0	1	4	4
49	16.7242	0.220589	0	0	2.37894e-035	0	1	4	4
51	17.0667	0.0986862	0	0	2.37894e-035	0	1	4	4
52	17.5949	0.0754642	0	0	2.37894e-035	0	1	4	4
60	17.7981	0.359909	0	0	2.37894e-035	0	1	4	4
61	18.158	0.110294	0	0	2.37894e-035	0	1	4	4
63	18.2857	0.0754662	0	0	2.37894e-035	0	1	4	4
65	18.4366	0.145124	0	0	2.37894e-035	0	1	4	4
51	18.6456	0.116098	0	0	2.37894e-035	0	1	4	4
52	18.8662	0.0464401	0	0	2.37894e-035	0	1	4	4
52	19.1855	0.104488	0	0	2.37894e-035	0	1	4	4
49	19.6093	0.208981	0	0	2.37894e-035	0	1	4	4
69	20.4742	0.168344	0	0	2.37894e-035	0	1	4	4
70	20.7586	0.0986862	0	0	2.37894e-035	0	1	4	4
75	20.9966	0.0580502	0	0	2.37894e-035	0	1	4	4
70	21.3449	0.0754662	0	0	2.37894e-035	0	1	4	4
70	21.5771	0.0580502	0	0	2.37894e-035	0	1	4	4
74	21.6642	0.0928802	0	0	2.37894e-035	0	1	4	4
78	21.85	0.0696602	0	0	2.37894e-035	0	1	4	4
74	22.0706	0.029026	0	0	2.37894e-035	0	1	4	4
69	22.2331	0.0290241	0	0	2.37894e-035	0	1	4	4
50	22.2912	0.197369	0	0	2.37894e-035	0	1	4	4
50	22.4885	0.156734	0	0	2.37894e-035	0	1	4	4
51	23.2432	0.0696602	0	0	2.37894e-035	0	1	4	4
50	23.3128	0.0232201	0	0	2.37894e-035	0	1	4	4
70	23.2374	0.156734	0	0	2.37894e-035	0	1	4	4
66	23.4115	0.121906	0	0	2.37894e-035	0	1	4	4
67	23.5334	0.0870743	0	0	2.37894e-035	0	1	4	4
67	23.6205	0.406349	0	0	2.37894e-035	0	1	4	4
64	24.201	0.0406361	0	0	2.37894e-035	0	1	4	4
63	24.2474	0.0754662	0	0	2.37894e-035	0	1	4	4
64	24.3229	0.0348301	0	0	2.37894e-035	0	1	4	4
66	24.3751	0.145124	0	0	2.37894e-035	0	1	4	4
69	24.5203	0.0348301	0	0	2.37894e-035	0	1	4	4
68	24.5957	0.0348282	0	0	2.37894e-035	0	1	4	4
68	24.6364	0.0290241	0	0	2.37894e-035	0	1	4	4
68	24.6828	0.0696602	0	0	2.37894e-035	0	1	4	4
68	24.7525	0.272833	0	0	2.37894e-035	0	1	4	4
68	25.0253	0.0522461	0	0	2.37894e-035	0	1	4	4
69	25.0892	0.0754642	0	0	2.37894e-035	0	1	4	4
69	25.1646	0.10449	0	0	2.37894e-035	0	1	4	4
69	25.2807	0.10449	0	0	2.37894e-035	0	1	4	4
67	25.3852	0.0580482	0	0	2.37894e-035	0	1	4	4
63	25.5826	0.0464401	0	0	2.37894e-035	0	1	4	4
69	25.7625	0.17415	0	0	2.37894e-035	0	1	4	4
70	26.0992	0.0754662	0	0	2.37894e-035	0	1	4	4
62	26.1573	0.0638561	0	0	2.37894e-035	0	1	4	4
69	26.7204	0.0638561	0	0	2.37894e-035	0	1	4	4
69	27.0977	0.0580502	0	0	2.37894e-035	0	1	4	4
