midiPitch 	 onsetSec 	 durationSec 	 onsetBeats 	 onsetBarIndex 	 onsetBar 	 durationBeats 	 velocity  	 numerator 	 denominator 
68	0.417959	0.0232199	0	0	0	0	1	4	4
68	0.452789	0.0348299	0	0	0	0	1	4	4
69	0.510839	0.0638549	0	0	0	0	1	4	4
69	0.621134	0.0232199	0	0	0	0	1	4	4
69	0.667574	0.0464399	0	0	0	0	1	4	4
67	0.731429	0.029025	0	0	0	0	1	4	4
67	0.806893	0.0928798	0	0	0	0	1	4	4
67	0.928798	0.0870748	0	0	0	0	1	4	4
62	1.31773	0.0522449	0	0	0	0	1	4	4
60	1.72408	0.0754648	0	0	0	0	1	4	4
62	1.95048	0.0464399	0	0	0	0	1	4	4
62	2.00853	0.0870748	0	0	0	0	1	4	4
60	2.25814	0.168345	0	0	0	0	1	4	4
62	2.48454	0.1161	0	0	0	0	1	4	4
62	3.00698	0.0290251	0	0	0	0	1	4	4
57	3.16372	0.0232201	0	0	0	0	1	4	4
65	3.51202	0.0290251	0	0	0	0	1	4	4
64	3.55265	0.0232198	0	0	0	0	1	4	4
67	3.88354	0.0986848	0	0	0	0	1	4	4
65	4.00544	0.24381	0	0	0	0	1	4	4
62	4.22603	0.133514	0	0	0	0	1	4	4
62	4.35955	0.0348301	0	0	0	0	1	4	4
61	4.82395	0.0406351	0	0	0	0	1	4	4
61	5.16063	0.0232196	0	0	0	0	1	4	4
62	5.18966	0.0348301	0	0	0	0	1	4	4
62	5.22449	0.1161	0	0	0	0	1	4	4
62	5.34059	0.0406346	0	0	0	0	1	4	4
62	5.38703	0.20898	0	0	0	0	1	4	4
62	5.63664	0.145125	0	0	0	0	1	4	4
64	5.85723	0.0986848	0	0	0	0	1	4	4
62	5.95011	0.0696597	0	0	0	0	1	4	4
64	6.08943	0.0406346	0	0	0	0	1	4	4
64	6.13587	0.18576	0	0	0	0	1	4	4
64	6.37968	0.0290246	0	0	0	0	1	4	4
64	6.41451	0.249615	0	0	0	0	1	4	4
64	6.66413	0.156734	0	0	0	0	1	4	4
65	6.99501	0.0290246	0	0	0	0	1	4	4
69	8.45787	0.203175	0	0	0	0	1	4	4
74	9.4215	0.121904	0	0	0	0	1	4	4
74	9.6537	0.0986843	0	0	0	0	1	4	4
74	9.79302	0.121905	0	0	0	0	1	4	4
74	9.91492	0.0696592	0	0	0	0	1	4	4
73	9.98458	0.0928802	0	0	0	0	1	4	4
74	10.0775	0.139319	0	0	0	0	1	4	4
73	10.2168	0.20898	0	0	0	0	1	4	4
73	10.4316	0.121905	0	0	0	0	1	4	4
73	10.5593	0.145125	0	0	0	0	1	4	4
74	11.0759	0.162539	0	0	0	0	1	4	4
72	13.3166	0.0580502	0	0	0	0	1	4	4
60	13.3457	0.0986843	0	0	0	0	1	4	4
62	13.4734	0.0812702	0	0	0	0	1	4	4
62	13.5546	0.0232201	0	0	0	0	1	4	4
62	13.6127	0.191565	0	0	0	0	1	4	4
62	13.8507	0.110295	0	0	0	0	1	4	4
62	14.0249	0.0928793	0	0	0	0	1	4	4
62	14.1177	0.0870752	0	0	0	0	1	4	4
62	14.2048	0.0870743	0	0	0	0	1	4	4
64	14.3499	0.249615	0	0	0	0	1	4	4
64	14.5995	0.127709	0	0	0	0	1	4	4
62	14.7273	0.0986853	0	0	0	0	1	4	4
62	14.8434	0.354104	0	0	0	0	1	4	4
63	15.1975	0.0232201	0	0	0	0	1	4	4
64	17.4788	0.150928	0	0	0	0	1	4	4
65	17.6297	0.191566	0	0	0	0	1	4	4
65	18.0071	0.354105	0	0	0	0	1	4	4
63	18.4657	0.232201	0	0	0	0	1	4	4
64	18.6979	0.0696602	0	0	0	0	1	4	4
62	18.7675	0.232199	0	0	0	0	1	4	4
62	18.9997	0.214785	0	0	0	0	1	4	4
64	19.2145	0.1161	0	0	0	0	1	4	4
62	19.3306	0.203175	0	0	0	0	1	4	4
62	19.5338	0.0986843	0	0	0	0	1	4	4
60	21.3043	0.145124	0	0	0	0	1	4	4
62	21.6352	0.452789	0	0	0	0	1	4	4
62	22.088	0.203175	0	0	0	0	1	4	4
64	22.5059	0.104488	0	0	0	0	1	4	4
60	22.6104	0.16254	0	0	0	0	1	4	4
64	22.8484	0.238005	0	0	0	0	1	4	4
60	23.0864	0.0928802	0	0	0	0	1	4	4
64	23.1793	0.0638542	0	0	0	0	1	4	4
64	23.2432	0.15093	0	0	0	0	1	4	4
65	23.3941	0.0696602	0	0	0	0	1	4	4
65	23.5566	0.0928783	0	0	0	0	1	4	4
65	23.6495	0.16254	0	0	0	0	1	4	4
64	23.9049	0.261225	0	0	0	0	1	4	4
62	24.4332	0.261225	0	0	0	0	1	4	4
62	24.6944	0.162539	0	0	0	0	1	4	4
62	25.4549	0.0754662	0	0	0	0	1	4	4
65	25.7335	0.203175	0	0	0	0	1	4	4
65	25.9657	0.487619	0	0	0	0	1	4	4
65	26.494	0.226395	0	0	0	0	1	4	4
65	26.7204	0.133514	0	0	0	0	1	4	4
67	26.8539	0.400545	0	0	0	0	1	4	4
69	27.2544	0.255419	0	0	0	0	1	4	4
67	27.5098	0.53406	0	0	0	0	1	4	4
63	28.0439	0.029026	0	0	0	0	1	4	4
73	28.7347	0.13932	0	0	0	0	1	4	4
74	28.874	0.0638542	0	0	0	0	1	4	4
64	29.3674	0.208979	0	0	0	0	1	4	4
