midiPitch 	 onsetSec 	 durationSec 	 onsetBeats 	 onsetBarIndex 	 onsetBar 	 durationBeats 	 velocity  	 numerator 	 denominator 
69	2.46132	0.0406349	0	0	0	0	1	4	4
65	2.50776	0.16254	0	0	0	0	1	4	4
63	2.72834	0.232199	0	0	0	0	1	4	4
62	2.96054	0.133515	0	0	0	0	1	4	4
62	3.27401	0.0232201	0	0	0	0	1	4	4
62	3.30304	0.15093	0	0	0	0	1	4	4
59	3.54685	0.249614	0	0	0	0	1	4	4
59	3.88934	0.17415	0	0	0	0	1	4	4
58	4.06349	0.336689	0	0	0	0	1	4	4
60	4.40018	0.110295	0	0	0	0	1	4	4
63	6.20553	0.13932	0	0	0	0	1	4	4
63	6.35646	0.0232201	0	0	0	0	1	4	4
63	6.38549	0.0406346	0	0	0	0	1	4	4
64	6.43193	0.0522451	0	0	0	0	1	4	4
61	6.48417	0.0464396	0	0	0	0	1	4	4
63	6.69315	0.17415	0	0	0	0	1	4	4
63	6.8673	0.162539	0	0	0	0	1	4	4
66	7.02984	0.0986848	0	0	0	0	1	4	4
61	7.25624	0.435374	0	0	0	0	1	4	4
64	10.2458	0.10449	0	0	0	0	1	4	4
65	10.3503	0.429568	0	0	0	0	1	4	4
65	10.9946	0.0870752	0	0	0	0	1	4	4
65	11.0817	0.249615	0	0	0	0	1	4	4
64	14.0016	0.0522442	0	0	0	0	1	4	4
65	14.0539	0.0870752	0	0	0	0	1	4	4
64	14.3673	0.359909	0	0	0	0	1	4	4
66	14.7447	0.0580502	0	0	0	0	1	4	4
66	14.8027	0.0232201	0	0	0	0	1	4	4
65	14.8376	0.290249	0	0	0	0	1	4	4
65	17.8271	0.133514	0	0	0	0	1	4	4
64	17.9722	0.133514	0	0	0	0	1	4	4
63	18.2857	0.121906	0	0	0	0	1	4	4
62	18.4483	0.348299	0	0	0	0	1	4	4
61	18.7966	0.0754642	0	0	0	0	1	4	4
61	18.8894	0.15093	0	0	0	0	1	4	4
58	19.2261	0.10449	0	0	0	0	1	4	4
59	19.3306	0.10449	0	0	0	0	1	4	4
87810408	19.4351	0.208979	0	0	0	0	1	4	4
58	19.6441	0.435375	0	0	0	0	1	4	4
59	20.0795	0.0812683	0	0	0	0	1	4	4
58	20.1607	0.243811	0	0	0	0	1	4	4
58	20.4045	0.0754642	0	0	0	0	1	4	4
67	21.7049	0.127708	0	0	0	0	1	4	4
64	21.9371	0.0754642	0	0	0	0	1	4	4
64	22.0125	0.0348301	0	0	0	0	1	4	4
63	22.117	0.226395	0	0	0	0	1	4	4
61	22.3434	0.16254	0	0	0	0	1	4	4
62	22.7265	0.168344	0	0	0	0	1	4	4
58	22.9181	0.156734	0	0	0	0	1	4	4
58	23.0748	0.179955	0	0	0	0	1	4	4
59	23.2548	0.0754662	0	0	0	0	1	4	4
59	23.3419	0.174149	0	0	0	0	1	4	4
62	25.2807	0.0232201	0	0	0	0	1	4	4
62	25.3214	0.17415	0	0	0	0	1	4	4
62	25.4955	0.238005	0	0	0	0	1	4	4
51	25.9367	0.296055	0	0	0	0	1	4	4
51	26.2327	0.441177	0	0	0	0	1	4	4
57	28.5315	0.156734	0	0	0	0	1	4	4
58	28.8218	0.301859	0	0	0	0	1	4	4
