midiPitch 	 onsetSec 	 durationSec 	 onsetBeats 	 onsetBarIndex 	 onsetBar 	 durationBeats 	 velocity  	 numerator 	 denominator 
69	0.0406349	0.16254	0	0	3.85501e-035	0	1	4	4
64	0.19737	0.13932	0	0	3.85501e-035	0	1	4	4
69	0.388934	0.0348299	0	0	3.85501e-035	0	1	4	4
64	0.412154	0.0348299	0	0	3.85501e-035	0	1	4	4
68	0.493424	0.02322	0	0	3.85501e-035	0	1	4	4
67	0.516644	0.10449	0	0	3.85501e-035	0	1	4	4
67	0.679184	0.0638549	0	0	3.85501e-035	0	1	4	4
71	0.743039	0.0522449	0	0	3.85501e-035	0	1	4	4
74	0.795283	0.17415	0	0	3.85501e-035	0	1	4	4
74	0.969433	0.0812699	0	0	3.85501e-035	0	1	4	4
71	1.0507	0.0812699	0	0	3.85501e-035	0	1	4	4
74	1.13197	0.348299	0	0	3.85501e-035	0	1	4	4
74	1.48027	0.110295	0	0	3.85501e-035	0	1	4	4
74	1.59057	0.0406349	0	0	3.85501e-035	0	1	4	4
74	1.63701	0.0870749	0	0	3.85501e-035	0	1	4	4
74	1.77633	0.16254	0	0	3.85501e-035	0	1	4	4
70	1.93887	0.145125	0	0	3.85501e-035	0	1	4	4
72	2.08399	0.1161	0	0	3.85501e-035	0	1	4	4
63	2.85605	0.0986848	0	0	3.85501e-035	0	1	4	4
68	3.15791	0.0290251	0	0	3.85501e-035	0	1	4	4
65	3.18694	0.0928798	0	0	3.85501e-035	0	1	4	4
65	3.27982	0.0870748	0	0	3.85501e-035	0	1	4	4
66	3.4888	0.0348299	0	0	3.85501e-035	0	1	4	4
72	3.54104	0.0406349	0	0	3.85501e-035	0	1	4	4
73	3.59909	0.16254	0	0	3.85501e-035	0	1	4	4
73	3.76163	0.156735	0	0	3.85501e-035	0	1	4	4
73	3.93578	0.0580499	0	0	3.85501e-035	0	1	4	4
73	4.01705	0.0638547	0	0	3.85501e-035	0	1	4	4
70	4.08091	0.0464401	0	0	3.85501e-035	0	1	4	4
72	4.16218	0.0406351	0	0	3.85501e-035	0	1	4	4
74	4.20862	0.10449	0	0	3.85501e-035	0	1	4	4
71	4.34794	0.0754647	0	0	3.85501e-035	0	1	4	4
71	4.46984	0.0406351	0	0	3.85501e-035	0	1	4	4
76	4.51048	0.0696597	0	0	3.85501e-035	0	1	4	4
76	4.59175	0.0348301	0	0	3.85501e-035	0	1	4	4
76	4.6556	0.0232196	0	0	3.85501e-035	0	1	4	4
76	4.68463	0.0406351	0	0	3.85501e-035	0	1	4	4
74	4.74268	0.0754647	0	0	3.85501e-035	0	1	4	4
62	4.94585	0.313469	0	0	3.85501e-035	0	1	4	4
66	5.81079	0.0986848	0	0	3.85501e-035	0	1	4	4
66	5.90948	0.0696602	0	0	3.85501e-035	0	1	4	4
66	6.03719	0.0812697	0	0	3.85501e-035	0	1	4	4
67	6.20553	0.10449	0	0	3.85501e-035	0	1	4	4
56	6.26358	0.150929	0	0	3.85501e-035	0	1	4	4
55	6.41451	0.0812702	0	0	3.85501e-035	0	1	4	4
55	6.519	0.0290251	0	0	3.85501e-035	0	1	4	4
55	6.55383	0.156735	0	0	3.85501e-035	0	1	4	4
57	7.14014	0.18576	0	0	3.85501e-035	0	1	4	4
59	7.3259	0.116099	0	0	3.85501e-035	0	1	4	4
59	7.442	0.16254	0	0	3.85501e-035	0	1	4	4
59	7.60454	0.0986848	0	0	3.85501e-035	0	1	4	4
59	7.82512	0.0580497	0	0	3.85501e-035	0	1	4	4
60	7.95864	0.0812702	0	0	3.85501e-035	0	1	4	4
60	8.03991	0.0522451	0	0	3.85501e-035	0	1	4	4
60	8.18503	0.0580502	0	0	3.85501e-035	0	1	4	4
60	8.45787	0.168344	0	0	3.85501e-035	0	1	4	4
60	8.62621	0.127709	0	0	3.85501e-035	0	1	4	4
60	8.82358	0.0348301	0	0	3.85501e-035	0	1	4	4
59	8.85841	0.0522451	0	0	3.85501e-035	0	1	4	4
72	8.87002	0.0812693	0	0	3.85501e-035	0	1	4	4
72	9.11964	0.121904	0	0	3.85501e-035	0	1	4	4
67	9.25315	0.25542	0	0	3.85501e-035	0	1	4	4
67	9.52018	0.127709	0	0	3.85501e-035	0	1	4	4
67	9.64789	0.0232201	0	0	3.85501e-035	0	1	4	4
73	9.67111	0.0580502	0	0	3.85501e-035	0	1	4	4
71	9.7698	0.0696602	0	0	3.85501e-035	0	1	4	4
68	9.85107	0.0696602	0	0	3.85501e-035	0	1	4	4
72	9.92073	0.0754642	0	0	3.85501e-035	0	1	4	4
67	9.99619	0.191565	0	0	3.85501e-035	0	1	4	4
59	14.3325	0.145124	0	0	3.85501e-035	0	1	4	4
66	14.4776	0.0870752	0	0	3.85501e-035	0	1	4	4
65	14.5763	0.0580502	0	0	3.85501e-035	0	1	4	4
69	15.0175	0.133514	0	0	3.85501e-035	0	1	4	4
67	15.151	0.214785	0	0	3.85501e-035	0	1	4	4
67	15.3716	0.162539	0	0	3.85501e-035	0	1	4	4
69	16.2656	0.214785	0	0	3.85501e-035	0	1	4	4
71	16.4804	0.0580502	0	0	3.85501e-035	0	1	4	4
69	16.9564	0.296055	0	0	3.85501e-035	0	1	4	4
67	17.2931	0.470205	0	0	3.85501e-035	0	1	4	4
62	17.7633	0.116098	0	0	3.85501e-035	0	1	4	4
62	17.8794	0.261225	0	0	3.85501e-035	0	1	4	4
62	18.1406	0.0928802	0	0	3.85501e-035	0	1	4	4
68	18.2335	0.342495	0	0	3.85501e-035	0	1	4	4
64	18.576	0.830112	0	0	3.85501e-035	0	1	4	4
67	19.528	0.145126	0	0	3.85501e-035	0	1	4	4
63	19.8531	0.0928783	0	0	3.85501e-035	0	1	4	4
71	20.3407	0.17415	0	0	3.85501e-035	0	1	4	4
72	20.5148	0.0696602	0	0	3.85501e-035	0	1	4	4
70	20.5845	0.0290241	0	0	3.85501e-035	0	1	4	4
68	20.6309	0.145124	0	0	3.85501e-035	0	1	4	4
59	20.9038	0.139318	0	0	3.85501e-035	0	1	4	4
47	26.8132	0.917189	0	0	3.85501e-035	0	1	4	4
45	28.0497	0.133514	0	0	3.85501e-035	0	1	4	4
47	28.1832	0.801088	0	0	3.85501e-035	0	1	4	4
47	28.9843	0.290249	0	0	3.85501e-035	0	1	4	4
45	29.3036	0.365713	0	0	3.85501e-035	0	1	4	4
