midiPitch 	 onsetSec 	 durationSec 	 onsetBeats 	 onsetBarIndex 	 onsetBar 	 durationBeats 	 velocity  	 numerator 	 denominator 
81	0.0928798	0.02322	0	0	3.94947e-035	0	1	4	4
80	0.24381	0.0232199	0	0	3.94947e-035	0	1	4	4
81	0.290249	0.0406349	0	0	3.94947e-035	0	1	4	4
73	1.09714	0.029025	0	0	3.94947e-035	0	1	4	4
68	1.33515	0.1161	0	0	3.94947e-035	0	1	4	4
71	1.45125	0.0580499	0	0	3.94947e-035	0	1	4	4
85	9.32862	0.0464401	0	0	3.94947e-035	0	1	4	4
86	9.38667	0.0580502	0	0	3.94947e-035	0	1	4	4
83	9.47955	0.0290251	0	0	3.94947e-035	0	1	4	4
80	9.52599	0.0522442	0	0	3.94947e-035	0	1	4	4
80	9.76399	0.0754652	0	0	3.94947e-035	0	1	4	4
80	9.8917	0.0696592	0	0	3.94947e-035	0	1	4	4
82	9.96136	0.0290251	0	0	3.94947e-035	0	1	4	4
82	9.99039	0.0812702	0	0	3.94947e-035	0	1	4	4
86	11.9873	0.110294	0	0	3.94947e-035	0	1	4	4
65	12.0221	0.10449	0	0	3.94947e-035	0	1	4	4
63	12.1963	0.365715	0	0	3.94947e-035	0	1	4	4
65	12.562	0.19737	0	0	3.94947e-035	0	1	4	4
65	12.7594	0.249615	0	0	3.94947e-035	0	1	4	4
65	13.009	0.179955	0	0	3.94947e-035	0	1	4	4
63	13.1947	0.249614	0	0	3.94947e-035	0	1	4	4
63	13.4444	0.214785	0	0	3.94947e-035	0	1	4	4
67	13.6766	0.0406351	0	0	3.94947e-035	0	1	4	4
67	13.723	0.0406351	0	0	3.94947e-035	0	1	4	4
67	13.7694	0.0348301	0	0	3.94947e-035	0	1	4	4
68	13.8101	0.0406342	0	0	3.94947e-035	0	1	4	4
67	13.8507	0.0928802	0	0	3.94947e-035	0	1	4	4
68	13.9436	0.0232201	0	0	3.94947e-035	0	1	4	4
66	14.4022	0.179955	0	0	3.94947e-035	0	1	4	4
62	14.6634	0.15093	0	0	3.94947e-035	0	1	4	4
62	14.8143	0.110294	0	0	3.94947e-035	0	1	4	4
62	14.9246	0.203175	0	0	3.94947e-035	0	1	4	4
62	15.4645	0.0464392	0	0	3.94947e-035	0	1	4	4
62	15.598	0.0290251	0	0	3.94947e-035	0	1	4	4
74	16.1553	0.0232201	0	0	3.94947e-035	0	1	4	4
70	16.492	0.13932	0	0	3.94947e-035	0	1	4	4
68	16.6313	0.0348301	0	0	3.94947e-035	0	1	4	4
68	16.6661	0.174149	0	0	3.94947e-035	0	1	4	4
70	16.8461	0.0696602	0	0	3.94947e-035	0	1	4	4
72	16.9157	0.0986843	0	0	3.94947e-035	0	1	4	4
72	17.0144	0.238005	0	0	3.94947e-035	0	1	4	4
76	23.5334	0.0928783	0	0	3.94947e-035	0	1	4	4
74	23.6263	0.0638561	0	0	3.94947e-035	0	1	4	4
72	23.6902	0.0580502	0	0	3.94947e-035	0	1	4	4
71	24.0036	0.0522442	0	0	3.94947e-035	0	1	4	4
72	24.0559	0.0464401	0	0	3.94947e-035	0	1	4	4
69	24.1023	0.0580502	0	0	3.94947e-035	0	1	4	4
66	24.1836	0.0464401	0	0	3.94947e-035	0	1	4	4
67	24.23	0.0464401	0	0	3.94947e-035	0	1	4	4
71	24.2823	0.0870762	0	0	3.94947e-035	0	1	4	4
64	27.5563	0.156734	0	0	3.94947e-035	0	1	4	4
62	27.7188	0.0406342	0	0	3.94947e-035	0	1	4	4
61	27.7653	0.272835	0	0	3.94947e-035	0	1	4	4
