midiPitch 	 onsetSec 	 durationSec 	 onsetBeats 	 onsetBarIndex 	 onsetBar 	 durationBeats 	 velocity  	 numerator 	 denominator 
67	3.89515	0.0290248	0	0	3.9871e-035	0	1	4	4
78	3.90676	0.0464399	0	0	3.9871e-035	0	1	4	4
83	3.97642	0.0986848	0	0	3.9871e-035	0	1	4	4
83	4.49887	0.145125	0	0	3.9871e-035	0	1	4	4
64	5.36381	0.121904	0	0	3.9871e-035	0	1	4	4
67	5.96753	0.272834	0	0	3.9871e-035	0	1	4	4
67	6.27519	0.133514	0	0	3.9871e-035	0	1	4	4
65	6.45515	0.214785	0	0	3.9871e-035	0	1	4	4
65	6.76281	0.22059	0	0	3.9871e-035	0	1	4	4
64	7.58712	0.0348301	0	0	3.9871e-035	0	1	4	4
65	7.96444	0.0522451	0	0	3.9871e-035	0	1	4	4
62	8.1444	0.0290251	0	0	3.9871e-035	0	1	4	4
64	8.25469	0.179955	0	0	3.9871e-035	0	1	4	4
64	8.55655	0.25542	0	0	3.9871e-035	0	1	4	4
64	8.83519	0.0812693	0	0	3.9871e-035	0	1	4	4
67	9.57243	0.110295	0	0	3.9871e-035	0	1	4	4
63	9.72916	0.0464392	0	0	3.9871e-035	0	1	4	4
64	9.8917	0.307664	0	0	3.9871e-035	0	1	4	4
64	10.2864	0.0290251	0	0	3.9871e-035	0	1	4	4
64	10.3213	0.0464392	0	0	3.9871e-035	0	1	4	4
66	10.4896	0.0638552	0	0	3.9871e-035	0	1	4	4
66	10.5535	0.156734	0	0	3.9871e-035	0	1	4	4
66	10.7102	0.110294	0	0	3.9871e-035	0	1	4	4
66	10.9018	0.0406351	0	0	3.9871e-035	0	1	4	4
66	10.9482	0.0928793	0	0	3.9871e-035	0	1	4	4
64	11.221	0.0754652	0	0	3.9871e-035	0	1	4	4
64	11.2965	0.145124	0	0	3.9871e-035	0	1	4	4
65	11.6448	0.0290251	0	0	3.9871e-035	0	1	4	4
65	11.6796	0.0696602	0	0	3.9871e-035	0	1	4	4
64	11.9525	0.0348301	0	0	3.9871e-035	0	1	4	4
63	12.5968	0.0290241	0	0	3.9871e-035	0	1	4	4
63	13.1193	0.0290251	0	0	3.9871e-035	0	1	4	4
64	13.1541	0.179955	0	0	3.9871e-035	0	1	4	4
64	13.3515	0.145124	0	0	3.9871e-035	0	1	4	4
64	13.5314	0.0928802	0	0	3.9871e-035	0	1	4	4
64	13.6998	0.12771	0	0	3.9871e-035	0	1	4	4
64	13.8275	0.214784	0	0	3.9871e-035	0	1	4	4
65	14.0423	0.238005	0	0	3.9871e-035	0	1	4	4
65	15.2033	0.133514	0	0	3.9871e-035	0	1	4	4
65	15.836	0.127709	0	0	3.9871e-035	0	1	4	4
66	15.9637	0.10449	0	0	3.9871e-035	0	1	4	4
66	16.0682	0.0348301	0	0	3.9871e-035	0	1	4	4
64	16.4513	0.110294	0	0	3.9871e-035	0	1	4	4
65	17.3105	0.174149	0	0	3.9871e-035	0	1	4	4
63	17.6123	0.156734	0	0	3.9871e-035	0	1	4	4
64	17.8039	0.267029	0	0	3.9871e-035	0	1	4	4
65	18.9359	0.0986843	0	0	3.9871e-035	0	1	4	4
66	19.5396	0.0232201	0	0	3.9871e-035	0	1	4	4
64	20.2652	0.203175	0	0	3.9871e-035	0	1	4	4
67	20.689	0.104488	0	0	3.9871e-035	0	1	4	4
66	20.7935	0.0812702	0	0	3.9871e-035	0	1	4	4
68	20.9444	0.13932	0	0	3.9871e-035	0	1	4	4
67	21.1127	0.0232201	0	0	3.9871e-035	0	1	4	4
69	21.1476	0.0232201	0	0	3.9871e-035	0	1	4	4
68	21.3159	0.121904	0	0	3.9871e-035	0	1	4	4
68	21.4378	0.191565	0	0	3.9871e-035	0	1	4	4
68	21.6468	0.0754642	0	0	3.9871e-035	0	1	4	4
69	21.7223	0.0754642	0	0	3.9871e-035	0	1	4	4
69	21.8035	0.174149	0	0	3.9871e-035	0	1	4	4
69	21.9777	0.0406361	0	0	3.9871e-035	0	1	4	4
68	22.0183	0.121904	0	0	3.9871e-035	0	1	4	4
69	22.384	0.0638561	0	0	3.9871e-035	0	1	4	4
69	22.7323	0.0870743	0	0	3.9871e-035	0	1	4	4
70	22.9007	0.0754642	0	0	3.9871e-035	0	1	4	4
81	24.8337	0.0406361	0	0	3.9871e-035	0	1	4	4
81	25.0776	0.0696602	0	0	3.9871e-035	0	1	4	4
82	25.3562	0.0522461	0	0	3.9871e-035	0	1	4	4
86	25.5071	0.0232201	0	0	3.9871e-035	0	1	4	4
76	25.9773	0.121904	0	0	3.9871e-035	0	1	4	4
77	26.2966	0.0406342	0	0	3.9871e-035	0	1	4	4
77	26.4185	0.168344	0	0	3.9871e-035	0	1	4	4
83	27.179	0.0754642	0	0	3.9871e-035	0	1	4	4
81	27.2544	0.0406342	0	0	3.9871e-035	0	1	4	4
81	27.3299	0.0232201	0	0	3.9871e-035	0	1	4	4
80	27.3589	0.0232201	0	0	3.9871e-035	0	1	4	4
82	27.5273	0.0464401	0	0	3.9871e-035	0	1	4	4
81	27.5737	0.0290241	0	0	3.9871e-035	0	1	4	4
82	27.7943	0.029026	0	0	3.9871e-035	0	1	4	4
82	27.8465	0.0232201	0	0	3.9871e-035	0	1	4	4
81	27.9162	0.029026	0	0	3.9871e-035	0	1	4	4
79	27.9858	0.0348301	0	0	3.9871e-035	0	1	4	4
