midiPitch 	 onsetSec 	 durationSec 	 onsetBeats 	 onsetBarIndex 	 onsetBar 	 durationBeats 	 velocity  	 numerator 	 denominator 
55	0.0522449	0.0348299	0	0	8.20007e-035	0	1	4	4
56	0.20898	0.02322	0	0	8.20007e-035	0	1	4	4
61	1.54413	0.0232199	0	0	8.20007e-035	0	1	4	4
59	1.56735	0.0754648	0	0	8.20007e-035	0	1	4	4
62	1.68925	0.568889	0	0	8.20007e-035	0	1	4	4
62	2.25814	0.464399	0	0	8.20007e-035	0	1	4	4
62	2.78639	0.0638547	0	0	8.20007e-035	0	1	4	4
62	2.85025	0.0406351	0	0	8.20007e-035	0	1	4	4
62	2.89669	0.075465	0	0	8.20007e-035	0	1	4	4
62	2.97215	0.121905	0	0	8.20007e-035	0	1	4	4
62	3.09406	0.220589	0	0	8.20007e-035	0	1	4	4
65	3.41333	0.0580499	0	0	8.20007e-035	0	1	4	4
65	3.58168	0.377324	0	0	8.20007e-035	0	1	4	4
62	4.16798	0.284445	0	0	8.20007e-035	0	1	4	4
60	4.48145	0.19737	0	0	8.20007e-035	0	1	4	4
59	4.72526	0.17415	0	0	8.20007e-035	0	1	4	4
59	4.89941	0.0348301	0	0	8.20007e-035	0	1	4	4
59	4.98068	0.0812702	0	0	8.20007e-035	0	1	4	4
59	5.06195	0.0464396	0	0	8.20007e-035	0	1	4	4
60	5.10839	0.0696597	0	0	8.20007e-035	0	1	4	4
60	5.52635	0.168344	0	0	8.20007e-035	0	1	4	4
60	5.69469	0.446984	0	0	8.20007e-035	0	1	4	4
60	6.23456	0.12771	0	0	8.20007e-035	0	1	4	4
60	6.36227	0.203175	0	0	8.20007e-035	0	1	4	4
63	6.56544	0.145125	0	0	8.20007e-035	0	1	4	4
62	6.83247	0.156735	0	0	8.20007e-035	0	1	4	4
62	6.98921	0.0232201	0	0	8.20007e-035	0	1	4	4
62	7.01823	0.261224	0	0	8.20007e-035	0	1	4	4
64	7.49424	0.0290251	0	0	8.20007e-035	0	1	4	4
64	7.52907	0.110294	0	0	8.20007e-035	0	1	4	4
64	7.63936	0.0406351	0	0	8.20007e-035	0	1	4	4
64	7.6858	0.0638547	0	0	8.20007e-035	0	1	4	4
64	7.74966	0.0522451	0	0	8.20007e-035	0	1	4	4
64	7.82512	0.19737	0	0	8.20007e-035	0	1	4	4
64	8.09796	0.470204	0	0	8.20007e-035	0	1	4	4
67	9.20671	0.0812702	0	0	8.20007e-035	0	1	4	4
67	9.28798	0.150929	0	0	8.20007e-035	0	1	4	4
64	9.43891	0.0464401	0	0	8.20007e-035	0	1	4	4
64	9.48535	0.290249	0	0	8.20007e-035	0	1	4	4
64	9.83946	0.423764	0	0	8.20007e-035	0	1	4	4
72	10.5012	0.278639	0	0	8.20007e-035	0	1	4	4
71	11.1107	0.0696592	0	0	8.20007e-035	0	1	4	4
61	11.1804	0.121905	0	0	8.20007e-035	0	1	4	4
62	11.3023	0.0290251	0	0	8.20007e-035	0	1	4	4
55	11.4474	0.261225	0	0	8.20007e-035	0	1	4	4
57	11.8944	0.0522451	0	0	8.20007e-035	0	1	4	4
57	11.9467	0.0290251	0	0	8.20007e-035	0	1	4	4
53	12.7361	0.0638552	0	0	8.20007e-035	0	1	4	4
53	12.8406	0.110295	0	0	8.20007e-035	0	1	4	4
55	13.2818	0.876554	0	0	8.20007e-035	0	1	4	4
55	14.2048	0.0928793	0	0	8.20007e-035	0	1	4	4
55	14.3035	0.0986853	0	0	8.20007e-035	0	1	4	4
55	14.4022	0.168344	0	0	8.20007e-035	0	1	4	4
55	14.5705	0.348299	0	0	8.20007e-035	0	1	4	4
52	15.0988	0.249615	0	0	8.20007e-035	0	1	4	4
52	15.3484	0.0928802	0	0	8.20007e-035	0	1	4	4
52	15.4819	0.272835	0	0	8.20007e-035	0	1	4	4
52	15.7547	0.377324	0	0	8.20007e-035	0	1	4	4
59	24.4506	0.0348301	0	0	8.20007e-035	0	1	4	4
53	24.5261	0.0348301	0	0	8.20007e-035	0	1	4	4
59	24.6712	0.0290241	0	0	8.20007e-035	0	1	4	4
54	24.6886	0.15093	0	0	8.20007e-035	0	1	4	4
55	24.8395	0.1161	0	0	8.20007e-035	0	1	4	4
55	24.9556	0.632744	0	0	8.20007e-035	0	1	4	4
55	25.8612	0.267031	0	0	8.20007e-035	0	1	4	4
55	26.5462	0.0406342	0	0	8.20007e-035	0	1	4	4
55	26.5868	0.029026	0	0	8.20007e-035	0	1	4	4
52	26.6565	0.133514	0	0	8.20007e-035	0	1	4	4
52	26.79	0.0232201	0	0	8.20007e-035	0	1	4	4
52	26.8132	0.0232201	0	0	8.20007e-035	0	1	4	4
55	26.8771	0.0754662	0	0	8.20007e-035	0	1	4	4
55	26.9526	0.0928802	0	0	8.20007e-035	0	1	4	4
59	28.5431	0.145124	0	0	8.20007e-035	0	1	4	4
59	28.6883	0.0580502	0	0	8.20007e-035	0	1	4	4
59	28.7463	0.10449	0	0	8.20007e-035	0	1	4	4
60	28.8508	0.185759	0	0	8.20007e-035	0	1	4	4
