midiPitch 	 onsetSec 	 durationSec 	 onsetBeats 	 onsetBarIndex 	 onsetBar 	 durationBeats 	 velocity  	 numerator 	 denominator 
65	0.719819	0.0232199	0	0	0	0	1	4	4
66	1.01587	0.029025	0	0	0	0	1	4	4
66	1.06231	0.0406349	0	0	0	0	1	4	4
66	1.10875	0.0638548	0	0	0	0	1	4	4
66	1.25968	0.0232199	0	0	0	0	1	4	4
66	1.37578	0.0696599	0	0	0	0	1	4	4
68	2.07819	0.0232201	0	0	0	0	1	4	4
65	2.18268	0.0232201	0	0	0	0	1	4	4
63	2.24653	0.0522449	0	0	0	0	1	4	4
62	2.50195	0.0232201	0	0	0	0	1	4	4
66	2.5658	0.0870748	0	0	0	0	1	4	4
59	2.6819	0.0986848	0	0	0	0	1	4	4
66	2.80961	0.0290251	0	0	0	0	1	4	4
63	2.87347	0.0290248	0	0	0	0	1	4	4
66	2.90249	0.22059	0	0	0	0	1	4	4
66	3.12308	0.0232201	0	0	0	0	1	4	4
66	3.1463	0.0232198	0	0	0	0	1	4	4
66	3.16952	0.0348299	0	0	0	0	1	4	4
66	3.25079	0.0232198	0	0	0	0	1	4	4
64	3.27401	0.0290251	0	0	0	0	1	4	4
66	3.30884	0.0232201	0	0	0	0	1	4	4
66	3.36109	0.0232201	0	0	0	0	1	4	4
67	3.39011	0.0348299	0	0	0	0	1	4	4
59	3.6107	0.272834	0	0	0	0	1	4	4
67	3.88354	0.110295	0	0	0	0	1	4	4
67	4.06349	0.0232201	0	0	0	0	1	4	4
55	4.11574	0.162539	0	0	0	0	1	4	4
55	4.27828	0.18576	0	0	0	0	1	4	4
55	4.48145	0.10449	0	0	0	0	1	4	4
55	4.58594	0.458594	0	0	0	0	1	4	4
55	5.06195	0.18576	0	0	0	0	1	4	4
55	5.24771	0.191565	0	0	0	0	1	4	4
55	5.43927	0.342494	0	0	0	0	1	4	4
55	5.78177	0.406349	0	0	0	0	1	4	4
85	7.70902	0.139319	0	0	0	0	1	4	4
67	10.658	0.0522451	0	0	0	0	1	4	4
63	11.4939	0.0406351	0	0	0	0	1	4	4
63	11.6274	0.0464401	0	0	0	0	1	4	4
63	11.819	0.0696602	0	0	0	0	1	4	4
63	11.9118	0.0406351	0	0	0	0	1	4	4
63	11.9641	0.0406342	0	0	0	0	1	4	4
63	12.1382	0.0464401	0	0	0	0	1	4	4
63	12.7187	0.0348301	0	0	0	0	1	4	4
63	12.7536	0.0696592	0	0	0	0	1	4	4
64	12.8929	0.30186	0	0	0	0	1	4	4
83	13.067	0.238005	0	0	0	0	1	4	4
83	13.305	0.0638552	0	0	0	0	1	4	4
83	13.3689	0.0580492	0	0	0	0	1	4	4
83	13.4269	0.0754652	0	0	0	0	1	4	4
83	13.5024	0.0986853	0	0	0	0	1	4	4
83	13.6011	0.0754642	0	0	0	0	1	4	4
83	13.6766	0.0522451	0	0	0	0	1	4	4
83	13.7288	0.0754652	0	0	0	0	1	4	4
83	13.8043	0.0522442	0	0	0	0	1	4	4
83	13.8797	0.272835	0	0	0	0	1	4	4
83	14.1526	0.0696602	0	0	0	0	1	4	4
83	14.2222	0.156734	0	0	0	0	1	4	4
83	14.5183	0.0986853	0	0	0	0	1	4	4
83	14.617	0.0870743	0	0	0	0	1	4	4
83	14.704	0.3483	0	0	0	0	1	4	4
83	15.0523	0.220589	0	0	0	0	1	4	4
86	21.7861	0.0464401	0	0	0	0	1	4	4
83	21.8326	0.0348301	0	0	0	0	1	4	4
64	21.85	0.359909	0	0	0	0	1	4	4
67	22.2563	0.476009	0	0	0	0	1	4	4
67	22.7323	0.127708	0	0	0	0	1	4	4
67	22.86	0.10449	0	0	0	0	1	4	4
67	22.9645	0.0232201	0	0	0	0	1	4	4
67	23.0632	0.0232201	0	0	0	0	1	4	4
71	23.725	0.319273	0	0	0	0	1	4	4
71	24.0443	0.0870762	0	0	0	0	1	4	4
71	24.1604	0.0754642	0	0	0	0	1	4	4
71	24.3693	0.145124	0	0	0	0	1	4	4
73	24.5203	0.249615	0	0	0	0	1	4	4
69	25.2517	0.255421	0	0	0	0	1	4	4
69	25.5536	0.104488	0	0	0	0	1	4	4
69	25.6755	0.255419	0	0	0	0	1	4	4
69	25.9309	0.0928802	0	0	0	0	1	4	4
