midiPitch 	 onsetSec 	 durationSec 	 onsetBeats 	 onsetBarIndex 	 onsetBar 	 durationBeats 	 velocity  	 numerator 	 denominator 
64	5.10839	0.0812697	0	0	0	0	1	4	4
69	6.03138	0.0696597	0	0	0	0	1	4	4
77	7.3259	0.0232196	0	0	0	0	1	4	4
77	7.61034	0.0232201	0	0	0	0	1	4	4
77	7.82512	0.0232196	0	0	0	0	1	4	4
77	7.97025	0.0232201	0	0	0	0	1	4	4
78	8.44045	0.0290251	0	0	0	0	1	4	4
81	8.62621	0.0232201	0	0	0	0	1	4	4
77	9.04998	0.0290251	0	0	0	0	1	4	4
77	9.08481	0.0232201	0	0	0	0	1	4	4
82	9.16027	0.0232201	0	0	0	0	1	4	4
76	9.23574	0.0232201	0	0	0	0	1	4	4
76	9.50277	0.0232201	0	0	0	0	1	4	4
77	9.59565	0.0232201	0	0	0	0	1	4	4
77	10.3213	0.0464392	0	0	0	0	1	4	4
74	10.4432	0.0348301	0	0	0	0	1	4	4
74	10.8031	0.0232201	0	0	0	0	1	4	4
77	11.4242	0.0348301	0	0	0	0	1	4	4
77	11.6216	0.0290251	0	0	0	0	1	4	4
77	11.7725	0.0232191	0	0	0	0	1	4	4
77	11.848	0.0406351	0	0	0	0	1	4	4
78	12.295	0.20898	0	0	0	0	1	4	4
78	12.5039	0.0464401	0	0	0	0	1	4	4
78	12.7245	0.22059	0	0	0	0	1	4	4
67	14.2164	0.104489	0	0	0	0	1	4	4
77	14.7853	0.0812693	0	0	0	0	1	4	4
65	14.884	0.0348301	0	0	0	0	1	4	4
65	14.9246	0.133515	0	0	0	0	1	4	4
66	15.0697	0.0348301	0	0	0	0	1	4	4
66	15.1104	0.0464401	0	0	0	0	1	4	4
62	15.1568	0.0638552	0	0	0	0	1	4	4
65	15.2323	0.116099	0	0	0	0	1	4	4
75	15.7896	0.0754652	0	0	0	0	1	4	4
67	15.865	0.661768	0	0	0	0	1	4	4
67	17.026	0.284445	0	0	0	0	1	4	4
67	17.3105	0.133514	0	0	0	0	1	4	4
67	17.444	0.0928802	0	0	0	0	1	4	4
67	17.5369	0.185759	0	0	0	0	1	4	4
66	18.3147	0.168344	0	0	0	0	1	4	4
66	18.4831	0.220589	0	0	0	0	1	4	4
66	21.0373	0.0406342	0	0	0	0	1	4	4
76	23.934	0.0348301	0	0	0	0	1	4	4
75	23.9978	0.110296	0	0	0	0	1	4	4
65	24.3461	0.0406342	0	0	0	0	1	4	4
65	24.3635	0.0580502	0	0	0	0	1	4	4
62	24.439	0.156736	0	0	0	0	1	4	4
67	25.2633	0.220591	0	0	0	0	1	4	4
67	25.5245	0.0696602	0	0	0	0	1	4	4
66	25.5942	0.0348301	0	0	0	0	1	4	4
67	25.8612	0.0580502	0	0	0	0	1	4	4
66	26.0238	0.133514	0	0	0	0	1	4	4
30663016	26.1573	0.301859	0	0	0	0	1	4	4
67	26.4591	0.0812702	0	0	0	0	1	4	4
67	26.761	0.383129	0	0	0	0	1	4	4
66	27.5911	0.10449	0	0	0	0	1	4	4
66	27.6956	0.10449	0	0	0	0	1	4	4
68	28.8334	0.029026	0	0	0	0	1	4	4
60	29.4081	0.029026	0	0	0	0	1	4	4
60	29.53	0.0348301	0	0	0	0	1	4	4
59	29.5648	0.0232201	0	0	0	0	1	4	4
