midiPitch 	 onsetSec 	 durationSec 	 onsetBeats 	 onsetBarIndex 	 onsetBar 	 durationBeats 	 velocity  	 numerator 	 denominator 
54	0.545669	0.02322	0	0	3.85519e-035	0	1	4	4
55	0.574694	0.377324	0	0	3.85519e-035	0	1	4	4
55	1.13197	0.0232199	0	0	3.85519e-035	0	1	4	4
55	1.15519	0.0232199	0	0	3.85519e-035	0	1	4	4
55	1.17841	0.029025	0	0	3.85519e-035	0	1	4	4
55	1.20744	0.03483	0	0	3.85519e-035	0	1	4	4
55	1.24227	0.0348299	0	0	3.85519e-035	0	1	4	4
57	1.45125	0.359909	0	0	3.85519e-035	0	1	4	4
58	2.83283	0.0406349	0	0	3.85519e-035	0	1	4	4
57	2.88508	0.0986848	0	0	3.85519e-035	0	1	4	4
58	2.98376	0.0754647	0	0	3.85519e-035	0	1	4	4
57	3.24499	0.226394	0	0	3.85519e-035	0	1	4	4
58	3.67456	0.238005	0	0	3.85519e-035	0	1	4	4
56	4.00544	0.18576	0	0	3.85519e-035	0	1	4	4
54	4.20281	0.255419	0	0	3.85519e-035	0	1	4	4
55	4.882	0.0812702	0	0	3.85519e-035	0	1	4	4
55	4.96327	0.179955	0	0	3.85519e-035	0	1	4	4
55	5.14322	0.19737	0	0	3.85519e-035	0	1	4	4
52	5.77596	0.0928798	0	0	3.85519e-035	0	1	4	4
52	5.88626	0.0638547	0	0	3.85519e-035	0	1	4	4
57	6.91955	0.133515	0	0	3.85519e-035	0	1	4	4
58	7.11692	0.348299	0	0	3.85519e-035	0	1	4	4
57	7.48844	0.22059	0	0	3.85519e-035	0	1	4	4
57	8.01669	0.226395	0	0	3.85519e-035	0	1	4	4
57	8.44626	0.116099	0	0	3.85519e-035	0	1	4	4
58	8.56236	0.0232201	0	0	3.85519e-035	0	1	4	4
58	8.58558	0.0522451	0	0	3.85519e-035	0	1	4	4
60	8.63782	0.121904	0	0	3.85519e-035	0	1	4	4
55	8.96871	0.12771	0	0	3.85519e-035	0	1	4	4
55	9.09642	0.191565	0	0	3.85519e-035	0	1	4	4
55	9.64789	0.2322	0	0	3.85519e-035	0	1	4	4
57	10.0833	0.121904	0	0	3.85519e-035	0	1	4	4
58	11.4765	0.162539	0	0	3.85519e-035	0	1	4	4
58	11.639	0.0754652	0	0	3.85519e-035	0	1	4	4
58	11.7261	0.168344	0	0	3.85519e-035	0	1	4	4
59	12.0163	0.0232201	0	0	3.85519e-035	0	1	4	4
58	12.0395	0.179955	0	0	3.85519e-035	0	1	4	4
58	12.8406	0.214785	0	0	3.85519e-035	0	1	4	4
58	13.1135	0.24381	0	0	3.85519e-035	0	1	4	4
58	13.4153	0.19737	0	0	3.85519e-035	0	1	4	4
58	13.932	0.191565	0	0	3.85519e-035	0	1	4	4
58	14.1584	0.0522451	0	0	3.85519e-035	0	1	4	4
60	14.2629	0.0580502	0	0	3.85519e-035	0	1	4	4
67	15.2555	0.133514	0	0	3.85519e-035	0	1	4	4
58	17.1189	0.150928	0	0	3.85519e-035	0	1	4	4
52	17.5601	0.121904	0	0	3.85519e-035	0	1	4	4
53	17.682	0.0232201	0	0	3.85519e-035	0	1	4	4
63	20.3233	0.0870743	0	0	3.85519e-035	0	1	4	4
64	20.4394	0.243809	0	0	3.85519e-035	0	1	4	4
63	20.8341	0.168344	0	0	3.85519e-035	0	1	4	4
58	21.2463	0.214785	0	0	3.85519e-035	0	1	4	4
58	21.461	0.191565	0	0	3.85519e-035	0	1	4	4
53	21.9312	0.319273	0	0	3.85519e-035	0	1	4	4
53	22.2505	0.0754662	0	0	3.85519e-035	0	1	4	4
53	22.326	0.0290241	0	0	3.85519e-035	0	1	4	4
55	22.355	0.272835	0	0	3.85519e-035	0	1	4	4
55	23.6437	0.290249	0	0	3.85519e-035	0	1	4	4
58	24.9498	0.0464401	0	0	3.85519e-035	0	1	4	4
53	26.3082	0.0812702	0	0	3.85519e-035	0	1	4	4
52	26.3895	0.0638542	0	0	3.85519e-035	0	1	4	4
55	26.6333	0.249615	0	0	3.85519e-035	0	1	4	4
