midiPitch 	 onsetSec 	 durationSec 	 onsetBeats 	 onsetBarIndex 	 onsetBar 	 durationBeats 	 velocity  	 numerator 	 denominator 
56	1.96789	0.040635	0	0	2.65179e-035	0	1	4	4
59	2.06658	0.249614	0	0	2.65179e-035	0	1	4	4
60	2.36263	0.15093	0	0	2.65179e-035	0	1	4	4
57	2.62966	0.17415	0	0	2.65179e-035	0	1	4	4
59	2.95474	0.0348301	0	0	2.65179e-035	0	1	4	4
56	2.99537	0.0348299	0	0	2.65179e-035	0	1	4	4
57	3.03601	0.0754647	0	0	2.65179e-035	0	1	4	4
54	4.87039	0.0812702	0	0	2.65179e-035	0	1	4	4
54	4.95166	0.0406346	0	0	2.65179e-035	0	1	4	4
54	5.0039	0.238005	0	0	2.65179e-035	0	1	4	4
60	6.46676	0.0522447	0	0	2.65179e-035	0	1	4	4
58	6.519	0.0232201	0	0	2.65179e-035	0	1	4	4
57	6.57705	0.354104	0	0	2.65179e-035	0	1	4	4
57	7.10531	0.19737	0	0	2.65179e-035	0	1	4	4
57	7.35492	0.179955	0	0	2.65179e-035	0	1	4	4
57	7.61615	0.150929	0	0	2.65179e-035	0	1	4	4
55	10.1587	0.0986853	0	0	2.65179e-035	0	1	4	4
55	10.3155	0.0870743	0	0	2.65179e-035	0	1	4	4
63	11.0179	0.0638552	0	0	2.65179e-035	0	1	4	4
55	11.2094	0.168344	0	0	2.65179e-035	0	1	4	4
55	11.4358	0.29025	0	0	2.65179e-035	0	1	4	4
55	11.7377	0.0986843	0	0	2.65179e-035	0	1	4	4
55	12.0337	0.0754652	0	0	2.65179e-035	0	1	4	4
50	12.3937	0.116099	0	0	2.65179e-035	0	1	4	4
57	13.6766	0.249615	0	0	2.65179e-035	0	1	4	4
58	13.9262	0.0232201	0	0	2.65179e-035	0	1	4	4
57	13.9494	0.168344	0	0	2.65179e-035	0	1	4	4
56222056	14.3151	0.214785	0	0	2.65179e-035	0	1	4	4
54	14.5647	0.116099	0	0	2.65179e-035	0	1	4	4
57	20.5555	0.0464401	0	0	2.65179e-035	0	1	4	4
59	20.6019	0.121904	0	0	2.65179e-035	0	1	4	4
59	20.747	0.029026	0	0	2.65179e-035	0	1	4	4
59	20.7819	0.0928802	0	0	2.65179e-035	0	1	4	4
60	21.0257	0.0928783	0	0	2.65179e-035	0	1	4	4
59	21.1185	0.0638561	0	0	2.65179e-035	0	1	4	4
57	21.2985	0.179955	0	0	2.65179e-035	0	1	4	4
57	21.6294	0.226395	0	0	2.65179e-035	0	1	4	4
56	23.0342	0.0348301	0	0	2.65179e-035	0	1	4	4
57	23.0748	0.0522461	0	0	2.65179e-035	0	1	4	4
57	23.1271	0.0406342	0	0	2.65179e-035	0	1	4	4
57	23.1735	0.0870762	0	0	2.65179e-035	0	1	4	4
57	23.2606	0.110294	0	0	2.65179e-035	0	1	4	4
57	23.3941	0.15093	0	0	2.65179e-035	0	1	4	4
55	23.545	0.365713	0	0	2.65179e-035	0	1	4	4
54	23.934	0.145124	0	0	2.65179e-035	0	1	4	4
54	24.1023	0.0986843	0	0	2.65179e-035	0	1	4	4
55	24.2881	0.278639	0	0	2.65179e-035	0	1	4	4
59	25.4317	0.197371	0	0	2.65179e-035	0	1	4	4
62	25.7219	0.156734	0	0	2.65179e-035	0	1	4	4
62	26.2153	0.0348301	0	0	2.65179e-035	0	1	4	4
64	26.2908	0.0870762	0	0	2.65179e-035	0	1	4	4
62	26.4882	0.15093	0	0	2.65179e-035	0	1	4	4
57	26.97	0.284445	0	0	2.65179e-035	0	1	4	4
58	27.3357	0.0406342	0	0	2.65179e-035	0	1	4	4
62	27.6376	0.110294	0	0	2.65179e-035	0	1	4	4
64	27.7478	0.284445	0	0	2.65179e-035	0	1	4	4
63	28.1078	0.0348301	0	0	2.65179e-035	0	1	4	4
63	28.1426	0.0696602	0	0	2.65179e-035	0	1	4	4
61	28.2819	0.17415	0	0	2.65179e-035	0	1	4	4
62	28.4561	0.156734	0	0	2.65179e-035	0	1	4	4
59	28.8218	0.191565	0	0	2.65179e-035	0	1	4	4
59	29.0133	0.0754662	0	0	2.65179e-035	0	1	4	4
