midiPitch 	 onsetSec 	 durationSec 	 onsetBeats 	 onsetBarIndex 	 onsetBar 	 durationBeats 	 velocity  	 numerator 	 denominator 
73	0.156735	0.168345	0	0	2.95257e-035	0	1	4	4
74	0.325079	0.179955	0	0	2.95257e-035	0	1	4	4
74	0.505034	0.0638549	0	0	2.95257e-035	0	1	4	4
74	0.853333	0.296054	0	0	2.95257e-035	0	1	4	4
74	1.20163	0.19737	0	0	2.95257e-035	0	1	4	4
74	1.399	0.0812699	0	0	2.95257e-035	0	1	4	4
74	1.71247	0.296054	0	0	2.95257e-035	0	1	4	4
72	2.15365	0.13932	0	0	2.95257e-035	0	1	4	4
72	2.40327	0.563084	0	0	2.95257e-035	0	1	4	4
75	3.45977	0.19737	0	0	2.95257e-035	0	1	4	4
74	3.78485	0.284444	0	0	2.95257e-035	0	1	4	4
74	4.0693	0.238005	0	0	2.95257e-035	0	1	4	4
74	4.37116	0.27864	0	0	2.95257e-035	0	1	4	4
74	4.6498	0.168344	0	0	2.95257e-035	0	1	4	4
72	4.882	0.156735	0	0	2.95257e-035	0	1	4	4
70	5.16063	0.0986848	0	0	2.95257e-035	0	1	4	4
72	5.25932	0.690794	0	0	2.95257e-035	0	1	4	4
70	5.98494	0.17415	0	0	2.95257e-035	0	1	4	4
70	6.33905	0.708209	0	0	2.95257e-035	0	1	4	4
72	7.70322	0.133515	0	0	2.95257e-035	0	1	4	4
70	7.88317	0.121905	0	0	2.95257e-035	0	1	4	4
70	8.05152	0.336689	0	0	2.95257e-035	0	1	4	4
70	8.48689	0.557279	0	0	2.95257e-035	0	1	4	4
70	9.45052	0.754648	0	0	2.95257e-035	0	1	4	4
69	10.2052	0.13932	0	0	2.95257e-035	0	1	4	4
67	10.3445	0.214784	0	0	2.95257e-035	0	1	4	4
69	10.6173	0.214785	0	0	2.95257e-035	0	1	4	4
69	11.2907	0.354104	0	0	2.95257e-035	0	1	4	4
67	11.819	0.470204	0	0	2.95257e-035	0	1	4	4
68	13.3689	0.505033	0	0	2.95257e-035	0	1	4	4
66	13.8739	0.0928802	0	0	2.95257e-035	0	1	4	4
65	13.9668	0.150929	0	0	2.95257e-035	0	1	4	4
65	14.1932	0.354104	0	0	2.95257e-035	0	1	4	4
66	14.5473	0.226395	0	0	2.95257e-035	0	1	4	4
64	14.7737	0.0290251	0	0	2.95257e-035	0	1	4	4
65	16.0914	0.464399	0	0	2.95257e-035	0	1	4	4
71	16.6777	0.0812702	0	0	2.95257e-035	0	1	4	4
72	16.759	0.139318	0	0	2.95257e-035	0	1	4	4
74	16.8983	0.249615	0	0	2.95257e-035	0	1	4	4
72	17.2756	0.313469	0	0	2.95257e-035	0	1	4	4
72	17.8039	0.249615	0	0	2.95257e-035	0	1	4	4
72	18.8256	0.185759	0	0	2.95257e-035	0	1	4	4
74	19.0113	0.243811	0	0	2.95257e-035	0	1	4	4
72	19.3887	0.359909	0	0	2.95257e-035	0	1	4	4
74	19.9169	0.179955	0	0	2.95257e-035	0	1	4	4
72	20.2826	0.499228	0	0	2.95257e-035	0	1	4	4
72	20.9212	0.191565	0	0	2.95257e-035	0	1	4	4
74	21.2579	0.0870743	0	0	2.95257e-035	0	1	4	4
72	21.4901	0.458593	0	0	2.95257e-035	0	1	4	4
72	21.9951	0.203175	0	0	2.95257e-035	0	1	4	4
71	22.355	0.0928802	0	0	2.95257e-035	0	1	4	4
72	22.4479	0.574694	0	0	2.95257e-035	0	1	4	4
69	23.2896	0.15093	0	0	2.95257e-035	0	1	4	4
70	23.5334	0.232199	0	0	2.95257e-035	0	1	4	4
70	23.7656	0.365715	0	0	2.95257e-035	0	1	4	4
70	24.1313	0.0464401	0	0	2.95257e-035	0	1	4	4
73	24.1778	0.232199	0	0	2.95257e-035	0	1	4	4
71	24.7409	0.296053	0	0	2.95257e-035	0	1	4	4
71	25.0369	0.0464401	0	0	2.95257e-035	0	1	4	4
70	25.2111	0.145124	0	0	2.95257e-035	0	1	4	4
70	25.4955	0.243809	0	0	2.95257e-035	0	1	4	4
70	25.7916	0.446983	0	0	2.95257e-035	0	1	4	4
70	26.3024	0.16254	0	0	2.95257e-035	0	1	4	4
70	26.6449	0.638548	0	0	2.95257e-035	0	1	4	4
69	27.3821	0.104488	0	0	2.95257e-035	0	1	4	4
68	27.4866	0.179956	0	0	2.95257e-035	0	1	4	4
69	27.6666	0.481813	0	0	2.95257e-035	0	1	4	4
69	28.6941	0.232199	0	0	2.95257e-035	0	1	4	4
67	28.9263	0.539864	0	0	2.95257e-035	0	1	4	4
