midiPitch 	 onsetSec 	 durationSec 	 onsetBeats 	 onsetBarIndex 	 onsetBar 	 durationBeats 	 velocity  	 numerator 	 denominator 
77	1.19583	0.04644	0	0	4.09994e-035	0	1	4	4
60	1.76472	0.0580499	0	0	4.09994e-035	0	1	4	4
61	1.82277	0.249615	0	0	4.09994e-035	0	1	4	4
62	2.51356	0.0406349	0	0	4.09994e-035	0	1	4	4
62	2.55419	0.0406349	0	0	4.09994e-035	0	1	4	4
59	2.7922	0.238004	0	0	4.09994e-035	0	1	4	4
59	3.0302	0.261225	0	0	4.09994e-035	0	1	4	4
59	3.43075	0.400544	0	0	4.09994e-035	0	1	4	4
59	3.92998	0.110295	0	0	4.09994e-035	0	1	4	4
59	4.09252	0.0406351	0	0	4.09994e-035	0	1	4	4
59	4.44662	0.139319	0	0	4.09994e-035	0	1	4	4
64	5.25351	0.0638547	0	0	4.09994e-035	0	1	4	4
64	5.51474	0.15093	0	0	4.09994e-035	0	1	4	4
64	5.66567	0.121905	0	0	4.09994e-035	0	1	4	4
61	5.78757	0.0754647	0	0	4.09994e-035	0	1	4	4
60	5.89787	0.0290251	0	0	4.09994e-035	0	1	4	4
60	5.92689	0.15093	0	0	4.09994e-035	0	1	4	4
61	6.07782	0.0986848	0	0	4.09994e-035	0	1	4	4
63	6.22875	0.156735	0	0	4.09994e-035	0	1	4	4
63	6.38549	0.127709	0	0	4.09994e-035	0	1	4	4
61	6.5132	0.0290251	0	0	4.09994e-035	0	1	4	4
59	6.70476	0.110295	0	0	4.09994e-035	0	1	4	4
59	6.81506	0.0232196	0	0	4.09994e-035	0	1	4	4
61	6.83828	0.290249	0	0	4.09994e-035	0	1	4	4
61	7.67419	0.0290251	0	0	4.09994e-035	0	1	4	4
60	7.77868	0.0754647	0	0	4.09994e-035	0	1	4	4
59	7.87737	0.0696597	0	0	4.09994e-035	0	1	4	4
52	8.69587	0.0580492	0	0	4.09994e-035	0	1	4	4
64	9.01515	0.168344	0	0	4.09994e-035	0	1	4	4
62	10.0252	0.0232201	0	0	4.09994e-035	0	1	4	4
64	10.0484	0.574694	0	0	4.09994e-035	0	1	4	4
62	10.9598	0.17415	0	0	4.09994e-035	0	1	4	4
61	11.134	0.116099	0	0	4.09994e-035	0	1	4	4
61	11.2849	0.121904	0	0	4.09994e-035	0	1	4	4
59	12.7652	0.0754642	0	0	4.09994e-035	0	1	4	4
61	12.8406	0.307665	0	0	4.09994e-035	0	1	4	4
62	13.5895	0.0928793	0	0	4.09994e-035	0	1	4	4
59	14.2106	0.139319	0	0	4.09994e-035	0	1	4	4
57	14.6112	0.0696592	0	0	4.09994e-035	0	1	4	4
59	14.6866	0.37152	0	0	4.09994e-035	0	1	4	4
57	15.0581	0.777868	0	0	4.09994e-035	0	1	4	4
57	15.836	0.0464401	0	0	4.09994e-035	0	1	4	4
61	16.8635	0.0986862	0	0	4.09994e-035	0	1	4	4
64	17.1305	0.0290241	0	0	4.09994e-035	0	1	4	4
60	17.3917	0.0580482	0	0	4.09994e-035	0	1	4	4
61	17.7226	0.0754662	0	0	4.09994e-035	0	1	4	4
62	17.7981	0.203175	0	0	4.09994e-035	0	1	4	4
61	18.0013	0.0232201	0	0	4.09994e-035	0	1	4	4
60	18.0361	0.0406342	0	0	4.09994e-035	0	1	4	4
57	18.425	0.18576	0	0	4.09994e-035	0	1	4	4
69	18.6979	0.0290241	0	0	4.09994e-035	0	1	4	4
64	18.8778	0.0638542	0	0	4.09994e-035	0	1	4	4
64	18.9417	0.0464401	0	0	4.09994e-035	0	1	4	4
64	19.0984	0.029026	0	0	4.09994e-035	0	1	4	4
63	19.1449	0.0348301	0	0	4.09994e-035	0	1	4	4
59	19.1797	0.0754662	0	0	4.09994e-035	0	1	4	4
71	19.7312	0.0754662	0	0	4.09994e-035	0	1	4	4
64	19.8066	0.0754642	0	0	4.09994e-035	0	1	4	4
64	20.2536	0.284445	0	0	4.09994e-035	0	1	4	4
64	20.538	0.272835	0	0	4.09994e-035	0	1	4	4
62	21.1069	0.0232182	0	0	4.09994e-035	0	1	4	4
64	21.1534	0.586304	0	0	4.09994e-035	0	1	4	4
61	21.821	0.12771	0	0	4.09994e-035	0	1	4	4
62	22.0241	0.145124	0	0	4.09994e-035	0	1	4	4
61	22.1809	0.16254	0	0	4.09994e-035	0	1	4	4
62	22.3434	0.0696602	0	0	4.09994e-035	0	1	4	4
62	22.4131	0.110294	0	0	4.09994e-035	0	1	4	4
61	22.6104	0.203175	0	0	4.09994e-035	0	1	4	4
62	22.8136	0.0580502	0	0	4.09994e-035	0	1	4	4
61	22.9239	0.493423	0	0	4.09994e-035	0	1	4	4
61	23.4173	0.0986843	0	0	4.09994e-035	0	1	4	4
59	23.9107	0.1161	0	0	4.09994e-035	0	1	4	4
61	24.0268	0.156734	0	0	4.09994e-035	0	1	4	4
61	24.1836	0.191565	0	0	4.09994e-035	0	1	4	4
61	24.3751	0.0986843	0	0	4.09994e-035	0	1	4	4
57	24.9615	0.214785	0	0	4.09994e-035	0	1	4	4
61	25.3039	0.476009	0	0	4.09994e-035	0	1	4	4
61	25.78	0.0986843	0	0	4.09994e-035	0	1	4	4
59	26.3779	0.203175	0	0	4.09994e-035	0	1	4	4
59	26.581	0.464399	0	0	4.09994e-035	0	1	4	4
