midiPitch 	 onsetSec 	 durationSec 	 onsetBeats 	 onsetBarIndex 	 onsetBar 	 durationBeats 	 velocity  	 numerator 	 denominator 
56	0.0580499	0.0580499	0	0	0	0	1	4	4
55	0.1161	0.0464399	0	0	0	0	1	4	4
53	0.574694	0.110295	0	0	0	0	1	4	4
54	0.684989	0.156735	0	0	0	0	1	4	4
55	0.917188	0.0928799	0	0	0	0	1	4	4
54	1.01007	0.13932	0	0	0	0	1	4	4
53	1.2829	0.12771	0	0	0	0	1	4	4
54	1.41061	0.1161	0	0	0	0	1	4	4
55	1.61379	0.15093	0	0	0	0	1	4	4
54	1.76472	0.15093	0	0	0	0	1	4	4
54	1.91565	0.0696599	0	0	0	0	1	4	4
54	1.98531	0.197369	0	0	0	0	1	4	4
54	2.18268	0.156735	0	0	0	0	1	4	4
55	2.43229	0.133515	0	0	0	0	1	4	4
54	2.60063	0.0986848	0	0	0	0	1	4	4
54	2.69932	0.0696599	0	0	0	0	1	4	4
55	2.76898	0.179955	0	0	0	0	1	4	4
54	2.94893	0.0290251	0	0	0	0	1	4	4
53	2.97796	0.0812697	0	0	0	0	1	4	4
55	3.33787	0.156735	0	0	0	0	1	4	4
54	3.51202	0.0406351	0	0	0	0	1	4	4
54	3.55265	0.121905	0	0	0	0	1	4	4
54	3.67456	0.0638549	0	0	0	0	1	4	4
54	3.77324	0.08127	0	0	0	0	1	4	4
53	4.02866	0.139319	0	0	0	0	1	4	4
56	4.33052	0.0464396	0	0	0	0	1	4	4
54	4.66141	0.0754647	0	0	0	0	1	4	4
55	4.78912	0.0812697	0	0	0	0	1	4	4
55	4.87039	0.16254	0	0	0	0	1	4	4
54	5.09097	0.0754652	0	0	0	0	1	4	4
55	5.16644	0.0522447	0	0	0	0	1	4	4
54	5.21868	0.0870748	0	0	0	0	1	4	4
56	5.54957	0.2322	0	0	0	0	1	4	4
56	5.78177	0.133514	0	0	0	0	1	4	4
57	5.91528	0.1161	0	0	0	0	1	4	4
57	6.03138	0.0232201	0	0	0	0	1	4	4
57	6.15909	0.0232201	0	0	0	0	1	4	4
59	6.25197	0.0290251	0	0	0	0	1	4	4
57	6.32163	0.0812702	0	0	0	0	1	4	4
54	6.61188	0.0232201	0	0	0	0	1	4	4
53	6.94277	0.0406351	0	0	0	0	1	4	4
56	7.25624	0.10449	0	0	0	0	1	4	4
56	7.55809	0.1161	0	0	0	0	1	4	4
59	7.81932	0.0986848	0	0	0	0	1	4	4
56	8.01669	0.116099	0	0	0	0	1	4	4
55	8.13279	0.0406351	0	0	0	0	1	4	4
57	8.40562	0.0406351	0	0	0	0	1	4	4
60	8.88744	0.0754642	0	0	0	0	1	4	4
55	8.98032	0.0464401	0	0	0	0	1	4	4
55	9.03837	0.110294	0	0	0	0	1	4	4
57	9.18349	0.0406351	0	0	0	0	1	4	4
54	9.35184	0.0522451	0	0	0	0	1	4	4
58	9.5434	0.0870752	0	0	0	0	1	4	4
57	10.1994	0.0406351	0	0	0	0	1	4	4
56	10.3097	0.0290251	0	0	0	0	1	4	4
54	10.3619	0.0232201	0	0	0	0	1	4	4
58	10.5999	0.0638552	0	0	0	0	1	4	4
54	10.7566	0.0638542	0	0	0	0	1	4	4
58	11.0933	0.0754652	0	0	0	0	1	4	4
60	11.6158	0.0464401	0	0	0	0	1	4	4
53	11.7435	0.0696592	0	0	0	0	1	4	4
61	12.62	0.0464401	0	0	0	0	1	4	4
61	12.62	0.0580502	0	0	0	0	1	4	4
58	12.7013	0.110294	0	0	0	0	1	4	4
56	12.8116	0.0232201	0	0	0	0	1	4	4
56	12.8406	0.0348301	0	0	0	0	1	4	4
53	13.1483	0.0348301	0	0	0	0	1	4	4
4294967295	13.3283	0.017415	0	0	0	0	1	4	4
55	13.5198	0.127709	0	0	0	0	1	4	4
58	13.8565	0.0232201	0	0	0	0	1	4	4
55	14.2977	0.0638552	0	0	0	0	1	4	4
50	14.5647	0.0232201	0	0	0	0	1	4	4
57	14.5879	0.0928793	0	0	0	0	1	4	4
54	14.8317	0.0464392	0	0	0	0	1	4	4
53	15.122	0.0232201	0	0	0	0	1	4	4
57	15.1917	0.0232201	0	0	0	0	1	4	4
62	15.4761	0.0696602	0	0	0	0	1	4	4
62	16.045	0.0406342	0	0	0	0	1	4	4
65	16.1088	0.0406361	0	0	0	0	1	4	4
64	16.1669	0.0232201	0	0	0	0	1	4	4
58	16.4571	0.0232201	0	0	0	0	1	4	4
55	16.4862	0.0290241	0	0	0	0	1	4	4
65	16.7358	0.0464401	0	0	0	0	1	4	4
60	16.788	0.0232201	0	0	0	0	1	4	4
59	16.8112	0.0232201	0	0	0	0	1	4	4
59	17.4788	0.0290241	0	0	0	0	1	4	4
57	17.5949	0.0986843	0	0	0	0	1	4	4
57	17.7168	0.0638542	0	0	0	0	1	4	4
58	17.7807	0.0754642	0	0	0	0	1	4	4
61	18.1464	0.0232201	0	0	0	0	1	4	4
57	18.3089	0.0754662	0	0	0	0	1	4	4
59	18.8546	0.0290241	0	0	0	0	1	4	4
58	18.8836	0.0232201	0	0	0	0	1	4	4
56	18.9243	0.0812702	0	0	0	0	1	4	4
54	19.1681	0.0232201	0	0	0	0	1	4	4
57	19.2087	0.156734	0	0	0	0	1	4	4
58	19.586	0.0464401	0	0	0	0	1	4	4
62	19.6963	0.029026	0	0	0	0	1	4	4
61	19.7486	0.0696602	0	0	0	0	1	4	4
55	20.3407	0.0232201	0	0	0	0	1	4	4
55	20.3697	0.0522442	0	0	0	0	1	4	4
58	20.5555	0.0812702	0	0	0	0	1	4	4
56	20.9444	0.0348301	0	0	0	0	1	4	4
65	20.9966	0.12771	0	0	0	0	1	4	4
59	21.2637	0.0290241	0	0	0	0	1	4	4
58	22.0241	0.029026	0	0	0	0	1	4	4
59	22.3318	0.0522442	0	0	0	0	1	4	4
58	22.6569	0.0232201	0	0	0	0	1	4	4
63	22.7149	0.0232201	0	0	0	0	1	4	4
60	22.9355	0.0232182	0	0	0	0	1	4	4
61	22.9703	0.0232201	0	0	0	0	1	4	4
57	23.1329	0.0348301	0	0	0	0	1	4	4
56	23.1851	0.0406361	0	0	0	0	1	4	4
57	23.2258	0.0406342	0	0	0	0	1	4	4
57	23.2664	0.029026	0	0	0	0	1	4	4
55	23.3128	0.0812702	0	0	0	0	1	4	4
56	23.458	0.0812702	0	0	0	0	1	4	4
56	23.8237	0.0348301	0	0	0	0	1	4	4
56	23.8643	0.0232201	0	0	0	0	1	4	4
55	23.9107	0.0406361	0	0	0	0	1	4	4
60	24.3171	0.0348301	0	0	0	0	1	4	4
57	24.3693	0.0406342	0	0	0	0	1	4	4
56	24.4158	0.0232201	0	0	0	0	1	4	4
51	24.5203	0.0580502	0	0	0	0	1	4	4
54	24.6306	0.0638561	0	0	0	0	1	4	4
53	24.6944	0.0290241	0	0	0	0	1	4	4
55	24.7583	0.0812702	0	0	0	0	1	4	4
52	24.8454	0.0986862	0	0	0	0	1	4	4
61	25.2865	0.0638561	0	0	0	0	1	4	4
61	25.4084	0.0638542	0	0	0	0	1	4	4
62	25.6232	0.0870762	0	0	0	0	1	4	4
52	25.7683	0.0638542	0	0	0	0	1	4	4
52	25.8322	0.0522442	0	0	0	0	1	4	4
51	25.8844	0.145126	0	0	0	0	1	4	4
53	26.5868	0.0638542	0	0	0	0	1	4	4
52	26.8423	0.0290241	0	0	0	0	1	4	4
52	26.9119	0.10449	0	0	0	0	1	4	4
51	27.0164	0.0696602	0	0	0	0	1	4	4
52	27.1383	0.0406361	0	0	0	0	1	4	4
52	27.4344	0.0638542	0	0	0	0	1	4	4
53	27.6027	0.0638561	0	0	0	0	1	4	4
52	27.8233	0.0232201	0	0	0	0	1	4	4
53	27.8988	0.110294	0	0	0	0	1	4	4
53	28.1426	0.0928802	0	0	0	0	1	4	4
52	28.2413	0.185759	0	0	0	0	1	4	4
53	28.5838	0.179955	0	0	0	0	1	4	4
53	28.7637	0.0522461	0	0	0	0	1	4	4
52	29.0191	0.0986843	0	0	0	0	1	4	4
52	29.1178	0.0580502	0	0	0	0	1	4	4
