midiPitch 	 onsetSec 	 durationSec 	 onsetBeats 	 onsetBarIndex 	 onsetBar 	 durationBeats 	 velocity  	 numerator 	 denominator 
72	1.34676	0.03483	0	0	0	0	1	4	4
72	1.38159	0.0580499	0	0	0	0	1	4	4
73	1.44544	0.110295	0	0	0	0	1	4	4
73	1.55574	0.0580499	0	0	0	0	1	4	4
66	1.61379	0.1161	0	0	0	0	1	4	4
71	1.72989	0.0232201	0	0	0	0	1	4	4
71	1.75891	0.029025	0	0	0	0	1	4	4
71	1.78794	0.0638549	0	0	0	0	1	4	4
71	1.85179	0.029025	0	0	0	0	1	4	4
59	1.90984	0.19737	0	0	0	0	1	4	4
59	2.10721	0.20898	0	0	0	0	1	4	4
59	2.31619	0.0696597	0	0	0	0	1	4	4
59	2.40327	0.0580499	0	0	0	0	1	4	4
68	2.60063	0.0696599	0	0	0	0	1	4	4
68	2.67029	0.238004	0	0	0	0	1	4	4
68	2.93152	0.156735	0	0	0	0	1	4	4
68	3.08825	0.0696597	0	0	0	0	1	4	4
68	3.15791	0.17415	0	0	0	0	1	4	4
68	3.33206	0.10449	0	0	0	0	1	4	4
68	3.52943	0.08127	0	0	0	0	1	4	4
68	3.6107	0.1161	0	0	0	0	1	4	4
68	3.75002	0.0406349	0	0	0	0	1	4	4
68	3.81388	0.156735	0	0	0	0	1	4	4
68	3.97061	0.110295	0	0	0	0	1	4	4
68	4.10413	0.0870748	0	0	0	0	1	4	4
68	4.1912	0.10449	0	0	0	0	1	4	4
68	4.33052	0.0870748	0	0	0	0	1	4	4
68	4.4176	0.0928798	0	0	0	0	1	4	4
68	4.51048	0.0580497	0	0	0	0	1	4	4
68	4.63238	0.0928798	0	0	0	0	1	4	4
68	4.72526	0.0928798	0	0	0	0	1	4	4
68	4.81814	0.0522447	0	0	0	0	1	4	4
68	4.91102	0.145125	0	0	0	0	1	4	4
80	4.9981	0.0696602	0	0	0	0	1	4	4
87	5.06776	0.0406346	0	0	0	0	1	4	4
87	5.17225	0.0232196	0	0	0	0	1	4	4
87	5.19546	0.0986848	0	0	0	0	1	4	4
87	5.32317	0.0696597	0	0	0	0	1	4	4
87	5.43347	0.0406351	0	0	0	0	1	4	4
87	5.47991	0.0870748	0	0	0	0	1	4	4
80	5.57279	0.133514	0	0	0	0	1	4	4
80	5.7063	0.0406351	0	0	0	0	1	4	4
87	6.04299	0.0464401	0	0	0	0	1	4	4
80	6.11846	0.0406351	0	0	0	0	1	4	4
87	6.15909	0.0580497	0	0	0	0	1	4	4
87	6.32163	0.0348301	0	0	0	0	1	4	4
80	6.52481	0.1161	0	0	0	0	1	4	4
80	6.7512	0.1161	0	0	0	0	1	4	4
80	6.89052	0.0406346	0	0	0	0	1	4	4
80	6.96599	0.0522451	0	0	0	0	1	4	4
80	7.03565	0.0348301	0	0	0	0	1	4	4
80	7.13433	0.0812702	0	0	0	0	1	4	4
83	7.23882	0.0406351	0	0	0	0	1	4	4
83	7.31429	0.0406346	0	0	0	0	1	4	4
80	7.35492	0.0580502	0	0	0	0	1	4	4
80	7.42458	0.116099	0	0	0	0	1	4	4
80	7.54068	0.16254	0	0	0	0	1	4	4
83	7.75546	0.0928798	0	0	0	0	1	4	4
80	7.84834	0.0580502	0	0	0	0	1	4	4
80	7.98766	0.0696602	0	0	0	0	1	4	4
80	8.07474	0.0290241	0	0	0	0	1	4	4
80	8.17923	0.0986853	0	0	0	0	1	4	4
80	8.29533	0.0348291	0	0	0	0	1	4	4
80	8.34177	0.2322	0	0	0	0	1	4	4
80	8.64943	0.0232201	0	0	0	0	1	4	4
80	8.80617	0.0580502	0	0	0	0	1	4	4
78	8.89324	0.0870743	0	0	0	0	1	4	4
80	8.98032	0.0754652	0	0	0	0	1	4	4
78	9.06159	0.0348301	0	0	0	0	1	4	4
78	9.11964	0.150929	0	0	0	0	1	4	4
83	9.46794	0.0580502	0	0	0	0	1	4	4
80	9.52599	0.0580492	0	0	0	0	1	4	4
87	9.66531	0.0986843	0	0	0	0	1	4	4
73	9.81624	0.191565	0	0	0	0	1	4	4
87	10.0078	0.0638552	0	0	0	0	1	4	4
80	10.1994	0.0696602	0	0	0	0	1	4	4
87	10.3271	0.0522442	0	0	0	0	1	4	4
80	10.3793	0.0696602	0	0	0	0	1	4	4
80	10.5535	0.0870743	0	0	0	0	1	4	4
80	10.6638	0.145124	0	0	0	0	1	4	4
80	10.8089	0.0348301	0	0	0	0	1	4	4
80	10.8437	0.0638552	0	0	0	0	1	4	4
80	10.9076	0.127709	0	0	0	0	1	4	4
80	11.163	0.0290241	0	0	0	0	1	4	4
80	11.2268	0.0290251	0	0	0	0	1	4	4
80	11.5693	0.0754642	0	0	0	0	1	4	4
80	11.7725	0.110294	0	0	0	0	1	4	4
80	12.086	0.0754652	0	0	0	0	1	4	4
83	12.1615	0.0232201	0	0	0	0	1	4	4
80	12.1847	0.0580492	0	0	0	0	1	4	4
83	12.2427	0.0464401	0	0	0	0	1	4	4
80	12.2892	0.10449	0	0	0	0	1	4	4
80	12.3937	0.0464392	0	0	0	0	1	4	4
80	12.4401	0.0986853	0	0	0	0	1	4	4
80	12.5736	0.0928793	0	0	0	0	1	4	4
80	12.7536	0.139319	0	0	0	0	1	4	4
80	12.8929	0.0580502	0	0	0	0	1	4	4
80	12.9858	0.145124	0	0	0	0	1	4	4
80	13.2005	0.110294	0	0	0	0	1	4	4
73	13.3108	0.714014	0	0	0	0	1	4	4
73	14.0423	0.197371	0	0	0	0	1	4	4
78	14.2396	0.18576	0	0	0	0	1	4	4
78	14.5241	0.0580502	0	0	0	0	1	4	4
78	14.6924	0.0928802	0	0	0	0	1	4	4
73	14.9188	0.10449	0	0	0	0	1	4	4
78	15.0233	0.0522442	0	0	0	0	1	4	4
78	15.0756	0.0348301	0	0	0	0	1	4	4
83	15.1684	0.104489	0	0	0	0	1	4	4
83	15.2961	0.0638552	0	0	0	0	1	4	4
83	15.36	0.0870752	0	0	0	0	1	4	4
83	15.4471	0.0232201	0	0	0	0	1	4	4
76	15.4819	0.0406351	0	0	0	0	1	4	4
85	15.54	0.0290251	0	0	0	0	1	4	4
73	15.6038	0.0348301	0	0	0	0	1	4	4
83	15.6386	0.0580492	0	0	0	0	1	4	4
82	15.7083	0.1161	0	0	0	0	1	4	4
83	15.8708	0.0406342	0	0	0	0	1	4	4
82	15.9115	0.0290251	0	0	0	0	1	4	4
80	15.9811	0.104489	0	0	0	0	1	4	4
80	16.0856	0.0348301	0	0	0	0	1	4	4
80	16.1205	0.121904	0	0	0	0	1	4	4
80	16.2424	0.0870762	0	0	0	0	1	4	4
80	16.3468	0.0696602	0	0	0	0	1	4	4
80	16.4165	0.10449	0	0	0	0	1	4	4
80	16.521	0.127708	0	0	0	0	1	4	4
80	16.6893	0.1161	0	0	0	0	1	4	4
80	16.8054	0.0928783	0	0	0	0	1	4	4
80	16.8983	0.156734	0	0	0	0	1	4	4
80	17.1131	0.0754662	0	0	0	0	1	4	4
80	17.206	0.0870743	0	0	0	0	1	4	4
80	17.2931	0.0812702	0	0	0	0	1	4	4
80	17.3917	0.0870743	0	0	0	0	1	4	4
80	17.4788	0.110294	0	0	0	0	1	4	4
80	17.5891	0.145124	0	0	0	0	1	4	4
80	18.605	0.394739	0	0	0	0	1	4	4
80	21.3566	0.0696602	0	0	0	0	1	4	4
80	21.4262	0.110294	0	0	0	0	1	4	4
80	21.5365	0.0348301	0	0	0	0	1	4	4
85	21.5829	0.0754662	0	0	0	0	1	4	4
78	21.6584	0.121904	0	0	0	0	1	4	4
78	21.7803	0.185759	0	0	0	0	1	4	4
78	22.1634	0.15093	0	0	0	0	1	4	4
80	22.3144	0.0812683	0	0	0	0	1	4	4
80	22.4131	0.0522442	0	0	0	0	1	4	4
80	22.4653	0.0522461	0	0	0	0	1	4	4
80	22.5176	0.0696583	0	0	0	0	1	4	4
80	22.5872	0.0812702	0	0	0	0	1	4	4
80	22.6685	0.0812702	0	0	0	0	1	4	4
73	22.8891	0.0232201	0	0	0	0	1	4	4
85	22.9123	0.0870743	0	0	0	0	1	4	4
85	23.0458	0.139318	0	0	0	0	1	4	4
85	23.307	0.0464401	0	0	0	0	1	4	4
80	23.3535	0.104488	0	0	0	0	1	4	4
85	23.458	0.0754662	0	0	0	0	1	4	4
85	23.545	0.0580482	0	0	0	0	1	4	4
80	23.783	0.13932	0	0	0	0	1	4	4
80	23.9224	0.0580502	0	0	0	0	1	4	4
80	23.9804	0.12771	0	0	0	0	1	4	4
80	24.1139	0.0580502	0	0	0	0	1	4	4
80	24.201	0.319275	0	0	0	0	1	4	4
80	24.5377	0.0812683	0	0	0	0	1	4	4
80	24.619	0.296055	0	0	0	0	1	4	4
76	25.0659	0.110294	0	0	0	0	1	4	4
80	25.1762	0.0580502	0	0	0	0	1	4	4
87	25.2343	0.156734	0	0	0	0	1	4	4
87	25.4839	0.0986843	0	0	0	0	1	4	4
87	25.5826	0.0870743	0	0	0	0	1	4	4
87	25.6871	0.0812702	0	0	0	0	1	4	4
85	25.7974	0.0754642	0	0	0	0	1	4	4
85	25.8786	0.10449	0	0	0	0	1	4	4
85	25.9831	0.162539	0	0	0	0	1	4	4
80	26.2211	0.0464382	0	0	0	0	1	4	4
80	26.2676	0.0696602	0	0	0	0	1	4	4
80	26.3779	0.0522442	0	0	0	0	1	4	4
80	26.4301	0.13932	0	0	0	0	1	4	4
80	26.5694	0.226395	0	0	0	0	1	4	4
80	26.8655	0.13932	0	0	0	0	1	4	4
78	27.2776	0.12771	0	0	0	0	1	4	4
80	27.4054	0.127708	0	0	0	0	1	4	4
78	27.5737	0.104488	0	0	0	0	1	4	4
80	27.6782	0.133516	0	0	0	0	1	4	4
80	27.9394	0.18576	0	0	0	0	1	4	4
80	28.1252	0.0812702	0	0	0	0	1	4	4
78	28.2064	0.0986843	0	0	0	0	1	4	4
80	28.3051	0.208979	0	0	0	0	1	4	4
