midiPitch 	 onsetSec 	 durationSec 	 onsetBeats 	 onsetBarIndex 	 onsetBar 	 durationBeats 	 velocity  	 numerator 	 denominator 
67	0.20898	0.0290249	0	0	0	0	1	4	4
64	0.307664	0.0754648	0	0	0	0	1	4	4
62	0.655964	0.156735	0	0	0	0	1	4	4
59	0.905578	0.15093	0	0	0	0	1	4	4
59	1.12617	0.255419	0	0	0	0	1	4	4
64	1.44544	0.133515	0	0	0	0	1	4	4
64	1.59637	0.0638548	0	0	0	0	1	4	4
64	1.66023	0.121905	0	0	0	0	1	4	4
64	1.78794	0.110295	0	0	0	0	1	4	4
60	1.89823	0.17415	0	0	0	0	1	4	4
61	2.07819	0.0580499	0	0	0	0	1	4	4
61	2.14785	0.226395	0	0	0	0	1	4	4
59	2.53098	0.121905	0	0	0	0	1	4	4
57	2.65288	0.12771	0	0	0	0	1	4	4
57	2.78059	0.12771	0	0	0	0	1	4	4
56	3.0244	0.255419	0	0	0	0	1	4	4
63	6.37388	0.0986848	0	0	0	0	1	4	4
64	6.47256	0.168344	0	0	0	0	1	4	4
65	6.64091	0.179955	0	0	0	0	1	4	4
66	6.82086	0.145125	0	0	0	0	1	4	4
67	6.96599	0.0638547	0	0	0	0	1	4	4
68	7.04726	0.261225	0	0	0	0	1	4	4
64	8.39982	0.30186	0	0	0	0	1	4	4
61	8.91066	0.446983	0	0	0	0	1	4	4
61	10.6405	0.0290251	0	0	0	0	1	4	4
61	10.6754	0.0638552	0	0	0	0	1	4	4
68	10.9308	0.145124	0	0	0	0	1	4	4
69	11.1107	0.168344	0	0	0	0	1	4	4
69	11.3429	0.20898	0	0	0	0	1	4	4
69	11.5519	0.214785	0	0	0	0	1	4	4
68	11.7667	0.0986843	0	0	0	0	1	4	4
68	11.8828	0.417959	0	0	0	0	1	4	4
63	12.3704	0.145124	0	0	0	0	1	4	4
64	12.5156	0.348299	0	0	0	0	1	4	4
61	12.8871	0.505034	0	0	0	0	1	4	4
61	13.3921	0.17415	0	0	0	0	1	4	4
61	13.5663	0.0522451	0	0	0	0	1	4	4
61	13.8739	0.33669	0	0	0	0	1	4	4
64	14.4022	0.0406351	0	0	0	0	1	4	4
65	14.4486	0.127709	0	0	0	0	1	4	4
65	14.5763	0.127709	0	0	0	0	1	4	4
65	14.8317	0.0870743	0	0	0	0	1	4	4
66	15.0001	0.214785	0	0	0	0	1	4	4
62	15.36	0.150929	0	0	0	0	1	4	4
62	16.6777	0.0812702	0	0	0	0	1	4	4
59	16.9099	0.12771	0	0	0	0	1	4	4
59	17.0376	0.301859	0	0	0	0	1	4	4
64	17.4672	0.238005	0	0	0	0	1	4	4
60	17.8561	0.13932	0	0	0	0	1	4	4
62	17.9955	0.145124	0	0	0	0	1	4	4
61	18.1406	0.197371	0	0	0	0	1	4	4
83943784	22.3492	0.156736	0	0	0	0	1	4	4
65	22.5059	0.197369	0	0	0	0	1	4	4
67	22.8368	0.0464401	0	0	0	0	1	4	4
67	22.9181	0.0348301	0	0	0	0	1	4	4
68	22.9936	0.214785	0	0	0	0	1	4	4
68	23.8643	0.17415	0	0	0	0	1	4	4
68	24.0385	0.0580502	0	0	0	0	1	4	4
69	24.0965	0.203175	0	0	0	0	1	4	4
64	24.4854	0.232201	0	0	0	0	1	4	4
61	25.0253	0.0870762	0	0	0	0	1	4	4
70	25.1124	0.232199	0	0	0	0	1	4	4
71	25.3446	0.10449	0	0	0	0	1	4	4
69	25.5884	0.197369	0	0	0	0	1	4	4
71	25.867	0.249615	0	0	0	0	1	4	4
72	26.1166	0.162539	0	0	0	0	1	4	4
61	26.5578	0.220589	0	0	0	0	1	4	4
67	26.8365	0.15093	0	0	0	0	1	4	4
68	27.0861	0.1161	0	0	0	0	1	4	4
68	27.3067	0.220591	0	0	0	0	1	4	4
68	27.5447	0.17415	0	0	0	0	1	4	4
68	27.7188	0.278639	0	0	0	0	1	4	4
67	27.9975	0.145124	0	0	0	0	1	4	4
68	28.1426	0.029026	0	0	0	0	1	4	4
