midiPitch 	 onsetSec 	 durationSec 	 onsetBeats 	 onsetBarIndex 	 onsetBar 	 durationBeats 	 velocity  	 numerator 	 denominator 
61	0.592109	0.20898	0	0	0	0	1	4	4
61	0.801088	0.13932	0	0	0	0	1	4	4
61	0.940408	0.0696599	0	0	0	0	1	4	4
60	1.01007	0.0406349	0	0	0	0	1	4	4
57	1.05651	0.2322	0	0	0	0	1	4	4
61	1.79955	0.0232199	0	0	0	0	1	4	4
53	1.82857	0.0928798	0	0	0	0	1	4	4
53	1.92145	0.272834	0	0	0	0	1	4	4
56	2.30458	0.22059	0	0	0	0	1	4	4
56	2.52517	0.133515	0	0	0	0	1	4	4
53	2.65868	0.19737	0	0	0	0	1	4	4
51	3.00118	0.098685	0	0	0	0	1	4	4
53	3.09986	0.441179	0	0	0	0	1	4	4
56	6.22875	0.10449	0	0	0	0	1	4	4
57	6.33324	0.0812697	0	0	0	0	1	4	4
60	6.66413	0.19737	0	0	0	0	1	4	4
60	6.8615	0.0580497	0	0	0	0	1	4	4
65	7.00082	0.17415	0	0	0	0	1	4	4
59	7.34331	0.0580502	0	0	0	0	1	4	4
60	7.40136	0.110295	0	0	0	0	1	4	4
65	7.51166	0.609523	0	0	0	0	1	4	4
65	8.12118	0.0638552	0	0	0	0	1	4	4
65	8.18503	0.325079	0	0	0	0	1	4	4
65	8.51011	0.145125	0	0	0	0	1	4	4
65	8.65524	0.830113	0	0	0	0	1	4	4
65	9.48535	0.0754642	0	0	0	0	1	4	4
65	9.56082	0.307665	0	0	0	0	1	4	4
65	9.86848	0.2322	0	0	0	0	1	4	4
65	10.1007	0.0870743	0	0	0	0	1	4	4
65	10.1878	0.10449	0	0	0	0	1	4	4
66	10.2922	0.249615	0	0	0	0	1	4	4
63	10.5825	0.226395	0	0	0	0	1	4	4
65	11.0237	0.499229	0	0	0	0	1	4	4
60	12.9974	0.766258	0	0	0	0	1	4	4
60	13.7636	0.313469	0	0	0	0	1	4	4
59	14.4428	0.232199	0	0	0	0	1	4	4
60	14.675	0.0812702	0	0	0	0	1	4	4
56	14.8492	0.0348291	0	0	0	0	1	4	4
58	14.884	0.20898	0	0	0	0	1	4	4
65	15.1684	0.0638552	0	0	0	0	1	4	4
65	15.2323	0.110294	0	0	0	0	1	4	4
60	15.3426	0.464399	0	0	0	0	1	4	4
60	15.807	0.383129	0	0	0	0	1	4	4
65	16.2482	0.0928802	0	0	0	0	1	4	4
77	16.0044	0.75465	0	0	0	0	1	4	4
77	16.759	0.0522442	0	0	0	0	1	4	4
77	16.8112	0.743038	0	0	0	0	1	4	4
77	17.5543	0.66177	0	0	0	0	1	4	4
75	18.2161	0.0406342	0	0	0	0	1	4	4
77	18.6688	0.145126	0	0	0	0	1	4	4
77	18.8256	0.0696583	0	0	0	0	1	4	4
74	19.3771	0.330883	0	0	0	0	1	4	4
76	19.8647	0.0986843	0	0	0	0	1	4	4
60	22.9355	0.127708	0	0	0	0	1	4	4
55	23.2548	0.0348301	0	0	0	0	1	4	4
56	23.3186	0.0522442	0	0	0	0	1	4	4
65	23.3651	0.0812683	0	0	0	0	1	4	4
58	23.4463	0.0580502	0	0	0	0	1	4	4
60	23.6205	0.13932	0	0	0	0	1	4	4
60	23.8875	0.0928802	0	0	0	0	1	4	4
61	23.9804	0.0406342	0	0	0	0	1	4	4
60	24.0268	0.226395	0	0	0	0	1	4	4
60	24.2532	0.0522442	0	0	0	0	1	4	4
63	24.3055	0.0812702	0	0	0	0	1	4	4
60	24.3868	0.493423	0	0	0	0	1	4	4
60	24.9092	0.133514	0	0	0	0	1	4	4
60	25.1356	0.110294	0	0	0	0	1	4	4
60	25.2459	0.330885	0	0	0	0	1	4	4
60	25.7219	0.0580502	0	0	0	0	1	4	4
60	25.78	0.249615	0	0	0	0	1	4	4
65	26.0296	0.359909	0	0	0	0	1	4	4
60	26.3895	0.743038	0	0	0	0	1	4	4
65	27.1325	0.214785	0	0	0	0	1	4	4
62	27.8988	0.458593	0	0	0	0	1	4	4
