midiPitch 	 onsetSec 	 durationSec 	 onsetBeats 	 onsetBarIndex 	 onsetBar 	 durationBeats 	 velocity  	 numerator 	 denominator 
65	2.0956	0.0290251	0	0	2.97101e-035	0	1	4	4
69	2.61805	0.0290248	0	0	2.97101e-035	0	1	4	4
62	3.73261	0.0232201	0	0	2.97101e-035	0	1	4	4
66	4.44662	0.0232196	0	0	2.97101e-035	0	1	4	4
73	7.08789	0.0406346	0	0	2.97101e-035	0	1	4	4
72	7.26785	0.110295	0	0	2.97101e-035	0	1	4	4
67	7.72063	0.1161	0	0	2.97101e-035	0	1	4	4
68	7.83673	0.0696597	0	0	2.97101e-035	0	1	4	4
67	7.90639	0.0348301	0	0	2.97101e-035	0	1	4	4
71	8.18503	0.0232201	0	0	2.97101e-035	0	1	4	4
72	8.23147	0.0754642	0	0	2.97101e-035	0	1	4	4
70	8.30694	0.0232201	0	0	2.97101e-035	0	1	4	4
78	8.3824	0.10449	0	0	2.97101e-035	0	1	4	4
72	8.73651	0.0580502	0	0	2.97101e-035	0	1	4	4
68	8.82939	0.22059	0	0	2.97101e-035	0	1	4	4
70	9.06739	0.377324	0	0	2.97101e-035	0	1	4	4
68	9.68272	0.139319	0	0	2.97101e-035	0	1	4	4
68	9.82204	0.0986853	0	0	2.97101e-035	0	1	4	4
70	10.1355	0.121904	0	0	2.97101e-035	0	1	4	4
66	10.4025	0.0754652	0	0	2.97101e-035	0	1	4	4
75	10.5128	0.116099	0	0	2.97101e-035	0	1	4	4
73	11.1282	0.0464392	0	0	2.97101e-035	0	1	4	4
83	11.1688	0.156734	0	0	2.97101e-035	0	1	4	4
81	11.6042	0.20898	0	0	2.97101e-035	0	1	4	4
82	12.0395	0.110295	0	0	2.97101e-035	0	1	4	4
65	12.295	0.0870752	0	0	2.97101e-035	0	1	4	4
66	12.5156	0.133514	0	0	2.97101e-035	0	1	4	4
66	12.6839	0.0580502	0	0	2.97101e-035	0	1	4	4
64	12.742	0.0290251	0	0	2.97101e-035	0	1	4	4
69	13.0786	0.0232201	0	0	2.97101e-035	0	1	4	4
64	13.8217	0.145124	0	0	2.97101e-035	0	1	4	4
65	13.9668	0.0812693	0	0	2.97101e-035	0	1	4	4
66	14.0481	0.38313	0	0	2.97101e-035	0	1	4	4
69	14.9653	0.133514	0	0	2.97101e-035	0	1	4	4
65	15.1278	0.0754652	0	0	2.97101e-035	0	1	4	4
66	15.6038	0.116099	0	0	2.97101e-035	0	1	4	4
69	15.8592	0.104489	0	0	2.97101e-035	0	1	4	4
67	15.9927	0.168345	0	0	2.97101e-035	0	1	4	4
67	16.579	0.0406342	0	0	2.97101e-035	0	1	4	4
66	16.6197	0.0232201	0	0	2.97101e-035	0	1	4	4
67	16.8403	0.208981	0	0	2.97101e-035	0	1	4	4
67	17.0493	0.0928802	0	0	2.97101e-035	0	1	4	4
67	17.1479	0.16254	0	0	2.97101e-035	0	1	4	4
68	17.3105	0.0870743	0	0	2.97101e-035	0	1	4	4
66	17.4614	0.10449	0	0	2.97101e-035	0	1	4	4
68	17.8213	0.0348282	0	0	2.97101e-035	0	1	4	4
65	18.1116	0.0348301	0	0	2.97101e-035	0	1	4	4
65	18.1464	0.0232201	0	0	2.97101e-035	0	1	4	4
64	18.1696	0.0290241	0	0	2.97101e-035	0	1	4	4
70	18.7966	0.0406361	0	0	2.97101e-035	0	1	4	4
68	18.8836	0.029026	0	0	2.97101e-035	0	1	4	4
67	19.052	0.162539	0	0	2.97101e-035	0	1	4	4
67	19.2145	0.18576	0	0	2.97101e-035	0	1	4	4
66	19.4757	0.13932	0	0	2.97101e-035	0	1	4	4
66	19.6151	0.0928783	0	0	2.97101e-035	0	1	4	4
66	19.7079	0.278641	0	0	2.97101e-035	0	1	4	4
67	20.1375	0.121906	0	0	2.97101e-035	0	1	4	4
66	20.2594	0.110294	0	0	2.97101e-035	0	1	4	4
65	20.3697	0.10449	0	0	2.97101e-035	0	1	4	4
0	20.4742	0.243809	0	0	2.97101e-035	0	1	4	4
65	21.1476	0.156734	0	0	2.97101e-035	0	1	4	4
65	21.7571	0.0986843	0	0	2.97101e-035	0	1	4	4
67	22.1402	0.0638542	0	0	2.97101e-035	0	1	4	4
69	22.6278	0.1161	0	0	2.97101e-035	0	1	4	4
66	22.8949	0.029026	0	0	2.97101e-035	0	1	4	4
65	22.9413	0.0812702	0	0	2.97101e-035	0	1	4	4
71	23.5044	0.0522461	0	0	2.97101e-035	0	1	4	4
69	23.5973	0.0464401	0	0	2.97101e-035	0	1	4	4
68	23.6437	0.0464401	0	0	2.97101e-035	0	1	4	4
67	23.6902	0.0638542	0	0	2.97101e-035	0	1	4	4
64	23.754	0.0290241	0	0	2.97101e-035	0	1	4	4
72	24.41	0.0870743	0	0	2.97101e-035	0	1	4	4
68	24.6132	0.0348301	0	0	2.97101e-035	0	1	4	4
68	24.648	0.0406342	0	0	2.97101e-035	0	1	4	4
67	24.6886	0.0406361	0	0	2.97101e-035	0	1	4	4
65	24.7293	0.0232201	0	0	2.97101e-035	0	1	4	4
