midiPitch 	 onsetSec 	 durationSec 	 onsetBeats 	 onsetBarIndex 	 onsetBar 	 durationBeats 	 velocity  	 numerator 	 denominator 
64	0.325079	0.12771	0	0	3.77978e-035	0	1	4	4
64	0.528254	0.0290249	0	0	3.77978e-035	0	1	4	4
67	0.580499	0.121905	0	0	3.77978e-035	0	1	4	4
67	0.702404	0.18576	0	0	3.77978e-035	0	1	4	4
64	0.888163	0.16254	0	0	3.77978e-035	0	1	4	4
62	1.11456	0.179955	0	0	3.77978e-035	0	1	4	4
64	1.32934	0.0754648	0	0	3.77978e-035	0	1	4	4
62	1.56735	0.0754648	0	0	3.77978e-035	0	1	4	4
60	1.78794	0.203175	0	0	3.77978e-035	0	1	4	4
60	2.03175	0.0290251	0	0	3.77978e-035	0	1	4	4
58	2.96635	0.0348299	0	0	3.77978e-035	0	1	4	4
65	3.1463	0.0348299	0	0	3.77978e-035	0	1	4	4
65	3.18694	0.0406349	0	0	3.77978e-035	0	1	4	4
60	3.40753	0.179955	0	0	3.77978e-035	0	1	4	4
55	4.02866	0.0290246	0	0	3.77978e-035	0	1	4	4
64	4.22023	0.0754647	0	0	3.77978e-035	0	1	4	4
64	4.56272	0.0290251	0	0	3.77978e-035	0	1	4	4
64	4.61497	0.0290251	0	0	3.77978e-035	0	1	4	4
64	4.70204	0.0290251	0	0	3.77978e-035	0	1	4	4
62	4.78331	0.0348301	0	0	3.77978e-035	0	1	4	4
64	5.00971	0.0232201	0	0	3.77978e-035	0	1	4	4
64	5.05034	0.0580497	0	0	3.77978e-035	0	1	4	4
60	5.30576	0.1161	0	0	3.77978e-035	0	1	4	4
64	7.65678	0.0754652	0	0	3.77978e-035	0	1	4	4
64	7.88317	0.15093	0	0	3.77978e-035	0	1	4	4
66	8.0341	0.2322	0	0	3.77978e-035	0	1	4	4
66	8.2663	0.0406342	0	0	3.77978e-035	0	1	4	4
65	8.32435	0.145125	0	0	3.77978e-035	0	1	4	4
65	8.6088	0.0812702	0	0	3.77978e-035	0	1	4	4
67	8.91066	0.133514	0	0	3.77978e-035	0	1	4	4
65	9.24735	0.325079	0	0	3.77978e-035	0	1	4	4
69	9.67692	0.0870743	0	0	3.77978e-035	0	1	4	4
69	9.78141	0.0928802	0	0	3.77978e-035	0	1	4	4
69	9.87429	0.150929	0	0	3.77978e-035	0	1	4	4
69	10.0426	0.203175	0	0	3.77978e-035	0	1	4	4
68	10.2458	0.0290251	0	0	3.77978e-035	0	1	4	4
68	10.2806	0.0522451	0	0	3.77978e-035	0	1	4	4
70	10.3329	0.0696592	0	0	3.77978e-035	0	1	4	4
70	10.4083	0.249615	0	0	3.77978e-035	0	1	4	4
69	10.7683	0.10449	0	0	3.77978e-035	0	1	4	4
67	11.0411	0.226395	0	0	3.77978e-035	0	1	4	4
67	11.3313	0.0928793	0	0	3.77978e-035	0	1	4	4
70	11.7899	0.0928802	0	0	3.77978e-035	0	1	4	4
70	11.8828	0.10449	0	0	3.77978e-035	0	1	4	4
69	12.115	0.116099	0	0	3.77978e-035	0	1	4	4
69	12.3008	0.121904	0	0	3.77978e-035	0	1	4	4
69	12.4227	0.0754652	0	0	3.77978e-035	0	1	4	4
72	13.3631	0.0406351	0	0	3.77978e-035	0	1	4	4
60	13.5314	0.104489	0	0	3.77978e-035	0	1	4	4
62	13.9378	0.0232201	0	0	3.77978e-035	0	1	4	4
62	13.9958	0.0696592	0	0	3.77978e-035	0	1	4	4
77	14.4718	0.121905	0	0	3.77978e-035	0	1	4	4
65	14.5241	0.272835	0	0	3.77978e-035	0	1	4	4
64	15.0175	0.0638542	0	0	3.77978e-035	0	1	4	4
28762472	15.1568	0.0638552	0	0	3.77978e-035	0	1	4	4
67	15.2207	0.0464401	0	0	3.77978e-035	0	1	4	4
64	15.2671	0.0696592	0	0	3.77978e-035	0	1	4	4
64	15.3658	0.121904	0	0	3.77978e-035	0	1	4	4
58	15.6444	0.0580492	0	0	3.77978e-035	0	1	4	4
62	16.283	0.145124	0	0	3.77978e-035	0	1	4	4
60	16.5442	0.330883	0	0	3.77978e-035	0	1	4	4
62	17.3337	0.208979	0	0	3.77978e-035	0	1	4	4
60	18.6456	0.133514	0	0	3.77978e-035	0	1	4	4
64	18.8894	0.179955	0	0	3.77978e-035	0	1	4	4
64	19.0694	0.110294	0	0	3.77978e-035	0	1	4	4
64	19.1797	0.284445	0	0	3.77978e-035	0	1	4	4
64	19.5686	0.0754642	0	0	3.77978e-035	0	1	4	4
64	19.6441	0.16254	0	0	3.77978e-035	0	1	4	4
60	19.8995	0.365715	0	0	3.77978e-035	0	1	4	4
62	23.458	0.0986862	0	0	3.77978e-035	0	1	4	4
60	24.2126	0.0928802	0	0	3.77978e-035	0	1	4	4
66	24.381	0.0232182	0	0	3.77978e-035	0	1	4	4
65	24.41	0.0928802	0	0	3.77978e-035	0	1	4	4
69	24.7467	0.10449	0	0	3.77978e-035	0	1	4	4
67	24.9905	0.156734	0	0	3.77978e-035	0	1	4	4
69	25.1588	0.0986843	0	0	3.77978e-035	0	1	4	4
64	25.4491	0.16254	0	0	3.77978e-035	0	1	4	4
64	25.7625	0.214785	0	0	3.77978e-035	0	1	4	4
63	26.0238	0.0754642	0	0	3.77978e-035	0	1	4	4
67	26.1399	0.278639	0	0	3.77978e-035	0	1	4	4
67	26.4185	0.121904	0	0	3.77978e-035	0	1	4	4
63	26.5578	0.104488	0	0	3.77978e-035	0	1	4	4
64	26.7958	0.0406342	0	0	3.77978e-035	0	1	4	4
67	26.8597	0.110294	0	0	3.77978e-035	0	1	4	4
64	27.0106	0.185759	0	0	3.77978e-035	0	1	4	4
60	27.2834	0.365715	0	0	3.77978e-035	0	1	4	4
60	27.8872	0.0986843	0	0	3.77978e-035	0	1	4	4
60	27.9858	0.110294	0	0	3.77978e-035	0	1	4	4
60	28.0961	0.191565	0	0	3.77978e-035	0	1	4	4
60	28.3632	0.255419	0	0	3.77978e-035	0	1	4	4
62	28.636	0.179955	0	0	3.77978e-035	0	1	4	4
