midiPitch 	 onsetSec 	 durationSec 	 onsetBeats 	 onsetBarIndex 	 onsetBar 	 durationBeats 	 velocity  	 numerator 	 denominator 
57	0.371519	0.121905	0	0	0	0	1	4	4
58	2.41488	0.0348299	0	0	0	0	1	4	4
61	2.47873	0.0580497	0	0	0	0	1	4	4
61	2.54258	0.359909	0	0	0	0	1	4	4
58	3.00698	0.0290251	0	0	0	0	1	4	4
58	3.04181	0.0232198	0	0	0	0	1	4	4
58	3.08825	0.0290248	0	0	0	0	1	4	4
59	3.11728	0.0348299	0	0	0	0	1	4	4
60	3.17533	0.0580499	0	0	0	0	1	4	4
62	4.75429	0.0580497	0	0	0	0	1	4	4
61	4.81234	0.0290251	0	0	0	0	1	4	4
61	4.84717	0.127709	0	0	0	0	1	4	4
61	5.04454	0.0696597	0	0	0	0	1	4	4
62	5.11419	0.0348301	0	0	0	0	1	4	4
58	5.42186	0.0290251	0	0	0	0	1	4	4
57	5.47991	0.0290246	0	0	0	0	1	4	4
58	5.50893	0.0232201	0	0	0	0	1	4	4
57	5.55537	0.0580497	0	0	0	0	1	4	4
61	7.12272	0.0464396	0	0	0	0	1	4	4
58	7.16916	0.0232201	0	0	0	0	1	4	4
61	7.2098	0.0928798	0	0	0	0	1	4	4
61	7.31429	0.0464396	0	0	0	0	1	4	4
61	7.42458	0.0928798	0	0	0	0	1	4	4
61	7.70902	0.0348296	0	0	0	0	1	4	4
60	7.77868	0.0406351	0	0	0	0	1	4	4
60	7.82512	0.0580497	0	0	0	0	1	4	4
60	7.88317	0.0754647	0	0	0	0	1	4	4
60	7.95864	0.0696602	0	0	0	0	1	4	4
60	8.0283	0.0928793	0	0	0	0	1	4	4
66	8.87583	0.0928793	0	0	0	0	1	4	4
65	8.96871	0.0406351	0	0	0	0	1	4	4
65	9.00934	0.0406351	0	0	0	0	1	4	4
65	9.05578	0.0406351	0	0	0	0	1	4	4
64	9.17769	0.0290251	0	0	0	0	1	4	4
63	9.22413	0.0812702	0	0	0	0	1	4	4
59	9.49696	0.0290251	0	0	0	0	1	4	4
61	9.52599	0.0986843	0	0	0	0	1	4	4
60	9.62467	0.0696602	0	0	0	0	1	4	4
59	9.81624	0.0812702	0	0	0	0	1	4	4
59	9.93234	0.0812693	0	0	0	0	1	4	4
58	10.0659	0.0406351	0	0	0	0	1	4	4
59	10.1123	0.0638542	0	0	0	0	1	4	4
58	10.1761	0.26703	0	0	0	0	1	4	4
61	12.2543	0.0812702	0	0	0	0	1	4	4
62	12.3356	0.0580502	0	0	0	0	1	4	4
62	12.4111	0.0406351	0	0	0	0	1	4	4
63	12.4575	0.0696602	0	0	0	0	1	4	4
62	12.5272	0.0754652	0	0	0	0	1	4	4
62	12.6026	0.162539	0	0	0	0	1	4	4
63	12.7652	0.0348301	0	0	0	0	1	4	4
65	12.8058	0.284444	0	0	0	0	1	4	4
65	13.0902	0.17415	0	0	0	0	1	4	4
63	13.2644	0.0928802	0	0	0	0	1	4	4
63	13.3979	0.0986843	0	0	0	0	1	4	4
61	13.543	0.162539	0	0	0	0	1	4	4
59	14.1758	0.162539	0	0	0	0	1	4	4
58	15.5051	0.0464401	0	0	0	0	1	4	4
61	16.9041	0.0812702	0	0	0	0	1	4	4
61	17.1247	0.15093	0	0	0	0	1	4	4
62	17.2756	0.145124	0	0	0	0	1	4	4
60	17.5078	0.249615	0	0	0	0	1	4	4
58	17.7981	0.116098	0	0	0	0	1	4	4
58	17.9432	0.0986843	0	0	0	0	1	4	4
59	18.2973	0.0522461	0	0	0	0	1	4	4
58	18.5295	0.0870743	0	0	0	0	1	4	4
58	18.8894	0.168344	0	0	0	0	1	4	4
63	21.699	0.12771	0	0	0	0	1	4	4
63	21.8268	0.10449	0	0	0	0	1	4	4
63	21.9312	0.191565	0	0	0	0	1	4	4
63	22.2679	0.267029	0	0	0	0	1	4	4
65	22.7498	0.12771	0	0	0	0	1	4	4
65	22.9355	0.214785	0	0	0	0	1	4	4
65	23.1503	0.0348282	0	0	0	0	1	4	4
63	23.2838	0.249615	0	0	0	0	1	4	4
63	23.5334	0.110294	0	0	0	0	1	4	4
61	23.6437	0.278639	0	0	0	0	1	4	4
62	24.7525	0.145124	0	0	0	0	1	4	4
62	25.2459	0.208979	0	0	0	0	1	4	4
58	26.0934	0.0754642	0	0	0	0	1	4	4
65	26.6391	0.168344	0	0	0	0	1	4	4
61	26.941	0.185759	0	0	0	0	1	4	4
58	27.3531	0.232201	0	0	0	0	1	4	4
57	28.0265	0.110294	0	0	0	0	1	4	4
59	28.2239	0.18576	0	0	0	0	1	4	4
