midiPitch 	 onsetSec 	 durationSec 	 onsetBeats 	 onsetBarIndex 	 onsetBar 	 durationBeats 	 velocity  	 numerator 	 denominator 
70	0.24381	0.0522449	0	0	0	0	1	4	4
70	0.296054	0.0754648	0	0	0	0	1	4	4
71	0.406349	0.0232199	0	0	0	0	1	4	4
68	0.452789	0.02322	0	0	0	0	1	4	4
70	0.487619	0.0232199	0	0	0	0	1	4	4
70	0.644354	0.0754648	0	0	0	0	1	4	4
69	0.719819	0.0406349	0	0	0	0	1	4	4
67	0.766258	0.0696599	0	0	0	0	1	4	4
66	0.835918	0.0232199	0	0	0	0	1	4	4
67	0.981043	0.0348299	0	0	0	0	1	4	4
71	1.03909	0.0696599	0	0	0	0	1	4	4
70	1.10875	0.0638548	0	0	0	0	1	4	4
72	1.52671	0.029025	0	0	0	0	1	4	4
68	1.58476	0.040635	0	0	0	0	1	4	4
73	1.77052	0.029025	0	0	0	0	1	4	4
70	1.79955	0.029025	0	0	0	0	1	4	4
67	1.82857	0.0348299	0	0	0	0	1	4	4
66	1.91565	0.0522449	0	0	0	0	1	4	4
67	2.13624	0.179955	0	0	0	0	1	4	4
75	2.322	0.15093	0	0	0	0	1	4	4
71	2.66449	0.0290248	0	0	0	0	1	4	4
70	2.7922	0.0232198	0	0	0	0	1	4	4
69	2.81542	0.0290248	0	0	0	0	1	4	4
69	2.85025	0.0522449	0	0	0	0	1	4	4
68	3.07084	0.0928798	0	0	0	0	1	4	4
68	3.21596	0.110295	0	0	0	0	1	4	4
67	3.32626	0.0464399	0	0	0	0	1	4	4
70	4.10993	0.0464396	0	0	0	0	1	4	4
67	4.27828	0.0812697	0	0	0	0	1	4	4
68	4.46404	0.0580502	0	0	0	0	1	4	4
67	4.52209	0.145124	0	0	0	0	1	4	4
69	4.71365	0.0696597	0	0	0	0	1	4	4
70	4.95166	0.0290246	0	0	0	0	1	4	4
69	4.98068	0.0348301	0	0	0	0	1	4	4
66	5.09678	0.0232201	0	0	0	0	1	4	4
69	5.15483	0.0232196	0	0	0	0	1	4	4
71	5.31737	0.0290251	0	0	0	0	1	4	4
53	6.04299	0.0522451	0	0	0	0	1	4	4
52	6.09524	0.0696597	0	0	0	0	1	4	4
53	6.26358	0.0232201	0	0	0	0	1	4	4
56	6.31002	0.0406351	0	0	0	0	1	4	4
57	6.35066	0.0986848	0	0	0	0	1	4	4
55	6.62349	0.0638552	0	0	0	0	1	4	4
57	6.68735	0.0290246	0	0	0	0	1	4	4
56	6.81506	0.0464396	0	0	0	0	1	4	4
57	7.41878	0.0464396	0	0	0	0	1	4	4
59	7.46522	0.0290251	0	0	0	0	1	4	4
59	7.65097	0.0580502	0	0	0	0	1	4	4
57	7.74385	0.0290251	0	0	0	0	1	4	4
55	7.77868	0.110295	0	0	0	0	1	4	4
61	7.97605	0.0696602	0	0	0	0	1	4	4
58	8.71909	0.0406351	0	0	0	0	1	4	4
59	8.76553	0.0232201	0	0	0	0	1	4	4
58	8.79456	0.0290251	0	0	0	0	1	4	4
58	8.82358	0.0232201	0	0	0	0	1	4	4
55	8.99773	0.0754652	0	0	0	0	1	4	4
58	9.83946	0.0812702	0	0	0	0	1	4	4
58	9.96716	0.0406351	0	0	0	0	1	4	4
57	10.0717	0.104489	0	0	0	0	1	4	4
54	10.8553	0.0290251	0	0	0	0	1	4	4
59	11.0469	0.0696602	0	0	0	0	1	4	4
57	11.2675	0.0232201	0	0	0	0	1	4	4
56	11.2965	0.0696602	0	0	0	0	1	4	4
57	11.8132	0.0754652	0	0	0	0	1	4	4
59	12.1731	0.0522442	0	0	0	0	1	4	4
56	12.2253	0.0232201	0	0	0	0	1	4	4
55	12.3066	0.0232201	0	0	0	0	1	4	4
59	12.382	0.0232191	0	0	0	0	1	4	4
60	12.4111	0.0464401	0	0	0	0	1	4	4
57	12.4923	0.0406351	0	0	0	0	1	4	4
55	12.6897	0.0348301	0	0	0	0	1	4	4
54	12.7594	0.0638542	0	0	0	0	1	4	4
52	12.9625	0.0232201	0	0	0	0	1	4	4
54	13.2528	0.0522451	0	0	0	0	1	4	4
57	13.4037	0.0290241	0	0	0	0	1	4	4
58	13.4385	0.0986853	0	0	0	0	1	4	4
57	13.6359	0.0638552	0	0	0	0	1	4	4
55	13.8797	0.0754652	0	0	0	0	1	4	4
60	13.9958	0.0812693	0	0	0	0	1	4	4
55	14.1468	0.0290251	0	0	0	0	1	4	4
54	14.1758	0.0290251	0	0	0	0	1	4	4
56	14.2222	0.110294	0	0	0	0	1	4	4
55	14.4486	0.0580492	0	0	0	0	1	4	4
59	14.617	0.0232201	0	0	0	0	1	4	4
55	14.6866	0.15093	0	0	0	0	1	4	4
57	14.8724	0.110295	0	0	0	0	1	4	4
58	15.5922	0.0870752	0	0	0	0	1	4	4
57	15.8302	0.0348301	0	0	0	0	1	4	4
57	15.8941	0.0406351	0	0	0	0	1	4	4
56	15.9347	0.0406351	0	0	0	0	1	4	4
53	16.2656	0.0406361	0	0	0	0	1	4	4
57	16.4281	0.0290241	0	0	0	0	1	4	4
56	16.4978	0.0870743	0	0	0	0	1	4	4
56	16.6545	0.0522442	0	0	0	0	1	4	4
53	16.759	0.0290241	0	0	0	0	1	4	4
60	16.8635	0.0754662	0	0	0	0	1	4	4
58	16.939	0.0232201	0	0	0	0	1	4	4
57	17.206	0.0464401	0	0	0	0	1	4	4
53	17.2524	0.0522442	0	0	0	0	1	4	4
53	17.3047	0.029026	0	0	0	0	1	4	4
55	17.444	0.13932	0	0	0	0	1	4	4
57	17.682	0.0232201	0	0	0	0	1	4	4
53	17.8155	0.0696602	0	0	0	0	1	4	4
54	17.9664	0.0580502	0	0	0	0	1	4	4
56	18.5121	0.0754662	0	0	0	0	1	4	4
55	18.5876	0.0522442	0	0	0	0	1	4	4
55	18.6398	0.0464401	0	0	0	0	1	4	4
56	18.8894	0.0232201	0	0	0	0	1	4	4
55	18.9127	0.0290241	0	0	0	0	1	4	4
55	19.0055	0.0232201	0	0	0	0	1	4	4
55	19.139	0.0986843	0	0	0	0	1	4	4
55	19.4061	0.10449	0	0	0	0	1	4	4
57	20.2884	0.0406342	0	0	0	0	1	4	4
57	20.3755	0.0812702	0	0	0	0	1	4	4
58	20.5671	0.0580502	0	0	0	0	1	4	4
56	20.6251	0.0232201	0	0	0	0	1	4	4
53	20.8863	0.0522442	0	0	0	0	1	4	4
56	21.0431	0.029026	0	0	0	0	1	4	4
55	21.3391	0.0580502	0	0	0	0	1	4	4
54	21.4378	0.029026	0	0	0	0	1	4	4
58	21.6526	0.0348301	0	0	0	0	1	4	4
54	21.7977	0.0232201	0	0	0	0	1	4	4
55	21.9719	0.0290241	0	0	0	0	1	4	4
53	22.0996	0.0348301	0	0	0	0	1	4	4
55	22.2563	0.0348301	0	0	0	0	1	4	4
57	22.3724	0.0522461	0	0	0	0	1	4	4
53	22.5466	0.0522442	0	0	0	0	1	4	4
54	22.6511	0.0580502	0	0	0	0	1	4	4
56	22.7846	0.0406342	0	0	0	0	1	4	4
59	22.9645	0.0580502	0	0	0	0	1	4	4
56	23.0226	0.0638542	0	0	0	0	1	4	4
55	23.3883	0.0638561	0	0	0	0	1	4	4
55	23.5566	0.0406342	0	0	0	0	1	4	4
56	23.696	0.029026	0	0	0	0	1	4	4
56	23.725	0.0290241	0	0	0	0	1	4	4
55	23.7598	0.0290241	0	0	0	0	1	4	4
54	23.8411	0.110296	0	0	0	0	1	4	4
57	24.1255	0.0348301	0	0	0	0	1	4	4
54	24.2358	0.0870762	0	0	0	0	1	4	4
54	24.8628	0.13932	0	0	0	0	1	4	4
54	25.0021	0.139318	0	0	0	0	1	4	4
55	25.3214	0.0754662	0	0	0	0	1	4	4
55	25.3968	0.0464382	0	0	0	0	1	4	4
54	25.4433	0.0580502	0	0	0	0	1	4	4
56	25.7567	0.0754642	0	0	0	0	1	4	4
56	25.8961	0.0812702	0	0	0	0	1	4	4
54	26.0354	0.10449	0	0	0	0	1	4	4
55	26.4127	0.156734	0	0	0	0	1	4	4
58	26.6217	0.0232201	0	0	0	0	1	4	4
57	26.761	0.0522442	0	0	0	0	1	4	4
53	26.8132	0.0232201	0	0	0	0	1	4	4
55	26.8539	0.18576	0	0	0	0	1	4	4
56	27.0396	0.133514	0	0	0	0	1	4	4
56	27.4692	0.12771	0	0	0	0	1	4	4
56	27.6724	0.0406342	0	0	0	0	1	4	4
55	27.7188	0.145124	0	0	0	0	1	4	4
56	28.0497	0.0580482	0	0	0	0	1	4	4
54	28.5605	0.0522461	0	0	0	0	1	4	4
