midiPitch 	 onsetSec 	 durationSec 	 onsetBeats 	 onsetBarIndex 	 onsetBar 	 durationBeats 	 velocity  	 numerator 	 denominator 
60	0.0406349	0.0348299	0	0	0	0	1	4	4
58	0.145125	0.0348299	0	0	0	0	1	4	4
58	0.18576	0.0348299	0	0	0	0	1	4	4
57	0.22059	0.02322	0	0	0	0	1	4	4
55	0.278639	0.0348299	0	0	0	0	1	4	4
55	0.319274	0.0348299	0	0	0	0	1	4	4
55	0.377324	0.029025	0	0	0	0	1	4	4
54	0.423764	0.0986848	0	0	0	0	1	4	4
52	1.89243	0.029025	0	0	0	0	1	4	4
57	2.2117	0.0232198	0	0	0	0	1	4	4
60	2.26395	0.0696597	0	0	0	0	1	4	4
59	2.47293	0.10449	0	0	0	0	1	4	4
59	2.57741	0.0638547	0	0	0	0	1	4	4
60	3.6107	0.0638547	0	0	0	0	1	4	4
60	3.67456	0.0696599	0	0	0	0	1	4	4
59	3.91837	0.168344	0	0	0	0	1	4	4
59	4.10993	0.12771	0	0	0	0	1	4	4
57	4.74268	0.150929	0	0	0	0	1	4	4
59	5.05034	0.0290246	0	0	0	0	1	4	4
60	5.15483	0.127709	0	0	0	0	1	4	4
60	5.358	0.0580497	0	0	0	0	1	4	4
59	5.50313	0.0232201	0	0	0	0	1	4	4
60	5.53215	0.0638547	0	0	0	0	1	4	4
60	5.73533	0.0928798	0	0	0	0	1	4	4
60	5.86304	0.139319	0	0	0	0	1	4	4
60	6.22295	0.0812697	0	0	0	0	1	4	4
60	6.44354	0.0348301	0	0	0	0	1	4	4
60	6.55383	0.0406351	0	0	0	0	1	4	4
60	6.60027	0.110295	0	0	0	0	1	4	4
60	6.79764	0.0754647	0	0	0	0	1	4	4
59	6.92535	0.15093	0	0	0	0	1	4	4
64	7.55809	0.0464401	0	0	0	0	1	4	4
64	7.67419	0.0986848	0	0	0	0	1	4	4
64	7.90059	0.0232201	0	0	0	0	1	4	4
65	7.92381	0.0870748	0	0	0	0	1	4	4
64	8.0341	0.0232201	0	0	0	0	1	4	4
65	8.06313	0.0638542	0	0	0	0	1	4	4
64	8.24308	0.0928793	0	0	0	0	1	4	4
69	8.44045	0.121904	0	0	0	0	1	4	4
65	9.09061	0.0464392	0	0	0	0	1	4	4
63	9.13705	0.0290251	0	0	0	0	1	4	4
64	9.17188	0.0986853	0	0	0	0	1	4	4
62	9.41569	0.139319	0	0	0	0	1	4	4
64	9.68272	0.156734	0	0	0	0	1	4	4
63	9.83946	0.25542	0	0	0	0	1	4	4
64	10.4664	0.22059	0	0	0	0	1	4	4
62	10.9772	0.0870752	0	0	0	0	1	4	4
64	11.2152	0.1161	0	0	0	0	1	4	4
63	11.5055	0.0638552	0	0	0	0	1	4	4
60	12.0744	0.133514	0	0	0	0	1	4	4
60	12.6026	0.0754642	0	0	0	0	1	4	4
61	12.7594	0.110294	0	0	0	0	1	4	4
60	13.8333	0.0696592	0	0	0	0	1	4	4
59	14.0539	0.0986853	0	0	0	0	1	4	4
59	14.2106	0.127709	0	0	0	0	1	4	4
59	15.1859	0.0348301	0	0	0	0	1	4	4
57	15.2381	0.0696592	0	0	0	0	1	4	4
59	15.4877	0.156735	0	0	0	0	1	4	4
60	15.6444	0.133514	0	0	0	0	1	4	4
56	16.2598	0.168344	0	0	0	0	1	4	4
60	16.6081	0.0696602	0	0	0	0	1	4	4
60	16.9506	0.0290241	0	0	0	0	1	4	4
60	16.9854	0.0406342	0	0	0	0	1	4	4
60	17.1131	0.0580502	0	0	0	0	1	4	4
60	17.2292	0.110294	0	0	0	0	1	4	4
60	17.4672	0.0812702	0	0	0	0	1	4	4
60	17.6007	0.0986843	0	0	0	0	1	4	4
60	17.8097	0.133514	0	0	0	0	1	4	4
61	18.0651	0.0638542	0	0	0	0	1	4	4
62	18.1464	0.145124	0	0	0	0	1	4	4
60	18.3322	0.0754662	0	0	0	0	1	4	4
60	18.4076	0.226395	0	0	0	0	1	4	4
58	18.634	0.104488	0	0	0	0	1	4	4
60	19.0926	0.0522442	0	0	0	0	1	4	4
60	19.2319	0.0812683	0	0	0	0	1	4	4
60	19.4119	0.110294	0	0	0	0	1	4	4
61	19.586	0.0754662	0	0	0	0	1	4	4
60	19.7834	0.0986843	0	0	0	0	1	4	4
60	19.9517	0.1161	0	0	0	0	1	4	4
64	20.8283	0.0464401	0	0	0	0	1	4	4
64	20.8747	0.0232201	0	0	0	0	1	4	4
64	20.898	0.0638542	0	0	0	0	1	4	4
56	21.1882	0.13932	0	0	0	0	1	4	4
57	21.3275	0.220589	0	0	0	0	1	4	4
69	22.0938	0.15093	0	0	0	0	1	4	4
56	22.6801	0.0522461	0	0	0	0	1	4	4
56	22.7323	0.0406342	0	0	0	0	1	4	4
64	23.6844	0.029026	0	0	0	0	1	4	4
69	23.7134	0.0232201	0	0	0	0	1	4	4
64	23.7598	0.104488	0	0	0	0	1	4	4
69	24.1836	0.17415	0	0	0	0	1	4	4
60	25.3097	0.18576	0	0	0	0	1	4	4
58	25.6232	0.0928802	0	0	0	0	1	4	4
60	26.6855	0.029026	0	0	0	0	1	4	4
57	26.7146	0.0348301	0	0	0	0	1	4	4
57	26.7552	0.261225	0	0	0	0	1	4	4
57	27.713	0.0348301	0	0	0	0	1	4	4
56	27.9104	0.0290241	0	0	0	0	1	4	4
57	27.9394	0.0580502	0	0	0	0	1	4	4
60	28.1484	0.0638542	0	0	0	0	1	4	4
61	28.4386	0.0522461	0	0	0	0	1	4	4
60	28.607	0.1161	0	0	0	0	1	4	4
