midiPitch 	 onsetSec 	 durationSec 	 onsetBeats 	 onsetBarIndex 	 onsetBar 	 durationBeats 	 velocity  	 numerator 	 denominator 
75	2.02594	0.0348301	0	0	0	0	1	4	4
76	2.06658	0.0232198	0	0	0	0	1	4	4
75	2.0898	0.16254	0	0	0	0	1	4	4
75	2.29878	0.12771	0	0	0	0	1	4	4
67	2.40907	0.0696599	0	0	0	0	1	4	4
67	2.47873	0.12771	0	0	0	0	1	4	4
67	2.60644	0.0928798	0	0	0	0	1	4	4
67	2.69932	0.20898	0	0	0	0	1	4	4
67	2.9083	0.0522449	0	0	0	0	1	4	4
60	3.03601	0.226394	0	0	0	0	1	4	4
69	3.87773	0.690794	0	0	0	0	1	4	4
69	4.56853	0.307664	0	0	0	0	1	4	4
69	4.87619	0.16254	0	0	0	0	1	4	4
62	8.9629	0.29025	0	0	0	0	1	4	4
72	11.8654	0.0522451	0	0	0	0	1	4	4
60	12.382	0.104489	0	0	0	0	1	4	4
60	12.5098	0.121904	0	0	0	0	1	4	4
67	12.6317	0.27864	0	0	0	0	1	4	4
67	12.9103	0.470204	0	0	0	0	1	4	4
62	13.6882	0.499229	0	0	0	0	1	4	4
63	14.2396	0.18576	0	0	0	0	1	4	4
59	14.9769	0.179955	0	0	0	0	1	4	4
73	15.3948	0.162539	0	0	0	0	1	4	4
73	15.5574	0.139319	0	0	0	0	1	4	4
73	15.7431	0.145124	0	0	0	0	1	4	4
45	15.5632	0.597915	0	0	0	0	1	4	4
56	17.0551	0.313471	0	0	0	0	1	4	4
57	17.4846	0.0580502	0	0	0	0	1	4	4
57	17.5427	0.0232201	0	0	0	0	1	4	4
58	17.8271	0.0406342	0	0	0	0	1	4	4
60	17.8736	0.325079	0	0	0	0	1	4	4
60	18.1986	1.13197	0	0	0	0	1	4	4
60	19.3306	0.0406342	0	0	0	0	1	4	4
60	19.3712	0.16254	0	0	0	0	1	4	4
60	19.8415	0.121904	0	0	0	0	1	4	4
60	19.9982	0.313469	0	0	0	0	1	4	4
60	20.3117	0.10449	0	0	0	0	1	4	4
59	20.4161	0.905577	0	0	0	0	1	4	4
59	21.3217	0.232201	0	0	0	0	1	4	4
59	21.5539	0.16254	0	0	0	0	1	4	4
59	21.7165	0.243809	0	0	0	0	1	4	4
59	21.9603	0.179955	0	0	0	0	1	4	4
60	22.1402	0.748844	0	0	0	0	1	4	4
59	22.8891	0.0232201	0	0	0	0	1	4	4
59	22.9703	0.290251	0	0	0	0	1	4	4
59	23.2606	0.394739	0	0	0	0	1	4	4
56	25.7161	0.133514	0	0	0	0	1	4	4
57	25.8786	0.777868	0	0	0	0	1	4	4
57	26.8481	0.0406342	0	0	0	0	1	4	4
57	26.8887	0.121906	0	0	0	0	1	4	4
59	27.0106	0.145124	0	0	0	0	1	4	4
60	27.1557	0.145124	0	0	0	0	1	4	4
60	27.4982	0.412155	0	0	0	0	1	4	4
60	27.9858	0.0406361	0	0	0	0	1	4	4
60	28.0323	0.197371	0	0	0	0	1	4	4
60	28.2297	0.673378	0	0	0	0	1	4	4
60	28.903	0.238005	0	0	0	0	1	4	4
60	29.141	0.0870743	0	0	0	0	1	4	4
60	29.5474	0.342495	0	0	0	0	1	4	4
