midiPitch 	 onsetSec 	 durationSec 	 onsetBeats 	 onsetBarIndex 	 onsetBar 	 durationBeats 	 velocity  	 numerator 	 denominator 
55	0.13932	0.301859	0	0	0	0	1	4	4
55	0.441179	0.203175	0	0	0	0	1	4	4
55	0.644354	0.17415	0	0	0	0	1	4	4
56	0.818503	0.226395	0	0	0	0	1	4	4
55	1.09714	0.284444	0	0	0	0	1	4	4
54	1.41061	0.0986848	0	0	0	0	1	4	4
56	1.5093	0.133515	0	0	0	0	1	4	4
56	3.30884	0.168345	0	0	0	0	1	4	4
57	3.47719	0.1161	0	0	0	0	1	4	4
58	3.59329	0.20898	0	0	0	0	1	4	4
58	4.09252	0.191565	0	0	0	0	1	4	4
58	4.28408	0.510839	0	0	0	0	1	4	4
58	4.79492	0.731429	0	0	0	0	1	4	4
59	5.52635	0.15093	0	0	0	0	1	4	4
60	5.67728	0.603719	0	0	0	0	1	4	4
51	6.7454	0.121905	0	0	0	0	1	4	4
58	8.37079	0.29025	0	0	0	0	1	4	4
58	8.66104	0.0580492	0	0	0	0	1	4	4
58	8.71909	0.29025	0	0	0	0	1	4	4
60	9.00934	0.359909	0	0	0	0	1	4	4
58	9.36925	0.638549	0	0	0	0	1	4	4
62	10.0078	0.19737	0	0	0	0	1	4	4
63	10.2052	0.621134	0	0	0	0	1	4	4
55	11.2501	0.139319	0	0	0	0	1	4	4
56	11.3894	0.0232201	0	0	0	0	1	4	4
58	11.43	0.10449	0	0	0	0	1	4	4
59	11.5345	0.162539	0	0	0	0	1	4	4
59	11.7377	0.18576	0	0	0	0	1	4	4
59	12.2543	0.0754652	0	0	0	0	1	4	4
56	12.3298	0.0348301	0	0	0	0	1	4	4
58	12.4053	0.13932	0	0	0	0	1	4	4
56	13.9204	0.22059	0	0	0	0	1	4	4
58	14.141	0.626939	0	0	0	0	1	4	4
58	15.0697	0.156735	0	0	0	0	1	4	4
0	15.2265	0.179955	0	0	0	0	1	4	4
60	15.4064	0.522449	0	0	0	0	1	4	4
57	17.9839	0.0696602	0	0	0	0	1	4	4
58	18.2393	0.255419	0	0	0	0	1	4	4
60	18.4947	0.330885	0	0	0	0	1	4	4
58	18.8256	0.296053	0	0	0	0	1	4	4
58	19.1216	0.243811	0	0	0	0	1	4	4
62	19.5164	0.110296	0	0	0	0	1	4	4
62	19.6267	0.185759	0	0	0	0	1	4	4
63	19.8124	0.313469	0	0	0	0	1	4	4
55	20.3175	0.383131	0	0	0	0	1	4	4
65	20.7006	0.0348282	0	0	0	0	1	4	4
58	21.1708	0.133514	0	0	0	0	1	4	4
58	21.3043	0.15093	0	0	0	0	1	4	4
58	21.4552	0.383129	0	0	0	0	1	4	4
58	21.8384	0.162539	0	0	0	0	1	4	4
58	22.0009	0.208981	0	0	0	0	1	4	4
58	22.2099	0.12771	0	0	0	0	1	4	4
58	22.3376	0.220589	0	0	0	0	1	4	4
58	22.5582	0.145124	0	0	0	0	1	4	4
58	22.7033	0.348299	0	0	0	0	1	4	4
63	23.249	0.429569	0	0	0	0	1	4	4
63	23.6785	0.185759	0	0	0	0	1	4	4
75	23.6785	1.5093	0	0	0	0	1	4	4
75	25.2575	0.1161	0	0	0	0	1	4	4
76	25.3852	0.0986843	0	0	0	0	1	4	4
63	24.677	1.66603	0	0	0	0	1	4	4
63	26.343	0.0754642	0	0	0	0	1	4	4
63	26.4185	0.0406342	0	0	0	0	1	4	4
62	26.4649	0.296055	0	0	0	0	1	4	4
60	26.761	0.325079	0	0	0	0	1	4	4
60	27.1093	0.0928802	0	0	0	0	1	4	4
60	27.3183	0.307665	0	0	0	0	1	4	4
60	27.6259	0.179955	0	0	0	0	1	4	4
62	27.8059	0.441179	0	0	0	0	1	4	4
