midiPitch 	 onsetSec 	 durationSec 	 onsetBeats 	 onsetBarIndex 	 onsetBar 	 durationBeats 	 velocity  	 numerator 	 denominator 
71	3.721	0.0232201	0	0	3.85548e-035	0	1	4	4
75	4.94005	0.0406346	0	0	3.85548e-035	0	1	4	4
77	5.06776	0.116099	0	0	3.85548e-035	0	1	4	4
76	5.50313	0.0348301	0	0	3.85548e-035	0	1	4	4
77	5.75855	0.0348296	0	0	3.85548e-035	0	1	4	4
78	5.79338	0.0348301	0	0	3.85548e-035	0	1	4	4
76	5.82821	0.0348301	0	0	3.85548e-035	0	1	4	4
77	6.01397	0.0580502	0	0	3.85548e-035	0	1	4	4
78	6.13007	0.0290251	0	0	3.85548e-035	0	1	4	4
76	6.15909	0.0290251	0	0	3.85548e-035	0	1	4	4
75	6.19392	0.0290246	0	0	3.85548e-035	0	1	4	4
76	6.31583	0.0754652	0	0	3.85548e-035	0	1	4	4
76	6.89052	0.0290246	0	0	3.85548e-035	0	1	4	4
76	6.93116	0.0348301	0	0	3.85548e-035	0	1	4	4
75	7.04145	0.0464401	0	0	3.85548e-035	0	1	4	4
77	7.23882	0.0638552	0	0	3.85548e-035	0	1	4	4
75	7.30268	0.0406346	0	0	3.85548e-035	0	1	4	4
78	7.52327	0.0290246	0	0	3.85548e-035	0	1	4	4
65	7.46522	0.0928798	0	0	3.85548e-035	0	1	4	4
65	7.97025	0.0870752	0	0	3.85548e-035	0	1	4	4
65	8.1444	0.121905	0	0	3.85548e-035	0	1	4	4
65	8.31855	0.10449	0	0	3.85548e-035	0	1	4	4
65	8.42304	0.0406351	0	0	3.85548e-035	0	1	4	4
63	8.70748	0.220589	0	0	3.85548e-035	0	1	4	4
77	9.03256	0.0464401	0	0	3.85548e-035	0	1	4	4
77	9.44472	0.0348301	0	0	3.85548e-035	0	1	4	4
79	9.48535	0.0406351	0	0	3.85548e-035	0	1	4	4
78	9.52599	0.0232191	0	0	3.85548e-035	0	1	4	4
76	10.3561	0.0232201	0	0	3.85548e-035	0	1	4	4
76	10.4025	0.0348301	0	0	3.85548e-035	0	1	4	4
77	10.4432	0.133514	0	0	3.85548e-035	0	1	4	4
77	11.0411	0.0638552	0	0	3.85548e-035	0	1	4	4
84	12.0918	0.0348301	0	0	3.85548e-035	0	1	4	4
76	12.1266	0.0290251	0	0	3.85548e-035	0	1	4	4
76	12.3008	0.168344	0	0	3.85548e-035	0	1	4	4
76	12.5794	0.0754642	0	0	3.85548e-035	0	1	4	4
76	12.6781	0.0754652	0	0	3.85548e-035	0	1	4	4
77	12.8929	0.0348301	0	0	3.85548e-035	0	1	4	4
76	12.9858	0.104489	0	0	3.85548e-035	0	1	4	4
76	13.1425	0.0754652	0	0	3.85548e-035	0	1	4	4
78	13.2412	0.0232201	0	0	3.85548e-035	0	1	4	4
76	13.3515	0.0696602	0	0	3.85548e-035	0	1	4	4
75	13.4385	0.0290251	0	0	3.85548e-035	0	1	4	4
77	13.5605	0.0580502	0	0	3.85548e-035	0	1	4	4
76	14.0249	0.0232191	0	0	3.85548e-035	0	1	4	4
77	14.0539	0.0812702	0	0	3.85548e-035	0	1	4	4
75	14.2629	0.0812702	0	0	3.85548e-035	0	1	4	4
77	14.4312	0.116099	0	0	3.85548e-035	0	1	4	4
75	14.7389	0.110295	0	0	3.85548e-035	0	1	4	4
75	14.855	0.0464392	0	0	3.85548e-035	0	1	4	4
77	14.9014	0.0348301	0	0	3.85548e-035	0	1	4	4
75	14.9362	0.0348301	0	0	3.85548e-035	0	1	4	4
77	15.8302	0.0638542	0	0	3.85548e-035	0	1	4	4
78	15.8941	0.0348301	0	0	3.85548e-035	0	1	4	4
75	15.9521	0.0348301	0	0	3.85548e-035	0	1	4	4
78	16.254	0.0696602	0	0	3.85548e-035	0	1	4	4
78	16.3643	0.0580482	0	0	3.85548e-035	0	1	4	4
78	16.7996	0.0290241	0	0	3.85548e-035	0	1	4	4
79	16.8287	0.029026	0	0	3.85548e-035	0	1	4	4
77	16.8577	0.0232201	0	0	3.85548e-035	0	1	4	4
78	16.8809	0.133514	0	0	3.85548e-035	0	1	4	4
74	17.0318	0.168346	0	0	3.85548e-035	0	1	4	4
79	23.069	0.0812702	0	0	3.85548e-035	0	1	4	4
80	23.5276	0.0232201	0	0	3.85548e-035	0	1	4	4
77	23.8991	0.0522461	0	0	3.85548e-035	0	1	4	4
76	24.0327	0.0406361	0	0	3.85548e-035	0	1	4	4
77	24.0791	0.145124	0	0	3.85548e-035	0	1	4	4
77	24.468	0.0406342	0	0	3.85548e-035	0	1	4	4
76	24.6828	0.0928802	0	0	3.85548e-035	0	1	4	4
77	24.8686	0.0522461	0	0	3.85548e-035	0	1	4	4
78	24.9731	0.0232201	0	0	3.85548e-035	0	1	4	4
78	25.2227	0.0406342	0	0	3.85548e-035	0	1	4	4
78	25.5013	0.029026	0	0	3.85548e-035	0	1	4	4
75	25.5594	0.0696602	0	0	3.85548e-035	0	1	4	4
78	26.018	0.0580482	0	0	3.85548e-035	0	1	4	4
66	26.7958	0.0696583	0	0	3.85548e-035	0	1	4	4
66	26.9235	0.0580502	0	0	3.85548e-035	0	1	4	4
77	27.1325	0.0638542	0	0	3.85548e-035	0	1	4	4
77	27.4982	0.0406361	0	0	3.85548e-035	0	1	4	4
78	27.5447	0.0348301	0	0	3.85548e-035	0	1	4	4
76	27.5795	0.0928802	0	0	3.85548e-035	0	1	4	4
72	27.6724	0.0232201	0	0	3.85548e-035	0	1	4	4
78	27.8872	0.0522442	0	0	3.85548e-035	0	1	4	4
76	27.98	0.110294	0	0	3.85548e-035	0	1	4	4
78	28.2181	0.0406342	0	0	3.85548e-035	0	1	4	4
77	28.2587	0.0406342	0	0	3.85548e-035	0	1	4	4
76	28.3516	0.0812702	0	0	3.85548e-035	0	1	4	4
77	28.5257	0.0406361	0	0	3.85548e-035	0	1	4	4
82	29.0424	0.0348301	0	0	3.85548e-035	0	1	4	4
76	29.2107	0.0638542	0	0	3.85548e-035	0	1	4	4
76	29.2746	0.0232201	0	0	3.85548e-035	0	1	4	4
