midiPitch 	 onsetSec 	 durationSec 	 onsetBeats 	 onsetBarIndex 	 onsetBar 	 durationBeats 	 velocity  	 numerator 	 denominator 
81	0.841723	0.03483	0	0	2.46327e-035	0	1	4	4
85	0.876553	0.0522449	0	0	2.46327e-035	0	1	4	4
85	1.03329	0.0232199	0	0	2.46327e-035	0	1	4	4
81	1.11456	0.0232201	0	0	2.46327e-035	0	1	4	4
78	1.38739	0.0464399	0	0	2.46327e-035	0	1	4	4
83	1.45705	0.0522449	0	0	2.46327e-035	0	1	4	4
82	1.54993	0.0232199	0	0	2.46327e-035	0	1	4	4
82	1.57315	0.0232199	0	0	2.46327e-035	0	1	4	4
82	1.60218	0.0232201	0	0	2.46327e-035	0	1	4	4
76	3.30304	0.0406349	0	0	2.46327e-035	0	1	4	4
76	3.34948	0.0232198	0	0	2.46327e-035	0	1	4	4
66	3.44236	0.0638549	0	0	2.46327e-035	0	1	4	4
64	3.51202	0.0348301	0	0	2.46327e-035	0	1	4	4
65	3.64553	0.0406349	0	0	2.46327e-035	0	1	4	4
64	3.69197	0.0580499	0	0	2.46327e-035	0	1	4	4
65	3.80227	0.0290248	0	0	2.46327e-035	0	1	4	4
64	3.83129	0.0290251	0	0	2.46327e-035	0	1	4	4
66	4.47565	0.296054	0	0	2.46327e-035	0	1	4	4
63	5.78757	0.0812697	0	0	2.46327e-035	0	1	4	4
64	6.0488	0.162539	0	0	2.46327e-035	0	1	4	4
64	6.31002	0.0406351	0	0	2.46327e-035	0	1	4	4
64	6.35646	0.0348301	0	0	2.46327e-035	0	1	4	4
64	6.3971	0.133514	0	0	2.46327e-035	0	1	4	4
71	7.89478	0.0348301	0	0	2.46327e-035	0	1	4	4
64	8.08635	0.0348291	0	0	2.46327e-035	0	1	4	4
84	8.43465	0.0232201	0	0	2.46327e-035	0	1	4	4
79	9.15447	0.0232201	0	0	2.46327e-035	0	1	4	4
78	9.18349	0.0928802	0	0	2.46327e-035	0	1	4	4
83	9.34603	0.0406351	0	0	2.46327e-035	0	1	4	4
80	9.7756	0.0290251	0	0	2.46327e-035	0	1	4	4
81	9.80463	0.0232201	0	0	2.46327e-035	0	1	4	4
84	9.88009	0.0232201	0	0	2.46327e-035	0	1	4	4
86	9.93234	0.0290241	0	0	2.46327e-035	0	1	4	4
86	9.96136	0.0290251	0	0	2.46327e-035	0	1	4	4
83	9.99619	0.0290251	0	0	2.46327e-035	0	1	4	4
85	12.3414	0.0406351	0	0	2.46327e-035	0	1	4	4
84	12.4227	0.0232201	0	0	2.46327e-035	0	1	4	4
75	12.742	0.0754642	0	0	2.46327e-035	0	1	4	4
84	13.6882	0.0406351	0	0	2.46327e-035	0	1	4	4
85	13.7346	0.0580502	0	0	2.46327e-035	0	1	4	4
84	13.7927	0.0290251	0	0	2.46327e-035	0	1	4	4
87	14.0481	0.0232201	0	0	2.46327e-035	0	1	4	4
87	14.0713	0.0406351	0	0	2.46327e-035	0	1	4	4
83	14.3093	0.0348301	0	0	2.46327e-035	0	1	4	4
82	14.3441	0.0406351	0	0	2.46327e-035	0	1	4	4
84	14.3848	0.0290251	0	0	2.46327e-035	0	1	4	4
85	14.4138	0.0986843	0	0	2.46327e-035	0	1	4	4
84	14.913	0.0522451	0	0	2.46327e-035	0	1	4	4
84	14.9653	0.0290251	0	0	2.46327e-035	0	1	4	4
86	15.6444	0.0754642	0	0	2.46327e-035	0	1	4	4
83	15.7315	0.0348301	0	0	2.46327e-035	0	1	4	4
83	15.8302	0.0348301	0	0	2.46327e-035	0	1	4	4
