midiPitch 	 onsetSec 	 durationSec 	 onsetBeats 	 onsetBarIndex 	 onsetBar 	 durationBeats 	 velocity  	 numerator 	 denominator 
62	0.499229	0.0464399	0	0	5.04032e-035	0	1	4	4
62	0.673379	0.18576	0	0	5.04032e-035	0	1	4	4
58	0.864943	0.02322	0	0	5.04032e-035	0	1	4	4
57	0.893968	0.0754648	0	0	5.04032e-035	0	1	4	4
56	1.13778	0.0232199	0	0	5.04032e-035	0	1	4	4
59	1.20744	0.0580499	0	0	5.04032e-035	0	1	4	4
60	1.26549	0.2322	0	0	5.04032e-035	0	1	4	4
60	1.55574	0.13932	0	0	5.04032e-035	0	1	4	4
62	2.01433	0.168344	0	0	5.04032e-035	0	1	4	4
62	2.18268	0.156735	0	0	5.04032e-035	0	1	4	4
58	2.85025	0.1161	0	0	5.04032e-035	0	1	4	4
60	3.16372	0.16254	0	0	5.04032e-035	0	1	4	4
63	3.61651	0.087075	0	0	5.04032e-035	0	1	4	4
62	3.79066	0.17415	0	0	5.04032e-035	0	1	4	4
56	4.00544	0.0928798	0	0	5.04032e-035	0	1	4	4
57	4.22603	0.133514	0	0	5.04032e-035	0	1	4	4
60	4.35955	0.156735	0	0	5.04032e-035	0	1	4	4
62	5.16063	0.121904	0	0	5.04032e-035	0	1	4	4
62	5.38122	0.16254	0	0	5.04032e-035	0	1	4	4
60	5.54376	0.0232201	0	0	5.04032e-035	0	1	4	4
58	5.78757	0.127709	0	0	5.04032e-035	0	1	4	4
61	5.99075	0.156734	0	0	5.04032e-035	0	1	4	4
61	6.29841	0.116099	0	0	5.04032e-035	0	1	4	4
62	6.79764	0.203175	0	0	5.04032e-035	0	1	4	4
62	7.00082	0.0870748	0	0	5.04032e-035	0	1	4	4
57	7.43619	0.0928802	0	0	5.04032e-035	0	1	4	4
60	7.60454	0.145124	0	0	5.04032e-035	0	1	4	4
60	7.88898	0.16254	0	0	5.04032e-035	0	1	4	4
59	8.05152	0.0290251	0	0	5.04032e-035	0	1	4	4
62	8.36499	0.319275	0	0	5.04032e-035	0	1	4	4
60	9.1951	0.10449	0	0	5.04032e-035	0	1	4	4
59	9.29959	0.133514	0	0	5.04032e-035	0	1	4	4
61	9.44472	0.0754652	0	0	5.04032e-035	0	1	4	4
63	9.98458	0.156735	0	0	5.04032e-035	0	1	4	4
61	10.1936	0.10449	0	0	5.04032e-035	0	1	4	4
60	10.8379	0.19737	0	0	5.04032e-035	0	1	4	4
61	11.0527	0.145124	0	0	5.04032e-035	0	1	4	4
60	11.6971	0.162539	0	0	5.04032e-035	0	1	4	4
61	11.8654	0.17415	0	0	5.04032e-035	0	1	4	4
58	12.6955	0.0812702	0	0	5.04032e-035	0	1	4	4
57	12.7768	0.179955	0	0	5.04032e-035	0	1	4	4
63	16.6487	0.1161	0	0	5.04032e-035	0	1	4	4
62	16.8171	0.121906	0	0	5.04032e-035	0	1	4	4
59	17.0434	0.0928802	0	0	5.04032e-035	0	1	4	4
58	17.2292	0.0638542	0	0	5.04032e-035	0	1	4	4
60	17.4266	0.214785	0	0	5.04032e-035	0	1	4	4
62	17.7052	0.150928	0	0	5.04032e-035	0	1	4	4
64	18.187	0.0986843	0	0	5.04032e-035	0	1	4	4
63	18.2857	0.110296	0	0	5.04032e-035	0	1	4	4
62	18.425	0.0986843	0	0	5.04032e-035	0	1	4	4
57	18.5992	0.0754642	0	0	5.04032e-035	0	1	4	4
57	18.8314	0.1161	0	0	5.04032e-035	0	1	4	4
60	18.9997	0.156734	0	0	5.04032e-035	0	1	4	4
61	19.29	0.0928802	0	0	5.04032e-035	0	1	4	4
62	19.8124	0.0522461	0	0	5.04032e-035	0	1	4	4
62	20.0272	0.12771	0	0	5.04032e-035	0	1	4	4
57	20.1549	0.150928	0	0	5.04032e-035	0	1	4	4
59	20.6193	0.249615	0	0	5.04032e-035	0	1	4	4
59	20.8689	0.0696583	0	0	5.04032e-035	0	1	4	4
59	20.9386	0.133516	0	0	5.04032e-035	0	1	4	4
62	21.3856	0.156734	0	0	5.04032e-035	0	1	4	4
62	21.5539	0.168344	0	0	5.04032e-035	0	1	4	4
57	21.8035	0.12771	0	0	5.04032e-035	0	1	4	4
57	21.9312	0.110294	0	0	5.04032e-035	0	1	4	4
59	22.2854	0.0754642	0	0	5.04032e-035	0	1	4	4
60	22.5408	0.116098	0	0	5.04032e-035	0	1	4	4
64	22.9994	0.0638542	0	0	5.04032e-035	0	1	4	4
63	23.2141	0.168344	0	0	5.04032e-035	0	1	4	4
56	23.4173	0.110294	0	0	5.04032e-035	0	1	4	4
58	23.6379	0.16254	0	0	5.04032e-035	0	1	4	4
60	23.8005	0.168344	0	0	5.04032e-035	0	1	4	4
63	24.5899	0.0928802	0	0	5.04032e-035	0	1	4	4
63	24.8047	0.145124	0	0	5.04032e-035	0	1	4	4
60	24.9498	0.0348301	0	0	5.04032e-035	0	1	4	4
57	25.2111	0.0812702	0	0	5.04032e-035	0	1	4	4
61	25.4142	0.0986843	0	0	5.04032e-035	0	1	4	4
62	25.7103	0.10449	0	0	5.04032e-035	0	1	4	4
63	26.1805	0.168344	0	0	5.04032e-035	0	1	4	4
62	26.3488	0.0464401	0	0	5.04032e-035	0	1	4	4
61	26.4069	0.0232201	0	0	5.04032e-035	0	1	4	4
57	26.7726	0.116098	0	0	5.04032e-035	0	1	4	4
60	26.9526	0.145124	0	0	5.04032e-035	0	1	4	4
61	27.2834	0.0464401	0	0	5.04032e-035	0	1	4	4
60	27.3299	0.0348301	0	0	5.04032e-035	0	1	4	4
58	27.4344	0.0754642	0	0	5.04032e-035	0	1	4	4
62	27.7537	0.330883	0	0	5.04032e-035	0	1	4	4
59	28.5605	0.121906	0	0	5.04032e-035	0	1	4	4
59	28.6824	0.0232182	0	0	5.04032e-035	0	1	4	4
59	28.7115	0.121904	0	0	5.04032e-035	0	1	4	4
61	28.8334	0.1161	0	0	5.04032e-035	0	1	4	4
