midiPitch 	 onsetSec 	 durationSec 	 onsetBeats 	 onsetBarIndex 	 onsetBar 	 durationBeats 	 velocity  	 numerator 	 denominator 
64	0.22059	0.0754649	0	0	4.11868e-035	0	1	4	4
64	0.574694	0.0754648	0	0	4.11868e-035	0	1	4	4
64	0.766258	0.13932	0	0	4.11868e-035	0	1	4	4
63	0.969433	0.168345	0	0	4.11868e-035	0	1	4	4
62	1.17841	0.0870749	0	0	4.11868e-035	0	1	4	4
63	1.5151	0.22059	0	0	4.11868e-035	0	1	4	4
64	2.28717	0.156735	0	0	4.11868e-035	0	1	4	4
64	2.4439	0.0522449	0	0	4.11868e-035	0	1	4	4
64	2.49615	0.087075	0	0	4.11868e-035	0	1	4	4
67	2.86766	0.0696599	0	0	4.11868e-035	0	1	4	4
67	3.32045	0.15093	0	0	4.11868e-035	0	1	4	4
67	3.6107	0.226394	0	0	4.11868e-035	0	1	4	4
65	3.8371	0.0696599	0	0	4.11868e-035	0	1	4	4
64	3.90676	0.18576	0	0	4.11868e-035	0	1	4	4
64	4.09252	0.0464401	0	0	4.11868e-035	0	1	4	4
65	4.13896	0.313469	0	0	4.11868e-035	0	1	4	4
67	4.96327	0.20898	0	0	4.11868e-035	0	1	4	4
70	5.17225	0.214784	0	0	4.11868e-035	0	1	4	4
70	5.50313	0.10449	0	0	4.11868e-035	0	1	4	4
70	5.8166	0.0754652	0	0	4.11868e-035	0	1	4	4
70	5.89206	0.255419	0	0	4.11868e-035	0	1	4	4
70	6.32163	0.13932	0	0	4.11868e-035	0	1	4	4
69	6.46095	0.0928798	0	0	4.11868e-035	0	1	4	4
67	6.55383	0.24381	0	0	4.11868e-035	0	1	4	4
69	6.79764	0.249614	0	0	4.11868e-035	0	1	4	4
67	7.16916	0.0232201	0	0	4.11868e-035	0	1	4	4
67	7.19819	0.162539	0	0	4.11868e-035	0	1	4	4
65	7.49424	0.0812697	0	0	4.11868e-035	0	1	4	4
62	7.81932	0.26703	0	0	4.11868e-035	0	1	4	4
62	8.2605	0.255419	0	0	4.11868e-035	0	1	4	4
63	8.60299	0.0812702	0	0	4.11868e-035	0	1	4	4
60	8.79456	0.0290251	0	0	4.11868e-035	0	1	4	4
60	8.82358	0.179955	0	0	4.11868e-035	0	1	4	4
59	9.80463	0.0638552	0	0	4.11868e-035	0	1	4	4
60	9.86848	0.162539	0	0	4.11868e-035	0	1	4	4
60	10.2342	0.19737	0	0	4.11868e-035	0	1	4	4
58	10.9192	0.22059	0	0	4.11868e-035	0	1	4	4
58	11.192	0.214785	0	0	4.11868e-035	0	1	4	4
54	11.4823	0.394739	0	0	4.11868e-035	0	1	4	4
61	12.4575	0.0696602	0	0	4.11868e-035	0	1	4	4
60	12.7942	0.481813	0	0	4.11868e-035	0	1	4	4
59	13.276	0.20898	0	0	4.11868e-035	0	1	4	4
58	13.752	0.203175	0	0	4.11868e-035	0	1	4	4
60	15.0872	0.226395	0	0	4.11868e-035	0	1	4	4
61	15.5283	0.133515	0	0	4.11868e-035	0	1	4	4
64	17.1305	0.0928783	0	0	4.11868e-035	0	1	4	4
63	17.3453	0.104488	0	0	4.11868e-035	0	1	4	4
63	17.4498	0.238005	0	0	4.11868e-035	0	1	4	4
62	17.7458	0.0812702	0	0	4.11868e-035	0	1	4	4
63	18.0709	0.208981	0	0	4.11868e-035	0	1	4	4
63	20.062	0.772064	0	0	4.11868e-035	0	1	4	4
63	21.0024	0.0522442	0	0	4.11868e-035	0	1	4	4
63	21.3217	0.383131	0	0	4.11868e-035	0	1	4	4
61	21.7049	0.121904	0	0	4.11868e-035	0	1	4	4
59	21.8268	0.0464401	0	0	4.11868e-035	0	1	4	4
63	22.355	0.0986843	0	0	4.11868e-035	0	1	4	4
63	22.5524	0.232201	0	0	4.11868e-035	0	1	4	4
63	23.011	0.226395	0	0	4.11868e-035	0	1	4	4
61	23.2374	0.0232201	0	0	4.11868e-035	0	1	4	4
64	23.3012	0.0928802	0	0	4.11868e-035	0	1	4	4
64	23.4289	0.0812702	0	0	4.11868e-035	0	1	4	4
62	23.6031	0.0812702	0	0	4.11868e-035	0	1	4	4
62	23.9398	0.220589	0	0	4.11868e-035	0	1	4	4
59	25.6987	0.145124	0	0	4.11868e-035	0	1	4	4
61	26.0412	0.145126	0	0	4.11868e-035	0	1	4	4
64	26.5927	0.238005	0	0	4.11868e-035	0	1	4	4
63	26.8307	0.284443	0	0	4.11868e-035	0	1	4	4
