midiPitch 	 onsetSec 	 durationSec 	 onsetBeats 	 onsetBarIndex 	 onsetBar 	 durationBeats 	 velocity  	 numerator 	 denominator 
70	0.121905	0.02322	0	0	0	0	1	4	4
68	0.145125	0.15093	0	0	0	0	1	4	4
64	0.476009	0.0464399	0	0	0	0	1	4	4
64	0.551474	0.110295	0	0	0	0	1	4	4
64	0.905578	0.03483	0	0	0	0	1	4	4
64	0.981043	0.121905	0	0	0	0	1	4	4
64	1.10295	0.0812699	0	0	0	0	1	4	4
64	1.19002	0.0754648	0	0	0	0	1	4	4
64	1.26549	0.1161	0	0	0	0	1	4	4
63	1.41061	0.0464399	0	0	0	0	1	4	4
64	1.45705	0.10449	0	0	0	0	1	4	4
68	1.79955	0.0348299	0	0	0	0	1	4	4
68	1.84018	0.179955	0	0	0	0	1	4	4
67	4.19701	0.19737	0	0	0	0	1	4	4
69	4.6556	0.214784	0	0	0	0	1	4	4
67	5.17225	0.0406346	0	0	0	0	1	4	4
67	5.2361	0.191565	0	0	0	0	1	4	4
64	5.42766	0.0580497	0	0	0	0	1	4	4
64	5.53796	0.133515	0	0	0	0	1	4	4
64	5.78177	0.0348296	0	0	0	0	1	4	4
64	5.89206	0.0464396	0	0	0	0	1	4	4
68	6.18812	0.0812697	0	0	0	0	1	4	4
63	6.43193	0.0290251	0	0	0	0	1	4	4
62	7.42458	0.0406346	0	0	0	0	1	4	4
67	7.83093	0.139319	0	0	0	0	1	4	4
64	8.08635	0.203175	0	0	0	0	1	4	4
70	8.96871	0.18576	0	0	0	0	1	4	4
66	9.22413	0.110294	0	0	0	0	1	4	4
69	9.91492	0.296054	0	0	0	0	1	4	4
64	10.5651	0.0348301	0	0	0	0	1	4	4
64	10.6289	0.0290251	0	0	0	0	1	4	4
64	10.6638	0.0290251	0	0	0	0	1	4	4
64	10.6986	0.0406351	0	0	0	0	1	4	4
65	10.9714	0.0580502	0	0	0	0	1	4	4
65	11.0295	0.0290251	0	0	0	0	1	4	4
64	11.0643	0.10449	0	0	0	0	1	4	4
64	11.2152	0.133515	0	0	0	0	1	4	4
64	11.4997	0.0812702	0	0	0	0	1	4	4
64	11.581	0.156734	0	0	0	0	1	4	4
64	11.9815	0.0406342	0	0	0	0	1	4	4
64	12.1615	0.0928793	0	0	0	0	1	4	4
64	12.2543	0.0232201	0	0	0	0	1	4	4
63	12.4401	0.18576	0	0	0	0	1	4	4
66	12.8871	0.0522451	0	0	0	0	1	4	4
65	12.9393	0.0464401	0	0	0	0	1	4	4
65	13.0496	0.0870752	0	0	0	0	1	4	4
65	13.1367	0.0232201	0	0	0	0	1	4	4
65	13.1715	0.0522442	0	0	0	0	1	4	4
65	13.2238	0.0232201	0	0	0	0	1	4	4
65	13.247	0.0232201	0	0	0	0	1	4	4
65	13.4153	0.0406342	0	0	0	0	1	4	4
65	13.5314	0.0406351	0	0	0	0	1	4	4
65	13.5721	0.0348301	0	0	0	0	1	4	4
64	13.6127	0.0232191	0	0	0	0	1	4	4
65	13.7578	0.0464401	0	0	0	0	1	4	4
65	13.8507	0.0406351	0	0	0	0	1	4	4
65	13.8971	0.0290251	0	0	0	0	1	4	4
64	13.9958	0.0406351	0	0	0	0	1	4	4
65	14.0771	0.0522451	0	0	0	0	1	4	4
65	14.1758	0.0696602	0	0	0	0	1	4	4
65	14.3035	0.10449	0	0	0	0	1	4	4
64	14.408	0.0464392	0	0	0	0	1	4	4
64	14.4718	0.0986853	0	0	0	0	1	4	4
64	14.6402	0.104489	0	0	0	0	1	4	4
65	14.7447	0.0406351	0	0	0	0	1	4	4
65	14.7911	0.0812693	0	0	0	0	1	4	4
64	14.9362	0.0232201	0	0	0	0	1	4	4
60	15.1162	0.121905	0	0	0	0	1	4	4
64	15.4122	0.133514	0	0	0	0	1	4	4
64	15.5458	0.0348301	0	0	0	0	1	4	4
64	16.0218	0.0348301	0	0	0	0	1	4	4
64	16.2772	0.121904	0	0	0	0	1	4	4
64	16.4339	0.0348301	0	0	0	0	1	4	4
63	16.5732	0.0406342	0	0	0	0	1	4	4
63	16.701	0.0348301	0	0	0	0	1	4	4
64	16.8577	0.0580502	0	0	0	0	1	4	4
63	16.9157	0.0638542	0	0	0	0	1	4	4
64	16.9796	0.12771	0	0	0	0	1	4	4
63	17.1537	0.243809	0	0	0	0	1	4	4
63	17.4382	0.0580502	0	0	0	0	1	4	4
64	17.4962	0.029026	0	0	0	0	1	4	4
64	17.5311	0.0696602	0	0	0	0	1	4	4
67	17.9316	0.203175	0	0	0	0	1	4	4
65	18.2044	0.0464382	0	0	0	0	1	4	4
65	18.2509	0.0464401	0	0	0	0	1	4	4
65	18.4134	0.0696602	0	0	0	0	1	4	4
65	18.5411	0.0406342	0	0	0	0	1	4	4
65	18.7733	0.203175	0	0	0	0	1	4	4
65	18.9765	0.290251	0	0	0	0	1	4	4
64	19.2668	0.0696583	0	0	0	0	1	4	4
67	19.5628	0.145124	0	0	0	0	1	4	4
64	19.7079	0.0522461	0	0	0	0	1	4	4
63	19.795	0.249615	0	0	0	0	1	4	4
69	21.3972	0.174149	0	0	0	0	1	4	4
67	21.7397	0.16254	0	0	0	0	1	4	4
64	23.4638	0.0812702	0	0	0	0	1	4	4
64	24.1255	0.110294	0	0	0	0	1	4	4
64	24.2358	0.0406361	0	0	0	0	1	4	4
63	24.2765	0.0522442	0	0	0	0	1	4	4
64	24.4564	0.0522442	0	0	0	0	1	4	4
64	24.6306	0.0812702	0	0	0	0	1	4	4
64	24.7931	0.0986843	0	0	0	0	1	4	4
64	25.0137	0.0522461	0	0	0	0	1	4	4
64	25.2227	0.0638542	0	0	0	0	1	4	4
64	25.4375	0.0696602	0	0	0	0	1	4	4
65	25.5652	0.0928783	0	0	0	0	1	4	4
65	25.7277	0.0348301	0	0	0	0	1	4	4
65	26.1747	0.0696583	0	0	0	0	1	4	4
65	27.6956	0.0696602	0	0	0	0	1	4	4
64	28.6128	0.133514	0	0	0	0	1	4	4
