midiPitch 	 onsetSec 	 durationSec 	 onsetBeats 	 onsetBarIndex 	 onsetBar 	 durationBeats 	 velocity  	 numerator 	 denominator 
77	1.17841	0.029025	0	0	0	0	1	4	4
80	1.22485	0.1161	0	0	0	0	1	4	4
79	1.399	0.0580499	0	0	0	0	1	4	4
80	1.64862	0.10449	0	0	0	0	1	4	4
80	1.75311	0.0638548	0	0	0	0	1	4	4
80	2.04336	0.0232201	0	0	0	0	1	4	4
78	2.0898	0.0232201	0	0	0	0	1	4	4
81	2.12463	0.0928798	0	0	0	0	1	4	4
80	2.21751	0.0870748	0	0	0	0	1	4	4
80	3.52363	0.0986848	0	0	0	0	1	4	4
80	3.64553	0.1161	0	0	0	0	1	4	4
81	3.91837	0.10449	0	0	0	0	1	4	4
81	4.02286	0.0406346	0	0	0	0	1	4	4
81	4.09252	0.0290251	0	0	0	0	1	4	4
81	4.32472	0.0290251	0	0	0	0	1	4	4
80	4.35374	0.0812697	0	0	0	0	1	4	4
79	4.67882	0.0290251	0	0	0	0	1	4	4
80	4.73107	0.0290251	0	0	0	0	1	4	4
79	4.82975	0.0232201	0	0	0	0	1	4	4
80	4.89361	0.0348301	0	0	0	0	1	4	4
80	4.97487	0.0290251	0	0	0	0	1	4	4
80	5.10258	0.0232201	0	0	0	0	1	4	4
80	5.13161	0.0522447	0	0	0	0	1	4	4
80	5.18385	0.0464401	0	0	0	0	1	4	4
80	5.27093	0.0290246	0	0	0	0	1	4	4
78	5.42186	0.12771	0	0	0	0	1	4	4
75	14.8956	0.0406351	0	0	0	0	1	4	4
80	15.151	0.0348301	0	0	0	0	1	4	4
80	15.1917	0.0232201	0	0	0	0	1	4	4
80	15.2207	0.0232201	0	0	0	0	1	4	4
80	15.2613	0.104489	0	0	0	0	1	4	4
80	15.5225	0.0290251	0	0	0	0	1	4	4
80	15.6096	0.0232201	0	0	0	0	1	4	4
81	15.6619	0.0812693	0	0	0	0	1	4	4
80	15.9289	0.0348301	0	0	0	0	1	4	4
80	15.9695	0.0580492	0	0	0	0	1	4	4
80	16.0276	0.0348301	0	0	0	0	1	4	4
80	16.0856	0.029026	0	0	0	0	1	4	4
79	16.1785	0.0406342	0	0	0	0	1	4	4
77	16.2191	0.0348301	0	0	0	0	1	4	4
79	17.3801	0.0406342	0	0	0	0	1	4	4
64	17.4672	0.0290241	0	0	0	0	1	4	4
69	17.5195	0.0638561	0	0	0	0	1	4	4
67	17.8329	0.029026	0	0	0	0	1	4	4
67	17.8678	0.0232201	0	0	0	0	1	4	4
67	17.9026	0.10449	0	0	0	0	1	4	4
67	18.0071	0.110294	0	0	0	0	1	4	4
66	18.2625	0.0870762	0	0	0	0	1	4	4
66	18.3496	0.0232201	0	0	0	0	1	4	4
79	18.4715	0.0696602	0	0	0	0	1	4	4
76	18.5411	0.0754642	0	0	0	0	1	4	4
80	19.7079	0.0986862	0	0	0	0	1	4	4
80	19.8066	0.110294	0	0	0	0	1	4	4
80	20.2014	0.0754642	0	0	0	0	1	4	4
80	20.2768	0.0290241	0	0	0	0	1	4	4
80	20.5206	0.0580502	0	0	0	0	1	4	4
80	20.5845	0.0406342	0	0	0	0	1	4	4
79	20.6309	0.162539	0	0	0	0	1	4	4
79	21.9951	0.10449	0	0	0	0	1	4	4
79	22.146	0.0348301	0	0	0	0	1	4	4
79	22.1809	0.0638561	0	0	0	0	1	4	4
81	22.4305	0.0406361	0	0	0	0	1	4	4
80	22.4711	0.0232201	0	0	0	0	1	4	4
80	22.4943	0.0522442	0	0	0	0	1	4	4
79	22.593	0.0232201	0	0	0	0	1	4	4
80	22.8659	0.156734	0	0	0	0	1	4	4
79	23.1677	0.145124	0	0	0	0	1	4	4
80	23.3825	0.0406342	0	0	0	0	1	4	4
79	23.4463	0.15093	0	0	0	0	1	4	4
77	23.5973	0.0290241	0	0	0	0	1	4	4
77	23.5973	0.0348301	0	0	0	0	1	4	4
81	23.6205	0.01161	0	0	0	0	1	4	4
77	23.5973	0.0406342	0	0	0	0	1	4	4
81	23.6205	0.0522442	0	0	0	0	1	4	4
80	23.6727	0.0986862	0	0	0	0	1	4	4
80	23.8295	0.1161	0	0	0	0	1	4	4
79	23.9456	0.0870743	0	0	0	0	1	4	4
81	24.2997	0.0580502	0	0	0	0	1	4	4
81	24.3926	0.0348301	0	0	0	0	1	4	4
81	24.7118	0.0232201	0	0	0	0	1	4	4
80	25.2169	0.0638561	0	0	0	0	1	4	4
83	25.4665	0.0580502	0	0	0	0	1	4	4
71	25.4723	0.0754642	0	0	0	0	1	4	4
69	25.5478	0.168344	0	0	0	0	1	4	4
69	25.7335	0.139318	0	0	0	0	1	4	4
69	26.0238	0.0348301	0	0	0	0	1	4	4
68	26.1979	0.0638542	0	0	0	0	1	4	4
64	26.494	0.0638561	0	0	0	0	1	4	4
64	26.5578	0.0232201	0	0	0	0	1	4	4
70	26.7262	0.174149	0	0	0	0	1	4	4
68	26.9003	0.0986862	0	0	0	0	1	4	4
69	27.5215	0.0870762	0	0	0	0	1	4	4
69	27.6956	0.12771	0	0	0	0	1	4	4
70	28.0091	0.13932	0	0	0	0	1	4	4
68	28.1484	0.0348301	0	0	0	0	1	4	4
69	28.398	0.0580502	0	0	0	0	1	4	4
69	28.4561	0.0986843	0	0	0	0	1	4	4
