midiPitch 	 onsetSec 	 durationSec 	 onsetBeats 	 onsetBarIndex 	 onsetBar 	 durationBeats 	 velocity  	 numerator 	 denominator 
59	0.203175	0.145125	0	0	3.98687e-035	0	1	4	4
54	0.377324	0.19737	0	0	3.98687e-035	0	1	4	4
59	0.638549	0.0986848	0	0	3.98687e-035	0	1	4	4
53	0.853333	0.214785	0	0	3.98687e-035	0	1	4	4
52	1.06812	0.15093	0	0	3.98687e-035	0	1	4	4
60	1.31773	0.435374	0	0	3.98687e-035	0	1	4	4
61	1.75311	0.203175	0	0	3.98687e-035	0	1	4	4
57	3.6049	0.0464399	0	0	3.98687e-035	0	1	4	4
57	3.65134	0.0406349	0	0	3.98687e-035	0	1	4	4
59	3.69197	0.0232201	0	0	3.98687e-035	0	1	4	4
57	3.71519	0.0232198	0	0	3.98687e-035	0	1	4	4
57	3.73841	0.0232201	0	0	3.98687e-035	0	1	4	4
57	3.88934	0.0348299	0	0	3.98687e-035	0	1	4	4
57	3.94159	0.220589	0	0	3.98687e-035	0	1	4	4
57	4.16218	0.0348301	0	0	3.98687e-035	0	1	4	4
57	4.19701	0.0754647	0	0	3.98687e-035	0	1	4	4
57	4.27247	0.0406351	0	0	3.98687e-035	0	1	4	4
57	4.31311	0.0406351	0	0	3.98687e-035	0	1	4	4
57	4.36535	0.0348301	0	0	3.98687e-035	0	1	4	4
54	4.47565	0.0754652	0	0	3.98687e-035	0	1	4	4
57	4.63819	0.145124	0	0	3.98687e-035	0	1	4	4
57	4.84717	0.0522447	0	0	3.98687e-035	0	1	4	4
64	5.09097	0.0928798	0	0	3.98687e-035	0	1	4	4
66	5.18385	0.249615	0	0	3.98687e-035	0	1	4	4
64	5.54376	0.10449	0	0	3.98687e-035	0	1	4	4
66	5.64825	0.359909	0	0	3.98687e-035	0	1	4	4
59	6.00816	0.423764	0	0	3.98687e-035	0	1	4	4
61	6.43193	0.1161	0	0	3.98687e-035	0	1	4	4
57	6.67574	0.342494	0	0	3.98687e-035	0	1	4	4
59	7.75546	0.18576	0	0	3.98687e-035	0	1	4	4
55	7.94122	0.307664	0	0	3.98687e-035	0	1	4	4
55	8.24889	0.0812693	0	0	3.98687e-035	0	1	4	4
60	8.46367	0.435374	0	0	3.98687e-035	0	1	4	4
61	8.89905	0.191565	0	0	3.98687e-035	0	1	4	4
51	10.2226	0.162539	0	0	3.98687e-035	0	1	4	4
52	10.4025	0.0290251	0	0	3.98687e-035	0	1	4	4
58	10.6986	0.0638542	0	0	3.98687e-035	0	1	4	4
59	10.7741	0.0232201	0	0	3.98687e-035	0	1	4	4
57	10.8031	0.0638552	0	0	3.98687e-035	0	1	4	4
57	10.8669	0.0522451	0	0	3.98687e-035	0	1	4	4
57	10.9598	0.0986843	0	0	3.98687e-035	0	1	4	4
57	11.0585	0.0580502	0	0	3.98687e-035	0	1	4	4
57	11.1224	0.0580492	0	0	3.98687e-035	0	1	4	4
57	11.1804	0.0232201	0	0	3.98687e-035	0	1	4	4
57	11.221	0.0522451	0	0	3.98687e-035	0	1	4	4
57	11.2733	0.0754652	0	0	3.98687e-035	0	1	4	4
57	11.3488	0.0754642	0	0	3.98687e-035	0	1	4	4
57	11.4242	0.0348301	0	0	3.98687e-035	0	1	4	4
57	11.5055	0.0522451	0	0	3.98687e-035	0	1	4	4
57	11.5577	0.0696592	0	0	3.98687e-035	0	1	4	4
57	11.6274	0.0464401	0	0	3.98687e-035	0	1	4	4
57	11.6738	0.0348301	0	0	3.98687e-035	0	1	4	4
57	11.7203	0.238005	0	0	3.98687e-035	0	1	4	4
56	12.0105	0.0986853	0	0	3.98687e-035	0	1	4	4
64	12.2195	0.10449	0	0	3.98687e-035	0	1	4	4
53	12.3298	0.0232201	0	0	3.98687e-035	0	1	4	4
54	12.3588	0.156734	0	0	3.98687e-035	0	1	4	4
62	12.9103	0.0696602	0	0	3.98687e-035	0	1	4	4
64	13.1483	0.127709	0	0	3.98687e-035	0	1	4	4
66	13.276	0.150929	0	0	3.98687e-035	0	1	4	4
66	13.6069	0.336689	0	0	3.98687e-035	0	1	4	4
60	14.0655	0.22059	0	0	3.98687e-035	0	1	4	4
59	14.2861	0.168344	0	0	3.98687e-035	0	1	4	4
59	14.4544	0.27864	0	0	3.98687e-035	0	1	4	4
60	14.7331	0.0870752	0	0	3.98687e-035	0	1	4	4
57	14.8201	0.272834	0	0	3.98687e-035	0	1	4	4
67	15.8534	0.174149	0	0	3.98687e-035	0	1	4	4
66	16.0276	0.0580502	0	0	3.98687e-035	0	1	4	4
64	16.0856	0.16254	0	0	3.98687e-035	0	1	4	4
67	16.3004	0.133514	0	0	3.98687e-035	0	1	4	4
66	16.4339	0.0928802	0	0	3.98687e-035	0	1	4	4
64	16.5268	0.145124	0	0	3.98687e-035	0	1	4	4
64	16.6777	0.278639	0	0	3.98687e-035	0	1	4	4
66	16.9564	0.0232201	0	0	3.98687e-035	0	1	4	4
66	16.997	0.0870743	0	0	3.98687e-035	0	1	4	4
64	17.1886	0.0812683	0	0	3.98687e-035	0	1	4	4
66	17.3685	0.284443	0	0	3.98687e-035	0	1	4	4
67	17.653	0.18576	0	0	3.98687e-035	0	1	4	4
64	17.8968	0.10449	0	0	3.98687e-035	0	1	4	4
67	18.0187	0.133514	0	0	3.98687e-035	0	1	4	4
64	18.3496	0.110294	0	0	3.98687e-035	0	1	4	4
66	18.4599	0.243809	0	0	3.98687e-035	0	1	4	4
57	19.0346	0.0464401	0	0	3.98687e-035	0	1	4	4
57	19.0868	0.0754662	0	0	3.98687e-035	0	1	4	4
57	19.1623	0.0232201	0	0	3.98687e-035	0	1	4	4
57	19.1913	0.16254	0	0	3.98687e-035	0	1	4	4
66	19.4641	0.197371	0	0	3.98687e-035	0	1	4	4
66	19.6847	0.121906	0	0	3.98687e-035	0	1	4	4
64	19.8995	0.0870762	0	0	3.98687e-035	0	1	4	4
66	19.9866	0.220589	0	0	3.98687e-035	0	1	4	4
73	20.4626	0.255419	0	0	3.98687e-035	0	1	4	4
61	20.718	0.0696602	0	0	3.98687e-035	0	1	4	4
60	21.7281	0.0232201	0	0	3.98687e-035	0	1	4	4
60	21.7629	0.121906	0	0	3.98687e-035	0	1	4	4
66	22.1286	0.0754642	0	0	3.98687e-035	0	1	4	4
63	22.2795	0.104488	0	0	3.98687e-035	0	1	4	4
54	22.6046	0.0870743	0	0	3.98687e-035	0	1	4	4
68	22.7962	0.0754642	0	0	3.98687e-035	0	1	4	4
57	22.8717	0.290251	0	0	3.98687e-035	0	1	4	4
59	23.1619	0.261223	0	0	3.98687e-035	0	1	4	4
54	23.4522	0.267029	0	0	3.98687e-035	0	1	4	4
57	23.7424	0.388935	0	0	3.98687e-035	0	1	4	4
55	26.2095	0.0522442	0	0	3.98687e-035	0	1	4	4
55	26.2792	0.0638561	0	0	3.98687e-035	0	1	4	4
57	26.343	0.191565	0	0	3.98687e-035	0	1	4	4
64	27.0629	0.15093	0	0	3.98687e-035	0	1	4	4
66	27.2312	0.168344	0	0	3.98687e-035	0	1	4	4
66	27.446	0.0464401	0	0	3.98687e-035	0	1	4	4
61	27.5563	0.296055	0	0	3.98687e-035	0	1	4	4
60	27.9858	0.214785	0	0	3.98687e-035	0	1	4	4
60	28.4038	0.0696602	0	0	3.98687e-035	0	1	4	4
59	28.4735	0.0812702	0	0	3.98687e-035	0	1	4	4
59	28.5547	0.0522442	0	0	3.98687e-035	0	1	4	4
