midiPitch 	 onsetSec 	 durationSec 	 onsetBeats 	 onsetBarIndex 	 onsetBar 	 durationBeats 	 velocity  	 numerator 	 denominator 
75	0.296054	0.0522449	0	0	3.61086e-035	0	1	4	4
71	0.388934	0.18576	0	0	3.61086e-035	0	1	4	4
67	0.963628	0.121905	0	0	3.61086e-035	0	1	4	4
67	1.28871	0.0696598	0	0	3.61086e-035	0	1	4	4
69	1.60218	0.0696599	0	0	3.61086e-035	0	1	4	4
79	1.67764	0.0290248	0	0	3.61086e-035	0	1	4	4
82	1.77633	0.0232199	0	0	3.61086e-035	0	1	4	4
79	1.82857	0.0232199	0	0	3.61086e-035	0	1	4	4
81	1.8634	0.029025	0	0	3.61086e-035	0	1	4	4
77	1.9795	0.0232199	0	0	3.61086e-035	0	1	4	4
76	2.03175	0.0406351	0	0	3.61086e-035	0	1	4	4
74	2.0956	0.0870748	0	0	3.61086e-035	0	1	4	4
69	2.82703	0.0580499	0	0	3.61086e-035	0	1	4	4
80	2.88508	0.0522449	0	0	3.61086e-035	0	1	4	4
78	2.94893	0.0348301	0	0	3.61086e-035	0	1	4	4
67	3.16952	0.0464399	0	0	3.61086e-035	0	1	4	4
65	3.21596	0.0348301	0	0	3.61086e-035	0	1	4	4
66	3.2566	0.19737	0	0	3.61086e-035	0	1	4	4
72	3.45397	0.0754647	0	0	3.61086e-035	0	1	4	4
68	3.721	0.0406351	0	0	3.61086e-035	0	1	4	4
65	3.92417	0.0232201	0	0	3.61086e-035	0	1	4	4
66	3.9532	0.10449	0	0	3.61086e-035	0	1	4	4
65	4.05769	0.168345	0	0	3.61086e-035	0	1	4	4
66	4.32472	0.156734	0	0	3.61086e-035	0	1	4	4
64	4.48145	0.0232201	0	0	3.61086e-035	0	1	4	4
62	4.6556	0.0696597	0	0	3.61086e-035	0	1	4	4
68	4.74848	0.0638547	0	0	3.61086e-035	0	1	4	4
68	5.34639	0.0522447	0	0	3.61086e-035	0	1	4	4
68	5.39864	0.1161	0	0	3.61086e-035	0	1	4	4
66	5.51474	0.168345	0	0	3.61086e-035	0	1	4	4
79	5.98494	0.0406346	0	0	3.61086e-035	0	1	4	4
79	6.04299	0.0232201	0	0	3.61086e-035	0	1	4	4
77	6.10104	0.0232201	0	0	3.61086e-035	0	1	4	4
78	6.12426	0.0232201	0	0	3.61086e-035	0	1	4	4
79	6.15909	0.0232201	0	0	3.61086e-035	0	1	4	4
77	6.24617	0.0290251	0	0	3.61086e-035	0	1	4	4
78	6.31583	0.0232201	0	0	3.61086e-035	0	1	4	4
78	6.49578	0.0232196	0	0	3.61086e-035	0	1	4	4
78	6.65252	0.0406351	0	0	3.61086e-035	0	1	4	4
77	6.76862	0.0348301	0	0	3.61086e-035	0	1	4	4
78	6.80345	0.0232196	0	0	3.61086e-035	0	1	4	4
77	6.8673	0.0232201	0	0	3.61086e-035	0	1	4	4
76	6.91374	0.0348296	0	0	3.61086e-035	0	1	4	4
75	6.95438	0.0638552	0	0	3.61086e-035	0	1	4	4
76	7.01823	0.0348296	0	0	3.61086e-035	0	1	4	4
77	7.05306	0.0522451	0	0	3.61086e-035	0	1	4	4
75	7.14014	0.0812702	0	0	3.61086e-035	0	1	4	4
75	7.22141	0.0232196	0	0	3.61086e-035	0	1	4	4
74	7.29107	0.0754647	0	0	3.61086e-035	0	1	4	4
75	7.36653	0.0406351	0	0	3.61086e-035	0	1	4	4
75	7.41297	0.0986848	0	0	3.61086e-035	0	1	4	4
74	7.55229	0.0754652	0	0	3.61086e-035	0	1	4	4
74	7.62776	0.0754647	0	0	3.61086e-035	0	1	4	4
74	7.76707	0.0522451	0	0	3.61086e-035	0	1	4	4
74	7.81932	0.0522447	0	0	3.61086e-035	0	1	4	4
72	8.0283	0.0754642	0	0	3.61086e-035	0	1	4	4
71	8.12698	0.0754652	0	0	3.61086e-035	0	1	4	4
68	8.2605	0.0464392	0	0	3.61086e-035	0	1	4	4
68	8.30694	0.0232201	0	0	3.61086e-035	0	1	4	4
68	8.33016	0.0406351	0	0	3.61086e-035	0	1	4	4
69	18.7153	0.029026	0	0	3.61086e-035	0	1	4	4
70	18.7675	0.168344	0	0	3.61086e-035	0	1	4	4
69	19.2029	0.0232201	0	0	3.61086e-035	0	1	4	4
67	19.2261	0.029026	0	0	3.61086e-035	0	1	4	4
67	19.3945	0.0870743	0	0	3.61086e-035	0	1	4	4
67	19.4815	0.0522461	0	0	3.61086e-035	0	1	4	4
65	19.6499	0.0754642	0	0	3.61086e-035	0	1	4	4
66	19.7254	0.10449	0	0	3.61086e-035	0	1	4	4
65	19.8298	0.0406342	0	0	3.61086e-035	0	1	4	4
66	19.8705	0.0928802	0	0	3.61086e-035	0	1	4	4
66	19.9634	0.133514	0	0	3.61086e-035	0	1	4	4
66	20.0969	0.10449	0	0	3.61086e-035	0	1	4	4
71	20.7122	0.13932	0	0	3.61086e-035	0	1	4	4
67	20.8515	0.0406361	0	0	3.61086e-035	0	1	4	4
67	20.898	0.0580502	0	0	3.61086e-035	0	1	4	4
68	21.0141	0.0754642	0	0	3.61086e-035	0	1	4	4
69	21.1708	0.0290241	0	0	3.61086e-035	0	1	4	4
69	21.2056	0.0812702	0	0	3.61086e-035	0	1	4	4
67	21.3275	0.0290241	0	0	3.61086e-035	0	1	4	4
69	21.432	0.139318	0	0	3.61086e-035	0	1	4	4
66	21.7745	0.1161	0	0	3.61086e-035	0	1	4	4
66	21.9661	0.0406361	0	0	3.61086e-035	0	1	4	4
66	22.0067	0.150928	0	0	3.61086e-035	0	1	4	4
68	22.355	0.0580502	0	0	3.61086e-035	0	1	4	4
65	22.4131	0.197369	0	0	3.61086e-035	0	1	4	4
0	22.6104	0.18576	0	0	3.61086e-035	0	1	4	4
66	22.9239	0.0638542	0	0	3.61086e-035	0	1	4	4
65	22.9878	0.0986843	0	0	3.61086e-035	0	1	4	4
76	23.2432	0.0638561	0	0	3.61086e-035	0	1	4	4
74	23.307	0.0232201	0	0	3.61086e-035	0	1	4	4
69	23.3535	0.0580482	0	0	3.61086e-035	0	1	4	4
72	23.4115	0.0870762	0	0	3.61086e-035	0	1	4	4
70	23.4986	0.0870743	0	0	3.61086e-035	0	1	4	4
69	23.5857	0.0580502	0	0	3.61086e-035	0	1	4	4
65	23.6437	0.0348301	0	0	3.61086e-035	0	1	4	4
66	23.6902	0.104488	0	0	3.61086e-035	0	1	4	4
66	23.7946	0.110296	0	0	3.61086e-035	0	1	4	4
67	23.9514	0.127708	0	0	3.61086e-035	0	1	4	4
67	24.0791	0.110294	0	0	3.61086e-035	0	1	4	4
65	24.1894	0.13932	0	0	3.61086e-035	0	1	4	4
67	24.3461	0.0812683	0	0	3.61086e-035	0	1	4	4
65	24.4274	0.0348301	0	0	3.61086e-035	0	1	4	4
67	24.5725	0.0696583	0	0	3.61086e-035	0	1	4	4
67	24.6422	0.0754662	0	0	3.61086e-035	0	1	4	4
74	25.153	0.0580502	0	0	3.61086e-035	0	1	4	4
71	25.2401	0.0580502	0	0	3.61086e-035	0	1	4	4
68	25.8322	0.0812702	0	0	3.61086e-035	0	1	4	4
68	25.9135	0.0232201	0	0	3.61086e-035	0	1	4	4
72	25.9367	0.0290241	0	0	3.61086e-035	0	1	4	4
65	25.9657	0.191565	0	0	3.61086e-035	0	1	4	4
67	26.2153	0.12771	0	0	3.61086e-035	0	1	4	4
67	26.343	0.116098	0	0	3.61086e-035	0	1	4	4
68	26.5114	0.0464401	0	0	3.61086e-035	0	1	4	4
66	26.6507	0.0986862	0	0	3.61086e-035	0	1	4	4
66	26.7494	0.185759	0	0	3.61086e-035	0	1	4	4
65	26.9351	0.16254	0	0	3.61086e-035	0	1	4	4
67	27.0977	0.0812702	0	0	3.61086e-035	0	1	4	4
65	27.179	0.0406342	0	0	3.61086e-035	0	1	4	4
64	27.2196	0.0522442	0	0	3.61086e-035	0	1	4	4
67	27.4054	0.0986843	0	0	3.61086e-035	0	1	4	4
69	27.8233	0.238005	0	0	3.61086e-035	0	1	4	4
67	28.2181	0.121904	0	0	3.61086e-035	0	1	4	4
66	28.34	0.214785	0	0	3.61086e-035	0	1	4	4
68	28.7695	0.0580502	0	0	3.61086e-035	0	1	4	4
68	29.0191	0.116098	0	0	3.61086e-035	0	1	4	4
66	29.1352	0.168346	0	0	3.61086e-035	0	1	4	4
