midiPitch 	 onsetSec 	 durationSec 	 onsetBeats 	 onsetBarIndex 	 onsetBar 	 durationBeats 	 velocity  	 numerator 	 denominator 
54	3.52363	0.0406349	0	0	2.74563e-035	0	1	4	4
57	3.57007	0.168345	0	0	2.74563e-035	0	1	4	4
57	3.74422	0.1161	0	0	2.74563e-035	0	1	4	4
58	3.86032	0.232199	0	0	2.74563e-035	0	1	4	4
56	4.10993	0.162539	0	0	2.74563e-035	0	1	4	4
52	4.33052	0.226395	0	0	2.74563e-035	0	1	4	4
50	4.55692	0.388934	0	0	2.74563e-035	0	1	4	4
56	5.61342	0.226395	0	0	2.74563e-035	0	1	4	4
58	5.83982	0.272834	0	0	2.74563e-035	0	1	4	4
55	6.37968	0.19737	0	0	2.74563e-035	0	1	4	4
62	10.8785	0.853333	0	0	2.74563e-035	0	1	4	4
64	11.7319	2.17687	0	0	2.74563e-035	0	1	4	4
55	13.9088	0.0754652	0	0	2.74563e-035	0	1	4	4
58	14.3151	0.139319	0	0	2.74563e-035	0	1	4	4
56	14.5415	0.272835	0	0	2.74563e-035	0	1	4	4
57	14.8143	0.226395	0	0	2.74563e-035	0	1	4	4
56	15.0756	0.15093	0	0	2.74563e-035	0	1	4	4
57	15.2265	0.371519	0	0	2.74563e-035	0	1	4	4
69	21.2869	0.0522442	0	0	2.74563e-035	0	1	4	4
62	21.3391	2.9083	0	0	2.74563e-035	0	1	4	4
58	24.7409	0.824308	0	0	2.74563e-035	0	1	4	4
56	25.7335	0.121904	0	0	2.74563e-035	0	1	4	4
57	25.8554	0.226395	0	0	2.74563e-035	0	1	4	4
56	26.0818	0.400543	0	0	2.74563e-035	0	1	4	4
69	26.4824	0.232201	0	0	2.74563e-035	0	1	4	4
51	26.7029	0.01161	0	0	2.74563e-035	0	1	4	4
69	26.4824	0.238005	0	0	2.74563e-035	0	1	4	4
51	26.7029	0.0174141	0	0	2.74563e-035	0	1	4	4
69	26.4824	0.243811	0	0	2.74563e-035	0	1	4	4
51	26.7029	0.0232201	0	0	2.74563e-035	0	1	4	4
69	26.4824	0.249615	0	0	2.74563e-035	0	1	4	4
51	26.7029	0.0290241	0	0	2.74563e-035	0	1	4	4
69	26.4824	0.255421	0	0	2.74563e-035	0	1	4	4
51	26.7029	0.0348301	0	0	2.74563e-035	0	1	4	4
69	26.4824	0.261225	0	0	2.74563e-035	0	1	4	4
51	26.7029	0.0406342	0	0	2.74563e-035	0	1	4	4
69	26.4824	0.267031	0	0	2.74563e-035	0	1	4	4
51	26.7029	0.0464401	0	0	2.74563e-035	0	1	4	4
69	26.4824	0.272835	0	0	2.74563e-035	0	1	4	4
51	26.7029	0.191565	0	0	2.74563e-035	0	1	4	4
