midiPitch 	 onsetSec 	 durationSec 	 onsetBeats 	 onsetBarIndex 	 onsetBar 	 durationBeats 	 velocity  	 numerator 	 denominator 
54	0.963628	0.0812698	0	0	3.91145e-035	0	1	4	4
54	1.06231	0.0290248	0	0	3.91145e-035	0	1	4	4
54	1.09134	0.0522449	0	0	3.91145e-035	0	1	4	4
54	1.14939	0.133515	0	0	3.91145e-035	0	1	4	4
54	1.2829	0.133515	0	0	3.91145e-035	0	1	4	4
56	1.41642	1.21324	0	0	3.91145e-035	0	1	4	4
52	2.62966	0.145125	0	0	3.91145e-035	0	1	4	4
54	2.83864	0.359909	0	0	3.91145e-035	0	1	4	4
56	3.19855	1.13778	0	0	3.91145e-035	0	1	4	4
56	4.71365	1.399	0	0	3.91145e-035	0	1	4	4
55	8.22567	0.272835	0	0	3.91145e-035	0	1	4	4
56	8.4985	0.864943	0	0	3.91145e-035	0	1	4	4
54	9.36345	0.22059	0	0	3.91145e-035	0	1	4	4
55	10.2516	0.156734	0	0	3.91145e-035	0	1	4	4
56	10.4083	0.992653	0	0	3.91145e-035	0	1	4	4
57	14.7795	0.25542	0	0	3.91145e-035	0	1	4	4
57	15.0349	1.14939	0	0	3.91145e-035	0	1	4	4
57	16.2482	0.452789	0	0	3.91145e-035	0	1	4	4
57	16.9622	0.359909	0	0	3.91145e-035	0	1	4	4
57	18.2044	0.104488	0	0	3.91145e-035	0	1	4	4
57	18.5585	0.272835	0	0	3.91145e-035	0	1	4	4
59	18.8314	1.05651	0	0	3.91145e-035	0	1	4	4
55	21.5133	0.110294	0	0	3.91145e-035	0	1	4	4
56	21.6236	0.330883	0	0	3.91145e-035	0	1	4	4
59	22.088	1.14358	0	0	3.91145e-035	0	1	4	4
54	24.0268	1.08553	0	0	3.91145e-035	0	1	4	4
52	25.9019	0.365713	0	0	3.91145e-035	0	1	4	4
