midiPitch 	 onsetSec 	 durationSec 	 onsetBeats 	 onsetBarIndex 	 onsetBar 	 durationBeats 	 velocity  	 numerator 	 denominator 
85	0.10449	0.0522449	0	0	0	0	1	4	4
84	0.19737	0.02322	0	0	0	0	1	4	4
81	0.400544	0.0406349	0	0	0	0	1	4	4
81	0.528254	0.0406349	0	0	0	0	1	4	4
83	0.609524	0.03483	0	0	0	0	1	4	4
62	3.15791	0.09288	0	0	0	0	1	4	4
61	3.25079	0.0754647	0	0	0	0	1	4	4
63	3.32626	0.13932	0	0	0	0	1	4	4
62	3.63973	0.156735	0	0	0	0	1	4	4
60	3.85451	0.0870748	0	0	0	0	1	4	4
62	4.0693	0.110295	0	0	0	0	1	4	4
60	4.21442	0.0870748	0	0	0	0	1	4	4
63	4.39438	0.156735	0	0	0	0	1	4	4
66	4.84717	0.232199	0	0	0	0	1	4	4
65	5.07936	0.145125	0	0	0	0	1	4	4
62	5.28834	0.133515	0	0	0	0	1	4	4
62	5.5902	0.145125	0	0	0	0	1	4	4
61	5.77016	0.0638547	0	0	0	0	1	4	4
63	5.95592	0.19737	0	0	0	0	1	4	4
63	6.25197	0.307664	0	0	0	0	1	4	4
63	7.27946	0.0754647	0	0	0	0	1	4	4
60	7.49424	0.0812697	0	0	0	0	1	4	4
60	7.92961	0.0406346	0	0	0	0	1	4	4
59	7.97025	0.0290251	0	0	0	0	1	4	4
58	8.00508	0.0290251	0	0	0	0	1	4	4
62	8.06893	0.19737	0	0	0	0	1	4	4
60	8.36499	0.191565	0	0	0	0	1	4	4
63	11.0179	0.26703	0	0	0	0	1	4	4
63	11.401	0.214785	0	0	0	0	1	4	4
63	11.6158	0.0986853	0	0	0	0	1	4	4
63	11.9234	0.145124	0	0	0	0	1	4	4
61	12.0686	0.22059	0	0	0	0	1	4	4
61	12.3124	0.0696602	0	0	0	0	1	4	4
61	12.7303	0.0812693	0	0	0	0	1	4	4
63	12.8522	0.249615	0	0	0	0	1	4	4
63889768	13.1251	0.22059	0	0	0	0	1	4	4
61	15.1046	0.0464401	0	0	0	0	1	4	4
60	15.3252	0.10449	0	0	0	0	1	4	4
62	15.4935	0.15093	0	0	0	0	1	4	4
61	15.8999	0.179955	0	0	0	0	1	4	4
61	16.2307	0.10449	0	0	0	0	1	4	4
59	16.5849	0.10449	0	0	0	0	1	4	4
62	16.6893	0.243809	0	0	0	0	1	4	4
61	16.9332	0.16254	0	0	0	0	1	4	4
60	19.0113	0.121904	0	0	0	0	1	4	4
60	19.1565	0.168344	0	0	0	0	1	4	4
60	19.5164	0.197371	0	0	0	0	1	4	4
60	19.7137	0.0290241	0	0	0	0	1	4	4
60	19.7486	0.174149	0	0	0	0	1	4	4
61	20.1433	0.150928	0	0	0	0	1	4	4
61	20.4858	0.121904	0	0	0	0	1	4	4
61	20.8109	0.0696602	0	0	0	0	1	4	4
59	20.9328	0.0928802	0	0	0	0	1	4	4
59	21.0953	0.0986843	0	0	0	0	1	4	4
59	21.9312	0.156734	0	0	0	0	1	4	4
55	22.1925	0.133516	0	0	0	0	1	4	4
57	22.4073	0.214785	0	0	0	0	1	4	4
53	22.7556	0.168346	0	0	0	0	1	4	4
73	25.0195	0.10449	0	0	0	0	1	4	4
72	25.124	0.214785	0	0	0	0	1	4	4
72	25.362	0.127708	0	0	0	0	1	4	4
73	25.4897	0.348299	0	0	0	0	1	4	4
72	25.8961	0.0986862	0	0	0	0	1	4	4
74	26.0934	0.110294	0	0	0	0	1	4	4
73	26.2037	0.0696602	0	0	0	0	1	4	4
73	26.2734	0.0522442	0	0	0	0	1	4	4
72	26.3663	0.162539	0	0	0	0	1	4	4
72	26.552	0.10449	0	0	0	0	1	4	4
72	26.6565	0.15093	0	0	0	0	1	4	4
72	26.8074	0.0638542	0	0	0	0	1	4	4
84	26.8016	0.203175	0	0	0	0	1	4	4
82	27.3647	0.0522461	0	0	0	0	1	4	4
82	27.417	0.168344	0	0	0	0	1	4	4
84	27.5853	0.133514	0	0	0	0	1	4	4
84	28.1194	0.0986862	0	0	0	0	1	4	4
84	28.2181	0.0464401	0	0	0	0	1	4	4
82	28.6012	0.232199	0	0	0	0	1	4	4
81	28.8334	0.0406361	0	0	0	0	1	4	4
