midiPitch 	 onsetSec 	 durationSec 	 onsetBeats 	 onsetBarIndex 	 onsetBar 	 durationBeats 	 velocity  	 numerator 	 denominator 
77	2.51937	0.0290248	0	0	2.11562e-035	0	1	4	4
78	2.84444	0.13932	0	0	2.11562e-035	0	1	4	4
78	2.98376	0.0348299	0	0	2.11562e-035	0	1	4	4
78	3.01859	0.0348299	0	0	2.11562e-035	0	1	4	4
72	3.54685	0.0232198	0	0	2.11562e-035	0	1	4	4
77	4.17959	0.0232201	0	0	2.11562e-035	0	1	4	4
77	4.20862	0.0232201	0	0	2.11562e-035	0	1	4	4
58	4.33052	0.0464396	0	0	2.11562e-035	0	1	4	4
58	4.40018	0.0638547	0	0	2.11562e-035	0	1	4	4
59	4.63819	0.0870748	0	0	2.11562e-035	0	1	4	4
58	4.72526	0.249614	0	0	2.11562e-035	0	1	4	4
58	4.97487	0.29025	0	0	2.11562e-035	0	1	4	4
60	5.358	0.156734	0	0	2.11562e-035	0	1	4	4
59	5.59601	0.249615	0	0	2.11562e-035	0	1	4	4
59	5.84562	0.0812697	0	0	2.11562e-035	0	1	4	4
59	5.92689	0.0696597	0	0	2.11562e-035	0	1	4	4
57	11.8538	0.0754652	0	0	2.11562e-035	0	1	4	4
57	11.9293	0.150929	0	0	2.11562e-035	0	1	4	4
57	12.0802	0.0928802	0	0	2.11562e-035	0	1	4	4
55	12.2137	0.0754652	0	0	2.11562e-035	0	1	4	4
56	12.3646	0.0406342	0	0	2.11562e-035	0	1	4	4
56	12.4111	0.0406351	0	0	2.11562e-035	0	1	4	4
56	12.6258	0.0290251	0	0	2.11562e-035	0	1	4	4
57	12.6607	0.0406351	0	0	2.11562e-035	0	1	4	4
57	12.7071	0.0580502	0	0	2.11562e-035	0	1	4	4
56	12.8058	0.0348291	0	0	2.11562e-035	0	1	4	4
56	12.8464	0.0638552	0	0	2.11562e-035	0	1	4	4
56	12.9683	0.116099	0	0	2.11562e-035	0	1	4	4
56	13.0844	0.121905	0	0	2.11562e-035	0	1	4	4
57	13.3108	0.139319	0	0	2.11562e-035	0	1	4	4
55	13.514	0.0232201	0	0	2.11562e-035	0	1	4	4
57	13.543	0.330884	0	0	2.11562e-035	0	1	4	4
56	13.8739	0.452789	0	0	2.11562e-035	0	1	4	4
57	14.3441	0.168344	0	0	2.11562e-035	0	1	4	4
58	14.5647	0.441179	0	0	2.11562e-035	0	1	4	4
58	15.0697	0.342495	0	0	2.11562e-035	0	1	4	4
59	20.1491	0.0812702	0	0	2.11562e-035	0	1	4	4
59	20.2304	0.0464401	0	0	2.11562e-035	0	1	4	4
59	20.2826	0.0290241	0	0	2.11562e-035	0	1	4	4
58	20.6716	0.0406342	0	0	2.11562e-035	0	1	4	4
59	21.1069	0.267029	0	0	2.11562e-035	0	1	4	4
59	21.374	0.0696602	0	0	2.11562e-035	0	1	4	4
58	21.5017	0.0232182	0	0	2.11562e-035	0	1	4	4
67	28.4444	0.0232201	0	0	2.11562e-035	0	1	4	4
68	28.4735	0.0870743	0	0	2.11562e-035	0	1	4	4
76	28.6999	0.156734	0	0	2.11562e-035	0	1	4	4
69	28.8798	0.15093	0	0	2.11562e-035	0	1	4	4
69	29.0307	0.162539	0	0	2.11562e-035	0	1	4	4
69	29.1933	0.191565	0	0	2.11562e-035	0	1	4	4
69	29.3849	0.0406361	0	0	2.11562e-035	0	1	4	4
69	29.4255	0.116098	0	0	2.11562e-035	0	1	4	4
69	29.5416	0.0812702	0	0	2.11562e-035	0	1	4	4
69	29.7273	0.0580502	0	0	2.11562e-035	0	1	4	4
