midiPitch 	 onsetSec 	 durationSec 	 onsetBeats 	 onsetBarIndex 	 onsetBar 	 durationBeats 	 velocity  	 numerator 	 denominator 
54	0.0812698	0.12771	0	0	4.04331e-035	0	1	4	4
51	0.377324	0.0348299	0	0	4.04331e-035	0	1	4	4
55	0.417959	0.0754648	0	0	4.04331e-035	0	1	4	4
56	0.493424	0.12771	0	0	4.04331e-035	0	1	4	4
52	0.986848	0.168345	0	0	4.04331e-035	0	1	4	4
57	2.40327	0.0464399	0	0	4.04331e-035	0	1	4	4
57	2.5658	0.0406349	0	0	4.04331e-035	0	1	4	4
56	3.12889	0.0232198	0	0	4.04331e-035	0	1	4	4
56	3.15791	0.0986848	0	0	4.04331e-035	0	1	4	4
56	3.2566	0.121905	0	0	4.04331e-035	0	1	4	4
55	3.75583	0.214785	0	0	4.04331e-035	0	1	4	4
57	4.64399	0.150929	0	0	4.04331e-035	0	1	4	4
57	4.87619	0.0870752	0	0	4.04331e-035	0	1	4	4
56	4.96327	0.0290246	0	0	4.04331e-035	0	1	4	4
56	5.04454	0.0928798	0	0	4.04331e-035	0	1	4	4
52	5.41025	0.0928798	0	0	4.04331e-035	0	1	4	4
58	5.92689	0.0754647	0	0	4.04331e-035	0	1	4	4
58	6.06621	0.0696597	0	0	4.04331e-035	0	1	4	4
57	6.22875	0.0754647	0	0	4.04331e-035	0	1	4	4
56	6.33905	0.0696597	0	0	4.04331e-035	0	1	4	4
57	6.40871	0.0928802	0	0	4.04331e-035	0	1	4	4
57	6.50159	0.179955	0	0	4.04331e-035	0	1	4	4
50	6.84989	0.191565	0	0	4.04331e-035	0	1	4	4
56	7.75546	0.0348301	0	0	4.04331e-035	0	1	4	4
56	7.92381	0.0464396	0	0	4.04331e-035	0	1	4	4
55	8.0283	0.0290251	0	0	4.04331e-035	0	1	4	4
54	8.05732	0.0232201	0	0	4.04331e-035	0	1	4	4
57	8.39982	0.133514	0	0	4.04331e-035	0	1	4	4
53	8.67265	0.156734	0	0	4.04331e-035	0	1	4	4
56	9.58984	0.110295	0	0	4.04331e-035	0	1	4	4
56	9.72336	0.0464392	0	0	4.04331e-035	0	1	4	4
54	9.83365	0.145124	0	0	4.04331e-035	0	1	4	4
55	9.97878	0.0928802	0	0	4.04331e-035	0	1	4	4
54	10.6463	0.0464401	0	0	4.04331e-035	0	1	4	4
56	10.954	0.110294	0	0	4.04331e-035	0	1	4	4
53	11.0643	0.0348301	0	0	4.04331e-035	0	1	4	4
55	11.1049	0.0580502	0	0	4.04331e-035	0	1	4	4
54	11.2617	0.0638552	0	0	4.04331e-035	0	1	4	4
53	11.877	0.0928802	0	0	4.04331e-035	0	1	4	4
56	11.9989	0.0348301	0	0	4.04331e-035	0	1	4	4
57	12.1847	0.0812693	0	0	4.04331e-035	0	1	4	4
56	12.3588	0.0232201	0	0	4.04331e-035	0	1	4	4
55	12.3878	0.145124	0	0	4.04331e-035	0	1	4	4
56	12.7013	0.168344	0	0	4.04331e-035	0	1	4	4
56	12.8697	0.168344	0	0	4.04331e-035	0	1	4	4
56	13.2876	0.0464401	0	0	4.04331e-035	0	1	4	4
54	13.4908	0.19737	0	0	4.04331e-035	0	1	4	4
54	14.7679	0.0928802	0	0	4.04331e-035	0	1	4	4
56	15.5225	0.15093	0	0	4.04331e-035	0	1	4	4
57	15.6735	0.104489	0	0	4.04331e-035	0	1	4	4
57	15.778	0.0232201	0	0	4.04331e-035	0	1	4	4
57	15.807	0.0348301	0	0	4.04331e-035	0	1	4	4
56	16.788	0.203175	0	0	4.04331e-035	0	1	4	4
57	17.2176	0.0870743	0	0	4.04331e-035	0	1	4	4
56	17.502	0.0754642	0	0	4.04331e-035	0	1	4	4
57	17.5775	0.0928802	0	0	4.04331e-035	0	1	4	4
57	17.6704	0.0406342	0	0	4.04331e-035	0	1	4	4
58	17.8213	0.0406342	0	0	4.04331e-035	0	1	4	4
58	18.1116	0.139318	0	0	4.04331e-035	0	1	4	4
57	18.2509	0.365715	0	0	4.04331e-035	0	1	4	4
57	19.6557	0.0638542	0	0	4.04331e-035	0	1	4	4
54	19.8589	0.110294	0	0	4.04331e-035	0	1	4	4
53	20.2478	0.0348301	0	0	4.04331e-035	0	1	4	4
56	20.3755	0.12771	0	0	4.04331e-035	0	1	4	4
50	20.6367	0.133514	0	0	4.04331e-035	0	1	4	4
55	21.2463	0.0870743	0	0	4.04331e-035	0	1	4	4
54	21.3333	0.0406361	0	0	4.04331e-035	0	1	4	4
56	21.3798	0.0928802	0	0	4.04331e-035	0	1	4	4
51	21.5888	0.0696602	0	0	4.04331e-035	0	1	4	4
56	21.8151	0.0580502	0	0	4.04331e-035	0	1	4	4
52	21.8732	0.116098	0	0	4.04331e-035	0	1	4	4
56	21.9893	0.383129	0	0	4.04331e-035	0	1	4	4
55	22.6395	0.0638542	0	0	4.04331e-035	0	1	4	4
55	22.8775	0.127708	0	0	4.04331e-035	0	1	4	4
57	23.0052	0.13932	0	0	4.04331e-035	0	1	4	4
58	23.1445	0.0928802	0	0	4.04331e-035	0	1	4	4
55	23.249	0.255419	0	0	4.04331e-035	0	1	4	4
53	24.0617	0.0406342	0	0	4.04331e-035	0	1	4	4
56	24.5377	0.0928783	0	0	4.04331e-035	0	1	4	4
55	24.6306	0.12771	0	0	4.04331e-035	0	1	4	4
54	25.3272	0.0580502	0	0	4.04331e-035	0	1	4	4
56	25.6	0.0696583	0	0	4.04331e-035	0	1	4	4
56	26.1108	0.0986862	0	0	4.04331e-035	0	1	4	4
57	26.8655	0.0638561	0	0	4.04331e-035	0	1	4	4
60	27.2951	0.0406361	0	0	4.04331e-035	0	1	4	4
57	27.3357	0.10449	0	0	4.04331e-035	0	1	4	4
55	28.1426	0.220591	0	0	4.04331e-035	0	1	4	4
55	28.5083	0.197369	0	0	4.04331e-035	0	1	4	4
55	29.1178	0.110294	0	0	4.04331e-035	0	1	4	4
54	29.2281	0.168344	0	0	4.04331e-035	0	1	4	4
