midiPitch 	 onsetSec 	 durationSec 	 onsetBeats 	 onsetBarIndex 	 onsetBar 	 durationBeats 	 velocity  	 numerator 	 denominator 
55	0.441179	0.0522449	0	0	0	0	1	4	4
57	0.499229	0.0522449	0	0	0	0	1	4	4
56	0.551474	0.0812699	0	0	0	0	1	4	4
54	0.661769	0.0986848	0	0	0	0	1	4	4
53	0.760454	0.0290249	0	0	0	0	1	4	4
53	0.795283	0.0754648	0	0	0	0	1	4	4
55	1.06231	0.214785	0	0	0	0	1	4	4
56	2.02014	0.0870748	0	0	0	0	1	4	4
57	2.36844	0.0522449	0	0	0	0	1	4	4
55	2.42068	0.0522449	0	0	0	0	1	4	4
55	2.60063	0.08127	0	0	0	0	1	4	4
56	2.95474	0.0580499	0	0	0	0	1	4	4
56	3.05923	0.08127	0	0	0	0	1	4	4
55	3.19274	0.15093	0	0	0	0	1	4	4
55	3.38431	0.0986848	0	0	0	0	1	4	4
53	3.52363	0.261225	0	0	0	0	1	4	4
55	4.11574	0.0464396	0	0	0	0	1	4	4
57	4.35955	0.0986848	0	0	0	0	1	4	4
55	4.45823	0.15093	0	0	0	0	1	4	4
54	4.69624	0.0696597	0	0	0	0	1	4	4
55	4.85878	0.17415	0	0	0	0	1	4	4
54	5.34639	0.0580497	0	0	0	0	1	4	4
55	5.56118	0.121905	0	0	0	0	1	4	4
55	5.83401	0.0986848	0	0	0	0	1	4	4
56	5.9327	0.12771	0	0	0	0	1	4	4
54	6.11846	0.226395	0	0	0	0	1	4	4
55	6.43193	0.0406351	0	0	0	0	1	4	4
56	6.75701	0.0580502	0	0	0	0	1	4	4
54	6.81506	0.127709	0	0	0	0	1	4	4
54	7.27365	0.0464401	0	0	0	0	1	4	4
55	7.43619	0.0406351	0	0	0	0	1	4	4
56	7.48263	0.0580497	0	0	0	0	1	4	4
54	7.61034	0.145124	0	0	0	0	1	4	4
56	7.77288	0.1161	0	0	0	0	1	4	4
57	8.03991	0.0290251	0	0	0	0	1	4	4
55	8.09796	0.0290251	0	0	0	0	1	4	4
54	8.32435	0.0928802	0	0	0	0	1	4	4
55	8.41723	0.307664	0	0	0	0	1	4	4
57	8.99193	0.0348301	0	0	0	0	1	4	4
56	9.10222	0.121904	0	0	0	0	1	4	4
55	9.22413	0.0232201	0	0	0	0	1	4	4
57	9.28218	0.127709	0	0	0	0	1	4	4
56	9.46794	0.121904	0	0	0	0	1	4	4
57	9.92073	0.17415	0	0	0	0	1	4	4
56	10.6057	0.145125	0	0	0	0	1	4	4
55	10.8669	0.121904	0	0	0	0	1	4	4
55	11.0121	0.0812702	0	0	0	0	1	4	4
54	11.4126	0.16254	0	0	0	0	1	4	4
58	12.0221	0.0812702	0	0	0	0	1	4	4
55	12.1963	0.0406351	0	0	0	0	1	4	4
55	12.4053	0.0232201	0	0	0	0	1	4	4
56	12.4749	0.1161	0	0	0	0	1	4	4
56	12.8116	0.145125	0	0	0	0	1	4	4
55	13.0844	0.0812702	0	0	0	0	1	4	4
54	13.218	0.0928793	0	0	0	0	1	4	4
55	13.4676	0.16254	0	0	0	0	1	4	4
55	13.7868	0.0870743	0	0	0	0	1	4	4
54	13.8739	0.1161	0	0	0	0	1	4	4
55	14.5647	0.0580502	0	0	0	0	1	4	4
56	15.0581	0.0870743	0	0	0	0	1	4	4
55	15.1452	0.0812702	0	0	0	0	1	4	4
57	15.7431	0.0696602	0	0	0	0	1	4	4
56	16.0682	0.0522442	0	0	0	0	1	4	4
57	16.312	0.121904	0	0	0	0	1	4	4
55	16.4339	0.1161	0	0	0	0	1	4	4
56	16.6429	0.0522442	0	0	0	0	1	4	4
58	17.1305	0.127708	0	0	0	0	1	4	4
56	17.3511	0.15093	0	0	0	0	1	4	4
58	17.6878	0.0348301	0	0	0	0	1	4	4
56	17.7342	0.029026	0	0	0	0	1	4	4
55	18.0883	0.0928802	0	0	0	0	1	4	4
57	18.3147	0.0638542	0	0	0	0	1	4	4
56	18.4483	0.0464401	0	0	0	0	1	4	4
56	18.4947	0.179955	0	0	0	0	1	4	4
55	18.6746	0.0232201	0	0	0	0	1	4	4
56	18.872	0.133516	0	0	0	0	1	4	4
62	20.0272	0.0638542	0	0	0	0	1	4	4
63	20.1607	0.325081	0	0	0	0	1	4	4
63	20.4858	0.110294	0	0	0	0	1	4	4
66	20.718	0.458593	0	0	0	0	1	4	4
66	21.1766	0.238005	0	0	0	0	1	4	4
67	21.432	0.359909	0	0	0	0	1	4	4
65	22.0415	0.290249	0	0	0	0	1	4	4
64	22.3956	0.226395	0	0	0	0	1	4	4
65	22.86	0.290251	0	0	0	0	1	4	4
65	23.4522	0.458593	0	0	0	0	1	4	4
63	25.4549	0.191565	0	0	0	0	1	4	4
62	25.6464	0.029026	0	0	0	0	1	4	4
65	25.6755	0.191565	0	0	0	0	1	4	4
66	25.867	0.551474	0	0	0	0	1	4	4
65	26.4185	0.301859	0	0	0	0	1	4	4
65	26.7204	0.191565	0	0	0	0	1	4	4
65	27.0803	0.371521	0	0	0	0	1	4	4
63	27.4518	0.203175	0	0	0	0	1	4	4
64	27.655	0.104488	0	0	0	0	1	4	4
65	27.7595	0.156734	0	0	0	0	1	4	4
63	27.9162	0.208981	0	0	0	0	1	4	4
64	28.1252	0.121904	0	0	0	0	1	4	4
65	28.3632	0.580498	0	0	0	0	1	4	4
