midiPitch 	 onsetSec 	 durationSec 	 onsetBeats 	 onsetBarIndex 	 onsetBar 	 durationBeats 	 velocity  	 numerator 	 denominator 
59	2.68771	0.0406349	0	0	0	0	1	4	4
60	2.73995	0.0348299	0	0	0	0	1	4	4
60	2.78059	0.20898	0	0	0	0	1	4	4
67	3.88354	0.16254	0	0	0	0	1	4	4
65	4.20862	0.17415	0	0	0	0	1	4	4
65	4.54531	0.0464396	0	0	0	0	1	4	4
62	4.72526	0.162539	0	0	0	0	1	4	4
62	5.03293	0.0986848	0	0	0	0	1	4	4
62	5.13161	0.0638547	0	0	0	0	1	4	4
62	5.19546	0.0348301	0	0	0	0	1	4	4
65	5.49732	0.0696602	0	0	0	0	1	4	4
62	5.68308	0.110294	0	0	0	0	1	4	4
60	5.9385	0.0986848	0	0	0	0	1	4	4
59	6.40871	0.22059	0	0	0	0	1	4	4
67	7.49424	0.12771	0	0	0	0	1	4	4
67	7.8019	0.0464396	0	0	0	0	1	4	4
65	7.97605	0.139319	0	0	0	0	1	4	4
64	8.29533	0.0522442	0	0	0	0	1	4	4
62	8.34757	0.214785	0	0	0	0	1	4	4
63	8.75973	0.0696602	0	0	0	0	1	4	4
62	8.82939	0.27864	0	0	0	0	1	4	4
63	9.10803	0.104489	0	0	0	0	1	4	4
62	9.40989	0.110295	0	0	0	0	1	4	4
60	9.64789	0.0928793	0	0	0	0	1	4	4
60	10.1761	0.1161	0	0	0	0	1	4	4
66	11.3023	0.121904	0	0	0	0	1	4	4
67	11.5113	0.110294	0	0	0	0	1	4	4
65	11.7203	0.214785	0	0	0	0	1	4	4
64	11.9989	0.0464401	0	0	0	0	1	4	4
64	12.1034	0.214785	0	0	0	0	1	4	4
62	12.3182	0.238005	0	0	0	0	1	4	4
64	12.7303	0.162539	0	0	0	0	1	4	4
62	13.1077	0.0870752	0	0	0	0	1	4	4
60	13.4327	0.0522451	0	0	0	0	1	4	4
73	13.6185	0.145124	0	0	0	0	1	4	4
67	15.0001	0.0986843	0	0	0	0	1	4	4
69	15.389	0.261225	0	0	0	0	1	4	4
69	15.6677	0.150929	0	0	0	0	1	4	4
65	15.9695	0.214786	0	0	0	0	1	4	4
65	16.1843	0.185759	0	0	0	0	1	4	4
65	16.3701	0.0232201	0	0	0	0	1	4	4
64	16.4629	0.220589	0	0	0	0	1	4	4
66	16.8229	0.0406342	0	0	0	0	1	4	4
68	16.8693	0.0986843	0	0	0	0	1	4	4
60	17.5949	0.284443	0	0	0	0	1	4	4
68	18.7385	0.156734	0	0	0	0	1	4	4
67	18.9417	0.1161	0	0	0	0	1	4	4
66	19.1913	0.156734	0	0	0	0	1	4	4
65	19.348	0.220591	0	0	0	0	1	4	4
64	20.271	0.174149	0	0	0	0	1	4	4
63	20.5845	0.174149	0	0	0	0	1	4	4
61	20.8573	0.116098	0	0	0	0	1	4	4
60	21.374	0.307665	0	0	0	0	1	4	4
61	21.6816	0.0290241	0	0	0	0	1	4	4
68	22.4769	0.0406361	0	0	0	0	1	4	4
68	22.5234	0.0986843	0	0	0	0	1	4	4
67	22.6743	0.0928783	0	0	0	0	1	4	4
65	22.8949	0.226395	0	0	0	0	1	4	4
65	23.2896	0.0464401	0	0	0	0	1	4	4
66	23.3302	0.0406342	0	0	0	0	1	4	4
62	23.5683	0.121904	0	0	0	0	1	4	4
69	25.0369	0.0406361	0	0	0	0	1	4	4
60	25.0776	0.267029	0	0	0	0	1	4	4
61	25.3446	0.110294	0	0	0	0	1	4	4
68	26.2153	0.156734	0	0	0	0	1	4	4
67	26.4417	0.0928802	0	0	0	0	1	4	4
66	26.6623	0.203175	0	0	0	0	1	4	4
65	26.9468	0.1161	0	0	0	0	1	4	4
63	27.1673	0.0928802	0	0	0	0	1	4	4
63	27.4634	0.208979	0	0	0	0	1	4	4
65	27.6782	0.249615	0	0	0	0	1	4	4
63	28.0439	0.145124	0	0	0	0	1	4	4
