midiPitch 	 onsetSec 	 durationSec 	 onsetBeats 	 onsetBarIndex 	 onsetBar 	 durationBeats 	 velocity  	 numerator 	 denominator 
74	0.0696599	0.15093	0	0	2.07806e-035	0	1	4	4
74	0.22059	0.0812698	0	0	2.07806e-035	0	1	4	4
74	0.301859	0.0754648	0	0	2.07806e-035	0	1	4	4
74	0.377324	0.121905	0	0	2.07806e-035	0	1	4	4
74	0.499229	0.029025	0	0	2.07806e-035	0	1	4	4
78	1.57896	0.290249	0	0	2.07806e-035	0	1	4	4
78	1.86921	0.0464399	0	0	2.07806e-035	0	1	4	4
71	2.0898	0.133515	0	0	2.07806e-035	0	1	4	4
71	2.22331	0.0986848	0	0	2.07806e-035	0	1	4	4
71	2.69932	0.0696599	0	0	2.07806e-035	0	1	4	4
71	2.76898	0.1161	0	0	2.07806e-035	0	1	4	4
72	2.88508	0.0638547	0	0	2.07806e-035	0	1	4	4
71	2.96635	0.156735	0	0	2.07806e-035	0	1	4	4
57	5.68308	0.0290246	0	0	2.07806e-035	0	1	4	4
59	5.71791	0.0754647	0	0	2.07806e-035	0	1	4	4
59	6.14748	0.18576	0	0	2.07806e-035	0	1	4	4
59	6.33324	0.0232201	0	0	2.07806e-035	0	1	4	4
60	6.50159	0.290249	0	0	2.07806e-035	0	1	4	4
55	6.93116	0.133515	0	0	2.07806e-035	0	1	4	4
60	7.58712	0.325079	0	0	2.07806e-035	0	1	4	4
59	8.46367	0.18576	0	0	2.07806e-035	0	1	4	4
57	8.76553	0.29025	0	0	2.07806e-035	0	1	4	4
64	9.86848	0.116099	0	0	2.07806e-035	0	1	4	4
63	9.98458	0.0232201	0	0	2.07806e-035	0	1	4	4
61	10.0078	0.0348301	0	0	2.07806e-035	0	1	4	4
59	10.1703	0.330885	0	0	2.07806e-035	0	1	4	4
59	10.6754	0.24381	0	0	2.07806e-035	0	1	4	4
58	11.1456	0.22059	0	0	2.07806e-035	0	1	4	4
55	11.6448	0.203175	0	0	2.07806e-035	0	1	4	4
57	11.9699	0.319274	0	0	2.07806e-035	0	1	4	4
56	12.4807	0.191565	0	0	2.07806e-035	0	1	4	4
57	13.1309	0.156734	0	0	2.07806e-035	0	1	4	4
57	13.7346	0.162539	0	0	2.07806e-035	0	1	4	4
62	14.7911	0.191565	0	0	2.07806e-035	0	1	4	4
59	15.1104	0.35991	0	0	2.07806e-035	0	1	4	4
59	15.8708	0.121904	0	0	2.07806e-035	0	1	4	4
59	16.2191	0.354105	0	0	2.07806e-035	0	1	4	4
55	16.5849	0.243809	0	0	2.07806e-035	0	1	4	4
59	17.4324	0.348299	0	0	2.07806e-035	0	1	4	4
55	18.9939	0.203175	0	0	2.07806e-035	0	1	4	4
0	19.1971	0.0522442	0	0	2.07806e-035	0	1	4	4
63	19.7718	0.0928802	0	0	2.07806e-035	0	1	4	4
62	19.8647	0.0638542	0	0	2.07806e-035	0	1	4	4
59	20.062	0.156734	0	0	2.07806e-035	0	1	4	4
59	20.2188	0.220591	0	0	2.07806e-035	0	1	4	4
58	20.8167	0.0348301	0	0	2.07806e-035	0	1	4	4
59	20.8573	0.110294	0	0	2.07806e-035	0	1	4	4
58	21.1302	0.220591	0	0	2.07806e-035	0	1	4	4
59	22.0532	0.174149	0	0	2.07806e-035	0	1	4	4
58	22.4305	0.249615	0	0	2.07806e-035	0	1	4	4
57	23.3244	0.261225	0	0	2.07806e-035	0	1	4	4
55	23.9456	0.208981	0	0	2.07806e-035	0	1	4	4
63	24.7176	0.139318	0	0	2.07806e-035	0	1	4	4
58	25.0137	0.0348301	0	0	2.07806e-035	0	1	4	4
59	25.0543	0.377323	0	0	2.07806e-035	0	1	4	4
59	25.5187	0.0580502	0	0	2.07806e-035	0	1	4	4
59	25.5768	0.0232201	0	0	2.07806e-035	0	1	4	4
59	25.7741	0.133514	0	0	2.07806e-035	0	1	4	4
59	25.9077	0.13932	0	0	2.07806e-035	0	1	4	4
59	26.105	0.121904	0	0	2.07806e-035	0	1	4	4
59	26.7378	0.150928	0	0	2.07806e-035	0	1	4	4
57	27.3705	0.0580502	0	0	2.07806e-035	0	1	4	4
57	27.4286	0.0406342	0	0	2.07806e-035	0	1	4	4
58	27.7304	0.1161	0	0	2.07806e-035	0	1	4	4
59	28.2355	0.278639	0	0	2.07806e-035	0	1	4	4
57	28.665	0.0754642	0	0	2.07806e-035	0	1	4	4
