midiPitch 	 onsetSec 	 durationSec 	 onsetBeats 	 onsetBarIndex 	 onsetBar 	 durationBeats 	 velocity  	 numerator 	 denominator 
67	1.91565	0.18576	0	0	0	0	1	4	4
67	2.10141	0.1161	0	0	0	0	1	4	4
67	2.21751	0.0290248	0	0	0	0	1	4	4
68	2.53098	0.0290248	0	0	0	0	1	4	4
74	2.67029	0.0986848	0	0	0	0	1	4	4
74	2.76898	0.0696599	0	0	0	0	1	4	4
74	2.87927	0.0870748	0	0	0	0	1	4	4
74	3.04762	0.145125	0	0	0	0	1	4	4
75	3.41333	0.0464399	0	0	0	0	1	4	4
70	3.65714	0.0928798	0	0	0	0	1	4	4
71	3.79646	0.191565	0	0	0	0	1	4	4
75	4.22023	0.133515	0	0	0	0	1	4	4
76	4.87619	0.0232201	0	0	0	0	1	4	4
71	4.89941	0.0464401	0	0	0	0	1	4	4
71	4.99229	0.0232201	0	0	0	0	1	4	4
71	5.07356	0.0232201	0	0	0	0	1	4	4
71	5.09678	0.0232201	0	0	0	0	1	4	4
71	5.358	0.0406346	0	0	0	0	1	4	4
71	5.52635	0.0232201	0	0	0	0	1	4	4
73	5.72952	0.0232201	0	0	0	0	1	4	4
79	5.86304	0.1161	0	0	0	0	1	4	4
79	5.99655	0.0232201	0	0	0	0	1	4	4
78	6.0546	0.0232201	0	0	0	0	1	4	4
74	6.15909	0.0290251	0	0	0	0	1	4	4
73	6.31002	0.0232201	0	0	0	0	1	4	4
72	6.33324	0.0638552	0	0	0	0	1	4	4
67	6.40871	0.0580502	0	0	0	0	1	4	4
70	6.47837	0.133514	0	0	0	0	1	4	4
73	6.68735	0.150929	0	0	0	0	1	4	4
73	7.05306	0.19737	0	0	0	0	1	4	4
73	7.54068	0.0464401	0	0	0	0	1	4	4
72	7.81932	0.0696597	0	0	0	0	1	4	4
74	8.0283	0.0638552	0	0	0	0	1	4	4
60	8.07474	0.290249	0	0	0	0	1	4	4
61	10.2632	0.19737	0	0	0	0	1	4	4
62	10.7973	0.307665	0	0	0	0	1	4	4
61	11.4649	0.0696602	0	0	0	0	1	4	4
58	11.6448	0.0580502	0	0	0	0	1	4	4
60	11.9583	0.0754642	0	0	0	0	1	4	4
60	12.144	0.156734	0	0	0	0	1	4	4
62	12.5098	0.0928802	0	0	0	0	1	4	4
59	12.6026	0.0348291	0	0	0	0	1	4	4
58	13.4211	0.104489	0	0	0	0	1	4	4
61	13.5256	0.336689	0	0	0	0	1	4	4
62	14.9072	0.0986853	0	0	0	0	1	4	4
58	15.2555	0.0754642	0	0	0	0	1	4	4
61	15.7663	0.0870752	0	0	0	0	1	4	4
60	16.2946	0.290249	0	0	0	0	1	4	4
60	16.8171	0.10449	0	0	0	0	1	4	4
62	16.9738	0.127708	0	0	0	0	1	4	4
59	17.1247	0.0580502	0	0	0	0	1	4	4
60	17.3163	0.0522461	0	0	0	0	1	4	4
62	18.5005	0.0348301	0	0	0	0	1	4	4
61	18.5353	0.0928802	0	0	0	0	1	4	4
61	19.0984	0.0348301	0	0	0	0	1	4	4
60	19.139	0.0232201	0	0	0	0	1	4	4
60	19.6789	0.10449	0	0	0	0	1	4	4
60	19.7834	0.185759	0	0	0	0	1	4	4
60	19.9692	0.0406361	0	0	0	0	1	4	4
60	20.0272	0.0638542	0	0	0	0	1	4	4
59	20.1143	0.238005	0	0	0	0	1	4	4
57	20.3523	0.10449	0	0	0	0	1	4	4
57	20.4568	0.0232201	0	0	0	0	1	4	4
59	20.5322	0.0696602	0	0	0	0	1	4	4
61	21.0141	0.0348301	0	0	0	0	1	4	4
63	21.2579	0.0406361	0	0	0	0	1	4	4
60	21.3101	0.0406342	0	0	0	0	1	4	4
55	21.3856	0.110294	0	0	0	0	1	4	4
63	21.7977	0.0870762	0	0	0	0	1	4	4
62	22.4073	0.0986862	0	0	0	0	1	4	4
61	22.5698	0.0986843	0	0	0	0	1	4	4
62	22.8484	0.029026	0	0	0	0	1	4	4
61	23.1155	0.0522442	0	0	0	0	1	4	4
59	23.1677	0.0406342	0	0	0	0	1	4	4
62	24.0036	0.0580502	0	0	0	0	1	4	4
55	24.1197	0.0232201	0	0	0	0	1	4	4
59	24.2649	0.0348301	0	0	0	0	1	4	4
61	24.5261	0.139318	0	0	0	0	1	4	4
61	25.1588	0.0870743	0	0	0	0	1	4	4
60	25.3446	0.10449	0	0	0	0	1	4	4
60	25.4491	0.185759	0	0	0	0	1	4	4
58	25.6348	0.0348301	0	0	0	0	1	4	4
59	25.6755	0.0754642	0	0	0	0	1	4	4
59	25.7683	0.162539	0	0	0	0	1	4	4
63	27.2834	0.0232201	0	0	0	0	1	4	4
62	27.3067	0.029026	0	0	0	0	1	4	4
58	27.7478	0.0348301	0	0	0	0	1	4	4
63	27.893	0.0464401	0	0	0	0	1	4	4
60	28.0439	0.0522442	0	0	0	0	1	4	4
61	28.5896	0.0986843	0	0	0	0	1	4	4
53	28.8276	0.0232201	0	0	0	0	1	4	4
