midiPitch 	 onsetSec 	 durationSec 	 onsetBeats 	 onsetBarIndex 	 onsetBar 	 durationBeats 	 velocity  	 numerator 	 denominator 
65	1.42803	0.03483	0	0	0	0	1	4	4
72	4.27247	0.0290251	0	0	0	0	1	4	4
79	7.01823	0.110294	0	0	0	0	1	4	4
55	8.0341	0.0232201	0	0	0	0	1	4	4
62	11.5229	0.0696592	0	0	0	0	1	4	4
65	11.6042	0.0232201	0	0	0	0	1	4	4
64	11.6564	0.139319	0	0	0	0	1	4	4
65	11.7957	0.1161	0	0	0	0	1	4	4
63	11.9118	0.0348301	0	0	0	0	1	4	4
61	11.9525	0.0348301	0	0	0	0	1	4	4
62	11.9931	0.133515	0	0	0	0	1	4	4
65	12.2717	0.0464401	0	0	0	0	1	4	4
61	13.9494	0.0522451	0	0	0	0	1	4	4
61	14.0016	0.0580492	0	0	0	0	1	4	4
61	14.0597	0.0638552	0	0	0	0	1	4	4
61	14.1235	0.121905	0	0	0	0	1	4	4
60	14.2454	0.150929	0	0	0	0	1	4	4
63	15.7605	0.0522451	0	0	0	0	1	4	4
62	15.8128	0.0290251	0	0	0	0	1	4	4
64	15.8476	0.0290251	0	0	0	0	1	4	4
64	15.8824	0.0986843	0	0	0	0	1	4	4
64	16.2307	0.0348301	0	0	0	0	1	4	4
64	16.2888	0.029026	0	0	0	0	1	4	4
54	16.4049	0.0348301	0	0	0	0	1	4	4
66	16.4397	0.10449	0	0	0	0	1	4	4
65	20.0214	0.290249	0	0	0	0	1	4	4
64	20.3117	0.13932	0	0	0	0	1	4	4
63	20.451	0.139318	0	0	0	0	1	4	4
66	20.8051	0.0696602	0	0	0	0	1	4	4
65	20.9154	0.0870762	0	0	0	0	1	4	4
65	21.0547	0.0348301	0	0	0	0	1	4	4
65	25.0776	0.150928	0	0	0	0	1	4	4
66	25.2285	0.110296	0	0	0	0	1	4	4
66	25.3736	0.0754642	0	0	0	0	1	4	4
65	25.4549	0.12771	0	0	0	0	1	4	4
61	25.8206	0.1161	0	0	0	0	1	4	4
69	27.3183	0.110296	0	0	0	0	1	4	4
70	27.655	0.0812683	0	0	0	0	1	4	4
68	27.9278	0.0812702	0	0	0	0	1	4	4
68	28.0439	0.133514	0	0	0	0	1	4	4
74	29.3558	0.1161	0	0	0	0	1	4	4
67	29.5822	0.110294	0	0	0	0	1	4	4
