midiPitch 	 onsetSec 	 durationSec 	 onsetBeats 	 onsetBarIndex 	 onsetBar 	 durationBeats 	 velocity  	 numerator 	 denominator 
81	4.35955	0.145125	0	0	4.4569e-035	0	1	4	4
81	4.50467	0.145125	0	0	4.4569e-035	0	1	4	4
73	8.78875	0.0406351	0	0	4.4569e-035	0	1	4	4
73	8.93388	0.0348301	0	0	4.4569e-035	0	1	4	4
72	9.03837	0.0290251	0	0	4.4569e-035	0	1	4	4
52	9.24154	0.0696602	0	0	4.4569e-035	0	1	4	4
55	9.35184	0.18576	0	0	4.4569e-035	0	1	4	4
57	9.62467	0.0870752	0	0	4.4569e-035	0	1	4	4
60	9.71175	0.226395	0	0	4.4569e-035	0	1	4	4
56	11.5287	0.0290251	0	0	4.4569e-035	0	1	4	4
52	11.5926	0.272835	0	0	4.4569e-035	0	1	4	4
60	13.4618	0.12771	0	0	4.4569e-035	0	1	4	4
60	13.5895	0.168344	0	0	4.4569e-035	0	1	4	4
59	13.8971	0.249615	0	0	4.4569e-035	0	1	4	4
60	14.1468	0.238005	0	0	4.4569e-035	0	1	4	4
60	14.3848	0.0290251	0	0	4.4569e-035	0	1	4	4
59	14.5299	0.0754652	0	0	4.4569e-035	0	1	4	4
55	14.6576	0.156735	0	0	4.4569e-035	0	1	4	4
55	14.8376	0.267029	0	0	4.4569e-035	0	1	4	4
52	15.1046	0.0232201	0	0	4.4569e-035	0	1	4	4
53	15.1336	0.10449	0	0	4.4569e-035	0	1	4	4
64	15.2265	0.01161	0	0	4.4569e-035	0	1	4	4
53	15.1336	0.110295	0	0	4.4569e-035	0	1	4	4
64	15.2265	0.017415	0	0	4.4569e-035	0	1	4	4
53	15.1336	0.1161	0	0	4.4569e-035	0	1	4	4
64	15.2265	0.0232201	0	0	4.4569e-035	0	1	4	4
53	15.1336	0.121905	0	0	4.4569e-035	0	1	4	4
64	15.2265	0.0290251	0	0	4.4569e-035	0	1	4	4
53	15.1336	0.12771	0	0	4.4569e-035	0	1	4	4
64	15.2265	0.0348301	0	0	4.4569e-035	0	1	4	4
53	15.1336	0.133515	0	0	4.4569e-035	0	1	4	4
64	15.2265	0.0406351	0	0	4.4569e-035	0	1	4	4
53	15.1336	0.139319	0	0	4.4569e-035	0	1	4	4
64	15.2265	0.0464392	0	0	4.4569e-035	0	1	4	4
53	15.1336	0.145124	0	0	4.4569e-035	0	1	4	4
64	15.2265	0.0522442	0	0	4.4569e-035	0	1	4	4
53	15.1336	0.150929	0	0	4.4569e-035	0	1	4	4
64	15.2265	0.0580492	0	0	4.4569e-035	0	1	4	4
53	15.1336	0.156734	0	0	4.4569e-035	0	1	4	4
64	15.2265	0.0638542	0	0	4.4569e-035	0	1	4	4
53	15.1336	0.162539	0	0	4.4569e-035	0	1	4	4
64	15.2265	0.0696592	0	0	4.4569e-035	0	1	4	4
53	15.1336	0.168344	0	0	4.4569e-035	0	1	4	4
64	15.2265	0.0754642	0	0	4.4569e-035	0	1	4	4
53	15.1336	0.17415	0	0	4.4569e-035	0	1	4	4
64	15.2265	0.0812693	0	0	4.4569e-035	0	1	4	4
53	15.1336	0.179955	0	0	4.4569e-035	0	1	4	4
64	15.2265	0.0870743	0	0	4.4569e-035	0	1	4	4
53	15.1336	0.18576	0	0	4.4569e-035	0	1	4	4
64	15.2265	0.133514	0	0	4.4569e-035	0	1	4	4
52	15.36	0.406349	0	0	4.4569e-035	0	1	4	4
53	15.7663	0.10449	0	0	4.4569e-035	0	1	4	4
54	15.8708	0.25542	0	0	4.4569e-035	0	1	4	4
55	16.1263	0.0348301	0	0	4.4569e-035	0	1	4	4
55	16.2424	0.644354	0	0	4.4569e-035	0	1	4	4
58	16.8867	0.261225	0	0	4.4569e-035	0	1	4	4
59	17.6065	0.0928783	0	0	4.4569e-035	0	1	4	4
53	18.9127	0.0638542	0	0	4.4569e-035	0	1	4	4
60	19.7079	0.133516	0	0	4.4569e-035	0	1	4	4
60	19.8415	0.116098	0	0	4.4569e-035	0	1	4	4
59	20.0737	0.284445	0	0	4.4569e-035	0	1	4	4
55	20.3639	0.16254	0	0	4.4569e-035	0	1	4	4
52	21.0141	0.412153	0	0	4.4569e-035	0	1	4	4
66	21.4088	0.0986843	0	0	4.4569e-035	0	1	4	4
52	24.439	0.168344	0	0	4.4569e-035	0	1	4	4
55	24.6538	0.0754662	0	0	4.4569e-035	0	1	4	4
57	24.8279	0.156734	0	0	4.4569e-035	0	1	4	4
59	24.9847	0.261225	0	0	4.4569e-035	0	1	4	4
2064187754	26.5172	0.18576	0	0	4.4569e-035	0	1	4	4
52	26.9177	0.261225	0	0	4.4569e-035	0	1	4	4
55	28.4096	0.0522442	0	0	4.4569e-035	0	1	4	4
55	28.4619	0.0232201	0	0	4.4569e-035	0	1	4	4
