midiPitch 	 onsetSec 	 durationSec 	 onsetBeats 	 onsetBarIndex 	 onsetBar 	 durationBeats 	 velocity  	 numerator 	 denominator 
54	0.487619	0.10449	0	0	0	0	1	4	4
55	0.859138	0.238005	0	0	0	0	1	4	4
54	1.68345	0.029025	0	0	0	0	1	4	4
55	2.06658	0.0870748	0	0	0	0	1	4	4
53	2.15365	0.348299	0	0	0	0	1	4	4
52	4.52789	0.0870748	0	0	0	0	1	4	4
56	4.87619	0.0522451	0	0	0	0	1	4	4
56	4.92844	0.12771	0	0	0	0	1	4	4
54	5.05615	0.10449	0	0	0	0	1	4	4
54	5.32317	0.18576	0	0	0	0	1	4	4
51	5.50893	0.0406351	0	0	0	0	1	4	4
50	5.55537	0.2322	0	0	0	0	1	4	4
51	6.09524	0.325079	0	0	0	0	1	4	4
47	6.61769	0.0348301	0	0	0	0	1	4	4
47	6.65832	0.0986848	0	0	0	0	1	4	4
45	6.93116	0.0232201	0	0	0	0	1	4	4
61	15.6909	0.121905	0	0	0	0	1	4	4
61	15.8128	0.0406351	0	0	0	0	1	4	4
62	15.8534	0.191565	0	0	0	0	1	4	4
76	18.0651	0.0406342	0	0	0	0	1	4	4
64	21.6816	0.0464382	0	0	0	0	1	4	4
69	21.7455	0.121904	0	0	0	0	1	4	4
67	21.8674	0.0580502	0	0	0	0	1	4	4
63	22.1576	0.145126	0	0	0	0	1	4	4
4294967295	22.2795	0.0754642	0	0	0	0	1	4	4
79	22.3318	0.0928802	0	0	0	0	1	4	4
77	22.593	0.220589	0	0	0	0	1	4	4
77	23.1619	0.0290241	0	0	0	0	1	4	4
78	23.2025	0.0522442	0	0	0	0	1	4	4
76	23.3535	0.121904	0	0	0	0	1	4	4
74	23.5218	0.0522442	0	0	0	0	1	4	4
67	24.3577	0.116098	0	0	0	0	1	4	4
65	24.5435	0.17415	0	0	0	0	1	4	4
78	24.7351	0.0638561	0	0	0	0	1	4	4
78	24.7989	0.0406342	0	0	0	0	1	4	4
72	24.8686	0.110296	0	0	0	0	1	4	4
72	25.1762	0.0232201	0	0	0	0	1	4	4
53	25.153	0.156734	0	0	0	0	1	4	4
54	25.6639	0.185759	0	0	0	0	1	4	4
52	26.3256	0.10449	0	0	0	0	1	4	4
69	27.4576	0.0580502	0	0	0	0	1	4	4
76	27.5156	0.0290241	0	0	0	0	1	4	4
76	27.5737	0.0348301	0	0	0	0	1	4	4
70	28.3167	0.16254	0	0	0	0	1	4	4
65	28.4793	0.0232182	0	0	0	0	1	4	4
74	28.7231	0.0928802	0	0	0	0	1	4	4
77	28.816	0.0580502	0	0	0	0	1	4	4
78	28.9669	0.12771	0	0	0	0	1	4	4
