midiPitch 	 onsetSec 	 durationSec 	 onsetBeats 	 onsetBarIndex 	 onsetBar 	 durationBeats 	 velocity  	 numerator 	 denominator 
68	3.98803	0.0290251	0	0	0	0	1	4	4
73	4.87619	0.0580502	0	0	0	0	1	4	4
73	5.2419	0.0406346	0	0	0	0	1	4	4
83	5.39864	0.0232201	0	0	0	0	1	4	4
77	5.45088	0.0232201	0	0	0	0	1	4	4
83	5.51474	0.0348301	0	0	0	0	1	4	4
77	5.5902	0.0812702	0	0	0	0	1	4	4
86	10.8902	0.0232201	0	0	0	0	1	4	4
76	10.9134	0.0290251	0	0	0	0	1	4	4
73	11.7145	0.0522451	0	0	0	0	1	4	4
72	11.8306	0.0290251	0	0	0	0	1	4	4
82	12.144	0.0290251	0	0	0	0	1	4	4
73	12.3995	0.0232191	0	0	0	0	1	4	4
80	12.4401	0.0232201	0	0	0	0	1	4	4
78	12.5504	0.0232201	0	0	0	0	1	4	4
71	15.6502	0.0232201	0	0	0	0	1	4	4
63	17.2698	0.029026	0	0	0	0	1	4	4
66	19.5106	0.0348301	0	0	0	0	1	4	4
72	20.66	0.0406361	0	0	0	0	1	4	4
72	20.7122	0.0464401	0	0	0	0	1	4	4
63	21.8616	0.0290241	0	0	0	0	1	4	4
63	22.0473	0.029026	0	0	0	0	1	4	4
87	23.7424	0.029026	0	0	0	0	1	4	4
87	23.8179	0.029026	0	0	0	0	1	4	4
87	23.8875	0.0348301	0	0	0	0	1	4	4
87	23.9224	0.0348301	0	0	0	0	1	4	4
86	24.0152	0.0406342	0	0	0	0	1	4	4
85	24.0559	0.029026	0	0	0	0	1	4	4
87	24.0849	0.0290241	0	0	0	0	1	4	4
85	24.1255	0.0464401	0	0	0	0	1	4	4
85	24.2126	0.0232201	0	0	0	0	1	4	4
87	24.259	0.0348301	0	0	0	0	1	4	4
87	24.9208	0.168344	0	0	0	0	1	4	4
