midiPitch 	 onsetSec 	 durationSec 	 onsetBeats 	 onsetBarIndex 	 onsetBar 	 durationBeats 	 velocity  	 numerator 	 denominator 
71	0.168345	1.30612	0	0	3.49801e-035	0	1	4	4
71	2.07819	0.505034	0	0	3.49801e-035	0	1	4	4
69	2.6819	1.0507	0	0	3.49801e-035	0	1	4	4
67	3.73261	0.156735	0	0	3.49801e-035	0	1	4	4
69	4.04608	0.261224	0	0	3.49801e-035	0	1	4	4
69	4.3073	2.40327	0	0	3.49801e-035	0	1	4	4
69	7.16916	0.609524	0	0	3.49801e-035	0	1	4	4
67	7.88898	0.870748	0	0	3.49801e-035	0	1	4	4
66	8.86422	0.191565	0	0	3.49801e-035	0	1	4	4
67	9.1893	1.13778	0	0	3.49801e-035	0	1	4	4
67	10.3271	0.0464392	0	0	3.49801e-035	0	1	4	4
67	10.3735	0.899774	0	0	3.49801e-035	0	1	4	4
66	11.7261	1.29451	0	0	3.49801e-035	0	1	4	4
66	11.7261	1.30032	0	0	3.49801e-035	0	1	4	4
63	13.0148	1.02748	0	0	3.49801e-035	0	1	4	4
66	14.1468	0.127709	0	0	3.49801e-035	0	1	4	4
64	14.2745	3.0244	0	0	3.49801e-035	0	1	4	4
67	19.6499	0.0638542	0	0	3.49801e-035	0	1	4	4
67	19.7137	1.1668	0	0	3.49801e-035	0	1	4	4
67	20.9502	1.79955	0	0	3.49801e-035	0	1	4	4
67	23.0284	0.272835	0	0	3.49801e-035	0	1	4	4
67	23.4463	0.1161	0	0	3.49801e-035	0	1	4	4
67	23.6321	0.0754642	0	0	3.49801e-035	0	1	4	4
67	23.7308	0.319275	0	0	3.49801e-035	0	1	4	4
2064187754	24.4796	0.255419	0	0	3.49801e-035	0	1	4	4
67	24.7351	0.179955	0	0	3.49801e-035	0	1	4	4
66	25.0659	1.12036	0	0	3.49801e-035	0	1	4	4
