midiPitch 	 onsetSec 	 durationSec 	 onsetBeats 	 onsetBarIndex 	 onsetBar 	 durationBeats 	 velocity  	 numerator 	 denominator 
49	0.621134	0.1161	0	0	0	0	1	4	4
57	0.789478	0.12771	0	0	0	0	1	4	4
59	0.981043	0.156735	0	0	0	0	1	4	4
60	1.1668	0.290249	0	0	0	0	1	4	4
59	1.45705	0.16254	0	0	0	0	1	4	4
60	1.80535	0.26703	0	0	0	0	1	4	4
62	2.11302	0.110295	0	0	0	0	1	4	4
60	2.28136	0.0348301	0	0	0	0	1	4	4
59	2.322	0.191565	0	0	0	0	1	4	4
59	2.51356	0.307664	0	0	0	0	1	4	4
59	4.13315	0.0580497	0	0	0	0	1	4	4
60	4.3073	0.516644	0	0	0	0	1	4	4
59	5.39283	0.1161	0	0	0	0	1	4	4
60	5.5844	0.191565	0	0	0	0	1	4	4
62	5.77596	0.296054	0	0	0	0	1	4	4
62	6.17651	0.133514	0	0	0	0	1	4	4
64	6.31002	0.168345	0	0	0	0	1	4	4
58	6.59447	0.0870748	0	0	0	0	1	4	4
59	6.68154	0.19737	0	0	0	0	1	4	4
55	7.08789	0.290249	0	0	0	0	1	4	4
57	7.43039	0.325079	0	0	0	0	1	4	4
59	7.75546	0.481814	0	0	0	0	1	4	4
59	9.8859	0.371519	0	0	0	0	1	4	4
62	10.2864	0.359909	0	0	0	0	1	4	4
64	10.6463	0.446984	0	0	0	0	1	4	4
62	11.0933	0.17415	0	0	0	0	1	4	4
64	11.2965	0.261225	0	0	0	0	1	4	4
66	11.7087	0.0870743	0	0	0	0	1	4	4
64	11.7957	0.203175	0	0	0	0	1	4	4
64	12.0802	0.621134	0	0	0	0	1	4	4
64	13.1425	0.493423	0	0	0	0	1	4	4
62	13.6359	0.26703	0	0	0	0	1	4	4
62	13.9029	0.145124	0	0	0	0	1	4	4
62	14.0481	0.0986853	0	0	0	0	1	4	4
62	14.2629	0.24381	0	0	0	0	1	4	4
62	14.5067	0.0406351	0	0	0	0	1	4	4
63	14.6518	0.243809	0	0	0	0	1	4	4
64	14.8956	0.226395	0	0	0	0	1	4	4
57	15.3368	0.139319	0	0	0	0	1	4	4
59	15.4761	0.296055	0	0	0	0	1	4	4
59	16.6777	0.226395	0	0	0	0	1	4	4
60	17.0551	0.296055	0	0	0	0	1	4	4
59	17.4904	0.162539	0	0	0	0	1	4	4
57	17.653	0.278641	0	0	0	0	1	4	4
55	18.0941	0.267031	0	0	0	0	1	4	4
60	18.4889	0.238005	0	0	0	0	1	4	4
59	18.9243	0.278639	0	0	0	0	1	4	4
57	19.4873	0.307665	0	0	0	0	1	4	4
55	19.795	0.354103	0	0	0	0	1	4	4
60	20.1491	0.406349	0	0	0	0	1	4	4
59	20.5555	0.446985	0	0	0	0	1	4	4
60	21.0024	0.226395	0	0	0	0	1	4	4
62	21.3507	0.290249	0	0	0	0	1	4	4
61	21.8151	0.0696602	0	0	0	0	1	4	4
62	21.8848	0.981043	0	0	0	0	1	4	4
66	22.8717	0.406349	0	0	0	0	1	4	4
62	23.278	0.0522461	0	0	0	0	1	4	4
62	23.4522	0.139318	0	0	0	0	1	4	4
59	23.6902	0.0986843	0	0	0	0	1	4	4
57	23.7888	0.261225	0	0	0	0	1	4	4
57	24.1023	0.284445	0	0	0	0	1	4	4
58	24.3868	0.296055	0	0	0	0	1	4	4
57	26.0528	0.10449	0	0	0	0	1	4	4
57	26.1573	0.208981	0	0	0	0	1	4	4
59	26.4359	0.0580482	0	0	0	0	1	4	4
60	26.6333	0.232199	0	0	0	0	1	4	4
59	27.0512	0.0464401	0	0	0	0	1	4	4
60	27.2951	0.272835	0	0	0	0	1	4	4
60	27.6608	0.383129	0	0	0	0	1	4	4
60	28.0613	0.267029	0	0	0	0	1	4	4
57	28.3283	0.336689	0	0	0	0	1	4	4
