midiPitch 	 onsetSec 	 durationSec 	 onsetBeats 	 onsetBarIndex 	 onsetBar 	 durationBeats 	 velocity  	 numerator 	 denominator 
50	0.0580499	1.75311	0	0	0	0	1	4	4
49	2.51356	0.0812697	0	0	0	0	1	4	4
51	2.59483	0.284445	0	0	0	0	1	4	4
55	3.07664	0.15093	0	0	0	0	1	4	4
57	3.22757	0.795284	0	0	0	0	1	4	4
55	4.02286	0.568889	0	0	0	0	1	4	4
51	4.74268	0.110295	0	0	0	0	1	4	4
52	4.85297	0.145124	0	0	0	0	1	4	4
53	4.9981	1.8634	0	0	0	0	1	4	4
53	6.8615	0.156735	0	0	0	0	1	4	4
45	7.57551	0.0406351	0	0	0	0	1	4	4
47	7.62195	0.255419	0	0	0	0	1	4	4
45	8.2663	0.621134	0	0	0	0	1	4	4
44	8.94549	0.191565	0	0	0	0	1	4	4
45	9.13705	0.191565	0	0	0	0	1	4	4
48	12.6375	0.0406351	0	0	0	0	1	4	4
52	12.6839	0.139319	0	0	0	0	1	4	4
53	12.8232	0.156735	0	0	0	0	1	4	4
52	13.0961	0.481814	0	0	0	0	1	4	4
50	13.5779	0.464398	0	0	0	0	1	4	4
47	14.2106	0.150929	0	0	0	0	1	4	4
45	16.4571	0.307665	0	0	0	0	1	4	4
47	17.1015	0.156734	0	0	0	0	1	4	4
51	19.6789	0.0348301	0	0	0	0	1	4	4
53	19.7137	0.238005	0	0	0	0	1	4	4
52	19.9517	0.0348301	0	0	0	0	1	4	4
53	19.9924	0.0406361	0	0	0	0	1	4	4
53	20.2652	0.267029	0	0	0	0	1	4	4
50	20.5322	0.394739	0	0	0	0	1	4	4
50	25.5594	0.220591	0	0	0	0	1	4	4
53	25.78	0.510838	0	0	0	0	1	4	4
44	26.4998	0.388933	0	0	0	0	1	4	4
46	27.1732	0.330885	0	0	0	0	1	4	4
49	27.6782	0.423765	0	0	0	0	1	4	4
50	28.1019	0.10449	0	0	0	0	1	4	4
52	28.2064	0.371519	0	0	0	0	1	4	4
