midiPitch 	 onsetSec 	 durationSec 	 onsetBeats 	 onsetBarIndex 	 onsetBar 	 durationBeats 	 velocity  	 numerator 	 denominator 
62	0.0464399	0.261224	0	0	0	0	1	4	4
62	0.307664	0.145125	0	0	0	0	1	4	4
62	0.476009	0.1161	0	0	0	0	1	4	4
62	0.592109	0.0638549	0	0	0	0	1	4	4
60	0.847528	0.499229	0	0	0	0	1	4	4
61	1.36417	0.17415	0	0	0	0	1	4	4
60	1.54993	0.1161	0	0	0	0	1	4	4
63	1.66603	0.441179	0	0	0	0	1	4	4
55	2.10141	0.0986848	0	0	0	0	1	4	4
69	2.38005	0.0464399	0	0	0	0	1	4	4
57	2.42649	0.0986848	0	0	0	0	1	4	4
59	2.55419	0.272835	0	0	0	0	1	4	4
62	2.87927	0.731429	0	0	0	0	1	4	4
59	3.78485	0.22059	0	0	0	0	1	4	4
57	4.03447	0.214785	0	0	0	0	1	4	4
56	4.25506	0.261225	0	0	0	0	1	4	4
59	4.6498	0.992653	0	0	0	0	1	4	4
59	5.64245	0.0696597	0	0	0	0	1	4	4
58	5.71211	0.27864	0	0	0	0	1	4	4
55	6.10685	1.86921	0	0	0	0	1	4	4
58	8.35918	0.30186	0	0	0	0	1	4	4
58	8.70748	0.278639	0	0	0	0	1	4	4
57	8.98612	0.0928802	0	0	0	0	1	4	4
52	9.20671	0.0986853	0	0	0	0	1	4	4
53	9.3054	0.18576	0	0	0	0	1	4	4
58	9.49116	0.284444	0	0	0	0	1	4	4
58	9.7756	0.516644	0	0	0	0	1	4	4
58	10.298	0.162539	0	0	0	0	1	4	4
58	10.4606	0.330884	0	0	0	0	1	4	4
57	10.896	0.0812693	0	0	0	0	1	4	4
58	10.9772	0.226395	0	0	0	0	1	4	4
56	11.2443	0.429569	0	0	0	0	1	4	4
57	11.6796	0.162539	0	0	0	0	1	4	4
57	11.8596	0.18576	0	0	0	0	1	4	4
52	12.8929	0.359909	0	0	0	0	1	4	4
56	13.2528	1.01587	0	0	0	0	1	4	4
57	14.2687	0.412154	0	0	0	0	1	4	4
54	14.8259	0.632744	0	0	0	0	1	4	4
55	15.4587	0.127709	0	0	0	0	1	4	4
59	15.5864	0.417958	0	0	0	0	1	4	4
53	16.1495	0.116098	0	0	0	0	1	4	4
51	16.4223	0.0812702	0	0	0	0	1	4	4
55	16.5036	0.197371	0	0	0	0	1	4	4
62	16.9273	0.777868	0	0	0	0	1	4	4
55	17.7749	0.243809	0	0	0	0	1	4	4
54	18.0187	0.238005	0	0	0	0	1	4	4
52	18.2567	0.0232201	0	0	0	0	1	4	4
55	18.3147	0.203175	0	0	0	0	1	4	4
62	18.5585	1.01587	0	0	0	0	1	4	4
62	19.5744	0.0348301	0	0	0	0	1	4	4
62	19.7079	0.348301	0	0	0	0	1	4	4
58	20.1433	0.423763	0	0	0	0	1	4	4
58	20.9386	0.435375	0	0	0	0	1	4	4
58	21.374	0.412153	0	0	0	0	1	4	4
57	21.7861	0.0580502	0	0	0	0	1	4	4
58	22.0067	0.110294	0	0	0	0	1	4	4
57	22.3434	0.441179	0	0	0	0	1	4	4
62	25.0427	0.168344	0	0	0	0	1	4	4
53	25.2111	0.0348301	0	0	0	0	1	4	4
55	25.2459	0.0232201	0	0	0	0	1	4	4
58	25.2691	0.319275	0	0	0	0	1	4	4
58	25.5884	0.806892	0	0	0	0	1	4	4
60	26.3953	0.301859	0	0	0	0	1	4	4
57	26.8307	0.743038	0	0	0	0	1	4	4
57	27.5737	0.197369	0	0	0	0	1	4	4
58	27.7711	0.156734	0	0	0	0	1	4	4
