midiPitch 	 onsetSec 	 durationSec 	 onsetBeats 	 onsetBarIndex 	 onsetBar 	 durationBeats 	 velocity  	 numerator 	 denominator 
61	0.0406349	0.20898	0	0	3.94928e-035	0	1	4	4
61	0.249615	0.2322	0	0	3.94928e-035	0	1	4	4
59	0.731429	0.400544	0	0	3.94928e-035	0	1	4	4
62	1.66023	0.16254	0	0	3.94928e-035	0	1	4	4
87023976	2.03175	0.0522449	0	0	3.94928e-035	0	1	4	4
66	2.08399	0.377324	0	0	3.94928e-035	0	1	4	4
66	2.46132	0.226395	0	0	3.94928e-035	0	1	4	4
65	2.68771	0.1161	0	0	3.94928e-035	0	1	4	4
67	2.85605	0.203175	0	0	3.94928e-035	0	1	4	4
69	3.1463	0.19737	0	0	3.94928e-035	0	1	4	4
69	3.36689	0.522449	0	0	3.94928e-035	0	1	4	4
61	4.66721	0.0754652	0	0	3.94928e-035	0	1	4	4
65	5.31156	0.0348301	0	0	3.94928e-035	0	1	4	4
71	5.52054	0.539864	0	0	3.94928e-035	0	1	4	4
69	6.06041	0.2322	0	0	3.94928e-035	0	1	4	4
69	6.29261	0.539864	0	0	3.94928e-035	0	1	4	4
68	6.83247	0.16254	0	0	3.94928e-035	0	1	4	4
67	7.06467	0.145125	0	0	3.94928e-035	0	1	4	4
68	7.2098	0.249614	0	0	3.94928e-035	0	1	4	4
69	7.53487	0.226395	0	0	3.94928e-035	0	1	4	4
67	7.76127	0.168345	0	0	3.94928e-035	0	1	4	4
68	7.93542	0.191564	0	0	3.94928e-035	0	1	4	4
64	8.13279	0.203175	0	0	3.94928e-035	0	1	4	4
66	8.33596	0.226395	0	0	3.94928e-035	0	1	4	4
64	8.56236	1.0507	0	0	3.94928e-035	0	1	4	4
64	9.7756	0.371519	0	0	3.94928e-035	0	1	4	4
61	10.1471	0.179955	0	0	3.94928e-035	0	1	4	4
66	10.5302	0.0812693	0	0	3.94928e-035	0	1	4	4
61	10.6115	0.342495	0	0	3.94928e-035	0	1	4	4
59	10.954	0.203175	0	0	3.94928e-035	0	1	4	4
59	11.192	0.16254	0	0	3.94928e-035	0	1	4	4
64	11.3546	0.301859	0	0	3.94928e-035	0	1	4	4
59	11.7725	0.0986843	0	0	3.94928e-035	0	1	4	4
61	11.8712	0.330884	0	0	3.94928e-035	0	1	4	4
61	12.2021	0.22059	0	0	3.94928e-035	0	1	4	4
67	12.8232	0.191566	0	0	3.94928e-035	0	1	4	4
68	13.0148	0.19737	0	0	3.94928e-035	0	1	4	4
66	13.2122	0.0406342	0	0	3.94928e-035	0	1	4	4
59	13.7114	0.319275	0	0	3.94928e-035	0	1	4	4
62	14.2571	0.145125	0	0	3.94928e-035	0	1	4	4
62	14.6054	0.412154	0	0	3.94928e-035	0	1	4	4
65	15.0233	0.133514	0	0	3.94928e-035	0	1	4	4
66	15.1568	0.22059	0	0	3.94928e-035	0	1	4	4
66	15.3774	0.261225	0	0	3.94928e-035	0	1	4	4
67	15.8476	0.0870743	0	0	3.94928e-035	0	1	4	4
69	15.9347	0.29025	0	0	3.94928e-035	0	1	4	4
71	16.2249	0.179955	0	0	3.94928e-035	0	1	4	4
69	16.4049	0.133514	0	0	3.94928e-035	0	1	4	4
69	16.5384	0.383129	0	0	3.94928e-035	0	1	4	4
69	16.9215	0.255421	0	0	3.94928e-035	0	1	4	4
69	18.2683	0.0696602	0	0	3.94928e-035	0	1	4	4
69	18.4424	0.116098	0	0	3.94928e-035	0	1	4	4
71	18.5585	0.156734	0	0	3.94928e-035	0	1	4	4
71	18.7153	0.325081	0	0	3.94928e-035	0	1	4	4
69	19.0404	0.493423	0	0	3.94928e-035	0	1	4	4
70	19.5338	0.0406342	0	0	3.94928e-035	0	1	4	4
69	19.5802	0.354103	0	0	3.94928e-035	0	1	4	4
68	19.9343	0.12771	0	0	3.94928e-035	0	1	4	4
67	20.0969	0.10449	0	0	3.94928e-035	0	1	4	4
68	20.2014	0.255419	0	0	3.94928e-035	0	1	4	4
69	20.4568	0.16254	0	0	3.94928e-035	0	1	4	4
68	20.8109	0.0986843	0	0	3.94928e-035	0	1	4	4
68	20.9096	0.0290241	0	0	3.94928e-035	0	1	4	4
66	21.2927	0.319275	0	0	3.94928e-035	0	1	4	4
65	21.612	0.313469	0	0	3.94928e-035	0	1	4	4
68	22.9007	0.568888	0	0	3.94928e-035	0	1	4	4
87023976	23.4696	0.226395	0	0	3.94928e-035	0	1	4	4
64	23.696	0.18576	0	0	3.94928e-035	0	1	4	4
61	23.8817	0.278639	0	0	3.94928e-035	0	1	4	4
60	24.1604	0.0232201	0	0	3.94928e-035	0	1	4	4
61	24.1894	0.0580502	0	0	3.94928e-035	0	1	4	4
62	24.2474	0.330885	0	0	3.94928e-035	0	1	4	4
64	24.5783	0.12771	0	0	3.94928e-035	0	1	4	4
65	24.706	0.0406342	0	0	3.94928e-035	0	1	4	4
66	24.7931	0.214785	0	0	3.94928e-035	0	1	4	4
70	25.0079	0.15093	0	0	3.94928e-035	0	1	4	4
71	25.1588	0.214785	0	0	3.94928e-035	0	1	4	4
73	25.3736	0.214785	0	0	3.94928e-035	0	1	4	4
71	25.5884	0.359909	0	0	3.94928e-035	0	1	4	4
69	26.0412	0.435375	0	0	3.94928e-035	0	1	4	4
62	27.1848	0.197371	0	0	3.94928e-035	0	1	4	4
62	27.5795	0.18576	0	0	3.94928e-035	0	1	4	4
66	28.1136	0.243809	0	0	3.94928e-035	0	1	4	4
66	28.3574	0.249615	0	0	3.94928e-035	0	1	4	4
66	28.607	0.267031	0	0	3.94928e-035	0	1	4	4
69	28.9379	0.13932	0	0	3.94928e-035	0	1	4	4
69	29.0772	0.499228	0	0	3.94928e-035	0	1	4	4
73	29.5764	0.377325	0	0	3.94928e-035	0	1	4	4
