midiPitch 	 onsetSec 	 durationSec 	 onsetBeats 	 onsetBarIndex 	 onsetBar 	 durationBeats 	 velocity  	 numerator 	 denominator 
67	0.522449	0.0406349	0	0	3.87387e-035	0	1	4	4
67	1.09134	0.04644	0	0	3.87387e-035	0	1	4	4
68	1.15519	0.0928798	0	0	3.87387e-035	0	1	4	4
67	1.2829	0.03483	0	0	3.87387e-035	0	1	4	4
70	1.31773	0.0348299	0	0	3.87387e-035	0	1	4	4
68	1.42222	0.029025	0	0	3.87387e-035	0	1	4	4
67	1.5093	0.03483	0	0	3.87387e-035	0	1	4	4
67	1.67184	0.0348299	0	0	3.87387e-035	0	1	4	4
70	1.70667	0.029025	0	0	3.87387e-035	0	1	4	4
69	1.77633	0.0696598	0	0	3.87387e-035	0	1	4	4
69	1.84599	0.0580499	0	0	3.87387e-035	0	1	4	4
70	1.99692	0.0464399	0	0	3.87387e-035	0	1	4	4
59	2.05497	0.0580499	0	0	3.87387e-035	0	1	4	4
69	2.11302	0.0986848	0	0	3.87387e-035	0	1	4	4
62	2.41488	0.0406349	0	0	3.87387e-035	0	1	4	4
66	2.49615	0.0348301	0	0	3.87387e-035	0	1	4	4
67	3.21016	0.0290251	0	0	3.87387e-035	0	1	4	4
70	3.2566	0.0406351	0	0	3.87387e-035	0	1	4	4
71	3.44236	0.0406349	0	0	3.87387e-035	0	1	4	4
70	3.48299	0.0522449	0	0	3.87387e-035	0	1	4	4
67	3.55846	0.0290248	0	0	3.87387e-035	0	1	4	4
67	3.76163	0.0232198	0	0	3.87387e-035	0	1	4	4
70	4.0693	0.0812702	0	0	3.87387e-035	0	1	4	4
68	4.15057	0.0348296	0	0	3.87387e-035	0	1	4	4
66	4.25506	0.0406351	0	0	3.87387e-035	0	1	4	4
75	5.88626	0.0232196	0	0	3.87387e-035	0	1	4	4
68	7.16916	0.0232201	0	0	3.87387e-035	0	1	4	4
63	8.51592	0.0232201	0	0	3.87387e-035	0	1	4	4
69	8.55075	0.0232201	0	0	3.87387e-035	0	1	4	4
66	8.57397	0.0580502	0	0	3.87387e-035	0	1	4	4
67	8.8468	0.0232201	0	0	3.87387e-035	0	1	4	4
68	9.69433	0.0290251	0	0	3.87387e-035	0	1	4	4
67	11.192	0.0812702	0	0	3.87387e-035	0	1	4	4
70	12.3704	0.116099	0	0	3.87387e-035	0	1	4	4
66	13.4502	0.0232201	0	0	3.87387e-035	0	1	4	4
55	14.6982	0.0232201	0	0	3.87387e-035	0	1	4	4
