midiPitch 	 onsetSec 	 durationSec 	 onsetBeats 	 onsetBarIndex 	 onsetBar 	 durationBeats 	 velocity  	 numerator 	 denominator 
63	0.0406349	0.17415	0	0	2.16268e-035	0	1	4	4
63	0.214785	0.16254	0	0	2.16268e-035	0	1	4	4
61	0.377324	0.0232199	0	0	2.16268e-035	0	1	4	4
62	0.441179	0.20898	0	0	2.16268e-035	0	1	4	4
60	1.08553	0.429569	0	0	2.16268e-035	0	1	4	4
60	1.6254	0.2322	0	0	2.16268e-035	0	1	4	4
62	1.8576	0.301859	0	0	2.16268e-035	0	1	4	4
60	2.15946	1.02168	0	0	2.16268e-035	0	1	4	4
48	7.52327	0.267029	0	0	2.16268e-035	0	1	4	4
54	7.79029	0.325079	0	0	2.16268e-035	0	1	4	4
55	8.13279	0.377324	0	0	2.16268e-035	0	1	4	4
55	8.51011	0.388935	0	0	2.16268e-035	0	1	4	4
55	8.89905	0.22059	0	0	2.16268e-035	0	1	4	4
54	9.52599	0.17415	0	0	2.16268e-035	0	1	4	4
55	9.70014	0.301859	0	0	2.16268e-035	0	1	4	4
54	10.2458	0.580499	0	0	2.16268e-035	0	1	4	4
54	10.8263	0.32508	0	0	2.16268e-035	0	1	4	4
55	11.8015	0.551475	0	0	2.16268e-035	0	1	4	4
56	12.353	0.179955	0	0	2.16268e-035	0	1	4	4
57	12.533	0.19737	0	0	2.16268e-035	0	1	4	4
58	12.7884	1.87501	0	0	2.16268e-035	0	1	4	4
60	14.855	0.412154	0	0	2.16268e-035	0	1	4	4
57	15.2671	0.278639	0	0	2.16268e-035	0	1	4	4
57	15.5864	0.162539	0	0	2.16268e-035	0	1	4	4
57	15.7954	0.574694	0	0	2.16268e-035	0	1	4	4
57	16.3701	0.696598	0	0	2.16268e-035	0	1	4	4
55	19.6847	0.644354	0	0	2.16268e-035	0	1	4	4
55	20.3291	0.272835	0	0	2.16268e-035	0	1	4	4
54	20.6019	0.928799	0	0	2.16268e-035	0	1	4	4
55	22.3086	0.597914	0	0	2.16268e-035	0	1	4	4
58	23.2316	0.539865	0	0	2.16268e-035	0	1	4	4
58	23.7714	0.249613	0	0	2.16268e-035	0	1	4	4
58	24.021	1.19583	0	0	2.16268e-035	0	1	4	4
55	25.3446	0.388935	0	0	2.16268e-035	0	1	4	4
55	25.7335	0.116098	0	0	2.16268e-035	0	1	4	4
55	25.9541	0.801088	0	0	2.16268e-035	0	1	4	4
54	26.7552	0.0348301	0	0	2.16268e-035	0	1	4	4
54	26.8655	0.516645	0	0	2.16268e-035	0	1	4	4
61	29.6345	0.17415	0	0	2.16268e-035	0	1	4	4
