midiPitch 	 onsetSec 	 durationSec 	 onsetBeats 	 onsetBarIndex 	 onsetBar 	 durationBeats 	 velocity  	 numerator 	 denominator 
81	0.702404	0.0348299	0	0	0	0	1	4	4
77	0.737234	0.02322	0	0	0	0	1	4	4
76	0.783673	0.0522449	0	0	0	0	1	4	4
79	0.835918	0.0348299	0	0	0	0	1	4	4
75	0.870748	0.168345	0	0	0	0	1	4	4
74	1.13778	0.15093	0	0	0	0	1	4	4
63	1.41061	0.388934	0	0	0	0	1	4	4
62	1.79955	0.0580499	0	0	0	0	1	4	4
63	1.92726	0.0406349	0	0	0	0	1	4	4
71	2.40327	0.156735	0	0	0	0	1	4	4
75	7.51746	0.0464396	0	0	0	0	1	4	4
80	9.7756	0.0232201	0	0	0	0	1	4	4
79	9.80463	0.0348301	0	0	0	0	1	4	4
79	9.90912	0.0522442	0	0	0	0	1	4	4
80	10.0368	0.0696602	0	0	0	0	1	4	4
85	10.8611	0.0812702	0	0	0	0	1	4	4
84	10.9424	0.0812693	0	0	0	0	1	4	4
84	11.1514	0.116099	0	0	0	0	1	4	4
81	11.9525	0.0406342	0	0	0	0	1	4	4
78	13.1193	0.0232201	0	0	0	0	1	4	4
74	15.3484	0.0232201	0	0	0	0	1	4	4
74	15.3774	0.0232201	0	0	0	0	1	4	4
78	15.4703	0.0232191	0	0	0	0	1	4	4
74	15.4935	0.0232201	0	0	0	0	1	4	4
74	15.54	0.0406351	0	0	0	0	1	4	4
75	16.2714	0.0870743	0	0	0	0	1	4	4
75	16.4049	0.0986843	0	0	0	0	1	4	4
75	16.5036	0.0696602	0	0	0	0	1	4	4
74	16.5849	0.0232201	0	0	0	0	1	4	4
74	16.6197	0.0290241	0	0	0	0	1	4	4
74	16.6545	0.0290241	0	0	0	0	1	4	4
74	16.6893	0.0464401	0	0	0	0	1	4	4
75	16.7358	0.0928783	0	0	0	0	1	4	4
75	16.8287	0.0464401	0	0	0	0	1	4	4
75	16.8751	0.0638561	0	0	0	0	1	4	4
75	16.939	0.0290241	0	0	0	0	1	4	4
75	17.4208	0.12771	0	0	0	0	1	4	4
74	17.5485	0.162539	0	0	0	0	1	4	4
74	17.711	0.330885	0	0	0	0	1	4	4
74	18.0419	0.179955	0	0	0	0	1	4	4
74	18.2219	0.121904	0	0	0	0	1	4	4
74	18.3438	0.029026	0	0	0	0	1	4	4
74	18.3728	0.133514	0	0	0	0	1	4	4
74	18.5063	0.0348301	0	0	0	0	1	4	4
74	18.5411	0.0522442	0	0	0	0	1	4	4
67	19.29	0.18576	0	0	0	0	1	4	4
82	19.4757	0.0696602	0	0	0	0	1	4	4
67	19.5454	0.0580502	0	0	0	0	1	4	4
79	19.6034	0.0406342	0	0	0	0	1	4	4
82	19.7602	0.0232201	0	0	0	0	1	4	4
82	19.8124	0.0348301	0	0	0	0	1	4	4
65	26.3605	0.68499	0	0	0	0	1	4	4
66	27.0454	0.0870743	0	0	0	0	1	4	4
67	27.5911	0.0754662	0	0	0	0	1	4	4
68	27.6666	0.0290241	0	0	0	0	1	4	4
67	27.7014	0.110296	0	0	0	0	1	4	4
55	27.7188	0.789478	0	0	0	0	1	4	4
55	28.5083	0.12771	0	0	0	0	1	4	4
55	28.7463	0.110294	0	0	0	0	1	4	4
55	28.8566	0.0232201	0	0	0	0	1	4	4
55	28.903	0.0348301	0	0	0	0	1	4	4
51	29.054	0.0754642	0	0	0	0	1	4	4
51	29.1701	0.179955	0	0	0	0	1	4	4
