midiPitch 	 onsetSec 	 durationSec 	 onsetBeats 	 onsetBarIndex 	 onsetBar 	 durationBeats 	 velocity  	 numerator 	 denominator 
64	0.22059	0.0348299	0	0	0	0	1	4	4
65	0.255419	0.0812698	0	0	0	0	1	4	4
63	0.952018	0.110295	0	0	0	0	1	4	4
65	1.27129	0.0522449	0	0	0	0	1	4	4
63	1.59057	0.0928798	0	0	0	0	1	4	4
63	1.7473	0.029025	0	0	0	0	1	4	4
66	2.10141	0.10449	0	0	0	0	1	4	4
64	2.63546	0.12771	0	0	0	0	1	4	4
63	3.06503	0.0464399	0	0	0	0	1	4	4
60	3.1463	0.0696597	0	0	0	0	1	4	4
63	3.30304	0.0928798	0	0	0	0	1	4	4
61	3.70939	0.0580497	0	0	0	0	1	4	4
61	4.71946	0.121905	0	0	0	0	1	4	4
63	4.94005	0.0522447	0	0	0	0	1	4	4
60	5.14322	0.0464396	0	0	0	0	1	4	4
58	5.48571	0.0348301	0	0	0	0	1	4	4
62	5.67147	0.0232196	0	0	0	0	1	4	4
63	5.7005	0.0928798	0	0	0	0	1	4	4
61	6.08363	0.0290246	0	0	0	0	1	4	4
63	6.13587	0.0522451	0	0	0	0	1	4	4
63	6.57705	0.150929	0	0	0	0	1	4	4
63	6.83828	0.0464401	0	0	0	0	1	4	4
63	6.94857	0.0406351	0	0	0	0	1	4	4
65	7.15175	0.0348301	0	0	0	0	1	4	4
64	7.18658	0.0232201	0	0	0	0	1	4	4
62	7.2098	0.0348296	0	0	0	0	1	4	4
60	7.41878	0.0696597	0	0	0	0	1	4	4
64	8.12118	0.0638552	0	0	0	0	1	4	4
60	8.33016	0.0638552	0	0	0	0	1	4	4
57	8.39401	0.0348301	0	0	0	0	1	4	4
58	8.45787	0.0406351	0	0	0	0	1	4	4
64	9.38667	0.0638552	0	0	0	0	1	4	4
64	9.45052	0.0290251	0	0	0	0	1	4	4
63	9.64209	0.20898	0	0	0	0	1	4	4
61	9.85107	0.121904	0	0	0	0	1	4	4
60	10.1819	0.0290251	0	0	0	0	1	4	4
63	10.24	0.0986853	0	0	0	0	1	4	4
66	11.2327	0.121905	0	0	0	0	1	4	4
65	11.8364	0.0638552	0	0	0	0	1	4	4
65	11.9699	0.0348291	0	0	0	0	1	4	4
64	12.0454	0.0290251	0	0	0	0	1	4	4
66	12.6317	0.0290251	0	0	0	0	1	4	4
66	12.98	0.116099	0	0	0	0	1	4	4
63	13.5779	0.0290251	0	0	0	0	1	4	4
65	13.7752	0.0928793	0	0	0	0	1	4	4
65	13.9552	0.0406351	0	0	0	0	1	4	4
64	14.1468	0.121904	0	0	0	0	1	4	4
65	14.4544	0.0522451	0	0	0	0	1	4	4
65	14.5067	0.0754652	0	0	0	0	1	4	4
65	14.7098	0.0232201	0	0	0	0	1	4	4
68	14.7621	0.0232201	0	0	0	0	1	4	4
68	14.7911	0.0464401	0	0	0	0	1	4	4
71	15.2091	0.0522451	0	0	0	0	1	4	4
65	15.3658	0.0812702	0	0	0	0	1	4	4
64	15.4471	0.0348291	0	0	0	0	1	4	4
64	15.5051	0.10449	0	0	0	0	1	4	4
64	15.6096	0.0928793	0	0	0	0	1	4	4
64	15.7838	0.133514	0	0	0	0	1	4	4
65	16.2249	0.0986843	0	0	0	0	1	4	4
67	16.5442	0.0290241	0	0	0	0	1	4	4
68	16.579	0.0464382	0	0	0	0	1	4	4
66	16.7242	0.0638542	0	0	0	0	1	4	4
74	17.6762	0.1161	0	0	0	0	1	4	4
62	17.7923	0.0406342	0	0	0	0	1	4	4
75	17.8271	0.15093	0	0	0	0	1	4	4
63	18.0825	0.0754662	0	0	0	0	1	4	4
64	18.2102	0.16254	0	0	0	0	1	4	4
64	18.3728	0.0696602	0	0	0	0	1	4	4
74	18.5702	0.0754662	0	0	0	0	1	4	4
62	19.0055	0.150928	0	0	0	0	1	4	4
61	19.3016	0.0522461	0	0	0	0	1	4	4
62	19.3596	0.17415	0	0	0	0	1	4	4
62	19.6557	0.0928802	0	0	0	0	1	4	4
63	19.766	0.0580502	0	0	0	0	1	4	4
63	19.9169	0.0696602	0	0	0	0	1	4	4
62	19.9866	0.0348301	0	0	0	0	1	4	4
64	21.3275	0.0348301	0	0	0	0	1	4	4
63	21.3682	0.0348301	0	0	0	0	1	4	4
63	21.4843	0.0348301	0	0	0	0	1	4	4
62	21.5249	0.0464401	0	0	0	0	1	4	4
64	21.8558	0.0522461	0	0	0	0	1	4	4
65	22.0706	0.0232201	0	0	0	0	1	4	4
63	22.1344	0.0638542	0	0	0	0	1	4	4
62	22.1983	0.0928802	0	0	0	0	1	4	4
62	22.4363	0.0580502	0	0	0	0	1	4	4
63	22.4943	0.0232201	0	0	0	0	1	4	4
64	22.6569	0.029026	0	0	0	0	1	4	4
62	22.6975	0.0638542	0	0	0	0	1	4	4
63	22.9936	0.10449	0	0	0	0	1	4	4
63	23.2954	0.0696602	0	0	0	0	1	4	4
64	23.3651	0.0348282	0	0	0	0	1	4	4
62	23.6263	0.0754662	0	0	0	0	1	4	4
63	24.9324	0.168344	0	0	0	0	1	4	4
62	25.1008	0.0522442	0	0	0	0	1	4	4
63	25.3272	0.174149	0	0	0	0	1	4	4
65	25.658	0.029026	0	0	0	0	1	4	4
62	25.8148	0.0812683	0	0	0	0	1	4	4
61	25.8961	0.110296	0	0	0	0	1	4	4
63	26.2618	0.12771	0	0	0	0	1	4	4
62	26.5114	0.388933	0	0	0	0	1	4	4
63	26.9468	0.121904	0	0	0	0	1	4	4
63	27.1732	0.0638561	0	0	0	0	1	4	4
63	27.237	0.0348282	0	0	0	0	1	4	4
74	27.2486	0.168344	0	0	0	0	1	4	4
78	27.6434	0.168344	0	0	0	0	1	4	4
74	28.5025	0.255421	0	0	0	0	1	4	4
75	28.7985	0.0406361	0	0	0	0	1	4	4
74	28.8682	0.0696602	0	0	0	0	1	4	4
75	29.0017	0.1161	0	0	0	0	1	4	4
76	29.4371	0.0406342	0	0	0	0	1	4	4
74	29.4835	0.0290241	0	0	0	0	1	4	4
74	29.5242	0.0928802	0	0	0	0	1	4	4
