midiPitch 	 onsetSec 	 durationSec 	 onsetBeats 	 onsetBarIndex 	 onsetBar 	 durationBeats 	 velocity  	 numerator 	 denominator 
64	0.191565	0.0290249	0	0	0	0	1	4	4
64	0.226395	0.0754649	0	0	0	0	1	4	4
64	0.330884	0.0870748	0	0	0	0	1	4	4
64	0.417959	0.0232199	0	0	0	0	1	4	4
64	0.493424	0.0580499	0	0	0	0	1	4	4
64	0.708209	0.0696598	0	0	0	0	1	4	4
63	0.777868	0.0406349	0	0	0	0	1	4	4
64	0.830113	0.145125	0	0	0	0	1	4	4
62	0.975238	0.0580499	0	0	0	0	1	4	4
64	1.03909	0.249615	0	0	0	0	1	4	4
63	1.28871	0.0696598	0	0	0	0	1	4	4
64	1.3932	0.261224	0	0	0	0	1	4	4
64	1.65442	0.0986849	0	0	0	0	1	4	4
65	1.84599	0.121905	0	0	0	0	1	4	4
64	2.02014	0.0928798	0	0	0	0	1	4	4
62	2.54258	0.0580499	0	0	0	0	1	4	4
62	2.60063	0.17415	0	0	0	0	1	4	4
65	3.04181	0.19737	0	0	0	0	1	4	4
66	3.4946	0.10449	0	0	0	0	1	4	4
63	3.77905	0.12771	0	0	0	0	1	4	4
66	3.99964	0.0870748	0	0	0	0	1	4	4
65	4.21442	0.121905	0	0	0	0	1	4	4
65	4.41179	0.226395	0	0	0	0	1	4	4
65	4.63819	0.127709	0	0	0	0	1	4	4
65	4.85297	0.179955	0	0	0	0	1	4	4
60	5.18966	0.20898	0	0	0	0	1	4	4
65	5.79338	0.0812702	0	0	0	0	1	4	4
65	5.89206	0.116099	0	0	0	0	1	4	4
66	6.27519	0.0406346	0	0	0	0	1	4	4
65	6.32163	0.0406351	0	0	0	0	1	4	4
62	6.55964	0.13932	0	0	0	0	1	4	4
65	6.77442	0.0870748	0	0	0	0	1	4	4
65	6.96599	0.156735	0	0	0	0	1	4	4
65	7.19238	0.168344	0	0	0	0	1	4	4
65	7.50585	0.110295	0	0	0	0	1	4	4
64	7.68	0.35991	0	0	0	0	1	4	4
66	8.55655	0.0348301	0	0	0	0	1	4	4
65	8.59719	0.0696602	0	0	0	0	1	4	4
65	8.68426	0.121904	0	0	0	0	1	4	4
65	8.85261	0.0754642	0	0	0	0	1	4	4
65	9.00934	0.127709	0	0	0	0	1	4	4
62	9.39828	0.133514	0	0	0	0	1	4	4
65	9.72916	0.145124	0	0	0	0	1	4	4
65	9.87429	0.301859	0	0	0	0	1	4	4
65	10.2052	0.133515	0	0	0	0	1	4	4
64	10.4083	0.162539	0	0	0	0	1	4	4
63	10.5999	0.0870752	0	0	0	0	1	4	4
61	10.7624	0.168345	0	0	0	0	1	4	4
61	10.954	0.0928793	0	0	0	0	1	4	4
64	11.1107	0.156734	0	0	0	0	1	4	4
64	11.2675	0.238005	0	0	0	0	1	4	4
62	11.5751	0.121904	0	0	0	0	1	4	4
64	11.7551	0.284444	0	0	0	0	1	4	4
64	12.4807	0.133514	0	0	0	0	1	4	4
64	12.7245	0.203175	0	0	0	0	1	4	4
64	13.0844	0.18576	0	0	0	0	1	4	4
64	13.3979	0.139319	0	0	0	0	1	4	4
64	13.5372	0.133514	0	0	0	0	1	4	4
64	13.7578	0.110294	0	0	0	0	1	4	4
65	13.8913	0.597914	0	0	0	0	1	4	4
62	14.4893	0.15093	0	0	0	0	1	4	4
62	14.6402	0.586304	0	0	0	0	1	4	4
62	15.2265	0.18576	0	0	0	0	1	4	4
62	15.4122	0.388934	0	0	0	0	1	4	4
60	15.8012	0.476008	0	0	0	0	1	4	4
65	16.2772	0.243811	0	0	0	0	1	4	4
65	16.521	0.150928	0	0	0	0	1	4	4
65	16.6719	0.10449	0	0	0	0	1	4	4
62	16.7764	0.563084	0	0	0	0	1	4	4
57	25.7103	0.940407	0	0	0	0	1	4	4
57	26.6507	0.290251	0	0	0	0	1	4	4
57	26.941	0.394739	0	0	0	0	1	4	4
57	27.3357	0.150928	0	0	0	0	1	4	4
57	27.5389	0.1161	0	0	0	0	1	4	4
59	27.8988	0.272835	0	0	0	0	1	4	4
57	28.5083	0.528254	0	0	0	0	1	4	4
