midiPitch 	 onsetSec 	 durationSec 	 onsetBeats 	 onsetBarIndex 	 onsetBar 	 durationBeats 	 velocity  	 numerator 	 denominator 
80	2.47293	0.0290248	0	0	1.83362e-035	0	1	4	4
81	2.50776	0.075465	0	0	1.83362e-035	0	1	4	4
81	2.58322	0.0754647	0	0	1.83362e-035	0	1	4	4
69	3.05342	0.0232201	0	0	1.83362e-035	0	1	4	4
65	3.22757	0.0348299	0	0	1.83362e-035	0	1	4	4
68	3.34948	0.0348299	0	0	1.83362e-035	0	1	4	4
75	11.8828	0.0638552	0	0	1.83362e-035	0	1	4	4
69	12.0163	0.0928802	0	0	1.83362e-035	0	1	4	4
72	12.3124	0.150929	0	0	1.83362e-035	0	1	4	4
72	12.4633	0.632744	0	0	1.83362e-035	0	1	4	4
69	13.8275	0.307664	0	0	1.83362e-035	0	1	4	4
69	14.1351	0.0522451	0	0	1.83362e-035	0	1	4	4
69	14.1874	0.0348301	0	0	1.83362e-035	0	1	4	4
69	14.2222	0.0522442	0	0	1.83362e-035	0	1	4	4
69	14.2745	0.0522451	0	0	1.83362e-035	0	1	4	4
69	14.3267	0.0754652	0	0	1.83362e-035	0	1	4	4
69	14.4022	0.0406351	0	0	1.83362e-035	0	1	4	4
69	14.4428	0.110294	0	0	1.83362e-035	0	1	4	4
69	14.5531	0.0290251	0	0	1.83362e-035	0	1	4	4
69	14.5995	0.0464401	0	0	1.83362e-035	0	1	4	4
69	14.646	0.162539	0	0	1.83362e-035	0	1	4	4
66	27.3705	0.0812702	0	0	1.83362e-035	0	1	4	4
66	27.4518	0.0754642	0	0	1.83362e-035	0	1	4	4
66	27.742	0.179955	0	0	1.83362e-035	0	1	4	4
65	28.0207	0.719818	0	0	1.83362e-035	0	1	4	4
66	28.7405	0.191565	0	0	1.83362e-035	0	1	4	4
68	28.9901	0.16254	0	0	1.83362e-035	0	1	4	4
68	29.1527	0.429569	0	0	1.83362e-035	0	1	4	4
