midiPitch 	 onsetSec 	 durationSec 	 onsetBeats 	 onsetBarIndex 	 onsetBar 	 durationBeats 	 velocity  	 numerator 	 denominator 
76	0.441179	0.0348299	0	0	3.78002e-035	0	1	4	4
78	0.510839	0.0870748	0	0	3.78002e-035	0	1	4	4
80	0.597914	0.0696599	0	0	3.78002e-035	0	1	4	4
82	0.690794	0.15093	0	0	3.78002e-035	0	1	4	4
84	0.986848	0.0986848	0	0	3.78002e-035	0	1	4	4
67	1.54993	0.412154	0	0	3.78002e-035	0	1	4	4
56	2.37424	0.0522449	0	0	3.78002e-035	0	1	4	4
62	2.42649	0.539864	0	0	3.78002e-035	0	1	4	4
67	2.96635	0.214785	0	0	3.78002e-035	0	1	4	4
60	3.79066	0.557279	0	0	3.78002e-035	0	1	4	4
62	4.69624	0.203175	0	0	3.78002e-035	0	1	4	4
63	4.89941	0.522449	0	0	3.78002e-035	0	1	4	4
63	5.51474	0.354105	0	0	3.78002e-035	0	1	4	4
63	6.10104	0.16254	0	0	3.78002e-035	0	1	4	4
62	6.26358	0.168344	0	0	3.78002e-035	0	1	4	4
62	6.43193	0.0348301	0	0	3.78002e-035	0	1	4	4
64	6.46676	0.133515	0	0	3.78002e-035	0	1	4	4
61	6.60027	0.319274	0	0	3.78002e-035	0	1	4	4
58	7.08789	0.0754647	0	0	3.78002e-035	0	1	4	4
55	7.16336	0.3483	0	0	3.78002e-035	0	1	4	4
66	7.51166	0.162539	0	0	3.78002e-035	0	1	4	4
67	7.80771	0.203175	0	0	3.78002e-035	0	1	4	4
64	9.82785	0.191565	0	0	3.78002e-035	0	1	4	4
64	10.0194	0.17415	0	0	3.78002e-035	0	1	4	4
61	10.1936	0.110295	0	0	3.78002e-035	0	1	4	4
63	10.3039	0.882358	0	0	3.78002e-035	0	1	4	4
62	11.1862	0.24381	0	0	3.78002e-035	0	1	4	4
63	12.1673	0.545669	0	0	3.78002e-035	0	1	4	4
63	12.7129	0.110294	0	0	3.78002e-035	0	1	4	4
63	12.8232	0.17415	0	0	3.78002e-035	0	1	4	4
63	12.9974	0.203175	0	0	3.78002e-035	0	1	4	4
64	13.2005	0.481813	0	0	3.78002e-035	0	1	4	4
68	13.7462	0.365714	0	0	3.78002e-035	0	1	4	4
64	14.3499	0.150929	0	0	3.78002e-035	0	1	4	4
57	15.2845	0.0870752	0	0	3.78002e-035	0	1	4	4
56	15.3716	0.336689	0	0	3.78002e-035	0	1	4	4
67	18.4831	0.824308	0	0	3.78002e-035	0	1	4	4
67	19.5686	0.208979	0	0	3.78002e-035	0	1	4	4
64	19.9343	0.208981	0	0	3.78002e-035	0	1	4	4
62	20.2478	0.574694	0	0	3.78002e-035	0	1	4	4
63	21.6294	0.226395	0	0	3.78002e-035	0	1	4	4
63	22.0648	0.354103	0	0	3.78002e-035	0	1	4	4
63	22.4189	0.446985	0	0	3.78002e-035	0	1	4	4
60	23.069	0.208979	0	0	3.78002e-035	0	1	4	4
60	23.516	0.789478	0	0	3.78002e-035	0	1	4	4
61	24.3055	0.156734	0	0	3.78002e-035	0	1	4	4
64	26.7262	0.841722	0	0	3.78002e-035	0	1	4	4
67	27.5679	0.168344	0	0	3.78002e-035	0	1	4	4
64	27.7711	0.203175	0	0	3.78002e-035	0	1	4	4
62	27.9742	0.272835	0	0	3.78002e-035	0	1	4	4
63	28.2471	0.423765	0	0	3.78002e-035	0	1	4	4
63	28.6708	0.429569	0	0	3.78002e-035	0	1	4	4
