midiPitch 	 onsetSec 	 durationSec 	 onsetBeats 	 onsetBarIndex 	 onsetBar 	 durationBeats 	 velocity  	 numerator 	 denominator 
73	1.82857	0.249614	0	0	2.22858e-035	0	1	4	4
72	2.4381	0.121905	0	0	2.22858e-035	0	1	4	4
67	2.76898	0.0290248	0	0	2.22858e-035	0	1	4	4
73	2.84444	0.0464401	0	0	2.22858e-035	0	1	4	4
72	2.89088	0.0348299	0	0	2.22858e-035	0	1	4	4
72	3.07084	0.110295	0	0	2.22858e-035	0	1	4	4
75	3.36109	0.0348301	0	0	2.22858e-035	0	1	4	4
72	3.40753	0.162539	0	0	2.22858e-035	0	1	4	4
71	3.57007	0.1161	0	0	2.22858e-035	0	1	4	4
72	3.80227	0.156735	0	0	2.22858e-035	0	1	4	4
73	4.0693	0.15093	0	0	2.22858e-035	0	1	4	4
71	4.5395	0.0348296	0	0	2.22858e-035	0	1	4	4
73	4.63819	0.203175	0	0	2.22858e-035	0	1	4	4
73	5.09097	0.0812702	0	0	2.22858e-035	0	1	4	4
72	5.17225	0.0928798	0	0	2.22858e-035	0	1	4	4
72	5.31737	0.133515	0	0	2.22858e-035	0	1	4	4
71	5.63084	0.0522451	0	0	2.22858e-035	0	1	4	4
71	5.68308	0.116099	0	0	2.22858e-035	0	1	4	4
72	6.23456	0.0406351	0	0	2.22858e-035	0	1	4	4
73	6.2868	0.1161	0	0	2.22858e-035	0	1	4	4
71	6.50739	0.0580497	0	0	2.22858e-035	0	1	4	4
72	6.58866	0.145124	0	0	2.22858e-035	0	1	4	4
73	6.73379	0.226395	0	0	2.22858e-035	0	1	4	4
73	7.02404	0.13932	0	0	2.22858e-035	0	1	4	4
73	7.40136	0.1161	0	0	2.22858e-035	0	1	4	4
72	7.95283	0.110295	0	0	2.22858e-035	0	1	4	4
71	8.06313	0.0290251	0	0	2.22858e-035	0	1	4	4
70	8.09215	0.0406342	0	0	2.22858e-035	0	1	4	4
72	8.44626	0.0812693	0	0	2.22858e-035	0	1	4	4
73	8.63202	0.156734	0	0	2.22858e-035	0	1	4	4
73	9.09642	0.0290241	0	0	2.22858e-035	0	1	4	4
73	9.13125	0.121905	0	0	2.22858e-035	0	1	4	4
73	9.25315	0.0754642	0	0	2.22858e-035	0	1	4	4
69	9.37506	0.0406351	0	0	2.22858e-035	0	1	4	4
73	9.43891	0.139319	0	0	2.22858e-035	0	1	4	4
73	9.75819	0.145125	0	0	2.22858e-035	0	1	4	4
71	9.90331	0.145124	0	0	2.22858e-035	0	1	4	4
73	10.1645	0.13932	0	0	2.22858e-035	0	1	4	4
71	10.3039	0.0580492	0	0	2.22858e-035	0	1	4	4
70	10.8031	0.0754652	0	0	2.22858e-035	0	1	4	4
71	10.8785	0.2322	0	0	2.22858e-035	0	1	4	4
72	11.1107	0.127709	0	0	2.22858e-035	0	1	4	4
73	11.2849	0.0290251	0	0	2.22858e-035	0	1	4	4
72	11.3197	0.24381	0	0	2.22858e-035	0	1	4	4
70	11.5635	0.0580492	0	0	2.22858e-035	0	1	4	4
72	11.6216	0.15093	0	0	2.22858e-035	0	1	4	4
70	11.7725	0.0812693	0	0	2.22858e-035	0	1	4	4
73	11.8538	0.0870752	0	0	2.22858e-035	0	1	4	4
73	12.1847	0.116099	0	0	2.22858e-035	0	1	4	4
72	12.4401	0.272835	0	0	2.22858e-035	0	1	4	4
73	13.1541	0.0754642	0	0	2.22858e-035	0	1	4	4
72	13.3979	0.0928793	0	0	2.22858e-035	0	1	4	4
68	13.5895	0.0232201	0	0	2.22858e-035	0	1	4	4
72	13.6127	0.127709	0	0	2.22858e-035	0	1	4	4
72	13.9784	0.162539	0	0	2.22858e-035	0	1	4	4
72	14.2571	0.110295	0	0	2.22858e-035	0	1	4	4
71	14.3673	0.203175	0	0	2.22858e-035	0	1	4	4
72	14.7331	0.162539	0	0	2.22858e-035	0	1	4	4
69	15.3948	0.0232201	0	0	2.22858e-035	0	1	4	4
73	15.4239	0.0812693	0	0	2.22858e-035	0	1	4	4
72	15.5051	0.10449	0	0	2.22858e-035	0	1	4	4
72	15.627	0.0580492	0	0	2.22858e-035	0	1	4	4
71	15.6851	0.0580502	0	0	2.22858e-035	0	1	4	4
73	15.807	0.121904	0	0	2.22858e-035	0	1	4	4
71	15.9289	0.121904	0	0	2.22858e-035	0	1	4	4
73	16.0508	0.168344	0	0	2.22858e-035	0	1	4	4
71	16.2191	0.133516	0	0	2.22858e-035	0	1	4	4
73	16.3527	0.214785	0	0	2.22858e-035	0	1	4	4
71	16.8809	0.0580502	0	0	2.22858e-035	0	1	4	4
72	17.0667	0.0870762	0	0	2.22858e-035	0	1	4	4
70	17.1537	0.0928783	0	0	2.22858e-035	0	1	4	4
71	17.6123	0.0580502	0	0	2.22858e-035	0	1	4	4
71	17.8619	0.0406342	0	0	2.22858e-035	0	1	4	4
73	18.0477	0.10449	0	0	2.22858e-035	0	1	4	4
69	18.2741	0.0522461	0	0	2.22858e-035	0	1	4	4
74	18.4308	0.0406342	0	0	2.22858e-035	0	1	4	4
73	18.4715	0.1161	0	0	2.22858e-035	0	1	4	4
73	18.7443	0.139318	0	0	2.22858e-035	0	1	4	4
72	19.0578	0.156734	0	0	2.22858e-035	0	1	4	4
70	19.3364	0.0348301	0	0	2.22858e-035	0	1	4	4
72	19.3945	0.18576	0	0	2.22858e-035	0	1	4	4
84	19.9111	0.0464401	0	0	2.22858e-035	0	1	4	4
84	19.9866	0.0406342	0	0	2.22858e-035	0	1	4	4
69	20.0272	0.0754642	0	0	2.22858e-035	0	1	4	4
69	20.1491	0.0696602	0	0	2.22858e-035	0	1	4	4
68	20.2188	0.0754642	0	0	2.22858e-035	0	1	4	4
69	20.3175	0.0580502	0	0	2.22858e-035	0	1	4	4
71	20.3755	0.0232201	0	0	2.22858e-035	0	1	4	4
72	20.4045	0.0406342	0	0	2.22858e-035	0	1	4	4
84	20.4916	0.0928802	0	0	2.22858e-035	0	1	4	4
81	20.5845	0.0580502	0	0	2.22858e-035	0	1	4	4
80	20.7761	0.0696602	0	0	2.22858e-035	0	1	4	4
84	20.8631	0.0522442	0	0	2.22858e-035	0	1	4	4
82	21.1011	0.0464401	0	0	2.22858e-035	0	1	4	4
84	21.194	0.0870743	0	0	2.22858e-035	0	1	4	4
70	21.3101	0.0464382	0	0	2.22858e-035	0	1	4	4
81	21.5829	0.0812702	0	0	2.22858e-035	0	1	4	4
84	22.2563	0.0348301	0	0	2.22858e-035	0	1	4	4
82	22.2912	0.0232201	0	0	2.22858e-035	0	1	4	4
73	22.5292	0.121904	0	0	2.22858e-035	0	1	4	4
81	22.7149	0.0232201	0	0	2.22858e-035	0	1	4	4
81	22.9007	0.133514	0	0	2.22858e-035	0	1	4	4
81	23.3186	0.127708	0	0	2.22858e-035	0	1	4	4
81	23.4463	0.0406361	0	0	2.22858e-035	0	1	4	4
82	23.8063	0.1161	0	0	2.22858e-035	0	1	4	4
84	24.5145	0.0870743	0	0	2.22858e-035	0	1	4	4
73	24.8628	0.208979	0	0	2.22858e-035	0	1	4	4
83	25.0717	0.0232201	0	0	2.22858e-035	0	1	4	4
72	25.2923	0.0348301	0	0	2.22858e-035	0	1	4	4
80	25.3736	0.0522442	0	0	2.22858e-035	0	1	4	4
84	25.5652	0.0522442	0	0	2.22858e-035	0	1	4	4
81	25.6406	0.0232201	0	0	2.22858e-035	0	1	4	4
84	25.6639	0.0406342	0	0	2.22858e-035	0	1	4	4
81	25.7277	0.0754662	0	0	2.22858e-035	0	1	4	4
81	26.0528	0.0232201	0	0	2.22858e-035	0	1	4	4
80	26.1341	0.029026	0	0	2.22858e-035	0	1	4	4
84	26.6507	0.12771	0	0	2.22858e-035	0	1	4	4
82	26.9526	0.0870743	0	0	2.22858e-035	0	1	4	4
84	27.1035	0.197371	0	0	2.22858e-035	0	1	4	4
84	28.8392	0.0464401	0	0	2.22858e-035	0	1	4	4
