midiPitch 	 onsetSec 	 durationSec 	 onsetBeats 	 onsetBarIndex 	 onsetBar 	 durationBeats 	 velocity  	 numerator 	 denominator 
74	0.731429	0.0406349	0	0	0	0	1	4	4
74	0.922993	0.0232199	0	0	0	0	1	4	4
74	1.00426	0.0232199	0	0	0	0	1	4	4
77	1.53252	0.121905	0	0	0	0	1	4	4
78	1.67764	0.121905	0	0	0	0	1	4	4
82	1.82277	0.15093	0	0	0	0	1	4	4
77	1.9737	0.0754648	0	0	0	0	1	4	4
82	2.04916	0.0406349	0	0	0	0	1	4	4
82	2.0898	0.08127	0	0	0	0	1	4	4
82	2.17107	0.0406349	0	0	0	0	1	4	4
81	2.22912	0.0348301	0	0	0	0	1	4	4
80	2.26975	0.10449	0	0	0	0	1	4	4
79	2.37424	0.0290248	0	0	0	0	1	4	4
70	2.84444	0.12771	0	0	0	0	1	4	4
71	2.97215	0.16254	0	0	0	0	1	4	4
82	3.13469	0.0406349	0	0	0	0	1	4	4
71	3.08825	0.319274	0	0	0	0	1	4	4
67	3.53524	0.179955	0	0	0	0	1	4	4
0	3.71519	0.17415	0	0	0	0	1	4	4
67	3.9532	0.133515	0	0	0	0	1	4	4
67	4.08671	0.0232201	0	0	0	0	1	4	4
64	4.1854	0.22059	0	0	0	0	1	4	4
63	4.40599	0.238005	0	0	0	0	1	4	4
65	5.74113	0.278639	0	0	0	0	1	4	4
66	6.01977	0.145125	0	0	0	0	1	4	4
67	6.1649	0.522449	0	0	0	0	1	4	4
67	6.68735	0.12771	0	0	0	0	1	4	4
68	7.01243	0.19737	0	0	0	0	1	4	4
67	7.2098	0.238004	0	0	0	0	1	4	4
67	7.4478	0.145125	0	0	0	0	1	4	4
65	7.59293	0.638549	0	0	0	0	1	4	4
67	8.28372	0.191565	0	0	0	0	1	4	4
72	8.59138	0.133514	0	0	0	0	1	4	4
72	8.91066	0.110294	0	0	0	0	1	4	4
70	9.24735	0.2322	0	0	0	0	1	4	4
67	9.70014	0.133514	0	0	0	0	1	4	4
72	10.1878	0.19737	0	0	0	0	1	4	4
71	10.658	0.168344	0	0	0	0	1	4	4
70	11.1746	0.0928802	0	0	0	0	1	4	4
71	11.2675	0.0986853	0	0	0	0	1	4	4
71	12.2021	0.0638552	0	0	0	0	1	4	4
71	12.8871	0.0696602	0	0	0	0	1	4	4
71	12.9567	0.0870743	0	0	0	0	1	4	4
68	13.0438	0.10449	0	0	0	0	1	4	4
67	13.1483	0.0406351	0	0	0	0	1	4	4
67	13.2818	0.121905	0	0	0	0	1	4	4
67	13.4037	0.0696592	0	0	0	0	1	4	4
67	13.4734	0.15093	0	0	0	0	1	4	4
73	13.6766	0.133515	0	0	0	0	1	4	4
73	13.9726	0.150929	0	0	0	0	1	4	4
70	14.3383	0.203175	0	0	0	0	1	4	4
58	14.7911	0.0928793	0	0	0	0	1	4	4
59	14.884	0.0290251	0	0	0	0	1	4	4
71	14.913	0.0870752	0	0	0	0	1	4	4
79	15.2787	0.13932	0	0	0	0	1	4	4
79	15.7663	0.0522451	0	0	0	0	1	4	4
79	15.836	0.168344	0	0	0	0	1	4	4
80	16.2249	0.0638542	0	0	0	0	1	4	4
79	16.2888	0.0638561	0	0	0	0	1	4	4
79	16.701	0.0232201	0	0	0	0	1	4	4
79	16.7996	0.15093	0	0	0	0	1	4	4
79	17.1421	0.0986843	0	0	0	0	1	4	4
83	17.6704	0.0290241	0	0	0	0	1	4	4
83	17.7052	0.0522442	0	0	0	0	1	4	4
82	17.7575	0.0348301	0	0	0	0	1	4	4
79	17.7923	0.0406342	0	0	0	0	1	4	4
79	17.8503	0.1161	0	0	0	0	1	4	4
79	17.9664	0.145124	0	0	0	0	1	4	4
80	18.2799	0.0464401	0	0	0	0	1	4	4
79	18.3438	0.0522461	0	0	0	0	1	4	4
80	18.396	0.203175	0	0	0	0	1	4	4
73	19.0984	0.10449	0	0	0	0	1	4	4
71	19.3538	0.272835	0	0	0	0	1	4	4
68	19.8589	0.0522442	0	0	0	0	1	4	4
67	19.9169	0.0348301	0	0	0	0	1	4	4
67	20.3523	0.0754662	0	0	0	0	1	4	4
71	20.4278	0.0870743	0	0	0	0	1	4	4
69	20.5148	0.1161	0	0	0	0	1	4	4
64	20.7702	0.0986862	0	0	0	0	1	4	4
64	20.8689	0.0290241	0	0	0	0	1	4	4
71	20.927	0.0754662	0	0	0	0	1	4	4
68	21.2405	0.0754642	0	0	0	0	1	4	4
71	21.3159	0.0928802	0	0	0	0	1	4	4
68	21.4146	0.0464401	0	0	0	0	1	4	4
71	21.461	0.0754642	0	0	0	0	1	4	4
68	21.7803	0.0290241	0	0	0	0	1	4	4
71	21.8093	0.029026	0	0	0	0	1	4	4
67	21.8384	0.0232201	0	0	0	0	1	4	4
71	22.2215	0.0580502	0	0	0	0	1	4	4
70	22.3318	0.0812702	0	0	0	0	1	4	4
68	22.6395	0.0986843	0	0	0	0	1	4	4
68	22.7381	0.0290241	0	0	0	0	1	4	4
70	22.8426	0.0638542	0	0	0	0	1	4	4
69	23.0458	0.0290241	0	0	0	0	1	4	4
69	23.1677	0.133514	0	0	0	0	1	4	4
72	23.3012	0.0812702	0	0	0	0	1	4	4
68	23.3941	0.0928802	0	0	0	0	1	4	4
68	23.487	0.0522442	0	0	0	0	1	4	4
68	23.5392	0.220591	0	0	0	0	1	4	4
67	23.934	0.16254	0	0	0	0	1	4	4
69	24.1023	0.0348301	0	0	0	0	1	4	4
72	24.1371	0.249615	0	0	0	0	1	4	4
67	24.619	0.301861	0	0	0	0	1	4	4
67	24.9208	0.313469	0	0	0	0	1	4	4
67	25.2343	0.0232201	0	0	0	0	1	4	4
67	25.2633	0.10449	0	0	0	0	1	4	4
67	25.3678	0.0348301	0	0	0	0	1	4	4
71	25.4839	0.0232201	0	0	0	0	1	4	4
72	25.5129	0.0638561	0	0	0	0	1	4	4
72	25.5768	0.0580482	0	0	0	0	1	4	4
72	25.7219	0.0580502	0	0	0	0	1	4	4
71	25.8786	0.0754642	0	0	0	0	1	4	4
70	25.9541	0.307665	0	0	0	0	1	4	4
67	26.2676	0.15093	0	0	0	0	1	4	4
67	26.4185	0.232199	0	0	0	0	1	4	4
71	26.7029	0.0870743	0	0	0	0	1	4	4
72	26.79	0.121904	0	0	0	0	1	4	4
67	27.1673	0.238005	0	0	0	0	1	4	4
71	27.9684	0.0696602	0	0	0	0	1	4	4
72	28.0381	0.185759	0	0	0	0	1	4	4
69	28.2471	0.15093	0	0	0	0	1	4	4
68	28.4967	0.330885	0	0	0	0	1	4	4
