midiPitch 	 onsetSec 	 durationSec 	 onsetBeats 	 onsetBarIndex 	 onsetBar 	 durationBeats 	 velocity  	 numerator 	 denominator 
80	0.748844	0.156735	0	0	2.85867e-035	0	1	4	4
68	1.52671	0.0232201	0	0	2.85867e-035	0	1	4	4
67	1.55574	0.0464399	0	0	2.85867e-035	0	1	4	4
68	1.69506	0.0638548	0	0	2.85867e-035	0	1	4	4
80	2.02594	0.0406351	0	0	2.85867e-035	0	1	4	4
80	2.06658	0.0406349	0	0	2.85867e-035	0	1	4	4
80	2.3278	0.145125	0	0	2.85867e-035	0	1	4	4
78	2.53098	0.0696597	0	0	2.85867e-035	0	1	4	4
84	2.60063	0.0348301	0	0	2.85867e-035	0	1	4	4
85	2.63546	0.0928798	0	0	2.85867e-035	0	1	4	4
80	2.78059	0.0638547	0	0	2.85867e-035	0	1	4	4
79	2.94893	0.0290251	0	0	2.85867e-035	0	1	4	4
80	3.00118	0.121905	0	0	2.85867e-035	0	1	4	4
79	3.27401	0.0406349	0	0	2.85867e-035	0	1	4	4
83	3.40753	0.0232198	0	0	2.85867e-035	0	1	4	4
85	3.45977	0.0290251	0	0	2.85867e-035	0	1	4	4
85	3.54104	0.0232198	0	0	2.85867e-035	0	1	4	4
85	3.56426	0.0232201	0	0	2.85867e-035	0	1	4	4
85	3.6107	0.0696597	0	0	2.85867e-035	0	1	4	4
85	3.68036	0.0232201	0	0	2.85867e-035	0	1	4	4
81	4.37116	0.110295	0	0	2.85867e-035	0	1	4	4
79	4.58014	0.0986848	0	0	2.85867e-035	0	1	4	4
79	4.70204	0.10449	0	0	2.85867e-035	0	1	4	4
79	4.92263	0.0464401	0	0	2.85867e-035	0	1	4	4
80	5.03873	0.0638547	0	0	2.85867e-035	0	1	4	4
79	5.10258	0.0986848	0	0	2.85867e-035	0	1	4	4
79	5.41605	0.0696597	0	0	2.85867e-035	0	1	4	4
80	5.54957	0.0638547	0	0	2.85867e-035	0	1	4	4
79	5.90948	0.0290251	0	0	2.85867e-035	0	1	4	4
80	6.0488	0.0232201	0	0	2.85867e-035	0	1	4	4
80	6.13587	0.0348301	0	0	2.85867e-035	0	1	4	4
79	6.2868	0.0290246	0	0	2.85867e-035	0	1	4	4
79	6.58866	0.0464396	0	0	2.85867e-035	0	1	4	4
79	18.0593	0.0348301	0	0	2.85867e-035	0	1	4	4
79	18.2625	0.0232201	0	0	2.85867e-035	0	1	4	4
79	18.338	0.0406342	0	0	2.85867e-035	0	1	4	4
79	18.605	0.0580502	0	0	2.85867e-035	0	1	4	4
83	18.7385	0.0406361	0	0	2.85867e-035	0	1	4	4
84	18.872	0.0754662	0	0	2.85867e-035	0	1	4	4
79	19.1507	0.0464401	0	0	2.85867e-035	0	1	4	4
79	19.2145	0.0580502	0	0	2.85867e-035	0	1	4	4
80	19.319	0.0754642	0	0	2.85867e-035	0	1	4	4
80	19.5164	0.029026	0	0	2.85867e-035	0	1	4	4
79	19.6093	0.0696602	0	0	2.85867e-035	0	1	4	4
80	19.8589	0.16254	0	0	2.85867e-035	0	1	4	4
80	20.2478	0.0928783	0	0	2.85867e-035	0	1	4	4
80	20.5497	0.0696602	0	0	2.85867e-035	0	1	4	4
79	20.7238	0.029026	0	0	2.85867e-035	0	1	4	4
81	20.8341	0.0580502	0	0	2.85867e-035	0	1	4	4
81	20.8922	0.0406342	0	0	2.85867e-035	0	1	4	4
80	20.9328	0.0348301	0	0	2.85867e-035	0	1	4	4
80	20.9734	0.0812702	0	0	2.85867e-035	0	1	4	4
80	21.3275	0.0348301	0	0	2.85867e-035	0	1	4	4
81	21.7281	0.029026	0	0	2.85867e-035	0	1	4	4
81	21.879	0.0406361	0	0	2.85867e-035	0	1	4	4
84	21.9312	0.0348282	0	0	2.85867e-035	0	1	4	4
79	22.0473	0.0232201	0	0	2.85867e-035	0	1	4	4
80	22.2273	0.0232201	0	0	2.85867e-035	0	1	4	4
81	22.2737	0.029026	0	0	2.85867e-035	0	1	4	4
80	22.3202	0.0348301	0	0	2.85867e-035	0	1	4	4
82	22.3666	0.0406342	0	0	2.85867e-035	0	1	4	4
78	22.6046	0.0290241	0	0	2.85867e-035	0	1	4	4
82	22.6917	0.029026	0	0	2.85867e-035	0	1	4	4
80	22.7265	0.0232201	0	0	2.85867e-035	0	1	4	4
79	22.7556	0.0348301	0	0	2.85867e-035	0	1	4	4
80	22.8775	0.0464401	0	0	2.85867e-035	0	1	4	4
80	23.0632	0.0696602	0	0	2.85867e-035	0	1	4	4
78	23.2548	0.029026	0	0	2.85867e-035	0	1	4	4
79	23.3186	0.0290241	0	0	2.85867e-035	0	1	4	4
80	23.3535	0.0232182	0	0	2.85867e-035	0	1	4	4
79	23.4231	0.0348301	0	0	2.85867e-035	0	1	4	4
80	23.7946	0.0406361	0	0	2.85867e-035	0	1	4	4
80	23.8411	0.0406361	0	0	2.85867e-035	0	1	4	4
79	23.8933	0.0348301	0	0	2.85867e-035	0	1	4	4
85	24.0327	0.0696602	0	0	2.85867e-035	0	1	4	4
80	24.1255	0.0348301	0	0	2.85867e-035	0	1	4	4
80	24.172	0.0232201	0	0	2.85867e-035	0	1	4	4
80	24.2184	0.0348301	0	0	2.85867e-035	0	1	4	4
80	24.3229	0.0290241	0	0	2.85867e-035	0	1	4	4
79	24.381	0.191565	0	0	2.85867e-035	0	1	4	4
80	24.6712	0.0464401	0	0	2.85867e-035	0	1	4	4
80	25.1762	0.0696602	0	0	2.85867e-035	0	1	4	4
80	25.2633	0.029026	0	0	2.85867e-035	0	1	4	4
80	25.2981	0.0348301	0	0	2.85867e-035	0	1	4	4
79	25.5478	0.238005	0	0	2.85867e-035	0	1	4	4
78	25.8612	0.0464401	0	0	2.85867e-035	0	1	4	4
80	25.9251	0.0232201	0	0	2.85867e-035	0	1	4	4
80	26.0296	0.267029	0	0	2.85867e-035	0	1	4	4
78	26.5927	0.0638542	0	0	2.85867e-035	0	1	4	4
74	26.8771	0.0580502	0	0	2.85867e-035	0	1	4	4
67	27.1325	0.12771	0	0	2.85867e-035	0	1	4	4
80	27.4692	0.0580502	0	0	2.85867e-035	0	1	4	4
80	27.5273	0.0638542	0	0	2.85867e-035	0	1	4	4
79	27.8988	0.0754642	0	0	2.85867e-035	0	1	4	4
80	27.9742	0.0348301	0	0	2.85867e-035	0	1	4	4
79	28.0323	0.0406361	0	0	2.85867e-035	0	1	4	4
78	28.1948	0.243809	0	0	2.85867e-035	0	1	4	4
78	28.5141	0.0406361	0	0	2.85867e-035	0	1	4	4
