midiPitch 	 onsetSec 	 durationSec 	 onsetBeats 	 onsetBarIndex 	 onsetBar 	 durationBeats 	 velocity  	 numerator 	 denominator 
57	6.73379	0.0638552	0	0	2.76455e-035	0	1	4	4
59	6.96599	0.0986848	0	0	2.76455e-035	0	1	4	4
56	7.18658	0.0986848	0	0	2.76455e-035	0	1	4	4
58	7.28526	0.17415	0	0	2.76455e-035	0	1	4	4
58	8.12698	0.284445	0	0	2.76455e-035	0	1	4	4
57	11.7783	0.0928793	0	0	2.76455e-035	0	1	4	4
58	12.0047	0.179955	0	0	2.76455e-035	0	1	4	4
56	12.3414	0.145124	0	0	2.76455e-035	0	1	4	4
58	12.4865	0.423764	0	0	2.76455e-035	0	1	4	4
57	13.009	0.0580492	0	0	2.76455e-035	0	1	4	4
61	13.2296	0.27864	0	0	2.76455e-035	0	1	4	4
56	16.9448	0.0232201	0	0	2.76455e-035	0	1	4	4
58	16.9738	0.0928783	0	0	2.76455e-035	0	1	4	4
56	17.0957	0.0986843	0	0	2.76455e-035	0	1	4	4
58	17.2931	0.272835	0	0	2.76455e-035	0	1	4	4
57	17.5659	0.197371	0	0	2.76455e-035	0	1	4	4
58	17.8794	0.17415	0	0	2.76455e-035	0	1	4	4
58	18.0767	0.325079	0	0	2.76455e-035	0	1	4	4
61	18.4018	0.15093	0	0	2.76455e-035	0	1	4	4
65	20.7412	0.179955	0	0	2.76455e-035	0	1	4	4
65	21.0083	0.0870762	0	0	2.76455e-035	0	1	4	4
65	21.1185	0.18576	0	0	2.76455e-035	0	1	4	4
61	21.7107	0.13932	0	0	2.76455e-035	0	1	4	4
63	21.85	0.325079	0	0	2.76455e-035	0	1	4	4
61	22.1751	0.208979	0	0	2.76455e-035	0	1	4	4
61	22.384	0.16254	0	0	2.76455e-035	0	1	4	4
62	22.5466	0.296055	0	0	2.76455e-035	0	1	4	4
63	22.8426	0.179955	0	0	2.76455e-035	0	1	4	4
62	24.9208	0.0406342	0	0	2.76455e-035	0	1	4	4
64	25.0485	0.0406361	0	0	2.76455e-035	0	1	4	4
63	25.2575	0.0986843	0	0	2.76455e-035	0	1	4	4
64	25.3562	0.238005	0	0	2.76455e-035	0	1	4	4
63	25.7509	0.220591	0	0	2.76455e-035	0	1	4	4
63	26.1457	0.348299	0	0	2.76455e-035	0	1	4	4
61	26.494	0.301861	0	0	2.76455e-035	0	1	4	4
