midiPitch 	 onsetSec 	 durationSec 	 onsetBeats 	 onsetBarIndex 	 onsetBar 	 durationBeats 	 velocity  	 numerator 	 denominator 
59	1.08553	0.0406349	0	0	3.79909e-035	0	1	4	4
60	1.15519	0.1161	0	0	3.79909e-035	0	1	4	4
61	1.27129	0.191565	0	0	3.79909e-035	0	1	4	4
60	1.46286	0.0696598	0	0	3.79909e-035	0	1	4	4
64	1.53252	0.145125	0	0	3.79909e-035	0	1	4	4
64	1.90984	0.0580499	0	0	3.79909e-035	0	1	4	4
61	2.25234	0.13932	0	0	3.79909e-035	0	1	4	4
58	2.66449	0.0986848	0	0	3.79909e-035	0	1	4	4
62	2.76317	0.0464399	0	0	3.79909e-035	0	1	4	4
59	2.80961	0.214785	0	0	3.79909e-035	0	1	4	4
58	3.27401	0.121905	0	0	3.79909e-035	0	1	4	4
58	3.39592	0.383129	0	0	3.79909e-035	0	1	4	4
60	4.17959	0.0406351	0	0	3.79909e-035	0	1	4	4
61	4.23184	0.156734	0	0	3.79909e-035	0	1	4	4
60	4.70204	0.0986848	0	0	3.79909e-035	0	1	4	4
61	4.80073	0.0696597	0	0	3.79909e-035	0	1	4	4
61	4.80073	0.0754647	0	0	3.79909e-035	0	1	4	4
64	4.86458	0.0580497	0	0	3.79909e-035	0	1	4	4
61	4.92263	0.0696597	0	0	3.79909e-035	0	1	4	4
58	5.1258	0.15093	0	0	3.79909e-035	0	1	4	4
62	5.27673	0.127709	0	0	3.79909e-035	0	1	4	4
61	5.66567	0.0754647	0	0	3.79909e-035	0	1	4	4
58	5.74113	0.0928798	0	0	3.79909e-035	0	1	4	4
60	6.29261	0.0928798	0	0	3.79909e-035	0	1	4	4
60	6.519	0.13932	0	0	3.79909e-035	0	1	4	4
78	7.16916	0.0232201	0	0	3.79909e-035	0	1	4	4
79	7.23302	0.156735	0	0	3.79909e-035	0	1	4	4
75	7.5639	0.0754647	0	0	3.79909e-035	0	1	4	4
74	7.70902	0.0870748	0	0	3.79909e-035	0	1	4	4
75	7.92961	0.0928798	0	0	3.79909e-035	0	1	4	4
