midiPitch 	 onsetSec 	 durationSec 	 onsetBeats 	 onsetBarIndex 	 onsetBar 	 durationBeats 	 velocity  	 numerator 	 denominator 
83	3.15791	0.0290251	0	0	0	0	1	4	4
83	3.4888	0.0232198	0	0	0	0	1	4	4
68	3.53524	0.0290248	0	0	0	0	1	4	4
67	3.57587	0.10449	0	0	0	0	1	4	4
67	3.69778	0.0464399	0	0	0	0	1	4	4
67	3.83129	0.12771	0	0	0	0	1	4	4
67	3.959	0.0522449	0	0	0	0	1	4	4
67	4.20862	0.1161	0	0	0	0	1	4	4
67	4.45243	0.243809	0	0	0	0	1	4	4
67	4.69624	0.12771	0	0	0	0	1	4	4
67	4.82395	0.0754647	0	0	0	0	1	4	4
67	4.89941	0.0986848	0	0	0	0	1	4	4
67	4.9981	0.27864	0	0	0	0	1	4	4
67	5.27673	0.313469	0	0	0	0	1	4	4
83	9.18349	0.0928802	0	0	0	0	1	4	4
84	9.3054	0.18576	0	0	0	0	1	4	4
84	9.49116	0.0406342	0	0	0	0	1	4	4
84	9.53179	0.18576	0	0	0	0	1	4	4
84	9.71755	0.0406342	0	0	0	0	1	4	4
79	9.75819	0.133515	0	0	0	0	1	4	4
84	9.8917	0.0812693	0	0	0	0	1	4	4
79	9.97297	0.133515	0	0	0	0	1	4	4
84	10.1065	0.0696592	0	0	0	0	1	4	4
84	10.1761	0.12771	0	0	0	0	1	4	4
84	10.4374	0.203175	0	0	0	0	1	4	4
60	10.1703	0.597914	0	0	0	0	1	4	4
71	17.0028	0.10449	0	0	0	0	1	4	4
57	17.6936	0.290249	0	0	0	0	1	4	4
55	18.1464	0.104488	0	0	0	0	1	4	4
67	18.1058	0.238005	0	0	0	0	1	4	4
67	18.3438	0.13932	0	0	0	0	1	4	4
66	18.4831	0.0986843	0	0	0	0	1	4	4
67	19.1042	0.145124	0	0	0	0	1	4	4
67	19.2784	0.325081	0	0	0	0	1	4	4
67	19.6034	0.191565	0	0	0	0	1	4	4
67	19.795	0.301859	0	0	0	0	1	4	4
67	20.0969	0.145124	0	0	0	0	1	4	4
67	20.242	0.249615	0	0	0	0	1	4	4
67	20.4916	0.220589	0	0	0	0	1	4	4
67	20.7122	0.0522461	0	0	0	0	1	4	4
67	20.7644	0.371519	0	0	0	0	1	4	4
67	21.2753	0.116098	0	0	0	0	1	4	4
55	21.3624	0.168344	0	0	0	0	1	4	4
60	22.2157	0.110296	0	0	0	0	1	4	4
60	22.3318	0.121904	0	0	0	0	1	4	4
57	23.9049	0.0290241	0	0	0	0	1	4	4
57	23.9398	0.238005	0	0	0	0	1	4	4
59	24.1778	0.272833	0	0	0	0	1	4	4
60	24.4796	0.296055	0	0	0	0	1	4	4
59	24.7757	0.197369	0	0	0	0	1	4	4
57	25.0543	0.296055	0	0	0	0	1	4	4
55	25.3968	0.226393	0	0	0	0	1	4	4
57	25.6232	0.296055	0	0	0	0	1	4	4
59	25.9367	0.214785	0	0	0	0	1	4	4
56	26.2153	0.267029	0	0	0	0	1	4	4
55	26.552	0.203175	0	0	0	0	1	4	4
53	26.8481	0.197371	0	0	0	0	1	4	4
55	27.0454	0.243809	0	0	0	0	1	4	4
57	27.3647	0.220591	0	0	0	0	1	4	4
55	27.6608	0.133514	0	0	0	0	1	4	4
52	27.9858	0.0928802	0	0	0	0	1	4	4
