midiPitch 	 onsetSec 	 durationSec 	 onsetBeats 	 onsetBarIndex 	 onsetBar 	 durationBeats 	 velocity  	 numerator 	 denominator 
83	0.772063	0.0928798	0	0	4.02433e-035	0	1	4	4
83	0.864943	0.0928798	0	0	4.02433e-035	0	1	4	4
83	1.02168	0.029025	0	0	4.02433e-035	0	1	4	4
83	1.05651	0.0928798	0	0	4.02433e-035	0	1	4	4
78	1.30612	0.0638549	0	0	4.02433e-035	0	1	4	4
66	1.37578	0.441179	0	0	4.02433e-035	0	1	4	4
66	1.81696	0.383129	0	0	4.02433e-035	0	1	4	4
66	2.20009	0.121905	0	0	4.02433e-035	0	1	4	4
66	2.322	0.0464399	0	0	4.02433e-035	0	1	4	4
68	2.53678	0.13932	0	0	4.02433e-035	0	1	4	4
68	2.6761	0.0754647	0	0	4.02433e-035	0	1	4	4
68	2.75156	0.0638549	0	0	4.02433e-035	0	1	4	4
68	2.81542	0.0522449	0	0	4.02433e-035	0	1	4	4
68	2.86766	0.075465	0	0	4.02433e-035	0	1	4	4
68	2.94313	0.278639	0	0	4.02433e-035	0	1	4	4
69	3.41914	0.226395	0	0	4.02433e-035	0	1	4	4
69	3.64553	0.0232198	0	0	4.02433e-035	0	1	4	4
69	3.67456	0.0638549	0	0	4.02433e-035	0	1	4	4
69	3.77905	0.12771	0	0	4.02433e-035	0	1	4	4
69	3.90676	0.0290248	0	0	4.02433e-035	0	1	4	4
69	3.93578	0.243809	0	0	4.02433e-035	0	1	4	4
69	4.17959	0.110295	0	0	4.02433e-035	0	1	4	4
69	4.28989	0.145125	0	0	4.02433e-035	0	1	4	4
71	4.59755	0.0522451	0	0	4.02433e-035	0	1	4	4
71	4.6498	0.10449	0	0	4.02433e-035	0	1	4	4
71	4.75429	0.110295	0	0	4.02433e-035	0	1	4	4
71	4.86458	0.249614	0	0	4.02433e-035	0	1	4	4
71	5.11419	0.238005	0	0	4.02433e-035	0	1	4	4
71	5.3522	0.179955	0	0	4.02433e-035	0	1	4	4
71	5.53215	0.0232201	0	0	4.02433e-035	0	1	4	4
66	5.55537	0.110295	0	0	4.02433e-035	0	1	4	4
66	5.66567	0.510839	0	0	4.02433e-035	0	1	4	4
66	6.17651	0.0696597	0	0	4.02433e-035	0	1	4	4
66	6.24617	0.0986848	0	0	4.02433e-035	0	1	4	4
66	6.34485	0.20898	0	0	4.02433e-035	0	1	4	4
66	6.55383	0.0696597	0	0	4.02433e-035	0	1	4	4
66	6.62349	0.0696602	0	0	4.02433e-035	0	1	4	4
66	6.69315	0.0290246	0	0	4.02433e-035	0	1	4	4
68	6.83828	0.110295	0	0	4.02433e-035	0	1	4	4
68	6.94857	0.16254	0	0	4.02433e-035	0	1	4	4
68	7.11111	0.0406346	0	0	4.02433e-035	0	1	4	4
68	7.15175	0.0812697	0	0	4.02433e-035	0	1	4	4
68	7.23302	0.19737	0	0	4.02433e-035	0	1	4	4
68	7.43039	0.139319	0	0	4.02433e-035	0	1	4	4
68	7.57551	0.0928798	0	0	4.02433e-035	0	1	4	4
68	7.68	0.133515	0	0	4.02433e-035	0	1	4	4
69	7.82512	0.127709	0	0	4.02433e-035	0	1	4	4
69	7.95283	0.12771	0	0	4.02433e-035	0	1	4	4
69	8.10376	0.0580502	0	0	4.02433e-035	0	1	4	4
69	8.16181	0.1161	0	0	4.02433e-035	0	1	4	4
69	8.27791	0.313469	0	0	4.02433e-035	0	1	4	4
69	8.59138	0.10449	0	0	4.02433e-035	0	1	4	4
69	8.69587	0.0638542	0	0	4.02433e-035	0	1	4	4
69	8.75973	0.145125	0	0	4.02433e-035	0	1	4	4
71	9.20091	0.0870752	0	0	4.02433e-035	0	1	4	4
71	9.28798	0.0870743	0	0	4.02433e-035	0	1	4	4
71	9.37506	0.0406351	0	0	4.02433e-035	0	1	4	4
71	9.48535	0.0870743	0	0	4.02433e-035	0	1	4	4
71	9.57243	0.0870752	0	0	4.02433e-035	0	1	4	4
71	9.6595	0.0348301	0	0	4.02433e-035	0	1	4	4
71	9.69433	0.249614	0	0	4.02433e-035	0	1	4	4
71	9.94394	0.17415	0	0	4.02433e-035	0	1	4	4
54	10.7508	0.835917	0	0	4.02433e-035	0	1	4	4
57	11.6274	0.644354	0	0	4.02433e-035	0	1	4	4
57	12.2717	0.0754652	0	0	4.02433e-035	0	1	4	4
57	12.3472	0.0754642	0	0	4.02433e-035	0	1	4	4
57	12.4227	0.0928802	0	0	4.02433e-035	0	1	4	4
57	12.5156	0.0290251	0	0	4.02433e-035	0	1	4	4
54	12.8464	1.05651	0	0	4.02433e-035	0	1	4	4
66	15.4064	0.110294	0	0	4.02433e-035	0	1	4	4
66	15.5167	0.0348301	0	0	4.02433e-035	0	1	4	4
69	16.0856	0.278641	0	0	4.02433e-035	0	1	4	4
69	16.3643	0.162539	0	0	4.02433e-035	0	1	4	4
69	16.5268	0.214785	0	0	4.02433e-035	0	1	4	4
68	16.7474	0.121904	0	0	4.02433e-035	0	1	4	4
68	16.8693	0.0638542	0	0	4.02433e-035	0	1	4	4
68	16.9332	0.0928802	0	0	4.02433e-035	0	1	4	4
68	17.026	0.336689	0	0	4.02433e-035	0	1	4	4
68	17.3627	0.0870743	0	0	4.02433e-035	0	1	4	4
68	17.4498	0.156736	0	0	4.02433e-035	0	1	4	4
68	17.6065	0.0986843	0	0	4.02433e-035	0	1	4	4
68	17.7052	0.179955	0	0	4.02433e-035	0	1	4	4
68	17.8852	0.0290241	0	0	4.02433e-035	0	1	4	4
66	18.0071	0.18576	0	0	4.02433e-035	0	1	4	4
66	18.1928	0.0638542	0	0	4.02433e-035	0	1	4	4
66	18.2567	0.17415	0	0	4.02433e-035	0	1	4	4
66	18.4308	0.272833	0	0	4.02433e-035	0	1	4	4
66	18.7037	0.0812702	0	0	4.02433e-035	0	1	4	4
66	18.7849	0.191565	0	0	4.02433e-035	0	1	4	4
66	18.9765	0.0870743	0	0	4.02433e-035	0	1	4	4
59	20.2594	0.377323	0	0	4.02433e-035	0	1	4	4
57	20.747	0.505035	0	0	4.02433e-035	0	1	4	4
56	21.2521	0.0696583	0	0	4.02433e-035	0	1	4	4
56	21.3217	0.203175	0	0	4.02433e-035	0	1	4	4
56	21.5481	0.15093	0	0	4.02433e-035	0	1	4	4
54	21.9312	0.0522442	0	0	4.02433e-035	0	1	4	4
54	22.0764	0.847528	0	0	4.02433e-035	0	1	4	4
62	22.9239	0.481813	0	0	4.02433e-035	0	1	4	4
61	23.4057	0.0928802	0	0	4.02433e-035	0	1	4	4
71	23.8875	0.0986843	0	0	4.02433e-035	0	1	4	4
71	23.9862	0.435375	0	0	4.02433e-035	0	1	4	4
71	24.439	0.12771	0	0	4.02433e-035	0	1	4	4
69	24.9498	0.336689	0	0	4.02433e-035	0	1	4	4
69	25.2865	0.0812702	0	0	4.02433e-035	0	1	4	4
69	25.3678	0.191565	0	0	4.02433e-035	0	1	4	4
69	25.5594	0.029026	0	0	4.02433e-035	0	1	4	4
69	25.6639	0.145124	0	0	4.02433e-035	0	1	4	4
68	25.9657	0.0754642	0	0	4.02433e-035	0	1	4	4
68	26.0412	0.179956	0	0	4.02433e-035	0	1	4	4
68	26.2211	0.220589	0	0	4.02433e-035	0	1	4	4
68	26.4417	0.0696602	0	0	4.02433e-035	0	1	4	4
68	26.5114	0.441179	0	0	4.02433e-035	0	1	4	4
66	27.0454	0.179955	0	0	4.02433e-035	0	1	4	4
64	27.3937	0.197369	0	0	4.02433e-035	0	1	4	4
54	28.6476	0.191565	0	0	4.02433e-035	0	1	4	4
