midiPitch 	 onsetSec 	 durationSec 	 onsetBeats 	 onsetBarIndex 	 onsetBar 	 durationBeats 	 velocity  	 numerator 	 denominator 
69	0.348299	0.0406349	0	0	0	0	1	4	4
59	0.882358	0.0232199	0	0	0	0	1	4	4
53	0.905578	0.02322	0	0	0	0	1	4	4
53	4.7717	0.0232201	0	0	0	0	1	4	4
70	7.62195	0.214785	0	0	0	0	1	4	4
73	8.71909	0.307665	0	0	0	0	1	4	4
73	9.02676	0.18576	0	0	0	0	1	4	4
69	9.38667	0.0986853	0	0	0	0	1	4	4
68	9.48535	0.162539	0	0	0	0	1	4	4
68	10.1007	0.330884	0	0	0	0	1	4	4
69	12.3182	0.0928793	0	0	0	0	1	4	4
73	12.7071	0.499229	0	0	0	0	1	4	4
73	13.2063	0.313469	0	0	0	0	1	4	4
73	13.5198	0.116099	0	0	0	0	1	4	4
75	17.3279	0.0696602	0	0	0	0	1	4	4
63	17.3976	0.145124	0	0	0	0	1	4	4
73	17.5601	0.156734	0	0	0	0	1	4	4
73	17.7168	0.632744	0	0	0	0	1	4	4
70	18.5063	0.12771	0	0	0	0	1	4	4
70	18.634	0.208979	0	0	0	0	1	4	4
70	20.7354	0.0754662	0	0	0	0	1	4	4
70	20.8109	0.162539	0	0	0	0	1	4	4
75	23.7308	0.18576	0	0	0	0	1	4	4
73	23.9166	0.371519	0	0	0	0	1	4	4
73	24.2881	0.255419	0	0	0	0	1	4	4
73	24.5435	0.0928802	0	0	0	0	1	4	4
69	24.6596	0.133514	0	0	0	0	1	4	4
69	25.2401	0.0928802	0	0	0	0	1	4	4
69	25.333	0.110294	0	0	0	0	1	4	4
69	25.4433	0.243811	0	0	0	0	1	4	4
68	25.6871	0.162539	0	0	0	0	1	4	4
75	26.3953	0.232201	0	0	0	0	1	4	4
73	26.6275	0.208979	0	0	0	0	1	4	4
73	26.8365	0.197371	0	0	0	0	1	4	4
73	27.0338	0.226395	0	0	0	0	1	4	4
73	27.2602	0.150928	0	0	0	0	1	4	4
