midiPitch 	 onsetSec 	 durationSec 	 onsetBeats 	 onsetBarIndex 	 onsetBar 	 durationBeats 	 velocity  	 numerator 	 denominator 
55	0.0406349	0.24381	0	0	0	0	1	4	4
53	0.568889	0.17415	0	0	0	0	1	4	4
55	0.841723	0.0638549	0	0	0	0	1	4	4
55	0.992653	0.0348299	0	0	0	0	1	4	4
55	1.03329	0.156735	0	0	0	0	1	4	4
55	1.48027	0.284444	0	0	0	0	1	4	4
55	2.06658	0.110295	0	0	0	0	1	4	4
55	2.30458	0.0464399	0	0	0	0	1	4	4
56	2.35102	0.0406349	0	0	0	0	1	4	4
55	2.59483	0.17415	0	0	0	0	1	4	4
55	2.86186	0.0232201	0	0	0	0	1	4	4
55	2.89088	0.0232198	0	0	0	0	1	4	4
56	3.08825	0.0580499	0	0	0	0	1	4	4
56	3.2624	0.12771	0	0	0	0	1	4	4
56	3.48299	0.121905	0	0	0	0	1	4	4
55	3.6049	0.214784	0	0	0	0	1	4	4
56	3.81968	0.0406351	0	0	0	0	1	4	4
56	3.86612	0.243809	0	0	0	0	1	4	4
56	4.10993	0.342494	0	0	0	0	1	4	4
53	4.82395	0.133515	0	0	0	0	1	4	4
55	5.25351	0.127709	0	0	0	0	1	4	4
56	5.53215	0.10449	0	0	0	0	1	4	4
55	5.63664	0.0464401	0	0	0	0	1	4	4
56	5.80499	0.0580502	0	0	0	0	1	4	4
55	5.97333	0.168344	0	0	0	0	1	4	4
56	6.2868	0.278639	0	0	0	0	1	4	4
56	6.87891	0.0406346	0	0	0	0	1	4	4
54	6.91955	0.0406351	0	0	0	0	1	4	4
53	6.96599	0.156735	0	0	0	0	1	4	4
56	7.59293	0.0290251	0	0	0	0	1	4	4
55	7.62195	0.0290246	0	0	0	0	1	4	4
56	7.77288	0.0522451	0	0	0	0	1	4	4
56	7.93542	0.0638547	0	0	0	0	1	4	4
56	8.1502	0.0580502	0	0	0	0	1	4	4
55	8.20825	0.0232201	0	0	0	0	1	4	4
55	8.24889	0.110294	0	0	0	0	1	4	4
52	8.8468	0.0232201	0	0	0	0	1	4	4
55	8.97451	0.145125	0	0	0	0	1	4	4
56	9.27057	0.127709	0	0	0	0	1	4	4
55	9.52018	0.191565	0	0	0	0	1	4	4
52	9.92653	0.0290241	0	0	0	0	1	4	4
56	10.0775	0.0986843	0	0	0	0	1	4	4
55	10.1761	0.0812702	0	0	0	0	1	4	4
55	10.3271	0.121904	0	0	0	0	1	4	4
57	10.6115	0.0870752	0	0	0	0	1	4	4
68	10.6115	0.29025	0	0	0	0	1	4	4
68	11.1514	0.0696592	0	0	0	0	1	4	4
68	11.4649	0.0522451	0	0	0	0	1	4	4
68	11.5345	0.0812693	0	0	0	0	1	4	4
56	11.5635	0.18576	0	0	0	0	1	4	4
56	12.3937	0.0928793	0	0	0	0	1	4	4
56	12.4865	0.162539	0	0	0	0	1	4	4
55	12.6491	0.0580502	0	0	0	0	1	4	4
58	12.7071	0.238005	0	0	0	0	1	4	4
56	13.2586	0.0638552	0	0	0	0	1	4	4
56	13.4676	0.15093	0	0	0	0	1	4	4
56	14.019	0.104489	0	0	0	0	1	4	4
56	14.5589	0.150929	0	0	0	0	1	4	4
57	14.942	0.139319	0	0	0	0	1	4	4
58	15.4122	0.0406351	0	0	0	0	1	4	4
58	15.6212	0.133514	0	0	0	0	1	4	4
59	15.8941	0.110294	0	0	0	0	1	4	4
60	16.0914	0.133514	0	0	0	0	1	4	4
58	16.2772	0.16254	0	0	0	0	1	4	4
58	16.6197	0.12771	0	0	0	0	1	4	4
58	16.7474	0.139318	0	0	0	0	1	4	4
57	16.8867	0.0928802	0	0	0	0	1	4	4
58	16.9796	0.220591	0	0	0	0	1	4	4
57	17.7517	0.116098	0	0	0	0	1	4	4
56	18.425	0.133514	0	0	0	0	1	4	4
57	18.8256	0.0522442	0	0	0	0	1	4	4
56	19.1855	0.0406342	0	0	0	0	1	4	4
57	19.6034	0.0290241	0	0	0	0	1	4	4
56	19.7079	0.197371	0	0	0	0	1	4	4
57	19.9459	0.0522461	0	0	0	0	1	4	4
57	20.1143	0.16254	0	0	0	0	1	4	4
57	20.6832	0.17415	0	0	0	0	1	4	4
56680808	20.9966	0.243811	0	0	0	0	1	4	4
56	21.2405	0.168344	0	0	0	0	1	4	4
63	21.5423	0.0290241	0	0	0	0	1	4	4
65	21.6816	0.116098	0	0	0	0	1	4	4
59	22.117	0.0232201	0	0	0	0	1	4	4
62	22.2854	0.15093	0	0	0	0	1	4	4
60	22.4363	0.0754642	0	0	0	0	1	4	4
59	22.8426	0.0696602	0	0	0	0	1	4	4
58	23.0226	0.0464401	0	0	0	0	1	4	4
58	23.2954	0.226395	0	0	0	0	1	4	4
64	23.8817	0.0870743	0	0	0	0	1	4	4
60	24.3577	0.116098	0	0	0	0	1	4	4
60	24.6828	0.0638542	0	0	0	0	1	4	4
59	24.9556	0.0406342	0	0	0	0	1	4	4
59	25.0892	0.139318	0	0	0	0	1	4	4
58	25.2923	0.0464401	0	0	0	0	1	4	4
59	25.3968	0.383129	0	0	0	0	1	4	4
55	25.9947	0.278639	0	0	0	0	1	4	4
57	26.5056	0.0870762	0	0	0	0	1	4	4
57	26.7378	0.0754642	0	0	0	0	1	4	4
57	27.3705	0.110294	0	0	0	0	1	4	4
57	27.5156	0.255419	0	0	0	0	1	4	4
58	28.4561	0.0870743	0	0	0	0	1	4	4
