midiPitch 	 onsetSec 	 durationSec 	 onsetBeats 	 onsetBarIndex 	 onsetBar 	 durationBeats 	 velocity  	 numerator 	 denominator 
85	1.42222	0.029025	0	0	3.87385e-035	0	1	4	4
83	1.45705	0.029025	0	0	3.87385e-035	0	1	4	4
82	1.5151	0.0232199	0	0	3.87385e-035	0	1	4	4
87	1.66023	0.040635	0	0	3.87385e-035	0	1	4	4
86	1.79374	0.0580499	0	0	3.87385e-035	0	1	4	4
86	3.08245	0.0406349	0	0	3.87385e-035	0	1	4	4
4294967295	3.11728	0.01161	0	0	3.87385e-035	0	1	4	4
66	3.12889	0.13932	0	0	3.87385e-035	0	1	4	4
66	3.43655	0.0290248	0	0	3.87385e-035	0	1	4	4
73	3.57007	0.0696599	0	0	3.87385e-035	0	1	4	4
72	3.721	0.08127	0	0	3.87385e-035	0	1	4	4
73	3.81388	0.226395	0	0	3.87385e-035	0	1	4	4
73	4.04027	0.0986848	0	0	3.87385e-035	0	1	4	4
73	4.13896	0.168344	0	0	3.87385e-035	0	1	4	4
72	5.02712	0.10449	0	0	3.87385e-035	0	1	4	4
72	5.13161	0.0290251	0	0	3.87385e-035	0	1	4	4
68	5.27673	0.0928798	0	0	3.87385e-035	0	1	4	4
72	5.43347	0.0870748	0	0	3.87385e-035	0	1	4	4
4294967295	5.51474	0.01161	0	0	3.87385e-035	0	1	4	4
83	5.57859	0.0232196	0	0	3.87385e-035	0	1	4	4
82	5.61923	0.0290251	0	0	3.87385e-035	0	1	4	4
83	5.71211	0.0290251	0	0	3.87385e-035	0	1	4	4
83	5.76435	0.0348296	0	0	3.87385e-035	0	1	4	4
86	5.90948	0.0290251	0	0	3.87385e-035	0	1	4	4
79	6.42032	0.0870752	0	0	3.87385e-035	0	1	4	4
77	6.52481	0.214785	0	0	3.87385e-035	0	1	4	4
77	6.73959	0.0348301	0	0	3.87385e-035	0	1	4	4
80	6.80345	0.0232196	0	0	3.87385e-035	0	1	4	4
84	7.04726	0.0638552	0	0	3.87385e-035	0	1	4	4
85	7.11111	0.0348296	0	0	3.87385e-035	0	1	4	4
73	7.23302	0.0986848	0	0	3.87385e-035	0	1	4	4
72	7.38975	0.0232201	0	0	3.87385e-035	0	1	4	4
72	7.45361	0.1161	0	0	3.87385e-035	0	1	4	4
71	8.03991	0.20898	0	0	3.87385e-035	0	1	4	4
71	8.24889	0.0464401	0	0	3.87385e-035	0	1	4	4
87	8.40562	0.0348301	0	0	3.87385e-035	0	1	4	4
81	8.44045	0.0290251	0	0	3.87385e-035	0	1	4	4
81	8.51011	0.0232201	0	0	3.87385e-035	0	1	4	4
80	8.53333	0.0406351	0	0	3.87385e-035	0	1	4	4
82	8.81778	0.0232201	0	0	3.87385e-035	0	1	4	4
81	8.87583	0.0290251	0	0	3.87385e-035	0	1	4	4
80	8.91066	0.104489	0	0	3.87385e-035	0	1	4	4
75	9.21832	0.0696602	0	0	3.87385e-035	0	1	4	4
81	9.3054	0.0290241	0	0	3.87385e-035	0	1	4	4
82	9.37506	0.0232201	0	0	3.87385e-035	0	1	4	4
82	9.4273	0.0522451	0	0	3.87385e-035	0	1	4	4
84	9.55501	0.0348301	0	0	3.87385e-035	0	1	4	4
83	9.6537	0.0290251	0	0	3.87385e-035	0	1	4	4
82	9.68853	0.0232201	0	0	3.87385e-035	0	1	4	4
81	9.72336	0.0348291	0	0	3.87385e-035	0	1	4	4
76	10.0426	0.0580502	0	0	3.87385e-035	0	1	4	4
78	10.1065	0.0580492	0	0	3.87385e-035	0	1	4	4
82	10.3503	0.0580492	0	0	3.87385e-035	0	1	4	4
85	10.4083	0.0464401	0	0	3.87385e-035	0	1	4	4
84	10.4838	0.0290251	0	0	3.87385e-035	0	1	4	4
83	10.5535	0.0290241	0	0	3.87385e-035	0	1	4	4
80	10.7741	0.0290251	0	0	3.87385e-035	0	1	4	4
85	10.8089	0.0290251	0	0	3.87385e-035	0	1	4	4
86	10.9366	0.0232201	0	0	3.87385e-035	0	1	4	4
82	11.0295	0.0232201	0	0	3.87385e-035	0	1	4	4
86	11.0527	0.0696602	0	0	3.87385e-035	0	1	4	4
85	11.1572	0.0348291	0	0	3.87385e-035	0	1	4	4
84	11.2675	0.0406351	0	0	3.87385e-035	0	1	4	4
85	11.3081	0.0232201	0	0	3.87385e-035	0	1	4	4
83	11.3313	0.0348301	0	0	3.87385e-035	0	1	4	4
76	11.8944	0.0290251	0	0	3.87385e-035	0	1	4	4
81	11.9525	0.0406342	0	0	3.87385e-035	0	1	4	4
80	12.4633	0.0406351	0	0	3.87385e-035	0	1	4	4
82	12.5039	0.0232201	0	0	3.87385e-035	0	1	4	4
81	12.7245	0.0754652	0	0	3.87385e-035	0	1	4	4
82	12.8116	0.110295	0	0	3.87385e-035	0	1	4	4
82	12.9625	0.0348301	0	0	3.87385e-035	0	1	4	4
81	13.0148	0.0406342	0	0	3.87385e-035	0	1	4	4
80	13.1019	0.0348301	0	0	3.87385e-035	0	1	4	4
80	13.6359	0.17415	0	0	3.87385e-035	0	1	4	4
80	13.9204	0.0290251	0	0	3.87385e-035	0	1	4	4
81	13.9494	0.0232201	0	0	3.87385e-035	0	1	4	4
80	13.9784	0.0348301	0	0	3.87385e-035	0	1	4	4
79	14.019	0.0406342	0	0	3.87385e-035	0	1	4	4
80	14.2048	0.0986843	0	0	3.87385e-035	0	1	4	4
85	14.5241	0.0232201	0	0	3.87385e-035	0	1	4	4
85	14.5473	0.0348301	0	0	3.87385e-035	0	1	4	4
85	14.5821	0.0348301	0	0	3.87385e-035	0	1	4	4
85	14.6402	0.0232191	0	0	3.87385e-035	0	1	4	4
84	14.6634	0.0348301	0	0	3.87385e-035	0	1	4	4
84	14.7215	0.0232201	0	0	3.87385e-035	0	1	4	4
83	14.7679	0.0232201	0	0	3.87385e-035	0	1	4	4
82	14.7969	0.0232201	0	0	3.87385e-035	0	1	4	4
82	14.8259	0.0464392	0	0	3.87385e-035	0	1	4	4
79	15.36	0.0870752	0	0	3.87385e-035	0	1	4	4
82	15.4471	0.0290241	0	0	3.87385e-035	0	1	4	4
80	15.4819	0.0232201	0	0	3.87385e-035	0	1	4	4
80	15.54	0.0290251	0	0	3.87385e-035	0	1	4	4
81	15.5806	0.0232201	0	0	3.87385e-035	0	1	4	4
81	15.6212	0.0290251	0	0	3.87385e-035	0	1	4	4
80	15.8128	0.0290251	0	0	3.87385e-035	0	1	4	4
81	15.865	0.0348291	0	0	3.87385e-035	0	1	4	4
79	15.9231	0.0580502	0	0	3.87385e-035	0	1	4	4
77	16.2772	0.0406361	0	0	3.87385e-035	0	1	4	4
73	16.4804	0.0522461	0	0	3.87385e-035	0	1	4	4
73	16.5326	0.0232201	0	0	3.87385e-035	0	1	4	4
75	16.5558	0.0464401	0	0	3.87385e-035	0	1	4	4
85	16.6603	0.0406361	0	0	3.87385e-035	0	1	4	4
79	16.8345	0.0232201	0	0	3.87385e-035	0	1	4	4
85	17.0783	0.0348301	0	0	3.87385e-035	0	1	4	4
84	17.1247	0.0232201	0	0	3.87385e-035	0	1	4	4
81	17.1886	0.150928	0	0	3.87385e-035	0	1	4	4
80	17.5253	0.156734	0	0	3.87385e-035	0	1	4	4
80	17.8794	0.0580502	0	0	3.87385e-035	0	1	4	4
82	17.9606	0.0232201	0	0	3.87385e-035	0	1	4	4
82	18.0593	0.029026	0	0	3.87385e-035	0	1	4	4
81	18.8894	0.0406342	0	0	3.87385e-035	0	1	4	4
84	18.9649	0.029026	0	0	3.87385e-035	0	1	4	4
77	19.0462	0.0580502	0	0	3.87385e-035	0	1	4	4
77	19.1042	0.0696602	0	0	3.87385e-035	0	1	4	4
80	19.1855	0.0232201	0	0	3.87385e-035	0	1	4	4
80	19.2145	0.0232201	0	0	3.87385e-035	0	1	4	4
79	19.2726	0.0696602	0	0	3.87385e-035	0	1	4	4
81	19.7602	0.0290241	0	0	3.87385e-035	0	1	4	4
83	19.8008	0.0696602	0	0	3.87385e-035	0	1	4	4
84	19.9401	0.0638542	0	0	3.87385e-035	0	1	4	4
84	20.0446	0.0232201	0	0	3.87385e-035	0	1	4	4
80	20.5671	0.029026	0	0	3.87385e-035	0	1	4	4
82	20.5961	0.0232201	0	0	3.87385e-035	0	1	4	4
81	20.6251	0.0232201	0	0	3.87385e-035	0	1	4	4
82	20.6948	0.0348301	0	0	3.87385e-035	0	1	4	4
78	20.8341	0.0290241	0	0	3.87385e-035	0	1	4	4
82	20.9038	0.0290241	0	0	3.87385e-035	0	1	4	4
81	20.9386	0.0348301	0	0	3.87385e-035	0	1	4	4
79	21.4785	0.0290241	0	0	3.87385e-035	0	1	4	4
84	21.5771	0.0232201	0	0	3.87385e-035	0	1	4	4
84	21.6352	0.0348301	0	0	3.87385e-035	0	1	4	4
84	21.6816	0.0638542	0	0	3.87385e-035	0	1	4	4
83	21.7513	0.0232201	0	0	3.87385e-035	0	1	4	4
84	21.8674	0.0232201	0	0	3.87385e-035	0	1	4	4
83	21.9254	0.0290241	0	0	3.87385e-035	0	1	4	4
84	22.0764	0.0580502	0	0	3.87385e-035	0	1	4	4
81	22.1867	0.0290241	0	0	3.87385e-035	0	1	4	4
84	22.7033	0.0232201	0	0	3.87385e-035	0	1	4	4
83	22.8078	0.0348301	0	0	3.87385e-035	0	1	4	4
84	22.8775	0.0406342	0	0	3.87385e-035	0	1	4	4
84	22.9587	0.029026	0	0	3.87385e-035	0	1	4	4
70	24.3751	0.0348301	0	0	3.87385e-035	0	1	4	4
76	24.41	0.0812702	0	0	3.87385e-035	0	1	4	4
74	24.5087	0.0696602	0	0	3.87385e-035	0	1	4	4
74	24.5783	0.0290241	0	0	3.87385e-035	0	1	4	4
73	24.6073	0.0870762	0	0	3.87385e-035	0	1	4	4
73	24.6944	0.0870743	0	0	3.87385e-035	0	1	4	4
73	24.7815	0.18576	0	0	3.87385e-035	0	1	4	4
65	25.6348	0.0522461	0	0	3.87385e-035	0	1	4	4
79	25.6871	0.0464401	0	0	3.87385e-035	0	1	4	4
74	26.1689	0.0754642	0	0	3.87385e-035	0	1	4	4
71	26.4475	0.15093	0	0	3.87385e-035	0	1	4	4
79	27.0629	0.145124	0	0	3.87385e-035	0	1	4	4
78	27.208	0.0812702	0	0	3.87385e-035	0	1	4	4
85	27.9394	0.0406361	0	0	3.87385e-035	0	1	4	4
85	27.98	0.0580502	0	0	3.87385e-035	0	1	4	4
84	28.131	0.0348301	0	0	3.87385e-035	0	1	4	4
83	28.3283	0.0870743	0	0	3.87385e-035	0	1	4	4
83	28.4154	0.029026	0	0	3.87385e-035	0	1	4	4
84	28.4444	0.0754642	0	0	3.87385e-035	0	1	4	4
83	28.5489	0.121906	0	0	3.87385e-035	0	1	4	4
