midiPitch 	 onsetSec 	 durationSec 	 onsetBeats 	 onsetBarIndex 	 onsetBar 	 durationBeats 	 velocity  	 numerator 	 denominator 
51	0.655964	0.1161	0	0	0	0	1	4	4
50	0.893968	0.0580499	0	0	0	0	1	4	4
51	1.09714	0.0232199	0	0	0	0	1	4	4
52	1.12617	0.249614	0	0	0	0	1	4	4
51	1.6312	0.121905	0	0	0	0	1	4	4
51	2.13624	0.13932	0	0	0	0	1	4	4
52	2.27556	0.348299	0	0	0	0	1	4	4
50	2.82122	0.0348299	0	0	0	0	1	4	4
52	2.86766	0.0580499	0	0	0	0	1	4	4
52	3.17533	0.203175	0	0	0	0	1	4	4
52	3.63392	0.18576	0	0	0	0	1	4	4
47	3.92417	0.08127	0	0	0	0	1	4	4
52	4.22603	0.243809	0	0	0	0	1	4	4
48	4.57433	0.191565	0	0	0	0	1	4	4
52	4.7659	0.0928802	0	0	0	0	1	4	4
76	4.84717	0.0986848	0	0	0	0	1	4	4
75	5.38703	0.0754652	0	0	0	0	1	4	4
70	5.9327	0.0290251	0	0	0	0	1	4	4
71	6.06041	0.0348301	0	0	0	0	1	4	4
72	6.42032	0.226395	0	0	0	0	1	4	4
76	6.91955	0.0754652	0	0	0	0	1	4	4
72	7.46522	0.121905	0	0	0	0	1	4	4
71	8.04571	0.0986843	0	0	0	0	1	4	4
77	8.56236	0.121905	0	0	0	0	1	4	4
64	8.66685	0.133514	0	0	0	0	1	4	4
75	9.00934	0.0580502	0	0	0	0	1	4	4
52	8.99773	0.156734	0	0	0	0	1	4	4
52	9.17769	0.162539	0	0	0	0	1	4	4
49	9.82204	0.0638552	0	0	0	0	1	4	4
48	9.8859	0.145124	0	0	0	0	1	4	4
53	10.0659	0.0464401	0	0	0	0	1	4	4
72	10.0833	0.0754642	0	0	0	0	1	4	4
72	11.1398	0.0812693	0	0	0	0	1	4	4
74	11.2501	0.0928802	0	0	0	0	1	4	4
74	11.3429	0.0696592	0	0	0	0	1	4	4
62	11.4242	0.145125	0	0	0	0	1	4	4
62	11.7551	0.301859	0	0	0	0	1	4	4
62	12.2369	0.13932	0	0	0	0	1	4	4
62	12.4111	0.2322	0	0	0	0	1	4	4
62	12.6433	0.1161	0	0	0	0	1	4	4
62	12.7594	0.0696592	0	0	0	0	1	4	4
58	13.1773	0.0290251	0	0	0	0	1	4	4
51	13.3689	0.104489	0	0	0	0	1	4	4
50	13.6591	0.110295	0	0	0	0	1	4	4
48	13.7694	0.0406351	0	0	0	0	1	4	4
72	13.7927	0.0812693	0	0	0	0	1	4	4
77	14.1119	0.0522451	0	0	0	0	1	4	4
78	14.1642	0.0812702	0	0	0	0	1	4	4
74	14.2454	0.0812693	0	0	0	0	1	4	4
70	14.437	0.145124	0	0	0	0	1	4	4
71	14.5821	0.0464401	0	0	0	0	1	4	4
74	14.6286	0.0348291	0	0	0	0	1	4	4
70	14.6634	0.0696602	0	0	0	0	1	4	4
72	14.7331	0.0638552	0	0	0	0	1	4	4
69	14.8085	0.139319	0	0	0	0	1	4	4
69	14.9478	0.1161	0	0	0	0	1	4	4
70	15.1046	0.12771	0	0	0	0	1	4	4
76	15.3426	0.110295	0	0	0	0	1	4	4
71	15.598	0.0812702	0	0	0	0	1	4	4
74	15.7896	0.162539	0	0	0	0	1	4	4
71	16.4513	0.0522442	0	0	0	0	1	4	4
74	16.5152	0.0406361	0	0	0	0	1	4	4
74	16.5616	0.0406361	0	0	0	0	1	4	4
74	16.9796	0.0928802	0	0	0	0	1	4	4
74	17.0725	0.197369	0	0	0	0	1	4	4
69	18.6921	0.12771	0	0	0	0	1	4	4
74	18.9127	0.0696602	0	0	0	0	1	4	4
71	19.0984	0.0406361	0	0	0	0	1	4	4
72	19.2726	0.0638542	0	0	0	0	1	4	4
74	19.348	0.16254	0	0	0	0	1	4	4
74	19.5744	0.0580502	0	0	0	0	1	4	4
73	19.7312	0.0348301	0	0	0	0	1	4	4
75	19.766	0.121904	0	0	0	0	1	4	4
71	19.8879	0.0928802	0	0	0	0	1	4	4
75	20.0795	0.116098	0	0	0	0	1	4	4
74	20.4045	0.0232201	0	0	0	0	1	4	4
75	20.4278	0.0406342	0	0	0	0	1	4	4
74	20.747	0.0580502	0	0	0	0	1	4	4
56	20.7354	0.0754662	0	0	0	0	1	4	4
56	20.8109	0.150928	0	0	0	0	1	4	4
52	21.0431	0.243811	0	0	0	0	1	4	4
62	22.7904	0.394739	0	0	0	0	1	4	4
62	23.4986	0.174149	0	0	0	0	1	4	4
66	23.8643	0.121904	0	0	0	0	1	4	4
65	23.9862	0.029026	0	0	0	0	1	4	4
67	24.1139	0.0696602	0	0	0	0	1	4	4
68	24.201	0.197371	0	0	0	0	1	4	4
68	24.5783	0.388935	0	0	0	0	1	4	4
65	25.0137	0.13932	0	0	0	0	1	4	4
61	25.42	0.214785	0	0	0	0	1	4	4
62	25.7103	0.0580502	0	0	0	0	1	4	4
69	26.018	0.127708	0	0	0	0	1	4	4
62	26.1457	0.10449	0	0	0	0	1	4	4
68	26.2734	0.13932	0	0	0	0	1	4	4
62	26.4707	0.0580502	0	0	0	0	1	4	4
67	26.7668	0.0928802	0	0	0	0	1	4	4
68	26.8597	0.10449	0	0	0	0	1	4	4
68	26.9642	0.0290241	0	0	0	0	1	4	4
64	27.1906	0.0986843	0	0	0	0	1	4	4
64	27.2893	0.0348301	0	0	0	0	1	4	4
64	27.3241	0.313469	0	0	0	0	1	4	4
62	28.369	0.220591	0	0	0	0	1	4	4
62	28.5896	0.0638542	0	0	0	0	1	4	4
