midiPitch 	 onsetSec 	 durationSec 	 onsetBeats 	 onsetBarIndex 	 onsetBar 	 durationBeats 	 velocity  	 numerator 	 denominator 
72	3.40753	0.330884	0	0	3.15936e-035	0	1	4	4
72	3.73841	0.168345	0	0	3.15936e-035	0	1	4	4
72	3.90676	0.12771	0	0	3.15936e-035	0	1	4	4
72	4.03447	0.139319	0	0	3.15936e-035	0	1	4	4
72	4.17379	1.09714	0	0	3.15936e-035	0	1	4	4
72	5.27093	0.232199	0	0	3.15936e-035	0	1	4	4
72	5.71211	0.0696602	0	0	3.15936e-035	0	1	4	4
72	5.78177	0.296054	0	0	3.15936e-035	0	1	4	4
75	6.07782	0.284444	0	0	3.15936e-035	0	1	4	4
73	6.40871	0.2322	0	0	3.15936e-035	0	1	4	4
73	6.64091	0.2322	0	0	3.15936e-035	0	1	4	4
72	6.87311	0.528254	0	0	3.15936e-035	0	1	4	4
73	7.40136	0.0928798	0	0	3.15936e-035	0	1	4	4
72	7.49424	0.0638547	0	0	3.15936e-035	0	1	4	4
72	7.55809	0.0464401	0	0	3.15936e-035	0	1	4	4
73	7.60454	0.0812697	0	0	3.15936e-035	0	1	4	4
72	7.6858	0.0986848	0	0	3.15936e-035	0	1	4	4
72	7.78449	0.0290251	0	0	3.15936e-035	0	1	4	4
66	9.72336	0.156734	0	0	3.15936e-035	0	1	4	4
66	9.88009	0.20898	0	0	3.15936e-035	0	1	4	4
66	10.0891	0.0986843	0	0	3.15936e-035	0	1	4	4
65	10.6057	0.464399	0	0	3.15936e-035	0	1	4	4
61	11.8364	0.615329	0	0	3.15936e-035	0	1	4	4
66	13.4676	0.0522451	0	0	3.15936e-035	0	1	4	4
66	13.5198	0.452789	0	0	3.15936e-035	0	1	4	4
67	14.1642	0.203175	0	0	3.15936e-035	0	1	4	4
67	14.3673	0.0870743	0	0	3.15936e-035	0	1	4	4
71	15.5051	0.522449	0	0	3.15936e-035	0	1	4	4
72	16.0276	0.470205	0	0	3.15936e-035	0	1	4	4
72	16.4978	0.156734	0	0	3.15936e-035	0	1	4	4
72	21.9312	0.290249	0	0	3.15936e-035	0	1	4	4
72	22.2215	0.185759	0	0	3.15936e-035	0	1	4	4
72	22.4073	0.0812702	0	0	3.15936e-035	0	1	4	4
65	23.4057	0.168344	0	0	3.15936e-035	0	1	4	4
77	24.4796	0.174149	0	0	3.15936e-035	0	1	4	4
65	24.5435	0.18576	0	0	3.15936e-035	0	1	4	4
66	24.7293	0.441179	0	0	3.15936e-035	0	1	4	4
66	25.1704	0.342493	0	0	3.15936e-035	0	1	4	4
65	25.6929	0.516645	0	0	3.15936e-035	0	1	4	4
65	26.2095	0.185759	0	0	3.15936e-035	0	1	4	4
65	26.3953	0.272835	0	0	3.15936e-035	0	1	4	4
60	26.6681	0.325079	0	0	3.15936e-035	0	1	4	4
60	26.9932	1.08553	0	0	3.15936e-035	0	1	4	4
60	28.0787	0.406349	0	0	3.15936e-035	0	1	4	4
60	28.4851	1.25388	0	0	3.15936e-035	0	1	4	4
