midiPitch 	 onsetSec 	 durationSec 	 onsetBeats 	 onsetBarIndex 	 onsetBar 	 durationBeats 	 velocity  	 numerator 	 denominator 
70	1.96789	0.0812699	0	0	0	0	1	4	4
70	2.10721	0.121905	0	0	0	0	1	4	4
70	2.22912	0.18576	0	0	0	0	1	4	4
70	2.41488	0.15093	0	0	0	0	1	4	4
70	2.5658	0.725624	0	0	0	0	1	4	4
67	3.31465	0.702404	0	0	0	0	1	4	4
67	4.01705	0.330884	0	0	0	0	1	4	4
67	4.34794	1.12036	0	0	0	0	1	4	4
63	5.8166	0.12771	0	0	0	0	1	4	4
62	6.44934	0.15093	0	0	0	0	1	4	4
66	6.90794	0.0522447	0	0	0	0	1	4	4
63	7.02984	0.2322	0	0	0	0	1	4	4
63	7.42458	0.0754647	0	0	0	0	1	4	4
63	7.61615	0.0580497	0	0	0	0	1	4	4
62	7.67419	0.179955	0	0	0	0	1	4	4
62	8.19664	0.0580502	0	0	0	0	1	4	4
62	8.25469	0.0406351	0	0	0	0	1	4	4
63	8.30113	0.104489	0	0	0	0	1	4	4
63	8.40562	0.0870752	0	0	0	0	1	4	4
62	8.4985	0.0464392	0	0	0	0	1	4	4
63	8.54494	0.0580502	0	0	0	0	1	4	4
86499688	8.66685	0.168344	0	0	0	0	1	4	4
62	8.83519	0.0580502	0	0	0	0	1	4	4
63	8.89905	0.127709	0	0	0	0	1	4	4
75	10.5941	0.441179	0	0	0	0	1	4	4
75	11.0353	0.452789	0	0	0	0	1	4	4
73	15.7954	0.0522451	0	0	0	0	1	4	4
75	16.0276	0.1161	0	0	0	0	1	4	4
75	16.1437	0.0754642	0	0	0	0	1	4	4
75	16.2191	0.232201	0	0	0	0	1	4	4
58	25.4781	0.342495	0	0	0	0	1	4	4
57	25.8206	0.0638542	0	0	0	0	1	4	4
58	25.8844	0.232201	0	0	0	0	1	4	4
58	26.1399	0.116098	0	0	0	0	1	4	4
57	26.6855	0.249615	0	0	0	0	1	4	4
57	27.1441	0.214785	0	0	0	0	1	4	4
57	27.5098	0.330885	0	0	0	0	1	4	4
