midiPitch 	 onsetSec 	 durationSec 	 onsetBeats 	 onsetBarIndex 	 onsetBar 	 durationBeats 	 velocity  	 numerator 	 denominator 
56	0.145125	0.13932	0	0	2.48255e-035	0	1	4	4
57	0.371519	0.16254	0	0	2.48255e-035	0	1	4	4
57	0.673379	0.145125	0	0	2.48255e-035	0	1	4	4
57	0.818503	0.156735	0	0	2.48255e-035	0	1	4	4
57	1.05651	0.12771	0	0	2.48255e-035	0	1	4	4
60	1.2829	0.191565	0	0	2.48255e-035	0	1	4	4
57	1.47447	0.0928799	0	0	2.48255e-035	0	1	4	4
57	1.56735	0.121905	0	0	2.48255e-035	0	1	4	4
57	1.68925	0.429569	0	0	2.48255e-035	0	1	4	4
58	3.48299	0.156735	0	0	2.48255e-035	0	1	4	4
59	3.63973	0.0638549	0	0	2.48255e-035	0	1	4	4
60	3.70358	0.15093	0	0	2.48255e-035	0	1	4	4
59	3.85451	0.417959	0	0	2.48255e-035	0	1	4	4
59	4.35374	0.179955	0	0	2.48255e-035	0	1	4	4
60	4.5337	0.168344	0	0	2.48255e-035	0	1	4	4
59	4.78331	0.0986848	0	0	2.48255e-035	0	1	4	4
60	5.0039	0.17415	0	0	2.48255e-035	0	1	4	4
59	5.28254	0.22059	0	0	2.48255e-035	0	1	4	4
57	5.66567	0.267029	0	0	2.48255e-035	0	1	4	4
57	6.73379	0.121905	0	0	2.48255e-035	0	1	4	4
57	7.00662	0.354104	0	0	2.48255e-035	0	1	4	4
60	7.42458	0.168344	0	0	2.48255e-035	0	1	4	4
57	7.85415	0.325079	0	0	2.48255e-035	0	1	4	4
57	8.28952	0.191565	0	0	2.48255e-035	0	1	4	4
57	8.48109	0.19737	0	0	2.48255e-035	0	1	4	4
57	8.67846	0.365714	0	0	2.48255e-035	0	1	4	4
0	9.3054	0.191565	0	0	2.48255e-035	0	1	4	4
57	9.49696	0.0464392	0	0	2.48255e-035	0	1	4	4
57	9.64209	0.27864	0	0	2.48255e-035	0	1	4	4
59	10.0891	0.214785	0	0	2.48255e-035	0	1	4	4
60	10.3039	0.2322	0	0	2.48255e-035	0	1	4	4
57	10.7624	0.354105	0	0	2.48255e-035	0	1	4	4
57	11.1166	0.150929	0	0	2.48255e-035	0	1	4	4
62	11.6912	0.17415	0	0	2.48255e-035	0	1	4	4
62	12.295	0.162539	0	0	2.48255e-035	0	1	4	4
60	12.5039	0.284445	0	0	2.48255e-035	0	1	4	4
59	12.8697	0.168344	0	0	2.48255e-035	0	1	4	4
60	13.1889	0.226395	0	0	2.48255e-035	0	1	4	4
59	13.4153	0.232199	0	0	2.48255e-035	0	1	4	4
57	14.0365	0.0986843	0	0	2.48255e-035	0	1	4	4
57	14.1351	0.0928802	0	0	2.48255e-035	0	1	4	4
57	18.8604	0.12771	0	0	2.48255e-035	0	1	4	4
57	18.9881	0.243811	0	0	2.48255e-035	0	1	4	4
62	19.3422	0.197369	0	0	2.48255e-035	0	1	4	4
62	19.6093	0.18576	0	0	2.48255e-035	0	1	4	4
62	19.795	0.0232201	0	0	2.48255e-035	0	1	4	4
60	19.8995	0.179956	0	0	2.48255e-035	0	1	4	4
63	20.2362	0.174149	0	0	2.48255e-035	0	1	4	4
63	20.5148	0.208979	0	0	2.48255e-035	0	1	4	4
60	20.7586	0.0928802	0	0	2.48255e-035	0	1	4	4
62	20.8515	0.0232201	0	0	2.48255e-035	0	1	4	4
60	21.1069	0.342493	0	0	2.48255e-035	0	1	4	4
68	24.4971	0.197371	0	0	2.48255e-035	0	1	4	4
57	24.8105	0.029026	0	0	2.48255e-035	0	1	4	4
69	24.8395	0.0464401	0	0	2.48255e-035	0	1	4	4
57	24.886	0.243809	0	0	2.48255e-035	0	1	4	4
57	25.1588	0.121904	0	0	2.48255e-035	0	1	4	4
62	25.4375	0.267029	0	0	2.48255e-035	0	1	4	4
62	25.7045	0.249615	0	0	2.48255e-035	0	1	4	4
60	25.9541	0.325079	0	0	2.48255e-035	0	1	4	4
62	26.2792	0.0522461	0	0	2.48255e-035	0	1	4	4
62	26.3314	0.179955	0	0	2.48255e-035	0	1	4	4
62	26.9758	0.0928783	0	0	2.48255e-035	0	1	4	4
61	27.0687	0.0348301	0	0	2.48255e-035	0	1	4	4
62	27.1035	0.249615	0	0	2.48255e-035	0	1	4	4
60	27.3763	0.249615	0	0	2.48255e-035	0	1	4	4
62	27.7362	0.16254	0	0	2.48255e-035	0	1	4	4
62	28.0323	0.214785	0	0	2.48255e-035	0	1	4	4
61	28.4212	0.243809	0	0	2.48255e-035	0	1	4	4
60	28.665	0.203175	0	0	2.48255e-035	0	1	4	4
