midiPitch 	 onsetSec 	 durationSec 	 onsetBeats 	 onsetBarIndex 	 onsetBar 	 durationBeats 	 velocity  	 numerator 	 denominator 
53	1.00426	0.731429	0	0	0	0	1	4	4
65	1.24807	0.592109	0	0	0	0	1	4	4
65	1.84018	0.435374	0	0	0	0	1	4	4
67	2.40907	0.110295	0	0	0	0	1	4	4
66	2.58322	0.0812697	0	0	0	0	1	4	4
65	2.67029	0.0986848	0	0	0	0	1	4	4
66	2.76898	0.0638549	0	0	0	0	1	4	4
65	2.89669	0.09288	0	0	0	0	1	4	4
64	3.05342	0.075465	0	0	0	0	1	4	4
63	3.16952	0.110295	0	0	0	0	1	4	4
73	3.08245	0.336689	0	0	0	0	1	4	4
71	3.41914	0.0928798	0	0	0	0	1	4	4
74	3.79066	0.342494	0	0	0	0	1	4	4
70	4.13315	0.127709	0	0	0	0	1	4	4
69	4.32472	0.0290251	0	0	0	0	1	4	4
70	4.35374	0.0754647	0	0	0	0	1	4	4
71	4.51628	0.0754647	0	0	0	0	1	4	4
71	4.63819	0.168344	0	0	0	0	1	4	4
71	4.80653	0.121905	0	0	0	0	1	4	4
71	5.06776	0.0870748	0	0	0	0	1	4	4
71	5.18385	0.18576	0	0	0	0	1	4	4
70	5.36961	0.342494	0	0	0	0	1	4	4
71	5.71211	0.290249	0	0	0	0	1	4	4
70	6.00236	0.0638552	0	0	0	0	1	4	4
71	6.06621	0.0464396	0	0	0	0	1	4	4
78	6.11846	0.0522451	0	0	0	0	1	4	4
59	6.14748	0.145125	0	0	0	0	1	4	4
60	6.29261	0.284444	0	0	0	0	1	4	4
60	6.57705	0.870748	0	0	0	0	1	4	4
60	7.4478	0.661768	0	0	0	0	1	4	4
60	8.10957	0.156735	0	0	0	0	1	4	4
60	8.2663	0.214785	0	0	0	0	1	4	4
57	8.77714	0.383129	0	0	0	0	1	4	4
56	9.16027	0.0232201	0	0	0	0	1	4	4
57	9.1893	0.365714	0	0	0	0	1	4	4
57	9.55501	0.238005	0	0	0	0	1	4	4
56	9.79302	0.121905	0	0	0	0	1	4	4
57	9.91492	0.0812693	0	0	0	0	1	4	4
57	10.0078	0.0986853	0	0	0	0	1	4	4
56	10.1239	0.191565	0	0	0	0	1	4	4
57	10.3271	0.0986843	0	0	0	0	1	4	4
57	10.449	0.10449	0	0	0	0	1	4	4
57	11.3488	0.412154	0	0	0	0	1	4	4
58	11.7609	0.388934	0	0	0	0	1	4	4
58	12.1498	0.18576	0	0	0	0	1	4	4
58	12.3704	0.301859	0	0	0	0	1	4	4
58	12.8058	0.156734	0	0	0	0	1	4	4
58	12.9625	0.284444	0	0	0	0	1	4	4
57	13.3108	0.319275	0	0	0	0	1	4	4
60	13.7927	0.145124	0	0	0	0	1	4	4
53	13.9784	0.330884	0	0	0	0	1	4	4
53	14.3093	0.179955	0	0	0	0	1	4	4
53	14.4893	0.441179	0	0	0	0	1	4	4
65	15.9811	0.39474	0	0	0	0	1	4	4
65	16.3759	0.191565	0	0	0	0	1	4	4
68	16.5674	0.0638542	0	0	0	0	1	4	4
65	16.7068	0.16254	0	0	0	0	1	4	4
67	16.8693	1.23646	0	0	0	0	1	4	4
67	18.1058	0.922995	0	0	0	0	1	4	4
67	19.0288	0.104488	0	0	0	0	1	4	4
69	19.2029	0.17415	0	0	0	0	1	4	4
70	19.3771	1.06231	0	0	0	0	1	4	4
69	20.4394	0.359909	0	0	0	0	1	4	4
65	20.9966	0.0754662	0	0	0	0	1	4	4
67	21.0721	0.179955	0	0	0	0	1	4	4
65	21.2521	0.394739	0	0	0	0	1	4	4
65	21.6468	0.133514	0	0	0	0	1	4	4
65	21.7803	1.24807	0	0	0	0	1	4	4
65	23.0284	0.0348301	0	0	0	0	1	4	4
67	23.069	0.232199	0	0	0	0	1	4	4
65	24.0327	0.191565	0	0	0	0	1	4	4
64	24.2242	0.0232201	0	0	0	0	1	4	4
60	24.4332	0.133514	0	0	0	0	1	4	4
62	24.5667	0.661768	0	0	0	0	1	4	4
53	26.1341	0.55728	0	0	0	0	1	4	4
65	26.6913	0.168344	0	0	0	0	1	4	4
65	26.8597	0.203175	0	0	0	0	1	4	4
67	27.0629	1.93306	0	0	0	0	1	4	4
67	28.9959	0.330883	0	0	0	0	1	4	4
69	29.5358	0.243809	0	0	0	0	1	4	4
