midiPitch 	 onsetSec 	 durationSec 	 onsetBeats 	 onsetBarIndex 	 onsetBar 	 durationBeats 	 velocity  	 numerator 	 denominator 
70	0.940408	0.0348299	0	0	3.1029e-035	0	1	4	4
70	0.975238	0.0870749	0	0	3.1029e-035	0	1	4	4
72	1.18422	0.0232199	0	0	3.1029e-035	0	1	4	4
69	1.43964	0.19737	0	0	3.1029e-035	0	1	4	4
67	1.66603	0.029025	0	0	3.1029e-035	0	1	4	4
67	1.93887	0.12771	0	0	3.1029e-035	0	1	4	4
67	2.06658	0.0754647	0	0	3.1029e-035	0	1	4	4
68	2.15946	0.0290248	0	0	3.1029e-035	0	1	4	4
62	2.61224	0.0290248	0	0	3.1029e-035	0	1	4	4
61	2.89669	0.145125	0	0	3.1029e-035	0	1	4	4
62	3.04181	0.10449	0	0	3.1029e-035	0	1	4	4
62	7.32009	0.226394	0	0	3.1029e-035	0	1	4	4
67	7.72644	0.0348296	0	0	3.1029e-035	0	1	4	4
67	7.80771	0.249615	0	0	3.1029e-035	0	1	4	4
63	8.34757	0.162539	0	0	3.1029e-035	0	1	4	4
69	8.77714	0.261225	0	0	3.1029e-035	0	1	4	4
67	9.05578	0.0232201	0	0	3.1029e-035	0	1	4	4
67	9.28798	0.133514	0	0	3.1029e-035	0	1	4	4
67	9.4215	0.0754652	0	0	3.1029e-035	0	1	4	4
67	9.49696	0.0232201	0	0	3.1029e-035	0	1	4	4
67	9.68272	0.0290251	0	0	3.1029e-035	0	1	4	4
67	10.3329	0.0348291	0	0	3.1029e-035	0	1	4	4
66	10.3735	0.0348301	0	0	3.1029e-035	0	1	4	4
66	10.4141	0.0232201	0	0	3.1029e-035	0	1	4	4
67	10.4432	0.0232201	0	0	3.1029e-035	0	1	4	4
67	10.4722	0.0464401	0	0	3.1029e-035	0	1	4	4
68	10.5302	0.0406342	0	0	3.1029e-035	0	1	4	4
68	10.5825	0.0348301	0	0	3.1029e-035	0	1	4	4
67	10.6522	0.0696602	0	0	3.1029e-035	0	1	4	4
66	10.9598	0.0812693	0	0	3.1029e-035	0	1	4	4
65	11.0411	0.0522451	0	0	3.1029e-035	0	1	4	4
64	11.3488	0.150929	0	0	3.1029e-035	0	1	4	4
71	15.2903	0.0580502	0	0	3.1029e-035	0	1	4	4
71	15.418	0.0464401	0	0	3.1029e-035	0	1	4	4
71	15.9289	0.0812702	0	0	3.1029e-035	0	1	4	4
62	18.367	0.133514	0	0	3.1029e-035	0	1	4	4
59	18.6398	0.197371	0	0	3.1029e-035	0	1	4	4
74	23.725	0.0870743	0	0	3.1029e-035	0	1	4	4
71	24.2068	0.0406342	0	0	3.1029e-035	0	1	4	4
75	24.3055	0.0232201	0	0	3.1029e-035	0	1	4	4
74	24.5203	0.1161	0	0	3.1029e-035	0	1	4	4
70	24.677	0.029026	0	0	3.1029e-035	0	1	4	4
71	24.7118	0.220591	0	0	3.1029e-035	0	1	4	4
