midiPitch 	 onsetSec 	 durationSec 	 onsetBeats 	 onsetBarIndex 	 onsetBar 	 durationBeats 	 velocity  	 numerator 	 denominator 
69	1.83438	0.481814	0	0	3.94914e-035	0	1	4	4
78	2.21751	0.690794	0	0	3.94914e-035	0	1	4	4
78	2.9083	0.644354	0	0	3.94914e-035	0	1	4	4
80	3.55265	0.528254	0	0	3.94914e-035	0	1	4	4
80	4.08091	0.3483	0	0	3.94914e-035	0	1	4	4
78	4.42921	0.1161	0	0	3.94914e-035	0	1	4	4
80	4.54531	0.162539	0	0	3.94914e-035	0	1	4	4
80	4.70785	0.684988	0	0	3.94914e-035	0	1	4	4
81	5.39283	0.719819	0	0	3.94914e-035	0	1	4	4
80	6.11846	0.290249	0	0	3.94914e-035	0	1	4	4
80	6.40871	0.16254	0	0	3.94914e-035	0	1	4	4
81	6.57125	0.342494	0	0	3.94914e-035	0	1	4	4
81	6.91374	0.348299	0	0	3.94914e-035	0	1	4	4
81	7.26204	0.0812697	0	0	3.94914e-035	0	1	4	4
80	11.8306	0.499229	0	0	3.94914e-035	0	1	4	4
80	12.3298	0.116099	0	0	3.94914e-035	0	1	4	4
80	12.4459	0.18576	0	0	3.94914e-035	0	1	4	4
80	12.6317	0.121905	0	0	3.94914e-035	0	1	4	4
77	12.7536	0.371519	0	0	3.94914e-035	0	1	4	4
77	13.1251	2.05497	0	0	3.94914e-035	0	1	4	4
68	15.6444	0.255419	0	0	3.94914e-035	0	1	4	4
69	15.8999	0.574695	0	0	3.94914e-035	0	1	4	4
78	16.4397	0.16254	0	0	3.94914e-035	0	1	4	4
78	16.6487	0.296055	0	0	3.94914e-035	0	1	4	4
78	16.9448	0.296055	0	0	3.94914e-035	0	1	4	4
78	17.2408	0.377325	0	0	3.94914e-035	0	1	4	4
78	17.6181	0.284443	0	0	3.94914e-035	0	1	4	4
80	17.9839	0.133514	0	0	3.94914e-035	0	1	4	4
80	18.1174	0.232201	0	0	3.94914e-035	0	1	4	4
80	18.3496	0.0986843	0	0	3.94914e-035	0	1	4	4
80	18.4483	0.348299	0	0	3.94914e-035	0	1	4	4
80	18.7966	0.789478	0	0	3.94914e-035	0	1	4	4
81	19.586	0.67338	0	0	3.94914e-035	0	1	4	4
81	20.2594	0.104488	0	0	3.94914e-035	0	1	4	4
81	20.3639	0.214785	0	0	3.94914e-035	0	1	4	4
81	20.5787	0.214785	0	0	3.94914e-035	0	1	4	4
81	20.7935	0.313471	0	0	3.94914e-035	0	1	4	4
81	21.1069	0.296053	0	0	3.94914e-035	0	1	4	4
74	21.8558	0.435375	0	0	3.94914e-035	0	1	4	4
74	22.2912	0.313469	0	0	3.94914e-035	0	1	4	4
74	22.6046	0.208979	0	0	3.94914e-035	0	1	4	4
74	22.8136	0.0754662	0	0	3.94914e-035	0	1	4	4
74	26.5985	0.766258	0	0	3.94914e-035	0	1	4	4
78	27.3647	0.232201	0	0	3.94914e-035	0	1	4	4
78	27.5969	0.185759	0	0	3.94914e-035	0	1	4	4
78	27.7827	0.191565	0	0	3.94914e-035	0	1	4	4
78	27.9742	0.168344	0	0	3.94914e-035	0	1	4	4
78	28.1426	0.0870762	0	0	3.94914e-035	0	1	4	4
76	28.2297	0.238005	0	0	3.94914e-035	0	1	4	4
76	28.4677	0.162539	0	0	3.94914e-035	0	1	4	4
76	28.6302	0.0928802	0	0	3.94914e-035	0	1	4	4
81	29.0017	0.476009	0	0	3.94914e-035	0	1	4	4
81	29.4777	0.121904	0	0	3.94914e-035	0	1	4	4
81	29.5996	0.203175	0	0	3.94914e-035	0	1	4	4
81	29.8028	0.12771	0	0	3.94914e-035	0	1	4	4
