midiPitch 	 onsetSec 	 durationSec 	 onsetBeats 	 onsetBarIndex 	 onsetBar 	 durationBeats 	 velocity  	 numerator 	 denominator 
77	1.30612	0.0986848	0	0	0	0	1	4	4
75	1.40481	0.12771	0	0	0	0	1	4	4
75	1.53252	0.394739	0	0	0	0	1	4	4
75	2.12463	0.133515	0	0	0	0	1	4	4
75	2.25814	0.0464399	0	0	0	0	1	4	4
74	2.30458	0.179955	0	0	0	0	1	4	4
75	3.71519	0.0812697	0	0	0	0	1	4	4
75	3.79646	0.110295	0	0	0	0	1	4	4
76	3.90676	0.17415	0	0	0	0	1	4	4
53	4.84717	0.0928798	0	0	0	0	1	4	4
54	4.94005	0.179955	0	0	0	0	1	4	4
55	5.12	0.0290251	0	0	0	0	1	4	4
56	5.14902	0.0522447	0	0	0	0	1	4	4
59	5.28834	0.168345	0	0	0	0	1	4	4
60	6.55383	0.15093	0	0	0	0	1	4	4
61	7.08789	0.17415	0	0	0	0	1	4	4
59	7.78449	0.214785	0	0	0	0	1	4	4
61	8.01669	0.145124	0	0	0	0	1	4	4
54	8.74812	0.15093	0	0	0	0	1	4	4
57	8.89905	0.0638542	0	0	0	0	1	4	4
59	9.06159	0.133514	0	0	0	0	1	4	4
60	9.3054	0.470203	0	0	0	0	1	4	4
54	9.99619	0.133515	0	0	0	0	1	4	4
58	10.3097	0.214785	0	0	0	0	1	4	4
59	10.5302	0.162539	0	0	0	0	1	4	4
53	11.1049	0.104489	0	0	0	0	1	4	4
54	11.2094	0.0348301	0	0	0	0	1	4	4
54	11.2501	0.150929	0	0	0	0	1	4	4
58	11.4184	0.24381	0	0	0	0	1	4	4
58	11.8654	0.0812702	0	0	0	0	1	4	4
59	11.9467	0.301859	0	0	0	0	1	4	4
57	12.8	0.278639	0	0	0	0	1	4	4
57	13.305	0.162539	0	0	0	0	1	4	4
57	13.4676	0.0638552	0	0	0	0	1	4	4
57	13.5314	0.162539	0	0	0	0	1	4	4
54	15.0523	0.17415	0	0	0	0	1	4	4
60	15.3716	0.214785	0	0	0	0	1	4	4
62	15.5864	0.127709	0	0	0	0	1	4	4
52	16.1843	0.0580482	0	0	0	0	1	4	4
55	16.3236	0.133514	0	0	0	0	1	4	4
60	16.6197	0.16254	0	0	0	0	1	4	4
61	16.7822	0.0348282	0	0	0	0	1	4	4
62	16.8229	0.0754642	0	0	0	0	1	4	4
59	16.8983	0.029026	0	0	0	0	1	4	4
59	16.9332	0.0406361	0	0	0	0	1	4	4
60	17.1247	0.0986843	0	0	0	0	1	4	4
62	17.2234	0.179956	0	0	0	0	1	4	4
59	17.8678	0.208981	0	0	0	0	1	4	4
60	18.0767	0.121904	0	0	0	0	1	4	4
54	18.7617	0.121904	0	0	0	0	1	4	4
60	19.0868	0.18576	0	0	0	0	1	4	4
60	19.5802	0.191565	0	0	0	0	1	4	4
60	19.9924	0.16254	0	0	0	0	1	4	4
57	20.3233	0.208979	0	0	0	0	1	4	4
59	20.5671	0.0406361	0	0	0	0	1	4	4
57	21.136	0.0870743	0	0	0	0	1	4	4
59	21.223	0.197371	0	0	0	0	1	4	4
57	21.4262	0.0870762	0	0	0	0	1	4	4
59	21.5539	0.168344	0	0	0	0	1	4	4
57	21.8732	0.0696583	0	0	0	0	1	4	4
59	22.0706	0.238005	0	0	0	0	1	4	4
54	22.5059	0.238005	0	0	0	0	1	4	4
57	22.8252	0.0522461	0	0	0	0	1	4	4
57	22.8775	0.226395	0	0	0	0	1	4	4
57	23.307	0.174149	0	0	0	0	1	4	4
58	23.4812	0.0928802	0	0	0	0	1	4	4
56	24.915	0.0232201	0	0	0	0	1	4	4
56	24.944	0.226395	0	0	0	0	1	4	4
58	25.6406	0.17415	0	0	0	0	1	4	4
57	25.8148	0.0232182	0	0	0	0	1	4	4
64	26.076	0.15093	0	0	0	0	1	4	4
58	26.3372	0.0754662	0	0	0	0	1	4	4
59	26.8771	0.214785	0	0	0	0	1	4	4
60	27.2254	0.313469	0	0	0	0	1	4	4
54	27.5679	0.284445	0	0	0	0	1	4	4
57	27.951	0.0464401	0	0	0	0	1	4	4
57	27.9975	0.18576	0	0	0	0	1	4	4
57	28.4154	0.0986843	0	0	0	0	1	4	4
57	28.5141	0.238005	0	0	0	0	1	4	4
