midiPitch 	 onsetSec 	 durationSec 	 onsetBeats 	 onsetBarIndex 	 onsetBar 	 durationBeats 	 velocity  	 numerator 	 denominator 
65	0.12771	0.168345	0	0	3.94918e-035	0	1	4	4
64	0.296054	0.20898	0	0	3.94918e-035	0	1	4	4
65	0.505034	0.17415	0	0	3.94918e-035	0	1	4	4
64	0.690794	0.10449	0	0	3.94918e-035	0	1	4	4
63	0.812698	0.10449	0	0	3.94918e-035	0	1	4	4
66	1.17841	0.383129	0	0	3.94918e-035	0	1	4	4
65	1.67764	0.0986848	0	0	3.94918e-035	0	1	4	4
64	1.88082	0.12771	0	0	3.94918e-035	0	1	4	4
61	2.00853	0.261225	0	0	3.94918e-035	0	1	4	4
63	2.26975	0.0464399	0	0	3.94918e-035	0	1	4	4
63	2.31619	0.0348299	0	0	3.94918e-035	0	1	4	4
61	2.35683	0.15093	0	0	3.94918e-035	0	1	4	4
61	2.50776	0.1161	0	0	3.94918e-035	0	1	4	4
58	2.62385	0.0232198	0	0	3.94918e-035	0	1	4	4
56	2.68771	0.313469	0	0	3.94918e-035	0	1	4	4
56	3.01859	0.179955	0	0	3.94918e-035	0	1	4	4
57	3.19855	0.0348299	0	0	3.94918e-035	0	1	4	4
63	4.34794	0.139319	0	0	3.94918e-035	0	1	4	4
65	4.48726	0.19737	0	0	3.94918e-035	0	1	4	4
63	4.68463	0.0638552	0	0	3.94918e-035	0	1	4	4
65	4.77751	0.156735	0	0	3.94918e-035	0	1	4	4
65	5.05615	0.121904	0	0	3.94918e-035	0	1	4	4
64	5.23029	0.0812697	0	0	3.94918e-035	0	1	4	4
65	5.38703	0.261225	0	0	3.94918e-035	0	1	4	4
65	5.92109	0.1161	0	0	3.94918e-035	0	1	4	4
63	6.58866	0.10449	0	0	3.94918e-035	0	1	4	4
66	6.69315	0.121905	0	0	3.94918e-035	0	1	4	4
66	6.81506	0.0348296	0	0	3.94918e-035	0	1	4	4
66	6.84989	0.0638552	0	0	3.94918e-035	0	1	4	4
63	6.93696	0.156735	0	0	3.94918e-035	0	1	4	4
63	7.0937	0.20898	0	0	3.94918e-035	0	1	4	4
63	7.45361	0.400544	0	0	3.94918e-035	0	1	4	4
54	10.1761	0.400544	0	0	3.94918e-035	0	1	4	4
57	10.6289	0.20898	0	0	3.94918e-035	0	1	4	4
55	11.1688	0.156734	0	0	3.94918e-035	0	1	4	4
56	11.3488	0.17415	0	0	3.94918e-035	0	1	4	4
63	12.2137	0.16254	0	0	3.94918e-035	0	1	4	4
62	12.4691	0.0986853	0	0	3.94918e-035	0	1	4	4
61	12.5678	0.296054	0	0	3.94918e-035	0	1	4	4
61	12.8639	0.2322	0	0	3.94918e-035	0	1	4	4
62	13.0961	0.0522451	0	0	3.94918e-035	0	1	4	4
62	15.2787	0.0986853	0	0	3.94918e-035	0	1	4	4
54	15.6212	0.301859	0	0	3.94918e-035	0	1	4	4
56	16.788	0.0348301	0	0	3.94918e-035	0	1	4	4
62	16.8229	0.0580502	0	0	3.94918e-035	0	1	4	4
62	16.8809	0.0696602	0	0	3.94918e-035	0	1	4	4
56	17.1421	0.0638542	0	0	3.94918e-035	0	1	4	4
63	17.6123	0.156734	0	0	3.94918e-035	0	1	4	4
62	17.8968	0.238005	0	0	3.94918e-035	0	1	4	4
62	18.1348	0.319273	0	0	3.94918e-035	0	1	4	4
63	18.4541	0.0522461	0	0	3.94918e-035	0	1	4	4
63	18.4541	0.0580502	0	0	3.94918e-035	0	1	4	4
66	18.5005	0.01161	0	0	3.94918e-035	0	1	4	4
63	18.4541	0.0638561	0	0	3.94918e-035	0	1	4	4
66	18.5005	0.017416	0	0	3.94918e-035	0	1	4	4
63	18.4541	0.0696602	0	0	3.94918e-035	0	1	4	4
66	18.5005	0.0232201	0	0	3.94918e-035	0	1	4	4
63	18.4541	0.0754662	0	0	3.94918e-035	0	1	4	4
66	18.5005	0.029026	0	0	3.94918e-035	0	1	4	4
63	18.4541	0.0812702	0	0	3.94918e-035	0	1	4	4
66	18.5005	0.0638561	0	0	3.94918e-035	0	1	4	4
61	18.5644	0.0406342	0	0	3.94918e-035	0	1	4	4
62	20.689	0.0464382	0	0	3.94918e-035	0	1	4	4
62	20.7354	0.0348301	0	0	3.94918e-035	0	1	4	4
63	20.7877	0.0754642	0	0	3.94918e-035	0	1	4	4
54	21.0489	0.325079	0	0	3.94918e-035	0	1	4	4
56	21.4146	0.446985	0	0	3.94918e-035	0	1	4	4
54	22.088	0.0986843	0	0	3.94918e-035	0	1	4	4
56	22.2389	0.0870762	0	0	3.94918e-035	0	1	4	4
56	22.564	0.261225	0	0	3.94918e-035	0	1	4	4
61	23.0632	0.0406361	0	0	3.94918e-035	0	1	4	4
62	23.1445	0.0406342	0	0	3.94918e-035	0	1	4	4
66	23.1851	0.0870762	0	0	3.94918e-035	0	1	4	4
61	23.3186	0.0870743	0	0	3.94918e-035	0	1	4	4
61	23.4057	0.0812702	0	0	3.94918e-035	0	1	4	4
61	23.5276	0.412155	0	0	3.94918e-035	0	1	4	4
65	23.992	0.0580502	0	0	3.94918e-035	0	1	4	4
64	24.0501	0.0290241	0	0	3.94918e-035	0	1	4	4
54	24.7815	0.15093	0	0	3.94918e-035	0	1	4	4
57	25.1414	0.208981	0	0	3.94918e-035	0	1	4	4
61	25.6232	0.0580502	0	0	3.94918e-035	0	1	4	4
63	25.6813	0.261225	0	0	3.94918e-035	0	1	4	4
62	26.256	0.145126	0	0	3.94918e-035	0	1	4	4
59	26.4011	0.0232201	0	0	3.94918e-035	0	1	4	4
59	26.4707	0.220591	0	0	3.94918e-035	0	1	4	4
