midiPitch 	 onsetSec 	 durationSec 	 onsetBeats 	 onsetBarIndex 	 onsetBar 	 durationBeats 	 velocity  	 numerator 	 denominator 
57	0.0464399	0.0870748	0	0	0	0	1	4	4
60	0.290249	0.0522449	0	0	0	0	1	4	4
60	0.766258	0.226395	0	0	0	0	1	4	4
57	0.992653	0.1161	0	0	0	0	1	4	4
59	1.34095	0.0696598	0	0	0	0	1	4	4
57	1.48027	0.029025	0	0	0	0	1	4	4
58	1.6254	0.110295	0	0	0	0	1	4	4
59	2.03175	0.13932	0	0	0	0	1	4	4
57	2.27556	0.0638547	0	0	0	0	1	4	4
58	2.5658	0.13932	0	0	0	0	1	4	4
58	2.82122	0.121905	0	0	0	0	1	4	4
59	3.26821	0.075465	0	0	0	0	1	4	4
59	3.34367	0.0232198	0	0	0	0	1	4	4
58	3.38431	0.0232201	0	0	0	0	1	4	4
59	3.59329	0.0580499	0	0	0	0	1	4	4
58	3.68617	0.0870748	0	0	0	0	1	4	4
57	3.77324	0.156735	0	0	0	0	1	4	4
58	3.92998	0.214785	0	0	0	0	1	4	4
58	4.16798	0.15093	0	0	0	0	1	4	4
58	4.47565	0.0638552	0	0	0	0	1	4	4
58	4.77751	0.10449	0	0	0	0	1	4	4
58	5.12	0.0522451	0	0	0	0	1	4	4
57	5.21868	0.0522451	0	0	0	0	1	4	4
60	5.38703	0.133515	0	0	0	0	1	4	4
60	6.36807	0.12771	0	0	0	0	1	4	4
58	6.94277	0.13932	0	0	0	0	1	4	4
58	7.39556	0.0406346	0	0	0	0	1	4	4
58	7.43619	0.0290251	0	0	0	0	1	4	4
59	8.89905	0.168344	0	0	0	0	1	4	4
58	9.47374	0.162539	0	0	0	0	1	4	4
57	10.5535	0.226394	0	0	0	0	1	4	4
57	11.7145	0.104489	0	0	0	0	1	4	4
57	12.0454	0.13932	0	0	0	0	1	4	4
57	12.4749	0.0232201	0	0	0	0	1	4	4
57	12.4981	0.0290251	0	0	0	0	1	4	4
57	12.9219	0.116099	0	0	0	0	1	4	4
57	13.3689	0.0290251	0	0	0	0	1	4	4
57	13.3979	0.0580492	0	0	0	0	1	4	4
57	13.5663	0.0696592	0	0	0	0	1	4	4
57	13.6359	0.0696602	0	0	0	0	1	4	4
56	13.9146	0.0232201	0	0	0	0	1	4	4
57	13.9436	0.0406351	0	0	0	0	1	4	4
57	14.1584	0.150929	0	0	0	0	1	4	4
57	14.5415	0.127709	0	0	0	0	1	4	4
57	15.1568	0.10449	0	0	0	0	1	4	4
57	15.3194	0.0232201	0	0	0	0	1	4	4
59	15.5806	0.0754652	0	0	0	0	1	4	4
60	16.492	0.0696602	0	0	0	0	1	4	4
58	16.5907	0.0812683	0	0	0	0	1	4	4
57	17.0899	0.0464401	0	0	0	0	1	4	4
57	17.4034	0.0696583	0	0	0	0	1	4	4
57	17.473	0.0522461	0	0	0	0	1	4	4
60	17.9548	0.0812702	0	0	0	0	1	4	4
57	18.3089	0.12771	0	0	0	0	1	4	4
57	19.0578	0.0580502	0	0	0	0	1	4	4
57	19.2203	0.0812683	0	0	0	0	1	4	4
58	19.5686	0.0754642	0	0	0	0	1	4	4
58	20.2884	0.0580502	0	0	0	0	1	4	4
58	20.4684	0.121904	0	0	0	0	1	4	4
57	20.7122	0.0580502	0	0	0	0	1	4	4
57	20.8457	0.145124	0	0	0	0	1	4	4
57	21.3682	0.1161	0	0	0	0	1	4	4
57	21.7745	0.0348301	0	0	0	0	1	4	4
58	22.146	0.17415	0	0	0	0	1	4	4
60	23.4638	0.203175	0	0	0	0	1	4	4
57	23.7018	0.0406342	0	0	0	0	1	4	4
57	23.7424	0.0232201	0	0	0	0	1	4	4
57	24.0152	0.13932	0	0	0	0	1	4	4
58	24.5203	0.0348301	0	0	0	0	1	4	4
58	24.9673	0.0464382	0	0	0	0	1	4	4
58	25.3214	0.0928802	0	0	0	0	1	4	4
58	29.0424	0.185759	0	0	0	0	1	4	4
