midiPitch 	 onsetSec 	 durationSec 	 onsetBeats 	 onsetBarIndex 	 onsetBar 	 durationBeats 	 velocity  	 numerator 	 denominator 
63	0.0870748	0.0870748	0	0	3.19705e-035	0	1	4	4
63	0.17415	0.0870748	0	0	3.19705e-035	0	1	4	4
61	0.278639	0.133515	0	0	3.19705e-035	0	1	4	4
58	0.528254	0.284444	0	0	3.19705e-035	0	1	4	4
55	0.812698	0.121905	0	0	3.19705e-035	0	1	4	4
56	0.934603	0.20898	0	0	3.19705e-035	0	1	4	4
61	1.79955	0.0812699	0	0	3.19705e-035	0	1	4	4
66	2.14785	0.348299	0	0	3.19705e-035	0	1	4	4
63	2.66449	0.13932	0	0	3.19705e-035	0	1	4	4
61	3.77905	0.296054	0	0	3.19705e-035	0	1	4	4
66	4.81234	0.191565	0	0	3.19705e-035	0	1	4	4
65	5.07936	0.0928802	0	0	3.19705e-035	0	1	4	4
65	5.30576	0.0754647	0	0	3.19705e-035	0	1	4	4
63	5.38122	0.133515	0	0	3.19705e-035	0	1	4	4
63	5.77596	0.301859	0	0	3.19705e-035	0	1	4	4
65	6.07782	0.272834	0	0	3.19705e-035	0	1	4	4
64	6.79764	0.423764	0	0	3.19705e-035	0	1	4	4
57	7.65678	0.0928798	0	0	3.19705e-035	0	1	4	4
66	7.74966	0.0638552	0	0	3.19705e-035	0	1	4	4
66	7.87737	0.0638552	0	0	3.19705e-035	0	1	4	4
68	8.09215	0.319274	0	0	3.19705e-035	0	1	4	4
68	8.54494	0.33669	0	0	3.19705e-035	0	1	4	4
65	9.06739	0.22059	0	0	3.19705e-035	0	1	4	4
63	9.38667	0.365714	0	0	3.19705e-035	0	1	4	4
63	10.1994	0.0812702	0	0	3.19705e-035	0	1	4	4
65	10.4606	0.150929	0	0	3.19705e-035	0	1	4	4
66	10.6522	0.10449	0	0	3.19705e-035	0	1	4	4
66	10.925	0.116099	0	0	3.19705e-035	0	1	4	4
65	11.0411	0.522449	0	0	3.19705e-035	0	1	4	4
66	12.62	0.15093	0	0	3.19705e-035	0	1	4	4
66	12.7884	0.249614	0	0	3.19705e-035	0	1	4	4
66	13.038	0.249615	0	0	3.19705e-035	0	1	4	4
66	13.2876	0.145124	0	0	3.19705e-035	0	1	4	4
65	13.4327	0.15093	0	0	3.19705e-035	0	1	4	4
66	13.5837	0.290249	0	0	3.19705e-035	0	1	4	4
65	14.0655	0.20898	0	0	3.19705e-035	0	1	4	4
61	14.408	0.325079	0	0	3.19705e-035	0	1	4	4
63	14.8666	0.156735	0	0	3.19705e-035	0	1	4	4
66	15.18	0.330884	0	0	3.19705e-035	0	1	4	4
66	15.5806	0.417959	0	0	3.19705e-035	0	1	4	4
66	16.1785	0.15093	0	0	3.19705e-035	0	1	4	4
65	16.3294	0.336689	0	0	3.19705e-035	0	1	4	4
66	16.6661	0.226395	0	0	3.19705e-035	0	1	4	4
66	16.8925	0.284445	0	0	3.19705e-035	0	1	4	4
65	17.177	0.319273	0	0	3.19705e-035	0	1	4	4
65	18.5411	0.394739	0	0	3.19705e-035	0	1	4	4
67	18.9359	0.0870743	0	0	3.19705e-035	0	1	4	4
68	19.052	0.284443	0	0	3.19705e-035	0	1	4	4
68	20.271	0.214785	0	0	3.19705e-035	0	1	4	4
69	20.4858	0.365713	0	0	3.19705e-035	0	1	4	4
63	21.908	0.116098	0	0	3.19705e-035	0	1	4	4
65	22.2273	0.168344	0	0	3.19705e-035	0	1	4	4
66	22.5466	0.13932	0	0	3.19705e-035	0	1	4	4
65	22.8368	0.220591	0	0	3.19705e-035	0	1	4	4
65	23.0574	0.150928	0	0	3.19705e-035	0	1	4	4
68	23.8469	0.168344	0	0	3.19705e-035	0	1	4	4
65	24.1894	0.10449	0	0	3.19705e-035	0	1	4	4
63	24.4796	0.377323	0	0	3.19705e-035	0	1	4	4
64	25.0311	0.0870743	0	0	3.19705e-035	0	1	4	4
67	25.1182	0.203175	0	0	3.19705e-035	0	1	4	4
63	25.3214	0.133514	0	0	3.19705e-035	0	1	4	4
65	25.4549	0.15093	0	0	3.19705e-035	0	1	4	4
63	25.6058	0.493423	0	0	3.19705e-035	0	1	4	4
61	26.0992	0.156734	0	0	3.19705e-035	0	1	4	4
68	26.4824	0.121906	0	0	3.19705e-035	0	1	4	4
68	26.6043	0.0696583	0	0	3.19705e-035	0	1	4	4
63	27.1557	0.220589	0	0	3.19705e-035	0	1	4	4
60	27.9336	0.0522442	0	0	3.19705e-035	0	1	4	4
61	27.9858	0.0464401	0	0	3.19705e-035	0	1	4	4
61	28.0323	0.0232201	0	0	3.19705e-035	0	1	4	4
57	28.5489	0.110296	0	0	3.19705e-035	0	1	4	4
