midiPitch 	 onsetSec 	 durationSec 	 onsetBeats 	 onsetBarIndex 	 onsetBar 	 durationBeats 	 velocity  	 numerator 	 denominator 
70	2.57161	0.0232198	0	0	2.04986e-035	0	1	4	4
72	2.61224	0.0290248	0	0	2.04986e-035	0	1	4	4
71	2.75737	0.0232201	0	0	2.04986e-035	0	1	4	4
72	2.82122	0.0522449	0	0	2.04986e-035	0	1	4	4
74	3.18694	0.0290248	0	0	2.04986e-035	0	1	4	4
75	3.3785	0.1161	0	0	2.04986e-035	0	1	4	4
75	3.68617	0.0522449	0	0	2.04986e-035	0	1	4	4
75	3.73841	0.133515	0	0	2.04986e-035	0	1	4	4
75	4.10993	0.0696597	0	0	2.04986e-035	0	1	4	4
83	4.27247	0.0696602	0	0	2.04986e-035	0	1	4	4
73	4.51048	0.0928798	0	0	2.04986e-035	0	1	4	4
72	4.61497	0.0290251	0	0	2.04986e-035	0	1	4	4
76	6.53061	0.0232201	0	0	2.04986e-035	0	1	4	4
77	6.55964	0.0290251	0	0	2.04986e-035	0	1	4	4
76	6.58866	0.0638547	0	0	2.04986e-035	0	1	4	4
79	6.70476	0.0232196	0	0	2.04986e-035	0	1	4	4
75	6.82086	0.0348301	0	0	2.04986e-035	0	1	4	4
80	7.00662	0.0812697	0	0	2.04986e-035	0	1	4	4
73	13.3224	0.0928802	0	0	2.04986e-035	0	1	4	4
75	13.4734	0.0232201	0	0	2.04986e-035	0	1	4	4
77	13.5488	0.0290251	0	0	2.04986e-035	0	1	4	4
76	13.5837	0.0232201	0	0	2.04986e-035	0	1	4	4
78	13.7056	0.0232201	0	0	2.04986e-035	0	1	4	4
86	13.7288	0.0928802	0	0	2.04986e-035	0	1	4	4
80	13.9668	0.121904	0	0	2.04986e-035	0	1	4	4
72	16.759	0.0348301	0	0	2.04986e-035	0	1	4	4
74	17.6181	0.0754642	0	0	2.04986e-035	0	1	4	4
75	17.7575	0.029026	0	0	2.04986e-035	0	1	4	4
68	17.7981	0.0232201	0	0	2.04986e-035	0	1	4	4
77	17.8561	0.0696602	0	0	2.04986e-035	0	1	4	4
84	18.0709	0.0986862	0	0	2.04986e-035	0	1	4	4
72	20.0214	0.0290241	0	0	2.04986e-035	0	1	4	4
61	20.3117	0.0232201	0	0	2.04986e-035	0	1	4	4
61	20.4684	0.0232201	0	0	2.04986e-035	0	1	4	4
61	20.5322	0.0232201	0	0	2.04986e-035	0	1	4	4
61	20.6425	0.0406342	0	0	2.04986e-035	0	1	4	4
61	20.689	0.179955	0	0	2.04986e-035	0	1	4	4
61	20.9734	0.029026	0	0	2.04986e-035	0	1	4	4
62	21.0779	0.029026	0	0	2.04986e-035	0	1	4	4
61	21.3507	0.0232201	0	0	2.04986e-035	0	1	4	4
59	21.5771	0.0638542	0	0	2.04986e-035	0	1	4	4
65	22.0009	0.0406361	0	0	2.04986e-035	0	1	4	4
56	22.0938	0.0812702	0	0	2.04986e-035	0	1	4	4
65	23.4928	0.145124	0	0	2.04986e-035	0	1	4	4
66	23.6379	0.0406361	0	0	2.04986e-035	0	1	4	4
53	23.7134	0.0290241	0	0	2.04986e-035	0	1	4	4
54	23.7424	0.0232201	0	0	2.04986e-035	0	1	4	4
59	23.7888	0.0290241	0	0	2.04986e-035	0	1	4	4
60	23.8179	0.0232201	0	0	2.04986e-035	0	1	4	4
56	23.8411	0.029026	0	0	2.04986e-035	0	1	4	4
56	23.9049	0.0406342	0	0	2.04986e-035	0	1	4	4
56	23.992	0.12771	0	0	2.04986e-035	0	1	4	4
56	24.6132	0.0812702	0	0	2.04986e-035	0	1	4	4
56	24.6944	0.0232201	0	0	2.04986e-035	0	1	4	4
61	25.2575	0.15093	0	0	2.04986e-035	0	1	4	4
61	26.9584	0.029026	0	0	2.04986e-035	0	1	4	4
63	27.0048	0.0348301	0	0	2.04986e-035	0	1	4	4
63	27.1151	0.0232201	0	0	2.04986e-035	0	1	4	4
65	27.2776	0.0232201	0	0	2.04986e-035	0	1	4	4
63	27.4286	0.0406342	0	0	2.04986e-035	0	1	4	4
61	27.5679	0.220591	0	0	2.04986e-035	0	1	4	4
56	28.1542	0.0232201	0	0	2.04986e-035	0	1	4	4
56	28.2006	0.0232201	0	0	2.04986e-035	0	1	4	4
56	28.2297	0.0232201	0	0	2.04986e-035	0	1	4	4
59	28.4619	0.0406342	0	0	2.04986e-035	0	1	4	4
61	28.7753	0.029026	0	0	2.04986e-035	0	1	4	4
61	28.8102	0.0580502	0	0	2.04986e-035	0	1	4	4
