midiPitch 	 onsetSec 	 durationSec 	 onsetBeats 	 onsetBarIndex 	 onsetBar 	 durationBeats 	 velocity  	 numerator 	 denominator 
66	2.48454	0.0290248	0	0	0	0	1	4	4
66	2.51937	0.0290248	0	0	0	0	1	4	4
65	2.54839	0.0406349	0	0	0	0	1	4	4
53	2.86766	0.1161	0	0	0	0	1	4	4
65	3.08245	0.0232198	0	0	0	0	1	4	4
67	3.12889	0.0754647	0	0	0	0	1	4	4
66	3.75002	0.0290248	0	0	0	0	1	4	4
66	3.77905	0.0638549	0	0	0	0	1	4	4
66	3.8429	0.0232201	0	0	0	0	1	4	4
72	4.27828	0.16254	0	0	0	0	1	4	4
72	4.44082	0.0986848	0	0	0	0	1	4	4
76	4.72526	0.162539	0	0	0	0	1	4	4
79	5.57859	0.0464396	0	0	0	0	1	4	4
66	5.78757	0.0638547	0	0	0	0	1	4	4
65	5.85143	0.0290251	0	0	0	0	1	4	4
53	6.18812	0.0986848	0	0	0	0	1	4	4
65	6.45515	0.0464401	0	0	0	0	1	4	4
60	7.76127	0.0986848	0	0	0	0	1	4	4
53	8.86422	0.104489	0	0	0	0	1	4	4
66	9.079	0.121904	0	0	0	0	1	4	4
53	9.23574	0.0870752	0	0	0	0	1	4	4
53	9.50277	0.104489	0	0	0	0	1	4	4
65	9.7756	0.0580502	0	0	0	0	1	4	4
52	9.87429	0.0754642	0	0	0	0	1	4	4
61	10.2748	0.0870743	0	0	0	0	1	4	4
65	10.4664	0.121904	0	0	0	0	1	4	4
65	10.7741	0.13932	0	0	0	0	1	4	4
60	10.9134	0.127709	0	0	0	0	1	4	4
60	11.0991	0.0870743	0	0	0	0	1	4	4
64	11.3488	0.133514	0	0	0	0	1	4	4
65	11.4939	0.0754652	0	0	0	0	1	4	4
52	12.2137	0.10449	0	0	0	0	1	4	4
65	12.4517	0.0696602	0	0	0	0	1	4	4
63	12.5214	0.0406351	0	0	0	0	1	4	4
52	12.591	0.0812693	0	0	0	0	1	4	4
53	12.858	0.0928802	0	0	0	0	1	4	4
63	13.1309	0.0464401	0	0	0	0	1	4	4
51	13.2063	0.0290241	0	0	0	0	1	4	4
51	13.2412	0.0348301	0	0	0	0	1	4	4
70	15.7431	0.0812702	0	0	0	0	1	4	4
70	15.8824	0.121903	0	0	0	0	1	4	4
69	17.3337	0.0522442	0	0	0	0	1	4	4
70	19.6615	0.0580482	0	0	0	0	1	4	4
71	19.7195	0.0406361	0	0	0	0	1	4	4
66	22.2157	0.0638561	0	0	0	0	1	4	4
66	22.8136	0.10449	0	0	0	0	1	4	4
63	23.2838	0.121904	0	0	0	0	1	4	4
65	23.4057	0.238005	0	0	0	0	1	4	4
65	23.8295	0.1161	0	0	0	0	1	4	4
65	23.9456	0.0580502	0	0	0	0	1	4	4
60	24.172	0.0696602	0	0	0	0	1	4	4
65	24.2416	0.0812702	0	0	0	0	1	4	4
64	24.3229	0.197369	0	0	0	0	1	4	4
65	24.5203	0.16254	0	0	0	0	1	4	4
52	25.2691	0.1161	0	0	0	0	1	4	4
65	25.5071	0.10449	0	0	0	0	1	4	4
65	26.105	0.12771	0	0	0	0	1	4	4
