midiPitch 	 onsetSec 	 durationSec 	 onsetBeats 	 onsetBarIndex 	 onsetBar 	 durationBeats 	 velocity  	 numerator 	 denominator 
58	0.110295	0.0464399	0	0	5.22739e-035	0	1	4	4
55	0.400544	0.19737	0	0	5.22739e-035	0	1	4	4
59	0.766258	0.0696599	0	0	5.22739e-035	0	1	4	4
58	0.835918	0.0290249	0	0	5.22739e-035	0	1	4	4
59	0.893968	0.0232199	0	0	5.22739e-035	0	1	4	4
58	2.08399	0.0638549	0	0	5.22739e-035	0	1	4	4
58	2.27556	0.0348299	0	0	5.22739e-035	0	1	4	4
59	2.31619	0.0870748	0	0	5.22739e-035	0	1	4	4
59	2.77478	0.0290248	0	0	5.22739e-035	0	1	4	4
60	2.80961	0.255419	0	0	5.22739e-035	0	1	4	4
60	3.06503	0.191565	0	0	5.22739e-035	0	1	4	4
58	3.2566	0.121905	0	0	5.22739e-035	0	1	4	4
58	3.68036	0.179955	0	0	5.22739e-035	0	1	4	4
55	3.86032	0.371519	0	0	5.22739e-035	0	1	4	4
68	7.97025	0.133514	0	0	5.22739e-035	0	1	4	4
67	8.10376	0.0754652	0	0	5.22739e-035	0	1	4	4
59	8.33016	0.13932	0	0	5.22739e-035	0	1	4	4
62	8.55655	0.168344	0	0	5.22739e-035	0	1	4	4
60	8.81197	0.162539	0	0	5.22739e-035	0	1	4	4
59	8.97451	0.0290251	0	0	5.22739e-035	0	1	4	4
58	9.04417	0.0580502	0	0	5.22739e-035	0	1	4	4
56	9.10222	0.249614	0	0	5.22739e-035	0	1	4	4
56	9.35184	0.12771	0	0	5.22739e-035	0	1	4	4
61	9.86848	0.203175	0	0	5.22739e-035	0	1	4	4
62	10.1355	0.238004	0	0	5.22739e-035	0	1	4	4
61	10.3735	0.16254	0	0	5.22739e-035	0	1	4	4
66	11.3429	0.162539	0	0	5.22739e-035	0	1	4	4
63	11.5171	0.139319	0	0	5.22739e-035	0	1	4	4
59	12.2659	0.342494	0	0	5.22739e-035	0	1	4	4
54	14.646	0.0580492	0	0	5.22739e-035	0	1	4	4
62	14.9246	0.1161	0	0	5.22739e-035	0	1	4	4
60	15.0407	0.249614	0	0	5.22739e-035	0	1	4	4
58	15.2903	0.24381	0	0	5.22739e-035	0	1	4	4
60	15.6851	0.2322	0	0	5.22739e-035	0	1	4	4
56	16.0276	0.354105	0	0	5.22739e-035	0	1	4	4
53	17.7633	0.116098	0	0	5.22739e-035	0	1	4	4
53	17.7633	0.121904	0	0	5.22739e-035	0	1	4	4
66	17.8736	0.01161	0	0	5.22739e-035	0	1	4	4
53	17.7633	0.127708	0	0	5.22739e-035	0	1	4	4
66	17.8736	0.0174141	0	0	5.22739e-035	0	1	4	4
53	17.7633	0.133514	0	0	5.22739e-035	0	1	4	4
66	17.8736	0.0232201	0	0	5.22739e-035	0	1	4	4
53	17.7633	0.139318	0	0	5.22739e-035	0	1	4	4
66	17.8736	0.0290241	0	0	5.22739e-035	0	1	4	4
53	17.7633	0.145124	0	0	5.22739e-035	0	1	4	4
66	17.8736	0.0348301	0	0	5.22739e-035	0	1	4	4
53	17.7633	0.150928	0	0	5.22739e-035	0	1	4	4
66	17.8736	0.0406342	0	0	5.22739e-035	0	1	4	4
53	17.7633	0.156734	0	0	5.22739e-035	0	1	4	4
66	17.8736	0.0464401	0	0	5.22739e-035	0	1	4	4
53	17.7633	0.162539	0	0	5.22739e-035	0	1	4	4
66	17.8736	0.0522442	0	0	5.22739e-035	0	1	4	4
53	17.7633	0.168344	0	0	5.22739e-035	0	1	4	4
66	17.8736	0.0580502	0	0	5.22739e-035	0	1	4	4
53	17.7633	0.174149	0	0	5.22739e-035	0	1	4	4
66	17.8736	0.0638542	0	0	5.22739e-035	0	1	4	4
53	17.7633	0.179955	0	0	5.22739e-035	0	1	4	4
66	17.8736	0.0696602	0	0	5.22739e-035	0	1	4	4
53	17.7633	0.185759	0	0	5.22739e-035	0	1	4	4
66	17.8736	0.0754642	0	0	5.22739e-035	0	1	4	4
53	17.7633	0.191565	0	0	5.22739e-035	0	1	4	4
66	17.8736	0.0812702	0	0	5.22739e-035	0	1	4	4
53	17.7633	0.197369	0	0	5.22739e-035	0	1	4	4
66	17.8736	0.0870743	0	0	5.22739e-035	0	1	4	4
53	17.7633	0.203175	0	0	5.22739e-035	0	1	4	4
66	17.8736	0.197369	0	0	5.22739e-035	0	1	4	4
62	18.1928	0.139318	0	0	5.22739e-035	0	1	4	4
63	18.4541	0.156736	0	0	5.22739e-035	0	1	4	4
62	18.7385	0.0986862	0	0	5.22739e-035	0	1	4	4
58	18.9881	0.16254	0	0	5.22739e-035	0	1	4	4
60	19.1913	0.15093	0	0	5.22739e-035	0	1	4	4
57	19.4641	0.365715	0	0	5.22739e-035	0	1	4	4
57	20.5671	0.0928802	0	0	5.22739e-035	0	1	4	4
59	20.6832	0.0812702	0	0	5.22739e-035	0	1	4	4
58	20.7644	0.0580502	0	0	5.22739e-035	0	1	4	4
58	20.8225	0.0406342	0	0	5.22739e-035	0	1	4	4
54	21.0141	0.214785	0	0	5.22739e-035	0	1	4	4
58	21.3856	0.0406342	0	0	5.22739e-035	0	1	4	4
58	21.4552	0.0870743	0	0	5.22739e-035	0	1	4	4
55	22.2505	0.0696602	0	0	5.22739e-035	0	1	4	4
55	22.3318	0.0522442	0	0	5.22739e-035	0	1	4	4
53	22.384	0.0696602	0	0	5.22739e-035	0	1	4	4
60	22.5059	0.0986843	0	0	5.22739e-035	0	1	4	4
60	22.773	0.238005	0	0	5.22739e-035	0	1	4	4
58	23.011	0.174149	0	0	5.22739e-035	0	1	4	4
62	23.3709	0.325079	0	0	5.22739e-035	0	1	4	4
57	24.1081	0.156734	0	0	5.22739e-035	0	1	4	4
58	24.2765	0.0348301	0	0	5.22739e-035	0	1	4	4
55	24.468	0.197369	0	0	5.22739e-035	0	1	4	4
58	24.9092	0.0522442	0	0	5.22739e-035	0	1	4	4
58	24.9615	0.0464401	0	0	5.22739e-035	0	1	4	4
59	25.9309	0.0348301	0	0	5.22739e-035	0	1	4	4
60	25.9715	0.226395	0	0	5.22739e-035	0	1	4	4
60	26.3198	0.243809	0	0	5.22739e-035	0	1	4	4
58	26.581	0.0928783	0	0	5.22739e-035	0	1	4	4
58	26.8249	0.145124	0	0	5.22739e-035	0	1	4	4
57	26.97	0.0348301	0	0	5.22739e-035	0	1	4	4
57	27.0048	0.0986843	0	0	5.22739e-035	0	1	4	4
58	27.4808	0.133514	0	0	5.22739e-035	0	1	4	4
58	27.6143	0.133514	0	0	5.22739e-035	0	1	4	4
55	27.8988	0.197369	0	0	5.22739e-035	0	1	4	4
58	28.2587	0.0580502	0	0	5.22739e-035	0	1	4	4
58	28.3167	0.0986843	0	0	5.22739e-035	0	1	4	4
