midiPitch 	 onsetSec 	 durationSec 	 onsetBeats 	 onsetBarIndex 	 onsetBar 	 durationBeats 	 velocity  	 numerator 	 denominator 
61	3.33206	0.243809	0	0	3.94924e-035	0	1	4	4
62	3.57587	0.19737	0	0	3.94924e-035	0	1	4	4
60	3.77324	0.365715	0	0	3.94924e-035	0	1	4	4
60	4.13896	0.406349	0	0	3.94924e-035	0	1	4	4
62	4.54531	0.510839	0	0	3.94924e-035	0	1	4	4
57	5.60181	0.743039	0	0	3.94924e-035	0	1	4	4
59	6.34485	0.214785	0	0	3.94924e-035	0	1	4	4
57	6.55964	0.278639	0	0	3.94924e-035	0	1	4	4
57	6.83828	0.261225	0	0	3.94924e-035	0	1	4	4
57	7.0995	0.19737	0	0	3.94924e-035	0	1	4	4
58	7.29687	0.179955	0	0	3.94924e-035	0	1	4	4
52	9.02676	0.336689	0	0	3.94924e-035	0	1	4	4
52	9.36345	0.0232201	0	0	3.94924e-035	0	1	4	4
62	17.2292	0.0870743	0	0	3.94924e-035	0	1	4	4
60	17.4846	0.74304	0	0	3.94924e-035	0	1	4	4
69	19.2203	1.02748	0	0	3.94924e-035	0	1	4	4
63	24.7409	0.110294	0	0	3.94924e-035	0	1	4	4
60	24.886	0.267029	0	0	3.94924e-035	0	1	4	4
58	25.7393	0.301859	0	0	3.94924e-035	0	1	4	4
62	28.1542	0.73143	0	0	3.94924e-035	0	1	4	4
60	28.9553	0.371519	0	0	3.94924e-035	0	1	4	4
58	29.4371	0.406349	0	0	3.94924e-035	0	1	4	4
