midiPitch 	 onsetSec 	 durationSec 	 onsetBeats 	 onsetBarIndex 	 onsetBar 	 durationBeats 	 velocity  	 numerator 	 denominator 
65	2.02014	0.0406349	0	0	0	0	1	4	4
63	2.20009	0.0290248	0	0	0	0	1	4	4
60	2.22912	0.20898	0	0	0	0	1	4	4
61	2.51356	0.0928798	0	0	0	0	1	4	4
58	2.80381	0.0348301	0	0	0	0	1	4	4
58	2.84444	0.0348301	0	0	0	0	1	4	4
58	2.87927	0.0928798	0	0	0	0	1	4	4
58	2.99537	0.0406349	0	0	0	0	1	4	4
58	3.05923	0.0406351	0	0	0	0	1	4	4
60	3.13469	0.0232198	0	0	0	0	1	4	4
61	3.15791	0.0348301	0	0	0	0	1	4	4
60	3.20435	0.0348301	0	0	0	0	1	4	4
60	3.39011	0.261225	0	0	0	0	1	4	4
60	3.65134	0.203175	0	0	0	0	1	4	4
60	3.85451	0.121905	0	0	0	0	1	4	4
59	4.22023	0.0522447	0	0	0	0	1	4	4
58	4.33633	0.0348296	0	0	0	0	1	4	4
58	4.39438	0.0348301	0	0	0	0	1	4	4
58	4.43501	0.0406346	0	0	0	0	1	4	4
58	4.47565	0.0232201	0	0	0	0	1	4	4
61	5.10839	0.121905	0	0	0	0	1	4	4
60	5.73533	0.121905	0	0	0	0	1	4	4
62	5.91528	0.145125	0	0	0	0	1	4	4
60	6.06041	0.0232201	0	0	0	0	1	4	4
61	6.12426	0.156735	0	0	0	0	1	4	4
61	6.90213	0.19737	0	0	0	0	1	4	4
65	7.0995	0.191565	0	0	0	0	1	4	4
65	7.40136	0.0696597	0	0	0	0	1	4	4
61	7.72644	0.20898	0	0	0	0	1	4	4
64	8.33016	0.354105	0	0	0	0	1	4	4
64	8.71329	0.1161	0	0	0	0	1	4	4
61	8.99193	0.0290251	0	0	0	0	1	4	4
61	9.02676	0.0696602	0	0	0	0	1	4	4
63	9.11964	0.104489	0	0	0	0	1	4	4
61	9.27057	0.116099	0	0	0	0	1	4	4
61	9.38667	0.156734	0	0	0	0	1	4	4
63	11.2733	0.0638552	0	0	0	0	1	4	4
62	11.4358	0.2322	0	0	0	0	1	4	4
64	11.7435	0.0928793	0	0	0	0	1	4	4
62	11.8364	0.0348301	0	0	0	0	1	4	4
64	12.0512	0.249615	0	0	0	0	1	4	4
64	12.3414	0.17415	0	0	0	0	1	4	4
61	12.7187	0.150929	0	0	0	0	1	4	4
61	12.8697	0.179955	0	0	0	0	1	4	4
60	13.5488	0.104489	0	0	0	0	1	4	4
61	13.6824	0.168344	0	0	0	0	1	4	4
60	13.8507	0.0464401	0	0	0	0	1	4	4
62	13.8971	0.261225	0	0	0	0	1	4	4
64	14.1584	0.26703	0	0	0	0	1	4	4
64	14.5067	0.18576	0	0	0	0	1	4	4
64	14.7911	0.17415	0	0	0	0	1	4	4
62	15.1336	0.32508	0	0	0	0	1	4	4
62	16.3178	0.179955	0	0	0	0	1	4	4
65	16.8925	0.296055	0	0	0	0	1	4	4
64	17.3395	0.0754662	0	0	0	0	1	4	4
63	17.8561	0.17415	0	0	0	0	1	4	4
67	18.2277	0.400543	0	0	0	0	1	4	4
66	18.8024	0.417959	0	0	0	0	1	4	4
67	19.4351	0.0928783	0	0	0	0	1	4	4
65	19.528	0.0928802	0	0	0	0	1	4	4
64	19.9982	0.0696602	0	0	0	0	1	4	4
62	20.1201	0.13932	0	0	0	0	1	4	4
63	21.9138	0.133514	0	0	0	0	1	4	4
64	22.146	0.10449	0	0	0	0	1	4	4
62	23.3883	0.13932	0	0	0	0	1	4	4
61	23.5683	0.0638542	0	0	0	0	1	4	4
63	23.992	0.272835	0	0	0	0	1	4	4
63	24.2649	0.232199	0	0	0	0	1	4	4
63	24.619	0.16254	0	0	0	0	1	4	4
59	25.8206	0.0580502	0	0	0	0	1	4	4
61	25.8786	0.10449	0	0	0	0	1	4	4
64	26.4243	0.121904	0	0	0	0	1	4	4
64	26.732	0.191565	0	0	0	0	1	4	4
61	27.417	0.267029	0	0	0	0	1	4	4
61	27.7304	0.133514	0	0	0	0	1	4	4
66	28.0323	0.446985	0	0	0	0	1	4	4
63	28.6418	0.18576	0	0	0	0	1	4	4
