midiPitch 	 onsetSec 	 durationSec 	 onsetBeats 	 onsetBarIndex 	 onsetBar 	 durationBeats 	 velocity  	 numerator 	 denominator 
68	2.31039	0.539864	0	0	4.77676e-035	0	1	4	4
66	2.85025	0.121905	0	0	4.77676e-035	0	1	4	4
67	3.07084	0.168345	0	0	4.77676e-035	0	1	4	4
66	3.23918	0.0754647	0	0	4.77676e-035	0	1	4	4
67	3.31465	0.0232201	0	0	4.77676e-035	0	1	4	4
66	3.34367	0.203175	0	0	4.77676e-035	0	1	4	4
69	6.47837	0.0522447	0	0	4.77676e-035	0	1	4	4
71	6.53642	0.0812697	0	0	4.77676e-035	0	1	4	4
74	6.79184	0.127709	0	0	4.77676e-035	0	1	4	4
59	8.8468	0.19737	0	0	4.77676e-035	0	1	4	4
71	11.8073	0.0580502	0	0	4.77676e-035	0	1	4	4
73	15.2613	0.17415	0	0	4.77676e-035	0	1	4	4
73	15.6444	0.145124	0	0	4.77676e-035	0	1	4	4
61	15.8012	0.168344	0	0	4.77676e-035	0	1	4	4
61	15.9695	0.104489	0	0	4.77676e-035	0	1	4	4
60	16.074	0.15093	0	0	4.77676e-035	0	1	4	4
59	16.2249	0.232199	0	0	4.77676e-035	0	1	4	4
67	20.8109	0.121904	0	0	4.77676e-035	0	1	4	4
65	20.9328	0.0870743	0	0	4.77676e-035	0	1	4	4
55	25.2343	0.272835	0	0	4.77676e-035	0	1	4	4
60	25.8438	0.255419	0	0	4.77676e-035	0	1	4	4
59	26.0992	0.301861	0	0	4.77676e-035	0	1	4	4
58	26.4011	0.534058	0	0	4.77676e-035	0	1	4	4
