midiPitch 	 onsetSec 	 durationSec 	 onsetBeats 	 onsetBarIndex 	 onsetBar 	 durationBeats 	 velocity  	 numerator 	 denominator 
60	0.940408	0.145125	0	0	4.09956e-035	0	1	4	4
59	1.30612	0.17415	0	0	4.09956e-035	0	1	4	4
63	1.68925	0.0464399	0	0	4.09956e-035	0	1	4	4
61	1.7415	0.226395	0	0	4.09956e-035	0	1	4	4
60	2.06077	0.0812697	0	0	4.09956e-035	0	1	4	4
59	2.17687	0.0290248	0	0	4.09956e-035	0	1	4	4
60	2.34522	0.0522449	0	0	4.09956e-035	0	1	4	4
61	2.90249	0.0696599	0	0	4.09956e-035	0	1	4	4
63	3.1463	0.20898	0	0	4.09956e-035	0	1	4	4
60	3.51782	0.0232201	0	0	4.09956e-035	0	1	4	4
60	3.54685	0.0986848	0	0	4.09956e-035	0	1	4	4
59	3.66295	0.12771	0	0	4.09956e-035	0	1	4	4
60	4.24345	0.0290246	0	0	4.09956e-035	0	1	4	4
60	4.27247	0.191565	0	0	4.09956e-035	0	1	4	4
59	4.46404	0.0580502	0	0	4.09956e-035	0	1	4	4
61	4.80073	0.0638552	0	0	4.09956e-035	0	1	4	4
60	5.03873	0.0348296	0	0	4.09956e-035	0	1	4	4
60	5.72372	0.1161	0	0	4.09956e-035	0	1	4	4
56	6.25197	0.0986848	0	0	4.09956e-035	0	1	4	4
56	6.3971	0.0406346	0	0	4.09956e-035	0	1	4	4
57	6.47837	0.0928798	0	0	4.09956e-035	0	1	4	4
57	6.57125	0.0638547	0	0	4.09956e-035	0	1	4	4
61	6.87891	0.133515	0	0	4.09956e-035	0	1	4	4
57	7.19819	0.0232201	0	0	4.09956e-035	0	1	4	4
57	7.3259	0.0290246	0	0	4.09956e-035	0	1	4	4
56	7.36073	0.0638552	0	0	4.09956e-035	0	1	4	4
57	7.55229	0.24381	0	0	4.09956e-035	0	1	4	4
57	7.92381	0.0580497	0	0	4.09956e-035	0	1	4	4
56	8.08635	0.116099	0	0	4.09956e-035	0	1	4	4
60	8.67265	0.0812693	0	0	4.09956e-035	0	1	4	4
59	8.75392	0.0232201	0	0	4.09956e-035	0	1	4	4
62	9.09642	0.0754642	0	0	4.09956e-035	0	1	4	4
60	9.17188	0.0232201	0	0	4.09956e-035	0	1	4	4
56	9.20091	0.0580502	0	0	4.09956e-035	0	1	4	4
58	9.38086	0.0406351	0	0	4.09956e-035	0	1	4	4
54	9.61306	0.0522451	0	0	4.09956e-035	0	1	4	4
59	9.78721	0.0406351	0	0	4.09956e-035	0	1	4	4
57	9.88009	0.0754642	0	0	4.09956e-035	0	1	4	4
57	9.95555	0.16254	0	0	4.09956e-035	0	1	4	4
58	10.1529	0.0754652	0	0	4.09956e-035	0	1	4	4
58	10.2284	0.0232201	0	0	4.09956e-035	0	1	4	4
57	10.4664	0.0232201	0	0	4.09956e-035	0	1	4	4
60	10.4954	0.0754642	0	0	4.09956e-035	0	1	4	4
58	10.5825	0.0348301	0	0	4.09956e-035	0	1	4	4
59	11.2327	0.110295	0	0	4.09956e-035	0	1	4	4
57	11.6216	0.0348301	0	0	4.09956e-035	0	1	4	4
57	11.6622	0.0986853	0	0	4.09956e-035	0	1	4	4
58	12.1847	0.0290241	0	0	4.09956e-035	0	1	4	4
59	12.2195	0.1161	0	0	4.09956e-035	0	1	4	4
58	12.3356	0.104489	0	0	4.09956e-035	0	1	4	4
58	12.4517	0.0754652	0	0	4.09956e-035	0	1	4	4
62	12.6897	0.127709	0	0	4.09956e-035	0	1	4	4
60	12.8174	0.0406351	0	0	4.09956e-035	0	1	4	4
59	12.8639	0.133515	0	0	4.09956e-035	0	1	4	4
59	13.0728	0.0406351	0	0	4.09956e-035	0	1	4	4
59	13.1193	0.0290251	0	0	4.09956e-035	0	1	4	4
59	13.1541	0.0696592	0	0	4.09956e-035	0	1	4	4
59	13.2238	0.0406351	0	0	4.09956e-035	0	1	4	4
59	13.4385	0.0348301	0	0	4.09956e-035	0	1	4	4
59	13.4792	0.29025	0	0	4.09956e-035	0	1	4	4
59	13.9552	0.0522451	0	0	4.09956e-035	0	1	4	4
59	14.1177	0.10449	0	0	4.09956e-035	0	1	4	4
62	14.228	0.121904	0	0	4.09956e-035	0	1	4	4
58	14.6518	0.0406342	0	0	4.09956e-035	0	1	4	4
62	14.9362	0.12771	0	0	4.09956e-035	0	1	4	4
58	15.093	0.0870752	0	0	4.09956e-035	0	1	4	4
59	15.3542	0.0348301	0	0	4.09956e-035	0	1	4	4
59	15.3948	0.0522451	0	0	4.09956e-035	0	1	4	4
58	15.6502	0.0232201	0	0	4.09956e-035	0	1	4	4
62	15.7083	0.145125	0	0	4.09956e-035	0	1	4	4
58	15.8534	0.0406342	0	0	4.09956e-035	0	1	4	4
58	15.8999	0.0986853	0	0	4.09956e-035	0	1	4	4
58	16.1437	0.13932	0	0	4.09956e-035	0	1	4	4
59	16.4049	0.0232201	0	0	4.09956e-035	0	1	4	4
59	16.4397	0.0348301	0	0	4.09956e-035	0	1	4	4
59	16.6023	0.0754642	0	0	4.09956e-035	0	1	4	4
59	16.6777	0.150928	0	0	4.09956e-035	0	1	4	4
61	17.206	0.0754642	0	0	4.09956e-035	0	1	4	4
58	17.5369	0.0696602	0	0	4.09956e-035	0	1	4	4
59	18.0129	0.0348282	0	0	4.09956e-035	0	1	4	4
59	18.1812	0.0348301	0	0	4.09956e-035	0	1	4	4
62	18.2219	0.0348301	0	0	4.09956e-035	0	1	4	4
61	18.2625	0.10449	0	0	4.09956e-035	0	1	4	4
60	18.3786	0.0406361	0	0	4.09956e-035	0	1	4	4
59	18.634	0.0812683	0	0	4.09956e-035	0	1	4	4
59	18.7327	0.0464401	0	0	4.09956e-035	0	1	4	4
60	18.9475	0.110294	0	0	4.09956e-035	0	1	4	4
59	19.261	0.0812702	0	0	4.09956e-035	0	1	4	4
62	19.5338	0.0232201	0	0	4.09956e-035	0	1	4	4
62	19.5628	0.0986862	0	0	4.09956e-035	0	1	4	4
60	19.6615	0.0696583	0	0	4.09956e-035	0	1	4	4
60	20.1317	0.156734	0	0	4.09956e-035	0	1	4	4
61	20.509	0.0580502	0	0	4.09956e-035	0	1	4	4
60	20.5671	0.0232201	0	0	4.09956e-035	0	1	4	4
58	21.0663	0.0580502	0	0	4.09956e-035	0	1	4	4
58	21.2172	0.0638542	0	0	4.09956e-035	0	1	4	4
60	21.5539	0.232199	0	0	4.09956e-035	0	1	4	4
60	21.7861	0.133516	0	0	4.09956e-035	0	1	4	4
61	22.0648	0.110294	0	0	4.09956e-035	0	1	4	4
61	22.4015	0.0986843	0	0	4.09956e-035	0	1	4	4
60	22.5001	0.0406361	0	0	4.09956e-035	0	1	4	4
59	22.5408	0.0348282	0	0	4.09956e-035	0	1	4	4
59	22.6395	0.162539	0	0	4.09956e-035	0	1	4	4
60	23.1619	0.0232182	0	0	4.09956e-035	0	1	4	4
58	23.2432	0.110296	0	0	4.09956e-035	0	1	4	4
62	23.8817	0.0638542	0	0	4.09956e-035	0	1	4	4
60	24.0152	0.0464401	0	0	4.09956e-035	0	1	4	4
60	24.0617	0.0464401	0	0	4.09956e-035	0	1	4	4
61	24.1604	0.145124	0	0	4.09956e-035	0	1	4	4
59	24.3519	0.0348301	0	0	4.09956e-035	0	1	4	4
57	24.4332	0.0986843	0	0	4.09956e-035	0	1	4	4
58	24.5319	0.0406361	0	0	4.09956e-035	0	1	4	4
61	24.5725	0.127708	0	0	4.09956e-035	0	1	4	4
59	24.7931	0.0348301	0	0	4.09956e-035	0	1	4	4
60	24.8279	0.0928802	0	0	4.09956e-035	0	1	4	4
62	24.9208	0.203175	0	0	4.09956e-035	0	1	4	4
61	26.1224	0.0754662	0	0	4.09956e-035	0	1	4	4
61	26.1979	0.121904	0	0	4.09956e-035	0	1	4	4
60	26.5462	0.133514	0	0	4.09956e-035	0	1	4	4
60	27.0512	0.220589	0	0	4.09956e-035	0	1	4	4
62	27.5795	0.0406361	0	0	4.09956e-035	0	1	4	4
62	27.8523	0.0348301	0	0	4.09956e-035	0	1	4	4
62	28.1078	0.156736	0	0	4.09956e-035	0	1	4	4
62	28.4386	0.121904	0	0	4.09956e-035	0	1	4	4
