midiPitch 	 onsetSec 	 durationSec 	 onsetBeats 	 onsetBarIndex 	 onsetBar 	 durationBeats 	 velocity  	 numerator 	 denominator 
58	0.18576	0.13932	0	0	4.3442e-035	0	1	4	4
57	0.371519	0.0812698	0	0	4.3442e-035	0	1	4	4
57	0.470204	0.0290249	0	0	4.3442e-035	0	1	4	4
57	0.557279	0.0522449	0	0	4.3442e-035	0	1	4	4
57	0.609524	0.029025	0	0	4.3442e-035	0	1	4	4
55	0.743039	0.203175	0	0	4.3442e-035	0	1	4	4
57	1.00426	0.0348299	0	0	4.3442e-035	0	1	4	4
57	1.0449	0.029025	0	0	4.3442e-035	0	1	4	4
57	1.10875	0.1161	0	0	4.3442e-035	0	1	4	4
59	1.22485	0.1161	0	0	4.3442e-035	0	1	4	4
59	1.37578	0.040635	0	0	4.3442e-035	0	1	4	4
60	1.42222	0.0638549	0	0	4.3442e-035	0	1	4	4
59	1.5151	0.0754648	0	0	4.3442e-035	0	1	4	4
63	1.61959	0.029025	0	0	4.3442e-035	0	1	4	4
62	1.65442	0.0522449	0	0	4.3442e-035	0	1	4	4
63	1.70667	0.156735	0	0	4.3442e-035	0	1	4	4
63	1.88082	0.0232199	0	0	4.3442e-035	0	1	4	4
63	1.90984	0.040635	0	0	4.3442e-035	0	1	4	4
63	1.9737	0.040635	0	0	4.3442e-035	0	1	4	4
62	2.01433	0.0580499	0	0	4.3442e-035	0	1	4	4
62	2.07238	0.0986848	0	0	4.3442e-035	0	1	4	4
62	2.25234	0.0406349	0	0	4.3442e-035	0	1	4	4
62	2.40327	0.110295	0	0	4.3442e-035	0	1	4	4
62	2.53678	0.15093	0	0	4.3442e-035	0	1	4	4
62	2.76898	0.0290248	0	0	4.3442e-035	0	1	4	4
62	2.84444	0.0638549	0	0	4.3442e-035	0	1	4	4
62	2.9083	0.0522449	0	0	4.3442e-035	0	1	4	4
62	2.96054	0.0290251	0	0	4.3442e-035	0	1	4	4
64	3.65134	0.19737	0	0	4.3442e-035	0	1	4	4
63	3.84871	0.0232198	0	0	4.3442e-035	0	1	4	4
57	5.07936	0.168345	0	0	4.3442e-035	0	1	4	4
57	5.25932	0.110295	0	0	4.3442e-035	0	1	4	4
57	5.36961	0.19737	0	0	4.3442e-035	0	1	4	4
57	5.67728	0.17415	0	0	4.3442e-035	0	1	4	4
57	5.85143	0.12771	0	0	4.3442e-035	0	1	4	4
57	6.07202	0.133514	0	0	4.3442e-035	0	1	4	4
57	6.20553	0.133515	0	0	4.3442e-035	0	1	4	4
57	6.37388	0.0580497	0	0	4.3442e-035	0	1	4	4
57	6.84408	0.1161	0	0	4.3442e-035	0	1	4	4
57	6.96018	0.0696597	0	0	4.3442e-035	0	1	4	4
59	7.77868	0.0638547	0	0	4.3442e-035	0	1	4	4
57	7.9122	0.1161	0	0	4.3442e-035	0	1	4	4
55	8.29533	0.0464392	0	0	4.3442e-035	0	1	4	4
55	9.43891	0.0406351	0	0	4.3442e-035	0	1	4	4
55	9.47955	0.0232201	0	0	4.3442e-035	0	1	4	4
58	9.63048	0.10449	0	0	4.3442e-035	0	1	4	4
55	9.91492	0.0348291	0	0	4.3442e-035	0	1	4	4
55	9.98458	0.0580502	0	0	4.3442e-035	0	1	4	4
50	10.2806	0.168344	0	0	4.3442e-035	0	1	4	4
53	10.4606	0.0348301	0	0	4.3442e-035	0	1	4	4
50	10.8611	0.20898	0	0	4.3442e-035	0	1	4	4
50	11.0701	0.133514	0	0	4.3442e-035	0	1	4	4
50	11.2036	0.10449	0	0	4.3442e-035	0	1	4	4
50	11.5287	0.0812693	0	0	4.3442e-035	0	1	4	4
59	13.8333	0.156734	0	0	4.3442e-035	0	1	4	4
58	13.99	0.150929	0	0	4.3442e-035	0	1	4	4
59	15.807	0.359909	0	0	4.3442e-035	0	1	4	4
59	16.1669	0.121904	0	0	4.3442e-035	0	1	4	4
59	16.2888	0.336689	0	0	4.3442e-035	0	1	4	4
59	16.6255	0.278641	0	0	4.3442e-035	0	1	4	4
59	16.9041	0.145124	0	0	4.3442e-035	0	1	4	4
55	17.3453	0.0986843	0	0	4.3442e-035	0	1	4	4
65	17.4498	0.238005	0	0	4.3442e-035	0	1	4	4
61	17.7923	0.15093	0	0	4.3442e-035	0	1	4	4
62	17.9432	0.104488	0	0	4.3442e-035	0	1	4	4
62	18.1522	0.214785	0	0	4.3442e-035	0	1	4	4
61	18.367	0.0580502	0	0	4.3442e-035	0	1	4	4
62	18.425	0.0696602	0	0	4.3442e-035	0	1	4	4
62	18.5876	0.574694	0	0	4.3442e-035	0	1	4	4
62	19.1739	0.296055	0	0	4.3442e-035	0	1	4	4
62	19.4699	0.0522442	0	0	4.3442e-035	0	1	4	4
67	20.7761	0.110294	0	0	4.3442e-035	0	1	4	4
67	20.8863	0.110294	0	0	4.3442e-035	0	1	4	4
67	20.9966	0.121904	0	0	4.3442e-035	0	1	4	4
57	21.1302	0.0522461	0	0	4.3442e-035	0	1	4	4
57	21.1824	0.191565	0	0	4.3442e-035	0	1	4	4
55	21.3914	0.267031	0	0	4.3442e-035	0	1	4	4
57	21.6584	0.0696583	0	0	4.3442e-035	0	1	4	4
57	21.7281	0.232201	0	0	4.3442e-035	0	1	4	4
59	21.9603	0.0290241	0	0	4.3442e-035	0	1	4	4
59	22.0067	0.197369	0	0	4.3442e-035	0	1	4	4
61	22.2041	0.0754662	0	0	4.3442e-035	0	1	4	4
62	22.2795	0.249615	0	0	4.3442e-035	0	1	4	4
62	22.5292	0.127708	0	0	4.3442e-035	0	1	4	4
62	22.6569	0.505035	0	0	4.3442e-035	0	1	4	4
62	23.1619	0.319273	0	0	4.3442e-035	0	1	4	4
62	23.4812	0.452789	0	0	4.3442e-035	0	1	4	4
64	24.2881	0.116098	0	0	4.3442e-035	0	1	4	4
64	24.4042	0.1161	0	0	4.3442e-035	0	1	4	4
63	24.5203	0.371519	0	0	4.3442e-035	0	1	4	4
59	24.8976	0.185759	0	0	4.3442e-035	0	1	4	4
58	25.0834	0.0406361	0	0	4.3442e-035	0	1	4	4
55	25.1937	0.255419	0	0	4.3442e-035	0	1	4	4
57	25.6	0.563084	0	0	4.3442e-035	0	1	4	4
57	26.1631	0.156734	0	0	4.3442e-035	0	1	4	4
57	26.3198	0.882359	0	0	4.3442e-035	0	1	4	4
58	27.8814	0.1161	0	0	4.3442e-035	0	1	4	4
57	28.1136	0.0290241	0	0	4.3442e-035	0	1	4	4
57	28.2006	0.0696602	0	0	4.3442e-035	0	1	4	4
55	28.4154	0.0406361	0	0	4.3442e-035	0	1	4	4
55	28.4793	0.0870743	0	0	4.3442e-035	0	1	4	4
56	28.5663	0.0928802	0	0	4.3442e-035	0	1	4	4
58	28.665	0.0696602	0	0	4.3442e-035	0	1	4	4
59	29.0075	0.0290241	0	0	4.3442e-035	0	1	4	4
59	29.0656	0.0348301	0	0	4.3442e-035	0	1	4	4
59	29.1759	0.0580502	0	0	4.3442e-035	0	1	4	4
63	29.3036	0.0928783	0	0	4.3442e-035	0	1	4	4
62	29.3965	0.0232201	0	0	4.3442e-035	0	1	4	4
62	29.4429	0.029026	0	0	4.3442e-035	0	1	4	4
62	29.4719	0.104488	0	0	4.3442e-035	0	1	4	4
62	29.5764	0.0522461	0	0	4.3442e-035	0	1	4	4
62	29.6461	0.0406361	0	0	4.3442e-035	0	1	4	4
62	29.7273	0.110294	0	0	4.3442e-035	0	1	4	4
