midiPitch 	 onsetSec 	 durationSec 	 onsetBeats 	 onsetBarIndex 	 onsetBar 	 durationBeats 	 velocity  	 numerator 	 denominator 
67	0.0406349	0.371519	0	0	9.17775e-035	0	1	4	4
67	0.412154	0.806893	0	0	9.17775e-035	0	1	4	4
67	1.21905	0.0928799	0	0	9.17775e-035	0	1	4	4
64	1.61959	0.243809	0	0	9.17775e-035	0	1	4	4
65	1.86921	0.18576	0	0	9.17775e-035	0	1	4	4
65	2.05497	0.0522449	0	0	9.17775e-035	0	1	4	4
63	2.67029	0.203175	0	0	9.17775e-035	0	1	4	4
64	2.91991	0.179955	0	0	9.17775e-035	0	1	4	4
62	3.09986	0.261224	0	0	9.17775e-035	0	1	4	4
62	3.6107	0.145125	0	0	9.17775e-035	0	1	4	4
64	3.75583	0.0812697	0	0	9.17775e-035	0	1	4	4
64	3.8371	0.12771	0	0	9.17775e-035	0	1	4	4
62	4.08091	0.133515	0	0	9.17775e-035	0	1	4	4
60	4.27828	0.26703	0	0	9.17775e-035	0	1	4	4
63	4.67302	0.17415	0	0	9.17775e-035	0	1	4	4
64	5.06776	0.19737	0	0	9.17775e-035	0	1	4	4
64	5.38122	0.0870752	0	0	9.17775e-035	0	1	4	4
60	6.3971	0.139319	0	0	9.17775e-035	0	1	4	4
59	6.70476	0.20898	0	0	9.17775e-035	0	1	4	4
58	7.33751	0.2322	0	0	9.17775e-035	0	1	4	4
55	7.56971	0.0812697	0	0	9.17775e-035	0	1	4	4
57	7.70902	0.226395	0	0	9.17775e-035	0	1	4	4
60	9.89751	0.110294	0	0	9.17775e-035	0	1	4	4
67	10.1239	0.249614	0	0	9.17775e-035	0	1	4	4
65	10.5535	0.0986843	0	0	9.17775e-035	0	1	4	4
65	10.6522	0.10449	0	0	9.17775e-035	0	1	4	4
65	10.8031	0.354105	0	0	9.17775e-035	0	1	4	4
64	11.1804	0.29025	0	0	9.17775e-035	0	1	4	4
61	13.3631	0.121904	0	0	9.17775e-035	0	1	4	4
67	13.6243	0.0812693	0	0	9.17775e-035	0	1	4	4
67	13.7056	0.110295	0	0	9.17775e-035	0	1	4	4
65	14.0074	0.127709	0	0	9.17775e-035	0	1	4	4
64	14.2919	0.168344	0	0	9.17775e-035	0	1	4	4
64	14.4602	0.0290251	0	0	9.17775e-035	0	1	4	4
62	14.6402	0.139319	0	0	9.17775e-035	0	1	4	4
60	14.8317	0.243809	0	0	9.17775e-035	0	1	4	4
67	16.5616	0.12771	0	0	9.17775e-035	0	1	4	4
67	16.6893	0.0696602	0	0	9.17775e-035	0	1	4	4
61	16.939	0.0812683	0	0	9.17775e-035	0	1	4	4
67	17.1479	0.220591	0	0	9.17775e-035	0	1	4	4
65	17.5427	0.255421	0	0	9.17775e-035	0	1	4	4
64	17.7981	0.0406342	0	0	9.17775e-035	0	1	4	4
64	17.8445	0.121906	0	0	9.17775e-035	0	1	4	4
62	18.1638	0.16254	0	0	9.17775e-035	0	1	4	4
60	18.4076	0.174149	0	0	9.17775e-035	0	1	4	4
65	18.7037	0.12771	0	0	9.17775e-035	0	1	4	4
64	18.8662	0.499229	0	0	9.17775e-035	0	1	4	4
64	19.3887	0.121904	0	0	9.17775e-035	0	1	4	4
60	20.1898	0.208979	0	0	9.17775e-035	0	1	4	4
60	20.4626	0.110294	0	0	9.17775e-035	0	1	4	4
62	20.7064	0.18576	0	0	9.17775e-035	0	1	4	4
64	21.0663	0.0754642	0	0	9.17775e-035	0	1	4	4
63	21.1418	0.1161	0	0	9.17775e-035	0	1	4	4
60	21.7339	0.17415	0	0	9.17775e-035	0	1	4	4
63	22.2273	0.214785	0	0	9.17775e-035	0	1	4	4
64	22.5059	0.179955	0	0	9.17775e-035	0	1	4	4
64	22.6859	0.0638542	0	0	9.17775e-035	0	1	4	4
60	23.7192	0.13932	0	0	9.17775e-035	0	1	4	4
60	23.9572	0.121904	0	0	9.17775e-035	0	1	4	4
62	24.1778	0.214783	0	0	9.17775e-035	0	1	4	4
64	24.5841	0.162539	0	0	9.17775e-035	0	1	4	4
63	24.7467	0.0232201	0	0	9.17775e-035	0	1	4	4
67	24.915	0.243811	0	0	9.17775e-035	0	1	4	4
64	25.3039	0.214785	0	0	9.17775e-035	0	1	4	4
64	25.7916	0.156734	0	0	9.17775e-035	0	1	4	4
64	25.9483	0.0696602	0	0	9.17775e-035	0	1	4	4
65	26.1689	0.203175	0	0	9.17775e-035	0	1	4	4
64	26.4301	0.0696602	0	0	9.17775e-035	0	1	4	4
65	27.2544	0.133514	0	0	9.17775e-035	0	1	4	4
65	27.5215	0.0870762	0	0	9.17775e-035	0	1	4	4
64	27.7246	0.0348301	0	0	9.17775e-035	0	1	4	4
64	27.7595	0.16254	0	0	9.17775e-035	0	1	4	4
61	28.131	0.15093	0	0	9.17775e-035	0	1	4	4
64	28.578	0.0928802	0	0	9.17775e-035	0	1	4	4
63	28.6708	0.0696583	0	0	9.17775e-035	0	1	4	4
60	28.874	0.0348282	0	0	9.17775e-035	0	1	4	4
60	29.2281	0.0928802	0	0	9.17775e-035	0	1	4	4
64	29.4661	0.168344	0	0	9.17775e-035	0	1	4	4
60	29.8434	0.116098	0	0	9.17775e-035	0	1	4	4
