midiPitch 	 onsetSec 	 durationSec 	 onsetBeats 	 onsetBarIndex 	 onsetBar 	 durationBeats 	 velocity  	 numerator 	 denominator 
61	0.574694	0.0232199	0	0	0	0	1	4	4
63	0.673379	0.029025	0	0	0	0	1	4	4
63	0.702404	0.0580499	0	0	0	0	1	4	4
62	0.847528	0.214785	0	0	0	0	1	4	4
62	1.06231	0.19737	0	0	0	0	1	4	4
62	1.06231	0.203175	0	0	0	0	1	4	4
65	1.25388	0.01161	0	0	0	0	1	4	4
62	1.06231	0.208979	0	0	0	0	1	4	4
65	1.25388	0.0174149	0	0	0	0	1	4	4
62	1.06231	0.214785	0	0	0	0	1	4	4
65	1.25388	0.0812699	0	0	0	0	1	4	4
62	1.48027	0.249614	0	0	0	0	1	4	4
65	2.86186	0.0986848	0	0	0	0	1	4	4
61	2.96054	0.0348301	0	0	0	0	1	4	4
65	4.85297	0.232199	0	0	0	0	1	4	4
63	5.42766	0.121905	0	0	0	0	1	4	4
63	5.68889	0.0696602	0	0	0	0	1	4	4
65	5.75855	0.10449	0	0	0	0	1	4	4
64	5.98494	0.0928798	0	0	0	0	1	4	4
68	6.47256	0.0812697	0	0	0	0	1	4	4
61	6.84408	0.0638552	0	0	0	0	1	4	4
65	7.41297	0.0754647	0	0	0	0	1	4	4
61	7.48844	0.0290251	0	0	0	0	1	4	4
68	9.11383	0.121904	0	0	0	0	1	4	4
66	9.23574	0.104489	0	0	0	0	1	4	4
65	10.298	0.0928793	0	0	0	0	1	4	4
56	10.449	0.0290251	0	0	0	0	1	4	4
68	10.5361	0.0638542	0	0	0	0	1	4	4
64	10.5999	0.0348301	0	0	0	0	1	4	4
62	11.6796	0.0928802	0	0	0	0	1	4	4
65	11.7725	0.110294	0	0	0	0	1	4	4
65	11.8828	0.0522451	0	0	0	0	1	4	4
63	11.9351	0.0290251	0	0	0	0	1	4	4
64	12.0686	0.10449	0	0	0	0	1	4	4
65	12.1731	0.0290241	0	0	0	0	1	4	4
65	12.353	0.0928793	0	0	0	0	1	4	4
62	12.5388	0.0232201	0	0	0	0	1	4	4
62	12.5678	0.0232201	0	0	0	0	1	4	4
61	13.6359	0.16254	0	0	0	0	1	4	4
62	13.7985	0.0754642	0	0	0	0	1	4	4
63	13.8739	0.10449	0	0	0	0	1	4	4
61	14.0887	0.0290251	0	0	0	0	1	4	4
60	14.1177	0.156734	0	0	0	0	1	4	4
58	14.3209	0.12771	0	0	0	0	1	4	4
64	14.7795	0.0696602	0	0	0	0	1	4	4
70	16.3294	0.220589	0	0	0	0	1	4	4
69	16.55	0.168344	0	0	0	0	1	4	4
69	16.7184	0.133514	0	0	0	0	1	4	4
64	20.7122	0.133516	0	0	0	0	1	4	4
62	20.8689	0.0232201	0	0	0	0	1	4	4
62	20.9908	0.0348301	0	0	0	0	1	4	4
62	21.2985	0.0290241	0	0	0	0	1	4	4
62	21.3333	0.145126	0	0	0	0	1	4	4
62	21.6178	0.12771	0	0	0	0	1	4	4
62	21.9022	0.197371	0	0	0	0	1	4	4
61	22.0996	0.0406342	0	0	0	0	1	4	4
62	22.1402	0.13932	0	0	0	0	1	4	4
62	22.4595	0.150928	0	0	0	0	1	4	4
62	22.9761	0.249615	0	0	0	0	1	4	4
60	23.5915	0.121906	0	0	0	0	1	4	4
58	23.7656	0.0696602	0	0	0	0	1	4	4
59	23.8411	0.15093	0	0	0	0	1	4	4
59	24.1662	0.121904	0	0	0	0	1	4	4
59	24.4042	0.17415	0	0	0	0	1	4	4
59	24.5783	0.261225	0	0	0	0	1	4	4
57	24.9847	0.191565	0	0	0	0	1	4	4
60	25.1762	0.267029	0	0	0	0	1	4	4
65	25.5071	0.127708	0	0	0	0	1	4	4
59	25.838	0.145126	0	0	0	0	1	4	4
60	26.0702	0.0812702	0	0	0	0	1	4	4
59	26.1515	0.0638542	0	0	0	0	1	4	4
61	26.3895	0.121904	0	0	0	0	1	4	4
60	26.6739	0.16254	0	0	0	0	1	4	4
59	26.8539	0.249615	0	0	0	0	1	4	4
59	27.1035	0.0754662	0	0	0	0	1	4	4
59	27.4576	0.261225	0	0	0	0	1	4	4
59	28.0729	0.348299	0	0	0	0	1	4	4
65	28.4212	0.0754642	0	0	0	0	1	4	4
60	28.6941	0.150928	0	0	0	0	1	4	4
60	28.9437	0.13932	0	0	0	0	1	4	4
60	29.1527	0.220589	0	0	0	0	1	4	4
