midiPitch 	 onsetSec 	 durationSec 	 onsetBeats 	 onsetBarIndex 	 onsetBar 	 durationBeats 	 velocity  	 numerator 	 denominator 
71	0.336689	0.02322	0	0	2.17223e-035	0	1	4	4
58	0.359909	0.0348299	0	0	2.17223e-035	0	1	4	4
60	0.481814	0.0290249	0	0	2.17223e-035	0	1	4	4
60	0.516644	0.0464399	0	0	2.17223e-035	0	1	4	4
58	0.690794	0.0754648	0	0	2.17223e-035	0	1	4	4
61	0.870748	0.0580499	0	0	2.17223e-035	0	1	4	4
58	1.09134	0.029025	0	0	2.17223e-035	0	1	4	4
60	1.161	0.145125	0	0	2.17223e-035	0	1	4	4
53	1.48608	0.03483	0	0	2.17223e-035	0	1	4	4
63	2.00272	0.0580499	0	0	2.17223e-035	0	1	4	4
62	2.06077	0.0406349	0	0	2.17223e-035	0	1	4	4
63	2.10721	0.0870748	0	0	2.17223e-035	0	1	4	4
59	2.19429	0.0638549	0	0	2.17223e-035	0	1	4	4
62	2.71093	0.075465	0	0	2.17223e-035	0	1	4	4
62	2.86766	0.0870748	0	0	2.17223e-035	0	1	4	4
63	3.2566	0.12771	0	0	2.17223e-035	0	1	4	4
61	3.40172	0.0986848	0	0	2.17223e-035	0	1	4	4
63	3.6049	0.0754647	0	0	2.17223e-035	0	1	4	4
59	3.73841	0.0928798	0	0	2.17223e-035	0	1	4	4
65	4.02286	0.0348296	0	0	2.17223e-035	0	1	4	4
60	4.20862	0.0754647	0	0	2.17223e-035	0	1	4	4
60	4.37116	0.121905	0	0	2.17223e-035	0	1	4	4
60	4.57433	0.10449	0	0	2.17223e-035	0	1	4	4
62	4.91102	0.0290251	0	0	2.17223e-035	0	1	4	4
61	4.94005	0.0232201	0	0	2.17223e-035	0	1	4	4
57	5.20127	0.18576	0	0	2.17223e-035	0	1	4	4
62	5.38703	0.121905	0	0	2.17223e-035	0	1	4	4
63	6.14748	0.145125	0	0	2.17223e-035	0	1	4	4
62	6.59447	0.0812697	0	0	2.17223e-035	0	1	4	4
61	7.2098	0.267029	0	0	2.17223e-035	0	1	4	4
61	7.55229	0.10449	0	0	2.17223e-035	0	1	4	4
58	7.65678	0.18576	0	0	2.17223e-035	0	1	4	4
63	8.16181	0.0232201	0	0	2.17223e-035	0	1	4	4
64	8.33596	0.0348301	0	0	2.17223e-035	0	1	4	4
63	8.37079	0.0232201	0	0	2.17223e-035	0	1	4	4
63	8.41143	0.156734	0	0	2.17223e-035	0	1	4	4
57	9.01515	0.0232201	0	0	2.17223e-035	0	1	4	4
63	9.06159	0.348299	0	0	2.17223e-035	0	1	4	4
62	9.5376	0.0870752	0	0	2.17223e-035	0	1	4	4
62	9.67111	0.104489	0	0	2.17223e-035	0	1	4	4
61	9.8917	0.17415	0	0	2.17223e-035	0	1	4	4
58	10.0833	0.0406351	0	0	2.17223e-035	0	1	4	4
58	10.1239	0.0580492	0	0	2.17223e-035	0	1	4	4
61	10.3561	0.0696602	0	0	2.17223e-035	0	1	4	4
57	10.5012	0.168344	0	0	2.17223e-035	0	1	4	4
60	10.6696	0.22059	0	0	2.17223e-035	0	1	4	4
61	11.1688	0.0870743	0	0	2.17223e-035	0	1	4	4
63	11.4997	0.0290251	0	0	2.17223e-035	0	1	4	4
65	11.5519	0.0406342	0	0	2.17223e-035	0	1	4	4
63	11.5926	0.0696602	0	0	2.17223e-035	0	1	4	4
62	11.9002	0.0928793	0	0	2.17223e-035	0	1	4	4
61	12.1789	0.0870743	0	0	2.17223e-035	0	1	4	4
64	12.2834	0.319275	0	0	2.17223e-035	0	1	4	4
62	12.7129	0.0290251	0	0	2.17223e-035	0	1	4	4
61	12.7478	0.150929	0	0	2.17223e-035	0	1	4	4
63	13.1483	0.0986843	0	0	2.17223e-035	0	1	4	4
61	13.4037	0.116099	0	0	2.17223e-035	0	1	4	4
59	13.5837	0.0348301	0	0	2.17223e-035	0	1	4	4
59	13.6243	0.0580492	0	0	2.17223e-035	0	1	4	4
61	13.8043	0.0870743	0	0	2.17223e-035	0	1	4	4
67	14.1003	0.0348301	0	0	2.17223e-035	0	1	4	4
62	14.2977	0.0290251	0	0	2.17223e-035	0	1	4	4
64	14.4486	0.0464392	0	0	2.17223e-035	0	1	4	4
64	14.675	0.0580502	0	0	2.17223e-035	0	1	4	4
62	14.7331	0.0232201	0	0	2.17223e-035	0	1	4	4
61	15.0465	0.0348291	0	0	2.17223e-035	0	1	4	4
61	15.2613	0.203175	0	0	2.17223e-035	0	1	4	4
59	15.4645	0.0696592	0	0	2.17223e-035	0	1	4	4
59	15.5574	0.0928802	0	0	2.17223e-035	0	1	4	4
64	15.807	0.197369	0	0	2.17223e-035	0	1	4	4
60	16.2307	0.0638561	0	0	2.17223e-035	0	1	4	4
60	16.4223	0.0812702	0	0	2.17223e-035	0	1	4	4
60	16.5907	0.150928	0	0	2.17223e-035	0	1	4	4
58	16.8345	0.0754642	0	0	2.17223e-035	0	1	4	4
59	16.9099	0.16254	0	0	2.17223e-035	0	1	4	4
58	17.4034	0.0754642	0	0	2.17223e-035	0	1	4	4
62	17.5659	0.0348301	0	0	2.17223e-035	0	1	4	4
63	17.7575	0.156734	0	0	2.17223e-035	0	1	4	4
55	17.9955	0.0232201	0	0	2.17223e-035	0	1	4	4
61	18.129	0.301861	0	0	2.17223e-035	0	1	4	4
62	18.7211	0.0406342	0	0	2.17223e-035	0	1	4	4
62	18.7733	0.0464401	0	0	2.17223e-035	0	1	4	4
60	18.8662	0.0696602	0	0	2.17223e-035	0	1	4	4
58	19.1855	0.0870743	0	0	2.17223e-035	0	1	4	4
59	19.2726	0.0580502	0	0	2.17223e-035	0	1	4	4
58	19.3306	0.0580502	0	0	2.17223e-035	0	1	4	4
60	19.6615	0.110294	0	0	2.17223e-035	0	1	4	4
57	19.8589	0.0406342	0	0	2.17223e-035	0	1	4	4
56	19.9053	0.0638542	0	0	2.17223e-035	0	1	4	4
59	20.0969	0.110294	0	0	2.17223e-035	0	1	4	4
63	20.898	0.0290241	0	0	2.17223e-035	0	1	4	4
62	20.9502	0.029026	0	0	2.17223e-035	0	1	4	4
56	21.0489	0.0406342	0	0	2.17223e-035	0	1	4	4
59	21.5191	0.0464401	0	0	2.17223e-035	0	1	4	4
58	21.5946	0.1161	0	0	2.17223e-035	0	1	4	4
63	21.9022	0.0232201	0	0	2.17223e-035	0	1	4	4
62	21.9254	0.0522442	0	0	2.17223e-035	0	1	4	4
59	22.2854	0.0696602	0	0	2.17223e-035	0	1	4	4
57	22.4711	0.0406342	0	0	2.17223e-035	0	1	4	4
60	22.6685	0.1161	0	0	2.17223e-035	0	1	4	4
57	22.8659	0.0754642	0	0	2.17223e-035	0	1	4	4
59	23.0516	0.0812702	0	0	2.17223e-035	0	1	4	4
58	23.2838	0.0464401	0	0	2.17223e-035	0	1	4	4
57	23.3302	0.0812683	0	0	2.17223e-035	0	1	4	4
56	23.4115	0.12771	0	0	2.17223e-035	0	1	4	4
54	23.6902	0.0232201	0	0	2.17223e-035	0	1	4	4
60	23.7366	0.0464382	0	0	2.17223e-035	0	1	4	4
62	23.783	0.0812702	0	0	2.17223e-035	0	1	4	4
63	24.0385	0.0986843	0	0	2.17223e-035	0	1	4	4
61	24.1371	0.0638542	0	0	2.17223e-035	0	1	4	4
61	24.6654	0.0870762	0	0	2.17223e-035	0	1	4	4
63	24.7699	0.0348301	0	0	2.17223e-035	0	1	4	4
62	24.8395	0.238005	0	0	2.17223e-035	0	1	4	4
61	25.1937	0.121904	0	0	2.17223e-035	0	1	4	4
64	25.6522	0.0580502	0	0	2.17223e-035	0	1	4	4
61	25.7916	0.214785	0	0	2.17223e-035	0	1	4	4
59	26.0063	0.127708	0	0	2.17223e-035	0	1	4	4
59	26.1863	0.104488	0	0	2.17223e-035	0	1	4	4
59	26.343	0.145124	0	0	2.17223e-035	0	1	4	4
60	27.9742	0.0986862	0	0	2.17223e-035	0	1	4	4
58	28.578	0.145124	0	0	2.17223e-035	0	1	4	4
61	28.7231	0.12771	0	0	2.17223e-035	0	1	4	4
59	29.3326	0.12771	0	0	2.17223e-035	0	1	4	4
60	29.4603	0.110294	0	0	2.17223e-035	0	1	4	4
