midiPitch 	 onsetSec 	 durationSec 	 onsetBeats 	 onsetBarIndex 	 onsetBar 	 durationBeats 	 velocity  	 numerator 	 denominator 
57	0.406349	0.168345	0	0	3.02786e-035	0	1	4	4
57	0.574694	0.145125	0	0	3.02786e-035	0	1	4	4
57	0.952018	0.0464399	0	0	3.02786e-035	0	1	4	4
57	0.998458	0.145125	0	0	3.02786e-035	0	1	4	4
56	1.32934	0.0522449	0	0	3.02786e-035	0	1	4	4
57	1.38159	0.272834	0	0	3.02786e-035	0	1	4	4
55	1.96209	0.040635	0	0	3.02786e-035	0	1	4	4
56	2.00853	0.0812697	0	0	3.02786e-035	0	1	4	4
56	2.2059	0.179955	0	0	3.02786e-035	0	1	4	4
55	2.38585	0.203175	0	0	3.02786e-035	0	1	4	4
52	2.78639	0.307664	0	0	3.02786e-035	0	1	4	4
65	3.52943	0.0928798	0	0	3.02786e-035	0	1	4	4
64	3.73261	0.16254	0	0	3.02786e-035	0	1	4	4
64	4.00544	0.214785	0	0	3.02786e-035	0	1	4	4
65	4.35955	0.145125	0	0	3.02786e-035	0	1	4	4
65	4.58014	0.0928798	0	0	3.02786e-035	0	1	4	4
64	4.81814	0.22059	0	0	3.02786e-035	0	1	4	4
62	5.24771	0.278639	0	0	3.02786e-035	0	1	4	4
58	5.63664	0.179955	0	0	3.02786e-035	0	1	4	4
54	5.96753	0.0928798	0	0	3.02786e-035	0	1	4	4
64	6.281	0.19737	0	0	3.02786e-035	0	1	4	4
64	6.72798	0.156735	0	0	3.02786e-035	0	1	4	4
64	6.88472	0.0406346	0	0	3.02786e-035	0	1	4	4
64	6.92535	0.13932	0	0	3.02786e-035	0	1	4	4
64	7.06467	0.203175	0	0	3.02786e-035	0	1	4	4
66	7.26785	0.249615	0	0	3.02786e-035	0	1	4	4
64	7.65678	0.15093	0	0	3.02786e-035	0	1	4	4
64	7.80771	0.0986848	0	0	3.02786e-035	0	1	4	4
64	7.90639	0.0696597	0	0	3.02786e-035	0	1	4	4
63	7.97605	0.0232201	0	0	3.02786e-035	0	1	4	4
66	8.00508	0.18576	0	0	3.02786e-035	0	1	4	4
66	8.45206	0.0406351	0	0	3.02786e-035	0	1	4	4
65	8.66104	0.0754642	0	0	3.02786e-035	0	1	4	4
62	8.73651	0.145125	0	0	3.02786e-035	0	1	4	4
67	9.03837	0.0290251	0	0	3.02786e-035	0	1	4	4
66	9.079	0.0928793	0	0	3.02786e-035	0	1	4	4
64	9.58404	0.0580502	0	0	3.02786e-035	0	1	4	4
63	9.69433	0.156734	0	0	3.02786e-035	0	1	4	4
66	10.1065	0.139319	0	0	3.02786e-035	0	1	4	4
63	10.5883	0.0522451	0	0	3.02786e-035	0	1	4	4
64	10.6405	0.0232201	0	0	3.02786e-035	0	1	4	4
63	10.8031	0.10449	0	0	3.02786e-035	0	1	4	4
63	11.1978	0.0696602	0	0	3.02786e-035	0	1	4	4
65	11.4242	0.0638552	0	0	3.02786e-035	0	1	4	4
64	11.4939	0.272835	0	0	3.02786e-035	0	1	4	4
65	12.3124	0.0638552	0	0	3.02786e-035	0	1	4	4
67	12.382	0.104489	0	0	3.02786e-035	0	1	4	4
65	12.562	0.0870743	0	0	3.02786e-035	0	1	4	4
66	13.2296	0.16254	0	0	3.02786e-035	0	1	4	4
66	13.514	0.0290251	0	0	3.02786e-035	0	1	4	4
66	13.5488	0.0986843	0	0	3.02786e-035	0	1	4	4
65	13.8275	0.0870743	0	0	3.02786e-035	0	1	4	4
65	13.932	0.0812702	0	0	3.02786e-035	0	1	4	4
64	14.141	0.0580502	0	0	3.02786e-035	0	1	4	4
64	14.2164	0.272834	0	0	3.02786e-035	0	1	4	4
62	16.3294	0.226395	0	0	3.02786e-035	0	1	4	4
66	16.7764	0.121904	0	0	3.02786e-035	0	1	4	4
64	17.0609	0.145124	0	0	3.02786e-035	0	1	4	4
61	17.4614	0.307665	0	0	3.02786e-035	0	1	4	4
61	18.1116	0.0986843	0	0	3.02786e-035	0	1	4	4
63	18.4657	0.0406361	0	0	3.02786e-035	0	1	4	4
63	18.8082	0.354105	0	0	3.02786e-035	0	1	4	4
62	19.1623	0.400543	0	0	3.02786e-035	0	1	4	4
61	22.9819	0.17415	0	0	3.02786e-035	0	1	4	4
64	23.1967	0.191565	0	0	3.02786e-035	0	1	4	4
62	23.4173	0.168344	0	0	3.02786e-035	0	1	4	4
64	23.5857	0.226395	0	0	3.02786e-035	0	1	4	4
64	24.4738	0.412155	0	0	3.02786e-035	0	1	4	4
62	24.9266	0.0986843	0	0	3.02786e-035	0	1	4	4
63	25.0253	0.18576	0	0	3.02786e-035	0	1	4	4
64	25.5768	0.400543	0	0	3.02786e-035	0	1	4	4
64	25.9773	0.232201	0	0	3.02786e-035	0	1	4	4
62	26.2095	0.226395	0	0	3.02786e-035	0	1	4	4
65	26.6681	0.133514	0	0	3.02786e-035	0	1	4	4
62	26.8423	0.116098	0	0	3.02786e-035	0	1	4	4
64	27.0977	0.133514	0	0	3.02786e-035	0	1	4	4
64	27.4866	0.13932	0	0	3.02786e-035	0	1	4	4
67	28.578	0.139318	0	0	3.02786e-035	0	1	4	4
64	29.0017	0.208981	0	0	3.02786e-035	0	1	4	4
65	29.2107	0.191565	0	0	3.02786e-035	0	1	4	4
