midiPitch 	 onsetSec 	 durationSec 	 onsetBeats 	 onsetBarIndex 	 onsetBar 	 durationBeats 	 velocity  	 numerator 	 denominator 
55	3.20435	0.168345	0	0	3.70482e-035	0	1	4	4
56	3.46558	0.0522449	0	0	3.70482e-035	0	1	4	4
57	3.62812	0.336689	0	0	3.70482e-035	0	1	4	4
57	4.93424	0.17415	0	0	3.70482e-035	0	1	4	4
52	5.12	0.261224	0	0	3.70482e-035	0	1	4	4
55	5.38122	0.39474	0	0	3.70482e-035	0	1	4	4
56	5.77596	0.139319	0	0	3.70482e-035	0	1	4	4
60	7.02984	0.319274	0	0	3.70482e-035	0	1	4	4
56	7.4478	0.10449	0	0	3.70482e-035	0	1	4	4
68	7.55229	0.0290251	0	0	3.70482e-035	0	1	4	4
55	7.56971	0.0986848	0	0	3.70482e-035	0	1	4	4
57	7.86576	0.563084	0	0	3.70482e-035	0	1	4	4
57	8.75392	0.168344	0	0	3.70482e-035	0	1	4	4
60	10.0136	0.156734	0	0	3.70482e-035	0	1	4	4
56	10.1994	0.0870752	0	0	3.70482e-035	0	1	4	4
60	10.4374	0.203175	0	0	3.70482e-035	0	1	4	4
56	10.7915	0.307665	0	0	3.70482e-035	0	1	4	4
56	11.2268	0.191565	0	0	3.70482e-035	0	1	4	4
56	11.6448	0.22059	0	0	3.70482e-035	0	1	4	4
56	12.4807	0.261225	0	0	3.70482e-035	0	1	4	4
50	12.742	0.150929	0	0	3.70482e-035	0	1	4	4
49	12.8929	0.110295	0	0	3.70482e-035	0	1	4	4
48	13.0961	0.139319	0	0	3.70482e-035	0	1	4	4
51	13.2354	0.429569	0	0	3.70482e-035	0	1	4	4
51	13.7346	0.191565	0	0	3.70482e-035	0	1	4	4
55	16.6371	0.17415	0	0	3.70482e-035	0	1	4	4
55	17.0493	0.0406342	0	0	3.70482e-035	0	1	4	4
57	17.0957	0.208979	0	0	3.70482e-035	0	1	4	4
57	18.3205	0.156734	0	0	3.70482e-035	0	1	4	4
52	18.4773	0.1161	0	0	3.70482e-035	0	1	4	4
55	18.7095	0.505033	0	0	3.70482e-035	0	1	4	4
60	20.0678	0.133514	0	0	3.70482e-035	0	1	4	4
56	20.2652	0.0580502	0	0	3.70482e-035	0	1	4	4
60	20.4219	0.243811	0	0	3.70482e-035	0	1	4	4
56	20.7296	0.876553	0	0	3.70482e-035	0	1	4	4
57	21.6062	0.203175	0	0	3.70482e-035	0	1	4	4
57	22.059	0.261225	0	0	3.70482e-035	0	1	4	4
60	23.3244	0.0928802	0	0	3.70482e-035	0	1	4	4
61	23.7308	0.272835	0	0	3.70482e-035	0	1	4	4
52	24.2474	0.0696602	0	0	3.70482e-035	0	1	4	4
51	24.3171	0.0406361	0	0	3.70482e-035	0	1	4	4
57	24.5087	0.17415	0	0	3.70482e-035	0	1	4	4
56	25.7858	0.203175	0	0	3.70482e-035	0	1	4	4
53	25.9889	0.0522442	0	0	3.70482e-035	0	1	4	4
51	27.0454	0.191565	0	0	3.70482e-035	0	1	4	4
54	29.112	0.0232201	0	0	3.70482e-035	0	1	4	4
54	29.141	0.12771	0	0	3.70482e-035	0	1	4	4
