midiPitch 	 onsetSec 	 durationSec 	 onsetBeats 	 onsetBarIndex 	 onsetBar 	 durationBeats 	 velocity  	 numerator 	 denominator 
77	0.348299	0.0232199	0	0	3.59219e-035	0	1	4	4
79	0.470204	0.0406349	0	0	3.59219e-035	0	1	4	4
79	0.516644	0.0638549	0	0	3.59219e-035	0	1	4	4
79	0.667574	0.0928798	0	0	3.59219e-035	0	1	4	4
78	0.824308	0.0812698	0	0	3.59219e-035	0	1	4	4
78	0.957823	0.052245	0	0	3.59219e-035	0	1	4	4
78	1.01007	0.0348299	0	0	3.59219e-035	0	1	4	4
83	1.14358	0.0522449	0	0	3.59219e-035	0	1	4	4
83	1.20744	0.0406349	0	0	3.59219e-035	0	1	4	4
77	1.24807	0.029025	0	0	3.59219e-035	0	1	4	4
77	1.2829	0.0232199	0	0	3.59219e-035	0	1	4	4
76	1.31193	0.0754648	0	0	3.59219e-035	0	1	4	4
78	1.54413	0.0406349	0	0	3.59219e-035	0	1	4	4
78	1.60798	0.0232199	0	0	3.59219e-035	0	1	4	4
78	1.63701	0.040635	0	0	3.59219e-035	0	1	4	4
83	4.48726	0.0464401	0	0	3.59219e-035	0	1	4	4
83	4.66141	0.0928798	0	0	3.59219e-035	0	1	4	4
81	4.7659	0.1161	0	0	3.59219e-035	0	1	4	4
72	4.92844	0.0232201	0	0	3.59219e-035	0	1	4	4
81	4.95746	0.0522447	0	0	3.59219e-035	0	1	4	4
83	5.19546	0.0406351	0	0	3.59219e-035	0	1	4	4
83	5.32317	0.0522451	0	0	3.59219e-035	0	1	4	4
83	5.48571	0.18576	0	0	3.59219e-035	0	1	4	4
83	5.67147	0.0232196	0	0	3.59219e-035	0	1	4	4
85	6.1707	0.0348296	0	0	3.59219e-035	0	1	4	4
78	6.21714	0.0406351	0	0	3.59219e-035	0	1	4	4
78	6.2868	0.0348296	0	0	3.59219e-035	0	1	4	4
86	6.33905	0.0580502	0	0	3.59219e-035	0	1	4	4
86	6.44354	0.0290251	0	0	3.59219e-035	0	1	4	4
79	6.47256	0.0348301	0	0	3.59219e-035	0	1	4	4
79	6.52481	0.0638552	0	0	3.59219e-035	0	1	4	4
79	6.75701	0.0406351	0	0	3.59219e-035	0	1	4	4
78	6.79764	0.110295	0	0	3.59219e-035	0	1	4	4
78	6.91374	0.0290246	0	0	3.59219e-035	0	1	4	4
78	7.07628	0.0986848	0	0	3.59219e-035	0	1	4	4
79	7.24463	0.0870748	0	0	3.59219e-035	0	1	4	4
79	7.37814	0.0290251	0	0	3.59219e-035	0	1	4	4
78	7.41297	0.0406346	0	0	3.59219e-035	0	1	4	4
78	7.49424	0.0406346	0	0	3.59219e-035	0	1	4	4
77	7.5639	0.0232201	0	0	3.59219e-035	0	1	4	4
77	7.59293	0.0290251	0	0	3.59219e-035	0	1	4	4
78	7.62195	0.0290246	0	0	3.59219e-035	0	1	4	4
77	7.65678	0.0232201	0	0	3.59219e-035	0	1	4	4
77	7.70902	0.121905	0	0	3.59219e-035	0	1	4	4
78	7.83093	0.0232196	0	0	3.59219e-035	0	1	4	4
84	10.3155	0.0348301	0	0	3.59219e-035	0	1	4	4
84	10.3561	0.0232201	0	0	3.59219e-035	0	1	4	4
83	10.4548	0.104489	0	0	3.59219e-035	0	1	4	4
83	10.5593	0.0638552	0	0	3.59219e-035	0	1	4	4
83	11.0875	0.0464401	0	0	3.59219e-035	0	1	4	4
83	11.134	0.0406342	0	0	3.59219e-035	0	1	4	4
83	11.2268	0.0232201	0	0	3.59219e-035	0	1	4	4
83	11.3197	0.0928793	0	0	3.59219e-035	0	1	4	4
84	11.8364	0.0290251	0	0	3.59219e-035	0	1	4	4
83	11.8712	0.0348301	0	0	3.59219e-035	0	1	4	4
83	11.9351	0.0522451	0	0	3.59219e-035	0	1	4	4
83	11.9873	0.0580492	0	0	3.59219e-035	0	1	4	4
84	12.5214	0.0464401	0	0	3.59219e-035	0	1	4	4
83	12.6084	0.0638552	0	0	3.59219e-035	0	1	4	4
83	12.6723	0.139319	0	0	3.59219e-035	0	1	4	4
83	12.8116	0.110295	0	0	3.59219e-035	0	1	4	4
83	12.9219	0.0348301	0	0	3.59219e-035	0	1	4	4
79	13.305	0.0406351	0	0	3.59219e-035	0	1	4	4
78	13.3515	0.0348301	0	0	3.59219e-035	0	1	4	4
83	13.3863	0.0232201	0	0	3.59219e-035	0	1	4	4
79	13.4095	0.0348291	0	0	3.59219e-035	0	1	4	4
79	13.4908	0.0754652	0	0	3.59219e-035	0	1	4	4
79	16.4862	0.0522442	0	0	3.59219e-035	0	1	4	4
86	16.5384	0.0232201	0	0	3.59219e-035	0	1	4	4
80	16.5616	0.0638542	0	0	3.59219e-035	0	1	4	4
52	17.5543	0.243811	0	0	3.59219e-035	0	1	4	4
54	17.9432	0.121904	0	0	3.59219e-035	0	1	4	4
54	18.2102	0.528254	0	0	3.59219e-035	0	1	4	4
53	18.7385	0.110296	0	0	3.59219e-035	0	1	4	4
54	19.348	0.0870762	0	0	3.59219e-035	0	1	4	4
54	21.165	0.325081	0	0	3.59219e-035	0	1	4	4
51	22.7556	0.0638561	0	0	3.59219e-035	0	1	4	4
50	22.8194	0.0232201	0	0	3.59219e-035	0	1	4	4
50	22.8426	0.0348301	0	0	3.59219e-035	0	1	4	4
81	22.8368	0.0696602	0	0	3.59219e-035	0	1	4	4
74	23.458	0.121904	0	0	3.59219e-035	0	1	4	4
73	23.5799	0.029026	0	0	3.59219e-035	0	1	4	4
74	23.725	0.0812683	0	0	3.59219e-035	0	1	4	4
81	23.9107	0.029026	0	0	3.59219e-035	0	1	4	4
77	23.9398	0.0522442	0	0	3.59219e-035	0	1	4	4
81	23.992	0.0870743	0	0	3.59219e-035	0	1	4	4
73	24.2765	0.423763	0	0	3.59219e-035	0	1	4	4
77	24.7002	0.0522461	0	0	3.59219e-035	0	1	4	4
76	25.2053	0.0638542	0	0	3.59219e-035	0	1	4	4
76	25.2807	0.0580502	0	0	3.59219e-035	0	1	4	4
65	26.8074	0.139318	0	0	3.59219e-035	0	1	4	4
65	26.9874	0.121904	0	0	3.59219e-035	0	1	4	4
76	28.2645	0.0638542	0	0	3.59219e-035	0	1	4	4
76	28.6766	0.191565	0	0	3.59219e-035	0	1	4	4
75	28.8682	0.0754642	0	0	3.59219e-035	0	1	4	4
76	29.4023	0.168344	0	0	3.59219e-035	0	1	4	4
76	29.5706	0.0406342	0	0	3.59219e-035	0	1	4	4
