midiPitch 	 onsetSec 	 durationSec 	 onsetBeats 	 onsetBarIndex 	 onsetBar 	 durationBeats 	 velocity  	 numerator 	 denominator 
60	1.21905	0.04644	0	0	3.70459e-035	0	1	4	4
61	1.26549	0.0696598	0	0	3.70459e-035	0	1	4	4
59	1.36417	0.0232199	0	0	3.70459e-035	0	1	4	4
55	1.5151	0.0232199	0	0	3.70459e-035	0	1	4	4
54	1.54413	0.0348299	0	0	3.70459e-035	0	1	4	4
58	1.77052	0.0580499	0	0	3.70459e-035	0	1	4	4
56	1.82857	0.0464399	0	0	3.70459e-035	0	1	4	4
53	2.22912	0.0522449	0	0	3.70459e-035	0	1	4	4
52	2.28136	0.0406351	0	0	3.70459e-035	0	1	4	4
51	2.322	0.0232198	0	0	3.70459e-035	0	1	4	4
62	3.19274	0.0232198	0	0	3.70459e-035	0	1	4	4
75	3.21596	0.0638549	0	0	3.70459e-035	0	1	4	4
72	3.27982	0.16254	0	0	3.70459e-035	0	1	4	4
73	3.66295	0.0290248	0	0	3.70459e-035	0	1	4	4
73	3.69778	0.0928798	0	0	3.70459e-035	0	1	4	4
73	3.85451	0.0406349	0	0	3.70459e-035	0	1	4	4
71	4.67302	0.0464401	0	0	3.70459e-035	0	1	4	4
67	5.31156	0.133515	0	0	3.70459e-035	0	1	4	4
69	5.85723	0.0638547	0	0	3.70459e-035	0	1	4	4
68	5.92109	0.0348301	0	0	3.70459e-035	0	1	4	4
69	6.38549	0.0348296	0	0	3.70459e-035	0	1	4	4
72	6.42032	0.0638552	0	0	3.70459e-035	0	1	4	4
74	6.48417	0.0870748	0	0	3.70459e-035	0	1	4	4
73	6.57125	0.0812697	0	0	3.70459e-035	0	1	4	4
66	7.73224	0.0928798	0	0	3.70459e-035	0	1	4	4
68	7.87737	0.121905	0	0	3.70459e-035	0	1	4	4
75	8.22567	0.150929	0	0	3.70459e-035	0	1	4	4
76	8.48109	0.0696592	0	0	3.70459e-035	0	1	4	4
70	8.74231	0.0232201	0	0	3.70459e-035	0	1	4	4
71	8.78295	0.0464401	0	0	3.70459e-035	0	1	4	4
75	8.82939	0.0232201	0	0	3.70459e-035	0	1	4	4
75	8.85261	0.0406351	0	0	3.70459e-035	0	1	4	4
76	8.89905	0.0232191	0	0	3.70459e-035	0	1	4	4
74	9.03256	0.0580502	0	0	3.70459e-035	0	1	4	4
74	9.09061	0.116099	0	0	3.70459e-035	0	1	4	4
73	9.22413	0.116099	0	0	3.70459e-035	0	1	4	4
76	9.34023	0.0638552	0	0	3.70459e-035	0	1	4	4
70	9.7756	0.0812702	0	0	3.70459e-035	0	1	4	4
73	10.1878	0.0638552	0	0	3.70459e-035	0	1	4	4
82	10.8089	0.0348301	0	0	3.70459e-035	0	1	4	4
72	10.8437	0.0406351	0	0	3.70459e-035	0	1	4	4
73	10.9018	0.0232201	0	0	3.70459e-035	0	1	4	4
73	10.9308	0.0348301	0	0	3.70459e-035	0	1	4	4
76	10.9946	0.17415	0	0	3.70459e-035	0	1	4	4
76	11.1688	0.0928793	0	0	3.70459e-035	0	1	4	4
74	11.2791	0.156734	0	0	3.70459e-035	0	1	4	4
77	11.4358	0.22059	0	0	3.70459e-035	0	1	4	4
73	12.0686	0.0406351	0	0	3.70459e-035	0	1	4	4
77	12.2892	0.0232201	0	0	3.70459e-035	0	1	4	4
66	12.6839	0.0522451	0	0	3.70459e-035	0	1	4	4
73	12.9161	0.0464401	0	0	3.70459e-035	0	1	4	4
73	13.305	0.0232201	0	0	3.70459e-035	0	1	4	4
72	13.3631	0.0464401	0	0	3.70459e-035	0	1	4	4
86	13.5546	0.0522451	0	0	3.70459e-035	0	1	4	4
86	13.6824	0.0464401	0	0	3.70459e-035	0	1	4	4
69	13.8333	0.0928793	0	0	3.70459e-035	0	1	4	4
72	13.9436	0.0290251	0	0	3.70459e-035	0	1	4	4
77	14.0655	0.0696602	0	0	3.70459e-035	0	1	4	4
73	14.9304	0.0348301	0	0	3.70459e-035	0	1	4	4
71	14.9653	0.0348301	0	0	3.70459e-035	0	1	4	4
73	15.0349	0.0348291	0	0	3.70459e-035	0	1	4	4
75	15.0697	0.0870752	0	0	3.70459e-035	0	1	4	4
73	15.3426	0.0232201	0	0	3.70459e-035	0	1	4	4
74	15.3716	0.0464401	0	0	3.70459e-035	0	1	4	4
72	15.4645	0.0348291	0	0	3.70459e-035	0	1	4	4
72	15.5051	0.0754652	0	0	3.70459e-035	0	1	4	4
72	15.5864	0.0696602	0	0	3.70459e-035	0	1	4	4
71	16.0276	0.0754662	0	0	3.70459e-035	0	1	4	4
73	16.312	0.0696602	0	0	3.70459e-035	0	1	4	4
69	16.4049	0.0232201	0	0	3.70459e-035	0	1	4	4
67	16.8925	0.0406342	0	0	3.70459e-035	0	1	4	4
71	16.9448	0.0406361	0	0	3.70459e-035	0	1	4	4
73	16.9854	0.0348282	0	0	3.70459e-035	0	1	4	4
72	17.3511	0.0232201	0	0	3.70459e-035	0	1	4	4
76	17.3743	0.1161	0	0	3.70459e-035	0	1	4	4
81	17.653	0.0348301	0	0	3.70459e-035	0	1	4	4
71	18.1928	0.0232201	0	0	3.70459e-035	0	1	4	4
67	18.3902	0.0986843	0	0	3.70459e-035	0	1	4	4
73	18.9997	0.0986843	0	0	3.70459e-035	0	1	4	4
74	19.1158	0.0928802	0	0	3.70459e-035	0	1	4	4
81	20.004	0.12771	0	0	3.70459e-035	0	1	4	4
66	20.1317	0.0464401	0	0	3.70459e-035	0	1	4	4
76	20.7064	0.0232201	0	0	3.70459e-035	0	1	4	4
61	20.8922	0.0928783	0	0	3.70459e-035	0	1	4	4
71	20.985	0.0464401	0	0	3.70459e-035	0	1	4	4
70	21.0315	0.0754662	0	0	3.70459e-035	0	1	4	4
70	21.4146	0.029026	0	0	3.70459e-035	0	1	4	4
70	21.461	0.0464401	0	0	3.70459e-035	0	1	4	4
72	21.5249	0.0406361	0	0	3.70459e-035	0	1	4	4
81	22.4711	0.0406342	0	0	3.70459e-035	0	1	4	4
76	22.5292	0.0232182	0	0	3.70459e-035	0	1	4	4
80	22.5582	0.0290241	0	0	3.70459e-035	0	1	4	4
69	22.9994	0.0812702	0	0	3.70459e-035	0	1	4	4
68	23.0806	0.0232201	0	0	3.70459e-035	0	1	4	4
70	23.1271	0.0754642	0	0	3.70459e-035	0	1	4	4
73	23.5799	0.0522461	0	0	3.70459e-035	0	1	4	4
79	24.1139	0.0348301	0	0	3.70459e-035	0	1	4	4
72	24.4912	0.116098	0	0	3.70459e-035	0	1	4	4
81	24.6944	0.0696602	0	0	3.70459e-035	0	1	4	4
73	25.0427	0.0406342	0	0	3.70459e-035	0	1	4	4
77	25.0834	0.0348301	0	0	3.70459e-035	0	1	4	4
72	25.1182	0.0406361	0	0	3.70459e-035	0	1	4	4
68	25.5768	0.0754642	0	0	3.70459e-035	0	1	4	4
68	25.6522	0.0928802	0	0	3.70459e-035	0	1	4	4
55	26.2792	0.0580502	0	0	3.70459e-035	0	1	4	4
52	27.0571	0.0986862	0	0	3.70459e-035	0	1	4	4
51	27.179	0.116098	0	0	3.70459e-035	0	1	4	4
