midiPitch 	 onsetSec 	 durationSec 	 onsetBeats 	 onsetBarIndex 	 onsetBar 	 durationBeats 	 velocity  	 numerator 	 denominator 
69	2.2117	0.10449	0	0	3.89259e-035	0	1	4	4
70	2.31619	0.0580499	0	0	3.89259e-035	0	1	4	4
71	2.46712	0.0754647	0	0	3.89259e-035	0	1	4	4
71	2.54839	0.0580499	0	0	3.89259e-035	0	1	4	4
71	2.60644	0.15093	0	0	3.89259e-035	0	1	4	4
71	2.75737	0.075465	0	0	3.89259e-035	0	1	4	4
71	2.83283	0.0928798	0	0	3.89259e-035	0	1	4	4
69	3.00698	0.412154	0	0	3.89259e-035	0	1	4	4
69	3.41914	0.0348301	0	0	3.89259e-035	0	1	4	4
66	3.66875	0.16254	0	0	3.89259e-035	0	1	4	4
67	3.83129	0.0232201	0	0	3.89259e-035	0	1	4	4
68	3.86032	0.203174	0	0	3.89259e-035	0	1	4	4
66	4.81814	0.383129	0	0	3.89259e-035	0	1	4	4
66	5.20127	0.25542	0	0	3.89259e-035	0	1	4	4
66	5.45669	0.17415	0	0	3.89259e-035	0	1	4	4
70	6.08363	0.0348296	0	0	3.89259e-035	0	1	4	4
71	6.11846	0.0870748	0	0	3.89259e-035	0	1	4	4
69	6.20553	0.0232201	0	0	3.89259e-035	0	1	4	4
71	6.22875	0.226395	0	0	3.89259e-035	0	1	4	4
70	6.47256	0.0870748	0	0	3.89259e-035	0	1	4	4
70	6.55964	0.0348301	0	0	3.89259e-035	0	1	4	4
71	6.60027	0.150929	0	0	3.89259e-035	0	1	4	4
70	6.7512	0.0754647	0	0	3.89259e-035	0	1	4	4
69	6.82667	0.441179	0	0	3.89259e-035	0	1	4	4
66	7.40136	0.214785	0	0	3.89259e-035	0	1	4	4
66	7.63936	0.0754652	0	0	3.89259e-035	0	1	4	4
66	7.71483	0.156734	0	0	3.89259e-035	0	1	4	4
66	7.87156	0.22059	0	0	3.89259e-035	0	1	4	4
64	8.19084	0.20898	0	0	3.89259e-035	0	1	4	4
64	8.71909	0.24381	0	0	3.89259e-035	0	1	4	4
61	9.03837	0.24381	0	0	3.89259e-035	0	1	4	4
61	9.28218	0.539864	0	0	3.89259e-035	0	1	4	4
61	9.82204	0.20898	0	0	3.89259e-035	0	1	4	4
59	11.192	0.12771	0	0	3.89259e-035	0	1	4	4
59	11.3197	0.121904	0	0	3.89259e-035	0	1	4	4
59	11.4416	0.203175	0	0	3.89259e-035	0	1	4	4
63	12.2892	0.2322	0	0	3.89259e-035	0	1	4	4
62	12.8116	0.110295	0	0	3.89259e-035	0	1	4	4
62	12.9219	0.17415	0	0	3.89259e-035	0	1	4	4
58	13.3399	0.121904	0	0	3.89259e-035	0	1	4	4
59	13.485	0.319275	0	0	3.89259e-035	0	1	4	4
57	14.1293	0.0406351	0	0	3.89259e-035	0	1	4	4
57	14.1758	0.0290251	0	0	3.89259e-035	0	1	4	4
59	14.2454	0.156734	0	0	3.89259e-035	0	1	4	4
59	14.4022	0.563084	0	0	3.89259e-035	0	1	4	4
58	23.5624	0.10449	0	0	3.89259e-035	0	1	4	4
59	23.6669	0.325079	0	0	3.89259e-035	0	1	4	4
63	24.1255	0.0348301	0	0	3.89259e-035	0	1	4	4
66	24.1662	0.214785	0	0	3.89259e-035	0	1	4	4
65	24.381	0.0464382	0	0	3.89259e-035	0	1	4	4
66	24.5493	0.220589	0	0	3.89259e-035	0	1	4	4
66	24.7989	0.0696583	0	0	3.89259e-035	0	1	4	4
66	24.8686	0.0464401	0	0	3.89259e-035	0	1	4	4
61	25.2459	0.238005	0	0	3.89259e-035	0	1	4	4
62	25.4839	0.278639	0	0	3.89259e-035	0	1	4	4
62	25.8612	0.0406361	0	0	3.89259e-035	0	1	4	4
59	26.1166	0.243809	0	0	3.89259e-035	0	1	4	4
67	27.9452	0.191565	0	0	3.89259e-035	0	1	4	4
67	28.1368	0.0290241	0	0	3.89259e-035	0	1	4	4
70	28.2703	0.121904	0	0	3.89259e-035	0	1	4	4
70	28.5373	0.110296	0	0	3.89259e-035	0	1	4	4
71	28.6476	0.342493	0	0	3.89259e-035	0	1	4	4
