midiPitch 	 onsetSec 	 durationSec 	 onsetBeats 	 onsetBarIndex 	 onsetBar 	 durationBeats 	 velocity  	 numerator 	 denominator 
82	0.336689	0.029025	0	0	3.83616e-035	0	1	4	4
82	0.417959	0.0348299	0	0	3.83616e-035	0	1	4	4
82	0.516644	0.0580499	0	0	3.83616e-035	0	1	4	4
83	0.690794	0.0638549	0	0	3.83616e-035	0	1	4	4
82	0.876553	0.0232199	0	0	3.83616e-035	0	1	4	4
78	0.911383	0.0348299	0	0	3.83616e-035	0	1	4	4
78	1.21905	0.029025	0	0	3.83616e-035	0	1	4	4
78	1.27129	0.029025	0	0	3.83616e-035	0	1	4	4
79	1.30612	0.03483	0	0	3.83616e-035	0	1	4	4
78	1.36417	0.0232199	0	0	3.83616e-035	0	1	4	4
78	1.46866	0.0406349	0	0	3.83616e-035	0	1	4	4
79	1.52671	0.040635	0	0	3.83616e-035	0	1	4	4
79	1.60218	0.0696599	0	0	3.83616e-035	0	1	4	4
79	1.78794	0.03483	0	0	3.83616e-035	0	1	4	4
79	1.87501	0.0348299	0	0	3.83616e-035	0	1	4	4
79	1.94467	0.0232199	0	0	3.83616e-035	0	1	4	4
79	1.98531	0.121905	0	0	3.83616e-035	0	1	4	4
60	2.30458	0.075465	0	0	3.83616e-035	0	1	4	4
68	2.47293	0.232199	0	0	3.83616e-035	0	1	4	4
68	2.70512	0.0522449	0	0	3.83616e-035	0	1	4	4
63	2.75737	0.0232201	0	0	3.83616e-035	0	1	4	4
67	2.83283	0.0232198	0	0	3.83616e-035	0	1	4	4
67	2.9141	0.0522449	0	0	3.83616e-035	0	1	4	4
67	2.98957	0.238004	0	0	3.83616e-035	0	1	4	4
67	3.22757	0.075465	0	0	3.83616e-035	0	1	4	4
63	3.30304	0.17415	0	0	3.83616e-035	0	1	4	4
63	3.52363	0.08127	0	0	3.83616e-035	0	1	4	4
63	3.6049	0.0928798	0	0	3.83616e-035	0	1	4	4
63	3.73261	0.0290251	0	0	3.83616e-035	0	1	4	4
62	3.81968	0.0406351	0	0	3.83616e-035	0	1	4	4
62	3.86032	0.0232198	0	0	3.83616e-035	0	1	4	4
62	3.88934	0.0290251	0	0	3.83616e-035	0	1	4	4
62	3.92998	0.0580499	0	0	3.83616e-035	0	1	4	4
63	3.98803	0.0290251	0	0	3.83616e-035	0	1	4	4
62	4.05769	0.1161	0	0	3.83616e-035	0	1	4	4
63	4.58594	0.0406351	0	0	3.83616e-035	0	1	4	4
59	4.63238	0.0348296	0	0	3.83616e-035	0	1	4	4
61	4.71365	0.0696597	0	0	3.83616e-035	0	1	4	4
62	4.95166	0.0754647	0	0	3.83616e-035	0	1	4	4
62	5.02712	0.0232201	0	0	3.83616e-035	0	1	4	4
62	5.07356	0.0986853	0	0	3.83616e-035	0	1	4	4
59	5.17225	0.0406346	0	0	3.83616e-035	0	1	4	4
62	5.21288	0.15093	0	0	3.83616e-035	0	1	4	4
60	5.50893	0.0406351	0	0	3.83616e-035	0	1	4	4
60	5.55537	0.272834	0	0	3.83616e-035	0	1	4	4
60	5.82821	0.0754647	0	0	3.83616e-035	0	1	4	4
60	5.9327	0.0928798	0	0	3.83616e-035	0	1	4	4
63	6.61769	0.0928802	0	0	3.83616e-035	0	1	4	4
62	6.89052	0.0406346	0	0	3.83616e-035	0	1	4	4
62	6.94857	0.145125	0	0	3.83616e-035	0	1	4	4
60	7.14594	0.0870748	0	0	3.83616e-035	0	1	4	4
60	7.23302	0.0406351	0	0	3.83616e-035	0	1	4	4
60	7.34912	0.0754652	0	0	3.83616e-035	0	1	4	4
60	7.43619	0.12771	0	0	3.83616e-035	0	1	4	4
58	7.66839	0.0232201	0	0	3.83616e-035	0	1	4	4
58	7.69161	0.0348301	0	0	3.83616e-035	0	1	4	4
58	7.73224	0.0348296	0	0	3.83616e-035	0	1	4	4
65	7.78449	0.168344	0	0	3.83616e-035	0	1	4	4
58	7.96444	0.0580502	0	0	3.83616e-035	0	1	4	4
58	8.04571	0.0406351	0	0	3.83616e-035	0	1	4	4
58	8.08635	0.0464392	0	0	3.83616e-035	0	1	4	4
60	8.27211	0.0290251	0	0	3.83616e-035	0	1	4	4
60	8.32435	0.0348301	0	0	3.83616e-035	0	1	4	4
60	8.35918	0.0348301	0	0	3.83616e-035	0	1	4	4
60	8.39982	0.0464401	0	0	3.83616e-035	0	1	4	4
60	8.44626	0.0812693	0	0	3.83616e-035	0	1	4	4
58	8.64363	0.0696592	0	0	3.83616e-035	0	1	4	4
63	8.71329	0.0406351	0	0	3.83616e-035	0	1	4	4
60	8.98612	0.0290251	0	0	3.83616e-035	0	1	4	4
60	9.01515	0.0464401	0	0	3.83616e-035	0	1	4	4
60	9.21252	0.0290251	0	0	3.83616e-035	0	1	4	4
57	9.3054	0.0232191	0	0	3.83616e-035	0	1	4	4
60	9.38667	0.0232201	0	0	3.83616e-035	0	1	4	4
62	9.45633	0.0232201	0	0	3.83616e-035	0	1	4	4
62	9.63048	0.0696602	0	0	3.83616e-035	0	1	4	4
63	9.96716	0.0290251	0	0	3.83616e-035	0	1	4	4
63	9.99619	0.0638552	0	0	3.83616e-035	0	1	4	4
63	10.1239	0.0232191	0	0	3.83616e-035	0	1	4	4
63	10.1703	0.0232201	0	0	3.83616e-035	0	1	4	4
63	10.3909	0.0348301	0	0	3.83616e-035	0	1	4	4
63	10.5012	0.0232201	0	0	3.83616e-035	0	1	4	4
63	10.5883	0.0406351	0	0	3.83616e-035	0	1	4	4
63	10.6347	0.0406351	0	0	3.83616e-035	0	1	4	4
63	10.6812	0.0638552	0	0	3.83616e-035	0	1	4	4
63	10.8495	0.0870752	0	0	3.83616e-035	0	1	4	4
63	10.9366	0.0696592	0	0	3.83616e-035	0	1	4	4
63	11.5171	0.0464401	0	0	3.83616e-035	0	1	4	4
67	11.7667	0.116099	0	0	3.83616e-035	0	1	4	4
63	11.906	0.0522451	0	0	3.83616e-035	0	1	4	4
63	11.9583	0.0348291	0	0	3.83616e-035	0	1	4	4
63	12.0105	0.203175	0	0	3.83616e-035	0	1	4	4
62	12.2717	0.0406351	0	0	3.83616e-035	0	1	4	4
62	12.3646	0.0406342	0	0	3.83616e-035	0	1	4	4
62	12.4053	0.0348301	0	0	3.83616e-035	0	1	4	4
62	12.4459	0.0522451	0	0	3.83616e-035	0	1	4	4
60	12.9103	0.0348301	0	0	3.83616e-035	0	1	4	4
59	12.98	0.0290251	0	0	3.83616e-035	0	1	4	4
59	13.009	0.0348291	0	0	3.83616e-035	0	1	4	4
60	13.0438	0.0232201	0	0	3.83616e-035	0	1	4	4
60	13.0902	0.0522451	0	0	3.83616e-035	0	1	4	4
59	13.5546	0.0406351	0	0	3.83616e-035	0	1	4	4
62	13.5953	0.0406342	0	0	3.83616e-035	0	1	4	4
62	13.6475	0.110295	0	0	3.83616e-035	0	1	4	4
62	13.7578	0.0522451	0	0	3.83616e-035	0	1	4	4
62	13.8101	0.0232201	0	0	3.83616e-035	0	1	4	4
60	14.1293	0.0290251	0	0	3.83616e-035	0	1	4	4
60	14.1584	0.0290251	0	0	3.83616e-035	0	1	4	4
59	14.2164	0.0928793	0	0	3.83616e-035	0	1	4	4
60	14.3093	0.13932	0	0	3.83616e-035	0	1	4	4
59	14.4486	0.0290241	0	0	3.83616e-035	0	1	4	4
60	14.5183	0.0406351	0	0	3.83616e-035	0	1	4	4
60	14.5589	0.0348301	0	0	3.83616e-035	0	1	4	4
60	14.6808	0.0290251	0	0	3.83616e-035	0	1	4	4
60	14.7156	0.150929	0	0	3.83616e-035	0	1	4	4
60	14.8666	0.0754652	0	0	3.83616e-035	0	1	4	4
60	14.942	0.0406351	0	0	3.83616e-035	0	1	4	4
60	14.9885	0.104489	0	0	3.83616e-035	0	1	4	4
60	15.093	0.0522451	0	0	3.83616e-035	0	1	4	4
60	15.1859	0.0406351	0	0	3.83616e-035	0	1	4	4
60	15.2613	0.179955	0	0	3.83616e-035	0	1	4	4
60	15.4413	0.0348291	0	0	3.83616e-035	0	1	4	4
60	15.5167	0.0406351	0	0	3.83616e-035	0	1	4	4
60	15.5632	0.0406351	0	0	3.83616e-035	0	1	4	4
60	15.6328	0.0290251	0	0	3.83616e-035	0	1	4	4
60	15.6793	0.0348291	0	0	3.83616e-035	0	1	4	4
60	15.7199	0.156735	0	0	3.83616e-035	0	1	4	4
48	16.2656	0.133514	0	0	3.83616e-035	0	1	4	4
48	16.3991	0.214785	0	0	3.83616e-035	0	1	4	4
48	16.6371	0.191565	0	0	3.83616e-035	0	1	4	4
55	16.9738	0.406349	0	0	3.83616e-035	0	1	4	4
55	17.3801	0.667572	0	0	3.83616e-035	0	1	4	4
54	18.0477	0.15093	0	0	3.83616e-035	0	1	4	4
53	18.1986	0.243811	0	0	3.83616e-035	0	1	4	4
88138088	18.9997	0.319275	0	0	3.83616e-035	0	1	4	4
48	19.319	0.487619	0	0	3.83616e-035	0	1	4	4
47	20.213	0.121904	0	0	3.83616e-035	0	1	4	4
48	20.5729	0.12771	0	0	3.83616e-035	0	1	4	4
50	20.8167	0.0638561	0	0	3.83616e-035	0	1	4	4
52	21.0663	0.435375	0	0	3.83616e-035	0	1	4	4
54	21.6004	0.197369	0	0	3.83616e-035	0	1	4	4
54	21.9487	0.156734	0	0	3.83616e-035	0	1	4	4
56	22.1054	0.957823	0	0	3.83616e-035	0	1	4	4
46	23.6669	0.226395	0	0	3.83616e-035	0	1	4	4
48	23.8933	0.388933	0	0	3.83616e-035	0	1	4	4
49	24.2823	0.232201	0	0	3.83616e-035	0	1	4	4
55	24.7467	0.121904	0	0	3.83616e-035	0	1	4	4
56	24.9034	0.731428	0	0	3.83616e-035	0	1	4	4
54	25.6406	0.191565	0	0	3.83616e-035	0	1	4	4
52	25.8322	0.232199	0	0	3.83616e-035	0	1	4	4
57	26.0876	0.0754662	0	0	3.83616e-035	0	1	4	4
52	26.1631	0.0232201	0	0	3.83616e-035	0	1	4	4
51	26.1921	0.365715	0	0	3.83616e-035	0	1	4	4
48	26.6739	0.551476	0	0	3.83616e-035	0	1	4	4
48	27.8814	0.226395	0	0	3.83616e-035	0	1	4	4
50	28.1078	0.226395	0	0	3.83616e-035	0	1	4	4
51	28.5431	0.191565	0	0	3.83616e-035	0	1	4	4
53	28.874	0.127708	0	0	3.83616e-035	0	1	4	4
54	29.112	0.348301	0	0	3.83616e-035	0	1	4	4
55	29.4603	0.371519	0	0	3.83616e-035	0	1	4	4
