midiPitch 	 onsetSec 	 durationSec 	 onsetBeats 	 onsetBarIndex 	 onsetBar 	 durationBeats 	 velocity  	 numerator 	 denominator 
62	0.301859	0.12771	0	0	0	0	1	4	4
59	0.516644	0.179955	0	0	0	0	1	4	4
63	0.696599	0.290249	0	0	0	0	1	4	4
62	0.986848	0.708209	0	0	0	0	1	4	4
55	1.7473	1.13778	0	0	0	0	1	4	4
53	3.31465	0.0232201	0	0	0	0	1	4	4
53	3.33787	0.1161	0	0	0	0	1	4	4
55	3.50621	0.359909	0	0	0	0	1	4	4
57	3.86612	0.145125	0	0	0	0	1	4	4
59	4.01125	0.307664	0	0	0	0	1	4	4
57	4.46984	0.16254	0	0	0	0	1	4	4
54	4.63238	0.0290251	0	0	0	0	1	4	4
55	4.84136	0.365714	0	0	0	0	1	4	4
53	5.23029	0.0870748	0	0	0	0	1	4	4
52	5.31737	0.0348301	0	0	0	0	1	4	4
59	5.65986	0.290249	0	0	0	0	1	4	4
57	6.0488	0.121905	0	0	0	0	1	4	4
55	6.1707	0.301859	0	0	0	0	1	4	4
57	6.47256	0.325079	0	0	0	0	1	4	4
57	6.79764	0.139319	0	0	0	0	1	4	4
54	6.93696	0.16254	0	0	0	0	1	4	4
55	7.38975	0.261224	0	0	0	0	1	4	4
55	10.4722	0.156734	0	0	0	0	1	4	4
55	10.6522	0.0812702	0	0	0	0	1	4	4
55	10.7799	0.16254	0	0	0	0	1	4	4
55	11.2268	0.12771	0	0	0	0	1	4	4
55	12.382	0.116099	0	0	0	0	1	4	4
55	12.4981	0.110294	0	0	0	0	1	4	4
57	12.6084	0.17415	0	0	0	0	1	4	4
58	12.7826	0.104489	0	0	0	0	1	4	4
59	12.8871	0.20898	0	0	0	0	1	4	4
62	13.1541	0.377324	0	0	0	0	1	4	4
60	13.5779	0.116099	0	0	0	0	1	4	4
62	13.694	0.17415	0	0	0	0	1	4	4
62	13.8681	0.383129	0	0	0	0	1	4	4
62	14.2512	0.0870752	0	0	0	0	1	4	4
58	14.3964	0.145124	0	0	0	0	1	4	4
55	14.7563	0.0348301	0	0	0	0	1	4	4
55	14.7969	0.121904	0	0	0	0	1	4	4
55	14.9188	0.0580502	0	0	0	0	1	4	4
55	14.9769	0.534059	0	0	0	0	1	4	4
55	15.5109	0.394739	0	0	0	0	1	4	4
58	15.9057	0.0638552	0	0	0	0	1	4	4
58	15.9695	0.0348291	0	0	0	0	1	4	4
57	16.0102	0.0406342	0	0	0	0	1	4	4
59	16.1263	0.0638542	0	0	0	0	1	4	4
59	16.1901	0.0464401	0	0	0	0	1	4	4
59	16.2366	0.0406342	0	0	0	0	1	4	4
59	16.2772	0.0522461	0	0	0	0	1	4	4
58	16.3643	0.0464382	0	0	0	0	1	4	4
57	16.4107	0.1161	0	0	0	0	1	4	4
56	16.7822	0.0348282	0	0	0	0	1	4	4
55	16.8171	0.0812702	0	0	0	0	1	4	4
55	16.8983	0.0754662	0	0	0	0	1	4	4
55	16.9854	0.0232201	0	0	0	0	1	4	4
55	17.0086	0.0522442	0	0	0	0	1	4	4
55	17.1305	0.0232201	0	0	0	0	1	4	4
56	17.1712	0.0348301	0	0	0	0	1	4	4
55	17.264	0.0348301	0	0	0	0	1	4	4
55	17.3163	0.0986862	0	0	0	0	1	4	4
53	17.4382	0.0464401	0	0	0	0	1	4	4
55	17.4846	0.17415	0	0	0	0	1	4	4
55	17.6588	0.0580502	0	0	0	0	1	4	4
55	17.7168	0.162539	0	0	0	0	1	4	4
55	18.5644	0.145124	0	0	0	0	1	4	4
54	18.9127	0.0348301	0	0	0	0	1	4	4
58	18.9533	0.214785	0	0	0	0	1	4	4
58	19.1855	0.313469	0	0	0	0	1	4	4
58	19.499	0.267029	0	0	0	0	1	4	4
53	19.8995	0.029026	0	0	0	0	1	4	4
56	19.9285	0.0406342	0	0	0	0	1	4	4
55	20.004	0.0406361	0	0	0	0	1	4	4
55	20.0969	0.0406342	0	0	0	0	1	4	4
51	20.2594	0.139318	0	0	0	0	1	4	4
51	22.326	0.0290241	0	0	0	0	1	4	4
64	22.355	0.0812702	0	0	0	0	1	4	4
53	22.4421	0.0232201	0	0	0	0	1	4	4
55	22.4653	0.0348301	0	0	0	0	1	4	4
55	22.5292	0.0232182	0	0	0	0	1	4	4
55	22.6104	0.029026	0	0	0	0	1	4	4
55	22.6627	0.0348301	0	0	0	0	1	4	4
55	22.7962	0.179955	0	0	0	0	1	4	4
55	23.2083	0.0232201	0	0	0	0	1	4	4
55	23.3535	0.145124	0	0	0	0	1	4	4
55	23.5683	0.0348282	0	0	0	0	1	4	4
55	23.6205	0.0406342	0	0	0	0	1	4	4
55	23.6669	0.150928	0	0	0	0	1	4	4
55	23.9688	0.12771	0	0	0	0	1	4	4
55	24.0965	0.116098	0	0	0	0	1	4	4
55	24.9731	0.0870743	0	0	0	0	1	4	4
55	25.1414	0.0580502	0	0	0	0	1	4	4
59	25.1995	0.470203	0	0	0	0	1	4	4
62	25.7509	0.458595	0	0	0	0	1	4	4
60	26.3024	0.0986862	0	0	0	0	1	4	4
62	26.4011	0.400543	0	0	0	0	1	4	4
62	26.8016	0.0406361	0	0	0	0	1	4	4
62	26.8597	0.238005	0	0	0	0	1	4	4
60	27.0977	0.0232201	0	0	0	0	1	4	4
58	27.1383	0.0986862	0	0	0	0	1	4	4
55	27.3821	0.104488	0	0	0	0	1	4	4
55	27.504	0.772064	0	0	0	0	1	4	4
