midiPitch 	 onsetSec 	 durationSec 	 onsetBeats 	 onsetBarIndex 	 onsetBar 	 durationBeats 	 velocity  	 numerator 	 denominator 
73	0.255419	0.1161	0	0	0	0	1	4	4
68	0.510839	0.0348299	0	0	0	0	1	4	4
68	0.551474	0.0348299	0	0	0	0	1	4	4
73	0.586304	0.0522449	0	0	0	0	1	4	4
65	2.10141	0.0464399	0	0	0	0	1	4	4
60	2.20009	0.272835	0	0	0	0	1	4	4
61	2.51937	0.16254	0	0	0	0	1	4	4
60	5.06776	0.232199	0	0	0	0	1	4	4
60	5.42186	0.22059	0	0	0	0	1	4	4
60	5.71791	0.133515	0	0	0	0	1	4	4
60	5.85143	0.121905	0	0	0	0	1	4	4
62	5.97333	0.0638547	0	0	0	0	1	4	4
62	6.03719	0.191565	0	0	0	0	1	4	4
59	7.13433	0.145125	0	0	0	0	1	4	4
57	7.71483	0.203175	0	0	0	0	1	4	4
60	9.80463	0.476009	0	0	0	0	1	4	4
60	10.2806	0.238005	0	0	0	0	1	4	4
60	10.5361	0.319274	0	0	0	0	1	4	4
63	10.8902	0.116099	0	0	0	0	1	4	4
62	11.0063	0.3483	0	0	0	0	1	4	4
60	12.2659	0.319275	0	0	0	0	1	4	4
61	12.5852	0.0696592	0	0	0	0	1	4	4
63	12.7245	0.25542	0	0	0	0	1	4	4
63	12.98	0.249614	0	0	0	0	1	4	4
65	13.305	0.458594	0	0	0	0	1	4	4
60	14.466	0.17415	0	0	0	0	1	4	4
60	14.6402	0.0406342	0	0	0	0	1	4	4
60	14.6866	0.226395	0	0	0	0	1	4	4
62	14.913	0.15093	0	0	0	0	1	4	4
62	15.0639	0.18576	0	0	0	0	1	4	4
64	15.3136	0.214785	0	0	0	0	1	4	4
64	15.5283	0.307665	0	0	0	0	1	4	4
64	15.836	0.110294	0	0	0	0	1	4	4
60	16.6545	0.203175	0	0	0	0	1	4	4
61	16.8925	0.0638542	0	0	0	0	1	4	4
60	16.9564	0.0638542	0	0	0	0	1	4	4
61	17.0202	0.110296	0	0	0	0	1	4	4
63	17.3395	0.208981	0	0	0	0	1	4	4
65	17.5485	0.121904	0	0	0	0	1	4	4
65	17.8097	0.0696583	0	0	0	0	1	4	4
65	17.8794	0.67338	0	0	0	0	1	4	4
63	20.0156	0.0406361	0	0	0	0	1	4	4
64	20.0562	0.179955	0	0	0	0	1	4	4
64	20.2362	0.0290241	0	0	0	0	1	4	4
64	20.2884	0.179955	0	0	0	0	1	4	4
64	20.5729	0.0754642	0	0	0	0	1	4	4
64	20.6483	0.499229	0	0	0	0	1	4	4
64	22.2563	0.191565	0	0	0	0	1	4	4
64	22.564	0.203175	0	0	0	0	1	4	4
64	22.7672	0.121906	0	0	0	0	1	4	4
64	22.8891	0.208979	0	0	0	0	1	4	4
65	23.1735	0.121906	0	0	0	0	1	4	4
65	23.4405	0.464399	0	0	0	0	1	4	4
65	24.5145	0.0812702	0	0	0	0	1	4	4
65	24.7525	0.174149	0	0	0	0	1	4	4
65	25.2227	0.319275	0	0	0	0	1	4	4
66	26.7436	0.284445	0	0	0	0	1	4	4
66	27.028	0.261225	0	0	0	0	1	4	4
66	27.3531	0.0754662	0	0	0	0	1	4	4
66	27.4286	0.0580482	0	0	0	0	1	4	4
65	27.4866	0.16254	0	0	0	0	1	4	4
67	27.6492	0.493423	0	0	0	0	1	4	4
67	28.1774	0.261225	0	0	0	0	1	4	4
