midiPitch 	 onsetSec 	 durationSec 	 onsetBeats 	 onsetBarIndex 	 onsetBar 	 durationBeats 	 velocity  	 numerator 	 denominator 
62	0.609524	0.0406349	0	0	2.42591e-035	0	1	4	4
62	0.655964	0.133515	0	0	2.42591e-035	0	1	4	4
65	0.853333	0.0928798	0	0	2.42591e-035	0	1	4	4
66	1.1668	0.516644	0	0	2.42591e-035	0	1	4	4
66	1.75311	0.168345	0	0	2.42591e-035	0	1	4	4
61	1.98531	0.0406348	0	0	2.42591e-035	0	1	4	4
62	2.03175	0.075465	0	0	2.42591e-035	0	1	4	4
61	2.10721	0.470204	0	0	2.42591e-035	0	1	4	4
57	2.73995	0.238004	0	0	2.42591e-035	0	1	4	4
56	3.06503	0.2322	0	0	2.42591e-035	0	1	4	4
56	3.39592	0.0754647	0	0	2.42591e-035	0	1	4	4
57	3.47138	0.1161	0	0	2.42591e-035	0	1	4	4
53	3.79646	0.121905	0	0	2.42591e-035	0	1	4	4
50	3.91837	0.0232198	0	0	2.42591e-035	0	1	4	4
50	3.9532	0.145125	0	0	2.42591e-035	0	1	4	4
52	4.09832	0.0232201	0	0	2.42591e-035	0	1	4	4
52	4.12154	0.0290251	0	0	2.42591e-035	0	1	4	4
53	4.15057	0.348299	0	0	2.42591e-035	0	1	4	4
65	5.29415	0.2322	0	0	2.42591e-035	0	1	4	4
66	5.52635	0.0406351	0	0	2.42591e-035	0	1	4	4
63	5.56698	0.22059	0	0	2.42591e-035	0	1	4	4
65	5.78757	0.423764	0	0	2.42591e-035	0	1	4	4
59	6.37968	0.243809	0	0	2.42591e-035	0	1	4	4
60	6.62349	0.0406351	0	0	2.42591e-035	0	1	4	4
60	6.66993	0.110295	0	0	2.42591e-035	0	1	4	4
65	6.78023	0.19737	0	0	2.42591e-035	0	1	4	4
66	7.0995	0.110295	0	0	2.42591e-035	0	1	4	4
67	7.2098	0.586304	0	0	2.42591e-035	0	1	4	4
63	8.22567	0.22059	0	0	2.42591e-035	0	1	4	4
23191912	8.54494	0.31347	0	0	2.42591e-035	0	1	4	4
60	8.85841	0.574694	0	0	2.42591e-035	0	1	4	4
60	9.43311	0.348299	0	0	2.42591e-035	0	1	4	4
54	10.7508	0.133514	0	0	2.42591e-035	0	1	4	4
53	10.8844	0.0754652	0	0	2.42591e-035	0	1	4	4
65	10.9598	0.168344	0	0	2.42591e-035	0	1	4	4
56	11.2907	0.348299	0	0	2.42591e-035	0	1	4	4
55	11.7493	0.301859	0	0	2.42591e-035	0	1	4	4
53	12.0918	0.417959	0	0	2.42591e-035	0	1	4	4
55	12.6317	0.27864	0	0	2.42591e-035	0	1	4	4
56	12.9103	0.18576	0	0	2.42591e-035	0	1	4	4
55	13.2005	0.19737	0	0	2.42591e-035	0	1	4	4
53	13.485	0.203175	0	0	2.42591e-035	0	1	4	4
52	13.752	0.179955	0	0	2.42591e-035	0	1	4	4
60	14.9711	0.179955	0	0	2.42591e-035	0	1	4	4
60	15.151	0.139319	0	0	2.42591e-035	0	1	4	4
60	15.2903	0.0812702	0	0	2.42591e-035	0	1	4	4
61	15.3716	0.139319	0	0	2.42591e-035	0	1	4	4
53	15.5341	0.168344	0	0	2.42591e-035	0	1	4	4
53	15.7838	0.307665	0	0	2.42591e-035	0	1	4	4
53	16.0914	0.121904	0	0	2.42591e-035	0	1	4	4
65	16.1785	0.0754642	0	0	2.42591e-035	0	1	4	4
53	16.55	0.435375	0	0	2.42591e-035	0	1	4	4
53	16.9854	0.139318	0	0	2.42591e-035	0	1	4	4
57	17.3859	0.168344	0	0	2.42591e-035	0	1	4	4
57	17.5949	0.394739	0	0	2.42591e-035	0	1	4	4
57	17.9897	0.0406342	0	0	2.42591e-035	0	1	4	4
55	18.1232	0.162539	0	0	2.42591e-035	0	1	4	4
53	18.4599	0.191565	0	0	2.42591e-035	0	1	4	4
53	18.6863	0.220589	0	0	2.42591e-035	0	1	4	4
53	18.9068	0.12771	0	0	2.42591e-035	0	1	4	4
53	19.0346	0.10449	0	0	2.42591e-035	0	1	4	4
53	19.139	0.1161	0	0	2.42591e-035	0	1	4	4
65	23.754	0.452789	0	0	2.42591e-035	0	1	4	4
60	24.3519	0.121904	0	0	2.42591e-035	0	1	4	4
59	24.4738	0.0638561	0	0	2.42591e-035	0	1	4	4
59	24.5377	0.156734	0	0	2.42591e-035	0	1	4	4
60	24.6944	0.174149	0	0	2.42591e-035	0	1	4	4
56	26.5172	0.220591	0	0	2.42591e-035	0	1	4	4
0	26.7378	0.116098	0	0	2.42591e-035	0	1	4	4
53	26.9177	0.261225	0	0	2.42591e-035	0	1	4	4
53	27.179	0.522448	0	0	2.42591e-035	0	1	4	4
52	27.7014	0.0464401	0	0	2.42591e-035	0	1	4	4
55	27.7537	0.0754642	0	0	2.42591e-035	0	1	4	4
56	27.8291	0.179955	0	0	2.42591e-035	0	1	4	4
55	28.0091	0.226395	0	0	2.42591e-035	0	1	4	4
57	28.2355	0.029026	0	0	2.42591e-035	0	1	4	4
55	28.4212	0.214785	0	0	2.42591e-035	0	1	4	4
53	28.8218	0.267031	0	0	2.42591e-035	0	1	4	4
