midiPitch 	 onsetSec 	 durationSec 	 onsetBeats 	 onsetBarIndex 	 onsetBar 	 durationBeats 	 velocity  	 numerator 	 denominator 
81	0.133515	0.0290249	0	0	4.02454e-035	0	1	4	4
81	0.17415	0.0754648	0	0	4.02454e-035	0	1	4	4
81	0.249615	0.0928798	0	0	4.02454e-035	0	1	4	4
81	0.342494	0.121905	0	0	4.02454e-035	0	1	4	4
81	0.464399	0.168345	0	0	4.02454e-035	0	1	4	4
81	0.632744	0.0406349	0	0	4.02454e-035	0	1	4	4
81	0.714014	0.0870748	0	0	4.02454e-035	0	1	4	4
74	0.801088	0.238005	0	0	4.02454e-035	0	1	4	4
81	1.01007	0.243809	0	0	4.02454e-035	0	1	4	4
81	1.2829	0.0986848	0	0	4.02454e-035	0	1	4	4
74	1.38159	0.110295	0	0	4.02454e-035	0	1	4	4
74	1.49188	0.0870748	0	0	4.02454e-035	0	1	4	4
83	1.57896	0.04644	0	0	4.02454e-035	0	1	4	4
76	1.6254	0.0464399	0	0	4.02454e-035	0	1	4	4
74	1.67184	0.0754648	0	0	4.02454e-035	0	1	4	4
76	1.7473	0.1161	0	0	4.02454e-035	0	1	4	4
76	1.8634	0.0580499	0	0	4.02454e-035	0	1	4	4
76	1.92145	0.19737	0	0	4.02454e-035	0	1	4	4
76	2.13043	0.342494	0	0	4.02454e-035	0	1	4	4
81	2.47293	0.19737	0	0	4.02454e-035	0	1	4	4
81	2.67029	0.0464399	0	0	4.02454e-035	0	1	4	4
81	2.71673	0.179955	0	0	4.02454e-035	0	1	4	4
76	2.89669	0.145125	0	0	4.02454e-035	0	1	4	4
76	3.09986	0.0406349	0	0	4.02454e-035	0	1	4	4
76	3.19274	0.168344	0	0	4.02454e-035	0	1	4	4
76	3.36109	0.0348301	0	0	4.02454e-035	0	1	4	4
76	3.41914	0.13932	0	0	4.02454e-035	0	1	4	4
76	3.55846	0.0406349	0	0	4.02454e-035	0	1	4	4
76	3.62231	0.0696599	0	0	4.02454e-035	0	1	4	4
76	3.69197	0.110295	0	0	4.02454e-035	0	1	4	4
76	3.80227	0.1161	0	0	4.02454e-035	0	1	4	4
76	3.91837	0.0696597	0	0	4.02454e-035	0	1	4	4
76	3.98803	0.18576	0	0	4.02454e-035	0	1	4	4
76	4.17379	0.0638552	0	0	4.02454e-035	0	1	4	4
69	5.67728	0.0290246	0	0	4.02454e-035	0	1	4	4
76	5.76435	0.214785	0	0	4.02454e-035	0	1	4	4
76	6.03138	0.0522451	0	0	4.02454e-035	0	1	4	4
69	6.96018	0.0348301	0	0	4.02454e-035	0	1	4	4
81	6.99501	0.20898	0	0	4.02454e-035	0	1	4	4
81	7.20399	0.348299	0	0	4.02454e-035	0	1	4	4
81	7.55229	0.0812702	0	0	4.02454e-035	0	1	4	4
81	7.63356	0.168344	0	0	4.02454e-035	0	1	4	4
81	7.8019	0.0696597	0	0	4.02454e-035	0	1	4	4
81	7.87156	0.133515	0	0	4.02454e-035	0	1	4	4
81	8.00508	0.0406351	0	0	4.02454e-035	0	1	4	4
83	8.04571	0.359909	0	0	4.02454e-035	0	1	4	4
83	8.40562	0.0522451	0	0	4.02454e-035	0	1	4	4
83	8.45787	0.0928793	0	0	4.02454e-035	0	1	4	4
83	8.55075	0.0406351	0	0	4.02454e-035	0	1	4	4
83	8.59138	0.145124	0	0	4.02454e-035	0	1	4	4
83	8.74812	0.0464401	0	0	4.02454e-035	0	1	4	4
83	8.79456	0.145124	0	0	4.02454e-035	0	1	4	4
83	8.93968	0.0464401	0	0	4.02454e-035	0	1	4	4
83	8.98612	0.156734	0	0	4.02454e-035	0	1	4	4
83	9.14286	0.0464401	0	0	4.02454e-035	0	1	4	4
83	9.1893	0.139319	0	0	4.02454e-035	0	1	4	4
83	9.32862	0.0522451	0	0	4.02454e-035	0	1	4	4
83	9.38086	0.203175	0	0	4.02454e-035	0	1	4	4
83	9.58404	0.13932	0	0	4.02454e-035	0	1	4	4
83	9.72336	0.0696592	0	0	4.02454e-035	0	1	4	4
83	9.79302	0.0928802	0	0	4.02454e-035	0	1	4	4
83	9.8859	0.116099	0	0	4.02454e-035	0	1	4	4
83	10.002	0.0580502	0	0	4.02454e-035	0	1	4	4
83	10.06	0.0232201	0	0	4.02454e-035	0	1	4	4
81	11.2501	0.19737	0	0	4.02454e-035	0	1	4	4
81	11.4474	0.12771	0	0	4.02454e-035	0	1	4	4
81	11.6564	0.162539	0	0	4.02454e-035	0	1	4	4
69	11.9583	0.0754642	0	0	4.02454e-035	0	1	4	4
69	12.1034	0.0870752	0	0	4.02454e-035	0	1	4	4
81	12.2079	0.110295	0	0	4.02454e-035	0	1	4	4
76	12.3588	0.0406351	0	0	4.02454e-035	0	1	4	4
76	12.4401	0.0870752	0	0	4.02454e-035	0	1	4	4
64	16.6603	0.0232201	0	0	4.02454e-035	0	1	4	4
74	16.6835	0.0986862	0	0	4.02454e-035	0	1	4	4
74	16.7938	0.104488	0	0	4.02454e-035	0	1	4	4
76	16.9796	0.121904	0	0	4.02454e-035	0	1	4	4
62	21.6062	0.0348301	0	0	4.02454e-035	0	1	4	4
62	21.7803	0.0406342	0	0	4.02454e-035	0	1	4	4
62	21.8326	0.0348301	0	0	4.02454e-035	0	1	4	4
62	21.8732	0.0406342	0	0	4.02454e-035	0	1	4	4
64	22.0241	0.0348301	0	0	4.02454e-035	0	1	4	4
81	24.5551	0.191565	0	0	4.02454e-035	0	1	4	4
81	25.7335	0.168344	0	0	4.02454e-035	0	1	4	4
81	25.9019	0.0290241	0	0	4.02454e-035	0	1	4	4
81	25.9309	0.0348301	0	0	4.02454e-035	0	1	4	4
81	26.0702	0.0696602	0	0	4.02454e-035	0	1	4	4
81	26.1399	0.0638542	0	0	4.02454e-035	0	1	4	4
81	26.2037	0.0580502	0	0	4.02454e-035	0	1	4	4
81	26.2618	0.168344	0	0	4.02454e-035	0	1	4	4
81	26.4301	0.121904	0	0	4.02454e-035	0	1	4	4
81	26.6623	0.13932	0	0	4.02454e-035	0	1	4	4
81	26.8016	0.133514	0	0	4.02454e-035	0	1	4	4
81	26.9351	0.0580502	0	0	4.02454e-035	0	1	4	4
81	26.9932	0.0232201	0	0	4.02454e-035	0	1	4	4
81	27.1557	0.208979	0	0	4.02454e-035	0	1	4	4
76	27.3647	0.0928802	0	0	4.02454e-035	0	1	4	4
76	27.4576	0.0580502	0	0	4.02454e-035	0	1	4	4
76	27.5156	0.0580502	0	0	4.02454e-035	0	1	4	4
76	27.5737	0.185759	0	0	4.02454e-035	0	1	4	4
76	27.7595	0.110296	0	0	4.02454e-035	0	1	4	4
76	27.8756	0.272835	0	0	4.02454e-035	0	1	4	4
76	28.1484	0.168344	0	0	4.02454e-035	0	1	4	4
76	28.3167	0.156734	0	0	4.02454e-035	0	1	4	4
76	28.4735	0.0522442	0	0	4.02454e-035	0	1	4	4
81	28.5257	0.208981	0	0	4.02454e-035	0	1	4	4
81	28.7347	0.121904	0	0	4.02454e-035	0	1	4	4
81	28.8566	0.208981	0	0	4.02454e-035	0	1	4	4
81	29.083	0.15093	0	0	4.02454e-035	0	1	4	4
81	29.2339	0.127708	0	0	4.02454e-035	0	1	4	4
81	29.3616	0.0986862	0	0	4.02454e-035	0	1	4	4
81	29.4603	0.121904	0	0	4.02454e-035	0	1	4	4
81	29.5822	0.150928	0	0	4.02454e-035	0	1	4	4
81	29.7332	0.17415	0	0	4.02454e-035	0	1	4	4
