midiPitch 	 onsetSec 	 durationSec 	 onsetBeats 	 onsetBarIndex 	 onsetBar 	 durationBeats 	 velocity  	 numerator 	 denominator 
61	3.76163	0.12771	0	0	2.35066e-035	0	1	4	4
60	3.88934	0.25542	0	0	2.35066e-035	0	1	4	4
62	4.26086	0.417959	0	0	2.35066e-035	0	1	4	4
61	4.67882	0.10449	0	0	2.35066e-035	0	1	4	4
58	4.95166	0.145124	0	0	2.35066e-035	0	1	4	4
58	5.1258	0.133515	0	0	2.35066e-035	0	1	4	4
62	5.75274	0.10449	0	0	2.35066e-035	0	1	4	4
62	5.97914	0.133514	0	0	2.35066e-035	0	1	4	4
62	6.13007	0.15093	0	0	2.35066e-035	0	1	4	4
63	6.59447	0.313469	0	0	2.35066e-035	0	1	4	4
62	6.90794	0.214785	0	0	2.35066e-035	0	1	4	4
60	8.97451	0.168344	0	0	2.35066e-035	0	1	4	4
60	9.16027	0.25542	0	0	2.35066e-035	0	1	4	4
60	9.45052	0.156734	0	0	2.35066e-035	0	1	4	4
58	9.60726	0.179955	0	0	2.35066e-035	0	1	4	4
57	9.78721	0.0232201	0	0	2.35066e-035	0	1	4	4
58	9.90331	0.603719	0	0	2.35066e-035	0	1	4	4
58	10.5244	0.104489	0	0	2.35066e-035	0	1	4	4
62	10.7102	0.267029	0	0	2.35066e-035	0	1	4	4
61	10.9772	0.17415	0	0	2.35066e-035	0	1	4	4
61	11.4184	0.10449	0	0	2.35066e-035	0	1	4	4
62	11.6216	0.35991	0	0	2.35066e-035	0	1	4	4
62	12.0918	0.30186	0	0	2.35066e-035	0	1	4	4
58	15.2845	0.13932	0	0	2.35066e-035	0	1	4	4
57	15.4471	0.139319	0	0	2.35066e-035	0	1	4	4
58	15.5864	0.20898	0	0	2.35066e-035	0	1	4	4
58	15.7954	0.0464401	0	0	2.35066e-035	0	1	4	4
60	16.4455	0.342495	0	0	2.35066e-035	0	1	4	4
70	18.8372	0.0290241	0	0	2.35066e-035	0	1	4	4
57	18.9243	0.110294	0	0	2.35066e-035	0	1	4	4
54	19.1158	0.0348301	0	0	2.35066e-035	0	1	4	4
55	19.1565	0.284445	0	0	2.35066e-035	0	1	4	4
57	19.557	0.0986843	0	0	2.35066e-035	0	1	4	4
56	19.6557	0.16254	0	0	2.35066e-035	0	1	4	4
55	19.8182	0.0754642	0	0	2.35066e-035	0	1	4	4
54	20.1027	0.133516	0	0	2.35066e-035	0	1	4	4
50	20.3755	0.313471	0	0	2.35066e-035	0	1	4	4
58	20.8283	0.284445	0	0	2.35066e-035	0	1	4	4
57	21.1127	0.296055	0	0	2.35066e-035	0	1	4	4
58	21.5075	0.15093	0	0	2.35066e-035	0	1	4	4
57	21.67	0.191565	0	0	2.35066e-035	0	1	4	4
58	21.9312	0.150928	0	0	2.35066e-035	0	1	4	4
59	22.1925	0.1161	0	0	2.35066e-035	0	1	4	4
62	24.3635	0.238005	0	0	2.35066e-035	0	1	4	4
62	24.7409	0.0580502	0	0	2.35066e-035	0	1	4	4
64	24.915	0.0348301	0	0	2.35066e-035	0	1	4	4
61	25.1066	0.15093	0	0	2.35066e-035	0	1	4	4
58	25.4491	0.133514	0	0	2.35066e-035	0	1	4	4
58	25.5826	0.0812702	0	0	2.35066e-035	0	1	4	4
58	25.8032	0.499228	0	0	2.35066e-035	0	1	4	4
63	26.4185	0.168344	0	0	2.35066e-035	0	1	4	4
62	26.6217	0.12771	0	0	2.35066e-035	0	1	4	4
64	26.8539	0.1161	0	0	2.35066e-035	0	1	4	4
63	26.97	0.551474	0	0	2.35066e-035	0	1	4	4
59	29.0772	0.0928783	0	0	2.35066e-035	0	1	4	4
60	29.1701	0.238005	0	0	2.35066e-035	0	1	4	4
