midiPitch 	 onsetSec 	 durationSec 	 onsetBeats 	 onsetBarIndex 	 onsetBar 	 durationBeats 	 velocity  	 numerator 	 denominator 
59	0.412154	0.284444	0	0	0	0	1	4	4
58	0.696599	0.0696598	0	0	0	0	1	4	4
61	0.975238	0.029025	0	0	0	0	1	4	4
60	1.01007	0.10449	0	0	0	0	1	4	4
61	1.9795	0.10449	0	0	0	0	1	4	4
62	2.78059	0.0522449	0	0	0	0	1	4	4
60	3.81388	0.0232198	0	0	0	0	1	4	4
61	3.8429	0.238004	0	0	0	0	1	4	4
58	4.12154	0.0812697	0	0	0	0	1	4	4
59	4.20281	0.0406351	0	0	0	0	1	4	4
60	4.27828	0.0348301	0	0	0	0	1	4	4
60	4.38857	0.226395	0	0	0	0	1	4	4
61	4.61497	0.145125	0	0	0	0	1	4	4
72	5.11419	0.267029	0	0	0	0	1	4	4
70	5.40444	0.325079	0	0	0	0	1	4	4
58	8.08054	0.127709	0	0	0	0	1	4	4
56	8.31855	0.0232201	0	0	0	0	1	4	4
58	8.34757	0.307665	0	0	0	0	1	4	4
55	8.80036	0.168344	0	0	0	0	1	4	4
56	8.96871	0.394739	0	0	0	0	1	4	4
53	9.36345	0.365715	0	0	0	0	1	4	4
54	9.72916	0.139319	0	0	0	0	1	4	4
57	12.3414	0.2322	0	0	0	0	1	4	4
60	12.6781	0.0696602	0	0	0	0	1	4	4
60	12.7652	0.0406351	0	0	0	0	1	4	4
60	12.8058	0.0522442	0	0	0	0	1	4	4
61	13.038	0.13932	0	0	0	0	1	4	4
61	13.1773	0.0348301	0	0	0	0	1	4	4
62	13.3979	0.0812693	0	0	0	0	1	4	4
63	13.5024	0.22059	0	0	0	0	1	4	4
61	13.723	0.0290251	0	0	0	0	1	4	4
61	13.7636	0.150929	0	0	0	0	1	4	4
62	13.9204	0.127709	0	0	0	0	1	4	4
61	14.0539	0.0464401	0	0	0	0	1	4	4
61	14.1003	0.0812702	0	0	0	0	1	4	4
61	16.2482	0.203175	0	0	0	0	1	4	4
63	16.4513	0.255419	0	0	0	0	1	4	4
63	16.7068	0.0928802	0	0	0	0	1	4	4
65	16.7996	0.208981	0	0	0	0	1	4	4
63	17.0086	0.238003	0	0	0	0	1	4	4
61	17.2931	0.232201	0	0	0	0	1	4	4
63	17.5253	0.249615	0	0	0	0	1	4	4
61	17.9258	0.342495	0	0	0	0	1	4	4
61	18.2683	0.16254	0	0	0	0	1	4	4
62	18.4308	0.0290241	0	0	0	0	1	4	4
61	20.4452	0.208981	0	0	0	0	1	4	4
63	20.6832	0.238005	0	0	0	0	1	4	4
63	20.9212	0.10449	0	0	0	0	1	4	4
65	21.0257	0.197369	0	0	0	0	1	4	4
63	21.223	0.214785	0	0	0	0	1	4	4
61	21.4378	0.267031	0	0	0	0	1	4	4
61	22.6336	0.1161	0	0	0	0	1	4	4
64	24.6073	0.121906	0	0	0	0	1	4	4
65	24.7293	0.336689	0	0	0	0	1	4	4
64	25.0659	0.162539	0	0	0	0	1	4	4
65	25.2285	0.220591	0	0	0	0	1	4	4
63	25.4491	0.203175	0	0	0	0	1	4	4
57270632	26.0354	0.934603	0	0	0	0	1	4	4
