midiPitch 	 onsetSec 	 durationSec 	 onsetBeats 	 onsetBarIndex 	 onsetBar 	 durationBeats 	 velocity  	 numerator 	 denominator 
64	0.0580499	0.18576	0	0	0	0	1	4	4
63	0.417959	0.0348299	0	0	0	0	1	4	4
63	0.458594	0.2322	0	0	0	0	1	4	4
60	0.754649	0.359909	0	0	0	0	1	4	4
58	1.13197	0.609524	0	0	0	0	1	4	4
55	1.88082	0.255419	0	0	0	0	1	4	4
53	2.13624	0.406349	0	0	0	0	1	4	4
65	6.91374	0.255419	0	0	0	0	1	4	4
65	7.23882	0.37152	0	0	0	0	1	4	4
69	7.69741	0.667573	0	0	0	0	1	4	4
70	8.36499	0.417959	0	0	0	0	1	4	4
68	8.93968	0.214785	0	0	0	0	1	4	4
72	9.15447	0.10449	0	0	0	0	1	4	4
66	9.26476	0.661769	0	0	0	0	1	4	4
62	9.92653	0.290249	0	0	0	0	1	4	4
63	10.3503	0.290249	0	0	0	0	1	4	4
63	10.7799	0.145125	0	0	0	0	1	4	4
65	10.925	0.557279	0	0	0	0	1	4	4
65	11.6274	0.203175	0	0	0	0	1	4	4
63	11.9989	0.22059	0	0	0	0	1	4	4
61	12.7303	0.441179	0	0	0	0	1	4	4
58	13.1715	0.667573	0	0	0	0	1	4	4
55	13.8391	0.249615	0	0	0	0	1	4	4
54	14.0887	0.25542	0	0	0	0	1	4	4
64	19.3771	0.208979	0	0	0	0	1	4	4
65	19.586	0.452789	0	0	0	0	1	4	4
63	20.062	0.214785	0	0	0	0	1	4	4
65	20.2768	0.429569	0	0	0	0	1	4	4
66	20.7064	0.110294	0	0	0	0	1	4	4
65	20.8167	0.412155	0	0	0	0	1	4	4
64	21.432	0.168344	0	0	0	0	1	4	4
68	21.6062	0.0986862	0	0	0	0	1	4	4
61	21.7165	0.557278	0	0	0	0	1	4	4
59	22.6569	0.66177	0	0	0	0	1	4	4
65	23.9166	0.406349	0	0	0	0	1	4	4
64	24.5145	0.191565	0	0	0	0	1	4	4
62	24.9266	0.168344	0	0	0	0	1	4	4
63	25.2517	0.15093	0	0	0	0	1	4	4
61	25.6058	0.243809	0	0	0	0	1	4	4
58	25.8496	0.911385	0	0	0	0	1	4	4
55	26.9061	0.214785	0	0	0	0	1	4	4
53	27.1209	0.423763	0	0	0	0	1	4	4
