midiPitch 	 onsetSec 	 durationSec 	 onsetBeats 	 onsetBarIndex 	 onsetBar 	 durationBeats 	 velocity  	 numerator 	 denominator 
59	0.12771	0.0522449	0	0	4.15588e-035	0	1	4	4
59	0.179955	0.0870748	0	0	4.15588e-035	0	1	4	4
59	0.435374	0.0348299	0	0	4.15588e-035	0	1	4	4
60	0.476009	0.545669	0	0	4.15588e-035	0	1	4	4
56	4.02866	0.278639	0	0	4.15588e-035	0	1	4	4
61	4.3073	0.12771	0	0	4.15588e-035	0	1	4	4
63	4.44082	0.214785	0	0	4.15588e-035	0	1	4	4
62	5.04454	0.458594	0	0	4.15588e-035	0	1	4	4
60	5.50313	0.632744	0	0	4.15588e-035	0	1	4	4
63	6.35066	0.365714	0	0	4.15588e-035	0	1	4	4
62	7.26785	0.284444	0	0	4.15588e-035	0	1	4	4
60	9.7698	0.179955	0	0	4.15588e-035	0	1	4	4
63	9.94975	0.330885	0	0	4.15588e-035	0	1	4	4
63	10.4083	0.179955	0	0	4.15588e-035	0	1	4	4
63	10.5883	0.133515	0	0	4.15588e-035	0	1	4	4
63	10.9018	0.557279	0	0	4.15588e-035	0	1	4	4
54	13.1773	0.168344	0	0	4.15588e-035	0	1	4	4
60	13.7114	0.29025	0	0	4.15588e-035	0	1	4	4
62	14.8143	0.2322	0	0	4.15588e-035	0	1	4	4
60	15.0465	0.267029	0	0	4.15588e-035	0	1	4	4
60	15.3136	0.435374	0	0	4.15588e-035	0	1	4	4
61	15.865	0.127709	0	0	4.15588e-035	0	1	4	4
63	15.9927	1.08553	0	0	4.15588e-035	0	1	4	4
59	17.5253	0.284445	0	0	4.15588e-035	0	1	4	4
60	17.8097	0.499228	0	0	4.15588e-035	0	1	4	4
60	19.9692	0.15093	0	0	4.15588e-035	0	1	4	4
62	20.1201	0.731428	0	0	4.15588e-035	0	1	4	4
63	20.8805	0.296053	0	0	4.15588e-035	0	1	4	4
62	21.1766	0.278641	0	0	4.15588e-035	0	1	4	4
60	24.5783	0.203175	0	0	4.15588e-035	0	1	4	4
62	24.7815	0.899773	0	0	4.15588e-035	0	1	4	4
55	29.0888	0.272833	0	0	4.15588e-035	0	1	4	4
56	29.3616	0.168344	0	0	4.15588e-035	0	1	4	4
56	29.5474	0.12771	0	0	4.15588e-035	0	1	4	4
63	29.6751	0.354103	0	0	4.15588e-035	0	1	4	4
