midiPitch 	 onsetSec 	 durationSec 	 onsetBeats 	 onsetBarIndex 	 onsetBar 	 durationBeats 	 velocity  	 numerator 	 denominator 
65	1.45125	0.0754648	0	0	0	0	1	4	4
72	1.63701	0.0464399	0	0	0	0	1	4	4
70	2.24073	0.0986848	0	0	0	0	1	4	4
69	2.33941	0.0290251	0	0	0	0	1	4	4
70	2.36844	0.12771	0	0	0	0	1	4	4
74	2.49615	0.0638549	0	0	0	0	1	4	4
70	2.57741	0.1161	0	0	0	0	1	4	4
72	2.83864	0.156735	0	0	0	0	1	4	4
60	2.93732	0.0580499	0	0	0	0	1	4	4
72	2.83864	0.17415	0	0	0	0	1	4	4
60	2.93732	0.1161	0	0	0	0	1	4	4
70	3.23918	0.1161	0	0	0	0	1	4	4
70	3.45397	0.121905	0	0	0	0	1	4	4
77	3.68036	0.0522449	0	0	0	0	1	4	4
72	3.73261	0.0580499	0	0	0	0	1	4	4
53	3.4946	0.487619	0	0	0	0	1	4	4
54	4.13896	0.127709	0	0	0	0	1	4	4
54	4.26667	0.0290251	0	0	0	0	1	4	4
54	4.3015	0.249615	0	0	0	0	1	4	4
74	5.83982	0.0406351	0	0	0	0	1	4	4
73	5.89206	0.0406346	0	0	0	0	1	4	4
73	5.95592	0.0406346	0	0	0	0	1	4	4
69	5.99655	0.0870752	0	0	0	0	1	4	4
69	6.08363	0.0812697	0	0	0	0	1	4	4
77	6.36227	0.0348301	0	0	0	0	1	4	4
77	6.40871	0.0464401	0	0	0	0	1	4	4
72	6.45515	0.0870748	0	0	0	0	1	4	4
72	6.54222	0.0464401	0	0	0	0	1	4	4
66	6.91955	0.0290251	0	0	0	0	1	4	4
71	7.29687	0.0348296	0	0	0	0	1	4	4
77	7.39556	0.0232201	0	0	0	0	1	4	4
77	7.42458	0.0290246	0	0	0	0	1	4	4
74	7.45361	0.0522451	0	0	0	0	1	4	4
77	7.50585	0.12771	0	0	0	0	1	4	4
77	7.64517	0.0290251	0	0	0	0	1	4	4
77	7.68	0.0348301	0	0	0	0	1	4	4
72	7.78449	0.0348301	0	0	0	0	1	4	4
79	7.92961	0.0406346	0	0	0	0	1	4	4
75	8.2605	0.104489	0	0	0	0	1	4	4
75	8.36499	0.0464401	0	0	0	0	1	4	4
77	8.74812	0.0232201	0	0	0	0	1	4	4
53	8.8468	0.0406351	0	0	0	0	1	4	4
53	8.89324	0.272834	0	0	0	0	1	4	4
53	9.16608	0.0232201	0	0	0	0	1	4	4
54	9.1951	0.464399	0	0	0	0	1	4	4
61	10.9482	0.191565	0	0	0	0	1	4	4
53	11.4242	0.261225	0	0	0	0	1	4	4
54	11.9293	0.22059	0	0	0	0	1	4	4
60	12.7303	0.145124	0	0	0	0	1	4	4
48	12.9683	0.110294	0	0	0	0	1	4	4
72	13.0612	0.15093	0	0	0	0	1	4	4
70	13.3863	0.336689	0	0	0	0	1	4	4
77	13.8507	0.0928802	0	0	0	0	1	4	4
53	13.8507	0.15093	0	0	0	0	1	4	4
53	14.4544	0.0522451	0	0	0	0	1	4	4
54	14.5357	0.214785	0	0	0	0	1	4	4
55	14.942	0.0348301	0	0	0	0	1	4	4
56	15.0523	0.249614	0	0	0	0	1	4	4
58	15.4239	0.284444	0	0	0	0	1	4	4
58	15.7373	0.110295	0	0	0	0	1	4	4
60	15.8476	0.354104	0	0	0	0	1	4	4
60	16.2017	0.0986843	0	0	0	0	1	4	4
61	16.3468	0.452789	0	0	0	0	1	4	4
51	22.2389	0.0928802	0	0	0	0	1	4	4
53	22.355	0.121904	0	0	0	0	1	4	4
61	22.6511	0.174149	0	0	0	0	1	4	4
59	22.9819	0.179956	0	0	0	0	1	4	4
57	23.1735	0.12771	0	0	0	0	1	4	4
61	23.6089	0.278639	0	0	0	0	1	4	4
59	23.8875	0.214785	0	0	0	0	1	4	4
58	24.1023	0.0696602	0	0	0	0	1	4	4
56	24.172	0.0522442	0	0	0	0	1	4	4
53	24.8628	0.174149	0	0	0	0	1	4	4
52	26.0122	0.0580502	0	0	0	0	1	4	4
50	26.7958	0.0580482	0	0	0	0	1	4	4
72	27.4228	0.0638542	0	0	0	0	1	4	4
77	27.4866	0.0232201	0	0	0	0	1	4	4
72	27.5098	0.0232201	0	0	0	0	1	4	4
53	27.4808	0.12771	0	0	0	0	1	4	4
77	28.5954	0.029026	0	0	0	0	1	4	4
79	28.8798	0.0812702	0	0	0	0	1	4	4
