midiPitch 	 onsetSec 	 durationSec 	 onsetBeats 	 onsetBarIndex 	 onsetBar 	 durationBeats 	 velocity  	 numerator 	 denominator 
74	2.42068	0.0754647	0	0	3.32866e-035	0	1	4	4
75	2.51356	0.0464399	0	0	3.32866e-035	0	1	4	4
74	2.56	0.0638549	0	0	3.32866e-035	0	1	4	4
85	3.00118	0.0696599	0	0	3.32866e-035	0	1	4	4
85	3.09406	0.0290248	0	0	3.32866e-035	0	1	4	4
84	3.12308	0.0290248	0	0	3.32866e-035	0	1	4	4
70	6.83247	0.110295	0	0	3.32866e-035	0	1	4	4
69	6.94277	0.0754652	0	0	3.32866e-035	0	1	4	4
67	7.06467	0.0638547	0	0	3.32866e-035	0	1	4	4
76	7.12853	0.0928802	0	0	3.32866e-035	0	1	4	4
75	7.22141	0.0464396	0	0	3.32866e-035	0	1	4	4
74	7.26785	0.0406351	0	0	3.32866e-035	0	1	4	4
75	7.30848	0.0580497	0	0	3.32866e-035	0	1	4	4
79	7.36653	0.0522451	0	0	3.32866e-035	0	1	4	4
79	7.43619	0.0232201	0	0	3.32866e-035	0	1	4	4
78	7.50005	0.0290251	0	0	3.32866e-035	0	1	4	4
75	7.52907	0.0232196	0	0	3.32866e-035	0	1	4	4
80	7.56971	0.0580502	0	0	3.32866e-035	0	1	4	4
79	7.63936	0.0870752	0	0	3.32866e-035	0	1	4	4
87	10.5709	0.0348301	0	0	3.32866e-035	0	1	4	4
84	10.954	0.162539	0	0	3.32866e-035	0	1	4	4
83	11.1166	0.0870743	0	0	3.32866e-035	0	1	4	4
81	11.2036	0.1161	0	0	3.32866e-035	0	1	4	4
80	11.3604	0.110294	0	0	3.32866e-035	0	1	4	4
77	18.5063	0.336689	0	0	3.32866e-035	0	1	4	4
77	18.843	0.348299	0	0	3.32866e-035	0	1	4	4
77	19.1913	0.313469	0	0	3.32866e-035	0	1	4	4
76	19.5048	0.145126	0	0	3.32866e-035	0	1	4	4
76	19.6499	0.110294	0	0	3.32866e-035	0	1	4	4
65	23.1909	0.0232201	0	0	3.32866e-035	0	1	4	4
84	23.4522	0.0580502	0	0	3.32866e-035	0	1	4	4
81	23.5334	0.0464382	0	0	3.32866e-035	0	1	4	4
78	23.5857	0.0290241	0	0	3.32866e-035	0	1	4	4
81	23.696	0.13932	0	0	3.32866e-035	0	1	4	4
81	23.8469	0.0696602	0	0	3.32866e-035	0	1	4	4
81	24.0094	0.0696602	0	0	3.32866e-035	0	1	4	4
80	24.0791	0.10449	0	0	3.32866e-035	0	1	4	4
79	24.1836	0.0754642	0	0	3.32866e-035	0	1	4	4
67	26.7204	0.0638561	0	0	3.32866e-035	0	1	4	4
70	26.7958	0.0232201	0	0	3.32866e-035	0	1	4	4
71	26.8249	0.0580502	0	0	3.32866e-035	0	1	4	4
70	27.0745	0.0870743	0	0	3.32866e-035	0	1	4	4
82	27.1557	0.0638542	0	0	3.32866e-035	0	1	4	4
82	27.2428	0.0522442	0	0	3.32866e-035	0	1	4	4
84	27.4286	0.0290241	0	0	3.32866e-035	0	1	4	4
83	27.4808	0.0986843	0	0	3.32866e-035	0	1	4	4
83	27.5795	0.0232201	0	0	3.32866e-035	0	1	4	4
84	27.6608	0.0754642	0	0	3.32866e-035	0	1	4	4
84	27.7885	0.0290241	0	0	3.32866e-035	0	1	4	4
83	27.8291	0.0696602	0	0	3.32866e-035	0	1	4	4
