midiPitch 	 onsetSec 	 durationSec 	 onsetBeats 	 onsetBarIndex 	 onsetBar 	 durationBeats 	 velocity  	 numerator 	 denominator 
59	0.818503	0.0870748	0	0	1.97459e-035	0	1	4	4
61	1.06231	0.191565	0	0	1.97459e-035	0	1	4	4
58	1.43964	0.261225	0	0	1.97459e-035	0	1	4	4
58	1.71828	0.0928798	0	0	1.97459e-035	0	1	4	4
57	2.00853	0.110295	0	0	1.97459e-035	0	1	4	4
57	2.18268	0.20898	0	0	1.97459e-035	0	1	4	4
61	3.09986	0.0812697	0	0	1.97459e-035	0	1	4	4
61	3.22177	0.16254	0	0	1.97459e-035	0	1	4	4
65	3.57587	0.133515	0	0	1.97459e-035	0	1	4	4
62	3.71519	0.0928798	0	0	1.97459e-035	0	1	4	4
60	3.94739	0.156735	0	0	1.97459e-035	0	1	4	4
64	4.17379	0.13932	0	0	1.97459e-035	0	1	4	4
59	4.46404	0.0232201	0	0	1.97459e-035	0	1	4	4
67	5.57279	0.0696597	0	0	1.97459e-035	0	1	4	4
57	5.65406	0.249614	0	0	1.97459e-035	0	1	4	4
59	5.9327	0.0406351	0	0	1.97459e-035	0	1	4	4
59	6.01977	0.0754652	0	0	1.97459e-035	0	1	4	4
55	8.12118	0.110295	0	0	1.97459e-035	0	1	4	4
56	8.55075	0.0580502	0	0	1.97459e-035	0	1	4	4
56	8.6088	0.0406351	0	0	1.97459e-035	0	1	4	4
56	8.7307	0.0870752	0	0	1.97459e-035	0	1	4	4
55	9.079	0.0986843	0	0	1.97459e-035	0	1	4	4
56	9.41569	0.18576	0	0	1.97459e-035	0	1	4	4
61	10.2052	0.191565	0	0	1.97459e-035	0	1	4	4
57	10.42	0.191565	0	0	1.97459e-035	0	1	4	4
68	11.8538	0.0290251	0	0	1.97459e-035	0	1	4	4
68	11.9525	0.0580492	0	0	1.97459e-035	0	1	4	4
66	12.0221	0.0522451	0	0	1.97459e-035	0	1	4	4
64	12.1324	0.0290251	0	0	1.97459e-035	0	1	4	4
66	12.1615	0.19737	0	0	1.97459e-035	0	1	4	4
66	12.3704	0.116099	0	0	1.97459e-035	0	1	4	4
66	12.5388	0.127709	0	0	1.97459e-035	0	1	4	4
66	12.6665	0.226395	0	0	1.97459e-035	0	1	4	4
65	13.0206	0.0928802	0	0	1.97459e-035	0	1	4	4
65	13.1135	0.110294	0	0	1.97459e-035	0	1	4	4
64	13.4792	0.168344	0	0	1.97459e-035	0	1	4	4
63	13.7636	0.20898	0	0	1.97459e-035	0	1	4	4
61	14.0074	0.168344	0	0	1.97459e-035	0	1	4	4
61	14.5067	0.162539	0	0	1.97459e-035	0	1	4	4
54	16.7648	0.145124	0	0	1.97459e-035	0	1	4	4
68	17.444	0.191565	0	0	1.97459e-035	0	1	4	4
61	21.7107	0.156734	0	0	1.97459e-035	0	1	4	4
61	22.1867	0.145124	0	0	1.97459e-035	0	1	4	4
55	23.4289	0.0406342	0	0	1.97459e-035	0	1	4	4
56	23.5857	0.0870743	0	0	1.97459e-035	0	1	4	4
56	23.8411	0.0232201	0	0	1.97459e-035	0	1	4	4
59	23.8643	0.0406361	0	0	1.97459e-035	0	1	4	4
56	23.9049	0.0406342	0	0	1.97459e-035	0	1	4	4
59	23.9456	0.0348301	0	0	1.97459e-035	0	1	4	4
59	23.9862	0.0812702	0	0	1.97459e-035	0	1	4	4
59	24.1313	0.0522442	0	0	1.97459e-035	0	1	4	4
57	24.3926	0.0406361	0	0	1.97459e-035	0	1	4	4
54	24.4332	0.0406342	0	0	1.97459e-035	0	1	4	4
54	24.4912	0.0928802	0	0	1.97459e-035	0	1	4	4
61	25.0253	0.0696602	0	0	1.97459e-035	0	1	4	4
59	25.1008	0.116098	0	0	1.97459e-035	0	1	4	4
59	25.2691	0.0638542	0	0	1.97459e-035	0	1	4	4
59	25.333	0.0638561	0	0	1.97459e-035	0	1	4	4
57	25.6058	0.0464401	0	0	1.97459e-035	0	1	4	4
54	25.6755	0.0638542	0	0	1.97459e-035	0	1	4	4
56	25.7393	0.18576	0	0	1.97459e-035	0	1	4	4
60	25.9483	0.127708	0	0	1.97459e-035	0	1	4	4
65	28.16	0.0812702	0	0	1.97459e-035	0	1	4	4
56	28.2471	0.18576	0	0	1.97459e-035	0	1	4	4
71	28.4502	0.0580502	0	0	1.97459e-035	0	1	4	4
68	28.5083	0.0986843	0	0	1.97459e-035	0	1	4	4
