midiPitch 	 onsetSec 	 durationSec 	 onsetBeats 	 onsetBarIndex 	 onsetBar 	 durationBeats 	 velocity  	 numerator 	 denominator 
68	1.61959	0.0406349	0	0	2.10628e-035	0	1	4	4
67	1.66603	0.0406349	0	0	2.10628e-035	0	1	4	4
67	1.71247	0.20898	0	0	2.10628e-035	0	1	4	4
67	1.96209	0.336689	0	0	2.10628e-035	0	1	4	4
67	2.29878	0.330884	0	0	2.10628e-035	0	1	4	4
64	2.62966	0.243809	0	0	2.10628e-035	0	1	4	4
74	3.23918	0.313469	0	0	2.10628e-035	0	1	4	4
74	3.55265	0.0522449	0	0	2.10628e-035	0	1	4	4
62	3.6049	0.267029	0	0	2.10628e-035	0	1	4	4
62	3.88934	0.0406349	0	0	2.10628e-035	0	1	4	4
64	3.96481	0.12771	0	0	2.10628e-035	0	1	4	4
67	4.3073	0.307664	0	0	2.10628e-035	0	1	4	4
68	4.63238	0.0348296	0	0	2.10628e-035	0	1	4	4
67	4.66721	0.133515	0	0	2.10628e-035	0	1	4	4
67	4.80073	0.278639	0	0	2.10628e-035	0	1	4	4
67	5.13161	0.203175	0	0	2.10628e-035	0	1	4	4
66	5.33478	0.12771	0	0	2.10628e-035	0	1	4	4
65	5.46249	0.0348296	0	0	2.10628e-035	0	1	4	4
62	5.83401	0.110295	0	0	2.10628e-035	0	1	4	4
62	5.94431	0.168344	0	0	2.10628e-035	0	1	4	4
62	6.11265	0.406349	0	0	2.10628e-035	0	1	4	4
63	6.519	0.0348301	0	0	2.10628e-035	0	1	4	4
64	6.73379	0.0754652	0	0	2.10628e-035	0	1	4	4
67	6.98921	0.110295	0	0	2.10628e-035	0	1	4	4
68	7.0995	0.150929	0	0	2.10628e-035	0	1	4	4
69	7.29107	0.342494	0	0	2.10628e-035	0	1	4	4
67	7.63356	0.0290246	0	0	2.10628e-035	0	1	4	4
67	7.66839	0.0986848	0	0	2.10628e-035	0	1	4	4
69	7.81351	0.27864	0	0	2.10628e-035	0	1	4	4
69	8.09215	0.301859	0	0	2.10628e-035	0	1	4	4
71	8.39401	0.179955	0	0	2.10628e-035	0	1	4	4
66	10.0542	0.0290251	0	0	2.10628e-035	0	1	4	4
69	10.3967	0.168344	0	0	2.10628e-035	0	1	4	4
70	10.5825	0.0986853	0	0	2.10628e-035	0	1	4	4
69	10.6812	0.168344	0	0	2.10628e-035	0	1	4	4
67	11.0875	0.290249	0	0	2.10628e-035	0	1	4	4
66	11.4765	0.10449	0	0	2.10628e-035	0	1	4	4
73	11.8073	0.0870752	0	0	2.10628e-035	0	1	4	4
61	11.8944	0.296055	0	0	2.10628e-035	0	1	4	4
73	13.9668	0.0232201	0	0	2.10628e-035	0	1	4	4
76	13.9958	1.24227	0	0	2.10628e-035	0	1	4	4
74	15.4006	0.2322	0	0	2.10628e-035	0	1	4	4
74	15.6328	0.667573	0	0	2.10628e-035	0	1	4	4
75	16.3004	0.0580502	0	0	2.10628e-035	0	1	4	4
65	18.6108	0.208979	0	0	2.10628e-035	0	1	4	4
68	18.8198	0.10449	0	0	2.10628e-035	0	1	4	4
70	18.9243	0.238005	0	0	2.10628e-035	0	1	4	4
72	19.3248	0.0986862	0	0	2.10628e-035	0	1	4	4
67	19.4235	0.121904	0	0	2.10628e-035	0	1	4	4
66	19.5454	0.0928802	0	0	2.10628e-035	0	1	4	4
69	19.6615	0.0232182	0	0	2.10628e-035	0	1	4	4
66	19.6847	0.313471	0	0	2.10628e-035	0	1	4	4
67	19.9982	0.0754642	0	0	2.10628e-035	0	1	4	4
67	20.2594	0.330883	0	0	2.10628e-035	0	1	4	4
67	20.7528	0.156734	0	0	2.10628e-035	0	1	4	4
76	23.9514	0.0464382	0	0	2.10628e-035	0	1	4	4
66	23.9978	0.12771	0	0	2.10628e-035	0	1	4	4
66	24.1255	0.342495	0	0	2.10628e-035	0	1	4	4
66	24.6712	0.208979	0	0	2.10628e-035	0	1	4	4
66	24.8802	0.10449	0	0	2.10628e-035	0	1	4	4
67	24.9847	0.0522442	0	0	2.10628e-035	0	1	4	4
66	25.0369	0.12771	0	0	2.10628e-035	0	1	4	4
66	25.2923	0.127708	0	0	2.10628e-035	0	1	4	4
65	25.838	0.110296	0	0	2.10628e-035	0	1	4	4
62	26.0934	0.13932	0	0	2.10628e-035	0	1	4	4
62	26.2327	0.139318	0	0	2.10628e-035	0	1	4	4
62	26.4707	0.156736	0	0	2.10628e-035	0	1	4	4
59	28.189	0.203175	0	0	2.10628e-035	0	1	4	4
63	28.578	0.162539	0	0	2.10628e-035	0	1	4	4
64	28.9785	0.15093	0	0	2.10628e-035	0	1	4	4
64	29.1294	0.319275	0	0	2.10628e-035	0	1	4	4
62	29.4487	0.0986843	0	0	2.10628e-035	0	1	4	4
60	29.5474	0.226395	0	0	2.10628e-035	0	1	4	4
