midiPitch 	 onsetSec 	 durationSec 	 onsetBeats 	 onsetBarIndex 	 onsetBar 	 durationBeats 	 velocity  	 numerator 	 denominator 
63	0.417959	0.10449	0	0	3.79905e-035	0	1	4	4
64	0.522449	0.1161	0	0	3.79905e-035	0	1	4	4
66	0.725624	0.10449	0	0	3.79905e-035	0	1	4	4
61	0.876553	0.267029	0	0	3.79905e-035	0	1	4	4
60	1.14358	0.18576	0	0	3.79905e-035	0	1	4	4
61	1.32934	0.22059	0	0	3.79905e-035	0	1	4	4
62	1.71247	0.0986848	0	0	3.79905e-035	0	1	4	4
59	1.81116	0.156735	0	0	3.79905e-035	0	1	4	4
58	1.96789	0.214785	0	0	3.79905e-035	0	1	4	4
57	2.51937	0.16254	0	0	3.79905e-035	0	1	4	4
63	2.83864	0.0870748	0	0	3.79905e-035	0	1	4	4
63	3.00698	0.284445	0	0	3.79905e-035	0	1	4	4
63	3.29143	0.133515	0	0	3.79905e-035	0	1	4	4
61	3.47138	0.145125	0	0	3.79905e-035	0	1	4	4
63	3.62812	0.121905	0	0	3.79905e-035	0	1	4	4
64	3.75002	0.12771	0	0	3.79905e-035	0	1	4	4
62	3.9532	0.133515	0	0	3.79905e-035	0	1	4	4
65	4.14476	0.191565	0	0	3.79905e-035	0	1	4	4
66	4.33633	0.226394	0	0	3.79905e-035	0	1	4	4
57	5.14322	0.17415	0	0	3.79905e-035	0	1	4	4
58	5.41605	0.0406351	0	0	3.79905e-035	0	1	4	4
62	5.62503	0.168344	0	0	3.79905e-035	0	1	4	4
64	5.83401	0.319274	0	0	3.79905e-035	0	1	4	4
64	6.15329	0.226395	0	0	3.79905e-035	0	1	4	4
64	6.37968	0.203175	0	0	3.79905e-035	0	1	4	4
64	6.7512	0.278639	0	0	3.79905e-035	0	1	4	4
61	7.02984	0.760454	0	0	3.79905e-035	0	1	4	4
69	12.4111	0.16254	0	0	3.79905e-035	0	1	4	4
69	12.5736	0.0290251	0	0	3.79905e-035	0	1	4	4
69	12.6084	0.110295	0	0	3.79905e-035	0	1	4	4
65	12.8813	0.145124	0	0	3.79905e-035	0	1	4	4
64	13.0844	0.0522451	0	0	3.79905e-035	0	1	4	4
62	13.1367	0.22059	0	0	3.79905e-035	0	1	4	4
64	13.3573	0.261225	0	0	3.79905e-035	0	1	4	4
62	13.6533	0.110295	0	0	3.79905e-035	0	1	4	4
64	13.8797	0.145125	0	0	3.79905e-035	0	1	4	4
64	14.1932	0.203175	0	0	3.79905e-035	0	1	4	4
62	14.5067	0.0580502	0	0	3.79905e-035	0	1	4	4
65	14.6982	0.261225	0	0	3.79905e-035	0	1	4	4
58	15.7025	0.156735	0	0	3.79905e-035	0	1	4	4
61	16.0508	0.0928802	0	0	3.79905e-035	0	1	4	4
61	16.1437	0.17415	0	0	3.79905e-035	0	1	4	4
64	16.521	0.255419	0	0	3.79905e-035	0	1	4	4
64	16.8461	0.16254	0	0	3.79905e-035	0	1	4	4
63	17.3395	0.16254	0	0	3.79905e-035	0	1	4	4
64	17.9897	0.0870743	0	0	3.79905e-035	0	1	4	4
64	18.1522	0.12771	0	0	3.79905e-035	0	1	4	4
62	18.2799	0.1161	0	0	3.79905e-035	0	1	4	4
63	18.396	0.307663	0	0	3.79905e-035	0	1	4	4
64	18.7675	0.127708	0	0	3.79905e-035	0	1	4	4
64	19.29	0.12771	0	0	3.79905e-035	0	1	4	4
64	19.4177	0.214785	0	0	3.79905e-035	0	1	4	4
66	19.7834	0.435373	0	0	3.79905e-035	0	1	4	4
58	20.5729	0.319275	0	0	3.79905e-035	0	1	4	4
58	20.8922	0.0754642	0	0	3.79905e-035	0	1	4	4
61	21.2405	0.255419	0	0	3.79905e-035	0	1	4	4
63	21.5597	0.168344	0	0	3.79905e-035	0	1	4	4
62	21.7687	0.133514	0	0	3.79905e-035	0	1	4	4
64	21.9022	0.121904	0	0	3.79905e-035	0	1	4	4
63	22.0241	0.1161	0	0	3.79905e-035	0	1	4	4
66	23.1677	0.417959	0	0	3.79905e-035	0	1	4	4
72	28.4909	0.743038	0	0	3.79905e-035	0	1	4	4
