midiPitch 	 onsetSec 	 durationSec 	 onsetBeats 	 onsetBarIndex 	 onsetBar 	 durationBeats 	 velocity  	 numerator 	 denominator 
72	5.13741	0.0232201	0	0	0	0	1	4	4
72	7.58132	0.0290251	0	0	0	0	1	4	4
70	8.2663	0.0232201	0	0	0	0	1	4	4
73	8.81197	0.0290251	0	0	0	0	1	4	4
69	8.89324	0.0232191	0	0	0	0	1	4	4
68	9.35764	0.0348301	0	0	0	0	1	4	4
61	9.78141	0.470204	0	0	0	0	1	4	4
64	10.5999	0.0348301	0	0	0	0	1	4	4
65	10.6405	0.336689	0	0	0	0	1	4	4
62	11.0875	0.249615	0	0	0	0	1	4	4
58	12.5039	0.0290251	0	0	0	0	1	4	4
58	12.5678	0.0348301	0	0	0	0	1	4	4
58	12.6026	0.0986843	0	0	0	0	1	4	4
59	12.7013	0.0580502	0	0	0	0	1	4	4
59	12.7594	0.0290251	0	0	0	0	1	4	4
61	13.1135	0.168344	0	0	0	0	1	4	4
64	13.7462	0.116099	0	0	0	0	1	4	4
65	13.8623	0.1161	0	0	0	0	1	4	4
64	13.9784	0.110294	0	0	0	0	1	4	4
61	14.3035	0.26703	0	0	0	0	1	4	4
59	15.807	0.0580502	0	0	0	0	1	4	4
61	16.6255	0.0870762	0	0	0	0	1	4	4
64	16.8171	0.191566	0	0	0	0	1	4	4
64	17.0202	0.13932	0	0	0	0	1	4	4
64	17.1595	0.0638542	0	0	0	0	1	4	4
61	17.4034	0.0290241	0	0	0	0	1	4	4
61	17.5833	0.0290241	0	0	0	0	1	4	4
60	17.6123	0.0754642	0	0	0	0	1	4	4
72	17.6123	0.0812702	0	0	0	0	1	4	4
72	18.9707	0.0928783	0	0	0	0	1	4	4
60	18.9649	0.17415	0	0	0	0	1	4	4
62	19.1623	0.162539	0	0	0	0	1	4	4
61	19.3712	0.168344	0	0	0	0	1	4	4
64	19.9517	0.0290241	0	0	0	0	1	4	4
64	20.004	0.0580502	0	0	0	0	1	4	4
64	20.1839	0.214785	0	0	0	0	1	4	4
63	20.538	0.0754642	0	0	0	0	1	4	4
60	20.6367	0.0754642	0	0	0	0	1	4	4
61	20.7122	0.0348301	0	0	0	0	1	4	4
59	22.3144	0.150928	0	0	0	0	1	4	4
59	22.5117	0.354105	0	0	0	0	1	4	4
62	22.8659	0.197369	0	0	0	0	1	4	4
62	23.307	0.365713	0	0	0	0	1	4	4
60	23.696	0.156734	0	0	0	0	1	4	4
61	23.8527	0.0464401	0	0	0	0	1	4	4
62	23.8991	0.15093	0	0	0	0	1	4	4
61	24.0501	0.238005	0	0	0	0	1	4	4
58	24.5725	0.0406342	0	0	0	0	1	4	4
62	25.5942	0.17415	0	0	0	0	1	4	4
65	26.1979	0.0696583	0	0	0	0	1	4	4
64	26.2676	0.0406361	0	0	0	0	1	4	4
64	26.3256	0.10449	0	0	0	0	1	4	4
64	26.4301	0.18576	0	0	0	0	1	4	4
64	26.6159	0.0754642	0	0	0	0	1	4	4
62	26.8829	0.0638542	0	0	0	0	1	4	4
70	28.1542	0.121906	0	0	0	0	1	4	4
60	28.2877	0.133516	0	0	0	0	1	4	4
61	28.4212	0.0464401	0	0	0	0	1	4	4
62	28.5547	0.0464401	0	0	0	0	1	4	4
62	28.7115	0.15093	0	0	0	0	1	4	4
