midiPitch 	 onsetSec 	 durationSec 	 onsetBeats 	 onsetBarIndex 	 onsetBar 	 durationBeats 	 velocity  	 numerator 	 denominator 
54	0.0754649	0.16254	0	0	0	0	1	4	4
51	0.238005	0.429569	0	0	0	0	1	4	4
54	0.667574	0.737234	0	0	0	0	1	4	4
50	1.50349	0.319274	0	0	0	0	1	4	4
49	1.95048	0.354104	0	0	0	0	1	4	4
50	2.30458	0.0928798	0	0	0	0	1	4	4
48	7.51166	0.19737	0	0	0	0	1	4	4
51	7.74385	0.284445	0	0	0	0	1	4	4
52	8.0283	0.946213	0	0	0	0	1	4	4
55	8.99193	0.330885	0	0	0	0	1	4	4
55	9.32281	0.296054	0	0	0	0	1	4	4
57	9.61887	0.655964	0	0	0	0	1	4	4
57	10.2748	0.150929	0	0	0	0	1	4	4
47	10.5419	0.319274	0	0	0	0	1	4	4
53	11.8073	0.133515	0	0	0	0	1	4	4
55	12.0454	0.25542	0	0	0	0	1	4	4
56	13.0322	0.0928802	0	0	0	0	1	4	4
52	13.2238	0.615329	0	0	0	0	1	4	4
54	13.8681	0.22059	0	0	0	0	1	4	4
51	14.2338	0.528254	0	0	0	0	1	4	4
54	14.8376	0.998458	0	0	0	0	1	4	4
55	15.836	0.22059	0	0	0	0	1	4	4
50	16.6893	0.133514	0	0	0	0	1	4	4
50	16.8229	0.12771	0	0	0	0	1	4	4
51	16.9506	0.168344	0	0	0	0	1	4	4
51	17.2815	0.313471	0	0	0	0	1	4	4
49	17.8852	0.719818	0	0	0	0	1	4	4
51	18.605	0.156734	0	0	0	0	1	4	4
51	19.3945	0.249615	0	0	0	0	1	4	4
51	19.6441	0.54567	0	0	0	0	1	4	4
57	21.8558	0.481815	0	0	0	0	1	4	4
55	22.4653	0.539864	0	0	0	0	1	4	4
53	23.0052	0.65016	0	0	0	0	1	4	4
52	23.6553	0.580498	0	0	0	0	1	4	4
50	24.2358	0.957825	0	0	0	0	1	4	4
55	25.2633	0.824308	0	0	0	0	1	4	4
54	26.0876	0.0406361	0	0	0	0	1	4	4
52	27.1267	0.214785	0	0	0	0	1	4	4
51	27.3415	0.354105	0	0	0	0	1	4	4
51	27.6956	0.586304	0	0	0	0	1	4	4
50	28.2819	0.801088	0	0	0	0	1	4	4
