midiPitch 	 onsetSec 	 durationSec 	 onsetBeats 	 onsetBarIndex 	 onsetBar 	 durationBeats 	 velocity  	 numerator 	 denominator 
71	1.26549	0.156735	0	0	1.97463e-035	0	1	4	4
71	1.42222	0.075465	0	0	1.97463e-035	0	1	4	4
71	1.49769	0.179955	0	0	1.97463e-035	0	1	4	4
71	1.67764	0.719818	0	0	1.97463e-035	0	1	4	4
71	2.39746	0.16254	0	0	1.97463e-035	0	1	4	4
71	2.56	0.19737	0	0	1.97463e-035	0	1	4	4
71	2.75737	0.121905	0	0	1.97463e-035	0	1	4	4
71	2.87927	0.626939	0	0	1.97463e-035	0	1	4	4
71	3.57007	0.255419	0	0	1.97463e-035	0	1	4	4
71	3.82549	0.16254	0	0	1.97463e-035	0	1	4	4
71	3.99964	0.574694	0	0	1.97463e-035	0	1	4	4
71	4.57433	0.191565	0	0	1.97463e-035	0	1	4	4
67	7.07048	0.203175	0	0	1.97463e-035	0	1	4	4
55	7.07048	0.342494	0	0	1.97463e-035	0	1	4	4
55	7.43619	0.336689	0	0	1.97463e-035	0	1	4	4
55	7.77288	1.03329	0	0	1.97463e-035	0	1	4	4
55	8.80617	0.882359	0	0	1.97463e-035	0	1	4	4
55	9.68853	0.0928793	0	0	1.97463e-035	0	1	4	4
54	9.78141	1.26549	0	0	1.97463e-035	0	1	4	4
54	11.0469	0.0464401	0	0	1.97463e-035	0	1	4	4
53	11.0933	0.0696602	0	0	1.97463e-035	0	1	4	4
53	11.163	0.580499	0	0	1.97463e-035	0	1	4	4
53	11.7435	0.17415	0	0	1.97463e-035	0	1	4	4
53	11.9176	0.731428	0	0	1.97463e-035	0	1	4	4
52	12.6839	0.0696602	0	0	1.97463e-035	0	1	4	4
52	12.7536	0.0464401	0	0	1.97463e-035	0	1	4	4
50	12.8174	0.0696602	0	0	1.97463e-035	0	1	4	4
52	12.8871	0.557279	0	0	1.97463e-035	0	1	4	4
52	13.4444	0.27864	0	0	1.97463e-035	0	1	4	4
55	21.0024	0.232199	0	0	1.97463e-035	0	1	4	4
54	24.0385	0.0812702	0	0	1.97463e-035	0	1	4	4
59	24.1197	0.673378	0	0	1.97463e-035	0	1	4	4
59	24.7931	0.0580502	0	0	1.97463e-035	0	1	4	4
55	24.8512	0.377323	0	0	1.97463e-035	0	1	4	4
54	25.6058	0.0522442	0	0	1.97463e-035	0	1	4	4
55	25.6755	0.15093	0	0	1.97463e-035	0	1	4	4
55	25.8264	0.0464382	0	0	1.97463e-035	0	1	4	4
55	25.8786	0.185759	0	0	1.97463e-035	0	1	4	4
56	26.1108	0.0986862	0	0	1.97463e-035	0	1	4	4
57	26.2095	0.516644	0	0	1.97463e-035	0	1	4	4
58	26.9293	0.174149	0	0	1.97463e-035	0	1	4	4
55	27.3821	0.325079	0	0	1.97463e-035	0	1	4	4
55	27.7072	0.0406342	0	0	1.97463e-035	0	1	4	4
55	27.7478	0.249615	0	0	1.97463e-035	0	1	4	4
55	27.9975	1.13778	0	0	1.97463e-035	0	1	4	4
55	29.1352	0.313471	0	0	1.97463e-035	0	1	4	4
