midiPitch 	 onsetSec 	 durationSec 	 onsetBeats 	 onsetBarIndex 	 onsetBar 	 durationBeats 	 velocity  	 numerator 	 denominator 
59	0.261224	0.0406349	0	0	0	0	1	4	4
62	0.330884	0.168345	0	0	0	0	1	4	4
67	0.708209	0.145125	0	0	0	0	1	4	4
66	0.853333	0.179955	0	0	0	0	1	4	4
71	1.93306	0.0696598	0	0	0	0	1	4	4
62	2.26975	0.0696597	0	0	0	0	1	4	4
67	2.64707	0.0986848	0	0	0	0	1	4	4
58	3.03601	0.1161	0	0	0	0	1	4	4
62	3.27401	0.10449	0	0	0	0	1	4	4
59	3.51202	0.0696599	0	0	0	0	1	4	4
56	3.58168	0.0232201	0	0	0	0	1	4	4
57	3.6107	0.17415	0	0	0	0	1	4	4
60	4.5337	0.1161	0	0	0	0	1	4	4
59	4.6498	0.0464396	0	0	0	0	1	4	4
61	4.71365	0.0580497	0	0	0	0	1	4	4
61	4.81814	0.214785	0	0	0	0	1	4	4
61	5.03293	0.150929	0	0	0	0	1	4	4
62	5.42186	0.0232201	0	0	0	0	1	4	4
57	5.4741	0.0812697	0	0	0	0	1	4	4
65	5.68308	0.0754647	0	0	0	0	1	4	4
57	5.75855	0.10449	0	0	0	0	1	4	4
59	5.86304	0.255419	0	0	0	0	1	4	4
63	6.15909	0.121905	0	0	0	0	1	4	4
62	6.281	0.0522447	0	0	0	0	1	4	4
59	6.46676	0.0754647	0	0	0	0	1	4	4
62	7.63356	0.0696597	0	0	0	0	1	4	4
62	7.70322	0.313469	0	0	0	0	1	4	4
68	8.98612	0.121905	0	0	0	0	1	4	4
69	9.38667	0.0812702	0	0	0	0	1	4	4
66	9.46794	0.0870743	0	0	0	0	1	4	4
67	10.4316	0.342494	0	0	0	0	1	4	4
65	10.7741	0.1161	0	0	0	0	1	4	4
54	13.6417	0.0348301	0	0	0	0	1	4	4
58	13.8913	0.0406351	0	0	0	0	1	4	4
57	13.9784	0.19737	0	0	0	0	1	4	4
59	14.1758	0.19737	0	0	0	0	1	4	4
62	14.466	0.168345	0	0	0	0	1	4	4
58	14.7969	0.0638552	0	0	0	0	1	4	4
58	15.2033	0.110294	0	0	0	0	1	4	4
55	16.5036	0.249615	0	0	0	0	1	4	4
58	16.7706	0.0232201	0	0	0	0	1	4	4
57	16.8171	0.12771	0	0	0	0	1	4	4
57	16.9448	0.133514	0	0	0	0	1	4	4
57	17.0783	0.10449	0	0	0	0	1	4	4
59	17.206	0.0522442	0	0	0	0	1	4	4
62	17.3917	0.191565	0	0	0	0	1	4	4
57	17.7226	0.0928802	0	0	0	0	1	4	4
58	17.8155	0.0464401	0	0	0	0	1	4	4
59	17.8619	0.0812702	0	0	0	0	1	4	4
66	17.9432	0.168344	0	0	0	0	1	4	4
54	19.2958	0.133514	0	0	0	0	1	4	4
57	19.586	0.208981	0	0	0	0	1	4	4
66	19.8066	0.232199	0	0	0	0	1	4	4
59	20.0388	0.12771	0	0	0	0	1	4	4
66	20.4858	0.0928783	0	0	0	0	1	4	4
59	20.5961	0.110294	0	0	0	0	1	4	4
66	20.7064	0.0580502	0	0	0	0	1	4	4
66	20.9966	0.133514	0	0	0	0	1	4	4
69	22.5756	0.0232201	0	0	0	0	1	4	4
66	22.5872	0.133516	0	0	0	0	1	4	4
57	22.9994	0.0406342	0	0	0	0	1	4	4
65	23.04	0.0348301	0	0	0	0	1	4	4
65	23.0806	0.203175	0	0	0	0	1	4	4
66	23.2838	0.423763	0	0	0	0	1	4	4
65	24.468	0.342493	0	0	0	0	1	4	4
65	24.8105	0.429569	0	0	0	0	1	4	4
62	25.2401	0.226395	0	0	0	0	1	4	4
62	25.7335	0.0522442	0	0	0	0	1	4	4
62	25.8206	0.0348301	0	0	0	0	1	4	4
63	26.1979	0.0464382	0	0	0	0	1	4	4
63	26.1979	0.0522442	0	0	0	0	1	4	4
66	26.2385	0.01161	0	0	0	0	1	4	4
63	26.1979	0.0580482	0	0	0	0	1	4	4
66	26.2385	0.18576	0	0	0	0	1	4	4
59	26.5927	0.0696583	0	0	0	0	1	4	4
64	26.6623	0.0986862	0	0	0	0	1	4	4
62	27.4982	0.371521	0	0	0	0	1	4	4
63	27.8698	0.0696583	0	0	0	0	1	4	4
57	28.189	0.290251	0	0	0	0	1	4	4
58	28.4793	0.0638542	0	0	0	0	1	4	4
58	28.4793	0.0696583	0	0	0	0	1	4	4
66	28.5373	0.01161	0	0	0	0	1	4	4
58	28.4793	0.0754642	0	0	0	0	1	4	4
66	28.5373	0.017416	0	0	0	0	1	4	4
58	28.4793	0.0812683	0	0	0	0	1	4	4
66	28.5373	0.0232201	0	0	0	0	1	4	4
58	28.4793	0.0870743	0	0	0	0	1	4	4
66	28.5373	0.203175	0	0	0	0	1	4	4
57	28.7405	0.313471	0	0	0	0	1	4	4
60	29.054	0.0812683	0	0	0	0	1	4	4
62	29.1352	0.029026	0	0	0	0	1	4	4
62	29.1643	0.0232201	0	0	0	0	1	4	4
62	29.1933	0.0464401	0	0	0	0	1	4	4
62	29.1933	0.0522461	0	0	0	0	1	4	4
67	29.2339	0.01161	0	0	0	0	1	4	4
62	29.1933	0.0580502	0	0	0	0	1	4	4
67	29.2339	0.0174141	0	0	0	0	1	4	4
62	29.1933	0.0638561	0	0	0	0	1	4	4
67	29.2339	0.0232201	0	0	0	0	1	4	4
62	29.1933	0.0696602	0	0	0	0	1	4	4
67	29.2339	0.272835	0	0	0	0	1	4	4
