midiPitch 	 onsetSec 	 durationSec 	 onsetBeats 	 onsetBarIndex 	 onsetBar 	 durationBeats 	 velocity  	 numerator 	 denominator 
68	0.603719	0.18576	0	0	1.99331e-035	0	1	4	4
68	0.789478	0.261225	0	0	1.99331e-035	0	1	4	4
68	1.0507	0.17415	0	0	1.99331e-035	0	1	4	4
68	1.22485	0.238005	0	0	1.99331e-035	0	1	4	4
66	1.68345	0.441179	0	0	1.99331e-035	0	1	4	4
67	3.16372	0.168345	0	0	1.99331e-035	0	1	4	4
64	3.33206	0.272835	0	0	1.99331e-035	0	1	4	4
63	3.6049	0.203175	0	0	1.99331e-035	0	1	4	4
63	3.80807	0.661768	0	0	1.99331e-035	0	1	4	4
63	5.7063	0.0348301	0	0	1.99331e-035	0	1	4	4
64	5.75855	0.725624	0	0	1.99331e-035	0	1	4	4
71	6.57705	0.284444	0	0	1.99331e-035	0	1	4	4
71	6.8615	0.261225	0	0	1.99331e-035	0	1	4	4
66	7.12272	1.41642	0	0	1.99331e-035	0	1	4	4
64	8.93388	0.17415	0	0	1.99331e-035	0	1	4	4
64	9.10803	0.464398	0	0	1.99331e-035	0	1	4	4
64	9.57243	0.0348301	0	0	1.99331e-035	0	1	4	4
66	10.5767	0.22059	0	0	1.99331e-035	0	1	4	4
66	10.7973	0.406349	0	0	1.99331e-035	0	1	4	4
64	11.2501	0.238005	0	0	1.99331e-035	0	1	4	4
66	11.8944	0.116099	0	0	1.99331e-035	0	1	4	4
64	12.0976	0.29025	0	0	1.99331e-035	0	1	4	4
71	13.1541	0.313469	0	0	1.99331e-035	0	1	4	4
69	13.4676	0.22059	0	0	1.99331e-035	0	1	4	4
68	13.6882	0.272835	0	0	1.99331e-035	0	1	4	4
68	14.0423	0.452789	0	0	1.99331e-035	0	1	4	4
68	14.4951	0.284445	0	0	1.99331e-035	0	1	4	4
71	14.8898	0.12771	0	0	1.99331e-035	0	1	4	4
69	15.0175	0.179955	0	0	1.99331e-035	0	1	4	4
68	15.3078	0.18576	0	0	1.99331e-035	0	1	4	4
66	15.7605	0.18576	0	0	1.99331e-035	0	1	4	4
65	15.9463	0.0406351	0	0	1.99331e-035	0	1	4	4
64	16.6777	0.0928802	0	0	1.99331e-035	0	1	4	4
64	16.7706	0.0232201	0	0	1.99331e-035	0	1	4	4
64	16.7938	0.150928	0	0	1.99331e-035	0	1	4	4
66	17.0086	0.156734	0	0	1.99331e-035	0	1	4	4
69	17.1654	0.0522442	0	0	1.99331e-035	0	1	4	4
68	17.235	0.0696602	0	0	1.99331e-035	0	1	4	4
66	17.3976	0.110294	0	0	1.99331e-035	0	1	4	4
66	17.5195	0.168344	0	0	1.99331e-035	0	1	4	4
66	17.6878	0.168344	0	0	1.99331e-035	0	1	4	4
66	17.8561	0.243811	0	0	1.99331e-035	0	1	4	4
66	18.1	0.0580502	0	0	1.99331e-035	0	1	4	4
67	18.158	0.0348301	0	0	1.99331e-035	0	1	4	4
65	18.1928	0.0232201	0	0	1.99331e-035	0	1	4	4
64	18.7153	0.12771	0	0	1.99331e-035	0	1	4	4
65	18.8894	0.220589	0	0	1.99331e-035	0	1	4	4
71	19.9866	0.336689	0	0	1.99331e-035	0	1	4	4
69	20.3233	0.203175	0	0	1.99331e-035	0	1	4	4
68	20.5264	0.0638542	0	0	1.99331e-035	0	1	4	4
68	20.5903	0.0696602	0	0	1.99331e-035	0	1	4	4
68	20.66	0.0580502	0	0	1.99331e-035	0	1	4	4
71	20.8051	0.133514	0	0	1.99331e-035	0	1	4	4
69	20.9386	0.029026	0	0	1.99331e-035	0	1	4	4
68	20.9734	0.226395	0	0	1.99331e-035	0	1	4	4
69	21.1998	0.10449	0	0	1.99331e-035	0	1	4	4
68	21.3043	0.243809	0	0	1.99331e-035	0	1	4	4
68	21.7861	0.197371	0	0	1.99331e-035	0	1	4	4
80	22.4479	0.197369	0	0	1.99331e-035	0	1	4	4
76	23.1561	0.0754642	0	0	1.99331e-035	0	1	4	4
63	23.2316	0.0696602	0	0	1.99331e-035	0	1	4	4
64	23.3186	0.0928783	0	0	1.99331e-035	0	1	4	4
70	23.6205	0.110294	0	0	1.99331e-035	0	1	4	4
64	23.7308	0.0406361	0	0	1.99331e-035	0	1	4	4
64	23.8585	0.179955	0	0	1.99331e-035	0	1	4	4
78	24.2242	0.406349	0	0	1.99331e-035	0	1	4	4
69	24.6364	0.0580502	0	0	1.99331e-035	0	1	4	4
69	24.6944	0.150928	0	0	1.99331e-035	0	1	4	4
64	25.0834	0.406349	0	0	1.99331e-035	0	1	4	4
64	25.7219	0.139318	0	0	1.99331e-035	0	1	4	4
66	25.8612	0.0870762	0	0	1.99331e-035	0	1	4	4
66	25.9483	0.116098	0	0	1.99331e-035	0	1	4	4
67	26.0644	0.0464401	0	0	1.99331e-035	0	1	4	4
68	26.1108	0.029026	0	0	1.99331e-035	0	1	4	4
68	26.1515	0.0464401	0	0	1.99331e-035	0	1	4	4
69	26.1979	0.0522442	0	0	1.99331e-035	0	1	4	4
69	26.2502	0.0580502	0	0	1.99331e-035	0	1	4	4
69	26.3082	0.272835	0	0	1.99331e-035	0	1	4	4
68	26.7552	0.388935	0	0	1.99331e-035	0	1	4	4
66	27.2196	0.1161	0	0	1.99331e-035	0	1	4	4
64	27.5563	0.975239	0	0	1.99331e-035	0	1	4	4
