midiPitch 	 onsetSec 	 durationSec 	 onsetBeats 	 onsetBarIndex 	 onsetBar 	 durationBeats 	 velocity  	 numerator 	 denominator 
80	0.301859	0.0696599	0	0	0	0	1	4	4
80	0.371519	0.0986848	0	0	0	0	1	4	4
81	0.470204	0.0812698	0	0	0	0	1	4	4
78	1.53252	0.0754648	0	0	0	0	1	4	4
72	1.60798	0.0232199	0	0	0	0	1	4	4
69	1.67184	0.0406349	0	0	0	0	1	4	4
57	1.68925	0.0754648	0	0	0	0	1	4	4
56	1.76472	0.0580499	0	0	0	0	1	4	4
57	1.82277	0.145125	0	0	0	0	1	4	4
60	1.96789	0.249615	0	0	0	0	1	4	4
55	2.58322	0.232199	0	0	0	0	1	4	4
55	2.81542	0.203175	0	0	0	0	1	4	4
55	3.29143	0.725624	0	0	0	0	1	4	4
57	4.01705	0.261224	0	0	0	0	1	4	4
55	4.27828	1.25388	0	0	0	0	1	4	4
55	6.14168	0.12771	0	0	0	0	1	4	4
56	6.2868	0.1161	0	0	0	0	1	4	4
56	6.4029	0.220589	0	0	0	0	1	4	4
65	6.97179	0.133515	0	0	0	0	1	4	4
64	7.10531	0.162539	0	0	0	0	1	4	4
64	7.46522	0.121905	0	0	0	0	1	4	4
64	7.58712	0.0928798	0	0	0	0	1	4	4
64	7.68	0.162539	0	0	0	0	1	4	4
64	7.84254	0.0870752	0	0	0	0	1	4	4
56	8.20245	0.0696602	0	0	0	0	1	4	4
55	8.27211	0.168344	0	0	0	0	1	4	4
55	8.51011	0.13932	0	0	0	0	1	4	4
66	8.75973	0.0406351	0	0	0	0	1	4	4
64	8.80036	0.0232201	0	0	0	0	1	4	4
65	8.82358	0.330884	0	0	0	0	1	4	4
65	9.15447	0.10449	0	0	0	0	1	4	4
65	9.25896	0.0696592	0	0	0	0	1	4	4
65	9.49116	0.0870743	0	0	0	0	1	4	4
65	9.57823	0.0232201	0	0	0	0	1	4	4
65	9.60726	0.359909	0	0	0	0	1	4	4
55	10.2922	0.168344	0	0	0	0	1	4	4
55	10.5361	0.17415	0	0	0	0	1	4	4
64	10.8785	0.307664	0	0	0	0	1	4	4
64	11.1862	0.110295	0	0	0	0	1	4	4
64	11.3255	0.0290251	0	0	0	0	1	4	4
64	11.5403	0.156734	0	0	0	0	1	4	4
64	11.6971	0.18576	0	0	0	0	1	4	4
64	12.3182	0.20898	0	0	0	0	1	4	4
64	12.5272	0.127709	0	0	0	0	1	4	4
64	12.6549	0.0986853	0	0	0	0	1	4	4
62	13.0496	0.26703	0	0	0	0	1	4	4
60	13.3166	0.0870752	0	0	0	0	1	4	4
60	13.4037	0.121904	0	0	0	0	1	4	4
60	13.5256	0.0232201	0	0	0	0	1	4	4
60	13.6417	0.145125	0	0	0	0	1	4	4
60	13.7868	0.0232201	0	0	0	0	1	4	4
64	15.1394	0.0870752	0	0	0	0	1	4	4
64	15.2265	0.0522442	0	0	0	0	1	4	4
64	15.36	0.0812702	0	0	0	0	1	4	4
64	15.6038	0.116099	0	0	0	0	1	4	4
64	15.7199	0.0232201	0	0	0	0	1	4	4
57	16.4455	0.330885	0	0	0	0	1	4	4
60	16.7764	0.133514	0	0	0	0	1	4	4
65	17.2408	0.0232201	0	0	0	0	1	4	4
56	17.264	0.0348301	0	0	0	0	1	4	4
65	17.3511	0.110294	0	0	0	0	1	4	4
65	17.4614	0.0232201	0	0	0	0	1	4	4
65	17.6472	0.156734	0	0	0	0	1	4	4
66	17.8039	0.0464401	0	0	0	0	1	4	4
64	17.9548	0.255419	0	0	0	0	1	4	4
62	18.2393	0.127708	0	0	0	0	1	4	4
61	18.4366	0.0986843	0	0	0	0	1	4	4
63	19.0636	0.0870762	0	0	0	0	1	4	4
64	19.1507	0.0754642	0	0	0	0	1	4	4
64	19.2784	0.0348301	0	0	0	0	1	4	4
64	19.348	0.12771	0	0	0	0	1	4	4
64	19.7544	0.0580502	0	0	0	0	1	4	4
64	19.8995	0.0638561	0	0	0	0	1	4	4
64	19.9634	0.0870743	0	0	0	0	1	4	4
66	20.4916	0.0812702	0	0	0	0	1	4	4
64	20.5787	0.0812702	0	0	0	0	1	4	4
64	20.66	0.0812702	0	0	0	0	1	4	4
64	20.7644	0.0580502	0	0	0	0	1	4	4
67	20.8225	0.116098	0	0	0	0	1	4	4
64	20.9386	0.0522461	0	0	0	0	1	4	4
62	21.2869	0.110294	0	0	0	0	1	4	4
62	21.4146	0.029026	0	0	0	0	1	4	4
65	21.4378	0.0696602	0	0	0	0	1	4	4
60	21.5365	0.145126	0	0	0	0	1	4	4
60	21.6816	0.0870743	0	0	0	0	1	4	4
64	21.8558	0.0348301	0	0	0	0	1	4	4
60	21.8906	0.15093	0	0	0	0	1	4	4
67	22.146	0.12771	0	0	0	0	1	4	4
65	22.3724	0.0522461	0	0	0	0	1	4	4
65	22.5117	0.0348301	0	0	0	0	1	4	4
60	22.622	0.0696602	0	0	0	0	1	4	4
81	23.3244	0.0580502	0	0	0	0	1	4	4
80	23.3825	0.0928802	0	0	0	0	1	4	4
80	23.4754	0.0348301	0	0	0	0	1	4	4
78	23.545	0.110294	0	0	0	0	1	4	4
79	23.754	0.0522442	0	0	0	0	1	4	4
79	23.8063	0.0232201	0	0	0	0	1	4	4
77	23.8469	0.0464401	0	0	0	0	1	4	4
79	23.8933	0.0580502	0	0	0	0	1	4	4
61	24.0675	0.0406361	0	0	0	0	1	4	4
64	24.9324	0.423763	0	0	0	0	1	4	4
64	25.6697	0.191565	0	0	0	0	1	4	4
60	26.9293	0.145124	0	0	0	0	1	4	4
60	27.0745	0.156734	0	0	0	0	1	4	4
60	27.2312	0.168344	0	0	0	0	1	4	4
60	27.4402	0.121904	0	0	0	0	1	4	4
60	27.5621	0.197369	0	0	0	0	1	4	4
63	28.0091	0.0580502	0	0	0	0	1	4	4
64	28.0671	0.133514	0	0	0	0	1	4	4
64	28.2413	0.121904	0	0	0	0	1	4	4
