midiPitch 	 onsetSec 	 durationSec 	 onsetBeats 	 onsetBarIndex 	 onsetBar 	 durationBeats 	 velocity  	 numerator 	 denominator 
59	0.319274	0.02322	0	0	0	0	1	4	4
59	0.342494	0.0232199	0	0	0	0	1	4	4
59	0.365714	0.0754648	0	0	0	0	1	4	4
60	0.690794	0.0580499	0	0	0	0	1	4	4
59	0.841723	0.0580499	0	0	0	0	1	4	4
61	1.03909	0.191565	0	0	0	0	1	4	4
60	1.35256	0.10449	0	0	0	0	1	4	4
60	1.64862	0.133515	0	0	0	0	1	4	4
60	1.78213	0.10449	0	0	0	0	1	4	4
61	2.02014	0.0348299	0	0	0	0	1	4	4
60	2.05497	0.110295	0	0	0	0	1	4	4
61	2.83283	0.0290248	0	0	0	0	1	4	4
61	3.18113	0.110295	0	0	0	0	1	4	4
59	3.29143	0.156735	0	0	0	0	1	4	4
59	3.63392	0.0232201	0	0	0	0	1	4	4
60	3.90676	0.156734	0	0	0	0	1	4	4
60	4.09252	0.156735	0	0	0	0	1	4	4
59	5.01551	0.0638547	0	0	0	0	1	4	4
59	5.21868	0.13932	0	0	0	0	1	4	4
59	5.358	0.0812697	0	0	0	0	1	4	4
59	5.43927	0.168344	0	0	0	0	1	4	4
62	5.87465	0.0986848	0	0	0	0	1	4	4
60	6.50159	0.139319	0	0	0	0	1	4	4
60	6.64091	0.0406351	0	0	0	0	1	4	4
60	6.68735	0.0812697	0	0	0	0	1	4	4
60	7.7961	0.10449	0	0	0	0	1	4	4
60	8.09215	0.150929	0	0	0	0	1	4	4
59	8.2663	0.0696592	0	0	0	0	1	4	4
59	9.1951	0.0870752	0	0	0	0	1	4	4
61	9.58404	0.0812702	0	0	0	0	1	4	4
60	9.66531	0.19737	0	0	0	0	1	4	4
59	9.86268	0.0870743	0	0	0	0	1	4	4
59	9.94975	0.16254	0	0	0	0	1	4	4
61	10.1761	0.0580502	0	0	0	0	1	4	4
61	10.3561	0.13932	0	0	0	0	1	4	4
59	10.5244	0.0406342	0	0	0	0	1	4	4
59	10.7044	0.0986843	0	0	0	0	1	4	4
62	11.0237	0.13932	0	0	0	0	1	4	4
61	11.9583	0.0580492	0	0	0	0	1	4	4
60	12.0454	0.110295	0	0	0	0	1	4	4
61	12.5968	0.133514	0	0	0	0	1	4	4
60	12.7826	0.0986843	0	0	0	0	1	4	4
62	13.3108	0.0290251	0	0	0	0	1	4	4
61	13.3457	0.0232201	0	0	0	0	1	4	4
60	13.3747	0.0348301	0	0	0	0	1	4	4
61	13.5837	0.162539	0	0	0	0	1	4	4
59	13.7462	0.0290251	0	0	0	0	1	4	4
61	13.9029	0.203175	0	0	0	0	1	4	4
60	14.2687	0.238005	0	0	0	0	1	4	4
59	14.5067	0.162539	0	0	0	0	1	4	4
60	14.6692	0.0870752	0	0	0	0	1	4	4
59	15.2497	0.168344	0	0	0	0	1	4	4
60	15.418	0.0754642	0	0	0	0	1	4	4
60	15.8244	0.121904	0	0	0	0	1	4	4
59	15.9695	0.0232201	0	0	0	0	1	4	4
59	16.1785	0.0638542	0	0	0	0	1	4	4
60	16.4978	0.0464401	0	0	0	0	1	4	4
60	16.5907	0.0638542	0	0	0	0	1	4	4
61	16.8229	0.255419	0	0	0	0	1	4	4
60	17.0783	0.0754662	0	0	0	0	1	4	4
60	17.415	0.220589	0	0	0	0	1	4	4
57	17.6356	0.10449	0	0	0	0	1	4	4
59	17.7633	0.0406342	0	0	0	0	1	4	4
59	17.8039	0.110294	0	0	0	0	1	4	4
57	18.4134	0.168344	0	0	0	0	1	4	4
59	18.7443	0.278639	0	0	0	0	1	4	4
58	19.0578	0.0464401	0	0	0	0	1	4	4
58	19.1042	0.0232201	0	0	0	0	1	4	4
59	19.261	0.272835	0	0	0	0	1	4	4
57	19.5338	0.145124	0	0	0	0	1	4	4
60	19.8298	0.191565	0	0	0	0	1	4	4
62	20.6716	0.0406342	0	0	0	0	1	4	4
62	20.718	0.12771	0	0	0	0	1	4	4
60	20.9734	0.1161	0	0	0	0	1	4	4
62	21.3624	0.0696602	0	0	0	0	1	4	4
62	22.6627	0.0754642	0	0	0	0	1	4	4
60	23.2954	0.0348301	0	0	0	0	1	4	4
62	23.5799	0.0348301	0	0	0	0	1	4	4
61	23.9514	0.174149	0	0	0	0	1	4	4
62	24.3984	0.0290241	0	0	0	0	1	4	4
61	24.5493	0.0638542	0	0	0	0	1	4	4
61	24.6132	0.0290241	0	0	0	0	1	4	4
62	24.6828	0.10449	0	0	0	0	1	4	4
59	25.0195	0.0928802	0	0	0	0	1	4	4
62	25.8264	0.191565	0	0	0	0	1	4	4
62	26.494	0.121906	0	0	0	0	1	4	4
60	26.6159	0.0290241	0	0	0	0	1	4	4
61	26.7146	0.10449	0	0	0	0	1	4	4
62	27.1151	0.110296	0	0	0	0	1	4	4
61	27.2254	0.0464382	0	0	0	0	1	4	4
60	27.2718	0.0232201	0	0	0	0	1	4	4
62	27.4518	0.0464382	0	0	0	0	1	4	4
62	27.8059	0.110294	0	0	0	0	1	4	4
62	28.0845	0.17415	0	0	0	0	1	4	4
