midiPitch 	 onsetSec 	 durationSec 	 onsetBeats 	 onsetBarIndex 	 onsetBar 	 durationBeats 	 velocity  	 numerator 	 denominator 
77	1.57315	0.0406349	0	0	0	0	1	4	4
77	1.68345	0.0464399	0	0	0	0	1	4	4
71	2.17107	0.0290248	0	0	0	0	1	4	4
67	3.03601	0.168344	0	0	0	0	1	4	4
67	3.23338	0.0696599	0	0	0	0	1	4	4
67	3.30304	0.0348299	0	0	0	0	1	4	4
69	3.35528	0.0986848	0	0	0	0	1	4	4
70	3.45397	0.0348299	0	0	0	0	1	4	4
68	3.4888	0.0754647	0	0	0	0	1	4	4
65	3.62231	0.0232201	0	0	0	0	1	4	4
69	3.79646	0.133515	0	0	0	0	1	4	4
67	4.01125	0.179955	0	0	0	0	1	4	4
67	4.43501	0.0580497	0	0	0	0	1	4	4
68	4.5337	0.0812697	0	0	0	0	1	4	4
78	4.7717	0.0232201	0	0	0	0	1	4	4
72	5.13741	0.0638547	0	0	0	0	1	4	4
79	5.20127	0.0290251	0	0	0	0	1	4	4
80	5.36381	0.0232196	0	0	0	0	1	4	4
82	5.50313	0.0290251	0	0	0	0	1	4	4
85	5.68308	0.0232196	0	0	0	0	1	4	4
80	5.7063	0.0464401	0	0	0	0	1	4	4
81	5.77016	0.0290246	0	0	0	0	1	4	4
85	5.99075	0.0754647	0	0	0	0	1	4	4
78	6.09524	0.0522447	0	0	0	0	1	4	4
80	6.17651	0.0348296	0	0	0	0	1	4	4
77	6.21134	0.0522451	0	0	0	0	1	4	4
85	6.58286	0.0290246	0	0	0	0	1	4	4
80	6.70476	0.0406346	0	0	0	0	1	4	4
80	6.7454	0.0406351	0	0	0	0	1	4	4
79	6.83828	0.0290251	0	0	0	0	1	4	4
68	8.10957	0.191566	0	0	0	0	1	4	4
78	8.33596	0.0232201	0	0	0	0	1	4	4
80	8.55655	0.0232201	0	0	0	0	1	4	4
86	8.6088	0.0232201	0	0	0	0	1	4	4
86	8.79456	0.0754652	0	0	0	0	1	4	4
85	9.00354	0.0696602	0	0	0	0	1	4	4
80	9.13125	0.0754652	0	0	0	0	1	4	4
80	9.21832	0.0406351	0	0	0	0	1	4	4
79	9.7756	0.0232201	0	0	0	0	1	4	4
80	9.83365	0.0406351	0	0	0	0	1	4	4
81	9.87429	0.0290251	0	0	0	0	1	4	4
77	9.90912	0.0290251	0	0	0	0	1	4	4
69	10.0833	0.0406351	0	0	0	0	1	4	4
72	10.1297	0.0522442	0	0	0	0	1	4	4
78	10.1994	0.0580502	0	0	0	0	1	4	4
80	10.3677	0.0406351	0	0	0	0	1	4	4
78	10.507	0.0290251	0	0	0	0	1	4	4
71	10.9772	0.0290251	0	0	0	0	1	4	4
73	11.0179	0.0406351	0	0	0	0	1	4	4
79	11.2965	0.0232201	0	0	0	0	1	4	4
71	11.668	0.156734	0	0	0	0	1	4	4
73	11.9583	0.0406342	0	0	0	0	1	4	4
73	12.0047	0.0406351	0	0	0	0	1	4	4
73	12.0454	0.0638552	0	0	0	0	1	4	4
73	12.1092	0.0580502	0	0	0	0	1	4	4
67	12.2601	0.0812702	0	0	0	0	1	4	4
73	12.3414	0.0464401	0	0	0	0	1	4	4
75	12.4227	0.0522451	0	0	0	0	1	4	4
75	12.4749	0.0232201	0	0	0	0	1	4	4
75	12.5039	0.0348301	0	0	0	0	1	4	4
75	12.5388	0.0638552	0	0	0	0	1	4	4
75	12.6026	0.0348291	0	0	0	0	1	4	4
70	12.6723	0.0870752	0	0	0	0	1	4	4
76	13.218	0.0232191	0	0	0	0	1	4	4
73	13.3747	0.0406351	0	0	0	0	1	4	4
77	13.4618	0.0290251	0	0	0	0	1	4	4
77	13.4966	0.0406351	0	0	0	0	1	4	4
76	13.5546	0.0232201	0	0	0	0	1	4	4
77	13.6766	0.0406351	0	0	0	0	1	4	4
77	13.7172	0.0812702	0	0	0	0	1	4	4
77	14.3906	0.0638542	0	0	0	0	1	4	4
78	14.6518	0.0290241	0	0	0	0	1	4	4
78	14.6866	0.0232201	0	0	0	0	1	4	4
79	14.7098	0.0290251	0	0	0	0	1	4	4
80	14.7389	0.0232201	0	0	0	0	1	4	4
79	14.7969	0.0754642	0	0	0	0	1	4	4
80	15.6444	0.0348301	0	0	0	0	1	4	4
79	15.6967	0.0290251	0	0	0	0	1	4	4
77	15.7199	0.0290251	0	0	0	0	1	4	4
77	15.7663	0.0464401	0	0	0	0	1	4	4
78	15.9521	0.0290251	0	0	0	0	1	4	4
78	15.9869	0.0348301	0	0	0	0	1	4	4
78	16.0276	0.029026	0	0	0	0	1	4	4
78	16.0914	0.0348301	0	0	0	0	1	4	4
79	16.2366	0.0928802	0	0	0	0	1	4	4
80	16.3759	0.0232182	0	0	0	0	1	4	4
72	16.6023	0.0638542	0	0	0	0	1	4	4
71	16.6835	0.029026	0	0	0	0	1	4	4
71	16.7126	0.0464401	0	0	0	0	1	4	4
76	16.9854	0.0464382	0	0	0	0	1	4	4
77	17.2582	0.0232201	0	0	0	0	1	4	4
78	17.3047	0.029026	0	0	0	0	1	4	4
79	17.3337	0.0232201	0	0	0	0	1	4	4
78	17.4498	0.029026	0	0	0	0	1	4	4
78	18.1986	0.0522442	0	0	0	0	1	4	4
79	18.3496	0.0232201	0	0	0	0	1	4	4
78	18.5876	0.0232201	0	0	0	0	1	4	4
78	18.6108	0.0522442	0	0	0	0	1	4	4
79	18.8372	0.0290241	0	0	0	0	1	4	4
79	18.901	0.0406342	0	0	0	0	1	4	4
72	19.1797	0.203175	0	0	0	0	1	4	4
74	19.4699	0.0232182	0	0	0	0	1	4	4
76	19.5048	0.0232201	0	0	0	0	1	4	4
76	19.5802	0.0290241	0	0	0	0	1	4	4
77	20.0098	0.0232201	0	0	0	0	1	4	4
84	20.7122	0.0754662	0	0	0	0	1	4	4
80	20.7993	0.0232201	0	0	0	0	1	4	4
78	20.9038	0.0290241	0	0	0	0	1	4	4
78	20.9618	0.029026	0	0	0	0	1	4	4
78	21.136	0.0290241	0	0	0	0	1	4	4
78	21.2056	0.0290241	0	0	0	0	1	4	4
76	21.2579	0.0522461	0	0	0	0	1	4	4
79	21.403	0.0406361	0	0	0	0	1	4	4
78	21.4552	0.0348301	0	0	0	0	1	4	4
79	21.4959	0.0232201	0	0	0	0	1	4	4
79	21.5249	0.029026	0	0	0	0	1	4	4
78	21.5539	0.0348301	0	0	0	0	1	4	4
67	22.355	0.0928802	0	0	0	0	1	4	4
80	22.4479	0.0348301	0	0	0	0	1	4	4
80	22.5176	0.0870743	0	0	0	0	1	4	4
86	23.1735	0.0232201	0	0	0	0	1	4	4
86	23.2025	0.0464401	0	0	0	0	1	4	4
80	23.7366	0.0986843	0	0	0	0	1	4	4
