midiPitch 	 onsetSec 	 durationSec 	 onsetBeats 	 onsetBarIndex 	 onsetBar 	 durationBeats 	 velocity  	 numerator 	 denominator 
65	0.145125	0.0580499	0	0	2.21927e-035	0	1	4	4
67	0.313469	0.0812698	0	0	2.21927e-035	0	1	4	4
68	0.394739	0.1161	0	0	2.21927e-035	0	1	4	4
66	0.568889	0.0696598	0	0	2.21927e-035	0	1	4	4
65	0.638549	0.029025	0	0	2.21927e-035	0	1	4	4
65	0.673379	0.0522449	0	0	2.21927e-035	0	1	4	4
65	0.725624	0.02322	0	0	2.21927e-035	0	1	4	4
61	1.30612	0.0812699	0	0	2.21927e-035	0	1	4	4
65	1.45705	0.03483	0	0	2.21927e-035	0	1	4	4
66	1.49769	0.0290248	0	0	2.21927e-035	0	1	4	4
65	1.54993	0.0232199	0	0	2.21927e-035	0	1	4	4
66	1.57315	0.0290248	0	0	2.21927e-035	0	1	4	4
66	1.61379	0.20898	0	0	2.21927e-035	0	1	4	4
62	1.8634	0.0928799	0	0	2.21927e-035	0	1	4	4
63	3.19274	0.214785	0	0	2.21927e-035	0	1	4	4
65	3.44236	0.272835	0	0	2.21927e-035	0	1	4	4
60	5.15483	0.1161	0	0	2.21927e-035	0	1	4	4
61	5.27093	0.121904	0	0	2.21927e-035	0	1	4	4
61	5.39283	0.25542	0	0	2.21927e-035	0	1	4	4
61	5.64825	0.22059	0	0	2.21927e-035	0	1	4	4
58	6.41451	0.156735	0	0	2.21927e-035	0	1	4	4
58	6.64091	0.0928798	0	0	2.21927e-035	0	1	4	4
61	7.0937	0.156734	0	0	2.21927e-035	0	1	4	4
62	7.3317	0.13932	0	0	2.21927e-035	0	1	4	4
57	8.89905	0.284444	0	0	2.21927e-035	0	1	4	4
60	9.18349	0.145124	0	0	2.21927e-035	0	1	4	4
61	9.49696	0.243809	0	0	2.21927e-035	0	1	4	4
61	9.97297	0.156735	0	0	2.21927e-035	0	1	4	4
62	10.1297	0.336689	0	0	2.21927e-035	0	1	4	4
61	10.4664	0.110294	0	0	2.21927e-035	0	1	4	4
59	10.7218	0.179955	0	0	2.21927e-035	0	1	4	4
57	10.9018	0.139319	0	0	2.21927e-035	0	1	4	4
60	11.0585	0.156734	0	0	2.21927e-035	0	1	4	4
61	11.2152	0.156735	0	0	2.21927e-035	0	1	4	4
59	11.8015	0.13932	0	0	2.21927e-035	0	1	4	4
61	12.086	0.19737	0	0	2.21927e-035	0	1	4	4
60	12.2834	0.261225	0	0	2.21927e-035	0	1	4	4
57	12.8522	0.10449	0	0	2.21927e-035	0	1	4	4
61	13.0844	0.191565	0	0	2.21927e-035	0	1	4	4
62	13.5663	0.168344	0	0	2.21927e-035	0	1	4	4
59	13.7346	0.0638552	0	0	2.21927e-035	0	1	4	4
58	13.7985	0.110294	0	0	2.21927e-035	0	1	4	4
61	14.0016	0.156734	0	0	2.21927e-035	0	1	4	4
63	14.1874	0.301859	0	0	2.21927e-035	0	1	4	4
59	14.8956	0.15093	0	0	2.21927e-035	0	1	4	4
64	15.0465	0.0522442	0	0	2.21927e-035	0	1	4	4
62	15.0988	0.13932	0	0	2.21927e-035	0	1	4	4
62	15.2381	0.0754642	0	0	2.21927e-035	0	1	4	4
56	15.3832	0.383129	0	0	2.21927e-035	0	1	4	4
60	15.7663	0.29025	0	0	2.21927e-035	0	1	4	4
57	16.4629	0.296055	0	0	2.21927e-035	0	1	4	4
62	17.0144	0.17415	0	0	2.21927e-035	0	1	4	4
62	17.1886	0.191565	0	0	2.21927e-035	0	1	4	4
61	17.4034	0.121904	0	0	2.21927e-035	0	1	4	4
62	17.5543	0.243811	0	0	2.21927e-035	0	1	4	4
63	17.7981	0.243809	0	0	2.21927e-035	0	1	4	4
59	18.1116	0.185759	0	0	2.21927e-035	0	1	4	4
58	18.3902	0.13932	0	0	2.21927e-035	0	1	4	4
59	18.5295	0.191565	0	0	2.21927e-035	0	1	4	4
57	18.7211	0.238005	0	0	2.21927e-035	0	1	4	4
60	19.1449	0.0522461	0	0	2.21927e-035	0	1	4	4
61	19.1971	0.214785	0	0	2.21927e-035	0	1	4	4
63	19.8763	0.278639	0	0	2.21927e-035	0	1	4	4
66	20.5032	0.10449	0	0	2.21927e-035	0	1	4	4
61	20.7122	0.0348301	0	0	2.21927e-035	0	1	4	4
65	20.8515	0.133514	0	0	2.21927e-035	0	1	4	4
59	21.2172	0.0638542	0	0	2.21927e-035	0	1	4	4
63	21.2811	0.145124	0	0	2.21927e-035	0	1	4	4
57	21.612	0.145124	0	0	2.21927e-035	0	1	4	4
68	21.9312	0.133514	0	0	2.21927e-035	0	1	4	4
65	22.146	0.168346	0	0	2.21927e-035	0	1	4	4
59	22.8194	0.0348301	0	0	2.21927e-035	0	1	4	4
64	22.8775	0.0522442	0	0	2.21927e-035	0	1	4	4
60	23.0458	0.110294	0	0	2.21927e-035	0	1	4	4
58	23.1561	0.284445	0	0	2.21927e-035	0	1	4	4
60	23.4405	0.214785	0	0	2.21927e-035	0	1	4	4
69	23.6553	0.702404	0	0	2.21927e-035	0	1	4	4
66	24.9556	0.0754642	0	0	2.21927e-035	0	1	4	4
66	25.0485	0.0638561	0	0	2.21927e-035	0	1	4	4
61	25.2285	0.0232201	0	0	2.21927e-035	0	1	4	4
62	25.2575	0.0754642	0	0	2.21927e-035	0	1	4	4
64	26.79	0.0754642	0	0	2.21927e-035	0	1	4	4
64	26.8655	0.029026	0	0	2.21927e-035	0	1	4	4
63	26.9642	0.0522442	0	0	2.21927e-035	0	1	4	4
64	27.0164	0.121904	0	0	2.21927e-035	0	1	4	4
61	28.7405	0.0580502	0	0	2.21927e-035	0	1	4	4
61	28.7985	0.0812702	0	0	2.21927e-035	0	1	4	4
60	28.8798	0.0232201	0	0	2.21927e-035	0	1	4	4
62	28.9088	0.110296	0	0	2.21927e-035	0	1	4	4
61	29.0191	0.127708	0	0	2.21927e-035	0	1	4	4
