midiPitch 	 onsetSec 	 durationSec 	 onsetBeats 	 onsetBarIndex 	 onsetBar 	 durationBeats 	 velocity  	 numerator 	 denominator 
65	0.2322	0.0290249	0	0	2.55768e-035	0	1	4	4
70	0.301859	0.0522449	0	0	2.55768e-035	0	1	4	4
65	0.359909	0.0406349	0	0	2.55768e-035	0	1	4	4
70	1.81696	0.03483	0	0	2.55768e-035	0	1	4	4
71	2.28136	0.0232201	0	0	2.55768e-035	0	1	4	4
65	3.12889	0.110295	0	0	2.55768e-035	0	1	4	4
65	3.23918	0.0870748	0	0	2.55768e-035	0	1	4	4
65	3.34367	0.383129	0	0	2.55768e-035	0	1	4	4
65	3.81968	0.255419	0	0	2.55768e-035	0	1	4	4
66	4.0751	0.0754652	0	0	2.55768e-035	0	1	4	4
65	4.91102	0.0406351	0	0	2.55768e-035	0	1	4	4
65	5.68308	0.0638547	0	0	2.55768e-035	0	1	4	4
62	5.90948	0.0464401	0	0	2.55768e-035	0	1	4	4
66	6.06041	0.110295	0	0	2.55768e-035	0	1	4	4
55	6.06621	0.272834	0	0	2.55768e-035	0	1	4	4
57	6.43193	0.307664	0	0	2.55768e-035	0	1	4	4
57	6.82667	0.388935	0	0	2.55768e-035	0	1	4	4
56	7.2156	0.0406346	0	0	2.55768e-035	0	1	4	4
62	7.99927	0.104489	0	0	2.55768e-035	0	1	4	4
65	8.77134	0.191565	0	0	2.55768e-035	0	1	4	4
67	8.98612	0.17415	0	0	2.55768e-035	0	1	4	4
55	9.16027	0.2322	0	0	2.55768e-035	0	1	4	4
57	9.57243	0.307665	0	0	2.55768e-035	0	1	4	4
62	11.8654	0.0348301	0	0	2.55768e-035	0	1	4	4
62	11.9002	0.0232201	0	0	2.55768e-035	0	1	4	4
62	11.9293	0.0232201	0	0	2.55768e-035	0	1	4	4
63	12.2369	0.0522451	0	0	2.55768e-035	0	1	4	4
53	12.3008	0.26703	0	0	2.55768e-035	0	1	4	4
58	12.6665	0.0406351	0	0	2.55768e-035	0	1	4	4
57	12.7129	0.307664	0	0	2.55768e-035	0	1	4	4
57	13.0438	0.238005	0	0	2.55768e-035	0	1	4	4
57	13.2818	0.162539	0	0	2.55768e-035	0	1	4	4
55	13.4444	0.0986853	0	0	2.55768e-035	0	1	4	4
62	14.0132	0.145124	0	0	2.55768e-035	0	1	4	4
62	14.1932	0.19737	0	0	2.55768e-035	0	1	4	4
64	14.7621	0.110294	0	0	2.55768e-035	0	1	4	4
64	14.9304	0.110295	0	0	2.55768e-035	0	1	4	4
64	15.0639	0.0348291	0	0	2.55768e-035	0	1	4	4
55	15.1859	0.452789	0	0	2.55768e-035	0	1	4	4
53	15.7722	0.232199	0	0	2.55768e-035	0	1	4	4
65	18.0535	0.214785	0	0	2.55768e-035	0	1	4	4
65	18.2683	0.0580502	0	0	2.55768e-035	0	1	4	4
65	18.3263	0.0696602	0	0	2.55768e-035	0	1	4	4
55	18.4192	0.0406342	0	0	2.55768e-035	0	1	4	4
60	18.4773	0.226395	0	0	2.55768e-035	0	1	4	4
60	18.7037	0.284445	0	0	2.55768e-035	0	1	4	4
60	18.9881	0.284445	0	0	2.55768e-035	0	1	4	4
60	19.4061	0.371519	0	0	2.55768e-035	0	1	4	4
59	19.975	0.133514	0	0	2.55768e-035	0	1	4	4
62	20.1085	0.313469	0	0	2.55768e-035	0	1	4	4
58	20.4219	0.0986843	0	0	2.55768e-035	0	1	4	4
62	21.223	0.18576	0	0	2.55768e-035	0	1	4	4
60	21.5713	0.336691	0	0	2.55768e-035	0	1	4	4
60	21.9254	0.371519	0	0	2.55768e-035	0	1	4	4
57	22.297	0.406349	0	0	2.55768e-035	0	1	4	4
57	22.7033	0.296055	0	0	2.55768e-035	0	1	4	4
62	23.5276	0.10449	0	0	2.55768e-035	0	1	4	4
60	24.6422	0.551476	0	0	2.55768e-035	0	1	4	4
60	25.2111	0.191565	0	0	2.55768e-035	0	1	4	4
60	25.4026	0.272835	0	0	2.55768e-035	0	1	4	4
60	25.8032	0.162539	0	0	2.55768e-035	0	1	4	4
60	25.9657	0.267031	0	0	2.55768e-035	0	1	4	4
62	27.3879	0.278641	0	0	2.55768e-035	0	1	4	4
60	27.7711	0.208981	0	0	2.55768e-035	0	1	4	4
60	28.1658	0.238005	0	0	2.55768e-035	0	1	4	4
0	28.4038	0.168344	0	0	2.55768e-035	0	1	4	4
57	28.5722	0.179955	0	0	2.55768e-035	0	1	4	4
