midiPitch 	 onsetSec 	 durationSec 	 onsetBeats 	 onsetBarIndex 	 onsetBar 	 durationBeats 	 velocity  	 numerator 	 denominator 
52	0.0464399	0.2322	0	0	0	0	1	4	4
54	0.278639	0.336689	0	0	0	0	1	4	4
52	0.615329	0.17415	0	0	0	0	1	4	4
52	0.928798	0.179955	0	0	0	0	1	4	4
56	1.44544	0.336689	0	0	0	0	1	4	4
56	1.93887	0.330884	0	0	0	0	1	4	4
54	2.43229	0.336689	0	0	0	0	1	4	4
52	2.98957	0.296054	0	0	0	0	1	4	4
52	3.721	0.133515	0	0	0	0	1	4	4
52	3.92417	0.145125	0	0	0	0	1	4	4
52	4.32472	0.18576	0	0	0	0	1	4	4
52	5.20127	0.19737	0	0	0	0	1	4	4
52	5.39864	0.435374	0	0	0	0	1	4	4
52	5.9327	0.35991	0	0	0	0	1	4	4
52	6.42032	0.429569	0	0	0	0	1	4	4
52	6.93696	0.354105	0	0	0	0	1	4	4
52	7.66839	0.156735	0	0	0	0	1	4	4
52	8.19664	0.20898	0	0	0	0	1	4	4
52	8.73651	0.145125	0	0	0	0	1	4	4
52	8.9629	0.12771	0	0	0	0	1	4	4
51	9.09061	0.0696592	0	0	0	0	1	4	4
52	9.1893	0.179955	0	0	0	0	1	4	4
52	9.4273	0.481814	0	0	0	0	1	4	4
52	9.90912	0.22059	0	0	0	0	1	4	4
54	10.1297	0.754648	0	0	0	0	1	4	4
59	10.983	0.400544	0	0	0	0	1	4	4
59	11.3836	0.505034	0	0	0	0	1	4	4
59	11.8886	0.24381	0	0	0	0	1	4	4
59	12.1324	0.249615	0	0	0	0	1	4	4
59	12.6839	0.203175	0	0	0	0	1	4	4
59	12.9219	0.162539	0	0	0	0	1	4	4
57	13.0844	0.0696602	0	0	0	0	1	4	4
59	13.2063	0.145124	0	0	0	0	1	4	4
61	13.4327	0.476009	0	0	0	0	1	4	4
61	13.9088	0.22059	0	0	0	0	1	4	4
61	14.1293	0.0754652	0	0	0	0	1	4	4
63	14.2048	0.17415	0	0	0	0	1	4	4
63	14.379	0.25542	0	0	0	0	1	4	4
59	14.6344	0.290249	0	0	0	0	1	4	4
64	14.9653	0.702404	0	0	0	0	1	4	4
64	15.6677	0.261224	0	0	0	0	1	4	4
64	15.9289	0.0870743	0	0	0	0	1	4	4
64	16.016	0.197371	0	0	0	0	1	4	4
64	16.2133	0.17415	0	0	0	0	1	4	4
64	16.3875	0.156734	0	0	0	0	1	4	4
64	16.5442	0.0406342	0	0	0	0	1	4	4
64	16.5849	0.261225	0	0	0	0	1	4	4
63	16.9622	0.191565	0	0	0	0	1	4	4
61	17.1537	0.139318	0	0	0	0	1	4	4
61	17.2931	0.371519	0	0	0	0	1	4	4
68	17.9142	0.16254	0	0	0	0	1	4	4
68	18.0767	0.284445	0	0	0	0	1	4	4
68	18.3612	0.208979	0	0	0	0	1	4	4
66	18.6456	0.121904	0	0	0	0	1	4	4
64	18.9359	0.150928	0	0	0	0	1	4	4
66	19.0868	0.208981	0	0	0	0	1	4	4
66	19.3945	0.133514	0	0	0	0	1	4	4
68	19.528	0.12771	0	0	0	0	1	4	4
61	20.1956	0.290251	0	0	0	0	1	4	4
64	20.927	0.197371	0	0	0	0	1	4	4
64	21.1244	0.0290241	0	0	0	0	1	4	4
66	21.1766	0.121906	0	0	0	0	1	4	4
64	21.4146	0.6966	0	0	0	0	1	4	4
61	22.1228	0.267029	0	0	0	0	1	4	4
64	22.8891	0.238005	0	0	0	0	1	4	4
66	23.1329	0.168344	0	0	0	0	1	4	4
66	23.3012	0.0580502	0	0	0	0	1	4	4
64	23.3593	0.702404	0	0	0	0	1	4	4
61	24.172	0.365715	0	0	0	0	1	4	4
68	25.658	0.191565	0	0	0	0	1	4	4
68	25.8496	0.284445	0	0	0	0	1	4	4
68	26.1341	0.0696602	0	0	0	0	1	4	4
68	26.3779	0.261225	0	0	0	0	1	4	4
66	26.6391	0.139318	0	0	0	0	1	4	4
64	26.8655	0.290251	0	0	0	0	1	4	4
66	27.1615	0.301861	0	0	0	0	1	4	4
68	27.4634	0.185759	0	0	0	0	1	4	4
59	27.8233	0.336689	0	0	0	0	1	4	4
61	28.1658	0.226395	0	0	0	0	1	4	4
60	28.3922	0.0580502	0	0	0	0	1	4	4
64	28.9205	0.238005	0	0	0	0	1	4	4
66	29.1585	0.13932	0	0	0	0	1	4	4
