midiPitch 	 onsetSec 	 durationSec 	 onsetBeats 	 onsetBarIndex 	 onsetBar 	 durationBeats 	 velocity  	 numerator 	 denominator 
80	0.603719	0.0812699	0	0	2.95221e-035	0	1	4	4
68	0.853333	0.0406349	0	0	2.95221e-035	0	1	4	4
81	1.31193	0.0406349	0	0	2.95221e-035	0	1	4	4
81	1.35837	0.179955	0	0	2.95221e-035	0	1	4	4
81	1.71828	0.029025	0	0	2.95221e-035	0	1	4	4
81	1.78794	0.0928799	0	0	2.95221e-035	0	1	4	4
80	1.88082	0.0812697	0	0	2.95221e-035	0	1	4	4
70	3.3727	0.168345	0	0	2.95221e-035	0	1	4	4
75	3.64553	0.0290248	0	0	2.95221e-035	0	1	4	4
78	3.67456	0.10449	0	0	2.95221e-035	0	1	4	4
80	3.93578	0.0232201	0	0	2.95221e-035	0	1	4	4
80	3.959	0.110295	0	0	2.95221e-035	0	1	4	4
67	4.69624	0.133515	0	0	2.95221e-035	0	1	4	4
67	5.28254	0.0928802	0	0	2.95221e-035	0	1	4	4
81	5.56118	0.0812697	0	0	2.95221e-035	0	1	4	4
79	5.8166	0.24381	0	0	2.95221e-035	0	1	4	4
80	6.67574	0.156734	0	0	2.95221e-035	0	1	4	4
78	6.94277	0.133515	0	0	2.95221e-035	0	1	4	4
79	7.15755	0.0464401	0	0	2.95221e-035	0	1	4	4
79	7.22141	0.0232196	0	0	2.95221e-035	0	1	4	4
79	7.25043	0.10449	0	0	2.95221e-035	0	1	4	4
68	7.74966	0.145125	0	0	2.95221e-035	0	1	4	4
66	7.89478	0.110295	0	0	2.95221e-035	0	1	4	4
66	8.00508	0.133514	0	0	2.95221e-035	0	1	4	4
67	8.16181	0.284445	0	0	2.95221e-035	0	1	4	4
74	9.13125	0.0812702	0	0	2.95221e-035	0	1	4	4
70	9.21252	0.0870752	0	0	2.95221e-035	0	1	4	4
75	9.68853	0.110294	0	0	2.95221e-035	0	1	4	4
77	9.81624	0.19737	0	0	2.95221e-035	0	1	4	4
72	10.0891	0.0638542	0	0	2.95221e-035	0	1	4	4
77	10.1529	0.0348301	0	0	2.95221e-035	0	1	4	4
74	10.5128	0.383129	0	0	2.95221e-035	0	1	4	4
74	11.2965	0.0986843	0	0	2.95221e-035	0	1	4	4
80	11.8654	0.0464401	0	0	2.95221e-035	0	1	4	4
82	11.9118	0.19737	0	0	2.95221e-035	0	1	4	4
82	12.1092	0.0870743	0	0	2.95221e-035	0	1	4	4
82	13.2586	0.1161	0	0	2.95221e-035	0	1	4	4
83550568	13.3747	0.116099	0	0	2.95221e-035	0	1	4	4
79	13.4908	0.0928802	0	0	2.95221e-035	0	1	4	4
70	14.2571	0.13932	0	0	2.95221e-035	0	1	4	4
70	14.3964	0.0754642	0	0	2.95221e-035	0	1	4	4
68	17.5078	0.0638561	0	0	2.95221e-035	0	1	4	4
69	17.6007	0.0232201	0	0	2.95221e-035	0	1	4	4
80	17.891	0.179955	0	0	2.95221e-035	0	1	4	4
77	18.0825	0.0754662	0	0	2.95221e-035	0	1	4	4
81	18.425	0.1161	0	0	2.95221e-035	0	1	4	4
81	18.5411	0.0870743	0	0	2.95221e-035	0	1	4	4
80	18.6746	0.168344	0	0	2.95221e-035	0	1	4	4
80	18.9997	0.0232201	0	0	2.95221e-035	0	1	4	4
80	19.0288	0.174149	0	0	2.95221e-035	0	1	4	4
80	19.2029	0.156734	0	0	2.95221e-035	0	1	4	4
80	19.3596	0.0870762	0	0	2.95221e-035	0	1	4	4
80	19.6441	0.0232201	0	0	2.95221e-035	0	1	4	4
80	19.6731	0.0464382	0	0	2.95221e-035	0	1	4	4
79	19.8589	0.156734	0	0	2.95221e-035	0	1	4	4
79	20.0156	0.476009	0	0	2.95221e-035	0	1	4	4
77	28.1426	0.0812702	0	0	2.95221e-035	0	1	4	4
70	28.3574	0.121906	0	0	2.95221e-035	0	1	4	4
63	28.6302	0.0986843	0	0	2.95221e-035	0	1	4	4
63	28.7463	0.0638542	0	0	2.95221e-035	0	1	4	4
64	28.8102	0.0348301	0	0	2.95221e-035	0	1	4	4
65	28.8798	0.110294	0	0	2.95221e-035	0	1	4	4
65	28.9901	0.0986862	0	0	2.95221e-035	0	1	4	4
