midiPitch 	 onsetSec 	 durationSec 	 onsetBeats 	 onsetBarIndex 	 onsetBar 	 durationBeats 	 velocity  	 numerator 	 denominator 
67	0.388934	0.0754649	0	0	0	0	1	4	4
63	0.626939	0.0522449	0	0	0	0	1	4	4
65	0.696599	0.0290249	0	0	0	0	1	4	4
65	0.731429	0.121905	0	0	0	0	1	4	4
66	1.02168	0.029025	0	0	0	0	1	4	4
66	1.05651	0.0986848	0	0	0	0	1	4	4
63	1.15519	0.0928798	0	0	0	0	1	4	4
66	1.33515	0.0232199	0	0	0	0	1	4	4
66	1.38739	0.0232199	0	0	0	0	1	4	4
65	1.57896	0.04644	0	0	0	0	1	4	4
63	1.66023	0.029025	0	0	0	0	1	4	4
64	1.88662	0.04644	0	0	0	0	1	4	4
67	2.15946	0.0638549	0	0	0	0	1	4	4
66	2.22331	0.0348299	0	0	0	0	1	4	4
63	2.65288	0.10449	0	0	0	0	1	4	4
63	2.9083	0.12771	0	0	0	0	1	4	4
64	3.22177	0.10449	0	0	0	0	1	4	4
65	3.45977	0.08127	0	0	0	0	1	4	4
65	3.87773	0.145125	0	0	0	0	1	4	4
66	4.16798	0.15093	0	0	0	0	1	4	4
66	4.70785	0.0870748	0	0	0	0	1	4	4
66	5.15483	0.110295	0	0	0	0	1	4	4
65	5.28834	0.0754652	0	0	0	0	1	4	4
67	5.36381	0.0754647	0	0	0	0	1	4	4
66	5.43927	0.12771	0	0	0	0	1	4	4
68	6.02558	0.15093	0	0	0	0	1	4	4
67	6.32744	0.10449	0	0	0	0	1	4	4
67	6.66413	0.0348301	0	0	0	0	1	4	4
66	6.70476	0.0754647	0	0	0	0	1	4	4
67	6.9834	0.0696597	0	0	0	0	1	4	4
68	7.17497	0.133515	0	0	0	0	1	4	4
69	7.30848	0.191565	0	0	0	0	1	4	4
64	7.62776	0.10449	0	0	0	0	1	4	4
65	7.84834	0.0928802	0	0	0	0	1	4	4
65	8.24889	0.0870743	0	0	0	0	1	4	4
66	8.90485	0.0348291	0	0	0	0	1	4	4
65	8.94549	0.0290251	0	0	0	0	1	4	4
65	8.97451	0.0522451	0	0	0	0	1	4	4
66	9.12544	0.203175	0	0	0	0	1	4	4
65	9.34603	0.0986853	0	0	0	0	1	4	4
67	9.49116	0.110294	0	0	0	0	1	4	4
66	9.76399	0.133515	0	0	0	0	1	4	4
63	10.1297	0.0870743	0	0	0	0	1	4	4
61	10.4432	0.203175	0	0	0	0	1	4	4
63	10.6463	0.121904	0	0	0	0	1	4	4
61	10.7683	0.0522451	0	0	0	0	1	4	4
62	10.954	0.0638542	0	0	0	0	1	4	4
67	11.4358	0.0406351	0	0	0	0	1	4	4
62	11.5577	0.0638542	0	0	0	0	1	4	4
63	12.6491	0.10449	0	0	0	0	1	4	4
64	12.9277	0.0928793	0	0	0	0	1	4	4
65	13.2644	0.0696602	0	0	0	0	1	4	4
67	13.8971	0.0986853	0	0	0	0	1	4	4
65	14.1758	0.0812693	0	0	0	0	1	4	4
64	14.2571	0.0232201	0	0	0	0	1	4	4
67	14.4602	0.19737	0	0	0	0	1	4	4
67	14.8027	0.0986843	0	0	0	0	1	4	4
68	15.1104	0.0696602	0	0	0	0	1	4	4
65	15.331	0.0232201	0	0	0	0	1	4	4
66	15.36	0.150929	0	0	0	0	1	4	4
68	15.7025	0.19737	0	0	0	0	1	4	4
68	16.3643	0.104488	0	0	0	0	1	4	4
66	16.5094	0.0522442	0	0	0	0	1	4	4
67	16.6313	0.12771	0	0	0	0	1	4	4
67	16.9564	0.0812702	0	0	0	0	1	4	4
67	17.2815	0.1161	0	0	0	0	1	4	4
68	17.5891	0.0696602	0	0	0	0	1	4	4
67	17.6588	0.10449	0	0	0	0	1	4	4
61	17.9897	0.383129	0	0	0	0	1	4	4
62	18.3728	0.0986843	0	0	0	0	1	4	4
63	18.4715	0.0812702	0	0	0	0	1	4	4
62	18.5527	0.0870743	0	0	0	0	1	4	4
62	18.6398	0.110294	0	0	0	0	1	4	4
65	18.8198	0.1161	0	0	0	0	1	4	4
65	19.4467	0.0928783	0	0	0	0	1	4	4
64	19.5396	0.0232201	0	0	0	0	1	4	4
66	20.1549	0.110294	0	0	0	0	1	4	4
66	20.2652	0.10449	0	0	0	0	1	4	4
66	20.3697	0.1161	0	0	0	0	1	4	4
68	20.7238	0.0232201	0	0	0	0	1	4	4
66	20.747	0.0870762	0	0	0	0	1	4	4
67	21.0431	0.0812702	0	0	0	0	1	4	4
66	21.1244	0.0290241	0	0	0	0	1	4	4
66	21.3217	0.12771	0	0	0	0	1	4	4
66	21.4494	0.0464401	0	0	0	0	1	4	4
69	21.6874	0.0870743	0	0	0	0	1	4	4
68	21.7745	0.0986862	0	0	0	0	1	4	4
68	22.2912	0.145124	0	0	0	0	1	4	4
66	22.4363	0.0406342	0	0	0	0	1	4	4
67	22.5117	0.226395	0	0	0	0	1	4	4
69	22.9007	0.267029	0	0	0	0	1	4	4
68	23.5392	0.197371	0	0	0	0	1	4	4
67	23.8353	0.191565	0	0	0	0	1	4	4
70	24.172	0.0870743	0	0	0	0	1	4	4
68	24.259	0.110296	0	0	0	0	1	4	4
66	24.3693	0.0580482	0	0	0	0	1	4	4
66	24.8163	0.0580502	0	0	0	0	1	4	4
65	24.8744	0.0406342	0	0	0	0	1	4	4
64	25.0311	0.179955	0	0	0	0	1	4	4
64	25.2111	0.0464401	0	0	0	0	1	4	4
63	25.2575	0.0348301	0	0	0	0	1	4	4
63	25.2923	0.0406342	0	0	0	0	1	4	4
66	25.5652	0.272833	0	0	0	0	1	4	4
66	25.9657	0.0232201	0	0	0	0	1	4	4
67	26.0122	0.0290241	0	0	0	0	1	4	4
66	26.047	0.0928802	0	0	0	0	1	4	4
67	26.2095	0.0696583	0	0	0	0	1	4	4
69	26.3314	0.0232201	0	0	0	0	1	4	4
68	26.3605	0.203175	0	0	0	0	1	4	4
67	26.6797	0.0522442	0	0	0	0	1	4	4
66	26.732	0.0754662	0	0	0	0	1	4	4
65	26.8074	0.162539	0	0	0	0	1	4	4
65	26.97	0.029026	0	0	0	0	1	4	4
63	28.7985	0.191565	0	0	0	0	1	4	4
