midiPitch 	 onsetSec 	 durationSec 	 onsetBeats 	 onsetBarIndex 	 onsetBar 	 durationBeats 	 velocity  	 numerator 	 denominator 
60	0.0870748	0.0696599	0	0	4.382e-035	0	1	4	4
62	0.359909	0.20898	0	0	4.382e-035	0	1	4	4
60	0.568889	0.15093	0	0	4.382e-035	0	1	4	4
57	0.719819	0.261224	0	0	4.382e-035	0	1	4	4
56	2.03755	0.0638549	0	0	4.382e-035	0	1	4	4
65	2.23492	0.0522449	0	0	4.382e-035	0	1	4	4
64	2.29297	0.0522449	0	0	4.382e-035	0	1	4	4
62	2.36263	0.487619	0	0	4.382e-035	0	1	4	4
62	2.87927	0.412154	0	0	4.382e-035	0	1	4	4
60	3.29143	0.19737	0	0	4.382e-035	0	1	4	4
62	3.4888	0.435374	0	0	4.382e-035	0	1	4	4
64	4.39438	0.330884	0	0	4.382e-035	0	1	4	4
64	4.72526	0.0696597	0	0	4.382e-035	0	1	4	4
62	4.79492	0.446984	0	0	4.382e-035	0	1	4	4
62	5.2419	0.20898	0	0	4.382e-035	0	1	4	4
62	5.45088	0.17415	0	0	4.382e-035	0	1	4	4
60	5.62503	0.400544	0	0	4.382e-035	0	1	4	4
60	6.11846	0.238005	0	0	4.382e-035	0	1	4	4
60	6.35646	0.110295	0	0	4.382e-035	0	1	4	4
62	6.46676	0.470204	0	0	4.382e-035	0	1	4	4
62	6.93696	0.592109	0	0	4.382e-035	0	1	4	4
55	8.87583	0.162539	0	0	4.382e-035	0	1	4	4
63	9.09642	0.116099	0	0	4.382e-035	0	1	4	4
63	9.32281	0.104489	0	0	4.382e-035	0	1	4	4
62	9.56082	0.0870752	0	0	4.382e-035	0	1	4	4
62	9.56082	0.0928802	0	0	4.382e-035	0	1	4	4
50	9.64209	0.01161	0	0	4.382e-035	0	1	4	4
62	9.56082	0.0986853	0	0	4.382e-035	0	1	4	4
50	9.64209	0.0812702	0	0	4.382e-035	0	1	4	4
62	9.72336	0.313469	0	0	4.382e-035	0	1	4	4
64	10.3677	0.539865	0	0	4.382e-035	0	1	4	4
61	10.9076	0.301859	0	0	4.382e-035	0	1	4	4
64	11.2443	0.348299	0	0	4.382e-035	0	1	4	4
62	11.5926	0.429569	0	0	4.382e-035	0	1	4	4
62	12.0221	0.226395	0	0	4.382e-035	0	1	4	4
62	12.2485	0.191565	0	0	4.382e-035	0	1	4	4
60	12.4401	0.394739	0	0	4.382e-035	0	1	4	4
60	12.9277	0.348299	0	0	4.382e-035	0	1	4	4
60	13.276	0.0870752	0	0	4.382e-035	0	1	4	4
62	13.3631	0.406349	0	0	4.382e-035	0	1	4	4
62	13.7694	0.522449	0	0	4.382e-035	0	1	4	4
55	15.5167	0.22059	0	0	4.382e-035	0	1	4	4
55	15.7373	0.0928802	0	0	4.382e-035	0	1	4	4
67	15.8302	0.0812693	0	0	4.382e-035	0	1	4	4
62	16.1959	0.145126	0	0	4.382e-035	0	1	4	4
62	16.341	0.621134	0	0	4.382e-035	0	1	4	4
64	17.2698	0.499229	0	0	4.382e-035	0	1	4	4
62	18.1406	0.0638561	0	0	4.382e-035	0	1	4	4
64	18.2044	0.116098	0	0	4.382e-035	0	1	4	4
62	18.3205	0.476009	0	0	4.382e-035	0	1	4	4
62	18.9591	0.261225	0	0	4.382e-035	0	1	4	4
60	19.824	0.406349	0	0	4.382e-035	0	1	4	4
60	20.2304	0.0986843	0	0	4.382e-035	0	1	4	4
62	20.3291	0.18576	0	0	4.382e-035	0	1	4	4
62	20.6948	0.510839	0	0	4.382e-035	0	1	4	4
55	22.3608	0.290251	0	0	4.382e-035	0	1	4	4
62	22.8136	0.0986862	0	0	4.382e-035	0	1	4	4
64	22.9123	0.307663	0	0	4.382e-035	0	1	4	4
62	23.5102	0.0870743	0	0	4.382e-035	0	1	4	4
60	23.5973	0.330885	0	0	4.382e-035	0	1	4	4
62	24.2242	0.0812702	0	0	4.382e-035	0	1	4	4
64	24.3055	0.15093	0	0	4.382e-035	0	1	4	4
63	24.4564	0.150928	0	0	4.382e-035	0	1	4	4
62	24.7699	0.365715	0	0	4.382e-035	0	1	4	4
58	27.4692	0.133514	0	0	4.382e-035	0	1	4	4
60	27.6027	0.301859	0	0	4.382e-035	0	1	4	4
60	27.9046	0.365715	0	0	4.382e-035	0	1	4	4
