midiPitch 	 onsetSec 	 durationSec 	 onsetBeats 	 onsetBarIndex 	 onsetBar 	 durationBeats 	 velocity  	 numerator 	 denominator 
62	1.36998	0.0580498	0	0	3.94928e-035	0	1	4	4
64	1.42803	1.10295	0	0	3.94928e-035	0	1	4	4
59	2.60644	0.156735	0	0	3.94928e-035	0	1	4	4
60	2.76317	0.18576	0	0	3.94928e-035	0	1	4	4
59	3.07084	0.760453	0	0	3.94928e-035	0	1	4	4
64	4.93424	0.551474	0	0	3.94928e-035	0	1	4	4
64	5.48571	0.0928802	0	0	3.94928e-035	0	1	4	4
64	5.57859	0.354104	0	0	3.94928e-035	0	1	4	4
59	6.21134	0.133515	0	0	3.94928e-035	0	1	4	4
61	6.34485	0.319274	0	0	3.94928e-035	0	1	4	4
59	6.85569	0.19737	0	0	3.94928e-035	0	1	4	4
57	7.05306	0.412154	0	0	3.94928e-035	0	1	4	4
57	7.90639	0.446984	0	0	3.94928e-035	0	1	4	4
64	8.41723	0.644354	0	0	3.94928e-035	0	1	4	4
64	9.06159	0.400544	0	0	3.94928e-035	0	1	4	4
60	9.71175	0.0870743	0	0	3.94928e-035	0	1	4	4
61	9.79882	0.493424	0	0	3.94928e-035	0	1	4	4
59	10.7102	0.214785	0	0	3.94928e-035	0	1	4	4
57	10.925	0.278639	0	0	3.94928e-035	0	1	4	4
57	11.2036	0.17415	0	0	3.94928e-035	0	1	4	4
57	11.3894	0.476009	0	0	3.94928e-035	0	1	4	4
57	11.8654	0.168344	0	0	3.94928e-035	0	1	4	4
59	12.0337	0.319275	0	0	3.94928e-035	0	1	4	4
57	15.1742	0.179955	0	0	3.94928e-035	0	1	4	4
64	15.6212	0.435374	0	0	3.94928e-035	0	1	4	4
64	16.2424	0.354105	0	0	3.94928e-035	0	1	4	4
59	16.8751	0.133516	0	0	3.94928e-035	0	1	4	4
59	17.2698	0.74304	0	0	3.94928e-035	0	1	4	4
59	18.2625	0.191565	0	0	3.94928e-035	0	1	4	4
57	18.4541	0.365715	0	0	3.94928e-035	0	1	4	4
64	19.1507	0.208979	0	0	3.94928e-035	0	1	4	4
56	19.3596	0.359909	0	0	3.94928e-035	0	1	4	4
56	19.8298	0.621134	0	0	3.94928e-035	0	1	4	4
55	20.451	0.0232201	0	0	3.94928e-035	0	1	4	4
57	20.48	0.13932	0	0	3.94928e-035	0	1	4	4
54	20.6193	0.354103	0	0	3.94928e-035	0	1	4	4
57	21.8093	0.243811	0	0	3.94928e-035	0	1	4	4
57	22.2679	0.325079	0	0	3.94928e-035	0	1	4	4
63	22.6685	0.0986843	0	0	3.94928e-035	0	1	4	4
64	22.7672	0.412155	0	0	3.94928e-035	0	1	4	4
64	23.3709	0.452789	0	0	3.94928e-035	0	1	4	4
59	23.9746	0.185759	0	0	3.94928e-035	0	1	4	4
61	24.1604	0.15093	0	0	3.94928e-035	0	1	4	4
59	24.3113	0.835918	0	0	3.94928e-035	0	1	4	4
59	25.1472	0.580498	0	0	3.94928e-035	0	1	4	4
58	25.7277	0.203175	0	0	3.94928e-035	0	1	4	4
59	25.9309	0.423765	0	0	3.94928e-035	0	1	4	4
