midiPitch 	 onsetSec 	 durationSec 	 onsetBeats 	 onsetBarIndex 	 onsetBar 	 durationBeats 	 velocity  	 numerator 	 denominator 
54	0.16254	0.02322	0	0	4.19375e-035	0	1	4	4
57	0.191565	0.272834	0	0	4.19375e-035	0	1	4	4
55	0.621134	0.0638549	0	0	4.19375e-035	0	1	4	4
54	0.772063	0.203175	0	0	4.19375e-035	0	1	4	4
54	0.975238	0.0522449	0	0	4.19375e-035	0	1	4	4
55	1.20163	0.272834	0	0	4.19375e-035	0	1	4	4
54	1.57896	0.191565	0	0	4.19375e-035	0	1	4	4
52	1.77052	0.0812699	0	0	4.19375e-035	0	1	4	4
55	1.9795	0.0232199	0	0	4.19375e-035	0	1	4	4
55	2.00853	0.214785	0	0	4.19375e-035	0	1	4	4
51	2.22331	0.0812697	0	0	4.19375e-035	0	1	4	4
54	2.30458	0.377324	0	0	4.19375e-035	0	1	4	4
57	3.18113	0.0870748	0	0	4.19375e-035	0	1	4	4
56	3.63973	0.336689	0	0	4.19375e-035	0	1	4	4
54	4.24925	0.139319	0	0	4.19375e-035	0	1	4	4
55	4.43501	0.505034	0	0	4.19375e-035	0	1	4	4
57	5.27093	0.238004	0	0	4.19375e-035	0	1	4	4
56	5.50893	0.0290251	0	0	4.19375e-035	0	1	4	4
55	5.90367	0.679184	0	0	4.19375e-035	0	1	4	4
56	6.58286	0.354104	0	0	4.19375e-035	0	1	4	4
55	7.29107	0.17415	0	0	4.19375e-035	0	1	4	4
57	7.46522	0.3483	0	0	4.19375e-035	0	1	4	4
58	8.66104	0.162539	0	0	4.19375e-035	0	1	4	4
57	9.12544	0.377325	0	0	4.19375e-035	0	1	4	4
57	9.50277	0.2322	0	0	4.19375e-035	0	1	4	4
56	9.85107	0.0928793	0	0	4.19375e-035	0	1	4	4
58	9.94394	0.563085	0	0	4.19375e-035	0	1	4	4
59	10.5128	0.238005	0	0	4.19375e-035	0	1	4	4
55	11.8015	0.307665	0	0	4.19375e-035	0	1	4	4
58	12.1731	0.17415	0	0	4.19375e-035	0	1	4	4
56	12.4285	0.179955	0	0	4.19375e-035	0	1	4	4
55	12.6084	0.388935	0	0	4.19375e-035	0	1	4	4
56	13.1193	0.25542	0	0	4.19375e-035	0	1	4	4
55	13.3747	0.330884	0	0	4.19375e-035	0	1	4	4
56	13.9842	0.127709	0	0	4.19375e-035	0	1	4	4
57	14.1119	0.121905	0	0	4.19375e-035	0	1	4	4
57	14.2338	0.139319	0	0	4.19375e-035	0	1	4	4
55	14.8201	0.116099	0	0	4.19375e-035	0	1	4	4
57	15.6793	0.0232191	0	0	4.19375e-035	0	1	4	4
58	15.7083	0.0522451	0	0	4.19375e-035	0	1	4	4
57	15.836	0.150929	0	0	4.19375e-035	0	1	4	4
56	15.9869	0.0986843	0	0	4.19375e-035	0	1	4	4
54	16.8345	0.133514	0	0	4.19375e-035	0	1	4	4
54	18.3728	0.0638542	0	0	4.19375e-035	0	1	4	4
53	18.5063	0.13932	0	0	4.19375e-035	0	1	4	4
58	18.6514	0.16254	0	0	4.19375e-035	0	1	4	4
55	18.8314	0.12771	0	0	4.19375e-035	0	1	4	4
55	18.9591	0.313469	0	0	4.19375e-035	0	1	4	4
55	19.2726	0.203175	0	0	4.19375e-035	0	1	4	4
55	19.4757	0.226395	0	0	4.19375e-035	0	1	4	4
56	19.7021	0.191565	0	0	4.19375e-035	0	1	4	4
54	19.8937	0.284445	0	0	4.19375e-035	0	1	4	4
57	21.5597	0.0754662	0	0	4.19375e-035	0	1	4	4
58	21.6352	0.226395	0	0	4.19375e-035	0	1	4	4
59	21.8848	0.191565	0	0	4.19375e-035	0	1	4	4
57	22.1344	0.719818	0	0	4.19375e-035	0	1	4	4
58	22.8542	0.667574	0	0	4.19375e-035	0	1	4	4
55	24.7873	0.214785	0	0	4.19375e-035	0	1	4	4
55	25.0021	0.116098	0	0	4.19375e-035	0	1	4	4
57	25.182	0.145124	0	0	4.19375e-035	0	1	4	4
55	25.4839	0.110294	0	0	4.19375e-035	0	1	4	4
54	25.5942	0.226395	0	0	4.19375e-035	0	1	4	4
54	25.8961	0.191565	0	0	4.19375e-035	0	1	4	4
56	26.1515	0.261225	0	0	4.19375e-035	0	1	4	4
54	26.4127	0.336689	0	0	4.19375e-035	0	1	4	4
58	27.208	0.17415	0	0	4.19375e-035	0	1	4	4
57	27.8639	0.0754642	0	0	4.19375e-035	0	1	4	4
59	28.0729	0.0870743	0	0	4.19375e-035	0	1	4	4
