midiPitch 	 onsetSec 	 durationSec 	 onsetBeats 	 onsetBarIndex 	 onsetBar 	 durationBeats 	 velocity  	 numerator 	 denominator 
54	0.20898	0.1161	0	0	0	0	1	4	4
55	0.325079	0.10449	0	0	0	0	1	4	4
55	0.429569	0.17415	0	0	0	0	1	4	4
63	0.777868	0.853333	0	0	0	0	1	4	4
64	1.64281	0.0812699	0	0	0	0	1	4	4
64	1.72408	0.20898	0	0	0	0	1	4	4
63	1.93306	0.0406349	0	0	0	0	1	4	4
64	2.05497	0.0464399	0	0	0	0	1	4	4
64	2.10141	0.0812697	0	0	0	0	1	4	4
64	2.21751	0.0870748	0	0	0	0	1	4	4
62	3.24499	0.203175	0	0	0	0	1	4	4
61	3.55265	0.191565	0	0	0	0	1	4	4
60	3.74422	0.435374	0	0	0	0	1	4	4
60	4.17959	0.0348301	0	0	0	0	1	4	4
62	4.21442	0.592109	0	0	0	0	1	4	4
62	4.80653	0.2322	0	0	0	0	1	4	4
63	5.03873	0.278639	0	0	0	0	1	4	4
56	5.4741	1.03909	0	0	0	0	1	4	4
57	6.5132	0.12771	0	0	0	0	1	4	4
55	6.64091	0.20898	0	0	0	0	1	4	4
56	6.84989	0.145125	0	0	0	0	1	4	4
53	8.7249	0.0986853	0	0	0	0	1	4	4
54	8.82358	0.365714	0	0	0	0	1	4	4
55	9.24735	0.330884	0	0	0	0	1	4	4
60	9.57823	0.226395	0	0	0	0	1	4	4
62	9.80463	0.806893	0	0	0	0	1	4	4
62	10.6115	0.470204	0	0	0	0	1	4	4
62	11.0817	0.116099	0	0	0	0	1	4	4
62	11.1978	0.0406351	0	0	0	0	1	4	4
62	11.2385	0.110295	0	0	0	0	1	4	4
61	12.382	0.179955	0	0	0	0	1	4	4
60	12.562	0.191565	0	0	0	0	1	4	4
59	12.7652	0.18576	0	0	0	0	1	4	4
59	12.9509	0.18576	0	0	0	0	1	4	4
60	13.1599	0.191565	0	0	0	0	1	4	4
62	13.514	0.452789	0	0	0	0	1	4	4
55	14.3499	0.406349	0	0	0	0	1	4	4
55	14.7679	0.679184	0	0	0	0	1	4	4
56	15.4471	0.0580492	0	0	0	0	1	4	4
54	16.9738	0.179955	0	0	0	0	1	4	4
55	17.2002	0.150928	0	0	0	0	1	4	4
58	17.6239	0.203175	0	0	0	0	1	4	4
56	17.9839	0.0928802	0	0	0	0	1	4	4
56	18.1464	0.133514	0	0	0	0	1	4	4
56	18.2799	0.278639	0	0	0	0	1	4	4
55	18.5585	0.208981	0	0	0	0	1	4	4
55	18.8662	0.191565	0	0	0	0	1	4	4
42	21.5539	0.0464401	0	0	0	0	1	4	4
55	21.6236	0.0522442	0	0	0	0	1	4	4
56	21.6758	0.238005	0	0	0	0	1	4	4
56	22.3086	0.313469	0	0	0	0	1	4	4
56	22.7614	0.296055	0	0	0	0	1	4	4
55	23.0574	0.423763	0	0	0	0	1	4	4
55	23.5799	0.133516	0	0	0	0	1	4	4
55	23.7134	0.150928	0	0	0	0	1	4	4
0	23.8643	0.145124	0	0	0	0	1	4	4
55	24.0094	0.121906	0	0	0	0	1	4	4
63	25.6348	0.446985	0	0	0	0	1	4	4
63	26.2676	0.267031	0	0	0	0	1	4	4
60	26.6159	0.208979	0	0	0	0	1	4	4
62	26.8539	0.0638561	0	0	0	0	1	4	4
63	26.9468	0.359909	0	0	0	0	1	4	4
63	27.3067	0.168344	0	0	0	0	1	4	4
62	27.5563	0.325079	0	0	0	0	1	4	4
62	27.8814	0.313471	0	0	0	0	1	4	4
62	28.2006	0.267031	0	0	0	0	1	4	4
62	28.4677	0.232199	0	0	0	0	1	4	4
