midiPitch 	 onsetSec 	 durationSec 	 onsetBeats 	 onsetBarIndex 	 onsetBar 	 durationBeats 	 velocity  	 numerator 	 denominator 
69	0.0638549	0.15093	0	0	2.48252e-035	0	1	4	4
70	0.214785	0.307664	0	0	2.48252e-035	0	1	4	4
69	0.522449	0.388934	0	0	2.48252e-035	0	1	4	4
71	0.911383	0.203175	0	0	2.48252e-035	0	1	4	4
73	1.5151	0.203175	0	0	2.48252e-035	0	1	4	4
72	1.71828	0.0812699	0	0	2.48252e-035	0	1	4	4
70	1.83438	0.255419	0	0	2.48252e-035	0	1	4	4
69	2.0898	0.0696599	0	0	2.48252e-035	0	1	4	4
70	2.15946	0.18576	0	0	2.48252e-035	0	1	4	4
67	2.34522	0.110295	0	0	2.48252e-035	0	1	4	4
71	2.56	0.214785	0	0	2.48252e-035	0	1	4	4
70	2.77478	0.13932	0	0	2.48252e-035	0	1	4	4
64	3.21016	0.17415	0	0	2.48252e-035	0	1	4	4
67	3.38431	0.307664	0	0	2.48252e-035	0	1	4	4
64	3.69197	0.0232201	0	0	2.48252e-035	0	1	4	4
64	3.75002	0.156735	0	0	2.48252e-035	0	1	4	4
63	3.90676	0.603719	0	0	2.48252e-035	0	1	4	4
64	4.51048	0.301859	0	0	2.48252e-035	0	1	4	4
67	5.07356	0.1161	0	0	2.48252e-035	0	1	4	4
67	5.18966	0.168345	0	0	2.48252e-035	0	1	4	4
68	5.358	0.162539	0	0	2.48252e-035	0	1	4	4
69	5.52054	0.0928798	0	0	2.48252e-035	0	1	4	4
70	5.74113	0.203175	0	0	2.48252e-035	0	1	4	4
69	6.13587	0.464399	0	0	2.48252e-035	0	1	4	4
67	6.60027	0.655963	0	0	2.48252e-035	0	1	4	4
71	8.21986	0.214785	0	0	2.48252e-035	0	1	4	4
74	8.44626	0.267029	0	0	2.48252e-035	0	1	4	4
71	8.71329	0.365715	0	0	2.48252e-035	0	1	4	4
74	9.079	0.307664	0	0	2.48252e-035	0	1	4	4
72	9.64789	0.104489	0	0	2.48252e-035	0	1	4	4
74	9.88009	0.249615	0	0	2.48252e-035	0	1	4	4
72	10.4083	0.0986853	0	0	2.48252e-035	0	1	4	4
72	10.6289	0.121905	0	0	2.48252e-035	0	1	4	4
74	10.7508	0.116099	0	0	2.48252e-035	0	1	4	4
72	11.0527	0.127709	0	0	2.48252e-035	0	1	4	4
71	11.3488	0.267029	0	0	2.48252e-035	0	1	4	4
69	11.6912	0.121904	0	0	2.48252e-035	0	1	4	4
69	11.8132	0.35991	0	0	2.48252e-035	0	1	4	4
70	12.1731	0.214785	0	0	2.48252e-035	0	1	4	4
67	12.3878	0.0870743	0	0	2.48252e-035	0	1	4	4
69	12.4749	0.20898	0	0	2.48252e-035	0	1	4	4
71	12.6839	0.452789	0	0	2.48252e-035	0	1	4	4
72	13.1367	0.307664	0	0	2.48252e-035	0	1	4	4
71	13.4444	0.0928802	0	0	2.48252e-035	0	1	4	4
59	13.5372	0.19737	0	0	2.48252e-035	0	1	4	4
67	13.723	0.01161	0	0	2.48252e-035	0	1	4	4
59	13.5372	0.203175	0	0	2.48252e-035	0	1	4	4
67	13.723	0.017415	0	0	2.48252e-035	0	1	4	4
59	13.5372	0.20898	0	0	2.48252e-035	0	1	4	4
67	13.723	0.20898	0	0	2.48252e-035	0	1	4	4
74	13.932	1.19583	0	0	2.48252e-035	0	1	4	4
62	14.9246	0.708209	0	0	2.48252e-035	0	1	4	4
59	15.6328	0.0986843	0	0	2.48252e-035	0	1	4	4
62	16.6255	0.255421	0	0	2.48252e-035	0	1	4	4
65	16.8809	0.121904	0	0	2.48252e-035	0	1	4	4
54	17.7633	0.127708	0	0	2.48252e-035	0	1	4	4
23257448	18.0593	0.307665	0	0	2.48252e-035	0	1	4	4
59	18.367	0.0986843	0	0	2.48252e-035	0	1	4	4
68	19.8415	0.156734	0	0	2.48252e-035	0	1	4	4
57	19.9982	0.371519	0	0	2.48252e-035	0	1	4	4
69	19.9924	1.24807	0	0	2.48252e-035	0	1	4	4
66	21.2405	0.0870743	0	0	2.48252e-035	0	1	4	4
66	21.3275	0.133514	0	0	2.48252e-035	0	1	4	4
57	22.1286	0.249615	0	0	2.48252e-035	0	1	4	4
56	22.3782	0.255419	0	0	2.48252e-035	0	1	4	4
55	22.6336	0.0638561	0	0	2.48252e-035	0	1	4	4
53	23.4522	0.197369	0	0	2.48252e-035	0	1	4	4
54	24.2184	0.0522442	0	0	2.48252e-035	0	1	4	4
59	24.2707	0.0580502	0	0	2.48252e-035	0	1	4	4
59	24.3287	0.156734	0	0	2.48252e-035	0	1	4	4
60	24.4854	0.319275	0	0	2.48252e-035	0	1	4	4
59	24.8047	0.290249	0	0	2.48252e-035	0	1	4	4
62	25.095	0.220591	0	0	2.48252e-035	0	1	4	4
64	25.3156	0.232199	0	0	2.48252e-035	0	1	4	4
64	25.5478	1.05651	0	0	2.48252e-035	0	1	4	4
62	26.6507	0.197371	0	0	2.48252e-035	0	1	4	4
59	26.8655	0.255421	0	0	2.48252e-035	0	1	4	4
71	27.4634	0.296053	0	0	2.48252e-035	0	1	4	4
71	28.2761	0.162539	0	0	2.48252e-035	0	1	4	4
70	28.4386	0.0348301	0	0	2.48252e-035	0	1	4	4
71	28.4793	0.446983	0	0	2.48252e-035	0	1	4	4
72	28.9495	0.197369	0	0	2.48252e-035	0	1	4	4
71	29.1933	0.267031	0	0	2.48252e-035	0	1	4	4
