midiPitch 	 onsetSec 	 durationSec 	 onsetBeats 	 onsetBarIndex 	 onsetBar 	 durationBeats 	 velocity  	 numerator 	 denominator 
56	0.12771	0.18576	0	0	0	0	1	4	4
56	0.313469	0.330884	0	0	0	0	1	4	4
55	1.12036	0.16254	0	0	0	0	1	4	4
57	1.2829	0.261225	0	0	0	0	1	4	4
55	1.60218	0.16254	0	0	0	0	1	4	4
59	1.90984	0.423764	0	0	0	0	1	4	4
58	2.69932	0.359909	0	0	0	0	1	4	4
55	3.05923	0.1161	0	0	0	0	1	4	4
57	3.36689	0.0928798	0	0	0	0	1	4	4
57	3.45977	0.731429	0	0	0	0	1	4	4
55	4.56853	0.15093	0	0	0	0	1	4	4
57	4.84717	0.127709	0	0	0	0	1	4	4
59	5.34639	0.325079	0	0	0	0	1	4	4
62	5.7063	0.272835	0	0	0	0	1	4	4
64	6.13587	0.261225	0	0	0	0	1	4	4
62	6.3971	0.261224	0	0	0	0	1	4	4
62	6.65832	0.10449	0	0	0	0	1	4	4
64	6.76281	0.655964	0	0	0	0	1	4	4
64	7.57551	0.12771	0	0	0	0	1	4	4
61	7.7961	0.354104	0	0	0	0	1	4	4
58	8.24889	0.156734	0	0	0	0	1	4	4
58	8.40562	0.150929	0	0	0	0	1	4	4
57	8.55655	0.731429	0	0	0	0	1	4	4
57	9.28798	0.127709	0	0	0	0	1	4	4
57	9.74077	0.626939	0	0	0	0	1	4	4
56	10.4954	0.20898	0	0	0	0	1	4	4
54	10.8263	0.394739	0	0	0	0	1	4	4
52	11.221	0.179955	0	0	0	0	1	4	4
55	11.5345	1.33515	0	0	0	0	1	4	4
56	12.8697	0.121905	0	0	0	0	1	4	4
57	13.0612	0.284445	0	0	0	0	1	4	4
58	13.3457	0.179955	0	0	0	0	1	4	4
58	16.2946	0.760452	0	0	0	0	1	4	4
56	17.1944	0.220591	0	0	0	0	1	4	4
54	17.5137	0.232199	0	0	0	0	1	4	4
51	17.7458	0.243811	0	0	0	0	1	4	4
54	18.1406	1.22485	0	0	0	0	1	4	4
54	19.3654	0.812698	0	0	0	0	1	4	4
50	20.1781	0.435373	0	0	0	0	1	4	4
54	20.6135	0.55728	0	0	0	0	1	4	4
52	21.1708	0.0464401	0	0	0	0	1	4	4
54	21.2346	0.110294	0	0	0	0	1	4	4
53	21.3449	1.31193	0	0	0	0	1	4	4
0	22.6569	0.133514	0	0	0	0	1	4	4
59	24.4216	0.644354	0	0	0	0	1	4	4
59	25.2111	0.13932	0	0	0	0	1	4	4
60	25.4897	0.214785	0	0	0	0	1	4	4
59	25.7045	0.168344	0	0	0	0	1	4	4
60	26.0122	0.342495	0	0	0	0	1	4	4
62	26.4127	1.23066	0	0	0	0	1	4	4
64	28.1774	0.986849	0	0	0	0	1	4	4
