midiPitch 	 onsetSec 	 durationSec 	 onsetBeats 	 onsetBarIndex 	 onsetBar 	 durationBeats 	 velocity  	 numerator 	 denominator 
61	0.156735	0.20898	0	0	3.34735e-035	0	1	4	4
62	0.365714	0.15093	0	0	3.34735e-035	0	1	4	4
62	0.516644	0.179955	0	0	3.34735e-035	0	1	4	4
62	0.696599	0.18576	0	0	3.34735e-035	0	1	4	4
62	0.882358	0.18576	0	0	3.34735e-035	0	1	4	4
63	1.06812	0.18576	0	0	3.34735e-035	0	1	4	4
62	1.25388	0.348299	0	0	3.34735e-035	0	1	4	4
62	1.60218	0.0986849	0	0	3.34735e-035	0	1	4	4
55	3.64553	0.179955	0	0	3.34735e-035	0	1	4	4
65	3.88934	0.214785	0	0	3.34735e-035	0	1	4	4
64	4.10413	0.319274	0	0	3.34735e-035	0	1	4	4
66	5.85143	0.0696597	0	0	3.34735e-035	0	1	4	4
64	6.10685	0.10449	0	0	3.34735e-035	0	1	4	4
64	6.21134	0.330884	0	0	3.34735e-035	0	1	4	4
56	6.96018	0.203175	0	0	3.34735e-035	0	1	4	4
56	7.16336	0.15093	0	0	3.34735e-035	0	1	4	4
56	7.65097	0.12771	0	0	3.34735e-035	0	1	4	4
65	7.89478	0.168345	0	0	3.34735e-035	0	1	4	4
65	8.06313	0.226395	0	0	3.34735e-035	0	1	4	4
64	8.30694	0.830113	0	0	3.34735e-035	0	1	4	4
57	11.6564	0.20898	0	0	3.34735e-035	0	1	4	4
65	11.9293	0.179955	0	0	3.34735e-035	0	1	4	4
64	12.1673	0.255419	0	0	3.34735e-035	0	1	4	4
64	12.4227	0.801088	0	0	3.34735e-035	0	1	4	4
63	13.6417	0.156735	0	0	3.34735e-035	0	1	4	4
64	13.8449	0.203175	0	0	3.34735e-035	0	1	4	4
63	14.0481	0.16254	0	0	3.34735e-035	0	1	4	4
65	14.2106	0.121904	0	0	3.34735e-035	0	1	4	4
67	14.3325	0.319275	0	0	3.34735e-035	0	1	4	4
64	14.6576	0.429569	0	0	3.34735e-035	0	1	4	4
64	15.0872	0.24381	0	0	3.34735e-035	0	1	4	4
65	15.331	0.574694	0	0	3.34735e-035	0	1	4	4
64	16.2714	0.145124	0	0	3.34735e-035	0	1	4	4
64	16.5152	0.168344	0	0	3.34735e-035	0	1	4	4
62	16.7068	0.371519	0	0	3.34735e-035	0	1	4	4
62	17.0783	0.330885	0	0	3.34735e-035	0	1	4	4
62	17.4092	0.203175	0	0	3.34735e-035	0	1	4	4
62	17.6123	0.18576	0	0	3.34735e-035	0	1	4	4
62	17.7981	0.359909	0	0	3.34735e-035	0	1	4	4
62	18.158	0.185759	0	0	3.34735e-035	0	1	4	4
61	19.737	0.0754642	0	0	3.34735e-035	0	1	4	4
63	19.9808	0.0812702	0	0	3.34735e-035	0	1	4	4
65	20.1607	0.0638561	0	0	3.34735e-035	0	1	4	4
64	20.2246	1.01587	0	0	3.34735e-035	0	1	4	4
64	21.5771	0.13932	0	0	3.34735e-035	0	1	4	4
64	21.8035	0.255419	0	0	3.34735e-035	0	1	4	4
67	22.088	0.156734	0	0	3.34735e-035	0	1	4	4
68	22.2447	0.214785	0	0	3.34735e-035	0	1	4	4
64	22.4595	0.679184	0	0	3.34735e-035	0	1	4	4
64	23.1387	0.127708	0	0	3.34735e-035	0	1	4	4
63	23.6437	0.168344	0	0	3.34735e-035	0	1	4	4
62	23.8121	0.191565	0	0	3.34735e-035	0	1	4	4
62	24.0036	0.255419	0	0	3.34735e-035	0	1	4	4
62	24.259	0.145124	0	0	3.34735e-035	0	1	4	4
64	24.4042	0.290251	0	0	3.34735e-035	0	1	4	4
64	24.6944	0.203175	0	0	3.34735e-035	0	1	4	4
59	24.9324	0.743038	0	0	3.34735e-035	0	1	4	4
60	25.6755	0.197369	0	0	3.34735e-035	0	1	4	4
64	27.5621	0.336689	0	0	3.34735e-035	0	1	4	4
60	27.9858	0.121904	0	0	3.34735e-035	0	1	4	4
60	28.1078	0.249615	0	0	3.34735e-035	0	1	4	4
60	28.3574	0.55728	0	0	3.34735e-035	0	1	4	4
60	28.9146	0.371519	0	0	3.34735e-035	0	1	4	4
