midiPitch 	 onsetSec 	 durationSec 	 onsetBeats 	 onsetBarIndex 	 onsetBar 	 durationBeats 	 velocity  	 numerator 	 denominator 
71	0.359909	0.0348299	0	0	0	0	1	4	4
74	0.417959	0.145125	0	0	0	0	1	4	4
75	0.563084	0.0696599	0	0	0	0	1	4	4
62	0.748844	0.0348299	0	0	0	0	1	4	4
62	0.783673	0.203175	0	0	0	0	1	4	4
62	1.10875	0.203175	0	0	0	0	1	4	4
60	1.45125	0.319274	0	0	0	0	1	4	4
59	1.77052	0.17415	0	0	0	0	1	4	4
59	1.96789	0.191565	0	0	0	0	1	4	4
57	2.95474	0.0986848	0	0	0	0	1	4	4
57	3.05342	0.0696599	0	0	0	0	1	4	4
57	3.12308	0.168345	0	0	0	0	1	4	4
52	3.59329	0.1161	0	0	0	0	1	4	4
64	3.84871	0.110295	0	0	0	0	1	4	4
57	4.1912	0.406349	0	0	0	0	1	4	4
55	4.85878	0.0348296	0	0	0	0	1	4	4
57	4.92263	0.0986848	0	0	0	0	1	4	4
58	5.02132	0.0348301	0	0	0	0	1	4	4
57	5.05615	0.0928798	0	0	0	0	1	4	4
57	5.18385	0.307664	0	0	0	0	1	4	4
57	5.57859	0.365714	0	0	0	0	1	4	4
57	5.96172	0.156734	0	0	0	0	1	4	4
55	6.17651	0.0232201	0	0	0	0	1	4	4
55	6.20553	0.17415	0	0	0	0	1	4	4
52	7.71483	0.0290246	0	0	0	0	1	4	4
58	8.25469	0.121904	0	0	0	0	1	4	4
57	8.3766	0.510839	0	0	0	0	1	4	4
57	9.62467	0.470204	0	0	0	0	1	4	4
57	10.1413	0.116099	0	0	0	0	1	4	4
57	10.478	0.0696602	0	0	0	0	1	4	4
57	10.6347	0.249615	0	0	0	0	1	4	4
57	10.8844	0.0406351	0	0	0	0	1	4	4
58	10.9714	0.156735	0	0	0	0	1	4	4
57	11.1282	0.0696592	0	0	0	0	1	4	4
57	11.1978	0.0580502	0	0	0	0	1	4	4
57	11.2559	0.179955	0	0	0	0	1	4	4
55	11.6796	0.133514	0	0	0	0	1	4	4
64	13.3515	0.150929	0	0	0	0	1	4	4
65	13.6533	0.0464401	0	0	0	0	1	4	4
66	13.8391	0.0522451	0	0	0	0	1	4	4
64	13.8971	0.748844	0	0	0	0	1	4	4
65	14.8782	0.179955	0	0	0	0	1	4	4
63	15.0581	0.17415	0	0	0	0	1	4	4
65	15.2439	0.261224	0	0	0	0	1	4	4
64	15.5109	0.12771	0	0	0	0	1	4	4
64	15.6386	0.0232201	0	0	0	0	1	4	4
65	15.6909	0.214785	0	0	0	0	1	4	4
66	15.9057	0.0406351	0	0	0	0	1	4	4
66	15.9463	0.0232201	0	0	0	0	1	4	4
67	16.6139	0.156736	0	0	0	0	1	4	4
67	16.7706	0.0580482	0	0	0	0	1	4	4
65	16.8287	0.232201	0	0	0	0	1	4	4
67	17.2176	0.179955	0	0	0	0	1	4	4
67	17.3976	0.121904	0	0	0	0	1	4	4
67	17.5195	0.0406361	0	0	0	0	1	4	4
65	17.5949	0.0870743	0	0	0	0	1	4	4
62	17.682	0.359909	0	0	0	0	1	4	4
70	18.1174	0.267031	0	0	0	0	1	4	4
70	18.3844	0.208979	0	0	0	0	1	4	4
63	19.0288	0.110294	0	0	0	0	1	4	4
65	19.261	0.0406342	0	0	0	0	1	4	4
64	19.3132	0.255421	0	0	0	0	1	4	4
64	19.5686	0.603718	0	0	0	0	1	4	4
65	20.3233	0.238005	0	0	0	0	1	4	4
69	20.5845	0.214785	0	0	0	0	1	4	4
68	20.7993	0.185759	0	0	0	0	1	4	4
69	21.0141	0.179955	0	0	0	0	1	4	4
70	21.1998	0.145124	0	0	0	0	1	4	4
70	21.3449	0.16254	0	0	0	0	1	4	4
71	21.5075	0.156734	0	0	0	0	1	4	4
70	21.9138	0.296055	0	0	0	0	1	4	4
70	22.3318	0.191565	0	0	0	0	1	4	4
71	22.7091	0.191565	0	0	0	0	1	4	4
71	22.9007	0.0348301	0	0	0	0	1	4	4
79	23.2722	0.185759	0	0	0	0	1	4	4
77	23.4754	0.145124	0	0	0	0	1	4	4
76	23.6205	0.0290241	0	0	0	0	1	4	4
70	24.7583	0.0406361	0	0	0	0	1	4	4
69	24.8221	0.249615	0	0	0	0	1	4	4
69	25.1066	0.145124	0	0	0	0	1	4	4
68	25.2517	0.232201	0	0	0	0	1	4	4
70	25.5129	0.110294	0	0	0	0	1	4	4
67	25.7219	0.301859	0	0	0	0	1	4	4
64	26.1689	0.267031	0	0	0	0	1	4	4
69	26.4359	0.168344	0	0	0	0	1	4	4
69	26.6043	0.0290241	0	0	0	0	1	4	4
69	26.7784	0.145124	0	0	0	0	1	4	4
69	26.9235	0.13932	0	0	0	0	1	4	4
69	27.0629	0.435373	0	0	0	0	1	4	4
69	27.4982	0.0696602	0	0	0	0	1	4	4
69	27.5679	0.110294	0	0	0	0	1	4	4
69	27.6898	0.179956	0	0	0	0	1	4	4
70	27.8698	0.203175	0	0	0	0	1	4	4
70	28.2819	0.18576	0	0	0	0	1	4	4
70	28.4677	0.0986843	0	0	0	0	1	4	4
77	28.9727	0.133514	0	0	0	0	1	4	4
76	29.1062	0.0812702	0	0	0	0	1	4	4
75	29.1875	0.0522442	0	0	0	0	1	4	4
