midiPitch 	 onsetSec 	 durationSec 	 onsetBeats 	 onsetBarIndex 	 onsetBar 	 durationBeats 	 velocity  	 numerator 	 denominator 
85	1.40481	0.191565	0	0	3.83621e-035	0	1	4	4
85	1.59637	0.0348299	0	0	3.83621e-035	0	1	4	4
85	1.6312	0.10449	0	0	3.83621e-035	0	1	4	4
85	1.73569	0.214785	0	0	3.83621e-035	0	1	4	4
85	1.95048	0.10449	0	0	3.83621e-035	0	1	4	4
85	2.10721	0.0986848	0	0	3.83621e-035	0	1	4	4
85	2.29297	0.087075	0	0	3.83621e-035	0	1	4	4
85	2.38005	0.191565	0	0	3.83621e-035	0	1	4	4
85	2.57161	0.214785	0	0	3.83621e-035	0	1	4	4
85	2.78639	0.0812697	0	0	3.83621e-035	0	1	4	4
85	2.86766	0.0580499	0	0	3.83621e-035	0	1	4	4
85	2.92571	0.0986848	0	0	3.83621e-035	0	1	4	4
85	3.0244	0.0812697	0	0	3.83621e-035	0	1	4	4
85	3.12308	0.1161	0	0	3.83621e-035	0	1	4	4
85	3.23918	0.0754647	0	0	3.83621e-035	0	1	4	4
85	3.31465	0.0580499	0	0	3.83621e-035	0	1	4	4
85	3.3727	0.08127	0	0	3.83621e-035	0	1	4	4
85	3.45397	0.0580497	0	0	3.83621e-035	0	1	4	4
85	3.51202	0.0580499	0	0	3.83621e-035	0	1	4	4
85	3.57007	0.0464399	0	0	3.83621e-035	0	1	4	4
85	3.61651	0.098685	0	0	3.83621e-035	0	1	4	4
85	3.721	0.075465	0	0	3.83621e-035	0	1	4	4
85	3.79646	0.12771	0	0	3.83621e-035	0	1	4	4
85	3.92417	0.168345	0	0	3.83621e-035	0	1	4	4
85	4.09252	0.156735	0	0	3.83621e-035	0	1	4	4
85	4.24925	0.0812697	0	0	3.83621e-035	0	1	4	4
85	4.33052	0.0986848	0	0	3.83621e-035	0	1	4	4
85	4.42921	0.0986848	0	0	3.83621e-035	0	1	4	4
85	4.78331	0.0812702	0	0	3.83621e-035	0	1	4	4
73	5.11419	0.278639	0	0	3.83621e-035	0	1	4	4
75	5.49732	0.238005	0	0	3.83621e-035	0	1	4	4
75	5.92689	0.307664	0	0	3.83621e-035	0	1	4	4
87	15.6619	0.0812693	0	0	3.83621e-035	0	1	4	4
87	15.7431	0.156734	0	0	3.83621e-035	0	1	4	4
87	15.8999	0.0812702	0	0	3.83621e-035	0	1	4	4
87	15.9811	0.20898	0	0	3.83621e-035	0	1	4	4
87	16.1901	0.0406342	0	0	3.83621e-035	0	1	4	4
87	16.2366	0.10449	0	0	3.83621e-035	0	1	4	4
87	16.341	0.110294	0	0	3.83621e-035	0	1	4	4
87	16.4513	0.226395	0	0	3.83621e-035	0	1	4	4
78	16.9738	0.0522442	0	0	3.83621e-035	0	1	4	4
80	17.026	0.435373	0	0	3.83621e-035	0	1	4	4
85	17.6297	0.261225	0	0	3.83621e-035	0	1	4	4
83	17.92	0.1161	0	0	3.83621e-035	0	1	4	4
80	18.0361	0.0464382	0	0	3.83621e-035	0	1	4	4
83	18.0825	0.0348301	0	0	3.83621e-035	0	1	4	4
80	18.1174	0.121906	0	0	3.83621e-035	0	1	4	4
83	18.2683	0.0290241	0	0	3.83621e-035	0	1	4	4
85	18.3844	0.452789	0	0	3.83621e-035	0	1	4	4
73	18.9475	0.673378	0	0	3.83621e-035	0	1	4	4
71	19.9401	0.435373	0	0	3.83621e-035	0	1	4	4
83	20.2826	0.127708	0	0	3.83621e-035	0	1	4	4
83	20.4103	0.12771	0	0	3.83621e-035	0	1	4	4
83	20.538	0.0986843	0	0	3.83621e-035	0	1	4	4
83	20.6542	0.174149	0	0	3.83621e-035	0	1	4	4
83	20.8283	0.255421	0	0	3.83621e-035	0	1	4	4
80	22.3666	0.203175	0	0	3.83621e-035	0	1	4	4
80	22.5698	0.16254	0	0	3.83621e-035	0	1	4	4
80	22.7323	0.174149	0	0	3.83621e-035	0	1	4	4
80	22.9065	0.145124	0	0	3.83621e-035	0	1	4	4
80	23.0516	0.0754662	0	0	3.83621e-035	0	1	4	4
80	23.1271	0.145124	0	0	3.83621e-035	0	1	4	4
80	23.2722	0.133514	0	0	3.83621e-035	0	1	4	4
80	23.4057	0.0870743	0	0	3.83621e-035	0	1	4	4
80	23.4928	0.0754662	0	0	3.83621e-035	0	1	4	4
80	23.5683	0.0870743	0	0	3.83621e-035	0	1	4	4
80	23.6553	0.185759	0	0	3.83621e-035	0	1	4	4
83	24.3519	0.0928802	0	0	3.83621e-035	0	1	4	4
80	24.5319	0.0928802	0	0	3.83621e-035	0	1	4	4
80	24.7176	0.0406342	0	0	3.83621e-035	0	1	4	4
83	24.7583	0.0638542	0	0	3.83621e-035	0	1	4	4
80	24.8221	0.284445	0	0	3.83621e-035	0	1	4	4
83	25.1878	0.0464401	0	0	3.83621e-035	0	1	4	4
80	25.2343	0.168344	0	0	3.83621e-035	0	1	4	4
80	25.4142	0.371519	0	0	3.83621e-035	0	1	4	4
80	25.7858	0.16254	0	0	3.83621e-035	0	1	4	4
80	25.9483	0.168344	0	0	3.83621e-035	0	1	4	4
80	26.1166	0.226395	0	0	3.83621e-035	0	1	4	4
80	26.343	0.0986843	0	0	3.83621e-035	0	1	4	4
80	26.4417	0.203175	0	0	3.83621e-035	0	1	4	4
80	26.6449	0.0986843	0	0	3.83621e-035	0	1	4	4
80	26.7436	0.10449	0	0	3.83621e-035	0	1	4	4
80	26.8481	0.0870743	0	0	3.83621e-035	0	1	4	4
80	27.0512	0.249615	0	0	3.83621e-035	0	1	4	4
80	27.3589	0.127708	0	0	3.83621e-035	0	1	4	4
80	27.4866	0.203175	0	0	3.83621e-035	0	1	4	4
80	27.7014	0.0638561	0	0	3.83621e-035	0	1	4	4
80	28.0033	0.0464401	0	0	3.83621e-035	0	1	4	4
75	28.1078	0.121906	0	0	3.83621e-035	0	1	4	4
80	28.2297	0.0696583	0	0	3.83621e-035	0	1	4	4
80	28.4096	0.232199	0	0	3.83621e-035	0	1	4	4
80	28.7985	0.0406361	0	0	3.83621e-035	0	1	4	4
80	28.8392	0.0696583	0	0	3.83621e-035	0	1	4	4
80	29.0366	0.029026	0	0	3.83621e-035	0	1	4	4
