midiPitch 	 onsetSec 	 durationSec 	 onsetBeats 	 onsetBarIndex 	 onsetBar 	 durationBeats 	 velocity  	 numerator 	 denominator 
75	1.19002	0.0406349	0	0	4.15598e-035	0	1	4	4
76	1.2771	0.0232199	0	0	4.15598e-035	0	1	4	4
74	1.43383	0.03483	0	0	4.15598e-035	0	1	4	4
73	1.52671	0.03483	0	0	4.15598e-035	0	1	4	4
73	1.56735	0.0232199	0	0	4.15598e-035	0	1	4	4
73	1.76472	0.0638549	0	0	4.15598e-035	0	1	4	4
74	1.84599	0.0812699	0	0	4.15598e-035	0	1	4	4
75	2.41488	0.0290248	0	0	4.15598e-035	0	1	4	4
75	2.55419	0.0406349	0	0	4.15598e-035	0	1	4	4
48	2.94313	0.417959	0	0	4.15598e-035	0	1	4	4
50	3.40172	0.145125	0	0	4.15598e-035	0	1	4	4
53	3.69778	0.0580499	0	0	4.15598e-035	0	1	4	4
52	3.75583	0.325079	0	0	4.15598e-035	0	1	4	4
53	4.58594	0.301859	0	0	4.15598e-035	0	1	4	4
53	4.8878	1.60798	0	0	4.15598e-035	0	1	4	4
50	6.49578	0.255419	0	0	4.15598e-035	0	1	4	4
66	7.11692	0.116099	0	0	4.15598e-035	0	1	4	4
84	8.69007	0.0928793	0	0	4.15598e-035	0	1	4	4
84	8.78295	0.0348301	0	0	4.15598e-035	0	1	4	4
84	8.86422	0.162539	0	0	4.15598e-035	0	1	4	4
60	10.716	0.0232201	0	0	4.15598e-035	0	1	4	4
51	11.459	0.162539	0	0	4.15598e-035	0	1	4	4
52	11.9989	0.272835	0	0	4.15598e-035	0	1	4	4
51	12.5156	0.435374	0	0	4.15598e-035	0	1	4	4
52	13.7694	0.19737	0	0	4.15598e-035	0	1	4	4
52	13.9668	0.522449	0	0	4.15598e-035	0	1	4	4
52	14.5183	0.487619	0	0	4.15598e-035	0	1	4	4
52	15.0059	0.505033	0	0	4.15598e-035	0	1	4	4
52	15.5109	0.33669	0	0	4.15598e-035	0	1	4	4
52	15.9869	0.342495	0	0	4.15598e-035	0	1	4	4
52	17.2989	0.220589	0	0	4.15598e-035	0	1	4	4
53	17.5485	0.272835	0	0	4.15598e-035	0	1	4	4
55	17.8213	0.348299	0	0	4.15598e-035	0	1	4	4
55	18.1696	0.534058	0	0	4.15598e-035	0	1	4	4
54	18.7037	0.10449	0	0	4.15598e-035	0	1	4	4
52	18.8082	0.296055	0	0	4.15598e-035	0	1	4	4
51	19.1042	0.0638542	0	0	4.15598e-035	0	1	4	4
50	19.2958	0.16254	0	0	4.15598e-035	0	1	4	4
50	19.4583	0.296053	0	0	4.15598e-035	0	1	4	4
52	19.8705	0.133514	0	0	4.15598e-035	0	1	4	4
51	23.1329	0.55728	0	0	4.15598e-035	0	1	4	4
50	23.8121	0.348299	0	0	4.15598e-035	0	1	4	4
51	24.2126	0.1161	0	0	4.15598e-035	0	1	4	4
50	24.3287	0.365715	0	0	4.15598e-035	0	1	4	4
50	24.7989	0.191565	0	0	4.15598e-035	0	1	4	4
50	24.9905	0.731428	0	0	4.15598e-035	0	1	4	4
50	25.8032	0.220589	0	0	4.15598e-035	0	1	4	4
50	26.2444	0.296055	0	0	4.15598e-035	0	1	4	4
50	26.5404	0.290251	0	0	4.15598e-035	0	1	4	4
50	28.398	0.150928	0	0	4.15598e-035	0	1	4	4
50	28.5489	0.179955	0	0	4.15598e-035	0	1	4	4
52	28.7289	0.255421	0	0	4.15598e-035	0	1	4	4
52	28.9843	0.249615	0	0	4.15598e-035	0	1	4	4
