midiPitch 	 onsetSec 	 durationSec 	 onsetBeats 	 onsetBarIndex 	 onsetBar 	 durationBeats 	 velocity  	 numerator 	 denominator 
65	0.981043	0.02322	0	0	3.94914e-035	0	1	4	4
69	1.00426	0.0232199	0	0	3.94914e-035	0	1	4	4
65	1.37578	0.040635	0	0	3.94914e-035	0	1	4	4
75	1.6254	0.0290248	0	0	3.94914e-035	0	1	4	4
74	1.93306	0.0232199	0	0	3.94914e-035	0	1	4	4
75	3.43075	0.0290248	0	0	3.94914e-035	0	1	4	4
75	3.67456	0.0232201	0	0	3.94914e-035	0	1	4	4
79	3.82549	0.0348301	0	0	3.94914e-035	0	1	4	4
79	3.97642	0.0406351	0	0	3.94914e-035	0	1	4	4
86	11.8073	0.0348301	0	0	3.94914e-035	0	1	4	4
67	13.1251	0.0696602	0	0	3.94914e-035	0	1	4	4
83	17.6472	0.0696602	0	0	3.94914e-035	0	1	4	4
83	17.7168	0.0232201	0	0	3.94914e-035	0	1	4	4
83	17.74	0.0870743	0	0	3.94914e-035	0	1	4	4
83	17.8271	0.179955	0	0	3.94914e-035	0	1	4	4
83	18.0535	0.12771	0	0	3.94914e-035	0	1	4	4
83	18.1812	0.0464401	0	0	3.94914e-035	0	1	4	4
83	18.2277	0.0464382	0	0	3.94914e-035	0	1	4	4
84	18.4541	0.110296	0	0	3.94914e-035	0	1	4	4
83	18.7907	0.0754642	0	0	3.94914e-035	0	1	4	4
84	18.8662	0.110294	0	0	3.94914e-035	0	1	4	4
86	26.105	0.301859	0	0	3.94914e-035	0	1	4	4
86	26.6565	0.0870743	0	0	3.94914e-035	0	1	4	4
83	28.0207	0.029026	0	0	3.94914e-035	0	1	4	4
83	28.0555	0.110294	0	0	3.94914e-035	0	1	4	4
71	28.3225	0.319275	0	0	3.94914e-035	0	1	4	4
72	28.7521	0.238005	0	0	3.94914e-035	0	1	4	4
71	28.9901	0.0696602	0	0	3.94914e-035	0	1	4	4
72	29.0598	0.145124	0	0	3.94914e-035	0	1	4	4
72	29.2049	0.15093	0	0	3.94914e-035	0	1	4	4
72	29.3558	0.319275	0	0	3.94914e-035	0	1	4	4
72	29.6751	0.249615	0	0	3.94914e-035	0	1	4	4
