midiPitch 	 onsetSec 	 durationSec 	 onsetBeats 	 onsetBarIndex 	 onsetBar 	 durationBeats 	 velocity  	 numerator 	 denominator 
74	0.20898	0.0580499	0	0	4.88972e-035	0	1	4	4
77	0.888163	0.0348299	0	0	4.88972e-035	0	1	4	4
77	1.00426	0.0928798	0	0	4.88972e-035	0	1	4	4
70	1.63701	0.0232199	0	0	4.88972e-035	0	1	4	4
67	2.59483	0.284445	0	0	4.88972e-035	0	1	4	4
69	2.87927	0.0232198	0	0	4.88972e-035	0	1	4	4
69	3.0302	0.0522449	0	0	4.88972e-035	0	1	4	4
69	3.22757	0.0406349	0	0	4.88972e-035	0	1	4	4
70	3.75583	0.0812697	0	0	4.88972e-035	0	1	4	4
70	3.8371	0.0232201	0	0	4.88972e-035	0	1	4	4
69	4.05769	0.12771	0	0	4.88972e-035	0	1	4	4
69	4.1854	0.0406351	0	0	4.88972e-035	0	1	4	4
69	4.24925	0.110294	0	0	4.88972e-035	0	1	4	4
70	4.35955	0.0232201	0	0	4.88972e-035	0	1	4	4
69	4.40599	0.0754647	0	0	4.88972e-035	0	1	4	4
77	4.92844	0.0464396	0	0	4.88972e-035	0	1	4	4
74	5.28254	0.0638552	0	0	4.88972e-035	0	1	4	4
77	5.34639	0.0986848	0	0	4.88972e-035	0	1	4	4
74	5.44508	0.0638547	0	0	4.88972e-035	0	1	4	4
73	5.7063	0.0696602	0	0	4.88972e-035	0	1	4	4
77	5.97333	0.22059	0	0	4.88972e-035	0	1	4	4
87	7.61615	0.0522447	0	0	4.88972e-035	0	1	4	4
64	7.66839	0.0696597	0	0	4.88972e-035	0	1	4	4
68	8.97451	0.0870752	0	0	4.88972e-035	0	1	4	4
68	9.06159	0.121904	0	0	4.88972e-035	0	1	4	4
70	11.668	0.0406351	0	0	4.88972e-035	0	1	4	4
68	11.7087	0.0464401	0	0	4.88972e-035	0	1	4	4
56	11.877	0.121904	0	0	4.88972e-035	0	1	4	4
58	12.2717	0.20898	0	0	4.88972e-035	0	1	4	4
58	12.4807	0.32508	0	0	4.88972e-035	0	1	4	4
56	13.2818	0.162539	0	0	4.88972e-035	0	1	4	4
58	13.694	0.168344	0	0	4.88972e-035	0	1	4	4
57	13.8623	0.400544	0	0	4.88972e-035	0	1	4	4
57	14.7331	0.0754652	0	0	4.88972e-035	0	1	4	4
62	15.0872	0.17415	0	0	4.88972e-035	0	1	4	4
61	15.2613	0.307664	0	0	4.88972e-035	0	1	4	4
61	15.6096	0.168344	0	0	4.88972e-035	0	1	4	4
61	15.778	0.156734	0	0	4.88972e-035	0	1	4	4
64	16.1205	0.121904	0	0	4.88972e-035	0	1	4	4
65	16.2424	0.655964	0	0	4.88972e-035	0	1	4	4
65	17.6239	0.10449	0	0	4.88972e-035	0	1	4	4
65	18.0013	0.0638542	0	0	4.88972e-035	0	1	4	4
64	18.0651	0.272835	0	0	4.88972e-035	0	1	4	4
65	19.11	0.0812702	0	0	4.88972e-035	0	1	4	4
64	19.1913	0.278641	0	0	4.88972e-035	0	1	4	4
57	19.7544	0.255421	0	0	4.88972e-035	0	1	4	4
57	20.5903	0.179955	0	0	4.88972e-035	0	1	4	4
57	20.7702	0.272835	0	0	4.88972e-035	0	1	4	4
64	21.5133	0.0870743	0	0	4.88972e-035	0	1	4	4
65	21.6004	0.208979	0	0	4.88972e-035	0	1	4	4
65	21.8093	0.16254	0	0	4.88972e-035	0	1	4	4
64	21.9719	0.197369	0	0	4.88972e-035	0	1	4	4
62	22.1693	0.783674	0	0	4.88972e-035	0	1	4	4
68	23.6611	0.133514	0	0	4.88972e-035	0	1	4	4
