midiPitch 	 onsetSec 	 durationSec 	 onsetBeats 	 onsetBarIndex 	 onsetBar 	 durationBeats 	 velocity  	 numerator 	 denominator 
68	0.16254	0.0928798	0	0	4.04308e-035	0	1	4	4
67	0.255419	0.0464399	0	0	4.04308e-035	0	1	4	4
67	0.301859	0.0290249	0	0	4.04308e-035	0	1	4	4
67	0.394739	0.191565	0	0	4.04308e-035	0	1	4	4
67	0.638549	0.121905	0	0	4.04308e-035	0	1	4	4
67	0.911383	0.383129	0	0	4.04308e-035	0	1	4	4
67	1.31773	0.15093	0	0	4.04308e-035	0	1	4	4
67	1.53252	0.0986848	0	0	4.04308e-035	0	1	4	4
66	3.66875	0.0406351	0	0	4.04308e-035	0	1	4	4
67	3.71519	0.255419	0	0	4.04308e-035	0	1	4	4
69	3.97061	0.0406349	0	0	4.04308e-035	0	1	4	4
69	4.20281	1.17841	0	0	4.04308e-035	0	1	4	4
67	5.75274	0.121905	0	0	4.04308e-035	0	1	4	4
69	5.87465	0.255419	0	0	4.04308e-035	0	1	4	4
69	6.24036	0.301859	0	0	4.04308e-035	0	1	4	4
69	6.54222	0.168345	0	0	4.04308e-035	0	1	4	4
69	6.71057	0.156734	0	0	4.04308e-035	0	1	4	4
67	6.97179	0.0870748	0	0	4.04308e-035	0	1	4	4
64	7.05887	0.15093	0	0	4.04308e-035	0	1	4	4
65	7.2098	0.150929	0	0	4.04308e-035	0	1	4	4
63	7.36073	0.168345	0	0	4.04308e-035	0	1	4	4
64	7.52907	0.243809	0	0	4.04308e-035	0	1	4	4
66	11.8073	0.17415	0	0	4.04308e-035	0	1	4	4
67	11.9815	0.150929	0	0	4.04308e-035	0	1	4	4
68	12.1324	0.2322	0	0	4.04308e-035	0	1	4	4
67	12.3646	0.383129	0	0	4.04308e-035	0	1	4	4
68	12.8348	0.0696602	0	0	4.04308e-035	0	1	4	4
66	12.9045	0.0406351	0	0	4.04308e-035	0	1	4	4
67	12.9509	0.0232201	0	0	4.04308e-035	0	1	4	4
67	12.98	0.371519	0	0	4.04308e-035	0	1	4	4
67	13.3515	0.104489	0	0	4.04308e-035	0	1	4	4
66	13.5546	0.27864	0	0	4.04308e-035	0	1	4	4
67	16.0856	0.110294	0	0	4.04308e-035	0	1	4	4
68	16.1959	0.0638561	0	0	4.04308e-035	0	1	4	4
68	16.3527	0.208979	0	0	4.04308e-035	0	1	4	4
68	16.5849	0.0986843	0	0	4.04308e-035	0	1	4	4
67	16.8519	0.179955	0	0	4.04308e-035	0	1	4	4
67	17.0841	0.290249	0	0	4.04308e-035	0	1	4	4
67	17.5775	0.301859	0	0	4.04308e-035	0	1	4	4
63	19.1507	0.0928802	0	0	4.04308e-035	0	1	4	4
67	19.3712	0.15093	0	0	4.04308e-035	0	1	4	4
67	19.6325	0.232201	0	0	4.04308e-035	0	1	4	4
69	19.8647	1.15519	0	0	4.04308e-035	0	1	4	4
67	21.4552	0.150928	0	0	4.04308e-035	0	1	4	4
69	21.6062	0.238005	0	0	4.04308e-035	0	1	4	4
70	21.8442	0.15093	0	0	4.04308e-035	0	1	4	4
69	21.9951	0.650158	0	0	4.04308e-035	0	1	4	4
67	22.6453	0.290251	0	0	4.04308e-035	0	1	4	4
65	23.4463	0.16254	0	0	4.04308e-035	0	1	4	4
64	23.6089	0.267029	0	0	4.04308e-035	0	1	4	4
62	23.9862	0.1161	0	0	4.04308e-035	0	1	4	4
64	24.1023	0.342495	0	0	4.04308e-035	0	1	4	4
64	24.4448	0.818502	0	0	4.04308e-035	0	1	4	4
69	28.1716	0.139318	0	0	4.04308e-035	0	1	4	4
60	28.9088	0.168346	0	0	4.04308e-035	0	1	4	4
57	29.2165	0.203175	0	0	4.04308e-035	0	1	4	4
