midiPitch 	 onsetSec 	 durationSec 	 onsetBeats 	 onsetBarIndex 	 onsetBar 	 durationBeats 	 velocity  	 numerator 	 denominator 
71	0.661769	0.145125	0	0	0	0	1	4	4
69	0.998458	0.0232199	0	0	0	0	1	4	4
69	1.02748	0.110295	0	0	0	0	1	4	4
68	1.13778	0.18576	0	0	0	0	1	4	4
69	1.33515	0.19737	0	0	0	0	1	4	4
71	1.53252	0.121905	0	0	0	0	1	4	4
70	1.78794	0.168345	0	0	0	0	1	4	4
68	1.95628	0.284444	0	0	0	0	1	4	4
68	2.40327	0.214785	0	0	0	0	1	4	4
66	2.62385	0.0812697	0	0	0	0	1	4	4
65	2.70512	0.284445	0	0	0	0	1	4	4
63	3.06503	0.330884	0	0	0	0	1	4	4
58	3.63392	0.08127	0	0	0	0	1	4	4
62	4.26667	0.22059	0	0	0	0	1	4	4
61	4.48726	0.516644	0	0	0	0	1	4	4
64	5.4741	0.116099	0	0	0	0	1	4	4
64	5.5902	0.446984	0	0	0	0	1	4	4
64	6.03719	0.13932	0	0	0	0	1	4	4
64	6.26939	0.10449	0	0	0	0	1	4	4
64	6.37388	0.325079	0	0	0	0	1	4	4
69	6.80345	0.18576	0	0	0	0	1	4	4
64	7.35492	0.0928798	0	0	0	0	1	4	4
61	7.54068	0.15093	0	0	0	0	1	4	4
61	7.69161	0.145125	0	0	0	0	1	4	4
64	8.62041	0.0580502	0	0	0	0	1	4	4
61	8.94549	0.0522451	0	0	0	0	1	4	4
61	8.99773	0.162539	0	0	0	0	1	4	4
62	9.17769	0.179955	0	0	0	0	1	4	4
64	9.4215	0.17415	0	0	0	0	1	4	4
64	9.59565	0.0986853	0	0	0	0	1	4	4
64	10.211	0.156734	0	0	0	0	1	4	4
61	10.4083	0.150929	0	0	0	0	1	4	4
71	10.983	0.0754652	0	0	0	0	1	4	4
69	11.0585	0.168344	0	0	0	0	1	4	4
63	11.9931	0.10449	0	0	0	0	1	4	4
63	12.0976	0.17415	0	0	0	0	1	4	4
62	12.2717	0.17415	0	0	0	0	1	4	4
62	12.4749	0.0464401	0	0	0	0	1	4	4
71	12.7071	0.24381	0	0	0	0	1	4	4
71	12.9509	0.301859	0	0	0	0	1	4	4
71	13.3108	0.139319	0	0	0	0	1	4	4
71	13.4502	0.22059	0	0	0	0	1	4	4
73	13.6707	0.19737	0	0	0	0	1	4	4
72	13.932	0.162539	0	0	0	0	1	4	4
70	14.0945	1.34676	0	0	0	0	1	4	4
69	15.6212	1.40481	0	0	0	0	1	4	4
70	17.026	0.121904	0	0	0	0	1	4	4
62	18.158	0.371519	0	0	0	0	1	4	4
64	18.5295	0.296055	0	0	0	0	1	4	4
64	18.8256	0.232199	0	0	0	0	1	4	4
62	19.3712	0.156734	0	0	0	0	1	4	4
62	19.528	0.348301	0	0	0	0	1	4	4
65	19.9227	0.179955	0	0	0	0	1	4	4
64	20.1027	0.342495	0	0	0	0	1	4	4
62	21.3507	0.185759	0	0	0	0	1	4	4
62	21.5365	0.220591	0	0	0	0	1	4	4
64	21.7571	0.342495	0	0	0	0	1	4	4
64	22.0996	0.394739	0	0	0	0	1	4	4
62	22.6453	0.1161	0	0	0	0	1	4	4
63	22.7614	0.110294	0	0	0	0	1	4	4
62	22.9239	0.145124	0	0	0	0	1	4	4
64	23.0806	0.133514	0	0	0	0	1	4	4
61	23.4231	0.290251	0	0	0	0	1	4	4
66	24.1371	0.429569	0	0	0	0	1	4	4
64	24.6132	0.301859	0	0	0	0	1	4	4
66	25.0601	0.16254	0	0	0	0	1	4	4
66	25.3562	0.156734	0	0	0	0	1	4	4
66	25.5129	0.145124	0	0	0	0	1	4	4
67	25.658	0.0638561	0	0	0	0	1	4	4
64	25.8322	0.17415	0	0	0	0	1	4	4
66	26.1805	0.0696602	0	0	0	0	1	4	4
65	26.494	0.249615	0	0	0	0	1	4	4
66	27.1906	0.267029	0	0	0	0	1	4	4
64	27.6027	0.296055	0	0	0	0	1	4	4
66	27.9975	0.0754662	0	0	0	0	1	4	4
66	28.2819	0.12771	0	0	0	0	1	4	4
66	28.4096	0.214785	0	0	0	0	1	4	4
64	28.6999	0.255419	0	0	0	0	1	4	4
67	29.3965	0.208981	0	0	0	0	1	4	4
