midiPitch 	 onsetSec 	 durationSec 	 onsetBeats 	 onsetBarIndex 	 onsetBar 	 durationBeats 	 velocity  	 numerator 	 denominator 
59	0.191565	0.0812698	0	0	1.88059e-035	0	1	4	4
59	0.272834	0.1161	0	0	1.88059e-035	0	1	4	4
55	0.510839	0.0406349	0	0	1.88059e-035	0	1	4	4
53	0.586304	0.10449	0	0	1.88059e-035	0	1	4	4
55	0.690794	0.20898	0	0	1.88059e-035	0	1	4	4
53	0.998458	0.0986848	0	0	1.88059e-035	0	1	4	4
53	1.24227	0.278639	0	0	1.88059e-035	0	1	4	4
55	1.52091	0.0986848	0	0	1.88059e-035	0	1	4	4
56	1.77633	0.0348299	0	0	1.88059e-035	0	1	4	4
60	1.83438	0.417959	0	0	1.88059e-035	0	1	4	4
55	2.322	0.1161	0	0	1.88059e-035	0	1	4	4
48	2.85025	0.168345	0	0	1.88059e-035	0	1	4	4
48	3.10567	0.156735	0	0	1.88059e-035	0	1	4	4
55	3.51202	0.19737	0	0	1.88059e-035	0	1	4	4
57	3.88354	0.986848	0	0	1.88059e-035	0	1	4	4
53	4.99229	0.121905	0	0	1.88059e-035	0	1	4	4
62	5.64825	0.13932	0	0	1.88059e-035	0	1	4	4
64	6.03138	0.975238	0	0	1.88059e-035	0	1	4	4
60	7.11111	0.267029	0	0	1.88059e-035	0	1	4	4
64	7.8019	0.150929	0	0	1.88059e-035	0	1	4	4
65	8.19084	0.284445	0	0	1.88059e-035	0	1	4	4
62	9.03256	0.150929	0	0	1.88059e-035	0	1	4	4
55	9.56662	0.156735	0	0	1.88059e-035	0	1	4	4
61	9.96716	0.168345	0	0	1.88059e-035	0	1	4	4
60	10.3677	0.37152	0	0	1.88059e-035	0	1	4	4
60	11.9931	0.133515	0	0	1.88059e-035	0	1	4	4
59	12.1266	0.0638552	0	0	1.88059e-035	0	1	4	4
62	12.1905	0.191565	0	0	1.88059e-035	0	1	4	4
62	12.4169	0.35991	0	0	1.88059e-035	0	1	4	4
52	13.0786	0.162539	0	0	1.88059e-035	0	1	4	4
62	13.752	0.0522451	0	0	1.88059e-035	0	1	4	4
65	13.8855	0.110295	0	0	1.88059e-035	0	1	4	4
65	13.9958	0.116099	0	0	1.88059e-035	0	1	4	4
65	14.1119	0.121905	0	0	1.88059e-035	0	1	4	4
65	14.2338	0.0928793	0	0	1.88059e-035	0	1	4	4
65	14.4312	0.0812693	0	0	1.88059e-035	0	1	4	4
65	14.5125	0.0812702	0	0	1.88059e-035	0	1	4	4
64	14.6286	0.18576	0	0	1.88059e-035	0	1	4	4
60	14.9653	0.0406351	0	0	1.88059e-035	0	1	4	4
60	15.151	0.0754652	0	0	1.88059e-035	0	1	4	4
60	15.331	0.145124	0	0	1.88059e-035	0	1	4	4
60	15.9985	0.0406342	0	0	1.88059e-035	0	1	4	4
60	16.103	0.0638542	0	0	1.88059e-035	0	1	4	4
59	16.254	0.0870762	0	0	1.88059e-035	0	1	4	4
59	16.341	0.0754642	0	0	1.88059e-035	0	1	4	4
60	16.4165	0.13932	0	0	1.88059e-035	0	1	4	4
62	16.7938	0.0812683	0	0	1.88059e-035	0	1	4	4
59	17.0609	0.110294	0	0	1.88059e-035	0	1	4	4
50	17.7284	0.0464401	0	0	1.88059e-035	0	1	4	4
63	17.9606	0.0638561	0	0	1.88059e-035	0	1	4	4
59	18.1	0.0232201	0	0	1.88059e-035	0	1	4	4
59	18.129	0.0406361	0	0	1.88059e-035	0	1	4	4
59	18.2277	0.0696583	0	0	1.88059e-035	0	1	4	4
59	18.2973	0.133516	0	0	1.88059e-035	0	1	4	4
62	18.5702	0.0754662	0	0	1.88059e-035	0	1	4	4
60	18.8836	0.203175	0	0	1.88059e-035	0	1	4	4
55	19.5744	0.16254	0	0	1.88059e-035	0	1	4	4
67	20.1317	0.156734	0	0	1.88059e-035	0	1	4	4
55	20.6425	0.121904	0	0	1.88059e-035	0	1	4	4
54	21.0083	0.029026	0	0	1.88059e-035	0	1	4	4
57	21.0431	0.684988	0	0	1.88059e-035	0	1	4	4
53	21.7281	0.267031	0	0	1.88059e-035	0	1	4	4
63	22.3724	0.16254	0	0	1.88059e-035	0	1	4	4
60	22.6104	0.226395	0	0	1.88059e-035	0	1	4	4
60	22.8891	0.104488	0	0	1.88059e-035	0	1	4	4
64	23.1445	0.766258	0	0	1.88059e-035	0	1	4	4
60	23.9224	0.208981	0	0	1.88059e-035	0	1	4	4
55	24.1313	0.330883	0	0	1.88059e-035	0	1	4	4
60	24.7525	0.116098	0	0	1.88059e-035	0	1	4	4
64	24.8686	0.0986862	0	0	1.88059e-035	0	1	4	4
62	25.0369	0.10449	0	0	1.88059e-035	0	1	4	4
65	25.3214	0.278641	0	0	1.88059e-035	0	1	4	4
62	26.1166	0.156734	0	0	1.88059e-035	0	1	4	4
55	26.6449	0.13932	0	0	1.88059e-035	0	1	4	4
62	26.9584	0.330885	0	0	1.88059e-035	0	1	4	4
60	27.3183	0.16254	0	0	1.88059e-035	0	1	4	4
60	27.5795	0.348299	0	0	1.88059e-035	0	1	4	4
