midiPitch 	 onsetSec 	 durationSec 	 onsetBeats 	 onsetBarIndex 	 onsetBar 	 durationBeats 	 velocity  	 numerator 	 denominator 
51	0.18576	0.238005	0	0	0	0	1	4	4
50	0.516644	0.0986848	0	0	0	0	1	4	4
52	0.847528	0.261225	0	0	0	0	1	4	4
52	1.42222	0.16254	0	0	0	0	1	4	4
51	1.60218	0.22059	0	0	0	0	1	4	4
75	1.60798	0.423764	0	0	0	0	1	4	4
68	3.48299	0.0870748	0	0	0	0	1	4	4
68	3.69778	0.0580499	0	0	0	0	1	4	4
67	3.75583	0.0232198	0	0	0	0	1	4	4
70	3.79646	0.0232198	0	0	0	0	1	4	4
69	3.82549	0.0232201	0	0	0	0	1	4	4
69	3.86612	0.0580497	0	0	0	0	1	4	4
70	4.08671	0.0754647	0	0	0	0	1	4	4
68	4.16218	0.0348301	0	0	0	0	1	4	4
69	4.40018	0.0580497	0	0	0	0	1	4	4
69	4.60916	0.203175	0	0	0	0	1	4	4
68	4.85297	0.290249	0	0	0	0	1	4	4
67	5.23029	0.255419	0	0	0	0	1	4	4
71	5.48571	0.0638552	0	0	0	0	1	4	4
72	5.54957	0.0638547	0	0	0	0	1	4	4
75	5.57859	0.0870748	0	0	0	0	1	4	4
79	5.89787	0.0812702	0	0	0	0	1	4	4
76	5.97914	0.0348296	0	0	0	0	1	4	4
72	6.23456	0.0754647	0	0	0	0	1	4	4
73	6.31002	0.13932	0	0	0	0	1	4	4
73	6.44934	0.10449	0	0	0	0	1	4	4
73	6.55383	0.19737	0	0	0	0	1	4	4
73	6.7512	0.0464401	0	0	0	0	1	4	4
70	6.89052	0.0464396	0	0	0	0	1	4	4
81	8.01669	0.145124	0	0	0	0	1	4	4
79	10.0717	0.121904	0	0	0	0	1	4	4
56	10.3619	0.0348301	0	0	0	0	1	4	4
57	10.6173	0.0232201	0	0	0	0	1	4	4
57	10.6463	0.0696602	0	0	0	0	1	4	4
58	10.8727	0.121904	0	0	0	0	1	4	4
56	11.163	0.284444	0	0	0	0	1	4	4
56	11.5577	0.214785	0	0	0	0	1	4	4
51	16.9622	0.127708	0	0	0	0	1	4	4
51	17.0899	0.16254	0	0	0	0	1	4	4
51	17.4846	0.208981	0	0	0	0	1	4	4
50	17.9839	0.15093	0	0	0	0	1	4	4
51	18.2393	0.789478	0	0	0	0	1	4	4
51	21.1418	0.203175	0	0	0	0	1	4	4
50	21.8151	0.197369	0	0	0	0	1	4	4
51	22.2854	0.783674	0	0	0	0	1	4	4
51	25.0079	0.278639	0	0	0	0	1	4	4
52	25.2865	0.296055	0	0	0	0	1	4	4
56	26.0702	0.249615	0	0	0	0	1	4	4
57	26.5694	0.232199	0	0	0	0	1	4	4
58	26.8016	0.476009	0	0	0	0	1	4	4
58	27.2776	0.0290241	0	0	0	0	1	4	4
