midiPitch 	 onsetSec 	 durationSec 	 onsetBeats 	 onsetBarIndex 	 onsetBar 	 durationBeats 	 velocity  	 numerator 	 denominator 
54	1.00426	0.17415	0	0	0	0	1	4	4
57	1.2771	0.0754648	0	0	0	0	1	4	4
56	1.45705	0.12771	0	0	0	0	1	4	4
59	1.58476	0.371519	0	0	0	0	1	4	4
58	2.06077	0.325079	0	0	0	0	1	4	4
57	2.38585	0.22059	0	0	0	0	1	4	4
57	2.60644	0.1161	0	0	0	0	1	4	4
54	2.97796	0.191565	0	0	0	0	1	4	4
54	3.62812	0.731428	0	0	0	0	1	4	4
50	5.07356	0.539864	0	0	0	0	1	4	4
50	5.61342	0.0870748	0	0	0	0	1	4	4
52	5.7005	0.284445	0	0	0	0	1	4	4
54	6.15909	0.284444	0	0	0	0	1	4	4
54	6.44354	1.08553	0	0	0	0	1	4	4
61	9.18349	0.121905	0	0	0	0	1	4	4
62	9.3054	0.139319	0	0	0	0	1	4	4
62	9.44472	0.510839	0	0	0	0	1	4	4
60	10.1007	0.127709	0	0	0	0	1	4	4
62	10.2284	0.638549	0	0	0	0	1	4	4
62	10.9192	1.07973	0	0	0	0	1	4	4
59	12.2369	0.2322	0	0	0	0	1	4	4
57	12.7071	0.516644	0	0	0	0	1	4	4
57	13.3805	0.470203	0	0	0	0	1	4	4
52	14.2861	0.191565	0	0	0	0	1	4	4
58	15.4297	0.0754642	0	0	0	0	1	4	4
60	15.5051	0.179955	0	0	0	0	1	4	4
60	15.8592	0.127709	0	0	0	0	1	4	4
62	15.9869	0.499229	0	0	0	0	1	4	4
62	16.5094	0.110294	0	0	0	0	1	4	4
62	16.6197	0.499229	0	0	0	0	1	4	4
62	17.2118	0.0986843	0	0	0	0	1	4	4
62	17.3105	0.499229	0	0	0	0	1	4	4
61	17.8503	0.284445	0	0	0	0	1	4	4
58	18.4134	0.12771	0	0	0	0	1	4	4
59	18.5411	0.516644	0	0	0	0	1	4	4
57	19.0578	0.365715	0	0	0	0	1	4	4
56	19.5338	0.487619	0	0	0	0	1	4	4
55	20.0214	0.133514	0	0	0	0	1	4	4
54	20.1549	0.592108	0	0	0	0	1	4	4
59	22.0125	0.0696602	0	0	0	0	1	4	4
62	22.0822	0.12771	0	0	0	0	1	4	4
59	22.4479	0.121904	0	0	0	0	1	4	4
62	22.5698	0.296055	0	0	0	0	1	4	4
62	23.0284	0.499229	0	0	0	0	1	4	4
62	23.5276	0.208981	0	0	0	0	1	4	4
61	23.8817	0.238005	0	0	0	0	1	4	4
62	24.1197	0.272833	0	0	0	0	1	4	4
61	24.5029	0.203175	0	0	0	0	1	4	4
57	25.0717	0.10449	0	0	0	0	1	4	4
59	25.1762	0.330885	0	0	0	0	1	4	4
57	25.658	0.0928802	0	0	0	0	1	4	4
57	25.9947	0.458593	0	0	0	0	1	4	4
55	26.4533	0.214785	0	0	0	0	1	4	4
54	26.7378	0.197369	0	0	0	0	1	4	4
52	27.0803	0.261225	0	0	0	0	1	4	4
54	29.2397	0.499229	0	0	0	0	1	4	4
