midiPitch 	 onsetSec 	 durationSec 	 onsetBeats 	 onsetBarIndex 	 onsetBar 	 durationBeats 	 velocity  	 numerator 	 denominator 
76	0.319274	0.15093	0	0	4.6639e-035	0	1	4	4
76	0.481814	0.0406349	0	0	4.6639e-035	0	1	4	4
75	0.667574	0.0348299	0	0	4.6639e-035	0	1	4	4
75	0.899773	0.0406349	0	0	4.6639e-035	0	1	4	4
75	0.946213	0.0870749	0	0	4.6639e-035	0	1	4	4
63	0.893968	0.214785	0	0	4.6639e-035	0	1	4	4
64	1.13197	0.429569	0	0	4.6639e-035	0	1	4	4
62	1.68345	0.121905	0	0	4.6639e-035	0	1	4	4
61	1.80535	0.0232199	0	0	4.6639e-035	0	1	4	4
65	2.08399	0.110295	0	0	4.6639e-035	0	1	4	4
65	2.19429	0.145125	0	0	4.6639e-035	0	1	4	4
64	2.33941	0.09288	0	0	4.6639e-035	0	1	4	4
62	2.6761	0.121905	0	0	4.6639e-035	0	1	4	4
61	2.798	0.342494	0	0	4.6639e-035	0	1	4	4
71	20.7296	0.0348301	0	0	4.6639e-035	0	1	4	4
72	20.7644	0.0928802	0	0	4.6639e-035	0	1	4	4
69	21.2288	0.0348301	0	0	4.6639e-035	0	1	4	4
82	21.3566	0.0232201	0	0	4.6639e-035	0	1	4	4
84	21.432	0.0464401	0	0	4.6639e-035	0	1	4	4
85	21.5539	0.0928802	0	0	4.6639e-035	0	1	4	4
85	21.6468	0.0232201	0	0	4.6639e-035	0	1	4	4
80	22.2157	0.0522461	0	0	4.6639e-035	0	1	4	4
84	22.2795	0.0232201	0	0	4.6639e-035	0	1	4	4
81	22.3086	0.0580502	0	0	4.6639e-035	0	1	4	4
87	22.3666	0.0638542	0	0	4.6639e-035	0	1	4	4
80	22.7381	0.0232201	0	0	4.6639e-035	0	1	4	4
81	22.8078	0.249615	0	0	4.6639e-035	0	1	4	4
84	23.1909	0.0348301	0	0	4.6639e-035	0	1	4	4
82	24.7699	0.0464401	0	0	4.6639e-035	0	1	4	4
77	24.8279	0.0986843	0	0	4.6639e-035	0	1	4	4
77	24.9266	0.0928802	0	0	4.6639e-035	0	1	4	4
75	25.0253	0.0928802	0	0	4.6639e-035	0	1	4	4
68	25.2749	0.0870762	0	0	4.6639e-035	0	1	4	4
67	25.5303	0.429569	0	0	4.6639e-035	0	1	4	4
68	26.8945	0.249615	0	0	4.6639e-035	0	1	4	4
67	27.1557	0.0406342	0	0	4.6639e-035	0	1	4	4
