midiPitch 	 onsetSec 	 durationSec 	 onsetBeats 	 onsetBarIndex 	 onsetBar 	 durationBeats 	 velocity  	 numerator 	 denominator 
72	6.72218	0.1161	0	0	2.02155e-035	0	1	4	4
72	6.83828	0.0870748	0	0	2.02155e-035	0	1	4	4
72	7.02984	0.20898	0	0	2.02155e-035	0	1	4	4
74	7.36653	0.481814	0	0	2.02155e-035	0	1	4	4
72	11.5984	0.12771	0	0	2.02155e-035	0	1	4	4
72	11.8828	0.110294	0	0	2.02155e-035	0	1	4	4
74	11.9931	0.203175	0	0	2.02155e-035	0	1	4	4
74	12.1963	0.0812702	0	0	2.02155e-035	0	1	4	4
74	12.2776	0.121905	0	0	2.02155e-035	0	1	4	4
74	12.3995	0.156734	0	0	2.02155e-035	0	1	4	4
72	12.5794	0.145124	0	0	2.02155e-035	0	1	4	4
72	12.7361	0.110294	0	0	2.02155e-035	0	1	4	4
72	12.8697	0.145125	0	0	2.02155e-035	0	1	4	4
74	13.0322	0.406349	0	0	2.02155e-035	0	1	4	4
72	13.4385	0.13932	0	0	2.02155e-035	0	1	4	4
73	19.4815	0.0580502	0	0	2.02155e-035	0	1	4	4
74	19.5396	0.121906	0	0	2.02155e-035	0	1	4	4
82	19.9576	0.16254	0	0	2.02155e-035	0	1	4	4
82	20.1781	0.0812702	0	0	2.02155e-035	0	1	4	4
83	25.2111	0.0696602	0	0	2.02155e-035	0	1	4	4
84	25.2807	0.174149	0	0	2.02155e-035	0	1	4	4
84	25.4549	0.1161	0	0	2.02155e-035	0	1	4	4
84	25.571	0.0232201	0	0	2.02155e-035	0	1	4	4
72	25.571	0.168344	0	0	2.02155e-035	0	1	4	4
73	25.78	0.208979	0	0	2.02155e-035	0	1	4	4
