midiPitch 	 onsetSec 	 durationSec 	 onsetBeats 	 onsetBarIndex 	 onsetBar 	 durationBeats 	 velocity  	 numerator 	 denominator 
58	0.435374	0.0580499	0	0	2.85815e-035	0	1	4	4
58	0.499229	0.272834	0	0	2.85815e-035	0	1	4	4
58	0.772063	0.238005	0	0	2.85815e-035	0	1	4	4
58	1.02168	0.0464399	0	0	2.85815e-035	0	1	4	4
58	1.06812	0.214785	0	0	2.85815e-035	0	1	4	4
59	1.2829	0.0638548	0	0	2.85815e-035	0	1	4	4
58	1.42222	0.272835	0	0	2.85815e-035	0	1	4	4
58	1.71828	0.121905	0	0	2.85815e-035	0	1	4	4
58	1.84018	0.03483	0	0	2.85815e-035	0	1	4	4
58	1.87501	0.383129	0	0	2.85815e-035	0	1	4	4
59	2.35102	0.319274	0	0	2.85815e-035	0	1	4	4
60	2.92571	0.348299	0	0	2.85815e-035	0	1	4	4
56	3.42494	0.191565	0	0	2.85815e-035	0	1	4	4
60	3.79066	0.261224	0	0	2.85815e-035	0	1	4	4
61	4.05188	0.24381	0	0	2.85815e-035	0	1	4	4
63	4.29569	1.66023	0	0	2.85815e-035	0	1	4	4
61	5.95592	0.133515	0	0	2.85815e-035	0	1	4	4
58	6.08943	0.156734	0	0	2.85815e-035	0	1	4	4
59	6.2868	0.110295	0	0	2.85815e-035	0	1	4	4
59	6.3971	0.133514	0	0	2.85815e-035	0	1	4	4
58	6.88472	0.191565	0	0	2.85815e-035	0	1	4	4
57	7.37234	0.249615	0	0	2.85815e-035	0	1	4	4
61	8.20825	0.261225	0	0	2.85815e-035	0	1	4	4
63	8.46948	0.139319	0	0	2.85815e-035	0	1	4	4
63	8.6088	0.0464401	0	0	2.85815e-035	0	1	4	4
63	8.7249	0.0928802	0	0	2.85815e-035	0	1	4	4
63	8.89324	0.116099	0	0	2.85815e-035	0	1	4	4
62	9.00934	0.0290251	0	0	2.85815e-035	0	1	4	4
62	9.04417	0.17415	0	0	2.85815e-035	0	1	4	4
58	9.34603	0.249615	0	0	2.85815e-035	0	1	4	4
60	9.75819	0.27864	0	0	2.85815e-035	0	1	4	4
62	10.1239	0.238004	0	0	2.85815e-035	0	1	4	4
62	10.3619	0.510839	0	0	2.85815e-035	0	1	4	4
65	10.896	0.0754642	0	0	2.85815e-035	0	1	4	4
62	10.9714	0.0464401	0	0	2.85815e-035	0	1	4	4
62	11.0179	0.0290251	0	0	2.85815e-035	0	1	4	4
63	11.0527	0.307665	0	0	2.85815e-035	0	1	4	4
63	11.3604	0.342494	0	0	2.85815e-035	0	1	4	4
56	15.6038	0.238005	0	0	2.85815e-035	0	1	4	4
58	15.8418	0.249615	0	0	2.85815e-035	0	1	4	4
58	16.1437	0.423765	0	0	2.85815e-035	0	1	4	4
58	16.6197	0.0986843	0	0	2.85815e-035	0	1	4	4
57	16.7184	0.0232201	0	0	2.85815e-035	0	1	4	4
59	16.7474	0.121904	0	0	2.85815e-035	0	1	4	4
60	16.9273	0.754648	0	0	2.85815e-035	0	1	4	4
53	18.0245	0.208979	0	0	2.85815e-035	0	1	4	4
54	18.2393	0.0928783	0	0	2.85815e-035	0	1	4	4
52	18.3322	0.0406361	0	0	2.85815e-035	0	1	4	4
53	18.396	0.104488	0	0	2.85815e-035	0	1	4	4
54	18.5005	0.156734	0	0	2.85815e-035	0	1	4	4
58	18.9068	0.342495	0	0	2.85815e-035	0	1	4	4
58	19.3074	0.10449	0	0	2.85815e-035	0	1	4	4
59	19.4119	0.0812683	0	0	2.85815e-035	0	1	4	4
60	19.6615	0.336689	0	0	2.85815e-035	0	1	4	4
0	19.9982	0.0986843	0	0	2.85815e-035	0	1	4	4
58	20.0969	0.301859	0	0	2.85815e-035	0	1	4	4
59	20.3987	0.0928802	0	0	2.85815e-035	0	1	4	4
59	20.538	0.0812702	0	0	2.85815e-035	0	1	4	4
63	20.689	0.133514	0	0	2.85815e-035	0	1	4	4
63	20.8225	0.226395	0	0	2.85815e-035	0	1	4	4
55	21.3624	0.0290241	0	0	2.85815e-035	0	1	4	4
25026920	21.6294	0.301861	0	0	2.85815e-035	0	1	4	4
59	21.9312	0.383129	0	0	2.85815e-035	0	1	4	4
59	22.3144	0.0232201	0	0	2.85815e-035	0	1	4	4
60	22.3898	0.197369	0	0	2.85815e-035	0	1	4	4
58	23.4173	0.191565	0	0	2.85815e-035	0	1	4	4
58	23.8643	0.214785	0	0	2.85815e-035	0	1	4	4
59	24.1313	0.104488	0	0	2.85815e-035	0	1	4	4
58	24.2881	0.255419	0	0	2.85815e-035	0	1	4	4
59	24.5435	0.0580502	0	0	2.85815e-035	0	1	4	4
60	24.7118	0.708208	0	0	2.85815e-035	0	1	4	4
59	27.0454	0.0638542	0	0	2.85815e-035	0	1	4	4
57	27.1325	0.0232201	0	0	2.85815e-035	0	1	4	4
59	27.1615	0.0870762	0	0	2.85815e-035	0	1	4	4
58	27.2486	0.0290241	0	0	2.85815e-035	0	1	4	4
57	27.2834	0.0232201	0	0	2.85815e-035	0	1	4	4
59	27.3531	0.0580502	0	0	2.85815e-035	0	1	4	4
59	27.4692	0.0232201	0	0	2.85815e-035	0	1	4	4
60	27.4924	0.0232201	0	0	2.85815e-035	0	1	4	4
60	27.6259	0.145124	0	0	2.85815e-035	0	1	4	4
61	27.7711	0.13932	0	0	2.85815e-035	0	1	4	4
61	27.9104	0.1161	0	0	2.85815e-035	0	1	4	4
60	28.0265	0.139318	0	0	2.85815e-035	0	1	4	4
59	28.2006	0.0638561	0	0	2.85815e-035	0	1	4	4
57	28.3864	0.121904	0	0	2.85815e-035	0	1	4	4
0	28.5083	0.156734	0	0	2.85815e-035	0	1	4	4
60	28.665	0.121904	0	0	2.85815e-035	0	1	4	4
63	28.7869	0.406349	0	0	2.85815e-035	0	1	4	4
