midiPitch 	 onsetSec 	 durationSec 	 onsetBeats 	 onsetBarIndex 	 onsetBar 	 durationBeats 	 velocity  	 numerator 	 denominator 
49	2.14785	0.0290251	0	0	4.26882e-035	0	1	4	4
56	2.22912	0.0522449	0	0	4.26882e-035	0	1	4	4
59	2.34522	0.1161	0	0	4.26882e-035	0	1	4	4
58	2.46132	0.15093	0	0	4.26882e-035	0	1	4	4
62	2.71093	2.35102	0	0	4.26882e-035	0	1	4	4
63	5.10258	0.0580502	0	0	4.26882e-035	0	1	4	4
62	5.16063	0.220589	0	0	4.26882e-035	0	1	4	4
60	5.57279	0.168344	0	0	4.26882e-035	0	1	4	4
60	5.74113	0.0290251	0	0	4.26882e-035	0	1	4	4
59	5.78757	0.267029	0	0	4.26882e-035	0	1	4	4
60	6.0546	0.528254	0	0	4.26882e-035	0	1	4	4
59	6.58286	0.139319	0	0	4.26882e-035	0	1	4	4
59	6.72218	0.638549	0	0	4.26882e-035	0	1	4	4
69	12.0395	0.0928802	0	0	4.26882e-035	0	1	4	4
60	12.1615	0.150929	0	0	4.26882e-035	0	1	4	4
59	12.3298	0.0580502	0	0	4.26882e-035	0	1	4	4
58	12.4865	0.121904	0	0	4.26882e-035	0	1	4	4
60	12.771	0.359909	0	0	4.26882e-035	0	1	4	4
58	13.2528	0.0406351	0	0	4.26882e-035	0	1	4	4
59	13.2934	0.133514	0	0	4.26882e-035	0	1	4	4
60	13.4385	0.0290251	0	0	4.26882e-035	0	1	4	4
58	14.0887	0.133515	0	0	4.26882e-035	0	1	4	4
60	14.2512	0.12771	0	0	4.26882e-035	0	1	4	4
61	14.379	0.261225	0	0	4.26882e-035	0	1	4	4
57	14.7969	0.394739	0	0	4.26882e-035	0	1	4	4
56	15.1917	0.0290251	0	0	4.26882e-035	0	1	4	4
69	18.7153	0.0986862	0	0	4.26882e-035	0	1	4	4
57	18.7501	0.214785	0	0	4.26882e-035	0	1	4	4
59	19.1274	0.330885	0	0	4.26882e-035	0	1	4	4
58	19.4583	0.278639	0	0	4.26882e-035	0	1	4	4
58	22.7904	0.284445	0	0	4.26882e-035	0	1	4	4
55	23.0922	0.0232201	0	0	4.26882e-035	0	1	4	4
59	23.1793	0.0986843	0	0	4.26882e-035	0	1	4	4
58	23.278	0.336689	0	0	4.26882e-035	0	1	4	4
57	23.8237	0.0754642	0	0	4.26882e-035	0	1	4	4
58	23.8991	0.168344	0	0	4.26882e-035	0	1	4	4
57	24.0675	0.249615	0	0	4.26882e-035	0	1	4	4
57	24.3171	0.13932	0	0	4.26882e-035	0	1	4	4
57	24.4564	0.452789	0	0	4.26882e-035	0	1	4	4
57	24.9266	0.0580502	0	0	4.26882e-035	0	1	4	4
55	24.9847	0.5805	0	0	4.26882e-035	0	1	4	4
56	25.5652	0.0348301	0	0	4.26882e-035	0	1	4	4
55	25.6464	0.0812702	0	0	4.26882e-035	0	1	4	4
55	25.809	0.12771	0	0	4.26882e-035	0	1	4	4
